ISO-10303-21;
HEADER;
/* Generated by software containing ST-Developer
 * from STEP Tools, Inc. (www.steptools.com) 
 */

FILE_DESCRIPTION(
/* description */ (''),
/* implementation_level */ '2;1');

FILE_NAME(
/* name */ 'adruino3.step',
/* time_stamp */ '2026-07-02T14:43:13+05:30',
/* author */ (''),
/* organization */ (''),
/* preprocessor_version */ 'ST-DEVELOPER v20.1',
/* originating_system */ 'Autodesk Translation Framework v15.8.0.0',
/* authorisation */ '');

FILE_SCHEMA (('AUTOMOTIVE_DESIGN { 1 0 10303 214 3 1 1 }'));
ENDSEC;

DATA;
#10=MECHANICAL_DESIGN_GEOMETRIC_PRESENTATION_REPRESENTATION('',(#13),#1536);
#11=SHAPE_REPRESENTATION_RELATIONSHIP('SRR','None',#1543,#12);
#12=ADVANCED_BREP_SHAPE_REPRESENTATION('',(#14),#1535);
#13=STYLED_ITEM('',(#1552),#14);
#14=MANIFOLD_SOLID_BREP('Body1',#765);
#15=FACE_BOUND('',#271,.T.);
#16=FACE_BOUND('',#280,.T.);
#17=PLANE('',#786);
#18=PLANE('',#797);
#19=PLANE('',#825);
#20=PLANE('',#826);
#21=PLANE('',#827);
#22=PLANE('',#828);
#23=PLANE('',#837);
#24=PLANE('',#838);
#25=PLANE('',#839);
#26=PLANE('',#840);
#27=PLANE('',#849);
#28=PLANE('',#858);
#29=PLANE('',#859);
#30=PLANE('',#860);
#31=LINE('',#1134,#97);
#32=LINE('',#1135,#98);
#33=LINE('',#1171,#99);
#34=LINE('',#1173,#100);
#35=LINE('',#1174,#101);
#36=LINE('',#1177,#102);
#37=LINE('',#1181,#103);
#38=LINE('',#1184,#104);
#39=LINE('',#1223,#105);
#40=LINE('',#1225,#106);
#41=LINE('',#1254,#107);
#42=LINE('',#1256,#108);
#43=LINE('',#1257,#109);
#44=LINE('',#1260,#110);
#45=LINE('',#1263,#111);
#46=LINE('',#1264,#112);
#47=LINE('',#1303,#113);
#48=LINE('',#1336,#114);
#49=LINE('',#1339,#115);
#50=LINE('',#1341,#116);
#51=LINE('',#1379,#117);
#52=LINE('',#1411,#118);
#53=LINE('',#1413,#119);
#54=LINE('',#1414,#120);
#55=LINE('',#1418,#121);
#56=LINE('',#1422,#122);
#57=LINE('',#1427,#123);
#58=LINE('',#1431,#124);
#59=LINE('',#1434,#125);
#60=LINE('',#1436,#126);
#61=LINE('',#1438,#127);
#62=LINE('',#1439,#128);
#63=LINE('',#1441,#129);
#64=LINE('',#1442,#130);
#65=LINE('',#1445,#131);
#66=LINE('',#1447,#132);
#67=LINE('',#1448,#133);
#68=LINE('',#1451,#134);
#69=LINE('',#1452,#135);
#70=LINE('',#1456,#136);
#71=LINE('',#1458,#137);
#72=LINE('',#1459,#138);
#73=LINE('',#1464,#139);
#74=LINE('',#1470,#140);
#75=LINE('',#1473,#141);
#76=LINE('',#1475,#142);
#77=LINE('',#1478,#143);
#78=LINE('',#1480,#144);
#79=LINE('',#1481,#145);
#80=LINE('',#1484,#146);
#81=LINE('',#1485,#147);
#82=LINE('',#1490,#148);
#83=LINE('',#1492,#149);
#84=LINE('',#1494,#150);
#85=LINE('',#1496,#151);
#86=LINE('',#1498,#152);
#87=LINE('',#1500,#153);
#88=LINE('',#1502,#154);
#89=LINE('',#1503,#155);
#90=LINE('',#1507,#156);
#91=LINE('',#1510,#157);
#92=LINE('',#1512,#158);
#93=LINE('',#1517,#159);
#94=LINE('',#1521,#160);
#95=LINE('',#1528,#161);
#96=LINE('',#1530,#162);
#97=VECTOR('',#873,10.);
#98=VECTOR('',#874,10.);
#99=VECTOR('',#881,10.);
#100=VECTOR('',#882,10.);
#101=VECTOR('',#883,10.);
#102=VECTOR('',#886,10.);
#103=VECTOR('',#891,10.);
#104=VECTOR('',#894,10.);
#105=VECTOR('',#903,10.);
#106=VECTOR('',#906,10.);
#107=VECTOR('',#911,10.);
#108=VECTOR('',#912,10.);
#109=VECTOR('',#913,10.);
#110=VECTOR('',#916,10.);
#111=VECTOR('',#921,10.);
#112=VECTOR('',#922,10.);
#113=VECTOR('',#933,10.);
#114=VECTOR('',#938,10.);
#115=VECTOR('',#941,10.);
#116=VECTOR('',#944,10.);
#117=VECTOR('',#955,10.);
#118=VECTOR('',#958,10.);
#119=VECTOR('',#961,10.);
#120=VECTOR('',#962,10.);
#121=VECTOR('',#965,10.);
#122=VECTOR('',#968,10.);
#123=VECTOR('',#973,10.);
#124=VECTOR('',#976,10.);
#125=VECTOR('',#981,10.);
#126=VECTOR('',#982,10.);
#127=VECTOR('',#983,10.);
#128=VECTOR('',#984,10.);
#129=VECTOR('',#987,10.);
#130=VECTOR('',#988,10.);
#131=VECTOR('',#991,10.);
#132=VECTOR('',#992,10.);
#133=VECTOR('',#993,10.);
#134=VECTOR('',#996,10.);
#135=VECTOR('',#997,10.);
#136=VECTOR('',#1002,10.);
#137=VECTOR('',#1003,10.);
#138=VECTOR('',#1004,10.);
#139=VECTOR('',#1009,10.);
#140=VECTOR('',#1016,10.);
#141=VECTOR('',#1021,10.);
#142=VECTOR('',#1024,10.);
#143=VECTOR('',#1027,10.);
#144=VECTOR('',#1028,10.);
#145=VECTOR('',#1029,10.);
#146=VECTOR('',#1032,10.);
#147=VECTOR('',#1033,10.);
#148=VECTOR('',#1038,10.);
#149=VECTOR('',#1039,10.);
#150=VECTOR('',#1040,10.);
#151=VECTOR('',#1041,10.);
#152=VECTOR('',#1042,10.);
#153=VECTOR('',#1043,10.);
#154=VECTOR('',#1044,10.);
#155=VECTOR('',#1045,10.);
#156=VECTOR('',#1050,10.);
#157=VECTOR('',#1055,10.);
#158=VECTOR('',#1058,10.);
#159=VECTOR('',#1067,10.);
#160=VECTOR('',#1072,10.);
#161=VECTOR('',#1085,10.);
#162=VECTOR('',#1088,10.);
#163=CYLINDRICAL_SURFACE('',#782,0.5);
#164=CYLINDRICAL_SURFACE('',#787,1.);
#165=CYLINDRICAL_SURFACE('',#789,1.);
#166=CYLINDRICAL_SURFACE('',#794,0.5);
#167=CYLINDRICAL_SURFACE('',#798,1.);
#168=CYLINDRICAL_SURFACE('',#800,1.);
#169=CYLINDRICAL_SURFACE('',#804,0.5);
#170=CYLINDRICAL_SURFACE('',#807,1.);
#171=CYLINDRICAL_SURFACE('',#808,1.);
#172=CYLINDRICAL_SURFACE('',#813,0.5);
#173=CYLINDRICAL_SURFACE('',#815,1.);
#174=CYLINDRICAL_SURFACE('',#816,1.);
#175=CYLINDRICAL_SURFACE('',#817,1.);
#176=CYLINDRICAL_SURFACE('',#820,1.);
#177=CYLINDRICAL_SURFACE('',#823,1.);
#178=CYLINDRICAL_SURFACE('',#824,1.);
#179=CYLINDRICAL_SURFACE('',#829,1.);
#180=CYLINDRICAL_SURFACE('',#832,1.);
#181=CYLINDRICAL_SURFACE('',#835,1.);
#182=CYLINDRICAL_SURFACE('',#836,1.);
#183=CYLINDRICAL_SURFACE('',#841,1.);
#184=CYLINDRICAL_SURFACE('',#844,1.);
#185=CYLINDRICAL_SURFACE('',#846,1.);
#186=CYLINDRICAL_SURFACE('',#848,1.);
#187=CYLINDRICAL_SURFACE('',#850,1.);
#188=CYLINDRICAL_SURFACE('',#853,1.);
#189=CYLINDRICAL_SURFACE('',#856,1.);
#190=CYLINDRICAL_SURFACE('',#857,1.);
#191=FACE_OUTER_BOUND('',#241,.T.);
#192=FACE_OUTER_BOUND('',#242,.T.);
#193=FACE_OUTER_BOUND('',#243,.T.);
#194=FACE_OUTER_BOUND('',#244,.T.);
#195=FACE_OUTER_BOUND('',#245,.T.);
#196=FACE_OUTER_BOUND('',#246,.T.);
#197=FACE_OUTER_BOUND('',#247,.T.);
#198=FACE_OUTER_BOUND('',#248,.T.);
#199=FACE_OUTER_BOUND('',#249,.T.);
#200=FACE_OUTER_BOUND('',#250,.T.);
#201=FACE_OUTER_BOUND('',#251,.T.);
#202=FACE_OUTER_BOUND('',#252,.T.);
#203=FACE_OUTER_BOUND('',#253,.T.);
#204=FACE_OUTER_BOUND('',#254,.T.);
#205=FACE_OUTER_BOUND('',#255,.T.);
#206=FACE_OUTER_BOUND('',#256,.T.);
#207=FACE_OUTER_BOUND('',#257,.T.);
#208=FACE_OUTER_BOUND('',#258,.T.);
#209=FACE_OUTER_BOUND('',#259,.T.);
#210=FACE_OUTER_BOUND('',#260,.T.);
#211=FACE_OUTER_BOUND('',#261,.T.);
#212=FACE_OUTER_BOUND('',#262,.T.);
#213=FACE_OUTER_BOUND('',#263,.T.);
#214=FACE_OUTER_BOUND('',#264,.T.);
#215=FACE_OUTER_BOUND('',#265,.T.);
#216=FACE_OUTER_BOUND('',#266,.T.);
#217=FACE_OUTER_BOUND('',#267,.T.);
#218=FACE_OUTER_BOUND('',#268,.T.);
#219=FACE_OUTER_BOUND('',#269,.T.);
#220=FACE_OUTER_BOUND('',#270,.T.);
#221=FACE_OUTER_BOUND('',#272,.T.);
#222=FACE_OUTER_BOUND('',#273,.T.);
#223=FACE_OUTER_BOUND('',#274,.T.);
#224=FACE_OUTER_BOUND('',#275,.T.);
#225=FACE_OUTER_BOUND('',#276,.T.);
#226=FACE_OUTER_BOUND('',#277,.T.);
#227=FACE_OUTER_BOUND('',#278,.T.);
#228=FACE_OUTER_BOUND('',#279,.T.);
#229=FACE_OUTER_BOUND('',#281,.T.);
#230=FACE_OUTER_BOUND('',#282,.T.);
#231=FACE_OUTER_BOUND('',#283,.T.);
#232=FACE_OUTER_BOUND('',#284,.T.);
#233=FACE_OUTER_BOUND('',#285,.T.);
#234=FACE_OUTER_BOUND('',#286,.T.);
#235=FACE_OUTER_BOUND('',#287,.T.);
#236=FACE_OUTER_BOUND('',#288,.T.);
#237=FACE_OUTER_BOUND('',#289,.T.);
#238=FACE_OUTER_BOUND('',#290,.T.);
#239=FACE_OUTER_BOUND('',#291,.T.);
#240=FACE_OUTER_BOUND('',#292,.T.);
#241=EDGE_LOOP('',(#495,#496,#497));
#242=EDGE_LOOP('',(#498,#499,#500,#501));
#243=EDGE_LOOP('',(#502,#503,#504));
#244=EDGE_LOOP('',(#505,#506,#507,#508));
#245=EDGE_LOOP('',(#509,#510,#511,#512));
#246=EDGE_LOOP('',(#513,#514,#515,#516));
#247=EDGE_LOOP('',(#517,#518,#519));
#248=EDGE_LOOP('',(#520,#521,#522,#523));
#249=EDGE_LOOP('',(#524,#525,#526));
#250=EDGE_LOOP('',(#527,#528,#529,#530));
#251=EDGE_LOOP('',(#531,#532,#533,#534));
#252=EDGE_LOOP('',(#535,#536,#537,#538));
#253=EDGE_LOOP('',(#539,#540,#541));
#254=EDGE_LOOP('',(#542,#543,#544,#545));
#255=EDGE_LOOP('',(#546,#547,#548));
#256=EDGE_LOOP('',(#549,#550,#551,#552));
#257=EDGE_LOOP('',(#553,#554,#555,#556));
#258=EDGE_LOOP('',(#557,#558,#559));
#259=EDGE_LOOP('',(#560,#561,#562,#563));
#260=EDGE_LOOP('',(#564,#565,#566));
#261=EDGE_LOOP('',(#567,#568,#569,#570));
#262=EDGE_LOOP('',(#571,#572,#573,#574));
#263=EDGE_LOOP('',(#575,#576,#577,#578));
#264=EDGE_LOOP('',(#579,#580,#581,#582));
#265=EDGE_LOOP('',(#583,#584,#585,#586,#587,#588));
#266=EDGE_LOOP('',(#589,#590,#591,#592));
#267=EDGE_LOOP('',(#593,#594,#595,#596));
#268=EDGE_LOOP('',(#597,#598,#599,#600));
#269=EDGE_LOOP('',(#601,#602,#603,#604));
#270=EDGE_LOOP('',(#605,#606,#607,#608));
#271=EDGE_LOOP('',(#609,#610,#611,#612,#613,#614,#615,#616));
#272=EDGE_LOOP('',(#617,#618,#619,#620));
#273=EDGE_LOOP('',(#621,#622,#623,#624));
#274=EDGE_LOOP('',(#625,#626,#627,#628));
#275=EDGE_LOOP('',(#629,#630,#631,#632));
#276=EDGE_LOOP('',(#633,#634,#635,#636));
#277=EDGE_LOOP('',(#637,#638,#639,#640));
#278=EDGE_LOOP('',(#641,#642,#643,#644));
#279=EDGE_LOOP('',(#645,#646,#647,#648));
#280=EDGE_LOOP('',(#649,#650,#651,#652,#653,#654,#655,#656));
#281=EDGE_LOOP('',(#657,#658,#659,#660));
#282=EDGE_LOOP('',(#661,#662,#663,#664,#665,#666));
#283=EDGE_LOOP('',(#667,#668,#669,#670));
#284=EDGE_LOOP('',(#671,#672,#673,#674));
#285=EDGE_LOOP('',(#675,#676,#677,#678));
#286=EDGE_LOOP('',(#679,#680,#681,#682));
#287=EDGE_LOOP('',(#683,#684,#685,#686));
#288=EDGE_LOOP('',(#687,#688,#689,#690));
#289=EDGE_LOOP('',(#691,#692,#693,#694));
#290=EDGE_LOOP('',(#695,#696,#697,#698));
#291=EDGE_LOOP('',(#699,#700,#701,#702));
#292=EDGE_LOOP('',(#703,#704,#705,#706));
#293=ELLIPSE('',#780,1.11803398874989,1.);
#294=ELLIPSE('',#781,1.11803398874989,1.);
#295=ELLIPSE('',#784,1.11803398874989,0.999999999999992);
#296=ELLIPSE('',#785,1.11803398874989,1.);
#297=ELLIPSE('',#788,1.11803398874989,0.999999999999992);
#298=ELLIPSE('',#790,1.1180339887499,1.);
#299=ELLIPSE('',#792,1.11803398874989,1.);
#300=ELLIPSE('',#793,1.11803398874989,1.00000000000001);
#301=ELLIPSE('',#796,1.11803398874989,1.);
#302=ELLIPSE('',#799,1.11803398874989,1.);
#303=ELLIPSE('',#802,1.11803398874989,1.);
#304=ELLIPSE('',#803,1.11803398874989,0.999999999999992);
#305=ELLIPSE('',#806,1.11803398874989,1.);
#306=ELLIPSE('',#809,1.11803398874989,1.00000000000001);
#307=ELLIPSE('',#811,1.11803398874989,1.);
#308=ELLIPSE('',#812,1.11803398874989,1.00000000000001);
#309=ELLIPSE('',#818,1.41421350968954,1.);
#310=ELLIPSE('',#819,1.4142137731075,1.);
#311=ELLIPSE('',#821,1.41421356237309,1.);
#312=ELLIPSE('',#822,1.41421356237309,1.);
#313=ELLIPSE('',#830,1.4142135623731,1.);
#314=ELLIPSE('',#831,1.4142135623731,1.);
#315=ELLIPSE('',#833,1.41421356237309,1.);
#316=ELLIPSE('',#834,1.41421356237309,1.);
#317=ELLIPSE('',#842,1.4142137731075,1.);
#318=ELLIPSE('',#843,1.41421361505666,1.);
#319=ELLIPSE('',#845,1.4142135623731,1.);
#320=ELLIPSE('',#847,1.41421356237309,1.);
#321=ELLIPSE('',#851,1.4142135623731,1.);
#322=ELLIPSE('',#852,1.4142135623731,1.);
#323=ELLIPSE('',#854,1.41421356237309,1.);
#324=ELLIPSE('',#855,1.41421356237309,1.);
#325=CIRCLE('',#779,0.500000000000003);
#326=CIRCLE('',#783,0.499999999999998);
#327=CIRCLE('',#791,0.500000000000003);
#328=CIRCLE('',#795,0.5);
#329=CIRCLE('',#801,0.500000000000003);
#330=CIRCLE('',#805,0.499999999999998);
#331=CIRCLE('',#810,0.500000000000007);
#332=CIRCLE('',#814,0.5);
#333=VERTEX_POINT('',#1124);
#334=VERTEX_POINT('',#1125);
#335=VERTEX_POINT('',#1127);
#336=VERTEX_POINT('',#1131);
#337=VERTEX_POINT('',#1132);
#338=VERTEX_POINT('',#1166);
#339=VERTEX_POINT('',#1170);
#340=VERTEX_POINT('',#1172);
#341=VERTEX_POINT('',#1176);
#342=VERTEX_POINT('',#1180);
#343=VERTEX_POINT('',#1182);
#344=VERTEX_POINT('',#1215);
#345=VERTEX_POINT('',#1216);
#346=VERTEX_POINT('',#1218);
#347=VERTEX_POINT('',#1222);
#348=VERTEX_POINT('',#1253);
#349=VERTEX_POINT('',#1255);
#350=VERTEX_POINT('',#1259);
#351=VERTEX_POINT('',#1295);
#352=VERTEX_POINT('',#1297);
#353=VERTEX_POINT('',#1301);
#354=VERTEX_POINT('',#1338);
#355=VERTEX_POINT('',#1372);
#356=VERTEX_POINT('',#1374);
#357=VERTEX_POINT('',#1416);
#358=VERTEX_POINT('',#1417);
#359=VERTEX_POINT('',#1419);
#360=VERTEX_POINT('',#1421);
#361=VERTEX_POINT('',#1425);
#362=VERTEX_POINT('',#1426);
#363=VERTEX_POINT('',#1428);
#364=VERTEX_POINT('',#1430);
#365=VERTEX_POINT('',#1435);
#366=VERTEX_POINT('',#1437);
#367=VERTEX_POINT('',#1444);
#368=VERTEX_POINT('',#1446);
#369=VERTEX_POINT('',#1450);
#370=VERTEX_POINT('',#1455);
#371=VERTEX_POINT('',#1457);
#372=VERTEX_POINT('',#1461);
#373=VERTEX_POINT('',#1463);
#374=VERTEX_POINT('',#1467);
#375=VERTEX_POINT('',#1469);
#376=VERTEX_POINT('',#1477);
#377=VERTEX_POINT('',#1479);
#378=VERTEX_POINT('',#1483);
#379=VERTEX_POINT('',#1488);
#380=VERTEX_POINT('',#1489);
#381=VERTEX_POINT('',#1491);
#382=VERTEX_POINT('',#1493);
#383=VERTEX_POINT('',#1495);
#384=VERTEX_POINT('',#1497);
#385=VERTEX_POINT('',#1499);
#386=VERTEX_POINT('',#1501);
#387=VERTEX_POINT('',#1505);
#388=VERTEX_POINT('',#1519);
#389=EDGE_CURVE('',#333,#334,#325,.T.);
#390=EDGE_CURVE('',#334,#335,#293,.T.);
#391=EDGE_CURVE('',#335,#333,#294,.T.);
#392=EDGE_CURVE('',#336,#337,#326,.T.);
#393=EDGE_CURVE('',#337,#334,#31,.T.);
#394=EDGE_CURVE('',#333,#336,#32,.T.);
#395=EDGE_CURVE('',#336,#338,#295,.T.);
#396=EDGE_CURVE('',#338,#337,#296,.T.);
#397=EDGE_CURVE('',#339,#333,#33,.T.);
#398=EDGE_CURVE('',#340,#339,#34,.T.);
#399=EDGE_CURVE('',#336,#340,#35,.T.);
#400=EDGE_CURVE('',#335,#341,#36,.T.);
#401=EDGE_CURVE('',#339,#341,#297,.T.);
#402=EDGE_CURVE('',#334,#342,#37,.T.);
#403=EDGE_CURVE('',#343,#342,#298,.T.);
#404=EDGE_CURVE('',#343,#335,#38,.T.);
#405=EDGE_CURVE('',#344,#345,#327,.T.);
#406=EDGE_CURVE('',#345,#346,#299,.T.);
#407=EDGE_CURVE('',#346,#344,#300,.T.);
#408=EDGE_CURVE('',#344,#347,#39,.T.);
#409=EDGE_CURVE('',#347,#342,#328,.T.);
#410=EDGE_CURVE('',#342,#345,#40,.T.);
#411=EDGE_CURVE('',#347,#343,#301,.T.);
#412=EDGE_CURVE('',#348,#344,#41,.T.);
#413=EDGE_CURVE('',#349,#348,#42,.T.);
#414=EDGE_CURVE('',#347,#349,#43,.T.);
#415=EDGE_CURVE('',#346,#350,#44,.T.);
#416=EDGE_CURVE('',#348,#350,#302,.T.);
#417=EDGE_CURVE('',#338,#346,#45,.T.);
#418=EDGE_CURVE('',#345,#337,#46,.T.);
#419=EDGE_CURVE('',#340,#351,#329,.T.);
#420=EDGE_CURVE('',#351,#352,#303,.T.);
#421=EDGE_CURVE('',#352,#340,#304,.T.);
#422=EDGE_CURVE('',#339,#353,#330,.T.);
#423=EDGE_CURVE('',#353,#351,#47,.T.);
#424=EDGE_CURVE('',#341,#353,#305,.T.);
#425=EDGE_CURVE('',#352,#338,#48,.T.);
#426=EDGE_CURVE('',#351,#354,#49,.T.);
#427=EDGE_CURVE('',#350,#354,#306,.T.);
#428=EDGE_CURVE('',#350,#352,#50,.T.);
#429=EDGE_CURVE('',#349,#355,#331,.T.);
#430=EDGE_CURVE('',#355,#356,#307,.T.);
#431=EDGE_CURVE('',#356,#349,#308,.T.);
#432=EDGE_CURVE('',#348,#354,#332,.T.);
#433=EDGE_CURVE('',#354,#355,#51,.T.);
#434=EDGE_CURVE('',#356,#343,#52,.T.);
#435=EDGE_CURVE('',#341,#356,#53,.T.);
#436=EDGE_CURVE('',#355,#353,#54,.T.);
#437=EDGE_CURVE('',#357,#358,#55,.T.);
#438=EDGE_CURVE('',#358,#359,#309,.T.);
#439=EDGE_CURVE('',#359,#360,#56,.T.);
#440=EDGE_CURVE('',#360,#357,#310,.T.);
#441=EDGE_CURVE('',#361,#362,#57,.T.);
#442=EDGE_CURVE('',#362,#363,#311,.T.);
#443=EDGE_CURVE('',#363,#364,#58,.T.);
#444=EDGE_CURVE('',#364,#361,#312,.T.);
#445=EDGE_CURVE('',#360,#363,#59,.T.);
#446=EDGE_CURVE('',#362,#365,#60,.T.);
#447=EDGE_CURVE('',#366,#365,#61,.T.);
#448=EDGE_CURVE('',#366,#357,#62,.T.);
#449=EDGE_CURVE('',#358,#361,#63,.T.);
#450=EDGE_CURVE('',#364,#359,#64,.T.);
#451=EDGE_CURVE('',#367,#364,#65,.T.);
#452=EDGE_CURVE('',#368,#367,#66,.T.);
#453=EDGE_CURVE('',#359,#368,#67,.T.);
#454=EDGE_CURVE('',#363,#369,#68,.T.);
#455=EDGE_CURVE('',#367,#369,#69,.T.);
#456=EDGE_CURVE('',#370,#366,#70,.T.);
#457=EDGE_CURVE('',#371,#370,#71,.T.);
#458=EDGE_CURVE('',#365,#371,#72,.T.);
#459=EDGE_CURVE('',#366,#372,#313,.T.);
#460=EDGE_CURVE('',#372,#373,#73,.T.);
#461=EDGE_CURVE('',#373,#370,#314,.T.);
#462=EDGE_CURVE('',#371,#374,#315,.T.);
#463=EDGE_CURVE('',#374,#375,#74,.T.);
#464=EDGE_CURVE('',#375,#365,#316,.T.);
#465=EDGE_CURVE('',#373,#374,#75,.T.);
#466=EDGE_CURVE('',#375,#372,#76,.T.);
#467=EDGE_CURVE('',#376,#375,#77,.T.);
#468=EDGE_CURVE('',#377,#376,#78,.T.);
#469=EDGE_CURVE('',#372,#377,#79,.T.);
#470=EDGE_CURVE('',#374,#378,#80,.T.);
#471=EDGE_CURVE('',#376,#378,#81,.T.);
#472=EDGE_CURVE('',#379,#380,#82,.T.);
#473=EDGE_CURVE('',#381,#379,#83,.T.);
#474=EDGE_CURVE('',#382,#381,#84,.T.);
#475=EDGE_CURVE('',#383,#382,#85,.T.);
#476=EDGE_CURVE('',#384,#383,#86,.T.);
#477=EDGE_CURVE('',#385,#384,#87,.T.);
#478=EDGE_CURVE('',#386,#385,#88,.T.);
#479=EDGE_CURVE('',#380,#386,#89,.T.);
#480=EDGE_CURVE('',#379,#387,#317,.T.);
#481=EDGE_CURVE('',#387,#368,#90,.T.);
#482=EDGE_CURVE('',#381,#368,#318,.T.);
#483=EDGE_CURVE('',#384,#380,#91,.T.);
#484=EDGE_CURVE('',#383,#369,#319,.T.);
#485=EDGE_CURVE('',#369,#387,#92,.T.);
#486=EDGE_CURVE('',#382,#367,#320,.T.);
#487=EDGE_CURVE('',#387,#360,#93,.T.);
#488=EDGE_CURVE('',#386,#388,#321,.T.);
#489=EDGE_CURVE('',#388,#377,#94,.T.);
#490=EDGE_CURVE('',#377,#380,#322,.T.);
#491=EDGE_CURVE('',#384,#376,#323,.T.);
#492=EDGE_CURVE('',#378,#385,#324,.T.);
#493=EDGE_CURVE('',#378,#388,#95,.T.);
#494=EDGE_CURVE('',#388,#373,#96,.T.);
#495=ORIENTED_EDGE('',*,*,#389,.T.);
#496=ORIENTED_EDGE('',*,*,#390,.T.);
#497=ORIENTED_EDGE('',*,*,#391,.T.);
#498=ORIENTED_EDGE('',*,*,#392,.T.);
#499=ORIENTED_EDGE('',*,*,#393,.T.);
#500=ORIENTED_EDGE('',*,*,#389,.F.);
#501=ORIENTED_EDGE('',*,*,#394,.T.);
#502=ORIENTED_EDGE('',*,*,#392,.F.);
#503=ORIENTED_EDGE('',*,*,#395,.T.);
#504=ORIENTED_EDGE('',*,*,#396,.T.);
#505=ORIENTED_EDGE('',*,*,#394,.F.);
#506=ORIENTED_EDGE('',*,*,#397,.F.);
#507=ORIENTED_EDGE('',*,*,#398,.F.);
#508=ORIENTED_EDGE('',*,*,#399,.F.);
#509=ORIENTED_EDGE('',*,*,#391,.F.);
#510=ORIENTED_EDGE('',*,*,#400,.T.);
#511=ORIENTED_EDGE('',*,*,#401,.F.);
#512=ORIENTED_EDGE('',*,*,#397,.T.);
#513=ORIENTED_EDGE('',*,*,#390,.F.);
#514=ORIENTED_EDGE('',*,*,#402,.T.);
#515=ORIENTED_EDGE('',*,*,#403,.F.);
#516=ORIENTED_EDGE('',*,*,#404,.T.);
#517=ORIENTED_EDGE('',*,*,#405,.T.);
#518=ORIENTED_EDGE('',*,*,#406,.T.);
#519=ORIENTED_EDGE('',*,*,#407,.T.);
#520=ORIENTED_EDGE('',*,*,#405,.F.);
#521=ORIENTED_EDGE('',*,*,#408,.T.);
#522=ORIENTED_EDGE('',*,*,#409,.T.);
#523=ORIENTED_EDGE('',*,*,#410,.T.);
#524=ORIENTED_EDGE('',*,*,#409,.F.);
#525=ORIENTED_EDGE('',*,*,#411,.T.);
#526=ORIENTED_EDGE('',*,*,#403,.T.);
#527=ORIENTED_EDGE('',*,*,#408,.F.);
#528=ORIENTED_EDGE('',*,*,#412,.F.);
#529=ORIENTED_EDGE('',*,*,#413,.F.);
#530=ORIENTED_EDGE('',*,*,#414,.F.);
#531=ORIENTED_EDGE('',*,*,#407,.F.);
#532=ORIENTED_EDGE('',*,*,#415,.T.);
#533=ORIENTED_EDGE('',*,*,#416,.F.);
#534=ORIENTED_EDGE('',*,*,#412,.T.);
#535=ORIENTED_EDGE('',*,*,#396,.F.);
#536=ORIENTED_EDGE('',*,*,#417,.T.);
#537=ORIENTED_EDGE('',*,*,#406,.F.);
#538=ORIENTED_EDGE('',*,*,#418,.T.);
#539=ORIENTED_EDGE('',*,*,#419,.T.);
#540=ORIENTED_EDGE('',*,*,#420,.T.);
#541=ORIENTED_EDGE('',*,*,#421,.T.);
#542=ORIENTED_EDGE('',*,*,#422,.T.);
#543=ORIENTED_EDGE('',*,*,#423,.T.);
#544=ORIENTED_EDGE('',*,*,#419,.F.);
#545=ORIENTED_EDGE('',*,*,#398,.T.);
#546=ORIENTED_EDGE('',*,*,#422,.F.);
#547=ORIENTED_EDGE('',*,*,#401,.T.);
#548=ORIENTED_EDGE('',*,*,#424,.T.);
#549=ORIENTED_EDGE('',*,*,#395,.F.);
#550=ORIENTED_EDGE('',*,*,#399,.T.);
#551=ORIENTED_EDGE('',*,*,#421,.F.);
#552=ORIENTED_EDGE('',*,*,#425,.T.);
#553=ORIENTED_EDGE('',*,*,#420,.F.);
#554=ORIENTED_EDGE('',*,*,#426,.T.);
#555=ORIENTED_EDGE('',*,*,#427,.F.);
#556=ORIENTED_EDGE('',*,*,#428,.T.);
#557=ORIENTED_EDGE('',*,*,#429,.T.);
#558=ORIENTED_EDGE('',*,*,#430,.T.);
#559=ORIENTED_EDGE('',*,*,#431,.T.);
#560=ORIENTED_EDGE('',*,*,#429,.F.);
#561=ORIENTED_EDGE('',*,*,#413,.T.);
#562=ORIENTED_EDGE('',*,*,#432,.T.);
#563=ORIENTED_EDGE('',*,*,#433,.T.);
#564=ORIENTED_EDGE('',*,*,#432,.F.);
#565=ORIENTED_EDGE('',*,*,#416,.T.);
#566=ORIENTED_EDGE('',*,*,#427,.T.);
#567=ORIENTED_EDGE('',*,*,#411,.F.);
#568=ORIENTED_EDGE('',*,*,#414,.T.);
#569=ORIENTED_EDGE('',*,*,#431,.F.);
#570=ORIENTED_EDGE('',*,*,#434,.T.);
#571=ORIENTED_EDGE('',*,*,#424,.F.);
#572=ORIENTED_EDGE('',*,*,#435,.T.);
#573=ORIENTED_EDGE('',*,*,#430,.F.);
#574=ORIENTED_EDGE('',*,*,#436,.T.);
#575=ORIENTED_EDGE('',*,*,#437,.T.);
#576=ORIENTED_EDGE('',*,*,#438,.T.);
#577=ORIENTED_EDGE('',*,*,#439,.T.);
#578=ORIENTED_EDGE('',*,*,#440,.T.);
#579=ORIENTED_EDGE('',*,*,#441,.T.);
#580=ORIENTED_EDGE('',*,*,#442,.T.);
#581=ORIENTED_EDGE('',*,*,#443,.T.);
#582=ORIENTED_EDGE('',*,*,#444,.T.);
#583=ORIENTED_EDGE('',*,*,#445,.T.);
#584=ORIENTED_EDGE('',*,*,#442,.F.);
#585=ORIENTED_EDGE('',*,*,#446,.T.);
#586=ORIENTED_EDGE('',*,*,#447,.F.);
#587=ORIENTED_EDGE('',*,*,#448,.T.);
#588=ORIENTED_EDGE('',*,*,#440,.F.);
#589=ORIENTED_EDGE('',*,*,#449,.T.);
#590=ORIENTED_EDGE('',*,*,#444,.F.);
#591=ORIENTED_EDGE('',*,*,#450,.T.);
#592=ORIENTED_EDGE('',*,*,#438,.F.);
#593=ORIENTED_EDGE('',*,*,#450,.F.);
#594=ORIENTED_EDGE('',*,*,#451,.F.);
#595=ORIENTED_EDGE('',*,*,#452,.F.);
#596=ORIENTED_EDGE('',*,*,#453,.F.);
#597=ORIENTED_EDGE('',*,*,#443,.F.);
#598=ORIENTED_EDGE('',*,*,#454,.T.);
#599=ORIENTED_EDGE('',*,*,#455,.F.);
#600=ORIENTED_EDGE('',*,*,#451,.T.);
#601=ORIENTED_EDGE('',*,*,#393,.F.);
#602=ORIENTED_EDGE('',*,*,#418,.F.);
#603=ORIENTED_EDGE('',*,*,#410,.F.);
#604=ORIENTED_EDGE('',*,*,#402,.F.);
#605=ORIENTED_EDGE('',*,*,#417,.F.);
#606=ORIENTED_EDGE('',*,*,#425,.F.);
#607=ORIENTED_EDGE('',*,*,#428,.F.);
#608=ORIENTED_EDGE('',*,*,#415,.F.);
#609=ORIENTED_EDGE('',*,*,#448,.F.);
#610=ORIENTED_EDGE('',*,*,#456,.F.);
#611=ORIENTED_EDGE('',*,*,#457,.F.);
#612=ORIENTED_EDGE('',*,*,#458,.F.);
#613=ORIENTED_EDGE('',*,*,#446,.F.);
#614=ORIENTED_EDGE('',*,*,#441,.F.);
#615=ORIENTED_EDGE('',*,*,#449,.F.);
#616=ORIENTED_EDGE('',*,*,#437,.F.);
#617=ORIENTED_EDGE('',*,*,#456,.T.);
#618=ORIENTED_EDGE('',*,*,#459,.T.);
#619=ORIENTED_EDGE('',*,*,#460,.T.);
#620=ORIENTED_EDGE('',*,*,#461,.T.);
#621=ORIENTED_EDGE('',*,*,#458,.T.);
#622=ORIENTED_EDGE('',*,*,#462,.T.);
#623=ORIENTED_EDGE('',*,*,#463,.T.);
#624=ORIENTED_EDGE('',*,*,#464,.T.);
#625=ORIENTED_EDGE('',*,*,#465,.T.);
#626=ORIENTED_EDGE('',*,*,#462,.F.);
#627=ORIENTED_EDGE('',*,*,#457,.T.);
#628=ORIENTED_EDGE('',*,*,#461,.F.);
#629=ORIENTED_EDGE('',*,*,#447,.T.);
#630=ORIENTED_EDGE('',*,*,#464,.F.);
#631=ORIENTED_EDGE('',*,*,#466,.T.);
#632=ORIENTED_EDGE('',*,*,#459,.F.);
#633=ORIENTED_EDGE('',*,*,#466,.F.);
#634=ORIENTED_EDGE('',*,*,#467,.F.);
#635=ORIENTED_EDGE('',*,*,#468,.F.);
#636=ORIENTED_EDGE('',*,*,#469,.F.);
#637=ORIENTED_EDGE('',*,*,#463,.F.);
#638=ORIENTED_EDGE('',*,*,#470,.T.);
#639=ORIENTED_EDGE('',*,*,#471,.F.);
#640=ORIENTED_EDGE('',*,*,#467,.T.);
#641=ORIENTED_EDGE('',*,*,#423,.F.);
#642=ORIENTED_EDGE('',*,*,#436,.F.);
#643=ORIENTED_EDGE('',*,*,#433,.F.);
#644=ORIENTED_EDGE('',*,*,#426,.F.);
#645=ORIENTED_EDGE('',*,*,#435,.F.);
#646=ORIENTED_EDGE('',*,*,#400,.F.);
#647=ORIENTED_EDGE('',*,*,#404,.F.);
#648=ORIENTED_EDGE('',*,*,#434,.F.);
#649=ORIENTED_EDGE('',*,*,#472,.F.);
#650=ORIENTED_EDGE('',*,*,#473,.F.);
#651=ORIENTED_EDGE('',*,*,#474,.F.);
#652=ORIENTED_EDGE('',*,*,#475,.F.);
#653=ORIENTED_EDGE('',*,*,#476,.F.);
#654=ORIENTED_EDGE('',*,*,#477,.F.);
#655=ORIENTED_EDGE('',*,*,#478,.F.);
#656=ORIENTED_EDGE('',*,*,#479,.F.);
#657=ORIENTED_EDGE('',*,*,#473,.T.);
#658=ORIENTED_EDGE('',*,*,#480,.T.);
#659=ORIENTED_EDGE('',*,*,#481,.T.);
#660=ORIENTED_EDGE('',*,*,#482,.F.);
#661=ORIENTED_EDGE('',*,*,#472,.T.);
#662=ORIENTED_EDGE('',*,*,#483,.F.);
#663=ORIENTED_EDGE('',*,*,#476,.T.);
#664=ORIENTED_EDGE('',*,*,#484,.T.);
#665=ORIENTED_EDGE('',*,*,#485,.T.);
#666=ORIENTED_EDGE('',*,*,#480,.F.);
#667=ORIENTED_EDGE('',*,*,#475,.T.);
#668=ORIENTED_EDGE('',*,*,#486,.T.);
#669=ORIENTED_EDGE('',*,*,#455,.T.);
#670=ORIENTED_EDGE('',*,*,#484,.F.);
#671=ORIENTED_EDGE('',*,*,#452,.T.);
#672=ORIENTED_EDGE('',*,*,#486,.F.);
#673=ORIENTED_EDGE('',*,*,#474,.T.);
#674=ORIENTED_EDGE('',*,*,#482,.T.);
#675=ORIENTED_EDGE('',*,*,#439,.F.);
#676=ORIENTED_EDGE('',*,*,#453,.T.);
#677=ORIENTED_EDGE('',*,*,#481,.F.);
#678=ORIENTED_EDGE('',*,*,#487,.T.);
#679=ORIENTED_EDGE('',*,*,#479,.T.);
#680=ORIENTED_EDGE('',*,*,#488,.T.);
#681=ORIENTED_EDGE('',*,*,#489,.T.);
#682=ORIENTED_EDGE('',*,*,#490,.T.);
#683=ORIENTED_EDGE('',*,*,#477,.T.);
#684=ORIENTED_EDGE('',*,*,#491,.T.);
#685=ORIENTED_EDGE('',*,*,#471,.T.);
#686=ORIENTED_EDGE('',*,*,#492,.T.);
#687=ORIENTED_EDGE('',*,*,#468,.T.);
#688=ORIENTED_EDGE('',*,*,#491,.F.);
#689=ORIENTED_EDGE('',*,*,#483,.T.);
#690=ORIENTED_EDGE('',*,*,#490,.F.);
#691=ORIENTED_EDGE('',*,*,#478,.T.);
#692=ORIENTED_EDGE('',*,*,#492,.F.);
#693=ORIENTED_EDGE('',*,*,#493,.T.);
#694=ORIENTED_EDGE('',*,*,#488,.F.);
#695=ORIENTED_EDGE('',*,*,#465,.F.);
#696=ORIENTED_EDGE('',*,*,#494,.F.);
#697=ORIENTED_EDGE('',*,*,#493,.F.);
#698=ORIENTED_EDGE('',*,*,#470,.F.);
#699=ORIENTED_EDGE('',*,*,#460,.F.);
#700=ORIENTED_EDGE('',*,*,#469,.T.);
#701=ORIENTED_EDGE('',*,*,#489,.F.);
#702=ORIENTED_EDGE('',*,*,#494,.T.);
#703=ORIENTED_EDGE('',*,*,#445,.F.);
#704=ORIENTED_EDGE('',*,*,#487,.F.);
#705=ORIENTED_EDGE('',*,*,#485,.F.);
#706=ORIENTED_EDGE('',*,*,#454,.F.);
#707=B_SPLINE_SURFACE_WITH_KNOTS('',3,3,((#1094,#1095,#1096,#1097,#1098,
#1099),(#1100,#1101,#1102,#1103,#1104,#1105),(#1106,#1107,#1108,#1109,#1110,
#1111),(#1112,#1113,#1114,#1115,#1116,#1117),(#1118,#1119,#1120,#1121,#1122,
#1123)),.UNSPECIFIED.,.F.,.F.,.F.,(4,1,4),(4,1,1,4),(0.,0.5,1.),(-1.5707963267949,
-0.897597901025655,-0.448798950512828,2.09522654968446E-17),
 .UNSPECIFIED.);
#708=B_SPLINE_SURFACE_WITH_KNOTS('',3,3,((#1136,#1137,#1138,#1139,#1140,
#1141),(#1142,#1143,#1144,#1145,#1146,#1147),(#1148,#1149,#1150,#1151,#1152,
#1153),(#1154,#1155,#1156,#1157,#1158,#1159),(#1160,#1161,#1162,#1163,#1164,
#1165)),.UNSPECIFIED.,.F.,.F.,.F.,(4,1,4),(4,1,1,4),(0.,0.5,1.),(-8.99280649946377E-15,
0.448798950512821,0.897597901025651,1.5707963267949),.UNSPECIFIED.);
#709=B_SPLINE_SURFACE_WITH_KNOTS('',3,3,((#1185,#1186,#1187,#1188,#1189,
#1190),(#1191,#1192,#1193,#1194,#1195,#1196),(#1197,#1198,#1199,#1200,#1201,
#1202),(#1203,#1204,#1205,#1206,#1207,#1208),(#1209,#1210,#1211,#1212,#1213,
#1214)),.UNSPECIFIED.,.F.,.F.,.F.,(4,1,4),(4,1,1,4),(0.,0.5,1.),(-1.5707963267949,
-0.897597901025651,-0.448798950512821,8.88178419700118E-15),
 .UNSPECIFIED.);
#710=B_SPLINE_SURFACE_WITH_KNOTS('',3,3,((#1226,#1227,#1228,#1229,#1230),
(#1231,#1232,#1233,#1234,#1235),(#1236,#1237,#1238,#1239,#1240),(#1241,
#1242,#1243,#1244,#1245),(#1246,#1247,#1248,#1249,#1250)),.UNSPECIFIED.,
 .F.,.F.,.F.,(4,1,4),(4,1,4),(0.,0.5,1.),(-1.5707963267949,-0.673198425769241,
6.85017974841938E-16),.UNSPECIFIED.);
#711=B_SPLINE_SURFACE_WITH_KNOTS('',3,3,((#1265,#1266,#1267,#1268,#1269,
#1270),(#1271,#1272,#1273,#1274,#1275,#1276),(#1277,#1278,#1279,#1280,#1281,
#1282),(#1283,#1284,#1285,#1286,#1287,#1288),(#1289,#1290,#1291,#1292,#1293,
#1294)),.UNSPECIFIED.,.F.,.F.,.F.,(4,1,4),(4,1,1,4),(0.,0.5,1.),(-1.5707963267949,
-0.897597901025655,-0.448798950512827,7.9630615944696E-16),
 .UNSPECIFIED.);
#712=B_SPLINE_SURFACE_WITH_KNOTS('',3,3,((#1304,#1305,#1306,#1307,#1308,
#1309),(#1310,#1311,#1312,#1313,#1314,#1315),(#1316,#1317,#1318,#1319,#1320,
#1321),(#1322,#1323,#1324,#1325,#1326,#1327),(#1328,#1329,#1330,#1331,#1332,
#1333)),.UNSPECIFIED.,.F.,.F.,.F.,(4,1,4),(4,1,1,4),(0.,0.5,1.),(-8.99280649946377E-15,
0.448798950512821,0.897597901025651,1.5707963267949),.UNSPECIFIED.);
#713=B_SPLINE_SURFACE_WITH_KNOTS('',3,3,((#1342,#1343,#1344,#1345,#1346,
#1347),(#1348,#1349,#1350,#1351,#1352,#1353),(#1354,#1355,#1356,#1357,#1358,
#1359),(#1360,#1361,#1362,#1363,#1364,#1365),(#1366,#1367,#1368,#1369,#1370,
#1371)),.UNSPECIFIED.,.F.,.F.,.F.,(4,1,4),(4,1,1,4),(0.,0.5,1.),(-1.5707963267949,
-0.897597901025651,-0.448798950512821,8.88178419700117E-15),
 .UNSPECIFIED.);
#714=B_SPLINE_SURFACE_WITH_KNOTS('',3,3,((#1380,#1381,#1382,#1383,#1384,
#1385),(#1386,#1387,#1388,#1389,#1390,#1391),(#1392,#1393,#1394,#1395,#1396,
#1397),(#1398,#1399,#1400,#1401,#1402,#1403),(#1404,#1405,#1406,#1407,#1408,
#1409)),.UNSPECIFIED.,.F.,.F.,.F.,(4,1,4),(4,1,1,4),(0.,0.5,1.),(-1.5707963267949,
-0.897597901025654,-0.448798950512822,8.99280649946377E-15),
 .UNSPECIFIED.);
#715=ADVANCED_FACE('',(#191),#707,.F.);
#716=ADVANCED_FACE('',(#192),#163,.T.);
#717=ADVANCED_FACE('',(#193),#708,.F.);
#718=ADVANCED_FACE('',(#194),#17,.T.);
#719=ADVANCED_FACE('',(#195),#164,.T.);
#720=ADVANCED_FACE('',(#196),#165,.T.);
#721=ADVANCED_FACE('',(#197),#709,.F.);
#722=ADVANCED_FACE('',(#198),#166,.T.);
#723=ADVANCED_FACE('',(#199),#710,.F.);
#724=ADVANCED_FACE('',(#200),#18,.F.);
#725=ADVANCED_FACE('',(#201),#167,.T.);
#726=ADVANCED_FACE('',(#202),#168,.T.);
#727=ADVANCED_FACE('',(#203),#711,.F.);
#728=ADVANCED_FACE('',(#204),#169,.T.);
#729=ADVANCED_FACE('',(#205),#712,.F.);
#730=ADVANCED_FACE('',(#206),#170,.T.);
#731=ADVANCED_FACE('',(#207),#171,.T.);
#732=ADVANCED_FACE('',(#208),#713,.F.);
#733=ADVANCED_FACE('',(#209),#172,.T.);
#734=ADVANCED_FACE('',(#210),#714,.F.);
#735=ADVANCED_FACE('',(#211),#173,.T.);
#736=ADVANCED_FACE('',(#212),#174,.T.);
#737=ADVANCED_FACE('',(#213),#175,.T.);
#738=ADVANCED_FACE('',(#214),#176,.T.);
#739=ADVANCED_FACE('',(#215),#177,.T.);
#740=ADVANCED_FACE('',(#216),#178,.T.);
#741=ADVANCED_FACE('',(#217),#19,.F.);
#742=ADVANCED_FACE('',(#218),#20,.F.);
#743=ADVANCED_FACE('',(#219),#21,.F.);
#744=ADVANCED_FACE('',(#220,#15),#22,.T.);
#745=ADVANCED_FACE('',(#221),#179,.T.);
#746=ADVANCED_FACE('',(#222),#180,.T.);
#747=ADVANCED_FACE('',(#223),#181,.T.);
#748=ADVANCED_FACE('',(#224),#182,.T.);
#749=ADVANCED_FACE('',(#225),#23,.F.);
#750=ADVANCED_FACE('',(#226),#24,.T.);
#751=ADVANCED_FACE('',(#227),#25,.F.);
#752=ADVANCED_FACE('',(#228,#16),#26,.T.);
#753=ADVANCED_FACE('',(#229),#183,.T.);
#754=ADVANCED_FACE('',(#230),#184,.T.);
#755=ADVANCED_FACE('',(#231),#185,.T.);
#756=ADVANCED_FACE('',(#232),#186,.T.);
#757=ADVANCED_FACE('',(#233),#27,.F.);
#758=ADVANCED_FACE('',(#234),#187,.T.);
#759=ADVANCED_FACE('',(#235),#188,.T.);
#760=ADVANCED_FACE('',(#236),#189,.T.);
#761=ADVANCED_FACE('',(#237),#190,.T.);
#762=ADVANCED_FACE('',(#238),#28,.F.);
#763=ADVANCED_FACE('',(#239),#29,.T.);
#764=ADVANCED_FACE('',(#240),#30,.F.);
#765=CLOSED_SHELL('',(#715,#716,#717,#718,#719,#720,#721,#722,#723,#724,
#725,#726,#727,#728,#729,#730,#731,#732,#733,#734,#735,#736,#737,#738,#739,
#740,#741,#742,#743,#744,#745,#746,#747,#748,#749,#750,#751,#752,#753,#754,
#755,#756,#757,#758,#759,#760,#761,#762,#763,#764));
#766=DERIVED_UNIT_ELEMENT(#768,1.);
#767=DERIVED_UNIT_ELEMENT(#1538,-3.);
#768=(
MASS_UNIT()
NAMED_UNIT(*)
SI_UNIT(.KILO.,.GRAM.)
);
#769=DERIVED_UNIT((#766,#767));
#770=MEASURE_REPRESENTATION_ITEM('density measure',
POSITIVE_RATIO_MEASURE(7850.),#769);
#771=PROPERTY_DEFINITION_REPRESENTATION(#776,#773);
#772=PROPERTY_DEFINITION_REPRESENTATION(#777,#774);
#773=REPRESENTATION('material name',(#775),#1535);
#774=REPRESENTATION('density',(#770),#1535);
#775=DESCRIPTIVE_REPRESENTATION_ITEM('Steel','Steel');
#776=PROPERTY_DEFINITION('material property','material name',#1545);
#777=PROPERTY_DEFINITION('material property','density of part',#1545);
#778=AXIS2_PLACEMENT_3D('',#1093,#861,#862);
#779=AXIS2_PLACEMENT_3D('',#1126,#863,#864);
#780=AXIS2_PLACEMENT_3D('',#1128,#865,#866);
#781=AXIS2_PLACEMENT_3D('',#1129,#867,#868);
#782=AXIS2_PLACEMENT_3D('',#1130,#869,#870);
#783=AXIS2_PLACEMENT_3D('',#1133,#871,#872);
#784=AXIS2_PLACEMENT_3D('',#1167,#875,#876);
#785=AXIS2_PLACEMENT_3D('',#1168,#877,#878);
#786=AXIS2_PLACEMENT_3D('',#1169,#879,#880);
#787=AXIS2_PLACEMENT_3D('',#1175,#884,#885);
#788=AXIS2_PLACEMENT_3D('',#1178,#887,#888);
#789=AXIS2_PLACEMENT_3D('',#1179,#889,#890);
#790=AXIS2_PLACEMENT_3D('',#1183,#892,#893);
#791=AXIS2_PLACEMENT_3D('',#1217,#895,#896);
#792=AXIS2_PLACEMENT_3D('',#1219,#897,#898);
#793=AXIS2_PLACEMENT_3D('',#1220,#899,#900);
#794=AXIS2_PLACEMENT_3D('',#1221,#901,#902);
#795=AXIS2_PLACEMENT_3D('',#1224,#904,#905);
#796=AXIS2_PLACEMENT_3D('',#1251,#907,#908);
#797=AXIS2_PLACEMENT_3D('',#1252,#909,#910);
#798=AXIS2_PLACEMENT_3D('',#1258,#914,#915);
#799=AXIS2_PLACEMENT_3D('',#1261,#917,#918);
#800=AXIS2_PLACEMENT_3D('',#1262,#919,#920);
#801=AXIS2_PLACEMENT_3D('',#1296,#923,#924);
#802=AXIS2_PLACEMENT_3D('',#1298,#925,#926);
#803=AXIS2_PLACEMENT_3D('',#1299,#927,#928);
#804=AXIS2_PLACEMENT_3D('',#1300,#929,#930);
#805=AXIS2_PLACEMENT_3D('',#1302,#931,#932);
#806=AXIS2_PLACEMENT_3D('',#1334,#934,#935);
#807=AXIS2_PLACEMENT_3D('',#1335,#936,#937);
#808=AXIS2_PLACEMENT_3D('',#1337,#939,#940);
#809=AXIS2_PLACEMENT_3D('',#1340,#942,#943);
#810=AXIS2_PLACEMENT_3D('',#1373,#945,#946);
#811=AXIS2_PLACEMENT_3D('',#1375,#947,#948);
#812=AXIS2_PLACEMENT_3D('',#1376,#949,#950);
#813=AXIS2_PLACEMENT_3D('',#1377,#951,#952);
#814=AXIS2_PLACEMENT_3D('',#1378,#953,#954);
#815=AXIS2_PLACEMENT_3D('',#1410,#956,#957);
#816=AXIS2_PLACEMENT_3D('',#1412,#959,#960);
#817=AXIS2_PLACEMENT_3D('',#1415,#963,#964);
#818=AXIS2_PLACEMENT_3D('',#1420,#966,#967);
#819=AXIS2_PLACEMENT_3D('',#1423,#969,#970);
#820=AXIS2_PLACEMENT_3D('',#1424,#971,#972);
#821=AXIS2_PLACEMENT_3D('',#1429,#974,#975);
#822=AXIS2_PLACEMENT_3D('',#1432,#977,#978);
#823=AXIS2_PLACEMENT_3D('',#1433,#979,#980);
#824=AXIS2_PLACEMENT_3D('',#1440,#985,#986);
#825=AXIS2_PLACEMENT_3D('',#1443,#989,#990);
#826=AXIS2_PLACEMENT_3D('',#1449,#994,#995);
#827=AXIS2_PLACEMENT_3D('',#1453,#998,#999);
#828=AXIS2_PLACEMENT_3D('',#1454,#1000,#1001);
#829=AXIS2_PLACEMENT_3D('',#1460,#1005,#1006);
#830=AXIS2_PLACEMENT_3D('',#1462,#1007,#1008);
#831=AXIS2_PLACEMENT_3D('',#1465,#1010,#1011);
#832=AXIS2_PLACEMENT_3D('',#1466,#1012,#1013);
#833=AXIS2_PLACEMENT_3D('',#1468,#1014,#1015);
#834=AXIS2_PLACEMENT_3D('',#1471,#1017,#1018);
#835=AXIS2_PLACEMENT_3D('',#1472,#1019,#1020);
#836=AXIS2_PLACEMENT_3D('',#1474,#1022,#1023);
#837=AXIS2_PLACEMENT_3D('',#1476,#1025,#1026);
#838=AXIS2_PLACEMENT_3D('',#1482,#1030,#1031);
#839=AXIS2_PLACEMENT_3D('',#1486,#1034,#1035);
#840=AXIS2_PLACEMENT_3D('',#1487,#1036,#1037);
#841=AXIS2_PLACEMENT_3D('',#1504,#1046,#1047);
#842=AXIS2_PLACEMENT_3D('',#1506,#1048,#1049);
#843=AXIS2_PLACEMENT_3D('',#1508,#1051,#1052);
#844=AXIS2_PLACEMENT_3D('',#1509,#1053,#1054);
#845=AXIS2_PLACEMENT_3D('',#1511,#1056,#1057);
#846=AXIS2_PLACEMENT_3D('',#1513,#1059,#1060);
#847=AXIS2_PLACEMENT_3D('',#1514,#1061,#1062);
#848=AXIS2_PLACEMENT_3D('',#1515,#1063,#1064);
#849=AXIS2_PLACEMENT_3D('',#1516,#1065,#1066);
#850=AXIS2_PLACEMENT_3D('',#1518,#1068,#1069);
#851=AXIS2_PLACEMENT_3D('',#1520,#1070,#1071);
#852=AXIS2_PLACEMENT_3D('',#1522,#1073,#1074);
#853=AXIS2_PLACEMENT_3D('',#1523,#1075,#1076);
#854=AXIS2_PLACEMENT_3D('',#1524,#1077,#1078);
#855=AXIS2_PLACEMENT_3D('',#1525,#1079,#1080);
#856=AXIS2_PLACEMENT_3D('',#1526,#1081,#1082);
#857=AXIS2_PLACEMENT_3D('',#1527,#1083,#1084);
#858=AXIS2_PLACEMENT_3D('',#1529,#1086,#1087);
#859=AXIS2_PLACEMENT_3D('',#1531,#1089,#1090);
#860=AXIS2_PLACEMENT_3D('',#1532,#1091,#1092);
#861=DIRECTION('axis',(0.,0.,1.));
#862=DIRECTION('refdir',(1.,0.,0.));
#863=DIRECTION('center_axis',(0.,1.,0.));
#864=DIRECTION('ref_axis',(0.,0.,-1.));
#865=DIRECTION('center_axis',(0.447213595499956,0.,-0.894427190999917));
#866=DIRECTION('ref_axis',(-0.894427190999917,0.,-0.447213595499956));
#867=DIRECTION('center_axis',(-0.894427190999917,0.,0.447213595499956));
#868=DIRECTION('ref_axis',(-0.447213595499956,0.,-0.894427190999917));
#869=DIRECTION('center_axis',(0.,1.,0.));
#870=DIRECTION('ref_axis',(-0.707106781186548,0.,-0.707106781186548));
#871=DIRECTION('center_axis',(-1.77635683940026E-14,1.,-8.88178419700128E-15));
#872=DIRECTION('ref_axis',(0.,-8.88178419700128E-15,-1.));
#873=DIRECTION('',(0.,1.,0.));
#874=DIRECTION('',(0.,-1.,0.));
#875=DIRECTION('center_axis',(-0.894427190999917,0.,0.447213595499956));
#876=DIRECTION('ref_axis',(-0.447213595499956,0.,-0.894427190999917));
#877=DIRECTION('center_axis',(0.447213595499953,0.,-0.894427190999918));
#878=DIRECTION('ref_axis',(-0.894427190999918,0.,-0.447213595499953));
#879=DIRECTION('center_axis',(0.,0.,-1.));
#880=DIRECTION('ref_axis',(-1.,0.,0.));
#881=DIRECTION('',(-1.,0.,0.));
#882=DIRECTION('',(0.,1.,0.));
#883=DIRECTION('',(1.,0.,0.));
#884=DIRECTION('center_axis',(1.,0.,0.));
#885=DIRECTION('ref_axis',(0.,0.707106781186548,-0.707106781186548));
#886=DIRECTION('',(1.,0.,0.));
#887=DIRECTION('center_axis',(0.894427190999917,0.,0.447213595499956));
#888=DIRECTION('ref_axis',(0.447213595499956,0.,-0.894427190999917));
#889=DIRECTION('center_axis',(0.,0.,-1.));
#890=DIRECTION('ref_axis',(-0.707106781186548,0.707106781186548,0.));
#891=DIRECTION('',(0.,0.,1.));
#892=DIRECTION('center_axis',(0.447213595499958,0.,0.894427190999916));
#893=DIRECTION('ref_axis',(-0.894427190999916,0.,0.447213595499958));
#894=DIRECTION('',(0.,0.,-1.));
#895=DIRECTION('center_axis',(8.8817841970012E-15,-1.,-7.88860905221003E-29));
#896=DIRECTION('ref_axis',(8.8817841970012E-15,0.,1.));
#897=DIRECTION('center_axis',(0.447213595499956,0.,0.894427190999917));
#898=DIRECTION('ref_axis',(-0.894427190999917,0.,0.447213595499956));
#899=DIRECTION('center_axis',(-0.894427190999917,0.,-0.447213595499957));
#900=DIRECTION('ref_axis',(-0.447213595499957,0.,0.894427190999917));
#901=DIRECTION('center_axis',(0.,1.,0.));
#902=DIRECTION('ref_axis',(-0.707106781186546,0.,0.707106781186549));
#903=DIRECTION('',(0.,1.,0.));
#904=DIRECTION('center_axis',(8.88178419700128E-15,-1.,-8.88178419700125E-15));
#905=DIRECTION('ref_axis',(0.,-8.88178419700125E-15,1.));
#906=DIRECTION('',(0.,-1.,0.));
#907=DIRECTION('center_axis',(-0.894427190999917,0.,-0.447213595499957));
#908=DIRECTION('ref_axis',(-0.447213595499957,0.,0.894427190999917));
#909=DIRECTION('center_axis',(0.,0.,-1.));
#910=DIRECTION('ref_axis',(-1.,0.,0.));
#911=DIRECTION('',(-1.,0.,0.));
#912=DIRECTION('',(0.,-1.,0.));
#913=DIRECTION('',(1.,0.,0.));
#914=DIRECTION('center_axis',(-1.,0.,0.));
#915=DIRECTION('ref_axis',(0.,-0.707106781186549,0.707106781186546));
#916=DIRECTION('',(1.,0.,0.));
#917=DIRECTION('center_axis',(0.894427190999917,0.,-0.447213595499957));
#918=DIRECTION('ref_axis',(0.447213595499957,0.,0.894427190999917));
#919=DIRECTION('center_axis',(0.,0.,-1.));
#920=DIRECTION('ref_axis',(-0.707106781186551,-0.707106781186544,0.));
#921=DIRECTION('',(0.,0.,1.));
#922=DIRECTION('',(0.,0.,-1.));
#923=DIRECTION('center_axis',(8.88178419700128E-15,-1.,0.));
#924=DIRECTION('ref_axis',(0.,0.,-1.));
#925=DIRECTION('center_axis',(-0.447213595499958,0.,-0.894427190999916));
#926=DIRECTION('ref_axis',(0.894427190999916,0.,-0.447213595499958));
#927=DIRECTION('center_axis',(0.894427190999917,0.,0.447213595499956));
#928=DIRECTION('ref_axis',(0.447213595499956,0.,-0.894427190999917));
#929=DIRECTION('center_axis',(0.,-1.,0.));
#930=DIRECTION('ref_axis',(0.707106781186554,0.,-0.707106781186541));
#931=DIRECTION('center_axis',(1.77635683940026E-14,-1.,-8.88178419700128E-15));
#932=DIRECTION('ref_axis',(0.,8.88178419700128E-15,-1.));
#933=DIRECTION('',(0.,-1.,0.));
#934=DIRECTION('center_axis',(-0.447213595499958,0.,-0.894427190999916));
#935=DIRECTION('ref_axis',(0.894427190999916,0.,-0.447213595499958));
#936=DIRECTION('center_axis',(-1.,0.,0.));
#937=DIRECTION('ref_axis',(0.,-0.707106781186548,-0.707106781186548));
#938=DIRECTION('',(-1.,0.,0.));
#939=DIRECTION('center_axis',(0.,0.,1.));
#940=DIRECTION('ref_axis',(0.707106781186544,-0.707106781186551,0.));
#941=DIRECTION('',(0.,0.,1.));
#942=DIRECTION('center_axis',(-0.447213595499959,7.94410929039122E-15,0.894427190999915));
#943=DIRECTION('ref_axis',(0.894427190999915,0.,0.447213595499959));
#944=DIRECTION('',(0.,0.,-1.));
#945=DIRECTION('center_axis',(-8.88178419700128E-15,1.,0.));
#946=DIRECTION('ref_axis',(0.,0.,1.));
#947=DIRECTION('center_axis',(-0.447213595499954,0.,0.894427190999918));
#948=DIRECTION('ref_axis',(0.894427190999918,0.,0.447213595499954));
#949=DIRECTION('center_axis',(0.894427190999917,0.,-0.447213595499957));
#950=DIRECTION('ref_axis',(0.447213595499957,0.,0.894427190999917));
#951=DIRECTION('center_axis',(0.,-1.,0.));
#952=DIRECTION('ref_axis',(0.707106781186553,0.,0.707106781186542));
#953=DIRECTION('center_axis',(-8.88178419700128E-15,1.,0.));
#954=DIRECTION('ref_axis',(0.,0.,1.));
#955=DIRECTION('',(0.,1.,0.));
#956=DIRECTION('center_axis',(1.,0.,0.));
#957=DIRECTION('ref_axis',(0.,0.707106781186549,0.707106781186546));
#958=DIRECTION('',(-1.,0.,0.));
#959=DIRECTION('center_axis',(0.,0.,-1.));
#960=DIRECTION('ref_axis',(0.707106781186548,0.707106781186548,0.));
#961=DIRECTION('',(0.,0.,1.));
#962=DIRECTION('',(0.,0.,-1.));
#963=DIRECTION('center_axis',(0.,0.,-1.));
#964=DIRECTION('ref_axis',(-0.707106781186548,-0.707106781186548,0.));
#965=DIRECTION('',(0.,0.,1.));
#966=DIRECTION('center_axis',(0.707106754844768,0.,-0.707106807528326));
#967=DIRECTION('ref_axis',(0.707106807528326,0.,0.707106754844768));
#968=DIRECTION('',(0.,0.,-1.));
#969=DIRECTION('center_axis',(0.707106886553718,0.,0.707106675819362));
#970=DIRECTION('ref_axis',(-0.707106675819362,0.,0.707106886553717));
#971=DIRECTION('center_axis',(0.,0.,1.));
#972=DIRECTION('ref_axis',(0.707106781186551,-0.707106781186544,0.));
#973=DIRECTION('',(0.,0.,-1.));
#974=DIRECTION('center_axis',(-0.707106781186546,-3.14018491736757E-15,
0.707106781186549));
#975=DIRECTION('ref_axis',(-0.707106781186549,-3.14018491736758E-15,-0.707106781186546));
#976=DIRECTION('',(0.,0.,1.));
#977=DIRECTION('center_axis',(-0.707106781186547,7.85046229341891E-16,-0.707106781186548));
#978=DIRECTION('ref_axis',(0.707106781186548,-7.85046229341893E-16,-0.707106781186547));
#979=DIRECTION('center_axis',(-1.,0.,0.));
#980=DIRECTION('ref_axis',(0.,-0.707106781186544,0.707106781186551));
#981=DIRECTION('',(-1.,0.,0.));
#982=DIRECTION('',(1.,0.,0.));
#983=DIRECTION('',(-1.,0.,0.));
#984=DIRECTION('',(1.,0.,0.));
#985=DIRECTION('center_axis',(1.,0.,0.));
#986=DIRECTION('ref_axis',(0.,-0.707106781186549,-0.707106781186546));
#987=DIRECTION('',(-1.,0.,0.));
#988=DIRECTION('',(1.,0.,0.));
#989=DIRECTION('center_axis',(0.,0.,1.));
#990=DIRECTION('ref_axis',(1.,0.,0.));
#991=DIRECTION('',(0.,-1.,0.));
#992=DIRECTION('',(-1.,0.,0.));
#993=DIRECTION('',(0.,1.,0.));
#994=DIRECTION('center_axis',(-1.,0.,0.));
#995=DIRECTION('ref_axis',(0.,0.,-1.));
#996=DIRECTION('',(0.,1.,0.));
#997=DIRECTION('',(0.,0.,-1.));
#998=DIRECTION('center_axis',(1.,0.,0.));
#999=DIRECTION('ref_axis',(0.,0.,-1.));
#1000=DIRECTION('center_axis',(0.,-1.,0.));
#1001=DIRECTION('ref_axis',(0.,0.,-1.));
#1002=DIRECTION('',(0.,0.,1.));
#1003=DIRECTION('',(1.,0.,0.));
#1004=DIRECTION('',(0.,0.,-1.));
#1005=DIRECTION('center_axis',(0.,0.,-1.));
#1006=DIRECTION('ref_axis',(-0.707106781186544,-0.707106781186551,0.));
#1007=DIRECTION('center_axis',(0.707106781186549,0.,-0.707106781186546));
#1008=DIRECTION('ref_axis',(0.707106781186546,0.,0.707106781186549));
#1009=DIRECTION('',(0.,0.,-1.));
#1010=DIRECTION('center_axis',(0.707106781186552,0.,0.707106781186543));
#1011=DIRECTION('ref_axis',(-0.707106781186543,0.,0.707106781186552));
#1012=DIRECTION('center_axis',(0.,0.,1.));
#1013=DIRECTION('ref_axis',(0.707106781186546,-0.707106781186549,0.));
#1014=DIRECTION('center_axis',(-0.707106781186547,1.57009245868377E-15,
0.707106781186548));
#1015=DIRECTION('ref_axis',(-0.707106781186548,1.57009245868378E-15,-0.707106781186547));
#1016=DIRECTION('',(0.,0.,1.));
#1017=DIRECTION('center_axis',(-0.707106781186547,0.,-0.707106781186548));
#1018=DIRECTION('ref_axis',(0.707106781186548,0.,-0.707106781186547));
#1019=DIRECTION('center_axis',(-1.,0.,0.));
#1020=DIRECTION('ref_axis',(0.,-0.707106781186548,0.707106781186548));
#1021=DIRECTION('',(-1.,0.,0.));
#1022=DIRECTION('center_axis',(1.,0.,0.));
#1023=DIRECTION('ref_axis',(0.,-0.707106781186551,-0.707106781186544));
#1024=DIRECTION('',(1.,0.,0.));
#1025=DIRECTION('center_axis',(0.,0.,1.));
#1026=DIRECTION('ref_axis',(1.,0.,0.));
#1027=DIRECTION('',(0.,-1.,0.));
#1028=DIRECTION('',(-1.,0.,0.));
#1029=DIRECTION('',(0.,1.,0.));
#1030=DIRECTION('center_axis',(1.,0.,0.));
#1031=DIRECTION('ref_axis',(0.,0.,-1.));
#1032=DIRECTION('',(0.,1.,0.));
#1033=DIRECTION('',(0.,0.,-1.));
#1034=DIRECTION('center_axis',(-1.,0.,0.));
#1035=DIRECTION('ref_axis',(0.,0.,1.));
#1036=DIRECTION('center_axis',(0.,1.,0.));
#1037=DIRECTION('ref_axis',(0.,0.,1.));
#1038=DIRECTION('',(-1.,0.,0.));
#1039=DIRECTION('',(0.,0.,-1.));
#1040=DIRECTION('',(1.,0.,0.));
#1041=DIRECTION('',(0.,0.,1.));
#1042=DIRECTION('',(-1.,0.,0.));
#1043=DIRECTION('',(0.,0.,1.));
#1044=DIRECTION('',(-1.,0.,0.));
#1045=DIRECTION('',(0.,0.,-1.));
#1046=DIRECTION('center_axis',(0.,0.,1.));
#1047=DIRECTION('ref_axis',(-0.707106781186544,0.707106781186551,0.));
#1048=DIRECTION('center_axis',(0.707106886553718,0.,0.707106675819362));
#1049=DIRECTION('ref_axis',(0.707106675819362,0.,-0.707106886553717));
#1050=DIRECTION('',(0.,0.,1.));
#1051=DIRECTION('center_axis',(-0.707106754844767,0.,0.707106807528327));
#1052=DIRECTION('ref_axis',(-0.707106807528327,0.,-0.707106754844767));
#1053=DIRECTION('center_axis',(1.,0.,0.));
#1054=DIRECTION('ref_axis',(0.,0.707106781186548,0.707106781186548));
#1055=DIRECTION('',(1.,0.,0.));
#1056=DIRECTION('center_axis',(0.707106781186548,0.,-0.707106781186548));
#1057=DIRECTION('ref_axis',(-0.707106781186548,0.,-0.707106781186548));
#1058=DIRECTION('',(1.,0.,0.));
#1059=DIRECTION('center_axis',(0.,0.,-1.));
#1060=DIRECTION('ref_axis',(0.707106781186548,0.707106781186548,0.));
#1061=DIRECTION('center_axis',(-0.707106781186546,3.53270803203847E-15,
-0.707106781186549));
#1062=DIRECTION('ref_axis',(-0.707106781186549,3.53270803203848E-15,0.707106781186546));
#1063=DIRECTION('center_axis',(1.,0.,0.));
#1064=DIRECTION('ref_axis',(0.,0.707106781186549,-0.707106781186546));
#1065=DIRECTION('center_axis',(1.,0.,0.));
#1066=DIRECTION('ref_axis',(0.,0.,1.));
#1067=DIRECTION('',(0.,-1.,0.));
#1068=DIRECTION('center_axis',(0.,0.,1.));
#1069=DIRECTION('ref_axis',(-0.707106781186544,0.707106781186551,0.));
#1070=DIRECTION('center_axis',(0.707106781186552,0.,0.707106781186543));
#1071=DIRECTION('ref_axis',(0.707106781186543,0.,-0.707106781186552));
#1072=DIRECTION('',(0.,0.,1.));
#1073=DIRECTION('center_axis',(0.707106781186549,0.,-0.707106781186546));
#1074=DIRECTION('ref_axis',(-0.707106781186546,0.,-0.707106781186549));
#1075=DIRECTION('center_axis',(0.,0.,-1.));
#1076=DIRECTION('ref_axis',(0.707106781186548,0.707106781186548,0.));
#1077=DIRECTION('center_axis',(-0.707106781186546,0.,-0.707106781186549));
#1078=DIRECTION('ref_axis',(-0.707106781186549,0.,0.707106781186546));
#1079=DIRECTION('center_axis',(-0.707106781186546,0.,0.707106781186549));
#1080=DIRECTION('ref_axis',(0.707106781186549,0.,0.707106781186546));
#1081=DIRECTION('center_axis',(-1.,0.,0.));
#1082=DIRECTION('ref_axis',(0.,0.707106781186551,-0.707106781186544));
#1083=DIRECTION('center_axis',(1.,0.,0.));
#1084=DIRECTION('ref_axis',(0.,0.707106781186548,0.707106781186548));
#1085=DIRECTION('',(1.,0.,0.));
#1086=DIRECTION('center_axis',(0.,0.,-1.));
#1087=DIRECTION('ref_axis',(-1.,0.,0.));
#1088=DIRECTION('',(0.,-1.,0.));
#1089=DIRECTION('center_axis',(-1.,0.,0.));
#1090=DIRECTION('ref_axis',(0.,0.,1.));
#1091=DIRECTION('center_axis',(0.,0.,-1.));
#1092=DIRECTION('ref_axis',(-1.,0.,0.));
#1093=CARTESIAN_POINT('',(0.,0.,0.));
#1094=CARTESIAN_POINT('Ctrl Pts',(-22.,37.,-34.));
#1095=CARTESIAN_POINT('Ctrl Pts',(-22.1121997376282,37.,-34.2243994752564));
#1096=CARTESIAN_POINT('Ctrl Pts',(-22.2985167876611,36.8688712938722,-34.5970335753222));
#1097=CARTESIAN_POINT('Ctrl Pts',(-22.4657860462078,36.4482664828257,-34.9315720924155));
#1098=CARTESIAN_POINT('Ctrl Pts',(-22.5,36.1495996501709,-35.));
#1099=CARTESIAN_POINT('Ctrl Pts',(-22.5,36.,-35.));
#1100=CARTESIAN_POINT('Ctrl Pts',(-22.,37.,-34.));
#1101=CARTESIAN_POINT('Ctrl Pts',(-22.1308996938996,37.,-34.205699518985));
#1102=CARTESIAN_POINT('Ctrl Pts',(-22.3481269985737,36.895093841632,-34.547859288476));
#1103=CARTESIAN_POINT('Ctrl Pts',(-22.5735751813425,36.502232626797,-34.9095008650791));
#1104=CARTESIAN_POINT('Ctrl Pts',(-22.6308996938996,36.1693756438479,-35.));
#1105=CARTESIAN_POINT('Ctrl Pts',(-22.6308996938996,36.,-35.));
#1106=CARTESIAN_POINT('Ctrl Pts',(-22.,37.,-34.));
#1107=CARTESIAN_POINT('Ctrl Pts',(-22.1682996064423,37.,-34.1682996064423));
#1108=CARTESIAN_POINT('Ctrl Pts',(-22.4480772354947,36.9207765946613,-34.4480772354947));
#1109=CARTESIAN_POINT('Ctrl Pts',(-22.7889453311839,36.562114319825,-34.7889453311839));
#1110=CARTESIAN_POINT('Ctrl Pts',(-22.8915293806584,36.1918236521059,-34.8915293806584));
#1111=CARTESIAN_POINT('Ctrl Pts',(-22.8915293806584,36.,-34.8915293806584));
#1112=CARTESIAN_POINT('Ctrl Pts',(-22.,37.,-34.));
#1113=CARTESIAN_POINT('Ctrl Pts',(-22.205699518985,37.,-34.1308996938996));
#1114=CARTESIAN_POINT('Ctrl Pts',(-22.547859288476,36.895093841632,-34.3481269985737));
#1115=CARTESIAN_POINT('Ctrl Pts',(-22.9095008650791,36.502232626797,-34.5735751813425));
#1116=CARTESIAN_POINT('Ctrl Pts',(-23.,36.1693756438479,-34.6308996938996));
#1117=CARTESIAN_POINT('Ctrl Pts',(-23.,36.,-34.6308996938996));
#1118=CARTESIAN_POINT('Ctrl Pts',(-22.,37.,-34.));
#1119=CARTESIAN_POINT('Ctrl Pts',(-22.2243994752564,37.,-34.1121997376282));
#1120=CARTESIAN_POINT('Ctrl Pts',(-22.5970335753222,36.8688712938721,-34.2985167876611));
#1121=CARTESIAN_POINT('Ctrl Pts',(-22.9315720924155,36.4482664828257,-34.4657860462078));
#1122=CARTESIAN_POINT('Ctrl Pts',(-23.,36.1495996501709,-34.5));
#1123=CARTESIAN_POINT('Ctrl Pts',(-23.,36.,-34.5));
#1124=CARTESIAN_POINT('',(-22.5,36.,-35.));
#1125=CARTESIAN_POINT('',(-23.,36.,-34.5));
#1126=CARTESIAN_POINT('Origin',(-22.5,36.,-34.5));
#1127=CARTESIAN_POINT('',(-22.,37.,-34.));
#1128=CARTESIAN_POINT('Origin',(-22.,36.,-34.));
#1129=CARTESIAN_POINT('Origin',(-22.,36.,-34.));
#1130=CARTESIAN_POINT('Origin',(-22.5,12.,-34.5));
#1131=CARTESIAN_POINT('',(-22.5,-29.,-35.));
#1132=CARTESIAN_POINT('',(-23.,-29.,-34.5));
#1133=CARTESIAN_POINT('Origin',(-22.5,-29.,-34.5));
#1134=CARTESIAN_POINT('',(-23.,12.,-34.5));
#1135=CARTESIAN_POINT('',(-22.5,12.,-35.));
#1136=CARTESIAN_POINT('Ctrl Pts',(-22.5,-29.,-35.));
#1137=CARTESIAN_POINT('Ctrl Pts',(-22.5,-29.1495996501709,-35.));
#1138=CARTESIAN_POINT('Ctrl Pts',(-22.4657872455616,-29.4482701314967,-34.9315744911232));
#1139=CARTESIAN_POINT('Ctrl Pts',(-22.2985184408756,-29.8688793814182,-34.5970368817513));
#1140=CARTESIAN_POINT('Ctrl Pts',(-22.1121997376282,-30.,-34.2243994752564));
#1141=CARTESIAN_POINT('Ctrl Pts',(-22.,-30.,-34.));
#1142=CARTESIAN_POINT('Ctrl Pts',(-22.6308996938996,-29.,-35.));
#1143=CARTESIAN_POINT('Ctrl Pts',(-22.6308996938996,-29.1693756438479,-35.));
#1144=CARTESIAN_POINT('Ctrl Pts',(-22.5735821253469,-29.5022366600604,-34.9095134689037));
#1145=CARTESIAN_POINT('Ctrl Pts',(-22.3481352103923,-29.8950978733318,-34.5478753708275));
#1146=CARTESIAN_POINT('Ctrl Pts',(-22.1308996938996,-30.,-34.205699518985));
#1147=CARTESIAN_POINT('Ctrl Pts',(-22.,-30.,-34.));
#1148=CARTESIAN_POINT('Ctrl Pts',(-22.8915350755252,-29.,-34.8915350755252));
#1149=CARTESIAN_POINT('Ctrl Pts',(-22.8915350755252,-29.1918236521059,-34.8915350755252));
#1150=CARTESIAN_POINT('Ctrl Pts',(-22.7889610456184,-29.5621349953706,-34.7889610456184));
#1151=CARTESIAN_POINT('Ctrl Pts',(-22.4480908070981,-29.9207866419682,-34.4480908070981));
#1152=CARTESIAN_POINT('Ctrl Pts',(-22.1682996064423,-30.,-34.1682996064423));
#1153=CARTESIAN_POINT('Ctrl Pts',(-22.,-30.,-34.));
#1154=CARTESIAN_POINT('Ctrl Pts',(-23.,-29.,-34.6308996938996));
#1155=CARTESIAN_POINT('Ctrl Pts',(-23.,-29.1693756438479,-34.6308996938996));
#1156=CARTESIAN_POINT('Ctrl Pts',(-22.9095134689037,-29.5022366600604,-34.5735821253469));
#1157=CARTESIAN_POINT('Ctrl Pts',(-22.5478753708275,-29.8950978733318,-34.3481352103922));
#1158=CARTESIAN_POINT('Ctrl Pts',(-22.205699518985,-30.,-34.1308996938996));
#1159=CARTESIAN_POINT('Ctrl Pts',(-22.,-30.,-34.));
#1160=CARTESIAN_POINT('Ctrl Pts',(-23.,-29.,-34.5));
#1161=CARTESIAN_POINT('Ctrl Pts',(-23.,-29.1495996501709,-34.5));
#1162=CARTESIAN_POINT('Ctrl Pts',(-22.9315744911232,-29.4482701314967,-34.4657872455616));
#1163=CARTESIAN_POINT('Ctrl Pts',(-22.5970368817513,-29.8688793814182,-34.2985184408756));
#1164=CARTESIAN_POINT('Ctrl Pts',(-22.2243994752564,-30.,-34.1121997376282));
#1165=CARTESIAN_POINT('Ctrl Pts',(-22.,-30.,-34.));
#1166=CARTESIAN_POINT('',(-22.,-30.,-34.));
#1167=CARTESIAN_POINT('Origin',(-22.,-29.,-34.));
#1168=CARTESIAN_POINT('Origin',(-22.,-29.,-34.));
#1169=CARTESIAN_POINT('Origin',(5.,-1.,-35.));
#1170=CARTESIAN_POINT('',(47.5,36.,-35.));
#1171=CARTESIAN_POINT('',(8.75,36.,-35.));
#1172=CARTESIAN_POINT('',(47.5,-29.,-35.));
#1173=CARTESIAN_POINT('',(47.5,-14.,-35.));
#1174=CARTESIAN_POINT('',(-10.,-29.,-35.));
#1175=CARTESIAN_POINT('Origin',(8.75,36.,-34.));
#1176=CARTESIAN_POINT('',(47.,37.,-34.));
#1177=CARTESIAN_POINT('',(8.75,37.,-34.));
#1178=CARTESIAN_POINT('Origin',(47.,36.,-34.));
#1179=CARTESIAN_POINT('Origin',(-22.,36.,-3.75));
#1180=CARTESIAN_POINT('',(-23.,36.,-2.5));
#1181=CARTESIAN_POINT('',(-23.,36.,-3.75));
#1182=CARTESIAN_POINT('',(-22.,37.,-3.));
#1183=CARTESIAN_POINT('Origin',(-22.,36.,-3.));
#1184=CARTESIAN_POINT('',(-22.,37.,-3.75));
#1185=CARTESIAN_POINT('Ctrl Pts',(-22.,-30.,-3.));
#1186=CARTESIAN_POINT('Ctrl Pts',(-22.1121997376282,-30.,-2.77560052474359));
#1187=CARTESIAN_POINT('Ctrl Pts',(-22.2985293870781,-29.8689339713972,-2.40294122584383));
#1188=CARTESIAN_POINT('Ctrl Pts',(-22.4657952573226,-29.4482935329821,-2.06840948535471));
#1189=CARTESIAN_POINT('Ctrl Pts',(-22.5,-29.1495996501709,-2.));
#1190=CARTESIAN_POINT('Ctrl Pts',(-22.5,-29.,-2.));
#1191=CARTESIAN_POINT('Ctrl Pts',(-22.,-30.,-3.));
#1192=CARTESIAN_POINT('Ctrl Pts',(-22.1308996938996,-30.,-2.79430048101495));
#1193=CARTESIAN_POINT('Ctrl Pts',(-22.3481891192411,-29.8951240477818,-2.45201858478403));
#1194=CARTESIAN_POINT('Ctrl Pts',(-22.5736289439328,-29.5022640880642,-2.09040192644824));
#1195=CARTESIAN_POINT('Ctrl Pts',(-22.6308996938996,-29.1693756438479,-2.));
#1196=CARTESIAN_POINT('Ctrl Pts',(-22.6308996938996,-29.,-2.));
#1197=CARTESIAN_POINT('Ctrl Pts',(-22.,-30.,-3.));
#1198=CARTESIAN_POINT('Ctrl Pts',(-22.1682996064423,-30.,-2.83170039355769));
#1199=CARTESIAN_POINT('Ctrl Pts',(-22.4481770185874,-29.9208481280008,-2.55182298141256));
#1200=CARTESIAN_POINT('Ctrl Pts',(-22.7890677855682,-29.5622812056492,-2.21093221443179));
#1201=CARTESIAN_POINT('Ctrl Pts',(-22.8915750309545,-29.1918236521059,-2.10842496904553));
#1202=CARTESIAN_POINT('Ctrl Pts',(-22.8915750309545,-29.,-2.10842496904553));
#1203=CARTESIAN_POINT('Ctrl Pts',(-22.,-30.,-3.));
#1204=CARTESIAN_POINT('Ctrl Pts',(-22.205699518985,-30.,-2.86910030610043));
#1205=CARTESIAN_POINT('Ctrl Pts',(-22.547981415216,-29.8951240477818,-2.65181088075886));
#1206=CARTESIAN_POINT('Ctrl Pts',(-22.9095980735518,-29.5022640880642,-2.42637105606722));
#1207=CARTESIAN_POINT('Ctrl Pts',(-23.,-29.1693756438479,-2.36910030610043));
#1208=CARTESIAN_POINT('Ctrl Pts',(-23.,-29.,-2.36910030610043));
#1209=CARTESIAN_POINT('Ctrl Pts',(-22.,-30.,-3.));
#1210=CARTESIAN_POINT('Ctrl Pts',(-22.2243994752564,-30.,-2.88780026237179));
#1211=CARTESIAN_POINT('Ctrl Pts',(-22.5970587741562,-29.8689339713972,-2.70147061292192));
#1212=CARTESIAN_POINT('Ctrl Pts',(-22.9315905146453,-29.4482935329821,-2.53420474267735));
#1213=CARTESIAN_POINT('Ctrl Pts',(-23.,-29.1495996501709,-2.5));
#1214=CARTESIAN_POINT('Ctrl Pts',(-23.,-29.,-2.5));
#1215=CARTESIAN_POINT('',(-22.5,-29.,-2.));
#1216=CARTESIAN_POINT('',(-23.,-29.,-2.5));
#1217=CARTESIAN_POINT('Origin',(-22.5,-29.,-2.5));
#1218=CARTESIAN_POINT('',(-22.,-30.,-3.));
#1219=CARTESIAN_POINT('Origin',(-22.,-29.,-3.));
#1220=CARTESIAN_POINT('Origin',(-22.,-29.,-3.));
#1221=CARTESIAN_POINT('Origin',(-22.5,12.,-2.5));
#1222=CARTESIAN_POINT('',(-22.5,36.,-2.));
#1223=CARTESIAN_POINT('',(-22.5,12.,-2.));
#1224=CARTESIAN_POINT('Origin',(-22.5,36.,-2.5));
#1225=CARTESIAN_POINT('',(-23.,12.,-2.5));
#1226=CARTESIAN_POINT('Ctrl Pts',(-22.,37.,-3.));
#1227=CARTESIAN_POINT('Ctrl Pts',(-22.2991993003419,37.,-2.85040034982906));
#1228=CARTESIAN_POINT('Ctrl Pts',(-22.8172775123839,36.7489354799409,-2.59136124380806));
#1229=CARTESIAN_POINT('Ctrl Pts',(-23.,36.2243994752564,-2.5));
#1230=CARTESIAN_POINT('Ctrl Pts',(-23.,36.,-2.5));
#1231=CARTESIAN_POINT('Ctrl Pts',(-22.,37.,-3.));
#1232=CARTESIAN_POINT('Ctrl Pts',(-22.2742660253134,37.,-2.82546707480057));
#1233=CARTESIAN_POINT('Ctrl Pts',(-22.7593478748923,36.8088056009541,-2.51931950189432));
#1234=CARTESIAN_POINT('Ctrl Pts',(-23.,36.2540634657718,-2.36910030610042));
#1235=CARTESIAN_POINT('Ctrl Pts',(-23.,36.,-2.36910030610042));
#1236=CARTESIAN_POINT('Ctrl Pts',(-22.,37.,-3.));
#1237=CARTESIAN_POINT('Ctrl Pts',(-22.2243994752564,37.,-2.77560052474358));
#1238=CARTESIAN_POINT('Ctrl Pts',(-22.6257730817664,36.871577655556,-2.37422691823358));
#1239=CARTESIAN_POINT('Ctrl Pts',(-22.8915634846823,36.2877354781588,-2.10843651531767));
#1240=CARTESIAN_POINT('Ctrl Pts',(-22.8915634846823,36.,-2.10843651531767));
#1241=CARTESIAN_POINT('Ctrl Pts',(-22.,37.,-3.));
#1242=CARTESIAN_POINT('Ctrl Pts',(-22.1745329251994,37.,-2.7257339746866));
#1243=CARTESIAN_POINT('Ctrl Pts',(-22.4806804981057,36.8088056009541,-2.2406521251077));
#1244=CARTESIAN_POINT('Ctrl Pts',(-22.6308996938996,36.2540634657718,-2.));
#1245=CARTESIAN_POINT('Ctrl Pts',(-22.6308996938996,36.,-2.));
#1246=CARTESIAN_POINT('Ctrl Pts',(-22.,37.,-3.));
#1247=CARTESIAN_POINT('Ctrl Pts',(-22.1495996501709,37.,-2.70080069965811));
#1248=CARTESIAN_POINT('Ctrl Pts',(-22.4086387561919,36.7489354799409,-2.18272248761611));
#1249=CARTESIAN_POINT('Ctrl Pts',(-22.5,36.2243994752564,-2.));
#1250=CARTESIAN_POINT('Ctrl Pts',(-22.5,36.,-2.));
#1251=CARTESIAN_POINT('Origin',(-22.,36.,-3.));
#1252=CARTESIAN_POINT('Origin',(5.,-1.,-2.));
#1253=CARTESIAN_POINT('',(47.5,-29.,-2.));
#1254=CARTESIAN_POINT('',(-10.,-29.,-2.));
#1255=CARTESIAN_POINT('',(47.5,36.,-2.));
#1256=CARTESIAN_POINT('',(47.5,-14.,-2.));
#1257=CARTESIAN_POINT('',(8.75,36.,-2.));
#1258=CARTESIAN_POINT('Origin',(-10.,-29.,-3.));
#1259=CARTESIAN_POINT('',(47.,-30.,-3.));
#1260=CARTESIAN_POINT('',(-10.,-30.,-3.));
#1261=CARTESIAN_POINT('Origin',(47.,-29.,-3.));
#1262=CARTESIAN_POINT('Origin',(-22.,-29.,0.));
#1263=CARTESIAN_POINT('',(-22.,-30.,0.));
#1264=CARTESIAN_POINT('',(-23.,-29.,0.));
#1265=CARTESIAN_POINT('Ctrl Pts',(47.,-30.,-34.));
#1266=CARTESIAN_POINT('Ctrl Pts',(47.1121997376282,-30.,-34.2243994752564));
#1267=CARTESIAN_POINT('Ctrl Pts',(47.2985132836776,-29.8688542697275,-34.5970265673551));
#1268=CARTESIAN_POINT('Ctrl Pts',(47.4657835121466,-29.4482586641226,-34.9315670242932));
#1269=CARTESIAN_POINT('Ctrl Pts',(47.5,-29.1495996501709,-35.));
#1270=CARTESIAN_POINT('Ctrl Pts',(47.5,-29.,-35.));
#1271=CARTESIAN_POINT('Ctrl Pts',(47.,-30.,-34.));
#1272=CARTESIAN_POINT('Ctrl Pts',(47.1308996938996,-30.,-34.205699518985));
#1273=CARTESIAN_POINT('Ctrl Pts',(47.3481095414462,-29.89508523781,-34.5478251524215));
#1274=CARTESIAN_POINT('Ctrl Pts',(47.5735605583994,-29.5022241598451,-34.909474281285));
#1275=CARTESIAN_POINT('Ctrl Pts',(47.6308996938996,-29.1693756438479,-35.));
#1276=CARTESIAN_POINT('Ctrl Pts',(47.6308996938996,-29.,-35.));
#1277=CARTESIAN_POINT('Ctrl Pts',(47.,-30.,-34.));
#1278=CARTESIAN_POINT('Ctrl Pts',(47.1682996064423,-30.,-34.1682996064423));
#1279=CARTESIAN_POINT('Ctrl Pts',(47.4480480496534,-29.9207547549911,-34.4480480496534));
#1280=CARTESIAN_POINT('Ctrl Pts',(47.7889123231865,-29.5620715538605,-34.7889123231864));
#1281=CARTESIAN_POINT('Ctrl Pts',(47.8915175817963,-29.1918236521059,-34.8915175817963));
#1282=CARTESIAN_POINT('Ctrl Pts',(47.8915175817963,-29.,-34.8915175817963));
#1283=CARTESIAN_POINT('Ctrl Pts',(47.,-30.,-34.));
#1284=CARTESIAN_POINT('Ctrl Pts',(47.205699518985,-30.,-34.1308996938996));
#1285=CARTESIAN_POINT('Ctrl Pts',(47.5478251524215,-29.89508523781,-34.3481095414462));
#1286=CARTESIAN_POINT('Ctrl Pts',(47.909474281285,-29.5022241598451,-34.5735605583994));
#1287=CARTESIAN_POINT('Ctrl Pts',(48.,-29.1693756438479,-34.6308996938996));
#1288=CARTESIAN_POINT('Ctrl Pts',(48.,-29.,-34.6308996938996));
#1289=CARTESIAN_POINT('Ctrl Pts',(47.,-30.,-34.));
#1290=CARTESIAN_POINT('Ctrl Pts',(47.2243994752564,-30.,-34.1121997376282));
#1291=CARTESIAN_POINT('Ctrl Pts',(47.5970265673551,-29.8688542697275,-34.2985132836776));
#1292=CARTESIAN_POINT('Ctrl Pts',(47.9315670242932,-29.4482586641226,-34.4657835121466));
#1293=CARTESIAN_POINT('Ctrl Pts',(48.,-29.1495996501709,-34.5));
#1294=CARTESIAN_POINT('Ctrl Pts',(48.,-29.,-34.5));
#1295=CARTESIAN_POINT('',(48.,-29.,-34.5));
#1296=CARTESIAN_POINT('Origin',(47.5,-29.,-34.5));
#1297=CARTESIAN_POINT('',(47.,-30.,-34.));
#1298=CARTESIAN_POINT('Origin',(47.,-29.,-34.));
#1299=CARTESIAN_POINT('Origin',(47.,-29.,-34.));
#1300=CARTESIAN_POINT('Origin',(47.5,-14.,-34.5));
#1301=CARTESIAN_POINT('',(48.,36.,-34.5));
#1302=CARTESIAN_POINT('Origin',(47.5,36.,-34.5));
#1303=CARTESIAN_POINT('',(48.,-14.,-34.5));
#1304=CARTESIAN_POINT('Ctrl Pts',(47.5,36.,-35.));
#1305=CARTESIAN_POINT('Ctrl Pts',(47.5,36.1495996501709,-35.));
#1306=CARTESIAN_POINT('Ctrl Pts',(47.4657826939976,36.4482561094805,-34.9315653879951));
#1307=CARTESIAN_POINT('Ctrl Pts',(47.2985121493437,36.868848790896,-34.5970242986874));
#1308=CARTESIAN_POINT('Ctrl Pts',(47.1121997376282,37.,-34.2243994752564));
#1309=CARTESIAN_POINT('Ctrl Pts',(47.,37.,-34.));
#1310=CARTESIAN_POINT('Ctrl Pts',(47.6308996938996,36.,-35.));
#1311=CARTESIAN_POINT('Ctrl Pts',(47.6308996938996,36.1693756438479,-35.));
#1312=CARTESIAN_POINT('Ctrl Pts',(47.5735558506935,36.5022214413304,-34.9094657112063));
#1313=CARTESIAN_POINT('Ctrl Pts',(47.3481038757213,36.8950824363629,-34.5478140880075));
#1314=CARTESIAN_POINT('Ctrl Pts',(47.1308996938996,37.,-34.205699518985));
#1315=CARTESIAN_POINT('Ctrl Pts',(47.,37.,-34.));
#1316=CARTESIAN_POINT('Ctrl Pts',(47.8915138388178,36.,-34.8915138388178));
#1317=CARTESIAN_POINT('Ctrl Pts',(47.8915138388178,36.1918236521059,-34.8915138388178));
#1318=CARTESIAN_POINT('Ctrl Pts',(47.7889017194009,36.5620580008372,-34.7889017194009));
#1319=CARTESIAN_POINT('Ctrl Pts',(47.4480384844648,36.9207475373734,-34.4480384844648));
#1320=CARTESIAN_POINT('Ctrl Pts',(47.1682996064423,37.,-34.1682996064423));
#1321=CARTESIAN_POINT('Ctrl Pts',(47.,37.,-34.));
#1322=CARTESIAN_POINT('Ctrl Pts',(48.,36.,-34.6308996938996));
#1323=CARTESIAN_POINT('Ctrl Pts',(48.,36.1693756438479,-34.6308996938996));
#1324=CARTESIAN_POINT('Ctrl Pts',(47.9094657112064,36.5022214413304,-34.5735558506935));
#1325=CARTESIAN_POINT('Ctrl Pts',(47.5478140880075,36.8950824363629,-34.3481038757213));
#1326=CARTESIAN_POINT('Ctrl Pts',(47.205699518985,37.,-34.1308996938996));
#1327=CARTESIAN_POINT('Ctrl Pts',(47.,37.,-34.));
#1328=CARTESIAN_POINT('Ctrl Pts',(48.,36.,-34.5));
#1329=CARTESIAN_POINT('Ctrl Pts',(48.,36.1495996501709,-34.5));
#1330=CARTESIAN_POINT('Ctrl Pts',(47.9315653879951,36.4482561094805,-34.4657826939975));
#1331=CARTESIAN_POINT('Ctrl Pts',(47.5970242986874,36.868848790896,-34.2985121493437));
#1332=CARTESIAN_POINT('Ctrl Pts',(47.2243994752564,37.,-34.1121997376282));
#1333=CARTESIAN_POINT('Ctrl Pts',(47.,37.,-34.));
#1334=CARTESIAN_POINT('Origin',(47.,36.,-34.));
#1335=CARTESIAN_POINT('Origin',(-10.,-29.,-34.));
#1336=CARTESIAN_POINT('',(-10.,-30.,-34.));
#1337=CARTESIAN_POINT('Origin',(47.,-29.,0.));
#1338=CARTESIAN_POINT('',(48.,-29.,-2.5));
#1339=CARTESIAN_POINT('',(48.,-29.,0.));
#1340=CARTESIAN_POINT('Origin',(47.,-29.,-3.));
#1341=CARTESIAN_POINT('',(47.,-30.,0.));
#1342=CARTESIAN_POINT('Ctrl Pts',(47.,37.,-3.));
#1343=CARTESIAN_POINT('Ctrl Pts',(47.1121997376282,37.,-2.77560052474359));
#1344=CARTESIAN_POINT('Ctrl Pts',(47.2985184073508,36.868879217045,-2.40296318529848));
#1345=CARTESIAN_POINT('Ctrl Pts',(47.4657872212153,36.4482700577751,-2.06842555756932));
#1346=CARTESIAN_POINT('Ctrl Pts',(47.5,36.1495996501709,-2.));
#1347=CARTESIAN_POINT('Ctrl Pts',(47.5,36.,-2.));
#1348=CARTESIAN_POINT('Ctrl Pts',(47.,37.,-3.));
#1349=CARTESIAN_POINT('Ctrl Pts',(47.1308996938996,37.,-2.79430048101496));
#1350=CARTESIAN_POINT('Ctrl Pts',(47.3481350440322,36.8950977917589,-2.45212495514432));
#1351=CARTESIAN_POINT('Ctrl Pts',(47.573581984234,36.5022365780151,-2.09048678709285));
#1352=CARTESIAN_POINT('Ctrl Pts',(47.6308996938996,36.1693756438479,-2.));
#1353=CARTESIAN_POINT('Ctrl Pts',(47.6308996938996,36.,-2.));
#1354=CARTESIAN_POINT('Ctrl Pts',(47.,37.,-3.));
#1355=CARTESIAN_POINT('Ctrl Pts',(47.1682996064423,37.,-2.83170039355769));
#1356=CARTESIAN_POINT('Ctrl Pts',(47.4480905331991,36.9207864399571,-2.55190946680089));
#1357=CARTESIAN_POINT('Ctrl Pts',(47.788960726008,36.5621345727854,-2.21103927399205));
#1358=CARTESIAN_POINT('Ctrl Pts',(47.891534959205,36.1918236521059,-2.10846504079504));
#1359=CARTESIAN_POINT('Ctrl Pts',(47.891534959205,36.,-2.10846504079504));
#1360=CARTESIAN_POINT('Ctrl Pts',(47.,37.,-3.));
#1361=CARTESIAN_POINT('Ctrl Pts',(47.205699518985,37.,-2.86910030610043));
#1362=CARTESIAN_POINT('Ctrl Pts',(47.5478750448557,36.8950977917589,-2.65186495596784));
#1363=CARTESIAN_POINT('Ctrl Pts',(47.9095132129072,36.5022365780151,-2.42641801576599));
#1364=CARTESIAN_POINT('Ctrl Pts',(48.,36.1693756438479,-2.36910030610043));
#1365=CARTESIAN_POINT('Ctrl Pts',(48.,36.,-2.36910030610043));
#1366=CARTESIAN_POINT('Ctrl Pts',(47.,37.,-3.));
#1367=CARTESIAN_POINT('Ctrl Pts',(47.2243994752564,37.,-2.8878002623718));
#1368=CARTESIAN_POINT('Ctrl Pts',(47.5970368147015,36.868879217045,-2.70148159264924));
#1369=CARTESIAN_POINT('Ctrl Pts',(47.9315744424307,36.4482700577751,-2.53421277878466));
#1370=CARTESIAN_POINT('Ctrl Pts',(48.,36.1495996501709,-2.50000000000001));
#1371=CARTESIAN_POINT('Ctrl Pts',(48.,36.,-2.50000000000001));
#1372=CARTESIAN_POINT('',(48.,36.,-2.50000000000001));
#1373=CARTESIAN_POINT('Origin',(47.5,36.,-2.50000000000001));
#1374=CARTESIAN_POINT('',(47.,37.,-3.));
#1375=CARTESIAN_POINT('Origin',(47.,36.,-3.));
#1376=CARTESIAN_POINT('Origin',(47.,36.,-3.));
#1377=CARTESIAN_POINT('Origin',(47.5,-14.,-2.5));
#1378=CARTESIAN_POINT('Origin',(47.5,-29.,-2.5));
#1379=CARTESIAN_POINT('',(48.,-14.,-2.5));
#1380=CARTESIAN_POINT('Ctrl Pts',(47.,-30.,-3.));
#1381=CARTESIAN_POINT('Ctrl Pts',(47.2243994752564,-30.,-2.88780026237179));
#1382=CARTESIAN_POINT('Ctrl Pts',(47.5970405320254,-29.8688883538966,-2.70147973398727));
#1383=CARTESIAN_POINT('Ctrl Pts',(47.9315771452355,-29.4482741276932,-2.53421142738224));
#1384=CARTESIAN_POINT('Ctrl Pts',(48.,-29.1495996501709,-2.5));
#1385=CARTESIAN_POINT('Ctrl Pts',(48.,-29.,-2.5));
#1386=CARTESIAN_POINT('Ctrl Pts',(47.,-30.,-3.));
#1387=CARTESIAN_POINT('Ctrl Pts',(47.2056995189851,-30.,-2.86910030610042));
#1388=CARTESIAN_POINT('Ctrl Pts',(47.5478931071025,-29.8951023023747,-2.65185574333409));
#1389=CARTESIAN_POINT('Ctrl Pts',(47.9095274320284,-29.5022411432379,-2.42641017305996));
#1390=CARTESIAN_POINT('Ctrl Pts',(48.,-29.1693756438479,-2.36910030610043));
#1391=CARTESIAN_POINT('Ctrl Pts',(48.,-29.,-2.36910030610043));
#1392=CARTESIAN_POINT('Ctrl Pts',(47.,-30.,-3.));
#1393=CARTESIAN_POINT('Ctrl Pts',(47.1682996064423,-30.,-2.83170039355769));
#1394=CARTESIAN_POINT('Ctrl Pts',(47.448105634183,-29.9207975268957,-2.55189436581696));
#1395=CARTESIAN_POINT('Ctrl Pts',(47.7889785066685,-29.5621582148786,-2.21102149333151));
#1396=CARTESIAN_POINT('Ctrl Pts',(47.8915414613094,-29.1918236521058,-2.10845853869057));
#1397=CARTESIAN_POINT('Ctrl Pts',(47.8915414613094,-29.,-2.10845853869057));
#1398=CARTESIAN_POINT('Ctrl Pts',(47.,-30.,-3.));
#1399=CARTESIAN_POINT('Ctrl Pts',(47.1308996938996,-30.,-2.79430048101495));
#1400=CARTESIAN_POINT('Ctrl Pts',(47.3481442566659,-29.8951023023747,-2.4521068928975));
#1401=CARTESIAN_POINT('Ctrl Pts',(47.5735898269401,-29.5022411432379,-2.09047256797163));
#1402=CARTESIAN_POINT('Ctrl Pts',(47.6308996938996,-29.1693756438479,-2.00000000000001));
#1403=CARTESIAN_POINT('Ctrl Pts',(47.6308996938996,-29.,-2.00000000000001));
#1404=CARTESIAN_POINT('Ctrl Pts',(47.,-30.,-3.));
#1405=CARTESIAN_POINT('Ctrl Pts',(47.1121997376282,-30.,-2.77560052474358));
#1406=CARTESIAN_POINT('Ctrl Pts',(47.2985202660127,-29.8688883538966,-2.40295946797456));
#1407=CARTESIAN_POINT('Ctrl Pts',(47.4657885726178,-29.4482741276932,-2.06842285476449));
#1408=CARTESIAN_POINT('Ctrl Pts',(47.5,-29.1495996501709,-2.00000000000001));
#1409=CARTESIAN_POINT('Ctrl Pts',(47.5,-29.,-2.00000000000001));
#1410=CARTESIAN_POINT('Origin',(8.75,36.,-3.));
#1411=CARTESIAN_POINT('',(8.75,37.,-3.));
#1412=CARTESIAN_POINT('Origin',(47.,36.,-3.75));
#1413=CARTESIAN_POINT('',(47.,37.,-3.75));
#1414=CARTESIAN_POINT('',(48.,36.,-3.75));
#1415=CARTESIAN_POINT('Origin',(46.,-29.,0.));
#1416=CARTESIAN_POINT('',(46.,-30.,-26.));
#1417=CARTESIAN_POINT('',(46.,-30.,-4.00000007450581));
#1418=CARTESIAN_POINT('',(46.,-30.,0.));
#1419=CARTESIAN_POINT('',(45.,-29.,-5.));
#1420=CARTESIAN_POINT('Origin',(46.,-29.,-4.00000007450581));
#1421=CARTESIAN_POINT('',(45.0000006705523,-29.,-25.000000372529));
#1422=CARTESIAN_POINT('',(45.,-29.,0.));
#1423=CARTESIAN_POINT('Origin',(46.,-29.,-26.));
#1424=CARTESIAN_POINT('Origin',(-21.,-29.,15.));
#1425=CARTESIAN_POINT('',(-21.,-30.,-4.00000007450581));
#1426=CARTESIAN_POINT('',(-21.,-30.,-26.));
#1427=CARTESIAN_POINT('',(-21.,-30.,15.));
#1428=CARTESIAN_POINT('',(-20.,-29.,-25.));
#1429=CARTESIAN_POINT('Origin',(-21.,-29.,-26.));
#1430=CARTESIAN_POINT('',(-20.,-29.,-5.0000000745058));
#1431=CARTESIAN_POINT('',(-20.,-29.,15.));
#1432=CARTESIAN_POINT('Origin',(-21.,-29.,-4.00000007450581));
#1433=CARTESIAN_POINT('Origin',(-22.5,-29.,-26.));
#1434=CARTESIAN_POINT('',(-22.5,-29.,-25.));
#1435=CARTESIAN_POINT('',(-19.0000002980232,-30.,-26.0000004172325));
#1436=CARTESIAN_POINT('',(-22.5,-30.,-26.));
#1437=CARTESIAN_POINT('',(44.0000006705522,-30.,-26.0000004172325));
#1438=CARTESIAN_POINT('',(-22.5000001490116,-30.,-26.0000004172325));
#1439=CARTESIAN_POINT('',(-22.5,-30.,-26.));
#1440=CARTESIAN_POINT('Origin',(10.0000003352761,-29.,-4.00000007450581));
#1441=CARTESIAN_POINT('',(10.0000003352761,-30.,-4.00000007450581));
#1442=CARTESIAN_POINT('',(10.0000003352761,-29.,-5.00000007450581));
#1443=CARTESIAN_POINT('Origin',(45.0000006705523,0.,-5.00000007450581));
#1444=CARTESIAN_POINT('',(-20.,36.,-5.0000000745058));
#1445=CARTESIAN_POINT('',(-20.,15.,-5.0000000745058));
#1446=CARTESIAN_POINT('',(45.,36.,-5.));
#1447=CARTESIAN_POINT('',(28.7500003352761,36.,-5.00000007450581));
#1448=CARTESIAN_POINT('',(45.,30.,-5.));
#1449=CARTESIAN_POINT('Origin',(-20.,30.,30.));
#1450=CARTESIAN_POINT('',(-20.,36.,-25.));
#1451=CARTESIAN_POINT('',(-20.,30.,-25.));
#1452=CARTESIAN_POINT('',(-20.,36.,11.25));
#1453=CARTESIAN_POINT('Origin',(-23.,25.,0.));
#1454=CARTESIAN_POINT('Origin',(-25.,-30.,0.));
#1455=CARTESIAN_POINT('',(44.0000006705522,-30.,-33.0000004470348));
#1456=CARTESIAN_POINT('',(44.0000006705522,-30.,-14.0000002086163));
#1457=CARTESIAN_POINT('',(-19.0000002980232,-30.,-33.0000004470348));
#1458=CARTESIAN_POINT('',(10.0000003352761,-30.,-33.0000004470348));
#1459=CARTESIAN_POINT('',(-19.0000002980232,-30.,-15.0000002235174));
#1460=CARTESIAN_POINT('Origin',(44.0000006705522,-29.,-14.0000002086163));
#1461=CARTESIAN_POINT('',(43.0000006705523,-29.,-27.0000004172325));
#1462=CARTESIAN_POINT('Origin',(44.0000006705522,-29.,-26.0000004172325));
#1463=CARTESIAN_POINT('',(43.0000006705523,-29.,-32.0000004470348));
#1464=CARTESIAN_POINT('',(43.0000006705523,-29.,-14.0000002086163));
#1465=CARTESIAN_POINT('Origin',(44.0000006705522,-29.,-33.0000004470348));
#1466=CARTESIAN_POINT('Origin',(-19.0000002980232,-29.,-15.0000002235174));
#1467=CARTESIAN_POINT('',(-18.0000002980232,-29.,-32.0000004470348));
#1468=CARTESIAN_POINT('Origin',(-19.0000002980232,-29.,-33.0000004470348));
#1469=CARTESIAN_POINT('',(-18.0000002980232,-29.,-27.0000004172325));
#1470=CARTESIAN_POINT('',(-18.0000002980232,-29.,-15.0000002235174));
#1471=CARTESIAN_POINT('Origin',(-19.0000002980232,-29.,-26.0000004172325));
#1472=CARTESIAN_POINT('Origin',(10.0000003352761,-29.,-33.0000004470348));
#1473=CARTESIAN_POINT('',(10.0000003352761,-29.,-32.0000004470348));
#1474=CARTESIAN_POINT('Origin',(-22.5000001490116,-29.,-26.0000004172325));
#1475=CARTESIAN_POINT('',(-22.5000001490116,-29.,-27.0000004172325));
#1476=CARTESIAN_POINT('Origin',(-20.0000002980232,0.,-27.0000004172325));
#1477=CARTESIAN_POINT('',(-18.0000002980232,36.,-27.0000004172325));
#1478=CARTESIAN_POINT('',(-18.0000002980232,0.,-27.0000004172325));
#1479=CARTESIAN_POINT('',(43.0000006705523,36.,-27.0000004172325));
#1480=CARTESIAN_POINT('',(-3.75000014901161,36.,-27.0000004172325));
#1481=CARTESIAN_POINT('',(43.0000006705523,0.,-27.0000004172325));
#1482=CARTESIAN_POINT('Origin',(-18.0000002980232,0.,-30.0000004470348));
#1483=CARTESIAN_POINT('',(-18.0000002980232,36.,-32.0000004470348));
#1484=CARTESIAN_POINT('',(-18.0000002980232,0.,-32.0000004470348));
#1485=CARTESIAN_POINT('',(-18.0000002980232,36.,-18.7500002235174));
#1486=CARTESIAN_POINT('Origin',(48.,-27.,0.));
#1487=CARTESIAN_POINT('Origin',(12.5,37.,-7.5));
#1488=CARTESIAN_POINT('',(46.,37.,-26.));
#1489=CARTESIAN_POINT('',(44.0000006705522,37.,-26.0000004172325));
#1490=CARTESIAN_POINT('',(-3.75,37.,-26.));
#1491=CARTESIAN_POINT('',(46.,37.,-4.00000007450581));
#1492=CARTESIAN_POINT('',(46.,37.,-3.75));
#1493=CARTESIAN_POINT('',(-21.,37.,-4.00000007450581));
#1494=CARTESIAN_POINT('',(28.7500003352761,37.,-4.00000007450581));
#1495=CARTESIAN_POINT('',(-21.,37.,-26.));
#1496=CARTESIAN_POINT('',(-21.,37.,11.25));
#1497=CARTESIAN_POINT('',(-19.0000002980232,37.,-26.0000004172325));
#1498=CARTESIAN_POINT('',(-3.75,37.,-26.));
#1499=CARTESIAN_POINT('',(-19.0000002980232,37.,-33.0000004470348));
#1500=CARTESIAN_POINT('',(-19.0000002980232,37.,-18.7500002235174));
#1501=CARTESIAN_POINT('',(44.0000006705522,37.,-33.0000004470348));
#1502=CARTESIAN_POINT('',(28.7500003352761,37.,-33.0000004470348));
#1503=CARTESIAN_POINT('',(44.0000006705522,37.,-17.7500002086163));
#1504=CARTESIAN_POINT('Origin',(46.,36.,-3.75));
#1505=CARTESIAN_POINT('',(45.0000006705523,36.,-25.000000372529));
#1506=CARTESIAN_POINT('Origin',(46.,36.,-26.));
#1507=CARTESIAN_POINT('',(45.,36.,-3.75));
#1508=CARTESIAN_POINT('Origin',(46.,36.,-4.00000007450581));
#1509=CARTESIAN_POINT('Origin',(-3.75,36.,-26.));
#1510=CARTESIAN_POINT('',(-3.75000014901161,37.,-26.0000004172325));
#1511=CARTESIAN_POINT('Origin',(-21.,36.,-26.));
#1512=CARTESIAN_POINT('',(-3.75,36.,-25.));
#1513=CARTESIAN_POINT('Origin',(-21.,36.,11.25));
#1514=CARTESIAN_POINT('Origin',(-21.,36.,-4.00000007450581));
#1515=CARTESIAN_POINT('Origin',(28.7500003352761,36.,-4.00000007450581));
#1516=CARTESIAN_POINT('Origin',(45.,30.,0.));
#1517=CARTESIAN_POINT('',(45.0000006705523,0.,-25.000000372529));
#1518=CARTESIAN_POINT('Origin',(44.0000006705522,36.,-17.7500002086163));
#1519=CARTESIAN_POINT('',(43.0000006705523,36.,-32.0000004470348));
#1520=CARTESIAN_POINT('Origin',(44.0000006705522,36.,-33.0000004470348));
#1521=CARTESIAN_POINT('',(43.0000006705523,36.,-17.7500002086163));
#1522=CARTESIAN_POINT('Origin',(44.0000006705522,36.,-26.0000004172325));
#1523=CARTESIAN_POINT('Origin',(-19.0000002980232,36.,-18.7500002235174));
#1524=CARTESIAN_POINT('Origin',(-19.0000002980232,36.,-26.0000004172325));
#1525=CARTESIAN_POINT('Origin',(-19.0000002980232,36.,-33.0000004470348));
#1526=CARTESIAN_POINT('Origin',(-3.75000014901161,36.,-26.0000004172325));
#1527=CARTESIAN_POINT('Origin',(28.7500003352761,36.,-33.0000004470348));
#1528=CARTESIAN_POINT('',(28.7500003352761,36.,-32.0000004470348));
#1529=CARTESIAN_POINT('Origin',(45.0000006705523,0.,-32.0000004470348));
#1530=CARTESIAN_POINT('',(43.0000006705523,0.,-32.0000004470348));
#1531=CARTESIAN_POINT('Origin',(43.0000006705523,0.,-28.0000004172325));
#1532=CARTESIAN_POINT('Origin',(-20.,30.,-25.));
#1533=UNCERTAINTY_MEASURE_WITH_UNIT(LENGTH_MEASURE(0.01),#1537,
'DISTANCE_ACCURACY_VALUE',
'Maximum model space distance between geometric entities at asserted c
onnectivities');
#1534=UNCERTAINTY_MEASURE_WITH_UNIT(LENGTH_MEASURE(0.01),#1537,
'DISTANCE_ACCURACY_VALUE',
'Maximum model space distance between geometric entities at asserted c
onnectivities');
#1535=(
GEOMETRIC_REPRESENTATION_CONTEXT(3)
GLOBAL_UNCERTAINTY_ASSIGNED_CONTEXT((#1533))
GLOBAL_UNIT_ASSIGNED_CONTEXT((#1537,#1539,#1540))
REPRESENTATION_CONTEXT('','3D')
);
#1536=(
GEOMETRIC_REPRESENTATION_CONTEXT(3)
GLOBAL_UNCERTAINTY_ASSIGNED_CONTEXT((#1534))
GLOBAL_UNIT_ASSIGNED_CONTEXT((#1537,#1539,#1540))
REPRESENTATION_CONTEXT('','3D')
);
#1537=(
LENGTH_UNIT()
NAMED_UNIT(*)
SI_UNIT(.MILLI.,.METRE.)
);
#1538=(
LENGTH_UNIT()
NAMED_UNIT(*)
SI_UNIT($,.METRE.)
);
#1539=(
NAMED_UNIT(*)
PLANE_ANGLE_UNIT()
SI_UNIT($,.RADIAN.)
);
#1540=(
NAMED_UNIT(*)
SI_UNIT($,.STERADIAN.)
SOLID_ANGLE_UNIT()
);
#1541=SHAPE_DEFINITION_REPRESENTATION(#1542,#1543);
#1542=PRODUCT_DEFINITION_SHAPE('',$,#1545);
#1543=SHAPE_REPRESENTATION('',(#778),#1535);
#1544=PRODUCT_DEFINITION_CONTEXT('part definition',#1549,'design');
#1545=PRODUCT_DEFINITION('(Unsaved)','(Unsaved)',#1546,#1544);
#1546=PRODUCT_DEFINITION_FORMATION('',$,#1551);
#1547=PRODUCT_RELATED_PRODUCT_CATEGORY('(Unsaved)','(Unsaved)',(#1551));
#1548=APPLICATION_PROTOCOL_DEFINITION('international standard',
'automotive_design',2009,#1549);
#1549=APPLICATION_CONTEXT(
'Core Data for Automotive Mechanical Design Process');
#1550=PRODUCT_CONTEXT('part definition',#1549,'mechanical');
#1551=PRODUCT('(Unsaved)','(Unsaved)',$,(#1550));
#1552=PRESENTATION_STYLE_ASSIGNMENT((#1553));
#1553=SURFACE_STYLE_USAGE(.BOTH.,#1554);
#1554=SURFACE_SIDE_STYLE('',(#1555));
#1555=SURFACE_STYLE_FILL_AREA(#1556);
#1556=FILL_AREA_STYLE('Steel - Satin',(#1557));
#1557=FILL_AREA_STYLE_COLOUR('Steel - Satin',#1558);
#1558=COLOUR_RGB('Steel - Satin',0.627450980392157,0.627450980392157,0.627450980392157);
ENDSEC;
END-ISO-10303-21;
