ISO-10303-21;
HEADER;
/* Generated by software containing ST-Developer
 * from STEP Tools, Inc. (www.steptools.com) 
 */

FILE_DESCRIPTION(
/* description */ (''),
/* implementation_level */ '2;1');

FILE_NAME(
/* name */ 'book_mark.step',
/* time_stamp */ '2026-07-02T14:42:30+05:30',
/* author */ (''),
/* organization */ (''),
/* preprocessor_version */ 'ST-DEVELOPER v20.1',
/* originating_system */ 'Autodesk Translation Framework v15.8.0.0',
/* authorisation */ '');

FILE_SCHEMA (('AUTOMOTIVE_DESIGN { 1 0 10303 214 3 1 1 }'));
ENDSEC;

DATA;
#10=MECHANICAL_DESIGN_GEOMETRIC_PRESENTATION_REPRESENTATION('',(#13),#303);
#11=SHAPE_REPRESENTATION_RELATIONSHIP('SRR','None',#310,#12);
#12=ADVANCED_BREP_SHAPE_REPRESENTATION('',(#14),#302);
#13=STYLED_ITEM('',(#319),#14);
#14=MANIFOLD_SOLID_BREP('Body1',#174);
#15=FACE_BOUND('',#40,.T.);
#16=FACE_BOUND('',#42,.T.);
#17=FACE_BOUND('',#44,.T.);
#18=FACE_BOUND('',#47,.T.);
#19=PLANE('',#200);
#20=PLANE('',#201);
#21=PLANE('',#202);
#22=PLANE('',#203);
#23=PLANE('',#204);
#24=FACE_OUTER_BOUND('',#34,.T.);
#25=FACE_OUTER_BOUND('',#35,.T.);
#26=FACE_OUTER_BOUND('',#36,.T.);
#27=FACE_OUTER_BOUND('',#37,.T.);
#28=FACE_OUTER_BOUND('',#38,.T.);
#29=FACE_OUTER_BOUND('',#39,.T.);
#30=FACE_OUTER_BOUND('',#41,.T.);
#31=FACE_OUTER_BOUND('',#43,.T.);
#32=FACE_OUTER_BOUND('',#45,.T.);
#33=FACE_OUTER_BOUND('',#46,.T.);
#34=EDGE_LOOP('',(#117,#118,#119,#120));
#35=EDGE_LOOP('',(#121,#122,#123,#124));
#36=EDGE_LOOP('',(#125,#126,#127,#128));
#37=EDGE_LOOP('',(#129,#130,#131,#132));
#38=EDGE_LOOP('',(#133,#134,#135,#136));
#39=EDGE_LOOP('',(#137,#138,#139,#140));
#40=EDGE_LOOP('',(#141));
#41=EDGE_LOOP('',(#142,#143,#144,#145));
#42=EDGE_LOOP('',(#146));
#43=EDGE_LOOP('',(#147,#148,#149));
#44=EDGE_LOOP('',(#150));
#45=EDGE_LOOP('',(#151,#152,#153,#154));
#46=EDGE_LOOP('',(#155,#156,#157));
#47=EDGE_LOOP('',(#158));
#48=ELLIPSE('',#190,18.75,15.);
#49=ELLIPSE('',#195,8.55124346388952,5.);
#50=ELLIPSE('',#196,15.8113883008419,5.);
#51=ELLIPSE('',#198,8.55124346388952,5.);
#52=LINE('',#260,#66);
#53=LINE('',#266,#67);
#54=LINE('',#271,#68);
#55=LINE('',#275,#69);
#56=LINE('',#279,#70);
#57=LINE('',#282,#71);
#58=LINE('',#284,#72);
#59=LINE('',#285,#73);
#60=LINE('',#288,#74);
#61=LINE('',#290,#75);
#62=LINE('',#291,#76);
#63=LINE('',#294,#77);
#64=LINE('',#295,#78);
#65=LINE('',#298,#79);
#66=VECTOR('',#211,15.);
#67=VECTOR('',#218,15.);
#68=VECTOR('',#223,10.);
#69=VECTOR('',#226,10.);
#70=VECTOR('',#231,10.);
#71=VECTOR('',#234,10.);
#72=VECTOR('',#237,10.);
#73=VECTOR('',#238,10.);
#74=VECTOR('',#241,10.);
#75=VECTOR('',#242,10.);
#76=VECTOR('',#243,10.);
#77=VECTOR('',#246,10.);
#78=VECTOR('',#247,10.);
#79=VECTOR('',#252,10.);
#80=CIRCLE('',#189,15.);
#81=CIRCLE('',#192,15.);
#82=CIRCLE('',#193,15.);
#83=VERTEX_POINT('',#257);
#84=VERTEX_POINT('',#259);
#85=VERTEX_POINT('',#263);
#86=VERTEX_POINT('',#265);
#87=VERTEX_POINT('',#269);
#88=VERTEX_POINT('',#270);
#89=VERTEX_POINT('',#272);
#90=VERTEX_POINT('',#274);
#91=VERTEX_POINT('',#278);
#92=VERTEX_POINT('',#280);
#93=VERTEX_POINT('',#287);
#94=VERTEX_POINT('',#289);
#95=VERTEX_POINT('',#293);
#96=EDGE_CURVE('',#83,#83,#80,.T.);
#97=EDGE_CURVE('',#83,#84,#52,.T.);
#98=EDGE_CURVE('',#84,#84,#48,.T.);
#99=EDGE_CURVE('',#85,#85,#81,.T.);
#100=EDGE_CURVE('',#85,#86,#53,.T.);
#101=EDGE_CURVE('',#86,#86,#82,.T.);
#102=EDGE_CURVE('',#87,#88,#54,.T.);
#103=EDGE_CURVE('',#88,#89,#49,.T.);
#104=EDGE_CURVE('',#89,#90,#55,.T.);
#105=EDGE_CURVE('',#87,#90,#50,.T.);
#106=EDGE_CURVE('',#88,#91,#56,.T.);
#107=EDGE_CURVE('',#91,#92,#51,.T.);
#108=EDGE_CURVE('',#92,#89,#57,.T.);
#109=EDGE_CURVE('',#90,#92,#58,.T.);
#110=EDGE_CURVE('',#91,#87,#59,.T.);
#111=EDGE_CURVE('',#90,#93,#60,.T.);
#112=EDGE_CURVE('',#94,#93,#61,.T.);
#113=EDGE_CURVE('',#94,#92,#62,.T.);
#114=EDGE_CURVE('',#89,#95,#63,.T.);
#115=EDGE_CURVE('',#93,#95,#64,.T.);
#116=EDGE_CURVE('',#95,#94,#65,.T.);
#117=ORIENTED_EDGE('',*,*,#96,.F.);
#118=ORIENTED_EDGE('',*,*,#97,.T.);
#119=ORIENTED_EDGE('',*,*,#98,.F.);
#120=ORIENTED_EDGE('',*,*,#97,.F.);
#121=ORIENTED_EDGE('',*,*,#99,.F.);
#122=ORIENTED_EDGE('',*,*,#100,.T.);
#123=ORIENTED_EDGE('',*,*,#101,.F.);
#124=ORIENTED_EDGE('',*,*,#100,.F.);
#125=ORIENTED_EDGE('',*,*,#102,.T.);
#126=ORIENTED_EDGE('',*,*,#103,.T.);
#127=ORIENTED_EDGE('',*,*,#104,.T.);
#128=ORIENTED_EDGE('',*,*,#105,.F.);
#129=ORIENTED_EDGE('',*,*,#106,.T.);
#130=ORIENTED_EDGE('',*,*,#107,.T.);
#131=ORIENTED_EDGE('',*,*,#108,.T.);
#132=ORIENTED_EDGE('',*,*,#103,.F.);
#133=ORIENTED_EDGE('',*,*,#109,.T.);
#134=ORIENTED_EDGE('',*,*,#107,.F.);
#135=ORIENTED_EDGE('',*,*,#110,.T.);
#136=ORIENTED_EDGE('',*,*,#105,.T.);
#137=ORIENTED_EDGE('',*,*,#109,.F.);
#138=ORIENTED_EDGE('',*,*,#111,.T.);
#139=ORIENTED_EDGE('',*,*,#112,.F.);
#140=ORIENTED_EDGE('',*,*,#113,.T.);
#141=ORIENTED_EDGE('',*,*,#98,.T.);
#142=ORIENTED_EDGE('',*,*,#104,.F.);
#143=ORIENTED_EDGE('',*,*,#114,.T.);
#144=ORIENTED_EDGE('',*,*,#115,.F.);
#145=ORIENTED_EDGE('',*,*,#111,.F.);
#146=ORIENTED_EDGE('',*,*,#96,.T.);
#147=ORIENTED_EDGE('',*,*,#102,.F.);
#148=ORIENTED_EDGE('',*,*,#110,.F.);
#149=ORIENTED_EDGE('',*,*,#106,.F.);
#150=ORIENTED_EDGE('',*,*,#99,.T.);
#151=ORIENTED_EDGE('',*,*,#108,.F.);
#152=ORIENTED_EDGE('',*,*,#113,.F.);
#153=ORIENTED_EDGE('',*,*,#116,.F.);
#154=ORIENTED_EDGE('',*,*,#114,.F.);
#155=ORIENTED_EDGE('',*,*,#116,.T.);
#156=ORIENTED_EDGE('',*,*,#112,.T.);
#157=ORIENTED_EDGE('',*,*,#115,.T.);
#158=ORIENTED_EDGE('',*,*,#101,.T.);
#159=CYLINDRICAL_SURFACE('',#188,15.);
#160=CYLINDRICAL_SURFACE('',#191,15.);
#161=CYLINDRICAL_SURFACE('',#194,5.);
#162=CYLINDRICAL_SURFACE('',#197,5.);
#163=CYLINDRICAL_SURFACE('',#199,5.);
#164=ADVANCED_FACE('',(#24),#159,.F.);
#165=ADVANCED_FACE('',(#25),#160,.F.);
#166=ADVANCED_FACE('',(#26),#161,.T.);
#167=ADVANCED_FACE('',(#27),#162,.T.);
#168=ADVANCED_FACE('',(#28),#163,.T.);
#169=ADVANCED_FACE('',(#29,#15),#19,.T.);
#170=ADVANCED_FACE('',(#30,#16),#20,.T.);
#171=ADVANCED_FACE('',(#31,#17),#21,.T.);
#172=ADVANCED_FACE('',(#32),#22,.F.);
#173=ADVANCED_FACE('',(#33,#18),#23,.T.);
#174=CLOSED_SHELL('',(#164,#165,#166,#167,#168,#169,#170,#171,#172,#173));
#175=DERIVED_UNIT_ELEMENT(#177,1.);
#176=DERIVED_UNIT_ELEMENT(#305,-3.);
#177=(
MASS_UNIT()
NAMED_UNIT(*)
SI_UNIT(.KILO.,.GRAM.)
);
#178=DERIVED_UNIT((#175,#176));
#179=MEASURE_REPRESENTATION_ITEM('density measure',
POSITIVE_RATIO_MEASURE(7850.),#178);
#180=PROPERTY_DEFINITION_REPRESENTATION(#185,#182);
#181=PROPERTY_DEFINITION_REPRESENTATION(#186,#183);
#182=REPRESENTATION('material name',(#184),#302);
#183=REPRESENTATION('density',(#179),#302);
#184=DESCRIPTIVE_REPRESENTATION_ITEM('Steel','Steel');
#185=PROPERTY_DEFINITION('material property','material name',#312);
#186=PROPERTY_DEFINITION('material property','density of part',#312);
#187=AXIS2_PLACEMENT_3D('',#255,#205,#206);
#188=AXIS2_PLACEMENT_3D('',#256,#207,#208);
#189=AXIS2_PLACEMENT_3D('',#258,#209,#210);
#190=AXIS2_PLACEMENT_3D('',#261,#212,#213);
#191=AXIS2_PLACEMENT_3D('',#262,#214,#215);
#192=AXIS2_PLACEMENT_3D('',#264,#216,#217);
#193=AXIS2_PLACEMENT_3D('',#267,#219,#220);
#194=AXIS2_PLACEMENT_3D('',#268,#221,#222);
#195=AXIS2_PLACEMENT_3D('',#273,#224,#225);
#196=AXIS2_PLACEMENT_3D('',#276,#227,#228);
#197=AXIS2_PLACEMENT_3D('',#277,#229,#230);
#198=AXIS2_PLACEMENT_3D('',#281,#232,#233);
#199=AXIS2_PLACEMENT_3D('',#283,#235,#236);
#200=AXIS2_PLACEMENT_3D('',#286,#239,#240);
#201=AXIS2_PLACEMENT_3D('',#292,#244,#245);
#202=AXIS2_PLACEMENT_3D('',#296,#248,#249);
#203=AXIS2_PLACEMENT_3D('',#297,#250,#251);
#204=AXIS2_PLACEMENT_3D('',#299,#253,#254);
#205=DIRECTION('axis',(0.,0.,1.));
#206=DIRECTION('refdir',(1.,0.,0.));
#207=DIRECTION('center_axis',(-0.948683298050514,0.,-0.316227766016838));
#208=DIRECTION('ref_axis',(0.,1.,0.));
#209=DIRECTION('center_axis',(-0.948683298050514,0.,-0.316227766016838));
#210=DIRECTION('ref_axis',(0.,1.,0.));
#211=DIRECTION('',(-0.948683298050514,0.,-0.316227766016838));
#212=DIRECTION('center_axis',(0.948683298050514,0.,-0.316227766016838));
#213=DIRECTION('ref_axis',(-0.316227766016838,0.,-0.948683298050514));
#214=DIRECTION('center_axis',(0.,1.,0.));
#215=DIRECTION('ref_axis',(0.,0.,-1.));
#216=DIRECTION('center_axis',(0.,1.,0.));
#217=DIRECTION('ref_axis',(0.,0.,-1.));
#218=DIRECTION('',(0.,1.,0.));
#219=DIRECTION('center_axis',(0.,-1.,0.));
#220=DIRECTION('ref_axis',(0.,0.,-1.));
#221=DIRECTION('center_axis',(-0.316227766016838,0.,0.948683298050514));
#222=DIRECTION('ref_axis',(0.670820393249937,-0.707106781186547,0.223606797749979));
#223=DIRECTION('',(0.316227766016838,0.,-0.948683298050514));
#224=DIRECTION('center_axis',(0.584710284663765,0.,0.811242185175561));
#225=DIRECTION('ref_axis',(0.811242185175561,0.,-0.584710284663765));
#226=DIRECTION('',(-0.316227766016838,0.,0.948683298050514));
#227=DIRECTION('center_axis',(-1.,3.88578058618805E-16,-1.22879171400185E-16));
#228=DIRECTION('ref_axis',(-1.22879171400184E-16,1.29526019539602E-16,1.));
#229=DIRECTION('center_axis',(1.,0.,0.));
#230=DIRECTION('ref_axis',(0.,-0.707106781186547,-0.707106781186547));
#231=DIRECTION('',(-1.,0.,0.));
#232=DIRECTION('center_axis',(0.584710284663765,0.,-0.811242185175561));
#233=DIRECTION('ref_axis',(-0.811242185175561,0.,-0.584710284663765));
#234=DIRECTION('',(1.,0.,0.));
#235=DIRECTION('center_axis',(-0.316227766016838,0.,-0.948683298050514));
#236=DIRECTION('ref_axis',(-0.670820393249937,-0.707106781186548,0.223606797749978));
#237=DIRECTION('',(-0.316227766016838,0.,-0.948683298050514));
#238=DIRECTION('',(0.316227766016838,0.,0.948683298050514));
#239=DIRECTION('center_axis',(-0.948683298050514,0.,0.316227766016838));
#240=DIRECTION('ref_axis',(-0.316227766016838,0.,-0.948683298050514));
#241=DIRECTION('',(0.,1.,0.));
#242=DIRECTION('',(0.316227766016838,0.,0.948683298050514));
#243=DIRECTION('',(0.,-1.,0.));
#244=DIRECTION('center_axis',(0.948683298050514,0.,0.316227766016838));
#245=DIRECTION('ref_axis',(-0.316227766016838,0.,0.948683298050514));
#246=DIRECTION('',(0.,1.,0.));
#247=DIRECTION('',(0.316227766016838,0.,-0.948683298050514));
#248=DIRECTION('center_axis',(0.,-1.,0.));
#249=DIRECTION('ref_axis',(0.,0.,-1.));
#250=DIRECTION('center_axis',(0.,0.,1.));
#251=DIRECTION('ref_axis',(1.,0.,0.));
#252=DIRECTION('',(-1.,0.,0.));
#253=DIRECTION('center_axis',(0.,1.,0.));
#254=DIRECTION('ref_axis',(-1.,0.,0.));
#255=CARTESIAN_POINT('',(0.,0.,0.));
#256=CARTESIAN_POINT('Origin',(-8.06813907737629,-6.65581401472053,35.9588640287612));
#257=CARTESIAN_POINT('',(10.905526883634,-21.6558140147205,42.283419349098));
#258=CARTESIAN_POINT('Origin',(10.905526883634,-6.65581401472053,42.283419349098));
#259=CARTESIAN_POINT('',(-13.6319086045425,-21.6558140147205,34.1042741863724));
#260=CARTESIAN_POINT('',(-8.0681390773763,-21.6558140147205,35.9588640287612));
#261=CARTESIAN_POINT('Origin',(-13.6319086045425,-6.65581401472053,34.1042741863724));
#262=CARTESIAN_POINT('Origin',(0.192210622361308,5.,-0.65445950353566));
#263=CARTESIAN_POINT('',(0.19221062236131,-45.,14.3455404964643));
#264=CARTESIAN_POINT('Origin',(0.192210622361308,-45.,-0.65445950353566));
#265=CARTESIAN_POINT('',(0.192210622361307,25.,14.3455404964643));
#266=CARTESIAN_POINT('',(0.19221062236131,5.,14.3455404964643));
#267=CARTESIAN_POINT('Origin',(0.192210622361308,25.,-0.65445950353566));
#268=CARTESIAN_POINT('Origin',(13.3815835097474,-40.,19.0438611699158));
#269=CARTESIAN_POINT('',(-6.66133814775094E-15,-45.,59.1886116991581));
#270=CARTESIAN_POINT('',(26.3962038997194,-45.,-20.));
#271=CARTESIAN_POINT('',(13.3815835097474,-45.,19.0438611699158));
#272=CARTESIAN_POINT('',(33.3333333333333,-40.,-25.));
#273=CARTESIAN_POINT('Origin',(26.3962038997194,-40.,-20.));
#274=CARTESIAN_POINT('',(-4.44089209850063E-15,-40.,75.));
#275=CARTESIAN_POINT('',(18.125,-40.,20.625));
#276=CARTESIAN_POINT('Origin',(-2.4980018054066E-15,-40.,59.1886116991581));
#277=CARTESIAN_POINT('Origin',(0.,-40.,-20.));
#278=CARTESIAN_POINT('',(-26.3962038997194,-45.,-20.));
#279=CARTESIAN_POINT('',(0.,-45.,-20.));
#280=CARTESIAN_POINT('',(-33.3333333333333,-40.,-25.));
#281=CARTESIAN_POINT('Origin',(-26.3962038997194,-40.,-20.));
#282=CARTESIAN_POINT('',(0.,-40.,-25.));
#283=CARTESIAN_POINT('Origin',(-0.881583509747432,-40.,56.5438611699158));
#284=CARTESIAN_POINT('',(-5.625,-40.,58.125));
#285=CARTESIAN_POINT('',(-0.881583509747432,-45.,56.5438611699158));
#286=CARTESIAN_POINT('Origin',(0.,-25.,75.));
#287=CARTESIAN_POINT('',(0.,25.,75.));
#288=CARTESIAN_POINT('',(-4.44089209850063E-15,-12.5,75.));
#289=CARTESIAN_POINT('',(-33.3333333333333,25.,-25.));
#290=CARTESIAN_POINT('',(-10.,25.,45.));
#291=CARTESIAN_POINT('',(-33.3333333333333,-12.5,-25.));
#292=CARTESIAN_POINT('Origin',(25.,-25.,0.));
#293=CARTESIAN_POINT('',(33.3333333333333,25.,-25.));
#294=CARTESIAN_POINT('',(33.3333333333333,-12.5,-25.));
#295=CARTESIAN_POINT('',(25.,25.,-6.10622663543836E-16));
#296=CARTESIAN_POINT('Origin',(0.,-45.,37.5));
#297=CARTESIAN_POINT('Origin',(0.,0.,-25.));
#298=CARTESIAN_POINT('',(12.5,25.,-25.));
#299=CARTESIAN_POINT('Origin',(25.,25.,0.));
#300=UNCERTAINTY_MEASURE_WITH_UNIT(LENGTH_MEASURE(0.01),#304,
'DISTANCE_ACCURACY_VALUE',
'Maximum model space distance between geometric entities at asserted c
onnectivities');
#301=UNCERTAINTY_MEASURE_WITH_UNIT(LENGTH_MEASURE(0.01),#304,
'DISTANCE_ACCURACY_VALUE',
'Maximum model space distance between geometric entities at asserted c
onnectivities');
#302=(
GEOMETRIC_REPRESENTATION_CONTEXT(3)
GLOBAL_UNCERTAINTY_ASSIGNED_CONTEXT((#300))
GLOBAL_UNIT_ASSIGNED_CONTEXT((#304,#306,#307))
REPRESENTATION_CONTEXT('','3D')
);
#303=(
GEOMETRIC_REPRESENTATION_CONTEXT(3)
GLOBAL_UNCERTAINTY_ASSIGNED_CONTEXT((#301))
GLOBAL_UNIT_ASSIGNED_CONTEXT((#304,#306,#307))
REPRESENTATION_CONTEXT('','3D')
);
#304=(
LENGTH_UNIT()
NAMED_UNIT(*)
SI_UNIT(.MILLI.,.METRE.)
);
#305=(
LENGTH_UNIT()
NAMED_UNIT(*)
SI_UNIT($,.METRE.)
);
#306=(
NAMED_UNIT(*)
PLANE_ANGLE_UNIT()
SI_UNIT($,.RADIAN.)
);
#307=(
NAMED_UNIT(*)
SI_UNIT($,.STERADIAN.)
SOLID_ANGLE_UNIT()
);
#308=SHAPE_DEFINITION_REPRESENTATION(#309,#310);
#309=PRODUCT_DEFINITION_SHAPE('',$,#312);
#310=SHAPE_REPRESENTATION('',(#187),#302);
#311=PRODUCT_DEFINITION_CONTEXT('part definition',#316,'design');
#312=PRODUCT_DEFINITION('(Unsaved)','(Unsaved)',#313,#311);
#313=PRODUCT_DEFINITION_FORMATION('',$,#318);
#314=PRODUCT_RELATED_PRODUCT_CATEGORY('(Unsaved)','(Unsaved)',(#318));
#315=APPLICATION_PROTOCOL_DEFINITION('international standard',
'automotive_design',2009,#316);
#316=APPLICATION_CONTEXT(
'Core Data for Automotive Mechanical Design Process');
#317=PRODUCT_CONTEXT('part definition',#316,'mechanical');
#318=PRODUCT('(Unsaved)','(Unsaved)',$,(#317));
#319=PRESENTATION_STYLE_ASSIGNMENT((#320));
#320=SURFACE_STYLE_USAGE(.BOTH.,#321);
#321=SURFACE_SIDE_STYLE('',(#322));
#322=SURFACE_STYLE_FILL_AREA(#323);
#323=FILL_AREA_STYLE('Steel - Satin',(#324));
#324=FILL_AREA_STYLE_COLOUR('Steel - Satin',#325);
#325=COLOUR_RGB('Steel - Satin',0.627450980392157,0.627450980392157,0.627450980392157);
ENDSEC;
END-ISO-10303-21;
