ISO-10303-21;
HEADER;
/* Generated by software containing ST-Developer
 * from STEP Tools, Inc. (www.steptools.com) 
 */

FILE_DESCRIPTION(
/* description */ (''),
/* implementation_level */ '2;1');

FILE_NAME(
/* name */ 'bottom_motor_mag.step',
/* time_stamp */ '2026-07-02T14:42:20+05:30',
/* author */ (''),
/* organization */ (''),
/* preprocessor_version */ 'ST-DEVELOPER v20.1',
/* originating_system */ 'Autodesk Translation Framework v15.8.0.0',
/* authorisation */ '');

FILE_SCHEMA (('AUTOMOTIVE_DESIGN { 1 0 10303 214 3 1 1 }'));
ENDSEC;

DATA;
#10=MECHANICAL_DESIGN_GEOMETRIC_PRESENTATION_REPRESENTATION('',(#13),#639);
#11=SHAPE_REPRESENTATION_RELATIONSHIP('SRR','None',#646,#12);
#12=ADVANCED_BREP_SHAPE_REPRESENTATION('',(#14),#638);
#13=STYLED_ITEM('',(#655),#14);
#14=MANIFOLD_SOLID_BREP('Body1',#334);
#15=TOROIDAL_SURFACE('',#363,28.,1.);
#16=TOROIDAL_SURFACE('',#368,14.,1.);
#17=TOROIDAL_SURFACE('',#376,9.,1.);
#18=FACE_BOUND('',#72,.T.);
#19=FACE_BOUND('',#76,.T.);
#20=FACE_BOUND('',#79,.T.);
#21=FACE_BOUND('',#83,.T.);
#22=FACE_BOUND('',#89,.T.);
#23=FACE_BOUND('',#94,.T.);
#24=FACE_BOUND('',#96,.T.);
#25=FACE_BOUND('',#97,.T.);
#26=FACE_BOUND('',#98,.T.);
#27=PLANE('',#354);
#28=PLANE('',#362);
#29=PLANE('',#366);
#30=PLANE('',#374);
#31=PLANE('',#382);
#32=PLANE('',#386);
#33=PLANE('',#390);
#34=PLANE('',#394);
#35=PLANE('',#395);
#36=(
BOUNDED_CURVE()
B_SPLINE_CURVE(2,(#530,#531,#532),.UNSPECIFIED.,.F.,.F.)
B_SPLINE_CURVE_WITH_KNOTS((3,3),(0.0169587215148494,2.45818069817547),
 .UNSPECIFIED.)
CURVE()
GEOMETRIC_REPRESENTATION_ITEM()
RATIONAL_B_SPLINE_CURVE((1.02721876307074,2.97278496420311,1.02721130850876))
REPRESENTATION_ITEM('')
);
#37=(
BOUNDED_CURVE()
B_SPLINE_CURVE(2,(#540,#541,#542),.UNSPECIFIED.,.F.,.F.)
B_SPLINE_CURVE_WITH_KNOTS((3,3),(-2.45818069817547,-0.0169587215148494),
 .UNSPECIFIED.)
CURVE()
GEOMETRIC_REPRESENTATION_ITEM()
RATIONAL_B_SPLINE_CURVE((1.02721130850876,2.97278496420311,1.02721876307074))
REPRESENTATION_ITEM('')
);
#38=(
BOUNDED_CURVE()
B_SPLINE_CURVE(2,(#576,#577,#578),.UNSPECIFIED.,.F.,.F.)
B_SPLINE_CURVE_WITH_KNOTS((3,3),(0.0169839999701159,2.44523048716877),
 .UNSPECIFIED.)
CURVE()
GEOMETRIC_REPRESENTATION_ITEM()
RATIONAL_B_SPLINE_CURVE((1.02740110072301,2.97259889927699,1.02740110072301))
REPRESENTATION_ITEM('')
);
#39=(
BOUNDED_CURVE()
B_SPLINE_CURVE(2,(#579,#580,#581),.UNSPECIFIED.,.F.,.F.)
B_SPLINE_CURVE_WITH_KNOTS((3,3),(0.0169839999701159,2.44523048716877),
 .UNSPECIFIED.)
CURVE()
GEOMETRIC_REPRESENTATION_ITEM()
RATIONAL_B_SPLINE_CURVE((1.02740110072301,2.97259889927699,1.02740110072301))
REPRESENTATION_ITEM('')
);
#40=B_SPLINE_CURVE_WITH_KNOTS('',3,(#523,#524,#525,#526,#527,#528),
 .UNSPECIFIED.,.F.,.F.,(4,2,4),(0.,0.25,0.5),.UNSPECIFIED.);
#41=B_SPLINE_CURVE_WITH_KNOTS('',3,(#534,#535,#536,#537,#538,#539),
 .UNSPECIFIED.,.F.,.F.,(4,2,4),(0.,0.25,0.499999999999998),
 .UNSPECIFIED.);
#42=B_SPLINE_CURVE_WITH_KNOTS('',3,(#549,#550,#551,#552,#553,#554),
 .UNSPECIFIED.,.F.,.F.,(4,2,4),(0.,0.25,0.5),.UNSPECIFIED.);
#43=B_SPLINE_CURVE_WITH_KNOTS('',3,(#558,#559,#560,#561,#562,#563),
 .UNSPECIFIED.,.F.,.F.,(4,2,4),(0.,0.25,0.5),.UNSPECIFIED.);
#44=(
BOUNDED_SURFACE()
B_SPLINE_SURFACE(2,1,((#515,#516),(#517,#518),(#519,#520)),
 .UNSPECIFIED.,.F.,.F.,.F.)
B_SPLINE_SURFACE_WITH_KNOTS((3,3),(2,2),(-2.4751347428498,0.),(0.,0.5),
 .UNSPECIFIED.)
GEOMETRIC_REPRESENTATION_ITEM()
RATIONAL_B_SPLINE_SURFACE(((1.,1.),(3.,3.),(1.,1.)))
REPRESENTATION_ITEM('')
SURFACE()
);
#45=(
BOUNDED_SURFACE()
B_SPLINE_SURFACE(2,1,((#570,#571),(#572,#573),(#574,#575)),
 .UNSPECIFIED.,.F.,.F.,.F.)
B_SPLINE_SURFACE_WITH_KNOTS((3,3),(2,2),(0.,2.46221448713888),(0.,0.5),
 .UNSPECIFIED.)
GEOMETRIC_REPRESENTATION_ITEM()
RATIONAL_B_SPLINE_SURFACE(((1.,1.),(3.,3.),(1.,1.)))
REPRESENTATION_ITEM('')
SURFACE()
);
#46=FACE_OUTER_BOUND('',#68,.T.);
#47=FACE_OUTER_BOUND('',#69,.T.);
#48=FACE_OUTER_BOUND('',#70,.T.);
#49=FACE_OUTER_BOUND('',#71,.T.);
#50=FACE_OUTER_BOUND('',#73,.T.);
#51=FACE_OUTER_BOUND('',#74,.T.);
#52=FACE_OUTER_BOUND('',#75,.T.);
#53=FACE_OUTER_BOUND('',#77,.T.);
#54=FACE_OUTER_BOUND('',#78,.T.);
#55=FACE_OUTER_BOUND('',#80,.T.);
#56=FACE_OUTER_BOUND('',#81,.T.);
#57=FACE_OUTER_BOUND('',#82,.T.);
#58=FACE_OUTER_BOUND('',#84,.T.);
#59=FACE_OUTER_BOUND('',#85,.T.);
#60=FACE_OUTER_BOUND('',#86,.T.);
#61=FACE_OUTER_BOUND('',#87,.T.);
#62=FACE_OUTER_BOUND('',#88,.T.);
#63=FACE_OUTER_BOUND('',#90,.T.);
#64=FACE_OUTER_BOUND('',#91,.T.);
#65=FACE_OUTER_BOUND('',#92,.T.);
#66=FACE_OUTER_BOUND('',#93,.T.);
#67=FACE_OUTER_BOUND('',#95,.T.);
#68=EDGE_LOOP('',(#216,#217,#218,#219));
#69=EDGE_LOOP('',(#220,#221,#222,#223));
#70=EDGE_LOOP('',(#224,#225,#226,#227));
#71=EDGE_LOOP('',(#228,#229));
#72=EDGE_LOOP('',(#230));
#73=EDGE_LOOP('',(#231,#232,#233,#234,#235,#236,#237,#238,#239,#240,#241,
#242));
#74=EDGE_LOOP('',(#243,#244,#245,#246));
#75=EDGE_LOOP('',(#247,#248));
#76=EDGE_LOOP('',(#249));
#77=EDGE_LOOP('',(#250,#251,#252,#253));
#78=EDGE_LOOP('',(#254));
#79=EDGE_LOOP('',(#255));
#80=EDGE_LOOP('',(#256,#257,#258,#259,#260));
#81=EDGE_LOOP('',(#261,#262,#263,#264,#265));
#82=EDGE_LOOP('',(#266));
#83=EDGE_LOOP('',(#267));
#84=EDGE_LOOP('',(#268,#269,#270,#271,#272));
#85=EDGE_LOOP('',(#273,#274,#275,#276,#277));
#86=EDGE_LOOP('',(#278));
#87=EDGE_LOOP('',(#279,#280,#281,#282));
#88=EDGE_LOOP('',(#283));
#89=EDGE_LOOP('',(#284));
#90=EDGE_LOOP('',(#285,#286,#287,#288));
#91=EDGE_LOOP('',(#289));
#92=EDGE_LOOP('',(#290,#291,#292,#293));
#93=EDGE_LOOP('',(#294));
#94=EDGE_LOOP('',(#295));
#95=EDGE_LOOP('',(#296,#297,#298,#299,#300));
#96=EDGE_LOOP('',(#301));
#97=EDGE_LOOP('',(#302));
#98=EDGE_LOOP('',(#303));
#99=LINE('',#507,#107);
#100=LINE('',#513,#108);
#101=LINE('',#567,#109);
#102=LINE('',#599,#110);
#103=LINE('',#612,#111);
#104=LINE('',#618,#112);
#105=LINE('',#625,#113);
#106=LINE('',#632,#114);
#107=VECTOR('',#402,1.9);
#108=VECTOR('',#409,1.9);
#109=VECTOR('',#424,29.);
#110=VECTOR('',#453,15.);
#111=VECTOR('',#470,10.);
#112=VECTOR('',#477,14.);
#113=VECTOR('',#486,9.);
#114=VECTOR('',#495,27.5);
#115=CIRCLE('',#349,1.9);
#116=CIRCLE('',#350,1.9);
#117=CIRCLE('',#352,1.9);
#118=CIRCLE('',#353,1.9);
#119=CIRCLE('',#355,29.);
#120=CIRCLE('',#357,29.);
#121=CIRCLE('',#358,29.);
#122=CIRCLE('',#359,29.);
#123=CIRCLE('',#360,29.);
#124=CIRCLE('',#361,29.);
#125=CIRCLE('',#364,1.);
#126=CIRCLE('',#365,28.);
#127=CIRCLE('',#367,15.);
#128=CIRCLE('',#369,14.);
#129=CIRCLE('',#370,1.);
#130=CIRCLE('',#371,15.);
#131=CIRCLE('',#372,15.);
#132=CIRCLE('',#375,10.);
#133=CIRCLE('',#377,9.);
#134=CIRCLE('',#378,1.);
#135=CIRCLE('',#379,10.);
#136=CIRCLE('',#380,10.);
#137=CIRCLE('',#384,14.);
#138=CIRCLE('',#385,14.);
#139=CIRCLE('',#387,9.);
#140=CIRCLE('',#389,9.);
#141=CIRCLE('',#392,27.5);
#142=CIRCLE('',#393,27.5);
#143=VERTEX_POINT('',#504);
#144=VERTEX_POINT('',#506);
#145=VERTEX_POINT('',#510);
#146=VERTEX_POINT('',#512);
#147=VERTEX_POINT('',#521);
#148=VERTEX_POINT('',#522);
#149=VERTEX_POINT('',#529);
#150=VERTEX_POINT('',#533);
#151=VERTEX_POINT('',#546);
#152=VERTEX_POINT('',#548);
#153=VERTEX_POINT('',#555);
#154=VERTEX_POINT('',#557);
#155=VERTEX_POINT('',#564);
#156=VERTEX_POINT('',#566);
#157=VERTEX_POINT('',#584);
#158=VERTEX_POINT('',#588);
#159=VERTEX_POINT('',#591);
#160=VERTEX_POINT('',#593);
#161=VERTEX_POINT('',#595);
#162=VERTEX_POINT('',#601);
#163=VERTEX_POINT('',#604);
#164=VERTEX_POINT('',#606);
#165=VERTEX_POINT('',#608);
#166=VERTEX_POINT('',#615);
#167=VERTEX_POINT('',#617);
#168=VERTEX_POINT('',#621);
#169=VERTEX_POINT('',#624);
#170=VERTEX_POINT('',#629);
#171=VERTEX_POINT('',#631);
#172=EDGE_CURVE('',#143,#143,#115,.T.);
#173=EDGE_CURVE('',#143,#144,#99,.T.);
#174=EDGE_CURVE('',#144,#144,#116,.T.);
#175=EDGE_CURVE('',#145,#145,#117,.T.);
#176=EDGE_CURVE('',#145,#146,#100,.T.);
#177=EDGE_CURVE('',#146,#146,#118,.T.);
#178=EDGE_CURVE('',#147,#148,#40,.T.);
#179=EDGE_CURVE('',#149,#147,#36,.T.);
#180=EDGE_CURVE('',#150,#149,#41,.T.);
#181=EDGE_CURVE('',#148,#150,#37,.T.);
#182=EDGE_CURVE('',#148,#150,#119,.T.);
#183=EDGE_CURVE('',#151,#149,#120,.T.);
#184=EDGE_CURVE('',#151,#152,#42,.T.);
#185=EDGE_CURVE('',#152,#153,#121,.T.);
#186=EDGE_CURVE('',#153,#154,#43,.T.);
#187=EDGE_CURVE('',#155,#154,#122,.T.);
#188=EDGE_CURVE('',#155,#156,#101,.T.);
#189=EDGE_CURVE('',#156,#156,#123,.T.);
#190=EDGE_CURVE('',#147,#155,#124,.T.);
#191=EDGE_CURVE('',#151,#154,#38,.T.);
#192=EDGE_CURVE('',#152,#153,#39,.T.);
#193=EDGE_CURVE('',#156,#157,#125,.T.);
#194=EDGE_CURVE('',#157,#157,#126,.T.);
#195=EDGE_CURVE('',#158,#158,#127,.T.);
#196=EDGE_CURVE('',#159,#159,#128,.T.);
#197=EDGE_CURVE('',#159,#160,#129,.T.);
#198=EDGE_CURVE('',#160,#161,#130,.T.);
#199=EDGE_CURVE('',#161,#160,#131,.T.);
#200=EDGE_CURVE('',#161,#158,#102,.T.);
#201=EDGE_CURVE('',#162,#162,#132,.T.);
#202=EDGE_CURVE('',#163,#163,#133,.T.);
#203=EDGE_CURVE('',#163,#164,#134,.T.);
#204=EDGE_CURVE('',#164,#165,#135,.T.);
#205=EDGE_CURVE('',#165,#164,#136,.T.);
#206=EDGE_CURVE('',#165,#162,#103,.T.);
#207=EDGE_CURVE('',#166,#166,#137,.T.);
#208=EDGE_CURVE('',#166,#167,#104,.T.);
#209=EDGE_CURVE('',#167,#167,#138,.T.);
#210=EDGE_CURVE('',#168,#168,#139,.T.);
#211=EDGE_CURVE('',#168,#169,#105,.T.);
#212=EDGE_CURVE('',#169,#169,#140,.T.);
#213=EDGE_CURVE('',#170,#170,#141,.T.);
#214=EDGE_CURVE('',#170,#171,#106,.T.);
#215=EDGE_CURVE('',#171,#171,#142,.T.);
#216=ORIENTED_EDGE('',*,*,#172,.F.);
#217=ORIENTED_EDGE('',*,*,#173,.T.);
#218=ORIENTED_EDGE('',*,*,#174,.F.);
#219=ORIENTED_EDGE('',*,*,#173,.F.);
#220=ORIENTED_EDGE('',*,*,#175,.F.);
#221=ORIENTED_EDGE('',*,*,#176,.T.);
#222=ORIENTED_EDGE('',*,*,#177,.F.);
#223=ORIENTED_EDGE('',*,*,#176,.F.);
#224=ORIENTED_EDGE('',*,*,#178,.F.);
#225=ORIENTED_EDGE('',*,*,#179,.F.);
#226=ORIENTED_EDGE('',*,*,#180,.F.);
#227=ORIENTED_EDGE('',*,*,#181,.F.);
#228=ORIENTED_EDGE('',*,*,#182,.F.);
#229=ORIENTED_EDGE('',*,*,#181,.T.);
#230=ORIENTED_EDGE('',*,*,#174,.T.);
#231=ORIENTED_EDGE('',*,*,#178,.T.);
#232=ORIENTED_EDGE('',*,*,#182,.T.);
#233=ORIENTED_EDGE('',*,*,#180,.T.);
#234=ORIENTED_EDGE('',*,*,#183,.F.);
#235=ORIENTED_EDGE('',*,*,#184,.T.);
#236=ORIENTED_EDGE('',*,*,#185,.T.);
#237=ORIENTED_EDGE('',*,*,#186,.T.);
#238=ORIENTED_EDGE('',*,*,#187,.F.);
#239=ORIENTED_EDGE('',*,*,#188,.T.);
#240=ORIENTED_EDGE('',*,*,#189,.F.);
#241=ORIENTED_EDGE('',*,*,#188,.F.);
#242=ORIENTED_EDGE('',*,*,#190,.F.);
#243=ORIENTED_EDGE('',*,*,#184,.F.);
#244=ORIENTED_EDGE('',*,*,#191,.T.);
#245=ORIENTED_EDGE('',*,*,#186,.F.);
#246=ORIENTED_EDGE('',*,*,#192,.F.);
#247=ORIENTED_EDGE('',*,*,#185,.F.);
#248=ORIENTED_EDGE('',*,*,#192,.T.);
#249=ORIENTED_EDGE('',*,*,#177,.T.);
#250=ORIENTED_EDGE('',*,*,#189,.T.);
#251=ORIENTED_EDGE('',*,*,#193,.T.);
#252=ORIENTED_EDGE('',*,*,#194,.T.);
#253=ORIENTED_EDGE('',*,*,#193,.F.);
#254=ORIENTED_EDGE('',*,*,#194,.F.);
#255=ORIENTED_EDGE('',*,*,#195,.T.);
#256=ORIENTED_EDGE('',*,*,#196,.T.);
#257=ORIENTED_EDGE('',*,*,#197,.T.);
#258=ORIENTED_EDGE('',*,*,#198,.T.);
#259=ORIENTED_EDGE('',*,*,#199,.T.);
#260=ORIENTED_EDGE('',*,*,#197,.F.);
#261=ORIENTED_EDGE('',*,*,#199,.F.);
#262=ORIENTED_EDGE('',*,*,#200,.T.);
#263=ORIENTED_EDGE('',*,*,#195,.F.);
#264=ORIENTED_EDGE('',*,*,#200,.F.);
#265=ORIENTED_EDGE('',*,*,#198,.F.);
#266=ORIENTED_EDGE('',*,*,#196,.F.);
#267=ORIENTED_EDGE('',*,*,#201,.T.);
#268=ORIENTED_EDGE('',*,*,#202,.T.);
#269=ORIENTED_EDGE('',*,*,#203,.T.);
#270=ORIENTED_EDGE('',*,*,#204,.T.);
#271=ORIENTED_EDGE('',*,*,#205,.T.);
#272=ORIENTED_EDGE('',*,*,#203,.F.);
#273=ORIENTED_EDGE('',*,*,#205,.F.);
#274=ORIENTED_EDGE('',*,*,#206,.T.);
#275=ORIENTED_EDGE('',*,*,#201,.F.);
#276=ORIENTED_EDGE('',*,*,#206,.F.);
#277=ORIENTED_EDGE('',*,*,#204,.F.);
#278=ORIENTED_EDGE('',*,*,#202,.F.);
#279=ORIENTED_EDGE('',*,*,#207,.F.);
#280=ORIENTED_EDGE('',*,*,#208,.T.);
#281=ORIENTED_EDGE('',*,*,#209,.T.);
#282=ORIENTED_EDGE('',*,*,#208,.F.);
#283=ORIENTED_EDGE('',*,*,#209,.F.);
#284=ORIENTED_EDGE('',*,*,#210,.F.);
#285=ORIENTED_EDGE('',*,*,#210,.T.);
#286=ORIENTED_EDGE('',*,*,#211,.T.);
#287=ORIENTED_EDGE('',*,*,#212,.T.);
#288=ORIENTED_EDGE('',*,*,#211,.F.);
#289=ORIENTED_EDGE('',*,*,#212,.F.);
#290=ORIENTED_EDGE('',*,*,#213,.F.);
#291=ORIENTED_EDGE('',*,*,#214,.T.);
#292=ORIENTED_EDGE('',*,*,#215,.T.);
#293=ORIENTED_EDGE('',*,*,#214,.F.);
#294=ORIENTED_EDGE('',*,*,#215,.F.);
#295=ORIENTED_EDGE('',*,*,#207,.T.);
#296=ORIENTED_EDGE('',*,*,#190,.T.);
#297=ORIENTED_EDGE('',*,*,#187,.T.);
#298=ORIENTED_EDGE('',*,*,#191,.F.);
#299=ORIENTED_EDGE('',*,*,#183,.T.);
#300=ORIENTED_EDGE('',*,*,#179,.T.);
#301=ORIENTED_EDGE('',*,*,#172,.T.);
#302=ORIENTED_EDGE('',*,*,#175,.T.);
#303=ORIENTED_EDGE('',*,*,#213,.T.);
#304=CYLINDRICAL_SURFACE('',#348,1.9);
#305=CYLINDRICAL_SURFACE('',#351,1.9);
#306=CYLINDRICAL_SURFACE('',#356,29.);
#307=CYLINDRICAL_SURFACE('',#373,15.);
#308=CYLINDRICAL_SURFACE('',#381,10.);
#309=CYLINDRICAL_SURFACE('',#383,14.);
#310=CYLINDRICAL_SURFACE('',#388,9.);
#311=CYLINDRICAL_SURFACE('',#391,27.5);
#312=ADVANCED_FACE('',(#46),#304,.F.);
#313=ADVANCED_FACE('',(#47),#305,.F.);
#314=ADVANCED_FACE('',(#48),#44,.T.);
#315=ADVANCED_FACE('',(#49,#18),#27,.F.);
#316=ADVANCED_FACE('',(#50),#306,.T.);
#317=ADVANCED_FACE('',(#51),#45,.T.);
#318=ADVANCED_FACE('',(#52,#19),#28,.F.);
#319=ADVANCED_FACE('',(#53),#15,.T.);
#320=ADVANCED_FACE('',(#54,#20),#29,.F.);
#321=ADVANCED_FACE('',(#55),#16,.T.);
#322=ADVANCED_FACE('',(#56),#307,.T.);
#323=ADVANCED_FACE('',(#57,#21),#30,.T.);
#324=ADVANCED_FACE('',(#58),#17,.T.);
#325=ADVANCED_FACE('',(#59),#308,.T.);
#326=ADVANCED_FACE('',(#60),#31,.T.);
#327=ADVANCED_FACE('',(#61),#309,.F.);
#328=ADVANCED_FACE('',(#62,#22),#32,.T.);
#329=ADVANCED_FACE('',(#63),#310,.F.);
#330=ADVANCED_FACE('',(#64),#33,.T.);
#331=ADVANCED_FACE('',(#65),#311,.F.);
#332=ADVANCED_FACE('',(#66,#23),#34,.T.);
#333=ADVANCED_FACE('',(#67,#24,#25,#26),#35,.T.);
#334=CLOSED_SHELL('',(#312,#313,#314,#315,#316,#317,#318,#319,#320,#321,
#322,#323,#324,#325,#326,#327,#328,#329,#330,#331,#332,#333));
#335=DERIVED_UNIT_ELEMENT(#337,1.);
#336=DERIVED_UNIT_ELEMENT(#641,-3.);
#337=(
MASS_UNIT()
NAMED_UNIT(*)
SI_UNIT(.KILO.,.GRAM.)
);
#338=DERIVED_UNIT((#335,#336));
#339=MEASURE_REPRESENTATION_ITEM('density measure',
POSITIVE_RATIO_MEASURE(7850.),#338);
#340=PROPERTY_DEFINITION_REPRESENTATION(#345,#342);
#341=PROPERTY_DEFINITION_REPRESENTATION(#346,#343);
#342=REPRESENTATION('material name',(#344),#638);
#343=REPRESENTATION('density',(#339),#638);
#344=DESCRIPTIVE_REPRESENTATION_ITEM('Steel','Steel');
#345=PROPERTY_DEFINITION('material property','material name',#648);
#346=PROPERTY_DEFINITION('material property','density of part',#648);
#347=AXIS2_PLACEMENT_3D('',#502,#396,#397);
#348=AXIS2_PLACEMENT_3D('',#503,#398,#399);
#349=AXIS2_PLACEMENT_3D('',#505,#400,#401);
#350=AXIS2_PLACEMENT_3D('',#508,#403,#404);
#351=AXIS2_PLACEMENT_3D('',#509,#405,#406);
#352=AXIS2_PLACEMENT_3D('',#511,#407,#408);
#353=AXIS2_PLACEMENT_3D('',#514,#410,#411);
#354=AXIS2_PLACEMENT_3D('',#543,#412,#413);
#355=AXIS2_PLACEMENT_3D('',#544,#414,#415);
#356=AXIS2_PLACEMENT_3D('',#545,#416,#417);
#357=AXIS2_PLACEMENT_3D('',#547,#418,#419);
#358=AXIS2_PLACEMENT_3D('',#556,#420,#421);
#359=AXIS2_PLACEMENT_3D('',#565,#422,#423);
#360=AXIS2_PLACEMENT_3D('',#568,#425,#426);
#361=AXIS2_PLACEMENT_3D('',#569,#427,#428);
#362=AXIS2_PLACEMENT_3D('',#582,#429,#430);
#363=AXIS2_PLACEMENT_3D('',#583,#431,#432);
#364=AXIS2_PLACEMENT_3D('',#585,#433,#434);
#365=AXIS2_PLACEMENT_3D('',#586,#435,#436);
#366=AXIS2_PLACEMENT_3D('',#587,#437,#438);
#367=AXIS2_PLACEMENT_3D('',#589,#439,#440);
#368=AXIS2_PLACEMENT_3D('',#590,#441,#442);
#369=AXIS2_PLACEMENT_3D('',#592,#443,#444);
#370=AXIS2_PLACEMENT_3D('',#594,#445,#446);
#371=AXIS2_PLACEMENT_3D('',#596,#447,#448);
#372=AXIS2_PLACEMENT_3D('',#597,#449,#450);
#373=AXIS2_PLACEMENT_3D('',#598,#451,#452);
#374=AXIS2_PLACEMENT_3D('',#600,#454,#455);
#375=AXIS2_PLACEMENT_3D('',#602,#456,#457);
#376=AXIS2_PLACEMENT_3D('',#603,#458,#459);
#377=AXIS2_PLACEMENT_3D('',#605,#460,#461);
#378=AXIS2_PLACEMENT_3D('',#607,#462,#463);
#379=AXIS2_PLACEMENT_3D('',#609,#464,#465);
#380=AXIS2_PLACEMENT_3D('',#610,#466,#467);
#381=AXIS2_PLACEMENT_3D('',#611,#468,#469);
#382=AXIS2_PLACEMENT_3D('',#613,#471,#472);
#383=AXIS2_PLACEMENT_3D('',#614,#473,#474);
#384=AXIS2_PLACEMENT_3D('',#616,#475,#476);
#385=AXIS2_PLACEMENT_3D('',#619,#478,#479);
#386=AXIS2_PLACEMENT_3D('',#620,#480,#481);
#387=AXIS2_PLACEMENT_3D('',#622,#482,#483);
#388=AXIS2_PLACEMENT_3D('',#623,#484,#485);
#389=AXIS2_PLACEMENT_3D('',#626,#487,#488);
#390=AXIS2_PLACEMENT_3D('',#627,#489,#490);
#391=AXIS2_PLACEMENT_3D('',#628,#491,#492);
#392=AXIS2_PLACEMENT_3D('',#630,#493,#494);
#393=AXIS2_PLACEMENT_3D('',#633,#496,#497);
#394=AXIS2_PLACEMENT_3D('',#634,#498,#499);
#395=AXIS2_PLACEMENT_3D('',#635,#500,#501);
#396=DIRECTION('axis',(0.,0.,1.));
#397=DIRECTION('refdir',(1.,0.,0.));
#398=DIRECTION('center_axis',(0.,0.,-1.));
#399=DIRECTION('ref_axis',(-1.,0.,0.));
#400=DIRECTION('center_axis',(0.,0.,-1.));
#401=DIRECTION('ref_axis',(-1.,0.,0.));
#402=DIRECTION('',(0.,0.,-1.));
#403=DIRECTION('center_axis',(0.,0.,1.));
#404=DIRECTION('ref_axis',(-1.,0.,0.));
#405=DIRECTION('center_axis',(0.,0.,-1.));
#406=DIRECTION('ref_axis',(-1.,0.,0.));
#407=DIRECTION('center_axis',(0.,0.,-1.));
#408=DIRECTION('ref_axis',(-1.,0.,0.));
#409=DIRECTION('',(0.,0.,-1.));
#410=DIRECTION('center_axis',(0.,0.,1.));
#411=DIRECTION('ref_axis',(-1.,0.,0.));
#412=DIRECTION('center_axis',(0.,0.,1.));
#413=DIRECTION('ref_axis',(1.,0.,0.));
#414=DIRECTION('center_axis',(0.,0.,-1.));
#415=DIRECTION('ref_axis',(1.,0.,0.));
#416=DIRECTION('center_axis',(0.,0.,1.));
#417=DIRECTION('ref_axis',(1.,0.,0.));
#418=DIRECTION('center_axis',(0.,0.,1.));
#419=DIRECTION('ref_axis',(1.,0.,0.));
#420=DIRECTION('center_axis',(0.,0.,-1.));
#421=DIRECTION('ref_axis',(1.,0.,0.));
#422=DIRECTION('center_axis',(0.,0.,1.));
#423=DIRECTION('ref_axis',(1.,0.,0.));
#424=DIRECTION('',(0.,0.,-1.));
#425=DIRECTION('center_axis',(0.,0.,-1.));
#426=DIRECTION('ref_axis',(1.,0.,0.));
#427=DIRECTION('center_axis',(0.,0.,1.));
#428=DIRECTION('ref_axis',(1.,0.,0.));
#429=DIRECTION('center_axis',(0.,0.,1.));
#430=DIRECTION('ref_axis',(1.,0.,0.));
#431=DIRECTION('center_axis',(0.,0.,1.));
#432=DIRECTION('ref_axis',(1.,0.,0.));
#433=DIRECTION('center_axis',(1.22464679914735E-16,-1.,0.));
#434=DIRECTION('ref_axis',(-1.,-1.22464679914735E-16,0.));
#435=DIRECTION('center_axis',(0.,0.,1.));
#436=DIRECTION('ref_axis',(1.,0.,0.));
#437=DIRECTION('center_axis',(0.,0.,1.));
#438=DIRECTION('ref_axis',(1.,0.,0.));
#439=DIRECTION('center_axis',(0.,0.,1.));
#440=DIRECTION('ref_axis',(1.,0.,0.));
#441=DIRECTION('center_axis',(0.,0.,-1.));
#442=DIRECTION('ref_axis',(-1.,0.,0.));
#443=DIRECTION('center_axis',(0.,0.,1.));
#444=DIRECTION('ref_axis',(1.,0.,0.));
#445=DIRECTION('center_axis',(-1.22464679914735E-16,-1.,0.));
#446=DIRECTION('ref_axis',(1.,-1.22464679914735E-16,0.));
#447=DIRECTION('center_axis',(0.,0.,-1.));
#448=DIRECTION('ref_axis',(1.,0.,0.));
#449=DIRECTION('center_axis',(0.,0.,-1.));
#450=DIRECTION('ref_axis',(1.,0.,0.));
#451=DIRECTION('center_axis',(0.,0.,-1.));
#452=DIRECTION('ref_axis',(1.,0.,0.));
#453=DIRECTION('',(0.,0.,1.));
#454=DIRECTION('center_axis',(0.,0.,-1.));
#455=DIRECTION('ref_axis',(1.,0.,0.));
#456=DIRECTION('center_axis',(0.,0.,1.));
#457=DIRECTION('ref_axis',(1.,0.,0.));
#458=DIRECTION('center_axis',(0.,0.,-1.));
#459=DIRECTION('ref_axis',(-1.,0.,0.));
#460=DIRECTION('center_axis',(0.,0.,1.));
#461=DIRECTION('ref_axis',(1.,0.,0.));
#462=DIRECTION('center_axis',(-1.22464679914735E-16,-1.,0.));
#463=DIRECTION('ref_axis',(1.,-1.22464679914735E-16,0.));
#464=DIRECTION('center_axis',(0.,0.,-1.));
#465=DIRECTION('ref_axis',(1.,0.,0.));
#466=DIRECTION('center_axis',(0.,0.,-1.));
#467=DIRECTION('ref_axis',(1.,0.,0.));
#468=DIRECTION('center_axis',(0.,0.,-1.));
#469=DIRECTION('ref_axis',(1.,0.,0.));
#470=DIRECTION('',(0.,0.,1.));
#471=DIRECTION('center_axis',(0.,0.,-1.));
#472=DIRECTION('ref_axis',(1.,0.,0.));
#473=DIRECTION('center_axis',(0.,0.,-1.));
#474=DIRECTION('ref_axis',(-1.,0.,0.));
#475=DIRECTION('center_axis',(0.,0.,-1.));
#476=DIRECTION('ref_axis',(-1.,0.,0.));
#477=DIRECTION('',(0.,0.,-1.));
#478=DIRECTION('center_axis',(0.,0.,-1.));
#479=DIRECTION('ref_axis',(-1.,0.,0.));
#480=DIRECTION('center_axis',(0.,0.,1.));
#481=DIRECTION('ref_axis',(-1.,0.,0.));
#482=DIRECTION('center_axis',(0.,0.,1.));
#483=DIRECTION('ref_axis',(-1.,0.,0.));
#484=DIRECTION('center_axis',(0.,0.,-1.));
#485=DIRECTION('ref_axis',(-1.,0.,0.));
#486=DIRECTION('',(0.,0.,-1.));
#487=DIRECTION('center_axis',(0.,0.,-1.));
#488=DIRECTION('ref_axis',(-1.,0.,0.));
#489=DIRECTION('center_axis',(0.,0.,1.));
#490=DIRECTION('ref_axis',(-1.,0.,0.));
#491=DIRECTION('center_axis',(0.,0.,-1.));
#492=DIRECTION('ref_axis',(-1.,0.,0.));
#493=DIRECTION('center_axis',(0.,0.,-1.));
#494=DIRECTION('ref_axis',(-1.,0.,0.));
#495=DIRECTION('',(0.,0.,-1.));
#496=DIRECTION('center_axis',(0.,0.,-1.));
#497=DIRECTION('ref_axis',(-1.,0.,0.));
#498=DIRECTION('center_axis',(0.,0.,1.));
#499=DIRECTION('ref_axis',(-1.,0.,0.));
#500=DIRECTION('center_axis',(0.,0.,1.));
#501=DIRECTION('ref_axis',(1.,0.,0.));
#502=CARTESIAN_POINT('',(0.,0.,0.));
#503=CARTESIAN_POINT('Origin',(0.,33.5000004991889,85.));
#504=CARTESIAN_POINT('',(1.9,33.5000004991889,85.));
#505=CARTESIAN_POINT('Origin',(0.,33.5000004991889,85.));
#506=CARTESIAN_POINT('',(1.9,33.5000004991889,80.));
#507=CARTESIAN_POINT('',(1.9,33.5000004991889,85.));
#508=CARTESIAN_POINT('Origin',(0.,33.5000004991889,80.));
#509=CARTESIAN_POINT('Origin',(-9.75781982701931E-18,-33.0000004917383,
85.));
#510=CARTESIAN_POINT('',(1.9,-33.0000004917383,85.));
#511=CARTESIAN_POINT('Origin',(-9.75781982701931E-18,-33.0000004917383,
85.));
#512=CARTESIAN_POINT('',(1.9,-33.0000004917383,80.));
#513=CARTESIAN_POINT('',(1.9,-33.0000004917383,85.));
#514=CARTESIAN_POINT('Origin',(-9.75781982701931E-18,-33.0000004917383,
80.));
#515=CARTESIAN_POINT('Ctrl Pts',(-5.00000007450581,28.0000004172325,85.));
#516=CARTESIAN_POINT('Ctrl Pts',(-5.00000007450581,28.0000004172325,80.));
#517=CARTESIAN_POINT('Ctrl Pts',(-0.0113191206661722,43.0942076258254,85.));
#518=CARTESIAN_POINT('Ctrl Pts',(-0.0113191206661722,43.0942076258254,80.));
#519=CARTESIAN_POINT('Ctrl Pts',(5.00000007450581,28.0000004172325,85.));
#520=CARTESIAN_POINT('Ctrl Pts',(5.00000007450581,28.0000004172325,80.));
#521=CARTESIAN_POINT('',(-4.80131457204919,28.5997793414605,85.));
#522=CARTESIAN_POINT('',(-4.80131457204919,28.5997793414605,80.));
#523=CARTESIAN_POINT('Ctrl Pts',(-4.80131457204922,28.5997793414605,85.));
#524=CARTESIAN_POINT('Ctrl Pts',(-4.80131457204922,28.5997793414605,84.1666666666666));
#525=CARTESIAN_POINT('Ctrl Pts',(-4.80131457204922,28.5997793414605,83.3333333333333));
#526=CARTESIAN_POINT('Ctrl Pts',(-4.80131457204922,28.5997793414605,81.6666666666666));
#527=CARTESIAN_POINT('Ctrl Pts',(-4.80131457204922,28.5997793414605,80.8333333333333));
#528=CARTESIAN_POINT('Ctrl Pts',(-4.80131457204922,28.5997793414605,80.));
#529=CARTESIAN_POINT('',(4.80036167102046,28.5999392976174,85.));
#530=CARTESIAN_POINT('Ctrl Pts',(4.80036167102046,28.5999392976174,85.));
#531=CARTESIAN_POINT('Ctrl Pts',(-0.0112704869808067,43.025115950098,85.));
#532=CARTESIAN_POINT('Ctrl Pts',(-4.8013145720492,28.5997793414605,85.));
#533=CARTESIAN_POINT('',(4.80036167102046,28.5999392976174,80.));
#534=CARTESIAN_POINT('Ctrl Pts',(4.80036167102046,28.5999392976174,80.));
#535=CARTESIAN_POINT('Ctrl Pts',(4.80036167102046,28.5999392976174,80.8333333333334));
#536=CARTESIAN_POINT('Ctrl Pts',(4.80036167102046,28.5999392976174,81.6666666666667));
#537=CARTESIAN_POINT('Ctrl Pts',(4.80036167102046,28.5999392976174,83.3333333333333));
#538=CARTESIAN_POINT('Ctrl Pts',(4.80036167102046,28.5999392976174,84.1666666666667));
#539=CARTESIAN_POINT('Ctrl Pts',(4.80036167102046,28.5999392976174,85.));
#540=CARTESIAN_POINT('Ctrl Pts',(-4.8013145720492,28.5997793414605,80.));
#541=CARTESIAN_POINT('Ctrl Pts',(-0.0112704869808067,43.025115950098,80.));
#542=CARTESIAN_POINT('Ctrl Pts',(4.80036167102046,28.5999392976174,80.));
#543=CARTESIAN_POINT('Origin',(0.,35.5471040215289,80.));
#544=CARTESIAN_POINT('Origin',(0.,0.,80.));
#545=CARTESIAN_POINT('Origin',(0.,0.,0.));
#546=CARTESIAN_POINT('',(4.79950966967288,-28.6000822888802,85.));
#547=CARTESIAN_POINT('Origin',(0.,0.,85.));
#548=CARTESIAN_POINT('',(4.79950966967288,-28.6000822888802,80.));
#549=CARTESIAN_POINT('Ctrl Pts',(4.79950966967288,-28.6000822888802,85.));
#550=CARTESIAN_POINT('Ctrl Pts',(4.79950966967288,-28.6000822888802,84.1666666666667));
#551=CARTESIAN_POINT('Ctrl Pts',(4.79950966967288,-28.6000822888802,83.3333333333333));
#552=CARTESIAN_POINT('Ctrl Pts',(4.79950966967288,-28.6000822888802,81.6666666666667));
#553=CARTESIAN_POINT('Ctrl Pts',(4.79950966967288,-28.6000822888802,80.8333333333333));
#554=CARTESIAN_POINT('Ctrl Pts',(4.79950966967288,-28.6000822888802,80.));
#555=CARTESIAN_POINT('',(-4.79950966967291,-28.6000822888801,80.));
#556=CARTESIAN_POINT('Origin',(0.,0.,80.));
#557=CARTESIAN_POINT('',(-4.79950966967291,-28.6000822888801,85.));
#558=CARTESIAN_POINT('Ctrl Pts',(-4.79950966967287,-28.6000822888802,80.));
#559=CARTESIAN_POINT('Ctrl Pts',(-4.79950966967287,-28.6000822888802,80.8333333333333));
#560=CARTESIAN_POINT('Ctrl Pts',(-4.79950966967287,-28.6000822888802,81.6666666666666));
#561=CARTESIAN_POINT('Ctrl Pts',(-4.79950966967287,-28.6000822888802,83.3333333333333));
#562=CARTESIAN_POINT('Ctrl Pts',(-4.79950966967287,-28.6000822888802,84.1666666666666));
#563=CARTESIAN_POINT('Ctrl Pts',(-4.79950966967287,-28.6000822888802,85.));
#564=CARTESIAN_POINT('',(-29.,-3.55147571752733E-15,85.));
#565=CARTESIAN_POINT('Origin',(0.,0.,85.));
#566=CARTESIAN_POINT('',(-29.,3.55147571752733E-15,1.));
#567=CARTESIAN_POINT('',(-29.,-3.55147571752733E-15,0.));
#568=CARTESIAN_POINT('Origin',(0.,0.,1.));
#569=CARTESIAN_POINT('Origin',(0.,0.,85.));
#570=CARTESIAN_POINT('Ctrl Pts',(5.00000007450581,-28.0000004172325,85.));
#571=CARTESIAN_POINT('Ctrl Pts',(5.00000007450581,-28.0000004172325,80.));
#572=CARTESIAN_POINT('Ctrl Pts',(-1.11022302462516E-15,-43.0000006407499,
85.));
#573=CARTESIAN_POINT('Ctrl Pts',(-1.11022302462516E-15,-43.0000006407499,
80.));
#574=CARTESIAN_POINT('Ctrl Pts',(-5.00000007450581,-28.0000004172325,85.));
#575=CARTESIAN_POINT('Ctrl Pts',(-5.00000007450581,-28.0000004172325,80.));
#576=CARTESIAN_POINT('Ctrl Pts',(4.79950966967288,-28.6000822888802,85.));
#577=CARTESIAN_POINT('Ctrl Pts',(-1.66533453693773E-15,-42.9308664368266,
85.));
#578=CARTESIAN_POINT('Ctrl Pts',(-4.7995096696729,-28.6000822888801,85.));
#579=CARTESIAN_POINT('Ctrl Pts',(4.79950966967288,-28.6000822888802,80.));
#580=CARTESIAN_POINT('Ctrl Pts',(-1.66533453693773E-15,-42.9308664368266,
80.));
#581=CARTESIAN_POINT('Ctrl Pts',(-4.7995096696729,-28.6000822888801,80.));
#582=CARTESIAN_POINT('Origin',(0.,-35.5000005289912,80.));
#583=CARTESIAN_POINT('Origin',(0.,0.,1.));
#584=CARTESIAN_POINT('',(-28.,-3.42901103761259E-15,0.));
#585=CARTESIAN_POINT('Origin',(-28.,-3.42901103761259E-15,1.));
#586=CARTESIAN_POINT('Origin',(0.,0.,0.));
#587=CARTESIAN_POINT('Origin',(0.,0.,0.));
#588=CARTESIAN_POINT('',(-15.,1.83697019872103E-15,0.));
#589=CARTESIAN_POINT('Origin',(0.,0.,0.));
#590=CARTESIAN_POINT('Origin',(0.,0.,-7.));
#591=CARTESIAN_POINT('',(14.,-1.71450551880629E-15,-8.));
#592=CARTESIAN_POINT('Origin',(0.,0.,-8.));
#593=CARTESIAN_POINT('',(15.,-1.83697019872103E-15,-7.));
#594=CARTESIAN_POINT('Origin',(14.,-1.71450551880629E-15,-7.));
#595=CARTESIAN_POINT('',(-15.,1.83697019872103E-15,-7.));
#596=CARTESIAN_POINT('Origin',(0.,0.,-7.));
#597=CARTESIAN_POINT('Origin',(0.,0.,-7.));
#598=CARTESIAN_POINT('Origin',(0.,0.,0.));
#599=CARTESIAN_POINT('',(-15.,1.83697019872103E-15,0.));
#600=CARTESIAN_POINT('Origin',(0.,0.,-8.));
#601=CARTESIAN_POINT('',(-10.,1.22464679914735E-15,-8.));
#602=CARTESIAN_POINT('Origin',(0.,0.,-8.));
#603=CARTESIAN_POINT('Origin',(0.,0.,-12.));
#604=CARTESIAN_POINT('',(9.,-1.10218211923262E-15,-13.));
#605=CARTESIAN_POINT('Origin',(0.,0.,-13.));
#606=CARTESIAN_POINT('',(10.,-1.22464679914735E-15,-12.));
#607=CARTESIAN_POINT('Origin',(9.,-1.10218211923262E-15,-12.));
#608=CARTESIAN_POINT('',(-10.,1.22464679914735E-15,-12.));
#609=CARTESIAN_POINT('Origin',(0.,0.,-12.));
#610=CARTESIAN_POINT('Origin',(0.,0.,-12.));
#611=CARTESIAN_POINT('Origin',(0.,0.,-8.));
#612=CARTESIAN_POINT('',(-10.,1.22464679914735E-15,-8.));
#613=CARTESIAN_POINT('Origin',(0.,0.,-13.));
#614=CARTESIAN_POINT('Origin',(0.,0.,1.99999999999999));
#615=CARTESIAN_POINT('',(14.,1.71450551880629E-15,1.99999999999999));
#616=CARTESIAN_POINT('Origin',(0.,0.,1.99999999999999));
#617=CARTESIAN_POINT('',(14.,1.71450551880629E-15,-5.00000000000001));
#618=CARTESIAN_POINT('',(14.,-1.71450551880629E-15,1.99999999999999));
#619=CARTESIAN_POINT('Origin',(0.,0.,-5.00000000000001));
#620=CARTESIAN_POINT('Origin',(0.,0.,-5.00000000000001));
#621=CARTESIAN_POINT('',(9.,1.10218211923262E-15,-5.00000000000001));
#622=CARTESIAN_POINT('Origin',(0.,0.,-5.00000000000001));
#623=CARTESIAN_POINT('Origin',(0.,0.,1.99999999999999));
#624=CARTESIAN_POINT('',(9.,1.10218211923262E-15,-12.));
#625=CARTESIAN_POINT('',(9.,-1.10218211923262E-15,1.99999999999999));
#626=CARTESIAN_POINT('Origin',(0.,0.,-12.));
#627=CARTESIAN_POINT('Origin',(0.,0.,-12.));
#628=CARTESIAN_POINT('Origin',(0.,0.,85.));
#629=CARTESIAN_POINT('',(27.5,3.36777869765522E-15,85.));
#630=CARTESIAN_POINT('Origin',(0.,0.,85.));
#631=CARTESIAN_POINT('',(27.5,3.36777869765522E-15,1.99999999999999));
#632=CARTESIAN_POINT('',(27.5,-3.36777869765522E-15,85.));
#633=CARTESIAN_POINT('Origin',(0.,0.,1.99999999999999));
#634=CARTESIAN_POINT('Origin',(0.,0.,1.99999999999999));
#635=CARTESIAN_POINT('Origin',(0.,0.,85.));
#636=UNCERTAINTY_MEASURE_WITH_UNIT(LENGTH_MEASURE(0.01),#640,
'DISTANCE_ACCURACY_VALUE',
'Maximum model space distance between geometric entities at asserted c
onnectivities');
#637=UNCERTAINTY_MEASURE_WITH_UNIT(LENGTH_MEASURE(0.01),#640,
'DISTANCE_ACCURACY_VALUE',
'Maximum model space distance between geometric entities at asserted c
onnectivities');
#638=(
GEOMETRIC_REPRESENTATION_CONTEXT(3)
GLOBAL_UNCERTAINTY_ASSIGNED_CONTEXT((#636))
GLOBAL_UNIT_ASSIGNED_CONTEXT((#640,#642,#643))
REPRESENTATION_CONTEXT('','3D')
);
#639=(
GEOMETRIC_REPRESENTATION_CONTEXT(3)
GLOBAL_UNCERTAINTY_ASSIGNED_CONTEXT((#637))
GLOBAL_UNIT_ASSIGNED_CONTEXT((#640,#642,#643))
REPRESENTATION_CONTEXT('','3D')
);
#640=(
LENGTH_UNIT()
NAMED_UNIT(*)
SI_UNIT(.MILLI.,.METRE.)
);
#641=(
LENGTH_UNIT()
NAMED_UNIT(*)
SI_UNIT($,.METRE.)
);
#642=(
NAMED_UNIT(*)
PLANE_ANGLE_UNIT()
SI_UNIT($,.RADIAN.)
);
#643=(
NAMED_UNIT(*)
SI_UNIT($,.STERADIAN.)
SOLID_ANGLE_UNIT()
);
#644=SHAPE_DEFINITION_REPRESENTATION(#645,#646);
#645=PRODUCT_DEFINITION_SHAPE('',$,#648);
#646=SHAPE_REPRESENTATION('',(#347),#638);
#647=PRODUCT_DEFINITION_CONTEXT('part definition',#652,'design');
#648=PRODUCT_DEFINITION('(Unsaved)','(Unsaved)',#649,#647);
#649=PRODUCT_DEFINITION_FORMATION('',$,#654);
#650=PRODUCT_RELATED_PRODUCT_CATEGORY('(Unsaved)','(Unsaved)',(#654));
#651=APPLICATION_PROTOCOL_DEFINITION('international standard',
'automotive_design',2009,#652);
#652=APPLICATION_CONTEXT(
'Core Data for Automotive Mechanical Design Process');
#653=PRODUCT_CONTEXT('part definition',#652,'mechanical');
#654=PRODUCT('(Unsaved)','(Unsaved)',$,(#653));
#655=PRESENTATION_STYLE_ASSIGNMENT((#656));
#656=SURFACE_STYLE_USAGE(.BOTH.,#657);
#657=SURFACE_SIDE_STYLE('',(#658));
#658=SURFACE_STYLE_FILL_AREA(#659);
#659=FILL_AREA_STYLE('Steel - Satin',(#660));
#660=FILL_AREA_STYLE_COLOUR('Steel - Satin',#661);
#661=COLOUR_RGB('Steel - Satin',0.627450980392157,0.627450980392157,0.627450980392157);
ENDSEC;
END-ISO-10303-21;
