ISO-10303-21;
HEADER;
/* Generated by software containing ST-Developer
 * from STEP Tools, Inc. (www.steptools.com) 
 */

FILE_DESCRIPTION(
/* description */ (''),
/* implementation_level */ '2;1');

FILE_NAME(
/* name */ 'CNC_main.step',
/* time_stamp */ '2026-07-02T14:45:32+05:30',
/* author */ (''),
/* organization */ (''),
/* preprocessor_version */ 'ST-DEVELOPER v20.1',
/* originating_system */ 'Autodesk Translation Framework v15.8.0.0',
/* authorisation */ '');

FILE_SCHEMA (('AUTOMOTIVE_DESIGN { 1 0 10303 214 3 1 1 }'));
ENDSEC;

DATA;
#10=MECHANICAL_DESIGN_GEOMETRIC_PRESENTATION_REPRESENTATION('',(#13,#14),
#1158);
#11=SHAPE_REPRESENTATION_RELATIONSHIP('SRR','None',#1165,#12);
#12=ADVANCED_BREP_SHAPE_REPRESENTATION('',(#15,#16),#1157);
#13=STYLED_ITEM('',(#1174),#15);
#14=STYLED_ITEM('',(#1174),#16);
#15=MANIFOLD_SOLID_BREP('Body1',#673);
#16=MANIFOLD_SOLID_BREP('Body2',#674);
#17=PLANE('',#691);
#18=PLANE('',#692);
#19=PLANE('',#702);
#20=PLANE('',#705);
#21=PLANE('',#708);
#22=PLANE('',#711);
#23=PLANE('',#716);
#24=PLANE('',#719);
#25=PLANE('',#720);
#26=PLANE('',#721);
#27=PLANE('',#725);
#28=PLANE('',#726);
#29=PLANE('',#736);
#30=PLANE('',#739);
#31=PLANE('',#744);
#32=PLANE('',#748);
#33=PLANE('',#751);
#34=PLANE('',#753);
#35=PLANE('',#754);
#36=PLANE('',#755);
#37=FACE_OUTER_BOUND('',#73,.T.);
#38=FACE_OUTER_BOUND('',#74,.T.);
#39=FACE_OUTER_BOUND('',#75,.T.);
#40=FACE_OUTER_BOUND('',#76,.T.);
#41=FACE_OUTER_BOUND('',#77,.T.);
#42=FACE_OUTER_BOUND('',#78,.T.);
#43=FACE_OUTER_BOUND('',#79,.T.);
#44=FACE_OUTER_BOUND('',#80,.T.);
#45=FACE_OUTER_BOUND('',#81,.T.);
#46=FACE_OUTER_BOUND('',#82,.T.);
#47=FACE_OUTER_BOUND('',#83,.T.);
#48=FACE_OUTER_BOUND('',#84,.T.);
#49=FACE_OUTER_BOUND('',#85,.T.);
#50=FACE_OUTER_BOUND('',#86,.T.);
#51=FACE_OUTER_BOUND('',#87,.T.);
#52=FACE_OUTER_BOUND('',#88,.T.);
#53=FACE_OUTER_BOUND('',#89,.T.);
#54=FACE_OUTER_BOUND('',#90,.T.);
#55=FACE_OUTER_BOUND('',#91,.T.);
#56=FACE_OUTER_BOUND('',#92,.T.);
#57=FACE_OUTER_BOUND('',#93,.T.);
#58=FACE_OUTER_BOUND('',#94,.T.);
#59=FACE_OUTER_BOUND('',#95,.T.);
#60=FACE_OUTER_BOUND('',#96,.T.);
#61=FACE_OUTER_BOUND('',#97,.T.);
#62=FACE_OUTER_BOUND('',#98,.T.);
#63=FACE_OUTER_BOUND('',#99,.T.);
#64=FACE_OUTER_BOUND('',#100,.T.);
#65=FACE_OUTER_BOUND('',#101,.T.);
#66=FACE_OUTER_BOUND('',#102,.T.);
#67=FACE_OUTER_BOUND('',#103,.T.);
#68=FACE_OUTER_BOUND('',#104,.T.);
#69=FACE_OUTER_BOUND('',#105,.T.);
#70=FACE_OUTER_BOUND('',#106,.T.);
#71=FACE_OUTER_BOUND('',#107,.T.);
#72=FACE_OUTER_BOUND('',#108,.T.);
#73=EDGE_LOOP('',(#429,#430,#431,#432));
#74=EDGE_LOOP('',(#433,#434,#435,#436));
#75=EDGE_LOOP('',(#437,#438,#439,#440,#441,#442,#443,#444,#445,#446,#447,
#448,#449,#450,#451,#452));
#76=EDGE_LOOP('',(#453,#454,#455,#456));
#77=EDGE_LOOP('',(#457,#458,#459,#460));
#78=EDGE_LOOP('',(#461,#462,#463,#464));
#79=EDGE_LOOP('',(#465,#466,#467,#468));
#80=EDGE_LOOP('',(#469,#470,#471,#472));
#81=EDGE_LOOP('',(#473,#474,#475,#476));
#82=EDGE_LOOP('',(#477,#478,#479,#480));
#83=EDGE_LOOP('',(#481,#482,#483,#484));
#84=EDGE_LOOP('',(#485,#486,#487,#488));
#85=EDGE_LOOP('',(#489,#490,#491,#492));
#86=EDGE_LOOP('',(#493,#494,#495,#496));
#87=EDGE_LOOP('',(#497,#498,#499,#500));
#88=EDGE_LOOP('',(#501,#502,#503,#504));
#89=EDGE_LOOP('',(#505,#506,#507,#508,#509,#510,#511,#512,#513,#514,#515,
#516,#517,#518,#519,#520));
#90=EDGE_LOOP('',(#521,#522,#523,#524));
#91=EDGE_LOOP('',(#525,#526,#527,#528));
#92=EDGE_LOOP('',(#529,#530,#531,#532));
#93=EDGE_LOOP('',(#533,#534,#535,#536,#537,#538,#539,#540,#541,#542,#543,
#544,#545,#546,#547,#548));
#94=EDGE_LOOP('',(#549,#550,#551,#552));
#95=EDGE_LOOP('',(#553,#554,#555,#556));
#96=EDGE_LOOP('',(#557,#558,#559,#560));
#97=EDGE_LOOP('',(#561,#562,#563,#564));
#98=EDGE_LOOP('',(#565,#566,#567,#568));
#99=EDGE_LOOP('',(#569,#570,#571,#572));
#100=EDGE_LOOP('',(#573,#574,#575,#576,#577,#578,#579,#580,#581,#582,#583,
#584,#585,#586,#587,#588));
#101=EDGE_LOOP('',(#589,#590,#591,#592));
#102=EDGE_LOOP('',(#593,#594,#595,#596));
#103=EDGE_LOOP('',(#597,#598,#599,#600));
#104=EDGE_LOOP('',(#601,#602,#603,#604));
#105=EDGE_LOOP('',(#605,#606,#607,#608));
#106=EDGE_LOOP('',(#609,#610,#611,#612));
#107=EDGE_LOOP('',(#613,#614,#615,#616));
#108=EDGE_LOOP('',(#617,#618,#619,#620));
#109=LINE('',#964,#173);
#110=LINE('',#967,#174);
#111=LINE('',#970,#175);
#112=LINE('',#972,#176);
#113=LINE('',#973,#177);
#114=LINE('',#976,#178);
#115=LINE('',#980,#179);
#116=LINE('',#984,#180);
#117=LINE('',#988,#181);
#118=LINE('',#992,#182);
#119=LINE('',#996,#183);
#120=LINE('',#1000,#184);
#121=LINE('',#1006,#185);
#122=LINE('',#1007,#186);
#123=LINE('',#1010,#187);
#124=LINE('',#1011,#188);
#125=LINE('',#1015,#189);
#126=LINE('',#1018,#190);
#127=LINE('',#1019,#191);
#128=LINE('',#1022,#192);
#129=LINE('',#1025,#193);
#130=LINE('',#1030,#194);
#131=LINE('',#1031,#195);
#132=LINE('',#1034,#196);
#133=LINE('',#1035,#197);
#134=LINE('',#1039,#198);
#135=LINE('',#1044,#199);
#136=LINE('',#1045,#200);
#137=LINE('',#1048,#201);
#138=LINE('',#1049,#202);
#139=LINE('',#1053,#203);
#140=LINE('',#1055,#204);
#141=LINE('',#1062,#205);
#142=LINE('',#1065,#206);
#143=LINE('',#1068,#207);
#144=LINE('',#1070,#208);
#145=LINE('',#1071,#209);
#146=LINE('',#1074,#210);
#147=LINE('',#1078,#211);
#148=LINE('',#1082,#212);
#149=LINE('',#1086,#213);
#150=LINE('',#1090,#214);
#151=LINE('',#1094,#215);
#152=LINE('',#1098,#216);
#153=LINE('',#1102,#217);
#154=LINE('',#1105,#218);
#155=LINE('',#1108,#219);
#156=LINE('',#1109,#220);
#157=LINE('',#1112,#221);
#158=LINE('',#1115,#222);
#159=LINE('',#1117,#223);
#160=LINE('',#1121,#224);
#161=LINE('',#1124,#225);
#162=LINE('',#1128,#226);
#163=LINE('',#1132,#227);
#164=LINE('',#1136,#228);
#165=LINE('',#1139,#229);
#166=LINE('',#1140,#230);
#167=LINE('',#1142,#231);
#168=LINE('',#1144,#232);
#169=LINE('',#1146,#233);
#170=LINE('',#1147,#234);
#171=LINE('',#1149,#235);
#172=LINE('',#1151,#236);
#173=VECTOR('',#762,10.);
#174=VECTOR('',#765,10.);
#175=VECTOR('',#768,10.);
#176=VECTOR('',#769,10.);
#177=VECTOR('',#770,10.);
#178=VECTOR('',#773,10.);
#179=VECTOR('',#776,10.);
#180=VECTOR('',#779,10.);
#181=VECTOR('',#782,10.);
#182=VECTOR('',#785,10.);
#183=VECTOR('',#788,10.);
#184=VECTOR('',#791,10.);
#185=VECTOR('',#798,10.);
#186=VECTOR('',#799,10.);
#187=VECTOR('',#802,10.);
#188=VECTOR('',#803,10.);
#189=VECTOR('',#808,10.);
#190=VECTOR('',#811,10.);
#191=VECTOR('',#812,10.);
#192=VECTOR('',#815,10.);
#193=VECTOR('',#820,10.);
#194=VECTOR('',#825,10.);
#195=VECTOR('',#826,10.);
#196=VECTOR('',#829,10.);
#197=VECTOR('',#830,10.);
#198=VECTOR('',#835,10.);
#199=VECTOR('',#840,10.);
#200=VECTOR('',#841,10.);
#201=VECTOR('',#844,10.);
#202=VECTOR('',#845,10.);
#203=VECTOR('',#852,10.);
#204=VECTOR('',#855,10.);
#205=VECTOR('',#862,10.);
#206=VECTOR('',#865,10.);
#207=VECTOR('',#868,10.);
#208=VECTOR('',#869,10.);
#209=VECTOR('',#870,10.);
#210=VECTOR('',#873,10.);
#211=VECTOR('',#876,10.);
#212=VECTOR('',#879,10.);
#213=VECTOR('',#882,10.);
#214=VECTOR('',#885,10.);
#215=VECTOR('',#888,10.);
#216=VECTOR('',#891,10.);
#217=VECTOR('',#896,10.);
#218=VECTOR('',#899,10.);
#219=VECTOR('',#902,10.);
#220=VECTOR('',#903,10.);
#221=VECTOR('',#906,10.);
#222=VECTOR('',#909,10.);
#223=VECTOR('',#912,10.);
#224=VECTOR('',#917,10.);
#225=VECTOR('',#920,10.);
#226=VECTOR('',#925,10.);
#227=VECTOR('',#928,10.);
#228=VECTOR('',#931,10.);
#229=VECTOR('',#934,10.);
#230=VECTOR('',#935,10.);
#231=VECTOR('',#938,10.);
#232=VECTOR('',#941,10.);
#233=VECTOR('',#944,10.);
#234=VECTOR('',#945,10.);
#235=VECTOR('',#948,10.);
#236=VECTOR('',#951,10.);
#237=CIRCLE('',#689,5.);
#238=CIRCLE('',#690,5.);
#239=CIRCLE('',#693,15.);
#240=CIRCLE('',#694,15.);
#241=CIRCLE('',#695,5.);
#242=CIRCLE('',#696,15.);
#243=CIRCLE('',#697,15.);
#244=CIRCLE('',#698,15.);
#245=CIRCLE('',#699,15.);
#246=CIRCLE('',#701,5.);
#247=CIRCLE('',#704,15.);
#248=CIRCLE('',#707,15.);
#249=CIRCLE('',#710,15.);
#250=CIRCLE('',#713,15.);
#251=CIRCLE('',#715,15.);
#252=CIRCLE('',#718,15.);
#253=CIRCLE('',#723,5.);
#254=CIRCLE('',#724,5.);
#255=CIRCLE('',#727,15.);
#256=CIRCLE('',#728,15.);
#257=CIRCLE('',#729,5.);
#258=CIRCLE('',#730,15.);
#259=CIRCLE('',#731,15.);
#260=CIRCLE('',#732,15.);
#261=CIRCLE('',#733,15.);
#262=CIRCLE('',#735,5.);
#263=CIRCLE('',#738,15.);
#264=CIRCLE('',#741,15.);
#265=CIRCLE('',#743,15.);
#266=CIRCLE('',#745,15.);
#267=CIRCLE('',#746,15.);
#268=CIRCLE('',#747,15.);
#269=VERTEX_POINT('',#960);
#270=VERTEX_POINT('',#961);
#271=VERTEX_POINT('',#963);
#272=VERTEX_POINT('',#965);
#273=VERTEX_POINT('',#969);
#274=VERTEX_POINT('',#971);
#275=VERTEX_POINT('',#975);
#276=VERTEX_POINT('',#977);
#277=VERTEX_POINT('',#979);
#278=VERTEX_POINT('',#981);
#279=VERTEX_POINT('',#983);
#280=VERTEX_POINT('',#985);
#281=VERTEX_POINT('',#987);
#282=VERTEX_POINT('',#989);
#283=VERTEX_POINT('',#991);
#284=VERTEX_POINT('',#993);
#285=VERTEX_POINT('',#995);
#286=VERTEX_POINT('',#997);
#287=VERTEX_POINT('',#999);
#288=VERTEX_POINT('',#1003);
#289=VERTEX_POINT('',#1004);
#290=VERTEX_POINT('',#1009);
#291=VERTEX_POINT('',#1013);
#292=VERTEX_POINT('',#1017);
#293=VERTEX_POINT('',#1021);
#294=VERTEX_POINT('',#1027);
#295=VERTEX_POINT('',#1028);
#296=VERTEX_POINT('',#1033);
#297=VERTEX_POINT('',#1037);
#298=VERTEX_POINT('',#1041);
#299=VERTEX_POINT('',#1042);
#300=VERTEX_POINT('',#1047);
#301=VERTEX_POINT('',#1058);
#302=VERTEX_POINT('',#1059);
#303=VERTEX_POINT('',#1061);
#304=VERTEX_POINT('',#1063);
#305=VERTEX_POINT('',#1067);
#306=VERTEX_POINT('',#1069);
#307=VERTEX_POINT('',#1073);
#308=VERTEX_POINT('',#1075);
#309=VERTEX_POINT('',#1077);
#310=VERTEX_POINT('',#1079);
#311=VERTEX_POINT('',#1081);
#312=VERTEX_POINT('',#1083);
#313=VERTEX_POINT('',#1085);
#314=VERTEX_POINT('',#1087);
#315=VERTEX_POINT('',#1089);
#316=VERTEX_POINT('',#1091);
#317=VERTEX_POINT('',#1093);
#318=VERTEX_POINT('',#1095);
#319=VERTEX_POINT('',#1097);
#320=VERTEX_POINT('',#1101);
#321=VERTEX_POINT('',#1103);
#322=VERTEX_POINT('',#1107);
#323=VERTEX_POINT('',#1111);
#324=VERTEX_POINT('',#1113);
#325=VERTEX_POINT('',#1119);
#326=VERTEX_POINT('',#1123);
#327=VERTEX_POINT('',#1127);
#328=VERTEX_POINT('',#1129);
#329=VERTEX_POINT('',#1131);
#330=VERTEX_POINT('',#1133);
#331=VERTEX_POINT('',#1135);
#332=VERTEX_POINT('',#1137);
#333=EDGE_CURVE('',#269,#270,#237,.T.);
#334=EDGE_CURVE('',#270,#271,#109,.T.);
#335=EDGE_CURVE('',#271,#272,#238,.T.);
#336=EDGE_CURVE('',#272,#269,#110,.T.);
#337=EDGE_CURVE('',#272,#273,#111,.T.);
#338=EDGE_CURVE('',#274,#273,#112,.T.);
#339=EDGE_CURVE('',#269,#274,#113,.T.);
#340=EDGE_CURVE('',#271,#275,#114,.T.);
#341=EDGE_CURVE('',#276,#275,#239,.T.);
#342=EDGE_CURVE('',#276,#277,#115,.T.);
#343=EDGE_CURVE('',#278,#277,#240,.T.);
#344=EDGE_CURVE('',#278,#279,#116,.T.);
#345=EDGE_CURVE('',#280,#279,#241,.T.);
#346=EDGE_CURVE('',#281,#280,#117,.T.);
#347=EDGE_CURVE('',#282,#281,#242,.T.);
#348=EDGE_CURVE('',#282,#283,#118,.T.);
#349=EDGE_CURVE('',#284,#283,#243,.T.);
#350=EDGE_CURVE('',#284,#285,#119,.T.);
#351=EDGE_CURVE('',#286,#285,#244,.T.);
#352=EDGE_CURVE('',#286,#287,#120,.T.);
#353=EDGE_CURVE('',#273,#287,#245,.T.);
#354=EDGE_CURVE('',#288,#289,#246,.T.);
#355=EDGE_CURVE('',#289,#280,#121,.T.);
#356=EDGE_CURVE('',#279,#288,#122,.T.);
#357=EDGE_CURVE('',#290,#278,#123,.T.);
#358=EDGE_CURVE('',#288,#290,#124,.T.);
#359=EDGE_CURVE('',#291,#290,#247,.T.);
#360=EDGE_CURVE('',#277,#291,#125,.T.);
#361=EDGE_CURVE('',#292,#276,#126,.T.);
#362=EDGE_CURVE('',#291,#292,#127,.T.);
#363=EDGE_CURVE('',#275,#293,#128,.T.);
#364=EDGE_CURVE('',#293,#292,#248,.T.);
#365=EDGE_CURVE('',#293,#270,#129,.T.);
#366=EDGE_CURVE('',#294,#295,#249,.T.);
#367=EDGE_CURVE('',#295,#282,#130,.T.);
#368=EDGE_CURVE('',#281,#294,#131,.T.);
#369=EDGE_CURVE('',#296,#295,#132,.T.);
#370=EDGE_CURVE('',#283,#296,#133,.T.);
#371=EDGE_CURVE('',#296,#297,#250,.T.);
#372=EDGE_CURVE('',#297,#284,#134,.T.);
#373=EDGE_CURVE('',#298,#299,#251,.T.);
#374=EDGE_CURVE('',#299,#286,#135,.T.);
#375=EDGE_CURVE('',#285,#298,#136,.T.);
#376=EDGE_CURVE('',#300,#299,#137,.T.);
#377=EDGE_CURVE('',#287,#300,#138,.T.);
#378=EDGE_CURVE('',#300,#274,#252,.T.);
#379=EDGE_CURVE('',#298,#297,#139,.T.);
#380=EDGE_CURVE('',#294,#289,#140,.T.);
#381=EDGE_CURVE('',#301,#302,#253,.T.);
#382=EDGE_CURVE('',#302,#303,#141,.T.);
#383=EDGE_CURVE('',#303,#304,#254,.T.);
#384=EDGE_CURVE('',#304,#301,#142,.T.);
#385=EDGE_CURVE('',#305,#302,#143,.T.);
#386=EDGE_CURVE('',#306,#305,#144,.T.);
#387=EDGE_CURVE('',#306,#303,#145,.T.);
#388=EDGE_CURVE('',#301,#307,#146,.T.);
#389=EDGE_CURVE('',#308,#307,#255,.T.);
#390=EDGE_CURVE('',#308,#309,#147,.T.);
#391=EDGE_CURVE('',#310,#309,#256,.T.);
#392=EDGE_CURVE('',#310,#311,#148,.T.);
#393=EDGE_CURVE('',#312,#311,#257,.T.);
#394=EDGE_CURVE('',#312,#313,#149,.T.);
#395=EDGE_CURVE('',#314,#313,#258,.T.);
#396=EDGE_CURVE('',#314,#315,#150,.T.);
#397=EDGE_CURVE('',#316,#315,#259,.T.);
#398=EDGE_CURVE('',#316,#317,#151,.T.);
#399=EDGE_CURVE('',#318,#317,#260,.T.);
#400=EDGE_CURVE('',#318,#319,#152,.T.);
#401=EDGE_CURVE('',#305,#319,#261,.T.);
#402=EDGE_CURVE('',#311,#320,#153,.T.);
#403=EDGE_CURVE('',#320,#321,#262,.T.);
#404=EDGE_CURVE('',#321,#312,#154,.T.);
#405=EDGE_CURVE('',#322,#310,#155,.T.);
#406=EDGE_CURVE('',#320,#322,#156,.T.);
#407=EDGE_CURVE('',#307,#323,#157,.T.);
#408=EDGE_CURVE('',#323,#324,#263,.T.);
#409=EDGE_CURVE('',#324,#308,#158,.T.);
#410=EDGE_CURVE('',#304,#323,#159,.T.);
#411=EDGE_CURVE('',#325,#322,#264,.T.);
#412=EDGE_CURVE('',#309,#325,#160,.T.);
#413=EDGE_CURVE('',#319,#326,#161,.T.);
#414=EDGE_CURVE('',#326,#306,#265,.T.);
#415=EDGE_CURVE('',#326,#327,#162,.T.);
#416=EDGE_CURVE('',#328,#327,#266,.T.);
#417=EDGE_CURVE('',#328,#329,#163,.T.);
#418=EDGE_CURVE('',#330,#329,#267,.T.);
#419=EDGE_CURVE('',#330,#331,#164,.T.);
#420=EDGE_CURVE('',#332,#331,#268,.T.);
#421=EDGE_CURVE('',#321,#332,#165,.T.);
#422=EDGE_CURVE('',#325,#324,#166,.T.);
#423=EDGE_CURVE('',#327,#318,#167,.T.);
#424=EDGE_CURVE('',#317,#328,#168,.T.);
#425=EDGE_CURVE('',#315,#330,#169,.T.);
#426=EDGE_CURVE('',#329,#316,#170,.T.);
#427=EDGE_CURVE('',#331,#314,#171,.T.);
#428=EDGE_CURVE('',#313,#332,#172,.T.);
#429=ORIENTED_EDGE('',*,*,#333,.T.);
#430=ORIENTED_EDGE('',*,*,#334,.T.);
#431=ORIENTED_EDGE('',*,*,#335,.T.);
#432=ORIENTED_EDGE('',*,*,#336,.T.);
#433=ORIENTED_EDGE('',*,*,#336,.F.);
#434=ORIENTED_EDGE('',*,*,#337,.T.);
#435=ORIENTED_EDGE('',*,*,#338,.F.);
#436=ORIENTED_EDGE('',*,*,#339,.F.);
#437=ORIENTED_EDGE('',*,*,#335,.F.);
#438=ORIENTED_EDGE('',*,*,#340,.T.);
#439=ORIENTED_EDGE('',*,*,#341,.F.);
#440=ORIENTED_EDGE('',*,*,#342,.T.);
#441=ORIENTED_EDGE('',*,*,#343,.F.);
#442=ORIENTED_EDGE('',*,*,#344,.T.);
#443=ORIENTED_EDGE('',*,*,#345,.F.);
#444=ORIENTED_EDGE('',*,*,#346,.F.);
#445=ORIENTED_EDGE('',*,*,#347,.F.);
#446=ORIENTED_EDGE('',*,*,#348,.T.);
#447=ORIENTED_EDGE('',*,*,#349,.F.);
#448=ORIENTED_EDGE('',*,*,#350,.T.);
#449=ORIENTED_EDGE('',*,*,#351,.F.);
#450=ORIENTED_EDGE('',*,*,#352,.T.);
#451=ORIENTED_EDGE('',*,*,#353,.F.);
#452=ORIENTED_EDGE('',*,*,#337,.F.);
#453=ORIENTED_EDGE('',*,*,#354,.T.);
#454=ORIENTED_EDGE('',*,*,#355,.T.);
#455=ORIENTED_EDGE('',*,*,#345,.T.);
#456=ORIENTED_EDGE('',*,*,#356,.T.);
#457=ORIENTED_EDGE('',*,*,#356,.F.);
#458=ORIENTED_EDGE('',*,*,#344,.F.);
#459=ORIENTED_EDGE('',*,*,#357,.F.);
#460=ORIENTED_EDGE('',*,*,#358,.F.);
#461=ORIENTED_EDGE('',*,*,#359,.T.);
#462=ORIENTED_EDGE('',*,*,#357,.T.);
#463=ORIENTED_EDGE('',*,*,#343,.T.);
#464=ORIENTED_EDGE('',*,*,#360,.T.);
#465=ORIENTED_EDGE('',*,*,#360,.F.);
#466=ORIENTED_EDGE('',*,*,#342,.F.);
#467=ORIENTED_EDGE('',*,*,#361,.F.);
#468=ORIENTED_EDGE('',*,*,#362,.F.);
#469=ORIENTED_EDGE('',*,*,#341,.T.);
#470=ORIENTED_EDGE('',*,*,#363,.T.);
#471=ORIENTED_EDGE('',*,*,#364,.T.);
#472=ORIENTED_EDGE('',*,*,#361,.T.);
#473=ORIENTED_EDGE('',*,*,#334,.F.);
#474=ORIENTED_EDGE('',*,*,#365,.F.);
#475=ORIENTED_EDGE('',*,*,#363,.F.);
#476=ORIENTED_EDGE('',*,*,#340,.F.);
#477=ORIENTED_EDGE('',*,*,#366,.T.);
#478=ORIENTED_EDGE('',*,*,#367,.T.);
#479=ORIENTED_EDGE('',*,*,#347,.T.);
#480=ORIENTED_EDGE('',*,*,#368,.T.);
#481=ORIENTED_EDGE('',*,*,#367,.F.);
#482=ORIENTED_EDGE('',*,*,#369,.F.);
#483=ORIENTED_EDGE('',*,*,#370,.F.);
#484=ORIENTED_EDGE('',*,*,#348,.F.);
#485=ORIENTED_EDGE('',*,*,#349,.T.);
#486=ORIENTED_EDGE('',*,*,#370,.T.);
#487=ORIENTED_EDGE('',*,*,#371,.T.);
#488=ORIENTED_EDGE('',*,*,#372,.T.);
#489=ORIENTED_EDGE('',*,*,#373,.T.);
#490=ORIENTED_EDGE('',*,*,#374,.T.);
#491=ORIENTED_EDGE('',*,*,#351,.T.);
#492=ORIENTED_EDGE('',*,*,#375,.T.);
#493=ORIENTED_EDGE('',*,*,#374,.F.);
#494=ORIENTED_EDGE('',*,*,#376,.F.);
#495=ORIENTED_EDGE('',*,*,#377,.F.);
#496=ORIENTED_EDGE('',*,*,#352,.F.);
#497=ORIENTED_EDGE('',*,*,#378,.T.);
#498=ORIENTED_EDGE('',*,*,#338,.T.);
#499=ORIENTED_EDGE('',*,*,#353,.T.);
#500=ORIENTED_EDGE('',*,*,#377,.T.);
#501=ORIENTED_EDGE('',*,*,#372,.F.);
#502=ORIENTED_EDGE('',*,*,#379,.F.);
#503=ORIENTED_EDGE('',*,*,#375,.F.);
#504=ORIENTED_EDGE('',*,*,#350,.F.);
#505=ORIENTED_EDGE('',*,*,#333,.F.);
#506=ORIENTED_EDGE('',*,*,#339,.T.);
#507=ORIENTED_EDGE('',*,*,#378,.F.);
#508=ORIENTED_EDGE('',*,*,#376,.T.);
#509=ORIENTED_EDGE('',*,*,#373,.F.);
#510=ORIENTED_EDGE('',*,*,#379,.T.);
#511=ORIENTED_EDGE('',*,*,#371,.F.);
#512=ORIENTED_EDGE('',*,*,#369,.T.);
#513=ORIENTED_EDGE('',*,*,#366,.F.);
#514=ORIENTED_EDGE('',*,*,#380,.T.);
#515=ORIENTED_EDGE('',*,*,#354,.F.);
#516=ORIENTED_EDGE('',*,*,#358,.T.);
#517=ORIENTED_EDGE('',*,*,#359,.F.);
#518=ORIENTED_EDGE('',*,*,#362,.T.);
#519=ORIENTED_EDGE('',*,*,#364,.F.);
#520=ORIENTED_EDGE('',*,*,#365,.T.);
#521=ORIENTED_EDGE('',*,*,#355,.F.);
#522=ORIENTED_EDGE('',*,*,#380,.F.);
#523=ORIENTED_EDGE('',*,*,#368,.F.);
#524=ORIENTED_EDGE('',*,*,#346,.T.);
#525=ORIENTED_EDGE('',*,*,#381,.T.);
#526=ORIENTED_EDGE('',*,*,#382,.T.);
#527=ORIENTED_EDGE('',*,*,#383,.T.);
#528=ORIENTED_EDGE('',*,*,#384,.T.);
#529=ORIENTED_EDGE('',*,*,#382,.F.);
#530=ORIENTED_EDGE('',*,*,#385,.F.);
#531=ORIENTED_EDGE('',*,*,#386,.F.);
#532=ORIENTED_EDGE('',*,*,#387,.T.);
#533=ORIENTED_EDGE('',*,*,#381,.F.);
#534=ORIENTED_EDGE('',*,*,#388,.T.);
#535=ORIENTED_EDGE('',*,*,#389,.F.);
#536=ORIENTED_EDGE('',*,*,#390,.T.);
#537=ORIENTED_EDGE('',*,*,#391,.F.);
#538=ORIENTED_EDGE('',*,*,#392,.T.);
#539=ORIENTED_EDGE('',*,*,#393,.F.);
#540=ORIENTED_EDGE('',*,*,#394,.T.);
#541=ORIENTED_EDGE('',*,*,#395,.F.);
#542=ORIENTED_EDGE('',*,*,#396,.T.);
#543=ORIENTED_EDGE('',*,*,#397,.F.);
#544=ORIENTED_EDGE('',*,*,#398,.T.);
#545=ORIENTED_EDGE('',*,*,#399,.F.);
#546=ORIENTED_EDGE('',*,*,#400,.T.);
#547=ORIENTED_EDGE('',*,*,#401,.F.);
#548=ORIENTED_EDGE('',*,*,#385,.T.);
#549=ORIENTED_EDGE('',*,*,#393,.T.);
#550=ORIENTED_EDGE('',*,*,#402,.T.);
#551=ORIENTED_EDGE('',*,*,#403,.T.);
#552=ORIENTED_EDGE('',*,*,#404,.T.);
#553=ORIENTED_EDGE('',*,*,#402,.F.);
#554=ORIENTED_EDGE('',*,*,#392,.F.);
#555=ORIENTED_EDGE('',*,*,#405,.F.);
#556=ORIENTED_EDGE('',*,*,#406,.F.);
#557=ORIENTED_EDGE('',*,*,#389,.T.);
#558=ORIENTED_EDGE('',*,*,#407,.T.);
#559=ORIENTED_EDGE('',*,*,#408,.T.);
#560=ORIENTED_EDGE('',*,*,#409,.T.);
#561=ORIENTED_EDGE('',*,*,#384,.F.);
#562=ORIENTED_EDGE('',*,*,#410,.T.);
#563=ORIENTED_EDGE('',*,*,#407,.F.);
#564=ORIENTED_EDGE('',*,*,#388,.F.);
#565=ORIENTED_EDGE('',*,*,#411,.T.);
#566=ORIENTED_EDGE('',*,*,#405,.T.);
#567=ORIENTED_EDGE('',*,*,#391,.T.);
#568=ORIENTED_EDGE('',*,*,#412,.T.);
#569=ORIENTED_EDGE('',*,*,#401,.T.);
#570=ORIENTED_EDGE('',*,*,#413,.T.);
#571=ORIENTED_EDGE('',*,*,#414,.T.);
#572=ORIENTED_EDGE('',*,*,#386,.T.);
#573=ORIENTED_EDGE('',*,*,#383,.F.);
#574=ORIENTED_EDGE('',*,*,#387,.F.);
#575=ORIENTED_EDGE('',*,*,#414,.F.);
#576=ORIENTED_EDGE('',*,*,#415,.T.);
#577=ORIENTED_EDGE('',*,*,#416,.F.);
#578=ORIENTED_EDGE('',*,*,#417,.T.);
#579=ORIENTED_EDGE('',*,*,#418,.F.);
#580=ORIENTED_EDGE('',*,*,#419,.T.);
#581=ORIENTED_EDGE('',*,*,#420,.F.);
#582=ORIENTED_EDGE('',*,*,#421,.F.);
#583=ORIENTED_EDGE('',*,*,#403,.F.);
#584=ORIENTED_EDGE('',*,*,#406,.T.);
#585=ORIENTED_EDGE('',*,*,#411,.F.);
#586=ORIENTED_EDGE('',*,*,#422,.T.);
#587=ORIENTED_EDGE('',*,*,#408,.F.);
#588=ORIENTED_EDGE('',*,*,#410,.F.);
#589=ORIENTED_EDGE('',*,*,#413,.F.);
#590=ORIENTED_EDGE('',*,*,#400,.F.);
#591=ORIENTED_EDGE('',*,*,#423,.F.);
#592=ORIENTED_EDGE('',*,*,#415,.F.);
#593=ORIENTED_EDGE('',*,*,#416,.T.);
#594=ORIENTED_EDGE('',*,*,#423,.T.);
#595=ORIENTED_EDGE('',*,*,#399,.T.);
#596=ORIENTED_EDGE('',*,*,#424,.T.);
#597=ORIENTED_EDGE('',*,*,#397,.T.);
#598=ORIENTED_EDGE('',*,*,#425,.T.);
#599=ORIENTED_EDGE('',*,*,#418,.T.);
#600=ORIENTED_EDGE('',*,*,#426,.T.);
#601=ORIENTED_EDGE('',*,*,#425,.F.);
#602=ORIENTED_EDGE('',*,*,#396,.F.);
#603=ORIENTED_EDGE('',*,*,#427,.F.);
#604=ORIENTED_EDGE('',*,*,#419,.F.);
#605=ORIENTED_EDGE('',*,*,#395,.T.);
#606=ORIENTED_EDGE('',*,*,#428,.T.);
#607=ORIENTED_EDGE('',*,*,#420,.T.);
#608=ORIENTED_EDGE('',*,*,#427,.T.);
#609=ORIENTED_EDGE('',*,*,#404,.F.);
#610=ORIENTED_EDGE('',*,*,#421,.T.);
#611=ORIENTED_EDGE('',*,*,#428,.F.);
#612=ORIENTED_EDGE('',*,*,#394,.F.);
#613=ORIENTED_EDGE('',*,*,#424,.F.);
#614=ORIENTED_EDGE('',*,*,#398,.F.);
#615=ORIENTED_EDGE('',*,*,#426,.F.);
#616=ORIENTED_EDGE('',*,*,#417,.F.);
#617=ORIENTED_EDGE('',*,*,#409,.F.);
#618=ORIENTED_EDGE('',*,*,#422,.F.);
#619=ORIENTED_EDGE('',*,*,#412,.F.);
#620=ORIENTED_EDGE('',*,*,#390,.F.);
#621=CYLINDRICAL_SURFACE('',#688,5.);
#622=CYLINDRICAL_SURFACE('',#700,5.);
#623=CYLINDRICAL_SURFACE('',#703,15.);
#624=CYLINDRICAL_SURFACE('',#706,15.);
#625=CYLINDRICAL_SURFACE('',#709,15.);
#626=CYLINDRICAL_SURFACE('',#712,15.);
#627=CYLINDRICAL_SURFACE('',#714,15.);
#628=CYLINDRICAL_SURFACE('',#717,15.);
#629=CYLINDRICAL_SURFACE('',#722,5.);
#630=CYLINDRICAL_SURFACE('',#734,5.);
#631=CYLINDRICAL_SURFACE('',#737,15.);
#632=CYLINDRICAL_SURFACE('',#740,15.);
#633=CYLINDRICAL_SURFACE('',#742,15.);
#634=CYLINDRICAL_SURFACE('',#749,15.);
#635=CYLINDRICAL_SURFACE('',#750,15.);
#636=CYLINDRICAL_SURFACE('',#752,15.);
#637=ADVANCED_FACE('',(#37),#621,.T.);
#638=ADVANCED_FACE('',(#38),#17,.T.);
#639=ADVANCED_FACE('',(#39),#18,.F.);
#640=ADVANCED_FACE('',(#40),#622,.T.);
#641=ADVANCED_FACE('',(#41),#19,.T.);
#642=ADVANCED_FACE('',(#42),#623,.T.);
#643=ADVANCED_FACE('',(#43),#20,.T.);
#644=ADVANCED_FACE('',(#44),#624,.F.);
#645=ADVANCED_FACE('',(#45),#21,.T.);
#646=ADVANCED_FACE('',(#46),#625,.T.);
#647=ADVANCED_FACE('',(#47),#22,.T.);
#648=ADVANCED_FACE('',(#48),#626,.F.);
#649=ADVANCED_FACE('',(#49),#627,.T.);
#650=ADVANCED_FACE('',(#50),#23,.T.);
#651=ADVANCED_FACE('',(#51),#628,.T.);
#652=ADVANCED_FACE('',(#52),#24,.T.);
#653=ADVANCED_FACE('',(#53),#25,.T.);
#654=ADVANCED_FACE('',(#54),#26,.T.);
#655=ADVANCED_FACE('',(#55),#629,.T.);
#656=ADVANCED_FACE('',(#56),#27,.T.);
#657=ADVANCED_FACE('',(#57),#28,.T.);
#658=ADVANCED_FACE('',(#58),#630,.T.);
#659=ADVANCED_FACE('',(#59),#29,.T.);
#660=ADVANCED_FACE('',(#60),#631,.T.);
#661=ADVANCED_FACE('',(#61),#30,.T.);
#662=ADVANCED_FACE('',(#62),#632,.F.);
#663=ADVANCED_FACE('',(#63),#633,.T.);
#664=ADVANCED_FACE('',(#64),#31,.T.);
#665=ADVANCED_FACE('',(#65),#32,.T.);
#666=ADVANCED_FACE('',(#66),#634,.F.);
#667=ADVANCED_FACE('',(#67),#635,.T.);
#668=ADVANCED_FACE('',(#68),#33,.T.);
#669=ADVANCED_FACE('',(#69),#636,.T.);
#670=ADVANCED_FACE('',(#70),#34,.T.);
#671=ADVANCED_FACE('',(#71),#35,.T.);
#672=ADVANCED_FACE('',(#72),#36,.T.);
#673=CLOSED_SHELL('',(#637,#638,#639,#640,#641,#642,#643,#644,#645,#646,
#647,#648,#649,#650,#651,#652,#653,#654));
#674=CLOSED_SHELL('',(#655,#656,#657,#658,#659,#660,#661,#662,#663,#664,
#665,#666,#667,#668,#669,#670,#671,#672));
#675=DERIVED_UNIT_ELEMENT(#677,1.);
#676=DERIVED_UNIT_ELEMENT(#1160,-3.);
#677=(
MASS_UNIT()
NAMED_UNIT(*)
SI_UNIT(.KILO.,.GRAM.)
);
#678=DERIVED_UNIT((#675,#676));
#679=MEASURE_REPRESENTATION_ITEM('density measure',
POSITIVE_RATIO_MEASURE(7850.),#678);
#680=PROPERTY_DEFINITION_REPRESENTATION(#685,#682);
#681=PROPERTY_DEFINITION_REPRESENTATION(#686,#683);
#682=REPRESENTATION('material name',(#684),#1157);
#683=REPRESENTATION('density',(#679),#1157);
#684=DESCRIPTIVE_REPRESENTATION_ITEM('Steel','Steel');
#685=PROPERTY_DEFINITION('material property','material name',#1167);
#686=PROPERTY_DEFINITION('material property','density of part',#1167);
#687=AXIS2_PLACEMENT_3D('',#958,#756,#757);
#688=AXIS2_PLACEMENT_3D('',#959,#758,#759);
#689=AXIS2_PLACEMENT_3D('',#962,#760,#761);
#690=AXIS2_PLACEMENT_3D('',#966,#763,#764);
#691=AXIS2_PLACEMENT_3D('',#968,#766,#767);
#692=AXIS2_PLACEMENT_3D('',#974,#771,#772);
#693=AXIS2_PLACEMENT_3D('',#978,#774,#775);
#694=AXIS2_PLACEMENT_3D('',#982,#777,#778);
#695=AXIS2_PLACEMENT_3D('',#986,#780,#781);
#696=AXIS2_PLACEMENT_3D('',#990,#783,#784);
#697=AXIS2_PLACEMENT_3D('',#994,#786,#787);
#698=AXIS2_PLACEMENT_3D('',#998,#789,#790);
#699=AXIS2_PLACEMENT_3D('',#1001,#792,#793);
#700=AXIS2_PLACEMENT_3D('',#1002,#794,#795);
#701=AXIS2_PLACEMENT_3D('',#1005,#796,#797);
#702=AXIS2_PLACEMENT_3D('',#1008,#800,#801);
#703=AXIS2_PLACEMENT_3D('',#1012,#804,#805);
#704=AXIS2_PLACEMENT_3D('',#1014,#806,#807);
#705=AXIS2_PLACEMENT_3D('',#1016,#809,#810);
#706=AXIS2_PLACEMENT_3D('',#1020,#813,#814);
#707=AXIS2_PLACEMENT_3D('',#1023,#816,#817);
#708=AXIS2_PLACEMENT_3D('',#1024,#818,#819);
#709=AXIS2_PLACEMENT_3D('',#1026,#821,#822);
#710=AXIS2_PLACEMENT_3D('',#1029,#823,#824);
#711=AXIS2_PLACEMENT_3D('',#1032,#827,#828);
#712=AXIS2_PLACEMENT_3D('',#1036,#831,#832);
#713=AXIS2_PLACEMENT_3D('',#1038,#833,#834);
#714=AXIS2_PLACEMENT_3D('',#1040,#836,#837);
#715=AXIS2_PLACEMENT_3D('',#1043,#838,#839);
#716=AXIS2_PLACEMENT_3D('',#1046,#842,#843);
#717=AXIS2_PLACEMENT_3D('',#1050,#846,#847);
#718=AXIS2_PLACEMENT_3D('',#1051,#848,#849);
#719=AXIS2_PLACEMENT_3D('',#1052,#850,#851);
#720=AXIS2_PLACEMENT_3D('',#1054,#853,#854);
#721=AXIS2_PLACEMENT_3D('',#1056,#856,#857);
#722=AXIS2_PLACEMENT_3D('',#1057,#858,#859);
#723=AXIS2_PLACEMENT_3D('',#1060,#860,#861);
#724=AXIS2_PLACEMENT_3D('',#1064,#863,#864);
#725=AXIS2_PLACEMENT_3D('',#1066,#866,#867);
#726=AXIS2_PLACEMENT_3D('',#1072,#871,#872);
#727=AXIS2_PLACEMENT_3D('',#1076,#874,#875);
#728=AXIS2_PLACEMENT_3D('',#1080,#877,#878);
#729=AXIS2_PLACEMENT_3D('',#1084,#880,#881);
#730=AXIS2_PLACEMENT_3D('',#1088,#883,#884);
#731=AXIS2_PLACEMENT_3D('',#1092,#886,#887);
#732=AXIS2_PLACEMENT_3D('',#1096,#889,#890);
#733=AXIS2_PLACEMENT_3D('',#1099,#892,#893);
#734=AXIS2_PLACEMENT_3D('',#1100,#894,#895);
#735=AXIS2_PLACEMENT_3D('',#1104,#897,#898);
#736=AXIS2_PLACEMENT_3D('',#1106,#900,#901);
#737=AXIS2_PLACEMENT_3D('',#1110,#904,#905);
#738=AXIS2_PLACEMENT_3D('',#1114,#907,#908);
#739=AXIS2_PLACEMENT_3D('',#1116,#910,#911);
#740=AXIS2_PLACEMENT_3D('',#1118,#913,#914);
#741=AXIS2_PLACEMENT_3D('',#1120,#915,#916);
#742=AXIS2_PLACEMENT_3D('',#1122,#918,#919);
#743=AXIS2_PLACEMENT_3D('',#1125,#921,#922);
#744=AXIS2_PLACEMENT_3D('',#1126,#923,#924);
#745=AXIS2_PLACEMENT_3D('',#1130,#926,#927);
#746=AXIS2_PLACEMENT_3D('',#1134,#929,#930);
#747=AXIS2_PLACEMENT_3D('',#1138,#932,#933);
#748=AXIS2_PLACEMENT_3D('',#1141,#936,#937);
#749=AXIS2_PLACEMENT_3D('',#1143,#939,#940);
#750=AXIS2_PLACEMENT_3D('',#1145,#942,#943);
#751=AXIS2_PLACEMENT_3D('',#1148,#946,#947);
#752=AXIS2_PLACEMENT_3D('',#1150,#949,#950);
#753=AXIS2_PLACEMENT_3D('',#1152,#952,#953);
#754=AXIS2_PLACEMENT_3D('',#1153,#954,#955);
#755=AXIS2_PLACEMENT_3D('',#1154,#956,#957);
#756=DIRECTION('axis',(0.,0.,1.));
#757=DIRECTION('refdir',(1.,0.,0.));
#758=DIRECTION('center_axis',(0.,0.,-1.));
#759=DIRECTION('ref_axis',(-0.943714701841033,0.330760580373616,0.));
#760=DIRECTION('center_axis',(0.,0.,1.));
#761=DIRECTION('ref_axis',(-0.943714701841033,0.330760580373616,0.));
#762=DIRECTION('',(0.,0.,1.));
#763=DIRECTION('center_axis',(0.,0.,-1.));
#764=DIRECTION('ref_axis',(-0.943714701841033,0.330760580373616,0.));
#765=DIRECTION('',(0.,0.,-1.));
#766=DIRECTION('center_axis',(0.,1.,0.));
#767=DIRECTION('ref_axis',(-1.,0.,0.));
#768=DIRECTION('',(1.,0.,0.));
#769=DIRECTION('',(0.,0.,1.));
#770=DIRECTION('',(1.,0.,0.));
#771=DIRECTION('center_axis',(0.,0.,-1.));
#772=DIRECTION('ref_axis',(-1.,0.,0.));
#773=DIRECTION('',(0.781194876941804,-0.624287244976124,0.));
#774=DIRECTION('center_axis',(0.,0.,1.));
#775=DIRECTION('ref_axis',(0.728606464971496,0.684932565441109,0.));
#776=DIRECTION('',(0.574869594065783,-0.818245042648376,0.));
#777=DIRECTION('center_axis',(0.,0.,-1.));
#778=DIRECTION('ref_axis',(-0.763139767137988,-0.646233468502349,0.));
#779=DIRECTION('',(0.712343856480949,-0.70183062781119,0.));
#780=DIRECTION('center_axis',(0.,0.,-1.));
#781=DIRECTION('ref_axis',(0.386114861271105,-0.922450710827194,0.));
#782=DIRECTION('',(0.,-1.,0.));
#783=DIRECTION('center_axis',(0.,0.,-1.));
#784=DIRECTION('ref_axis',(0.926170283400735,0.377105563662751,0.));
#785=DIRECTION('',(-0.698527933539048,0.715582787709198,0.));
#786=DIRECTION('center_axis',(0.,0.,1.));
#787=DIRECTION('ref_axis',(-0.769402235196375,-0.638764589246166,0.));
#788=DIRECTION('',(-0.574869594065783,0.818245042648376,0.));
#789=DIRECTION('center_axis',(0.,0.,-1.));
#790=DIRECTION('ref_axis',(0.735312445566239,0.677728269585531,0.));
#791=DIRECTION('',(-0.768755352848949,0.639542967646497,0.));
#792=DIRECTION('center_axis',(0.,0.,-1.));
#793=DIRECTION('ref_axis',(0.340032827202794,0.940413566695247,0.));
#794=DIRECTION('center_axis',(0.,0.,-1.));
#795=DIRECTION('ref_axis',(0.386114861271105,-0.922450710827194,0.));
#796=DIRECTION('center_axis',(0.,0.,1.));
#797=DIRECTION('ref_axis',(0.386114861271105,-0.922450710827194,0.));
#798=DIRECTION('',(0.,0.,1.));
#799=DIRECTION('',(0.,0.,-1.));
#800=DIRECTION('center_axis',(-0.70183062781119,-0.712343856480949,0.));
#801=DIRECTION('ref_axis',(-0.712343856480949,0.70183062781119,0.));
#802=DIRECTION('',(0.,0.,1.));
#803=DIRECTION('',(-0.712343856480949,0.70183062781119,0.));
#804=DIRECTION('center_axis',(0.,0.,-1.));
#805=DIRECTION('ref_axis',(-0.763139767137988,-0.646233468502349,0.));
#806=DIRECTION('center_axis',(0.,0.,1.));
#807=DIRECTION('ref_axis',(-0.763139767137988,-0.646233468502349,0.));
#808=DIRECTION('',(0.,0.,-1.));
#809=DIRECTION('center_axis',(-0.818245042648376,-0.574869594065783,0.));
#810=DIRECTION('ref_axis',(-0.574869594065783,0.818245042648376,0.));
#811=DIRECTION('',(0.,0.,1.));
#812=DIRECTION('',(-0.574869594065783,0.818245042648376,0.));
#813=DIRECTION('center_axis',(0.,0.,-1.));
#814=DIRECTION('ref_axis',(0.728606464971496,0.684932565441109,0.));
#815=DIRECTION('',(0.,0.,-1.));
#816=DIRECTION('center_axis',(0.,0.,-1.));
#817=DIRECTION('ref_axis',(0.728606464971496,0.684932565441109,0.));
#818=DIRECTION('center_axis',(-0.624287244976124,-0.781194876941804,0.));
#819=DIRECTION('ref_axis',(-0.781194876941804,0.624287244976124,0.));
#820=DIRECTION('',(-0.781194876941804,0.624287244976124,0.));
#821=DIRECTION('center_axis',(0.,0.,-1.));
#822=DIRECTION('ref_axis',(0.926170283400735,0.377105563662751,0.));
#823=DIRECTION('center_axis',(0.,0.,1.));
#824=DIRECTION('ref_axis',(0.926170283400735,0.377105563662751,0.));
#825=DIRECTION('',(0.,0.,1.));
#826=DIRECTION('',(0.,0.,-1.));
#827=DIRECTION('center_axis',(0.715582787709198,0.698527933539048,0.));
#828=DIRECTION('ref_axis',(0.698527933539048,-0.715582787709198,0.));
#829=DIRECTION('',(0.698527933539048,-0.715582787709198,0.));
#830=DIRECTION('',(0.,0.,-1.));
#831=DIRECTION('center_axis',(0.,0.,-1.));
#832=DIRECTION('ref_axis',(-0.769402235196375,-0.638764589246166,0.));
#833=DIRECTION('center_axis',(0.,0.,-1.));
#834=DIRECTION('ref_axis',(-0.769402235196375,-0.638764589246166,0.));
#835=DIRECTION('',(0.,0.,1.));
#836=DIRECTION('center_axis',(0.,0.,-1.));
#837=DIRECTION('ref_axis',(0.735312445566239,0.677728269585531,0.));
#838=DIRECTION('center_axis',(0.,0.,1.));
#839=DIRECTION('ref_axis',(0.735312445566239,0.677728269585531,0.));
#840=DIRECTION('',(0.,0.,1.));
#841=DIRECTION('',(0.,0.,-1.));
#842=DIRECTION('center_axis',(0.639542967646497,0.768755352848949,0.));
#843=DIRECTION('ref_axis',(0.768755352848949,-0.639542967646497,0.));
#844=DIRECTION('',(0.768755352848949,-0.639542967646497,0.));
#845=DIRECTION('',(0.,0.,-1.));
#846=DIRECTION('center_axis',(0.,0.,-1.));
#847=DIRECTION('ref_axis',(0.340032827202794,0.940413566695247,0.));
#848=DIRECTION('center_axis',(0.,0.,1.));
#849=DIRECTION('ref_axis',(0.340032827202794,0.940413566695247,0.));
#850=DIRECTION('center_axis',(0.818245042648376,0.574869594065783,0.));
#851=DIRECTION('ref_axis',(0.574869594065783,-0.818245042648376,0.));
#852=DIRECTION('',(0.574869594065782,-0.818245042648376,0.));
#853=DIRECTION('center_axis',(0.,0.,-1.));
#854=DIRECTION('ref_axis',(-1.,0.,0.));
#855=DIRECTION('',(0.,-1.,0.));
#856=DIRECTION('center_axis',(1.,0.,0.));
#857=DIRECTION('ref_axis',(0.,1.,0.));
#858=DIRECTION('center_axis',(0.,0.,-1.));
#859=DIRECTION('ref_axis',(-0.431987047156768,0.901879809669103,0.));
#860=DIRECTION('center_axis',(0.,0.,1.));
#861=DIRECTION('ref_axis',(-0.431987047156768,0.901879809669103,0.));
#862=DIRECTION('',(0.,0.,1.));
#863=DIRECTION('center_axis',(0.,0.,-1.));
#864=DIRECTION('ref_axis',(-0.431987047156768,0.901879809669103,0.));
#865=DIRECTION('',(0.,0.,-1.));
#866=DIRECTION('center_axis',(-1.,0.,0.));
#867=DIRECTION('ref_axis',(0.,1.,0.));
#868=DIRECTION('',(0.,1.,0.));
#869=DIRECTION('',(0.,0.,-1.));
#870=DIRECTION('',(0.,1.,0.));
#871=DIRECTION('center_axis',(0.,0.,-1.));
#872=DIRECTION('ref_axis',(-1.,0.,0.));
#873=DIRECTION('',(0.779200791738521,-0.62677438217756,0.));
#874=DIRECTION('center_axis',(0.,0.,1.));
#875=DIRECTION('ref_axis',(0.731553851643627,0.681783662275193,0.));
#876=DIRECTION('',(0.570411215976808,-0.821359266513661,0.));
#877=DIRECTION('center_axis',(0.,0.,-1.));
#878=DIRECTION('ref_axis',(-0.766705724774051,-0.641998700620723,0.));
#879=DIRECTION('',(0.708378434597059,-0.70583283672398,0.));
#880=DIRECTION('center_axis',(0.,0.,1.));
#881=DIRECTION('ref_axis',(0.924223575385586,-0.381851781063654,0.));
#882=DIRECTION('',(-1.,0.,0.));
#883=DIRECTION('center_axis',(0.,0.,1.));
#884=DIRECTION('ref_axis',(-0.377267446405681,-0.926104353667845,0.));
#885=DIRECTION('',(-0.715338547765074,0.698778049226903,0.));
#886=DIRECTION('center_axis',(0.,0.,1.));
#887=DIRECTION('ref_axis',(-0.762431481963428,-0.647068957152985,0.));
#888=DIRECTION('',(-0.57316178051548,0.819442233080725,0.));
#889=DIRECTION('center_axis',(0.,0.,-1.));
#890=DIRECTION('ref_axis',(0.730409914430742,0.683009045987882,0.));
#891=DIRECTION('',(-0.779200791738521,0.62677438217756,0.));
#892=DIRECTION('center_axis',(0.,0.,1.));
#893=DIRECTION('ref_axis',(-0.901879809669104,-0.431987047156764,0.));
#894=DIRECTION('center_axis',(0.,0.,-1.));
#895=DIRECTION('ref_axis',(0.924223575385586,-0.381851781063654,0.));
#896=DIRECTION('',(0.,0.,1.));
#897=DIRECTION('center_axis',(0.,0.,-1.));
#898=DIRECTION('ref_axis',(0.924223575385586,-0.381851781063654,0.));
#899=DIRECTION('',(0.,0.,-1.));
#900=DIRECTION('center_axis',(0.70583283672398,0.708378434597059,0.));
#901=DIRECTION('ref_axis',(0.708378434597059,-0.70583283672398,0.));
#902=DIRECTION('',(0.,0.,-1.));
#903=DIRECTION('',(-0.708378434597059,0.70583283672398,0.));
#904=DIRECTION('center_axis',(0.,0.,-1.));
#905=DIRECTION('ref_axis',(0.731553851643627,0.681783662275193,0.));
#906=DIRECTION('',(0.,0.,1.));
#907=DIRECTION('center_axis',(0.,0.,-1.));
#908=DIRECTION('ref_axis',(0.731553851643627,0.681783662275193,0.));
#909=DIRECTION('',(0.,0.,-1.));
#910=DIRECTION('center_axis',(0.62677438217756,0.779200791738521,0.));
#911=DIRECTION('ref_axis',(0.779200791738521,-0.62677438217756,0.));
#912=DIRECTION('',(0.779200791738521,-0.62677438217756,0.));
#913=DIRECTION('center_axis',(0.,0.,-1.));
#914=DIRECTION('ref_axis',(-0.766705724774051,-0.641998700620723,0.));
#915=DIRECTION('center_axis',(0.,0.,1.));
#916=DIRECTION('ref_axis',(-0.766705724774051,-0.641998700620723,0.));
#917=DIRECTION('',(0.,0.,1.));
#918=DIRECTION('center_axis',(0.,0.,-1.));
#919=DIRECTION('ref_axis',(-0.901879809669104,-0.431987047156764,0.));
#920=DIRECTION('',(0.,0.,1.));
#921=DIRECTION('center_axis',(0.,0.,-1.));
#922=DIRECTION('ref_axis',(-0.901879809669104,-0.431987047156764,0.));
#923=DIRECTION('center_axis',(0.,0.,1.));
#924=DIRECTION('ref_axis',(1.,0.,0.));
#925=DIRECTION('',(0.779200791738521,-0.62677438217756,0.));
#926=DIRECTION('center_axis',(0.,0.,1.));
#927=DIRECTION('ref_axis',(0.730409914430742,0.683009045987882,0.));
#928=DIRECTION('',(0.57316178051548,-0.819442233080725,0.));
#929=DIRECTION('center_axis',(0.,0.,-1.));
#930=DIRECTION('ref_axis',(-0.762431481963428,-0.647068957152985,0.));
#931=DIRECTION('',(0.715338547765074,-0.698778049226903,0.));
#932=DIRECTION('center_axis',(0.,0.,-1.));
#933=DIRECTION('ref_axis',(-0.377267446405681,-0.926104353667845,0.));
#934=DIRECTION('',(-1.,0.,0.));
#935=DIRECTION('',(-0.570411215976808,0.821359266513661,0.));
#936=DIRECTION('center_axis',(-0.62677438217756,-0.779200791738521,0.));
#937=DIRECTION('ref_axis',(-0.779200791738521,0.62677438217756,0.));
#938=DIRECTION('',(0.,0.,-1.));
#939=DIRECTION('center_axis',(0.,0.,-1.));
#940=DIRECTION('ref_axis',(0.730409914430742,0.683009045987882,0.));
#941=DIRECTION('',(0.,0.,1.));
#942=DIRECTION('center_axis',(0.,0.,-1.));
#943=DIRECTION('ref_axis',(-0.762431481963428,-0.647068957152985,0.));
#944=DIRECTION('',(0.,0.,1.));
#945=DIRECTION('',(0.,0.,-1.));
#946=DIRECTION('center_axis',(-0.698778049226903,-0.715338547765074,0.));
#947=DIRECTION('ref_axis',(-0.715338547765074,0.698778049226903,0.));
#948=DIRECTION('',(0.,0.,-1.));
#949=DIRECTION('center_axis',(0.,0.,-1.));
#950=DIRECTION('ref_axis',(-0.377267446405681,-0.926104353667845,0.));
#951=DIRECTION('',(0.,0.,1.));
#952=DIRECTION('center_axis',(0.,-1.,0.));
#953=DIRECTION('ref_axis',(1.,0.,0.));
#954=DIRECTION('center_axis',(-0.819442233080725,-0.57316178051548,0.));
#955=DIRECTION('ref_axis',(-0.57316178051548,0.819442233080724,0.));
#956=DIRECTION('center_axis',(0.821359266513661,0.570411215976808,0.));
#957=DIRECTION('ref_axis',(0.570411215976808,-0.821359266513661,0.));
#958=CARTESIAN_POINT('',(0.,0.,0.));
#959=CARTESIAN_POINT('Origin',(24.2658278803208,295.,0.));
#960=CARTESIAN_POINT('',(24.2658278803208,300.,-5.));
#961=CARTESIAN_POINT('',(21.1443916554401,291.094025615291,-5.));
#962=CARTESIAN_POINT('Origin',(24.2658278803208,295.,-5.));
#963=CARTESIAN_POINT('',(21.1443916554401,291.094025615291,0.));
#964=CARTESIAN_POINT('',(21.1443916554402,291.094025615291,0.));
#965=CARTESIAN_POINT('',(24.2658278803208,300.,0.));
#966=CARTESIAN_POINT('Origin',(24.2658278803208,295.,0.));
#967=CARTESIAN_POINT('',(24.2658278803208,300.,0.));
#968=CARTESIAN_POINT('Origin',(300.,300.,0.));
#969=CARTESIAN_POINT('',(44.5763304691937,300.,0.));
#970=CARTESIAN_POINT('',(225.,300.,0.));
#971=CARTESIAN_POINT('',(44.5763304691937,300.,-5.));
#972=CARTESIAN_POINT('',(44.5763304691937,300.,0.));
#973=CARTESIAN_POINT('',(10.,300.,-5.));
#974=CARTESIAN_POINT('Origin',(150.,150.,0.));
#975=CARTESIAN_POINT('',(152.436917870111,186.172383275055,0.));
#976=CARTESIAN_POINT('',(161.351796078612,179.048111316348,0.));
#977=CARTESIAN_POINT('',(155.346284835195,183.077504031915,0.));
#978=CARTESIAN_POINT('Origin',(143.072609195469,174.454460120928,0.));
#979=CARTESIAN_POINT('',(224.316582021846,84.9081029268274,0.));
#980=CARTESIAN_POINT('',(197.117524243726,123.622090275246,0.));
#981=CARTESIAN_POINT('',(226.062798244404,82.8459889905999,0.));
#982=CARTESIAN_POINT('Origin',(236.590257661572,93.5311468378141,0.));
#983=CARTESIAN_POINT('',(291.490846860944,18.3835695856597,0.));
#984=CARTESIAN_POINT('',(226.946335739236,81.9754913102296,0.));
#985=CARTESIAN_POINT('',(300.,21.9452888680644,0.));
#986=CARTESIAN_POINT('Origin',(295.,21.9452888680644,0.));
#987=CARTESIAN_POINT('',(300.,33.8925016745611,0.));
#988=CARTESIAN_POINT('',(300.,75.,0.));
#989=CARTESIAN_POINT('',(295.733741815638,44.3704206776469,0.));
#990=CARTESIAN_POINT('Origin',(285.,33.8925016745611,0.));
#991=CARTESIAN_POINT('',(246.453262931391,94.8541032427367,0.));
#992=CARTESIAN_POINT('',(208.716665983923,133.512055123795,0.));
#993=CARTESIAN_POINT('',(244.913329107304,96.7089783348356,0.));
#994=CARTESIAN_POINT('Origin',(257.187004747029,105.332022245822,0.));
#995=CARTESIAN_POINT('',(176.503036532807,194.081292583207,0.));
#996=CARTESIAN_POINT('',(181.917879760915,186.374033973856,0.));
#997=CARTESIAN_POINT('',(173.822505407778,196.989578964955,0.));
#998=CARTESIAN_POINT('Origin',(164.229360893081,185.458248672221,0.));
#999=CARTESIAN_POINT('',(54.1694749838912,296.531330292734,0.));
#1000=CARTESIAN_POINT('',(116.423145608332,244.741255452286,0.));
#1001=CARTESIAN_POINT('Origin',(44.5763304691937,285.,0.));
#1002=CARTESIAN_POINT('Origin',(295.,21.9452888680644,0.));
#1003=CARTESIAN_POINT('',(291.490846860944,18.3835695856597,-5.));
#1004=CARTESIAN_POINT('',(300.,21.9452888680644,-5.));
#1005=CARTESIAN_POINT('Origin',(295.,21.9452888680644,-5.));
#1006=CARTESIAN_POINT('',(300.,21.9452888680644,0.));
#1007=CARTESIAN_POINT('',(291.490846860944,18.3835695856597,0.));
#1008=CARTESIAN_POINT('Origin',(300.,10.,0.));
#1009=CARTESIAN_POINT('',(226.062798244404,82.8459889905999,-5.));
#1010=CARTESIAN_POINT('',(226.062798244404,82.8459889905999,0.));
#1011=CARTESIAN_POINT('',(300.,10.,-5.));
#1012=CARTESIAN_POINT('Origin',(236.590257661572,93.5311468378141,0.));
#1013=CARTESIAN_POINT('',(224.316582021846,84.9081029268274,-5.));
#1014=CARTESIAN_POINT('Origin',(236.590257661572,93.5311468378141,-5.));
#1015=CARTESIAN_POINT('',(224.316582021846,84.9081029268274,0.));
#1016=CARTESIAN_POINT('Origin',(225.096442277802,83.7980828544818,0.));
#1017=CARTESIAN_POINT('',(155.346284835195,183.077504031915,-5.));
#1018=CARTESIAN_POINT('',(155.346284835195,183.077504031915,0.));
#1019=CARTESIAN_POINT('',(225.096442277802,83.7980828544818,-5.));
#1020=CARTESIAN_POINT('Origin',(143.072609195469,174.454460120928,0.));
#1021=CARTESIAN_POINT('',(152.436917870111,186.172383275055,-5.));
#1022=CARTESIAN_POINT('',(152.436917870111,186.172383275055,0.));
#1023=CARTESIAN_POINT('Origin',(143.072609195469,174.454460120928,-5.));
#1024=CARTESIAN_POINT('Origin',(154.112931523487,184.833006920842,0.));
#1025=CARTESIAN_POINT('',(154.112931523487,184.833006920842,-5.));
#1026=CARTESIAN_POINT('Origin',(285.,33.8925016745611,0.));
#1027=CARTESIAN_POINT('',(300.,33.8925016745611,-5.));
#1028=CARTESIAN_POINT('',(295.733741815638,44.3704206776469,-5.));
#1029=CARTESIAN_POINT('Origin',(285.,33.8925016745611,-5.));
#1030=CARTESIAN_POINT('',(295.733741815638,44.3704206776468,0.));
#1031=CARTESIAN_POINT('',(300.,33.8925016745611,0.));
#1032=CARTESIAN_POINT('Origin',(245.608525315205,95.7194654841738,0.));
#1033=CARTESIAN_POINT('',(246.453262931391,94.8541032427367,-5.));
#1034=CARTESIAN_POINT('',(245.608525315205,95.7194654841738,-5.));
#1035=CARTESIAN_POINT('',(246.453262931391,94.8541032427367,0.));
#1036=CARTESIAN_POINT('Origin',(257.187004747029,105.332022245822,0.));
#1037=CARTESIAN_POINT('',(244.913329107304,96.7089783348356,-5.));
#1038=CARTESIAN_POINT('Origin',(257.187004747029,105.332022245822,-5.));
#1039=CARTESIAN_POINT('',(244.913329107304,96.7089783348356,0.));
#1040=CARTESIAN_POINT('Origin',(164.229360893081,185.458248672221,0.));
#1041=CARTESIAN_POINT('',(176.503036532807,194.081292583207,-5.));
#1042=CARTESIAN_POINT('',(173.822505407778,196.989578964955,-5.));
#1043=CARTESIAN_POINT('Origin',(164.229360893081,185.458248672221,-5.));
#1044=CARTESIAN_POINT('',(173.822505407778,196.989578964955,0.));
#1045=CARTESIAN_POINT('',(176.503036532807,194.081292583207,0.));
#1046=CARTESIAN_POINT('Origin',(50.,300.,0.));
#1047=CARTESIAN_POINT('',(54.1694749838912,296.531330292734,-5.));
#1048=CARTESIAN_POINT('',(50.,300.,-5.));
#1049=CARTESIAN_POINT('',(54.1694749838912,296.531330292734,0.));
#1050=CARTESIAN_POINT('Origin',(44.5763304691937,285.,0.));
#1051=CARTESIAN_POINT('Origin',(44.5763304691937,285.,-5.));
#1052=CARTESIAN_POINT('Origin',(175.356171968209,195.713691051065,0.));
#1053=CARTESIAN_POINT('',(175.356171968209,195.713691051065,-5.));
#1054=CARTESIAN_POINT('Origin',(155.,155.,-5.));
#1055=CARTESIAN_POINT('',(300.,40.,-5.));
#1056=CARTESIAN_POINT('Origin',(300.,0.,0.));
#1057=CARTESIAN_POINT('Origin',(4.99394353286483,281.346912506796,0.));
#1058=CARTESIAN_POINT('',(8.12781544375262,285.242916465489,-5.));
#1059=CARTESIAN_POINT('',(-0.00605646713516705,281.346912506796,-5.));
#1060=CARTESIAN_POINT('Origin',(4.99394353286483,281.346912506796,-5.));
#1061=CARTESIAN_POINT('',(-0.00605646713516705,281.346912506796,0.));
#1062=CARTESIAN_POINT('',(-0.00605646713516705,281.346912506796,0.));
#1063=CARTESIAN_POINT('',(8.12781544375262,285.242916465489,0.));
#1064=CARTESIAN_POINT('Origin',(4.99394353286483,281.346912506796,0.));
#1065=CARTESIAN_POINT('',(8.12781544375262,285.242916465489,0.));
#1066=CARTESIAN_POINT('Origin',(-0.00605646713516705,263.785649218985,0.));
#1067=CARTESIAN_POINT('',(-0.00605646713516705,270.970426655935,-5.));
#1068=CARTESIAN_POINT('',(-0.00605646713516705,263.785649218985,-5.));
#1069=CARTESIAN_POINT('',(-0.00605646713516705,270.970426655935,0.));
#1070=CARTESIAN_POINT('',(-0.00605646713516705,270.970426655935,0.));
#1071=CARTESIAN_POINT('',(-0.00605646713516705,263.785649218985,0.));
#1072=CARTESIAN_POINT('Origin',(144.996971766432,145.892824609493,-5.));
#1073=CARTESIAN_POINT('',(144.035868651343,175.921048488322,-5.));
#1074=CARTESIAN_POINT('',(-0.00605646713516705,291.785649218985,-5.));
#1075=CARTESIAN_POINT('',(146.954641916384,172.789204851896,-5.));
#1076=CARTESIAN_POINT('Origin',(134.63425291868,164.233036612244,-5.));
#1077=CARTESIAN_POINT('',(214.401378111997,75.6697930684128,-5.));
#1078=CARTESIAN_POINT('',(145.721027368088,174.565538682945,-5.));
#1079=CARTESIAN_POINT('',(216.134274558843,73.6002847891091,-5.));
#1080=CARTESIAN_POINT('Origin',(226.721767109702,84.225961308065,-5.));
#1081=CARTESIAN_POINT('',(281.427301350727,8.54189217298527,-5.));
#1082=CARTESIAN_POINT('',(215.174346182988,74.5567636081836,-5.));
#1083=CARTESIAN_POINT('',(277.898137167107,0.,-5.));
#1084=CARTESIAN_POINT('Origin',(277.898137167107,5.00000000000002,-5.));
#1085=CARTESIAN_POINT('',(266.110555115817,0.,-5.));
#1086=CARTESIAN_POINT('',(290.,0.,-5.));
#1087=CARTESIAN_POINT('',(255.628884377413,4.26992178352389,-5.));
#1088=CARTESIAN_POINT('Origin',(266.110555115817,15.,-5.));
#1089=CARTESIAN_POINT('',(195.131455892453,63.3668000267578,-5.));
#1090=CARTESIAN_POINT('',(260.,0.,-5.));
#1091=CARTESIAN_POINT('',(193.321493134646,65.4994515355017,-5.));
#1092=CARTESIAN_POINT('Origin',(205.613126630857,74.0968782432339,-5.));
#1093=CARTESIAN_POINT('',(126.136410097098,161.553124940747,-5.));
#1094=CARTESIAN_POINT('',(194.126616310917,64.3483769944266,-5.));
#1095=CARTESIAN_POINT('',(123.24639233355,164.643710109092,-5.));
#1096=CARTESIAN_POINT('Origin',(113.844776600887,152.955698233014,-5.));
#1097=CARTESIAN_POINT('',(5.59232780020141,259.282414779858,-5.));
#1098=CARTESIAN_POINT('',(124.911555342122,163.304284473251,-5.));
#1099=CARTESIAN_POINT('Origin',(14.9939435328648,270.970426655935,-5.));
#1100=CARTESIAN_POINT('Origin',(277.898137167107,5.00000000000002,0.));
#1101=CARTESIAN_POINT('',(281.427301350727,8.54189217298527,0.));
#1102=CARTESIAN_POINT('',(281.427301350727,8.54189217298527,0.));
#1103=CARTESIAN_POINT('',(277.898137167107,0.,0.));
#1104=CARTESIAN_POINT('Origin',(277.898137167107,5.00000000000002,0.));
#1105=CARTESIAN_POINT('',(277.898137167107,0.,0.));
#1106=CARTESIAN_POINT('Origin',(215.174346182988,74.5567636081836,0.));
#1107=CARTESIAN_POINT('',(216.134274558843,73.6002847891091,0.));
#1108=CARTESIAN_POINT('',(216.134274558843,73.6002847891091,0.));
#1109=CARTESIAN_POINT('',(179.961415631911,109.64315450653,0.));
#1110=CARTESIAN_POINT('Origin',(134.63425291868,164.233036612244,0.));
#1111=CARTESIAN_POINT('',(144.035868651343,175.921048488322,0.));
#1112=CARTESIAN_POINT('',(144.035868651343,175.921048488322,0.));
#1113=CARTESIAN_POINT('',(146.954641916384,172.789204851896,0.));
#1114=CARTESIAN_POINT('Origin',(134.63425291868,164.233036612244,0.));
#1115=CARTESIAN_POINT('',(146.954641916384,172.789204851896,0.));
#1116=CARTESIAN_POINT('Origin',(-0.00605646713516705,291.785649218985,0.));
#1117=CARTESIAN_POINT('',(-0.00605646713516705,291.785649218985,0.));
#1118=CARTESIAN_POINT('Origin',(226.721767109702,84.225961308065,0.));
#1119=CARTESIAN_POINT('',(214.401378111997,75.6697930684128,0.));
#1120=CARTESIAN_POINT('Origin',(226.721767109702,84.225961308065,0.));
#1121=CARTESIAN_POINT('',(214.401378111997,75.6697930684128,0.));
#1122=CARTESIAN_POINT('Origin',(14.9939435328648,270.970426655935,0.));
#1123=CARTESIAN_POINT('',(5.59232780020142,259.282414779858,0.));
#1124=CARTESIAN_POINT('',(5.59232780020143,259.282414779858,0.));
#1125=CARTESIAN_POINT('Origin',(14.9939435328648,270.970426655935,0.));
#1126=CARTESIAN_POINT('Origin',(144.996971766432,145.892824609493,0.));
#1127=CARTESIAN_POINT('',(123.24639233355,164.643710109092,0.));
#1128=CARTESIAN_POINT('',(135.776622336322,154.564630041671,0.));
#1129=CARTESIAN_POINT('',(126.136410097098,161.553124940747,0.));
#1130=CARTESIAN_POINT('Origin',(113.844776600887,152.955698233014,0.));
#1131=CARTESIAN_POINT('',(193.321493134646,65.4994515355017,0.));
#1132=CARTESIAN_POINT('',(166.764375229364,103.46783104071,0.));
#1133=CARTESIAN_POINT('',(195.131455892453,63.3668000267578,0.));
#1134=CARTESIAN_POINT('Origin',(205.613126630857,74.0968782432339,0.));
#1135=CARTESIAN_POINT('',(255.628884377413,4.26992178352389,0.));
#1136=CARTESIAN_POINT('',(194.366276293668,64.1142652780263,0.));
#1137=CARTESIAN_POINT('',(266.110555115817,0.,0.));
#1138=CARTESIAN_POINT('Origin',(266.110555115817,15.,0.));
#1139=CARTESIAN_POINT('',(75.,0.,0.));
#1140=CARTESIAN_POINT('',(152.171781233038,165.276825006616,0.));
#1141=CARTESIAN_POINT('Origin',(124.911555342122,163.304284473251,0.));
#1142=CARTESIAN_POINT('',(123.24639233355,164.643710109092,0.));
#1143=CARTESIAN_POINT('Origin',(113.844776600887,152.955698233014,0.));
#1144=CARTESIAN_POINT('',(126.136410097098,161.553124940747,0.));
#1145=CARTESIAN_POINT('Origin',(205.613126630857,74.0968782432339,0.));
#1146=CARTESIAN_POINT('',(195.131455892453,63.3668000267578,0.));
#1147=CARTESIAN_POINT('',(193.321493134646,65.4994515355017,0.));
#1148=CARTESIAN_POINT('Origin',(260.,0.,0.));
#1149=CARTESIAN_POINT('',(255.628884377413,4.26992178352389,0.));
#1150=CARTESIAN_POINT('Origin',(266.110555115817,15.,0.));
#1151=CARTESIAN_POINT('',(266.110555115817,0.,0.));
#1152=CARTESIAN_POINT('Origin',(0.,0.,0.));
#1153=CARTESIAN_POINT('Origin',(194.126616310917,64.3483769944266,0.));
#1154=CARTESIAN_POINT('Origin',(145.721027368088,174.565538682945,0.));
#1155=UNCERTAINTY_MEASURE_WITH_UNIT(LENGTH_MEASURE(0.01),#1159,
'DISTANCE_ACCURACY_VALUE',
'Maximum model space distance between geometric entities at asserted c
onnectivities');
#1156=UNCERTAINTY_MEASURE_WITH_UNIT(LENGTH_MEASURE(0.01),#1159,
'DISTANCE_ACCURACY_VALUE',
'Maximum model space distance between geometric entities at asserted c
onnectivities');
#1157=(
GEOMETRIC_REPRESENTATION_CONTEXT(3)
GLOBAL_UNCERTAINTY_ASSIGNED_CONTEXT((#1155))
GLOBAL_UNIT_ASSIGNED_CONTEXT((#1159,#1161,#1162))
REPRESENTATION_CONTEXT('','3D')
);
#1158=(
GEOMETRIC_REPRESENTATION_CONTEXT(3)
GLOBAL_UNCERTAINTY_ASSIGNED_CONTEXT((#1156))
GLOBAL_UNIT_ASSIGNED_CONTEXT((#1159,#1161,#1162))
REPRESENTATION_CONTEXT('','3D')
);
#1159=(
LENGTH_UNIT()
NAMED_UNIT(*)
SI_UNIT(.MILLI.,.METRE.)
);
#1160=(
LENGTH_UNIT()
NAMED_UNIT(*)
SI_UNIT($,.METRE.)
);
#1161=(
NAMED_UNIT(*)
PLANE_ANGLE_UNIT()
SI_UNIT($,.RADIAN.)
);
#1162=(
NAMED_UNIT(*)
SI_UNIT($,.STERADIAN.)
SOLID_ANGLE_UNIT()
);
#1163=SHAPE_DEFINITION_REPRESENTATION(#1164,#1165);
#1164=PRODUCT_DEFINITION_SHAPE('',$,#1167);
#1165=SHAPE_REPRESENTATION('',(#687),#1157);
#1166=PRODUCT_DEFINITION_CONTEXT('part definition',#1171,'design');
#1167=PRODUCT_DEFINITION('(Unsaved)','(Unsaved)',#1168,#1166);
#1168=PRODUCT_DEFINITION_FORMATION('',$,#1173);
#1169=PRODUCT_RELATED_PRODUCT_CATEGORY('(Unsaved)','(Unsaved)',(#1173));
#1170=APPLICATION_PROTOCOL_DEFINITION('international standard',
'automotive_design',2009,#1171);
#1171=APPLICATION_CONTEXT(
'Core Data for Automotive Mechanical Design Process');
#1172=PRODUCT_CONTEXT('part definition',#1171,'mechanical');
#1173=PRODUCT('(Unsaved)','(Unsaved)',$,(#1172));
#1174=PRESENTATION_STYLE_ASSIGNMENT((#1175));
#1175=SURFACE_STYLE_USAGE(.BOTH.,#1176);
#1176=SURFACE_SIDE_STYLE('',(#1177));
#1177=SURFACE_STYLE_FILL_AREA(#1178);
#1178=FILL_AREA_STYLE('Steel - Satin',(#1179));
#1179=FILL_AREA_STYLE_COLOUR('Steel - Satin',#1180);
#1180=COLOUR_RGB('Steel - Satin',0.627450980392157,0.627450980392157,0.627450980392157);
ENDSEC;
END-ISO-10303-21;
