ISO-10303-21;
HEADER;
/* Generated by software containing ST-Developer
 * from STEP Tools, Inc. (www.steptools.com) 
 */

FILE_DESCRIPTION(
/* description */ (''),
/* implementation_level */ '2;1');

FILE_NAME(
/* name */ 'cover encoder.step',
/* time_stamp */ '2026-07-02T14:45:04+05:30',
/* author */ (''),
/* organization */ (''),
/* preprocessor_version */ 'ST-DEVELOPER v20.1',
/* originating_system */ 'Autodesk Translation Framework v15.8.0.0',
/* authorisation */ '');

FILE_SCHEMA (('AUTOMOTIVE_DESIGN { 1 0 10303 214 3 1 1 }'));
ENDSEC;

DATA;
#10=MECHANICAL_DESIGN_GEOMETRIC_PRESENTATION_REPRESENTATION('',(#27,#28),
#589);
#11=ITEM_DEFINED_TRANSFORMATION($,$,#369,#393);
#12=(
REPRESENTATION_RELATIONSHIP($,$,#600,#599)
REPRESENTATION_RELATIONSHIP_WITH_TRANSFORMATION(#11)
SHAPE_REPRESENTATION_RELATIONSHIP()
);
#13=CONTEXT_DEPENDENT_SHAPE_REPRESENTATION(#12,#598);
#14=NEXT_ASSEMBLY_USAGE_OCCURRENCE('Component1:1','Component1:1',
'Component1:1',#602,#603,'Component1:1');
#15=CYLINDRICAL_SURFACE('',#388,25.5);
#16=CYLINDRICAL_SURFACE('',#390,30.);
#17=FACE_BOUND('',#66,.T.);
#18=FACE_BOUND('',#70,.T.);
#19=CIRCLE('',#386,30.);
#20=CIRCLE('',#387,25.5);
#21=CIRCLE('',#389,25.5);
#22=CIRCLE('',#391,30.);
#23=SHAPE_REPRESENTATION_RELATIONSHIP('SRR','None',#600,#25);
#24=SHAPE_REPRESENTATION_RELATIONSHIP('SRR','None',#599,#26);
#25=ADVANCED_BREP_SHAPE_REPRESENTATION('',(#29),#588);
#26=ADVANCED_BREP_SHAPE_REPRESENTATION('',(#30),#587);
#27=STYLED_ITEM('',(#613),#29);
#28=STYLED_ITEM('',(#613),#30);
#29=MANIFOLD_SOLID_BREP('Body1',#354);
#30=MANIFOLD_SOLID_BREP('Body1',#355);
#31=FACE_OUTER_BOUND('',#50,.T.);
#32=FACE_OUTER_BOUND('',#51,.T.);
#33=FACE_OUTER_BOUND('',#52,.T.);
#34=FACE_OUTER_BOUND('',#53,.T.);
#35=FACE_OUTER_BOUND('',#54,.T.);
#36=FACE_OUTER_BOUND('',#55,.T.);
#37=FACE_OUTER_BOUND('',#56,.T.);
#38=FACE_OUTER_BOUND('',#57,.T.);
#39=FACE_OUTER_BOUND('',#58,.T.);
#40=FACE_OUTER_BOUND('',#59,.T.);
#41=FACE_OUTER_BOUND('',#60,.T.);
#42=FACE_OUTER_BOUND('',#61,.T.);
#43=FACE_OUTER_BOUND('',#62,.T.);
#44=FACE_OUTER_BOUND('',#63,.T.);
#45=FACE_OUTER_BOUND('',#64,.T.);
#46=FACE_OUTER_BOUND('',#65,.T.);
#47=FACE_OUTER_BOUND('',#67,.T.);
#48=FACE_OUTER_BOUND('',#68,.T.);
#49=FACE_OUTER_BOUND('',#69,.T.);
#50=EDGE_LOOP('',(#228,#229,#230,#231));
#51=EDGE_LOOP('',(#232,#233,#234,#235));
#52=EDGE_LOOP('',(#236,#237,#238,#239));
#53=EDGE_LOOP('',(#240,#241,#242,#243));
#54=EDGE_LOOP('',(#244,#245,#246,#247));
#55=EDGE_LOOP('',(#248,#249,#250,#251));
#56=EDGE_LOOP('',(#252,#253,#254,#255,#256,#257,#258,#259,#260,#261));
#57=EDGE_LOOP('',(#262,#263,#264,#265));
#58=EDGE_LOOP('',(#266,#267,#268,#269));
#59=EDGE_LOOP('',(#270,#271,#272,#273,#274,#275,#276,#277,#278,#279));
#60=EDGE_LOOP('',(#280,#281,#282,#283));
#61=EDGE_LOOP('',(#284,#285,#286,#287));
#62=EDGE_LOOP('',(#288,#289,#290,#291));
#63=EDGE_LOOP('',(#292,#293,#294,#295));
#64=EDGE_LOOP('',(#296,#297,#298,#299));
#65=EDGE_LOOP('',(#300,#301,#302,#303));
#66=EDGE_LOOP('',(#304));
#67=EDGE_LOOP('',(#305,#306,#307,#308));
#68=EDGE_LOOP('',(#309,#310,#311,#312));
#69=EDGE_LOOP('',(#313,#314,#315,#316));
#70=EDGE_LOOP('',(#317));
#71=LINE('',#492,#112);
#72=LINE('',#494,#113);
#73=LINE('',#496,#114);
#74=LINE('',#497,#115);
#75=LINE('',#500,#116);
#76=LINE('',#502,#117);
#77=LINE('',#503,#118);
#78=LINE('',#506,#119);
#79=LINE('',#508,#120);
#80=LINE('',#509,#121);
#81=LINE('',#512,#122);
#82=LINE('',#514,#123);
#83=LINE('',#515,#124);
#84=LINE('',#518,#125);
#85=LINE('',#520,#126);
#86=LINE('',#521,#127);
#87=LINE('',#524,#128);
#88=LINE('',#526,#129);
#89=LINE('',#527,#130);
#90=LINE('',#530,#131);
#91=LINE('',#532,#132);
#92=LINE('',#534,#133);
#93=LINE('',#535,#134);
#94=LINE('',#538,#135);
#95=LINE('',#539,#136);
#96=LINE('',#542,#137);
#97=LINE('',#543,#138);
#98=LINE('',#546,#139);
#99=LINE('',#547,#140);
#100=LINE('',#549,#141);
#101=LINE('',#554,#142);
#102=LINE('',#556,#143);
#103=LINE('',#558,#144);
#104=LINE('',#559,#145);
#105=LINE('',#563,#146);
#106=LINE('',#564,#147);
#107=LINE('',#565,#148);
#108=LINE('',#569,#149);
#109=LINE('',#570,#150);
#110=LINE('',#571,#151);
#111=LINE('',#578,#152);
#112=VECTOR('',#400,10.);
#113=VECTOR('',#401,10.);
#114=VECTOR('',#402,10.);
#115=VECTOR('',#403,10.);
#116=VECTOR('',#406,10.);
#117=VECTOR('',#407,10.);
#118=VECTOR('',#408,10.);
#119=VECTOR('',#411,10.);
#120=VECTOR('',#412,10.);
#121=VECTOR('',#413,10.);
#122=VECTOR('',#416,10.);
#123=VECTOR('',#417,10.);
#124=VECTOR('',#418,10.);
#125=VECTOR('',#421,10.);
#126=VECTOR('',#422,10.);
#127=VECTOR('',#423,10.);
#128=VECTOR('',#426,10.);
#129=VECTOR('',#427,10.);
#130=VECTOR('',#428,10.);
#131=VECTOR('',#431,10.);
#132=VECTOR('',#432,10.);
#133=VECTOR('',#433,10.);
#134=VECTOR('',#434,10.);
#135=VECTOR('',#437,10.);
#136=VECTOR('',#438,10.);
#137=VECTOR('',#441,10.);
#138=VECTOR('',#442,10.);
#139=VECTOR('',#445,10.);
#140=VECTOR('',#446,10.);
#141=VECTOR('',#449,10.);
#142=VECTOR('',#454,10.);
#143=VECTOR('',#455,10.);
#144=VECTOR('',#456,10.);
#145=VECTOR('',#457,10.);
#146=VECTOR('',#460,10.);
#147=VECTOR('',#461,10.);
#148=VECTOR('',#462,10.);
#149=VECTOR('',#465,10.);
#150=VECTOR('',#466,10.);
#151=VECTOR('',#467,10.);
#152=VECTOR('',#476,30.);
#153=VERTEX_POINT('',#490);
#154=VERTEX_POINT('',#491);
#155=VERTEX_POINT('',#493);
#156=VERTEX_POINT('',#495);
#157=VERTEX_POINT('',#499);
#158=VERTEX_POINT('',#501);
#159=VERTEX_POINT('',#505);
#160=VERTEX_POINT('',#507);
#161=VERTEX_POINT('',#511);
#162=VERTEX_POINT('',#513);
#163=VERTEX_POINT('',#517);
#164=VERTEX_POINT('',#519);
#165=VERTEX_POINT('',#523);
#166=VERTEX_POINT('',#525);
#167=VERTEX_POINT('',#529);
#168=VERTEX_POINT('',#531);
#169=VERTEX_POINT('',#533);
#170=VERTEX_POINT('',#537);
#171=VERTEX_POINT('',#541);
#172=VERTEX_POINT('',#545);
#173=VERTEX_POINT('',#552);
#174=VERTEX_POINT('',#553);
#175=VERTEX_POINT('',#555);
#176=VERTEX_POINT('',#557);
#177=VERTEX_POINT('',#561);
#178=VERTEX_POINT('',#562);
#179=VERTEX_POINT('',#567);
#180=VERTEX_POINT('',#568);
#181=VERTEX_POINT('',#574);
#182=VERTEX_POINT('',#577);
#183=EDGE_CURVE('',#153,#154,#71,.T.);
#184=EDGE_CURVE('',#153,#155,#72,.T.);
#185=EDGE_CURVE('',#156,#155,#73,.T.);
#186=EDGE_CURVE('',#154,#156,#74,.T.);
#187=EDGE_CURVE('',#155,#157,#75,.T.);
#188=EDGE_CURVE('',#157,#158,#76,.T.);
#189=EDGE_CURVE('',#158,#156,#77,.T.);
#190=EDGE_CURVE('',#159,#154,#78,.T.);
#191=EDGE_CURVE('',#160,#159,#79,.T.);
#192=EDGE_CURVE('',#160,#153,#80,.T.);
#193=EDGE_CURVE('',#161,#157,#81,.T.);
#194=EDGE_CURVE('',#161,#162,#82,.T.);
#195=EDGE_CURVE('',#162,#158,#83,.T.);
#196=EDGE_CURVE('',#163,#159,#84,.T.);
#197=EDGE_CURVE('',#164,#163,#85,.T.);
#198=EDGE_CURVE('',#164,#160,#86,.T.);
#199=EDGE_CURVE('',#165,#161,#87,.T.);
#200=EDGE_CURVE('',#166,#165,#88,.T.);
#201=EDGE_CURVE('',#162,#166,#89,.T.);
#202=EDGE_CURVE('',#164,#167,#90,.T.);
#203=EDGE_CURVE('',#168,#167,#91,.T.);
#204=EDGE_CURVE('',#168,#169,#92,.T.);
#205=EDGE_CURVE('',#169,#165,#93,.T.);
#206=EDGE_CURVE('',#170,#163,#94,.T.);
#207=EDGE_CURVE('',#167,#170,#95,.T.);
#208=EDGE_CURVE('',#169,#171,#96,.T.);
#209=EDGE_CURVE('',#171,#166,#97,.T.);
#210=EDGE_CURVE('',#172,#171,#98,.T.);
#211=EDGE_CURVE('',#170,#172,#99,.T.);
#212=EDGE_CURVE('',#172,#168,#100,.T.);
#213=EDGE_CURVE('',#173,#174,#101,.T.);
#214=EDGE_CURVE('',#174,#175,#102,.T.);
#215=EDGE_CURVE('',#175,#176,#103,.T.);
#216=EDGE_CURVE('',#176,#173,#104,.T.);
#217=EDGE_CURVE('',#177,#178,#105,.T.);
#218=EDGE_CURVE('',#177,#176,#106,.T.);
#219=EDGE_CURVE('',#178,#175,#107,.T.);
#220=EDGE_CURVE('',#179,#180,#108,.T.);
#221=EDGE_CURVE('',#179,#174,#109,.T.);
#222=EDGE_CURVE('',#173,#180,#110,.T.);
#223=EDGE_CURVE('',#179,#178,#19,.T.);
#224=EDGE_CURVE('',#181,#181,#20,.T.);
#225=EDGE_CURVE('',#181,#182,#111,.T.);
#226=EDGE_CURVE('',#182,#182,#21,.T.);
#227=EDGE_CURVE('',#177,#180,#22,.T.);
#228=ORIENTED_EDGE('',*,*,#183,.F.);
#229=ORIENTED_EDGE('',*,*,#184,.T.);
#230=ORIENTED_EDGE('',*,*,#185,.F.);
#231=ORIENTED_EDGE('',*,*,#186,.F.);
#232=ORIENTED_EDGE('',*,*,#185,.T.);
#233=ORIENTED_EDGE('',*,*,#187,.T.);
#234=ORIENTED_EDGE('',*,*,#188,.T.);
#235=ORIENTED_EDGE('',*,*,#189,.T.);
#236=ORIENTED_EDGE('',*,*,#183,.T.);
#237=ORIENTED_EDGE('',*,*,#190,.F.);
#238=ORIENTED_EDGE('',*,*,#191,.F.);
#239=ORIENTED_EDGE('',*,*,#192,.T.);
#240=ORIENTED_EDGE('',*,*,#193,.F.);
#241=ORIENTED_EDGE('',*,*,#194,.T.);
#242=ORIENTED_EDGE('',*,*,#195,.T.);
#243=ORIENTED_EDGE('',*,*,#188,.F.);
#244=ORIENTED_EDGE('',*,*,#191,.T.);
#245=ORIENTED_EDGE('',*,*,#196,.F.);
#246=ORIENTED_EDGE('',*,*,#197,.F.);
#247=ORIENTED_EDGE('',*,*,#198,.T.);
#248=ORIENTED_EDGE('',*,*,#199,.F.);
#249=ORIENTED_EDGE('',*,*,#200,.F.);
#250=ORIENTED_EDGE('',*,*,#201,.F.);
#251=ORIENTED_EDGE('',*,*,#194,.F.);
#252=ORIENTED_EDGE('',*,*,#199,.T.);
#253=ORIENTED_EDGE('',*,*,#193,.T.);
#254=ORIENTED_EDGE('',*,*,#187,.F.);
#255=ORIENTED_EDGE('',*,*,#184,.F.);
#256=ORIENTED_EDGE('',*,*,#192,.F.);
#257=ORIENTED_EDGE('',*,*,#198,.F.);
#258=ORIENTED_EDGE('',*,*,#202,.T.);
#259=ORIENTED_EDGE('',*,*,#203,.F.);
#260=ORIENTED_EDGE('',*,*,#204,.T.);
#261=ORIENTED_EDGE('',*,*,#205,.T.);
#262=ORIENTED_EDGE('',*,*,#197,.T.);
#263=ORIENTED_EDGE('',*,*,#206,.F.);
#264=ORIENTED_EDGE('',*,*,#207,.F.);
#265=ORIENTED_EDGE('',*,*,#202,.F.);
#266=ORIENTED_EDGE('',*,*,#200,.T.);
#267=ORIENTED_EDGE('',*,*,#205,.F.);
#268=ORIENTED_EDGE('',*,*,#208,.T.);
#269=ORIENTED_EDGE('',*,*,#209,.T.);
#270=ORIENTED_EDGE('',*,*,#201,.T.);
#271=ORIENTED_EDGE('',*,*,#209,.F.);
#272=ORIENTED_EDGE('',*,*,#210,.F.);
#273=ORIENTED_EDGE('',*,*,#211,.F.);
#274=ORIENTED_EDGE('',*,*,#206,.T.);
#275=ORIENTED_EDGE('',*,*,#196,.T.);
#276=ORIENTED_EDGE('',*,*,#190,.T.);
#277=ORIENTED_EDGE('',*,*,#186,.T.);
#278=ORIENTED_EDGE('',*,*,#189,.F.);
#279=ORIENTED_EDGE('',*,*,#195,.F.);
#280=ORIENTED_EDGE('',*,*,#203,.T.);
#281=ORIENTED_EDGE('',*,*,#207,.T.);
#282=ORIENTED_EDGE('',*,*,#211,.T.);
#283=ORIENTED_EDGE('',*,*,#212,.T.);
#284=ORIENTED_EDGE('',*,*,#204,.F.);
#285=ORIENTED_EDGE('',*,*,#212,.F.);
#286=ORIENTED_EDGE('',*,*,#210,.T.);
#287=ORIENTED_EDGE('',*,*,#208,.F.);
#288=ORIENTED_EDGE('',*,*,#213,.T.);
#289=ORIENTED_EDGE('',*,*,#214,.T.);
#290=ORIENTED_EDGE('',*,*,#215,.T.);
#291=ORIENTED_EDGE('',*,*,#216,.T.);
#292=ORIENTED_EDGE('',*,*,#217,.F.);
#293=ORIENTED_EDGE('',*,*,#218,.T.);
#294=ORIENTED_EDGE('',*,*,#215,.F.);
#295=ORIENTED_EDGE('',*,*,#219,.F.);
#296=ORIENTED_EDGE('',*,*,#220,.F.);
#297=ORIENTED_EDGE('',*,*,#221,.T.);
#298=ORIENTED_EDGE('',*,*,#213,.F.);
#299=ORIENTED_EDGE('',*,*,#222,.T.);
#300=ORIENTED_EDGE('',*,*,#223,.T.);
#301=ORIENTED_EDGE('',*,*,#219,.T.);
#302=ORIENTED_EDGE('',*,*,#214,.F.);
#303=ORIENTED_EDGE('',*,*,#221,.F.);
#304=ORIENTED_EDGE('',*,*,#224,.T.);
#305=ORIENTED_EDGE('',*,*,#224,.F.);
#306=ORIENTED_EDGE('',*,*,#225,.T.);
#307=ORIENTED_EDGE('',*,*,#226,.F.);
#308=ORIENTED_EDGE('',*,*,#225,.F.);
#309=ORIENTED_EDGE('',*,*,#217,.T.);
#310=ORIENTED_EDGE('',*,*,#223,.F.);
#311=ORIENTED_EDGE('',*,*,#220,.T.);
#312=ORIENTED_EDGE('',*,*,#227,.F.);
#313=ORIENTED_EDGE('',*,*,#227,.T.);
#314=ORIENTED_EDGE('',*,*,#222,.F.);
#315=ORIENTED_EDGE('',*,*,#216,.F.);
#316=ORIENTED_EDGE('',*,*,#218,.F.);
#317=ORIENTED_EDGE('',*,*,#226,.T.);
#318=PLANE('',#370);
#319=PLANE('',#371);
#320=PLANE('',#372);
#321=PLANE('',#373);
#322=PLANE('',#374);
#323=PLANE('',#375);
#324=PLANE('',#376);
#325=PLANE('',#377);
#326=PLANE('',#378);
#327=PLANE('',#379);
#328=PLANE('',#380);
#329=PLANE('',#381);
#330=PLANE('',#382);
#331=PLANE('',#383);
#332=PLANE('',#384);
#333=PLANE('',#385);
#334=PLANE('',#392);
#335=ADVANCED_FACE('',(#31),#318,.T.);
#336=ADVANCED_FACE('',(#32),#319,.T.);
#337=ADVANCED_FACE('',(#33),#320,.T.);
#338=ADVANCED_FACE('',(#34),#321,.T.);
#339=ADVANCED_FACE('',(#35),#322,.T.);
#340=ADVANCED_FACE('',(#36),#323,.F.);
#341=ADVANCED_FACE('',(#37),#324,.T.);
#342=ADVANCED_FACE('',(#38),#325,.T.);
#343=ADVANCED_FACE('',(#39),#326,.T.);
#344=ADVANCED_FACE('',(#40),#327,.T.);
#345=ADVANCED_FACE('',(#41),#328,.T.);
#346=ADVANCED_FACE('',(#42),#329,.T.);
#347=ADVANCED_FACE('',(#43),#330,.T.);
#348=ADVANCED_FACE('',(#44),#331,.T.);
#349=ADVANCED_FACE('',(#45),#332,.T.);
#350=ADVANCED_FACE('',(#46,#17),#333,.T.);
#351=ADVANCED_FACE('',(#47),#15,.F.);
#352=ADVANCED_FACE('',(#48),#16,.T.);
#353=ADVANCED_FACE('',(#49,#18),#334,.T.);
#354=CLOSED_SHELL('',(#335,#336,#337,#338,#339,#340,#341,#342,#343,#344,
#345,#346));
#355=CLOSED_SHELL('',(#347,#348,#349,#350,#351,#352,#353));
#356=DERIVED_UNIT_ELEMENT(#358,1.);
#357=DERIVED_UNIT_ELEMENT(#591,-3.);
#358=(
MASS_UNIT()
NAMED_UNIT(*)
SI_UNIT(.KILO.,.GRAM.)
);
#359=DERIVED_UNIT((#356,#357));
#360=MEASURE_REPRESENTATION_ITEM('density measure',
POSITIVE_RATIO_MEASURE(7850.),#359);
#361=PROPERTY_DEFINITION_REPRESENTATION(#366,#363);
#362=PROPERTY_DEFINITION_REPRESENTATION(#367,#364);
#363=REPRESENTATION('material name',(#365),#588);
#364=REPRESENTATION('density',(#360),#588);
#365=DESCRIPTIVE_REPRESENTATION_ITEM('Steel','Steel');
#366=PROPERTY_DEFINITION('material property','material name',#603);
#367=PROPERTY_DEFINITION('material property','density of part',#603);
#368=AXIS2_PLACEMENT_3D('',#487,#394,#395);
#369=AXIS2_PLACEMENT_3D('',#488,#396,#397);
#370=AXIS2_PLACEMENT_3D('',#489,#398,#399);
#371=AXIS2_PLACEMENT_3D('',#498,#404,#405);
#372=AXIS2_PLACEMENT_3D('',#504,#409,#410);
#373=AXIS2_PLACEMENT_3D('',#510,#414,#415);
#374=AXIS2_PLACEMENT_3D('',#516,#419,#420);
#375=AXIS2_PLACEMENT_3D('',#522,#424,#425);
#376=AXIS2_PLACEMENT_3D('',#528,#429,#430);
#377=AXIS2_PLACEMENT_3D('',#536,#435,#436);
#378=AXIS2_PLACEMENT_3D('',#540,#439,#440);
#379=AXIS2_PLACEMENT_3D('',#544,#443,#444);
#380=AXIS2_PLACEMENT_3D('',#548,#447,#448);
#381=AXIS2_PLACEMENT_3D('',#550,#450,#451);
#382=AXIS2_PLACEMENT_3D('',#551,#452,#453);
#383=AXIS2_PLACEMENT_3D('',#560,#458,#459);
#384=AXIS2_PLACEMENT_3D('',#566,#463,#464);
#385=AXIS2_PLACEMENT_3D('',#572,#468,#469);
#386=AXIS2_PLACEMENT_3D('',#573,#470,#471);
#387=AXIS2_PLACEMENT_3D('',#575,#472,#473);
#388=AXIS2_PLACEMENT_3D('',#576,#474,#475);
#389=AXIS2_PLACEMENT_3D('',#579,#477,#478);
#390=AXIS2_PLACEMENT_3D('',#580,#479,#480);
#391=AXIS2_PLACEMENT_3D('',#581,#481,#482);
#392=AXIS2_PLACEMENT_3D('',#582,#483,#484);
#393=AXIS2_PLACEMENT_3D('',#583,#485,#486);
#394=DIRECTION('axis',(0.,0.,1.));
#395=DIRECTION('refdir',(1.,0.,0.));
#396=DIRECTION('axis',(0.,0.,1.));
#397=DIRECTION('refdir',(1.,0.,0.));
#398=DIRECTION('center_axis',(0.,1.,0.));
#399=DIRECTION('ref_axis',(1.,0.,0.));
#400=DIRECTION('',(-1.,0.,0.));
#401=DIRECTION('',(0.,0.,-1.));
#402=DIRECTION('',(1.,0.,0.));
#403=DIRECTION('',(0.,0.,-1.));
#404=DIRECTION('center_axis',(0.,0.,-1.));
#405=DIRECTION('ref_axis',(-1.,0.,0.));
#406=DIRECTION('',(0.,-1.,0.));
#407=DIRECTION('',(-1.,0.,0.));
#408=DIRECTION('',(0.,1.,0.));
#409=DIRECTION('center_axis',(0.,0.,-1.));
#410=DIRECTION('ref_axis',(1.,0.,0.));
#411=DIRECTION('',(0.,-1.,0.));
#412=DIRECTION('',(-1.,0.,0.));
#413=DIRECTION('',(0.,-1.,0.));
#414=DIRECTION('center_axis',(0.,-1.,0.));
#415=DIRECTION('ref_axis',(0.,0.,-1.));
#416=DIRECTION('',(0.,0.,-1.));
#417=DIRECTION('',(-1.,0.,0.));
#418=DIRECTION('',(0.,0.,-1.));
#419=DIRECTION('center_axis',(0.,-1.,0.));
#420=DIRECTION('ref_axis',(1.,0.,0.));
#421=DIRECTION('',(0.,0.,1.));
#422=DIRECTION('',(-1.,0.,0.));
#423=DIRECTION('',(0.,0.,1.));
#424=DIRECTION('center_axis',(0.,0.,-1.));
#425=DIRECTION('ref_axis',(-1.,0.,0.));
#426=DIRECTION('',(0.,-1.,0.));
#427=DIRECTION('',(1.,0.,0.));
#428=DIRECTION('',(0.,1.,0.));
#429=DIRECTION('center_axis',(1.,0.,0.));
#430=DIRECTION('ref_axis',(0.,0.,-1.));
#431=DIRECTION('',(0.,-1.,0.));
#432=DIRECTION('',(0.,0.,1.));
#433=DIRECTION('',(0.,1.,0.));
#434=DIRECTION('',(0.,0.,1.));
#435=DIRECTION('center_axis',(0.,0.,1.));
#436=DIRECTION('ref_axis',(1.,0.,0.));
#437=DIRECTION('',(0.,1.,0.));
#438=DIRECTION('',(-1.,0.,0.));
#439=DIRECTION('center_axis',(0.,1.,0.));
#440=DIRECTION('ref_axis',(0.,0.,1.));
#441=DIRECTION('',(-1.,0.,0.));
#442=DIRECTION('',(0.,0.,1.));
#443=DIRECTION('center_axis',(-1.,0.,0.));
#444=DIRECTION('ref_axis',(0.,0.,1.));
#445=DIRECTION('',(0.,1.,0.));
#446=DIRECTION('',(0.,0.,-1.));
#447=DIRECTION('center_axis',(0.,-1.,0.));
#448=DIRECTION('ref_axis',(0.,0.,-1.));
#449=DIRECTION('',(1.,0.,0.));
#450=DIRECTION('center_axis',(0.,0.,-1.));
#451=DIRECTION('ref_axis',(-1.,0.,0.));
#452=DIRECTION('center_axis',(0.,1.,0.));
#453=DIRECTION('ref_axis',(0.,0.,1.));
#454=DIRECTION('',(0.,0.,-1.));
#455=DIRECTION('',(-1.,0.,0.));
#456=DIRECTION('',(0.,0.,1.));
#457=DIRECTION('',(1.,0.,0.));
#458=DIRECTION('center_axis',(-1.,0.,0.));
#459=DIRECTION('ref_axis',(0.,0.,1.));
#460=DIRECTION('',(0.,0.,-1.));
#461=DIRECTION('',(0.,1.,0.));
#462=DIRECTION('',(0.,1.,0.));
#463=DIRECTION('center_axis',(1.,0.,0.));
#464=DIRECTION('ref_axis',(0.,0.,-1.));
#465=DIRECTION('',(0.,0.,1.));
#466=DIRECTION('',(0.,1.,0.));
#467=DIRECTION('',(0.,-1.,0.));
#468=DIRECTION('center_axis',(0.,0.,-1.));
#469=DIRECTION('ref_axis',(-1.,0.,0.));
#470=DIRECTION('center_axis',(0.,0.,-1.));
#471=DIRECTION('ref_axis',(1.,0.,0.));
#472=DIRECTION('center_axis',(0.,0.,1.));
#473=DIRECTION('ref_axis',(1.,0.,0.));
#474=DIRECTION('center_axis',(0.,0.,1.));
#475=DIRECTION('ref_axis',(1.,0.,0.));
#476=DIRECTION('',(0.,0.,1.));
#477=DIRECTION('center_axis',(0.,0.,-1.));
#478=DIRECTION('ref_axis',(1.,0.,0.));
#479=DIRECTION('center_axis',(0.,0.,1.));
#480=DIRECTION('ref_axis',(-1.83697019872103E-16,-1.,0.));
#481=DIRECTION('center_axis',(0.,0.,1.));
#482=DIRECTION('ref_axis',(1.,0.,0.));
#483=DIRECTION('center_axis',(0.,0.,1.));
#484=DIRECTION('ref_axis',(1.,0.,0.));
#485=DIRECTION('',(0.,0.,1.));
#486=DIRECTION('',(1.,0.,0.));
#487=CARTESIAN_POINT('',(0.,0.,0.));
#488=CARTESIAN_POINT('',(0.,0.,0.));
#489=CARTESIAN_POINT('Origin',(-10.0000001490116,8.99999999999999,200.));
#490=CARTESIAN_POINT('',(10.,8.99999999999999,200.));
#491=CARTESIAN_POINT('',(-10.0000001490116,8.99999999999999,200.));
#492=CARTESIAN_POINT('',(-10.0000001490116,8.99999999999999,200.));
#493=CARTESIAN_POINT('',(10.,8.99999999999999,155.));
#494=CARTESIAN_POINT('',(10.,8.99999999999999,200.));
#495=CARTESIAN_POINT('',(-10.0000001490116,8.99999999999999,155.));
#496=CARTESIAN_POINT('',(10.,8.99999999999999,155.));
#497=CARTESIAN_POINT('',(-10.0000001490116,8.99999999999999,200.));
#498=CARTESIAN_POINT('Origin',(-7.45058059692383E-8,-1.00000000000001,155.));
#499=CARTESIAN_POINT('',(10.,-11.,155.));
#500=CARTESIAN_POINT('',(10.,-11.,155.));
#501=CARTESIAN_POINT('',(-10.0000001490116,-11.,155.));
#502=CARTESIAN_POINT('',(-10.0000001490116,-11.,155.));
#503=CARTESIAN_POINT('',(-10.0000001490116,8.99999999999999,155.));
#504=CARTESIAN_POINT('Origin',(-10.0000001490116,219.,200.));
#505=CARTESIAN_POINT('',(-10.0000001490116,219.,200.));
#506=CARTESIAN_POINT('',(-10.0000001490116,219.,200.));
#507=CARTESIAN_POINT('',(10.,219.,200.));
#508=CARTESIAN_POINT('',(-10.0000001490116,219.,200.));
#509=CARTESIAN_POINT('',(10.,219.,200.));
#510=CARTESIAN_POINT('Origin',(-7.45058059692383E-8,-11.,209.));
#511=CARTESIAN_POINT('',(10.,-11.,218.));
#512=CARTESIAN_POINT('',(10.,-11.,200.));
#513=CARTESIAN_POINT('',(-10.0000001490116,-11.,218.));
#514=CARTESIAN_POINT('',(-10.0000001490116,-11.,218.));
#515=CARTESIAN_POINT('',(-10.0000001490116,-11.,200.));
#516=CARTESIAN_POINT('Origin',(-10.0000001490116,219.,20.));
#517=CARTESIAN_POINT('',(-10.0000001490116,219.,20.));
#518=CARTESIAN_POINT('',(-10.0000001490116,219.,20.));
#519=CARTESIAN_POINT('',(10.0000001490116,219.,20.));
#520=CARTESIAN_POINT('',(-10.0000001490116,219.,20.));
#521=CARTESIAN_POINT('',(10.0000001490116,219.,20.));
#522=CARTESIAN_POINT('Origin',(0.,229.,218.));
#523=CARTESIAN_POINT('',(10.0000001490116,239.,218.));
#524=CARTESIAN_POINT('',(10.0000001490116,136.5,218.));
#525=CARTESIAN_POINT('',(-10.0000001490116,239.,218.));
#526=CARTESIAN_POINT('',(0.,239.,218.));
#527=CARTESIAN_POINT('',(-10.0000001490116,136.5,218.));
#528=CARTESIAN_POINT('Origin',(10.0000001490116,44.,20.));
#529=CARTESIAN_POINT('',(10.0000001490116,43.,20.));
#530=CARTESIAN_POINT('',(10.0000001490116,44.,20.));
#531=CARTESIAN_POINT('',(10.0000001490116,43.,0.));
#532=CARTESIAN_POINT('',(10.0000001490116,43.,20.));
#533=CARTESIAN_POINT('',(10.0000001490116,239.,0.));
#534=CARTESIAN_POINT('',(10.0000001490116,44.,0.));
#535=CARTESIAN_POINT('',(10.0000001490116,239.,20.));
#536=CARTESIAN_POINT('Origin',(-10.0000001490116,44.,20.));
#537=CARTESIAN_POINT('',(-10.0000001490116,43.,20.));
#538=CARTESIAN_POINT('',(-10.0000001490116,189.,20.));
#539=CARTESIAN_POINT('',(-10.0000001490116,43.,20.));
#540=CARTESIAN_POINT('Origin',(0.,239.,10.));
#541=CARTESIAN_POINT('',(-10.0000001490116,239.,0.));
#542=CARTESIAN_POINT('',(5.00000007450581,239.,0.));
#543=CARTESIAN_POINT('',(-10.0000001490116,239.,5.));
#544=CARTESIAN_POINT('Origin',(-10.0000001490116,44.,0.));
#545=CARTESIAN_POINT('',(-10.0000001490116,43.,0.));
#546=CARTESIAN_POINT('',(-10.0000001490116,44.,0.));
#547=CARTESIAN_POINT('',(-10.0000001490116,43.,0.));
#548=CARTESIAN_POINT('Origin',(0.,43.,10.));
#549=CARTESIAN_POINT('',(10.0000001490116,43.,0.));
#550=CARTESIAN_POINT('Origin',(10.0000001490116,44.,0.));
#551=CARTESIAN_POINT('Origin',(0.,43.284,30.0000004470348));
#552=CARTESIAN_POINT('',(10.0000001490116,43.284,60.0000008940697));
#553=CARTESIAN_POINT('',(10.0000001490116,43.284,0.));
#554=CARTESIAN_POINT('',(10.0000001490116,43.284,60.0000008940697));
#555=CARTESIAN_POINT('',(-10.0000001490116,43.284,0.));
#556=CARTESIAN_POINT('',(10.0000001490116,43.284,0.));
#557=CARTESIAN_POINT('',(-10.0000001490116,43.284,60.0000008940697));
#558=CARTESIAN_POINT('',(-10.0000001490116,43.284,0.));
#559=CARTESIAN_POINT('',(-10.0000001490116,43.284,60.0000008940697));
#560=CARTESIAN_POINT('Origin',(-10.0000001490116,31.,0.));
#561=CARTESIAN_POINT('',(-10.0000001490116,28.2842711947783,60.0000008940697));
#562=CARTESIAN_POINT('',(-10.0000001490116,28.2842711947783,0.));
#563=CARTESIAN_POINT('',(-10.0000001490116,28.2842711947783,30.));
#564=CARTESIAN_POINT('',(-10.0000001490116,31.,60.0000008940697));
#565=CARTESIAN_POINT('',(-10.0000001490116,31.,0.));
#566=CARTESIAN_POINT('Origin',(10.0000001490116,31.,60.0000008940697));
#567=CARTESIAN_POINT('',(10.0000001490116,28.2842711947783,0.));
#568=CARTESIAN_POINT('',(10.0000001490116,28.2842711947783,60.0000008940697));
#569=CARTESIAN_POINT('',(10.0000001490116,28.2842711947783,30.));
#570=CARTESIAN_POINT('',(10.0000001490116,31.,0.));
#571=CARTESIAN_POINT('',(10.0000001490116,31.,60.0000008940697));
#572=CARTESIAN_POINT('Origin',(0.,0.,0.));
#573=CARTESIAN_POINT('Origin',(0.,0.,0.));
#574=CARTESIAN_POINT('',(-25.5,-3.12284933782575E-15,0.));
#575=CARTESIAN_POINT('Origin',(0.,0.,0.));
#576=CARTESIAN_POINT('Origin',(0.,0.,30.));
#577=CARTESIAN_POINT('',(-25.5,3.12284933782575E-15,60.));
#578=CARTESIAN_POINT('',(-25.5,-3.12284933782575E-15,30.));
#579=CARTESIAN_POINT('Origin',(0.,0.,60.));
#580=CARTESIAN_POINT('Origin',(0.,0.,30.));
#581=CARTESIAN_POINT('Origin',(0.,0.,60.));
#582=CARTESIAN_POINT('Origin',(0.,0.,60.));
#583=CARTESIAN_POINT('',(0.,0.,0.));
#584=UNCERTAINTY_MEASURE_WITH_UNIT(LENGTH_MEASURE(0.01),#590,
'DISTANCE_ACCURACY_VALUE',
'Maximum model space distance between geometric entities at asserted c
onnectivities');
#585=UNCERTAINTY_MEASURE_WITH_UNIT(LENGTH_MEASURE(0.01),#590,
'DISTANCE_ACCURACY_VALUE',
'Maximum model space distance between geometric entities at asserted c
onnectivities');
#586=UNCERTAINTY_MEASURE_WITH_UNIT(LENGTH_MEASURE(0.01),#590,
'DISTANCE_ACCURACY_VALUE',
'Maximum model space distance between geometric entities at asserted c
onnectivities');
#587=(
GEOMETRIC_REPRESENTATION_CONTEXT(3)
GLOBAL_UNCERTAINTY_ASSIGNED_CONTEXT((#584))
GLOBAL_UNIT_ASSIGNED_CONTEXT((#590,#592,#593))
REPRESENTATION_CONTEXT('','3D')
);
#588=(
GEOMETRIC_REPRESENTATION_CONTEXT(3)
GLOBAL_UNCERTAINTY_ASSIGNED_CONTEXT((#585))
GLOBAL_UNIT_ASSIGNED_CONTEXT((#590,#592,#593))
REPRESENTATION_CONTEXT('','3D')
);
#589=(
GEOMETRIC_REPRESENTATION_CONTEXT(3)
GLOBAL_UNCERTAINTY_ASSIGNED_CONTEXT((#586))
GLOBAL_UNIT_ASSIGNED_CONTEXT((#590,#592,#593))
REPRESENTATION_CONTEXT('','3D')
);
#590=(
LENGTH_UNIT()
NAMED_UNIT(*)
SI_UNIT(.MILLI.,.METRE.)
);
#591=(
LENGTH_UNIT()
NAMED_UNIT(*)
SI_UNIT($,.METRE.)
);
#592=(
NAMED_UNIT(*)
PLANE_ANGLE_UNIT()
SI_UNIT($,.RADIAN.)
);
#593=(
NAMED_UNIT(*)
SI_UNIT($,.STERADIAN.)
SOLID_ANGLE_UNIT()
);
#594=SHAPE_DEFINITION_REPRESENTATION(#596,#599);
#595=SHAPE_DEFINITION_REPRESENTATION(#597,#600);
#596=PRODUCT_DEFINITION_SHAPE('',$,#602);
#597=PRODUCT_DEFINITION_SHAPE('',$,#603);
#598=PRODUCT_DEFINITION_SHAPE($,$,#14);
#599=SHAPE_REPRESENTATION('',(#368,#393),#587);
#600=SHAPE_REPRESENTATION('',(#369),#588);
#601=PRODUCT_DEFINITION_CONTEXT('part definition',#609,'design');
#602=PRODUCT_DEFINITION('(Unsaved)','(Unsaved)',#604,#601);
#603=PRODUCT_DEFINITION('Component1','Component1',#605,#601);
#604=PRODUCT_DEFINITION_FORMATION('',$,#611);
#605=PRODUCT_DEFINITION_FORMATION('',$,#612);
#606=PRODUCT_RELATED_PRODUCT_CATEGORY('(Unsaved)','(Unsaved)',(#611));
#607=PRODUCT_RELATED_PRODUCT_CATEGORY('Component1','Component1',(#612));
#608=APPLICATION_PROTOCOL_DEFINITION('international standard',
'automotive_design',2009,#609);
#609=APPLICATION_CONTEXT(
'Core Data for Automotive Mechanical Design Process');
#610=PRODUCT_CONTEXT('part definition',#609,'mechanical');
#611=PRODUCT('(Unsaved)','(Unsaved)',$,(#610));
#612=PRODUCT('Component1','Component1',$,(#610));
#613=PRESENTATION_STYLE_ASSIGNMENT((#614));
#614=SURFACE_STYLE_USAGE(.BOTH.,#615);
#615=SURFACE_SIDE_STYLE('',(#616));
#616=SURFACE_STYLE_FILL_AREA(#617);
#617=FILL_AREA_STYLE('Steel - Satin',(#618));
#618=FILL_AREA_STYLE_COLOUR('Steel - Satin',#619);
#619=COLOUR_RGB('Steel - Satin',0.627450980392157,0.627450980392157,0.627450980392157);
ENDSEC;
END-ISO-10303-21;
