ISO-10303-21;
HEADER;
/* Generated by software containing ST-Developer
 * from STEP Tools, Inc. (www.steptools.com) 
 */

FILE_DESCRIPTION(
/* description */ (''),
/* implementation_level */ '2;1');

FILE_NAME(
/* name */ 'dr hip full.step',
/* time_stamp */ '2026-07-02T12:50:31+05:30',
/* author */ (''),
/* organization */ (''),
/* preprocessor_version */ 'ST-DEVELOPER v20.1',
/* originating_system */ 'Autodesk Translation Framework v15.8.0.0',
/* authorisation */ '');

FILE_SCHEMA (('AUTOMOTIVE_DESIGN { 1 0 10303 214 3 1 1 }'));
ENDSEC;

DATA;
#10=MECHANICAL_DESIGN_GEOMETRIC_PRESENTATION_REPRESENTATION('',(#102,#103,
#104),#1114);
#11=ITEM_DEFINED_TRANSFORMATION($,$,#515,#582);
#12=ITEM_DEFINED_TRANSFORMATION($,$,#523,#583);
#13=(
REPRESENTATION_RELATIONSHIP($,$,#1128,#1127)
REPRESENTATION_RELATIONSHIP_WITH_TRANSFORMATION(#11)
SHAPE_REPRESENTATION_RELATIONSHIP()
);
#14=(
REPRESENTATION_RELATIONSHIP($,$,#1129,#1127)
REPRESENTATION_RELATIONSHIP_WITH_TRANSFORMATION(#12)
SHAPE_REPRESENTATION_RELATIONSHIP()
);
#15=CONTEXT_DEPENDENT_SHAPE_REPRESENTATION(#13,#1125);
#16=CONTEXT_DEPENDENT_SHAPE_REPRESENTATION(#14,#1126);
#17=NEXT_ASSEMBLY_USAGE_OCCURRENCE('hip cup2 v1:1','hip cup2 v1:1',
'hip cup2 v1:1',#1131,#1132,'hip cup2 v1:1');
#18=NEXT_ASSEMBLY_USAGE_OCCURRENCE('hip joint3 v1:1','hip joint3 v1:1',
'hip joint3 v1:1',#1131,#1133,'hip joint3 v1:1');
#19=B_SPLINE_SURFACE_WITH_KNOTS('',3,3,((#834,#835,#836,#837,#838,#839),
(#840,#841,#842,#843,#844,#845),(#846,#847,#848,#849,#850,#851),(#852,#853,
#854,#855,#856,#857),(#858,#859,#860,#861,#862,#863),(#864,#865,#866,#867,
#868,#869),(#870,#871,#872,#873,#874,#875)),.UNSPECIFIED.,.F.,.F.,.F.,(4,
1,1,1,4),(4,1,1,4),(0.,0.285714285714286,0.571428571428571,0.785714285714286,
1.),(-3.43125539962922E-16,0.326776515968313,0.49016477395247,1.1437178058891),
 .UNSPECIFIED.);
#20=B_SPLINE_SURFACE_WITH_KNOTS('',3,3,((#932,#933,#934,#935,#936),(#937,
#938,#939,#940,#941),(#942,#943,#944,#945,#946),(#947,#948,#949,#950,#951),
(#952,#953,#954,#955,#956)),.UNSPECIFIED.,.F.,.F.,.F.,(4,1,4),(4,1,4),(0.,
0.571428571428571,1.),(-1.57079632679489,-0.897597901025653,5.90237216622645E-16),
 .UNSPECIFIED.);
#21=B_SPLINE_SURFACE_WITH_KNOTS('',3,3,((#979,#980,#981,#982,#983),(#984,
#985,#986,#987,#988),(#989,#990,#991,#992,#993),(#994,#995,#996,#997,#998),
(#999,#1000,#1001,#1002,#1003),(#1004,#1005,#1006,#1007,#1008)),
 .UNSPECIFIED.,.F.,.F.,.F.,(4,1,1,4),(4,1,4),(0.,0.285714285714286,0.571428571428571,
1.),(-1.5707963267949,-0.897597901025653,1.53163105104557E-14),
 .UNSPECIFIED.);
#22=B_SPLINE_SURFACE_WITH_KNOTS('',3,3,((#1012,#1013,#1014,#1015,#1016,
#1017,#1018,#1019,#1020,#1021),(#1022,#1023,#1024,#1025,#1026,#1027,#1028,
#1029,#1030,#1031),(#1032,#1033,#1034,#1035,#1036,#1037,#1038,#1039,#1040,
#1041),(#1042,#1043,#1044,#1045,#1046,#1047,#1048,#1049,#1050,#1051),(#1052,
#1053,#1054,#1055,#1056,#1057,#1058,#1059,#1060,#1061),(#1062,#1063,#1064,
#1065,#1066,#1067,#1068,#1069,#1070,#1071),(#1072,#1073,#1074,#1075,#1076,
#1077,#1078,#1079,#1080,#1081)),.UNSPECIFIED.,.F.,.F.,.F.,(4,1,1,1,4),(4,
1,1,1,1,1,1,4),(0.,0.285714285714286,0.571428571428571,0.714285714285714,
1.),(-1.5707963267949,-1.12199737628207,-0.673198425769239,-0.224399475256411,
-0.112199737628203,-0.0560998688140999,-0.028049934407048,3.76087969833385E-15),
 .UNSPECIFIED.);
#23=ELLIPSE('',#535,3.53553390593274,2.5);
#24=ELLIPSE('',#537,5.59016994374947,5.);
#25=ELLIPSE('',#558,3.26145063438299,2.5);
#26=ELLIPSE('',#559,3.26145063438296,2.5);
#27=ELLIPSE('',#568,3.82525607955202,2.5);
#28=ELLIPSE('',#569,3.82525607955203,2.5);
#29=ELLIPSE('',#571,140.627925805646,2.5);
#30=ELLIPSE('',#572,140.627925805646,2.5);
#31=(
BOUNDED_SURFACE()
B_SPLINE_SURFACE(2,2,((#788,#789,#790),(#791,#792,#793),(#794,#795,#796)),
 .UNSPECIFIED.,.F.,.F.,.F.)
B_SPLINE_SURFACE_WITH_KNOTS((3,3),(3,3),(-1.5707963267949,0.),(-2.71451413268399,
-1.5707963267949),.UNSPECIFIED.)
GEOMETRIC_REPRESENTATION_ITEM()
RATIONAL_B_SPLINE_SURFACE(((1.,0.840896397533147,1.),(0.707106781186548,
0.594603544971028,0.707106781186548),(1.,0.840896397533147,1.)))
REPRESENTATION_ITEM('')
SURFACE()
);
#32=B_SPLINE_CURVE_WITH_KNOTS('',3,(#770,#771,#772,#773,#774,#775,#776,
#777,#778,#779,#780,#781,#782,#783,#784,#785,#786),.UNSPECIFIED.,.F.,.F.,
(4,2,2,2,3,2,2,4),(-0.290417168369468,-0.290245447589784,-0.19436133807043,
-0.0971806690352148,0.,0.0952223259174958,0.190444651834992,0.284809248043515),
 .UNSPECIFIED.);
#33=B_SPLINE_CURVE_WITH_KNOTS('',3,(#807,#808,#809,#810,#811,#812,#813,
#814,#815,#816,#817,#818,#819,#820,#821),.UNSPECIFIED.,.F.,.F.,(4,2,2,3,
2,2,4),(-0.189027890922376,-0.188162275806479,-0.0940811379032396,0.,0.0940811379032395,
0.188162275806479,0.189027890921823),.UNSPECIFIED.);
#34=B_SPLINE_CURVE_WITH_KNOTS('',3,(#884,#885,#886,#887,#888,#889,#890,
#891,#892,#893,#894,#895,#896,#897,#898,#899,#900),.UNSPECIFIED.,.F.,.F.,
(4,2,2,3,2,2,2,4),(-0.284826931147223,-0.191010987662264,-0.0955054938311319,
0.,0.0971806690352148,0.19436133807043,0.290245447589784,0.290417168369468),
 .UNSPECIFIED.);
#35=LINE('',#768,#60);
#36=LINE('',#787,#61);
#37=LINE('',#822,#62);
#38=LINE('',#823,#63);
#39=LINE('',#832,#64);
#40=LINE('',#880,#65);
#41=LINE('',#883,#66);
#42=LINE('',#924,#67);
#43=LINE('',#925,#68);
#44=LINE('',#930,#69);
#45=LINE('',#931,#70);
#46=LINE('',#968,#71);
#47=LINE('',#969,#72);
#48=LINE('',#971,#73);
#49=LINE('',#972,#74);
#50=LINE('',#977,#75);
#51=LINE('',#978,#76);
#52=LINE('',#1089,#77);
#53=LINE('',#1090,#78);
#54=LINE('',#1092,#79);
#55=LINE('',#1093,#80);
#56=LINE('',#1095,#81);
#57=LINE('',#1097,#82);
#58=LINE('',#1100,#83);
#59=LINE('',#1101,#84);
#60=VECTOR('',#608,10.);
#61=VECTOR('',#609,10.);
#62=VECTOR('',#620,10.);
#63=VECTOR('',#621,10.);
#64=VECTOR('',#632,10.);
#65=VECTOR('',#641,10.);
#66=VECTOR('',#644,10.);
#67=VECTOR('',#675,10.);
#68=VECTOR('',#676,10.);
#69=VECTOR('',#681,10.);
#70=VECTOR('',#682,10.);
#71=VECTOR('',#697,10.);
#72=VECTOR('',#698,10.);
#73=VECTOR('',#701,10.);
#74=VECTOR('',#702,10.);
#75=VECTOR('',#707,10.);
#76=VECTOR('',#708,10.);
#77=VECTOR('',#721,10.);
#78=VECTOR('',#722,10.);
#79=VECTOR('',#725,10.);
#80=VECTOR('',#726,10.);
#81=VECTOR('',#729,10.);
#82=VECTOR('',#732,10.);
#83=VECTOR('',#737,10.);
#84=VECTOR('',#738,10.);
#85=CYLINDRICAL_SURFACE('',#524,2.5);
#86=CYLINDRICAL_SURFACE('',#530,2.5);
#87=CYLINDRICAL_SURFACE('',#539,5.);
#88=CYLINDRICAL_SURFACE('',#540,2.5);
#89=CYLINDRICAL_SURFACE('',#555,0.08);
#90=CYLINDRICAL_SURFACE('',#556,0.08);
#91=CYLINDRICAL_SURFACE('',#564,0.08);
#92=CYLINDRICAL_SURFACE('',#565,0.08);
#93=CYLINDRICAL_SURFACE('',#566,0.08);
#94=CYLINDRICAL_SURFACE('',#573,0.08);
#95=CYLINDRICAL_SURFACE('',#574,2.5);
#96=CYLINDRICAL_SURFACE('',#576,2.5);
#97=CYLINDRICAL_SURFACE('',#578,2.5);
#98=SHAPE_REPRESENTATION_RELATIONSHIP('SRR','None',#1128,#100);
#99=SHAPE_REPRESENTATION_RELATIONSHIP('SRR','None',#1129,#101);
#100=ADVANCED_BREP_SHAPE_REPRESENTATION('',(#105),#1112);
#101=ADVANCED_BREP_SHAPE_REPRESENTATION('',(#106,#107),#1113);
#102=STYLED_ITEM('',(#1146),#105);
#103=STYLED_ITEM('',(#1146),#106);
#104=STYLED_ITEM('',(#1146),#107);
#105=MANIFOLD_SOLID_BREP('Body2',#488);
#106=MANIFOLD_SOLID_BREP('Body1',#489);
#107=MANIFOLD_SOLID_BREP('Body2',#490);
#108=FACE_BOUND('',#155,.T.);
#109=FACE_BOUND('',#168,.T.);
#110=PLANE('',#519);
#111=PLANE('',#534);
#112=PLANE('',#541);
#113=PLANE('',#543);
#114=PLANE('',#575);
#115=PLANE('',#577);
#116=PLANE('',#579);
#117=PLANE('',#580);
#118=PLANE('',#581);
#119=FACE_OUTER_BOUND('',#153,.T.);
#120=FACE_OUTER_BOUND('',#154,.T.);
#121=FACE_OUTER_BOUND('',#156,.T.);
#122=FACE_OUTER_BOUND('',#157,.T.);
#123=FACE_OUTER_BOUND('',#158,.T.);
#124=FACE_OUTER_BOUND('',#159,.T.);
#125=FACE_OUTER_BOUND('',#160,.T.);
#126=FACE_OUTER_BOUND('',#161,.T.);
#127=FACE_OUTER_BOUND('',#162,.T.);
#128=FACE_OUTER_BOUND('',#163,.T.);
#129=FACE_OUTER_BOUND('',#164,.T.);
#130=FACE_OUTER_BOUND('',#165,.T.);
#131=FACE_OUTER_BOUND('',#166,.T.);
#132=FACE_OUTER_BOUND('',#167,.T.);
#133=FACE_OUTER_BOUND('',#169,.T.);
#134=FACE_OUTER_BOUND('',#170,.T.);
#135=FACE_OUTER_BOUND('',#171,.T.);
#136=FACE_OUTER_BOUND('',#172,.T.);
#137=FACE_OUTER_BOUND('',#173,.T.);
#138=FACE_OUTER_BOUND('',#174,.T.);
#139=FACE_OUTER_BOUND('',#175,.T.);
#140=FACE_OUTER_BOUND('',#176,.T.);
#141=FACE_OUTER_BOUND('',#177,.T.);
#142=FACE_OUTER_BOUND('',#178,.T.);
#143=FACE_OUTER_BOUND('',#179,.T.);
#144=FACE_OUTER_BOUND('',#180,.T.);
#145=FACE_OUTER_BOUND('',#181,.T.);
#146=FACE_OUTER_BOUND('',#182,.T.);
#147=FACE_OUTER_BOUND('',#183,.T.);
#148=FACE_OUTER_BOUND('',#184,.T.);
#149=FACE_OUTER_BOUND('',#185,.T.);
#150=FACE_OUTER_BOUND('',#186,.T.);
#151=FACE_OUTER_BOUND('',#187,.T.);
#152=FACE_OUTER_BOUND('',#188,.T.);
#153=EDGE_LOOP('',(#319,#320,#321));
#154=EDGE_LOOP('',(#322));
#155=EDGE_LOOP('',(#323));
#156=EDGE_LOOP('',(#324,#325,#326));
#157=EDGE_LOOP('',(#327,#328,#329,#330));
#158=EDGE_LOOP('',(#331,#332,#333,#334));
#159=EDGE_LOOP('',(#335,#336,#337,#338));
#160=EDGE_LOOP('',(#339,#340,#341,#342,#343));
#161=EDGE_LOOP('',(#344,#345,#346,#347));
#162=EDGE_LOOP('',(#348,#349,#350,#351));
#163=EDGE_LOOP('',(#352,#353,#354));
#164=EDGE_LOOP('',(#355,#356,#357,#358));
#165=EDGE_LOOP('',(#359,#360,#361,#362));
#166=EDGE_LOOP('',(#363,#364,#365,#366));
#167=EDGE_LOOP('',(#367,#368));
#168=EDGE_LOOP('',(#369,#370,#371,#372,#373,#374));
#169=EDGE_LOOP('',(#375,#376,#377));
#170=EDGE_LOOP('',(#378,#379,#380));
#171=EDGE_LOOP('',(#381,#382,#383,#384));
#172=EDGE_LOOP('',(#385,#386,#387,#388));
#173=EDGE_LOOP('',(#389,#390,#391));
#174=EDGE_LOOP('',(#392,#393,#394));
#175=EDGE_LOOP('',(#395,#396,#397,#398));
#176=EDGE_LOOP('',(#399,#400,#401,#402));
#177=EDGE_LOOP('',(#403,#404,#405,#406));
#178=EDGE_LOOP('',(#407,#408,#409));
#179=EDGE_LOOP('',(#410,#411,#412));
#180=EDGE_LOOP('',(#413,#414,#415,#416));
#181=EDGE_LOOP('',(#417,#418,#419,#420));
#182=EDGE_LOOP('',(#421,#422,#423,#424));
#183=EDGE_LOOP('',(#425,#426,#427,#428));
#184=EDGE_LOOP('',(#429,#430,#431));
#185=EDGE_LOOP('',(#432,#433,#434,#435));
#186=EDGE_LOOP('',(#436,#437,#438,#439));
#187=EDGE_LOOP('',(#440,#441,#442,#443));
#188=EDGE_LOOP('',(#444,#445,#446));
#189=CIRCLE('',#517,20.);
#190=CIRCLE('',#518,20.);
#191=CIRCLE('',#520,25.);
#192=CIRCLE('',#522,25.);
#193=CIRCLE('',#525,2.5);
#194=CIRCLE('',#526,2.5);
#195=CIRCLE('',#527,2.5);
#196=CIRCLE('',#528,2.5);
#197=CIRCLE('',#529,5.);
#198=CIRCLE('',#532,2.5);
#199=CIRCLE('',#533,2.5);
#200=CIRCLE('',#536,17.6351920463);
#201=CIRCLE('',#538,2.5);
#202=CIRCLE('',#542,19.);
#203=CIRCLE('',#544,19.);
#204=CIRCLE('',#546,19.);
#205=CIRCLE('',#548,0.0800000000000003);
#206=CIRCLE('',#549,0.0800000000000001);
#207=CIRCLE('',#550,0.0800000000000159);
#208=CIRCLE('',#552,0.0800000000000001);
#209=CIRCLE('',#553,0.0799999999999895);
#210=CIRCLE('',#554,0.0799999999999996);
#211=CIRCLE('',#557,0.0799999999999946);
#212=CIRCLE('',#561,0.0800000000000633);
#213=CIRCLE('',#562,0.0800000000000001);
#214=CIRCLE('',#563,0.080000000000009);
#215=CIRCLE('',#567,0.0800000000000938);
#216=CIRCLE('',#570,0.0799999999999873);
#217=VERTEX_POINT('',#752);
#218=VERTEX_POINT('',#754);
#219=VERTEX_POINT('',#757);
#220=VERTEX_POINT('',#760);
#221=VERTEX_POINT('',#764);
#222=VERTEX_POINT('',#765);
#223=VERTEX_POINT('',#767);
#224=VERTEX_POINT('',#769);
#225=VERTEX_POINT('',#797);
#226=VERTEX_POINT('',#799);
#227=VERTEX_POINT('',#801);
#228=VERTEX_POINT('',#805);
#229=VERTEX_POINT('',#806);
#230=VERTEX_POINT('',#826);
#231=VERTEX_POINT('',#829);
#232=VERTEX_POINT('',#831);
#233=VERTEX_POINT('',#876);
#234=VERTEX_POINT('',#882);
#235=VERTEX_POINT('',#906);
#236=VERTEX_POINT('',#907);
#237=VERTEX_POINT('',#910);
#238=VERTEX_POINT('',#911);
#239=VERTEX_POINT('',#913);
#240=VERTEX_POINT('',#917);
#241=VERTEX_POINT('',#918);
#242=VERTEX_POINT('',#920);
#243=VERTEX_POINT('',#927);
#244=VERTEX_POINT('',#928);
#245=VERTEX_POINT('',#957);
#246=VERTEX_POINT('',#961);
#247=VERTEX_POINT('',#962);
#248=VERTEX_POINT('',#964);
#249=VERTEX_POINT('',#974);
#250=VERTEX_POINT('',#975);
#251=VERTEX_POINT('',#1009);
#252=VERTEX_POINT('',#1082);
#253=VERTEX_POINT('',#1083);
#254=VERTEX_POINT('',#1085);
#255=EDGE_CURVE('',#217,#217,#189,.T.);
#256=EDGE_CURVE('',#217,#218,#190,.T.);
#257=EDGE_CURVE('',#219,#219,#191,.T.);
#258=EDGE_CURVE('',#220,#219,#192,.T.);
#259=EDGE_CURVE('',#221,#222,#193,.T.);
#260=EDGE_CURVE('',#222,#223,#35,.T.);
#261=EDGE_CURVE('',#223,#224,#32,.F.);
#262=EDGE_CURVE('',#224,#221,#36,.T.);
#263=EDGE_CURVE('',#225,#221,#194,.T.);
#264=EDGE_CURVE('',#221,#226,#195,.T.);
#265=EDGE_CURVE('',#226,#227,#196,.T.);
#266=EDGE_CURVE('',#227,#225,#197,.T.);
#267=EDGE_CURVE('',#228,#229,#33,.F.);
#268=EDGE_CURVE('',#229,#227,#37,.T.);
#269=EDGE_CURVE('',#226,#228,#38,.T.);
#270=EDGE_CURVE('',#225,#222,#198,.T.);
#271=EDGE_CURVE('',#230,#221,#199,.T.);
#272=EDGE_CURVE('',#231,#222,#23,.T.);
#273=EDGE_CURVE('',#232,#231,#39,.T.);
#274=EDGE_CURVE('',#223,#232,#200,.T.);
#275=EDGE_CURVE('',#225,#233,#24,.T.);
#276=EDGE_CURVE('',#231,#233,#201,.T.);
#277=EDGE_CURVE('',#227,#233,#40,.T.);
#278=EDGE_CURVE('',#233,#234,#41,.T.);
#279=EDGE_CURVE('',#234,#232,#34,.F.);
#280=EDGE_CURVE('',#228,#224,#202,.T.);
#281=EDGE_CURVE('',#234,#229,#203,.T.);
#282=EDGE_CURVE('',#235,#236,#204,.T.);
#283=EDGE_CURVE('',#237,#238,#205,.F.);
#284=EDGE_CURVE('',#239,#237,#206,.F.);
#285=EDGE_CURVE('',#238,#239,#207,.F.);
#286=EDGE_CURVE('',#240,#241,#208,.F.);
#287=EDGE_CURVE('',#242,#240,#209,.F.);
#288=EDGE_CURVE('',#241,#242,#210,.F.);
#289=EDGE_CURVE('',#240,#239,#42,.T.);
#290=EDGE_CURVE('',#237,#242,#43,.T.);
#291=EDGE_CURVE('',#243,#244,#211,.T.);
#292=EDGE_CURVE('',#244,#241,#44,.T.);
#293=EDGE_CURVE('',#242,#243,#45,.T.);
#294=EDGE_CURVE('',#243,#245,#25,.T.);
#295=EDGE_CURVE('',#245,#244,#26,.T.);
#296=EDGE_CURVE('',#246,#247,#212,.F.);
#297=EDGE_CURVE('',#248,#246,#213,.F.);
#298=EDGE_CURVE('',#247,#248,#214,.F.);
#299=EDGE_CURVE('',#239,#248,#46,.T.);
#300=EDGE_CURVE('',#246,#238,#47,.T.);
#301=EDGE_CURVE('',#248,#240,#48,.T.);
#302=EDGE_CURVE('',#241,#247,#49,.T.);
#303=EDGE_CURVE('',#249,#250,#215,.T.);
#304=EDGE_CURVE('',#250,#246,#50,.T.);
#305=EDGE_CURVE('',#247,#249,#51,.T.);
#306=EDGE_CURVE('',#249,#251,#27,.T.);
#307=EDGE_CURVE('',#251,#250,#28,.T.);
#308=EDGE_CURVE('',#252,#253,#216,.T.);
#309=EDGE_CURVE('',#253,#254,#29,.T.);
#310=EDGE_CURVE('',#254,#252,#30,.T.);
#311=EDGE_CURVE('',#252,#237,#52,.T.);
#312=EDGE_CURVE('',#238,#253,#53,.T.);
#313=EDGE_CURVE('',#245,#251,#54,.T.);
#314=EDGE_CURVE('',#249,#244,#55,.T.);
#315=EDGE_CURVE('',#243,#252,#56,.T.);
#316=EDGE_CURVE('',#254,#245,#57,.T.);
#317=EDGE_CURVE('',#251,#254,#58,.T.);
#318=EDGE_CURVE('',#253,#250,#59,.T.);
#319=ORIENTED_EDGE('',*,*,#255,.F.);
#320=ORIENTED_EDGE('',*,*,#256,.T.);
#321=ORIENTED_EDGE('',*,*,#256,.F.);
#322=ORIENTED_EDGE('',*,*,#257,.F.);
#323=ORIENTED_EDGE('',*,*,#255,.T.);
#324=ORIENTED_EDGE('',*,*,#257,.T.);
#325=ORIENTED_EDGE('',*,*,#258,.F.);
#326=ORIENTED_EDGE('',*,*,#258,.T.);
#327=ORIENTED_EDGE('',*,*,#259,.T.);
#328=ORIENTED_EDGE('',*,*,#260,.T.);
#329=ORIENTED_EDGE('',*,*,#261,.T.);
#330=ORIENTED_EDGE('',*,*,#262,.T.);
#331=ORIENTED_EDGE('',*,*,#263,.T.);
#332=ORIENTED_EDGE('',*,*,#264,.T.);
#333=ORIENTED_EDGE('',*,*,#265,.T.);
#334=ORIENTED_EDGE('',*,*,#266,.T.);
#335=ORIENTED_EDGE('',*,*,#267,.T.);
#336=ORIENTED_EDGE('',*,*,#268,.T.);
#337=ORIENTED_EDGE('',*,*,#265,.F.);
#338=ORIENTED_EDGE('',*,*,#269,.T.);
#339=ORIENTED_EDGE('',*,*,#263,.F.);
#340=ORIENTED_EDGE('',*,*,#270,.T.);
#341=ORIENTED_EDGE('',*,*,#259,.F.);
#342=ORIENTED_EDGE('',*,*,#271,.F.);
#343=ORIENTED_EDGE('',*,*,#271,.T.);
#344=ORIENTED_EDGE('',*,*,#260,.F.);
#345=ORIENTED_EDGE('',*,*,#272,.F.);
#346=ORIENTED_EDGE('',*,*,#273,.F.);
#347=ORIENTED_EDGE('',*,*,#274,.F.);
#348=ORIENTED_EDGE('',*,*,#270,.F.);
#349=ORIENTED_EDGE('',*,*,#275,.T.);
#350=ORIENTED_EDGE('',*,*,#276,.F.);
#351=ORIENTED_EDGE('',*,*,#272,.T.);
#352=ORIENTED_EDGE('',*,*,#266,.F.);
#353=ORIENTED_EDGE('',*,*,#277,.T.);
#354=ORIENTED_EDGE('',*,*,#275,.F.);
#355=ORIENTED_EDGE('',*,*,#276,.T.);
#356=ORIENTED_EDGE('',*,*,#278,.T.);
#357=ORIENTED_EDGE('',*,*,#279,.T.);
#358=ORIENTED_EDGE('',*,*,#273,.T.);
#359=ORIENTED_EDGE('',*,*,#262,.F.);
#360=ORIENTED_EDGE('',*,*,#280,.F.);
#361=ORIENTED_EDGE('',*,*,#269,.F.);
#362=ORIENTED_EDGE('',*,*,#264,.F.);
#363=ORIENTED_EDGE('',*,*,#268,.F.);
#364=ORIENTED_EDGE('',*,*,#281,.F.);
#365=ORIENTED_EDGE('',*,*,#278,.F.);
#366=ORIENTED_EDGE('',*,*,#277,.F.);
#367=ORIENTED_EDGE('',*,*,#282,.T.);
#368=ORIENTED_EDGE('',*,*,#282,.F.);
#369=ORIENTED_EDGE('',*,*,#280,.T.);
#370=ORIENTED_EDGE('',*,*,#261,.F.);
#371=ORIENTED_EDGE('',*,*,#274,.T.);
#372=ORIENTED_EDGE('',*,*,#279,.F.);
#373=ORIENTED_EDGE('',*,*,#281,.T.);
#374=ORIENTED_EDGE('',*,*,#267,.F.);
#375=ORIENTED_EDGE('',*,*,#283,.F.);
#376=ORIENTED_EDGE('',*,*,#284,.F.);
#377=ORIENTED_EDGE('',*,*,#285,.F.);
#378=ORIENTED_EDGE('',*,*,#286,.F.);
#379=ORIENTED_EDGE('',*,*,#287,.F.);
#380=ORIENTED_EDGE('',*,*,#288,.F.);
#381=ORIENTED_EDGE('',*,*,#287,.T.);
#382=ORIENTED_EDGE('',*,*,#289,.T.);
#383=ORIENTED_EDGE('',*,*,#284,.T.);
#384=ORIENTED_EDGE('',*,*,#290,.T.);
#385=ORIENTED_EDGE('',*,*,#291,.T.);
#386=ORIENTED_EDGE('',*,*,#292,.T.);
#387=ORIENTED_EDGE('',*,*,#288,.T.);
#388=ORIENTED_EDGE('',*,*,#293,.T.);
#389=ORIENTED_EDGE('',*,*,#291,.F.);
#390=ORIENTED_EDGE('',*,*,#294,.T.);
#391=ORIENTED_EDGE('',*,*,#295,.T.);
#392=ORIENTED_EDGE('',*,*,#296,.F.);
#393=ORIENTED_EDGE('',*,*,#297,.F.);
#394=ORIENTED_EDGE('',*,*,#298,.F.);
#395=ORIENTED_EDGE('',*,*,#285,.T.);
#396=ORIENTED_EDGE('',*,*,#299,.T.);
#397=ORIENTED_EDGE('',*,*,#297,.T.);
#398=ORIENTED_EDGE('',*,*,#300,.T.);
#399=ORIENTED_EDGE('',*,*,#298,.T.);
#400=ORIENTED_EDGE('',*,*,#301,.T.);
#401=ORIENTED_EDGE('',*,*,#286,.T.);
#402=ORIENTED_EDGE('',*,*,#302,.T.);
#403=ORIENTED_EDGE('',*,*,#303,.T.);
#404=ORIENTED_EDGE('',*,*,#304,.T.);
#405=ORIENTED_EDGE('',*,*,#296,.T.);
#406=ORIENTED_EDGE('',*,*,#305,.T.);
#407=ORIENTED_EDGE('',*,*,#303,.F.);
#408=ORIENTED_EDGE('',*,*,#306,.T.);
#409=ORIENTED_EDGE('',*,*,#307,.T.);
#410=ORIENTED_EDGE('',*,*,#308,.T.);
#411=ORIENTED_EDGE('',*,*,#309,.T.);
#412=ORIENTED_EDGE('',*,*,#310,.T.);
#413=ORIENTED_EDGE('',*,*,#308,.F.);
#414=ORIENTED_EDGE('',*,*,#311,.T.);
#415=ORIENTED_EDGE('',*,*,#283,.T.);
#416=ORIENTED_EDGE('',*,*,#312,.T.);
#417=ORIENTED_EDGE('',*,*,#295,.F.);
#418=ORIENTED_EDGE('',*,*,#313,.T.);
#419=ORIENTED_EDGE('',*,*,#306,.F.);
#420=ORIENTED_EDGE('',*,*,#314,.T.);
#421=ORIENTED_EDGE('',*,*,#293,.F.);
#422=ORIENTED_EDGE('',*,*,#290,.F.);
#423=ORIENTED_EDGE('',*,*,#311,.F.);
#424=ORIENTED_EDGE('',*,*,#315,.F.);
#425=ORIENTED_EDGE('',*,*,#294,.F.);
#426=ORIENTED_EDGE('',*,*,#315,.T.);
#427=ORIENTED_EDGE('',*,*,#310,.F.);
#428=ORIENTED_EDGE('',*,*,#316,.T.);
#429=ORIENTED_EDGE('',*,*,#289,.F.);
#430=ORIENTED_EDGE('',*,*,#301,.F.);
#431=ORIENTED_EDGE('',*,*,#299,.F.);
#432=ORIENTED_EDGE('',*,*,#307,.F.);
#433=ORIENTED_EDGE('',*,*,#317,.T.);
#434=ORIENTED_EDGE('',*,*,#309,.F.);
#435=ORIENTED_EDGE('',*,*,#318,.T.);
#436=ORIENTED_EDGE('',*,*,#292,.F.);
#437=ORIENTED_EDGE('',*,*,#314,.F.);
#438=ORIENTED_EDGE('',*,*,#305,.F.);
#439=ORIENTED_EDGE('',*,*,#302,.F.);
#440=ORIENTED_EDGE('',*,*,#304,.F.);
#441=ORIENTED_EDGE('',*,*,#318,.F.);
#442=ORIENTED_EDGE('',*,*,#312,.F.);
#443=ORIENTED_EDGE('',*,*,#300,.F.);
#444=ORIENTED_EDGE('',*,*,#317,.F.);
#445=ORIENTED_EDGE('',*,*,#313,.F.);
#446=ORIENTED_EDGE('',*,*,#316,.F.);
#447=SPHERICAL_SURFACE('',#516,20.);
#448=SPHERICAL_SURFACE('',#521,25.);
#449=SPHERICAL_SURFACE('',#531,2.5);
#450=SPHERICAL_SURFACE('',#545,19.);
#451=SPHERICAL_SURFACE('',#547,0.0800000000000001);
#452=SPHERICAL_SURFACE('',#551,0.0799999999999895);
#453=SPHERICAL_SURFACE('',#560,0.0800000000000001);
#454=ADVANCED_FACE('',(#119),#447,.F.);
#455=ADVANCED_FACE('',(#120,#108),#110,.F.);
#456=ADVANCED_FACE('',(#121),#448,.T.);
#457=ADVANCED_FACE('',(#122),#85,.T.);
#458=ADVANCED_FACE('',(#123),#31,.F.);
#459=ADVANCED_FACE('',(#124),#86,.T.);
#460=ADVANCED_FACE('',(#125),#449,.T.);
#461=ADVANCED_FACE('',(#126),#111,.T.);
#462=ADVANCED_FACE('',(#127),#19,.F.);
#463=ADVANCED_FACE('',(#128),#87,.T.);
#464=ADVANCED_FACE('',(#129),#88,.T.);
#465=ADVANCED_FACE('',(#130),#112,.T.);
#466=ADVANCED_FACE('',(#131),#113,.T.);
#467=ADVANCED_FACE('',(#132,#109),#450,.T.);
#468=ADVANCED_FACE('',(#133),#451,.T.);
#469=ADVANCED_FACE('',(#134),#452,.T.);
#470=ADVANCED_FACE('',(#135),#89,.T.);
#471=ADVANCED_FACE('',(#136),#90,.T.);
#472=ADVANCED_FACE('',(#137),#20,.F.);
#473=ADVANCED_FACE('',(#138),#453,.T.);
#474=ADVANCED_FACE('',(#139),#91,.T.);
#475=ADVANCED_FACE('',(#140),#92,.T.);
#476=ADVANCED_FACE('',(#141),#93,.T.);
#477=ADVANCED_FACE('',(#142),#21,.F.);
#478=ADVANCED_FACE('',(#143),#22,.F.);
#479=ADVANCED_FACE('',(#144),#94,.T.);
#480=ADVANCED_FACE('',(#145),#95,.T.);
#481=ADVANCED_FACE('',(#146),#114,.T.);
#482=ADVANCED_FACE('',(#147),#96,.T.);
#483=ADVANCED_FACE('',(#148),#115,.F.);
#484=ADVANCED_FACE('',(#149),#97,.T.);
#485=ADVANCED_FACE('',(#150),#116,.T.);
#486=ADVANCED_FACE('',(#151),#117,.T.);
#487=ADVANCED_FACE('',(#152),#118,.T.);
#488=CLOSED_SHELL('',(#454,#455,#456));
#489=CLOSED_SHELL('',(#457,#458,#459,#460,#461,#462,#463,#464,#465,#466,
#467));
#490=CLOSED_SHELL('',(#468,#469,#470,#471,#472,#473,#474,#475,#476,#477,
#478,#479,#480,#481,#482,#483,#484,#485,#486,#487));
#491=DERIVED_UNIT_ELEMENT(#495,1.);
#492=DERIVED_UNIT_ELEMENT(#1116,-3.);
#493=DERIVED_UNIT_ELEMENT(#495,1.);
#494=DERIVED_UNIT_ELEMENT(#1116,-3.);
#495=(
MASS_UNIT()
NAMED_UNIT(*)
SI_UNIT(.KILO.,.GRAM.)
);
#496=DERIVED_UNIT((#491,#492));
#497=DERIVED_UNIT((#493,#494));
#498=MEASURE_REPRESENTATION_ITEM('density measure',
POSITIVE_RATIO_MEASURE(7850.),#496);
#499=MEASURE_REPRESENTATION_ITEM('density measure',
POSITIVE_RATIO_MEASURE(7850.),#497);
#500=PROPERTY_DEFINITION_REPRESENTATION(#510,#504);
#501=PROPERTY_DEFINITION_REPRESENTATION(#511,#505);
#502=PROPERTY_DEFINITION_REPRESENTATION(#512,#506);
#503=PROPERTY_DEFINITION_REPRESENTATION(#513,#507);
#504=REPRESENTATION('material name',(#508),#1112);
#505=REPRESENTATION('density',(#498),#1112);
#506=REPRESENTATION('material name',(#509),#1113);
#507=REPRESENTATION('density',(#499),#1113);
#508=DESCRIPTIVE_REPRESENTATION_ITEM('Steel','Steel');
#509=DESCRIPTIVE_REPRESENTATION_ITEM('Steel','Steel');
#510=PROPERTY_DEFINITION('material property','material name',#1132);
#511=PROPERTY_DEFINITION('material property','density of part',#1132);
#512=PROPERTY_DEFINITION('material property','material name',#1133);
#513=PROPERTY_DEFINITION('material property','density of part',#1133);
#514=AXIS2_PLACEMENT_3D('',#749,#584,#585);
#515=AXIS2_PLACEMENT_3D('',#750,#586,#587);
#516=AXIS2_PLACEMENT_3D('',#751,#588,#589);
#517=AXIS2_PLACEMENT_3D('',#753,#590,#591);
#518=AXIS2_PLACEMENT_3D('',#755,#592,#593);
#519=AXIS2_PLACEMENT_3D('',#756,#594,#595);
#520=AXIS2_PLACEMENT_3D('',#758,#596,#597);
#521=AXIS2_PLACEMENT_3D('',#759,#598,#599);
#522=AXIS2_PLACEMENT_3D('',#761,#600,#601);
#523=AXIS2_PLACEMENT_3D('',#762,#602,#603);
#524=AXIS2_PLACEMENT_3D('',#763,#604,#605);
#525=AXIS2_PLACEMENT_3D('',#766,#606,#607);
#526=AXIS2_PLACEMENT_3D('',#798,#610,#611);
#527=AXIS2_PLACEMENT_3D('',#800,#612,#613);
#528=AXIS2_PLACEMENT_3D('',#802,#614,#615);
#529=AXIS2_PLACEMENT_3D('',#803,#616,#617);
#530=AXIS2_PLACEMENT_3D('',#804,#618,#619);
#531=AXIS2_PLACEMENT_3D('',#824,#622,#623);
#532=AXIS2_PLACEMENT_3D('',#825,#624,#625);
#533=AXIS2_PLACEMENT_3D('',#827,#626,#627);
#534=AXIS2_PLACEMENT_3D('',#828,#628,#629);
#535=AXIS2_PLACEMENT_3D('',#830,#630,#631);
#536=AXIS2_PLACEMENT_3D('',#833,#633,#634);
#537=AXIS2_PLACEMENT_3D('',#877,#635,#636);
#538=AXIS2_PLACEMENT_3D('',#878,#637,#638);
#539=AXIS2_PLACEMENT_3D('',#879,#639,#640);
#540=AXIS2_PLACEMENT_3D('',#881,#642,#643);
#541=AXIS2_PLACEMENT_3D('',#901,#645,#646);
#542=AXIS2_PLACEMENT_3D('',#902,#647,#648);
#543=AXIS2_PLACEMENT_3D('',#903,#649,#650);
#544=AXIS2_PLACEMENT_3D('',#904,#651,#652);
#545=AXIS2_PLACEMENT_3D('',#905,#653,#654);
#546=AXIS2_PLACEMENT_3D('',#908,#655,#656);
#547=AXIS2_PLACEMENT_3D('',#909,#657,#658);
#548=AXIS2_PLACEMENT_3D('',#912,#659,#660);
#549=AXIS2_PLACEMENT_3D('',#914,#661,#662);
#550=AXIS2_PLACEMENT_3D('',#915,#663,#664);
#551=AXIS2_PLACEMENT_3D('',#916,#665,#666);
#552=AXIS2_PLACEMENT_3D('',#919,#667,#668);
#553=AXIS2_PLACEMENT_3D('',#921,#669,#670);
#554=AXIS2_PLACEMENT_3D('',#922,#671,#672);
#555=AXIS2_PLACEMENT_3D('',#923,#673,#674);
#556=AXIS2_PLACEMENT_3D('',#926,#677,#678);
#557=AXIS2_PLACEMENT_3D('',#929,#679,#680);
#558=AXIS2_PLACEMENT_3D('',#958,#683,#684);
#559=AXIS2_PLACEMENT_3D('',#959,#685,#686);
#560=AXIS2_PLACEMENT_3D('',#960,#687,#688);
#561=AXIS2_PLACEMENT_3D('',#963,#689,#690);
#562=AXIS2_PLACEMENT_3D('',#965,#691,#692);
#563=AXIS2_PLACEMENT_3D('',#966,#693,#694);
#564=AXIS2_PLACEMENT_3D('',#967,#695,#696);
#565=AXIS2_PLACEMENT_3D('',#970,#699,#700);
#566=AXIS2_PLACEMENT_3D('',#973,#703,#704);
#567=AXIS2_PLACEMENT_3D('',#976,#705,#706);
#568=AXIS2_PLACEMENT_3D('',#1010,#709,#710);
#569=AXIS2_PLACEMENT_3D('',#1011,#711,#712);
#570=AXIS2_PLACEMENT_3D('',#1084,#713,#714);
#571=AXIS2_PLACEMENT_3D('',#1086,#715,#716);
#572=AXIS2_PLACEMENT_3D('',#1087,#717,#718);
#573=AXIS2_PLACEMENT_3D('',#1088,#719,#720);
#574=AXIS2_PLACEMENT_3D('',#1091,#723,#724);
#575=AXIS2_PLACEMENT_3D('',#1094,#727,#728);
#576=AXIS2_PLACEMENT_3D('',#1096,#730,#731);
#577=AXIS2_PLACEMENT_3D('',#1098,#733,#734);
#578=AXIS2_PLACEMENT_3D('',#1099,#735,#736);
#579=AXIS2_PLACEMENT_3D('',#1102,#739,#740);
#580=AXIS2_PLACEMENT_3D('',#1103,#741,#742);
#581=AXIS2_PLACEMENT_3D('',#1104,#743,#744);
#582=AXIS2_PLACEMENT_3D('',#1105,#745,#746);
#583=AXIS2_PLACEMENT_3D('',#1106,#747,#748);
#584=DIRECTION('axis',(0.,0.,1.));
#585=DIRECTION('refdir',(1.,0.,0.));
#586=DIRECTION('axis',(0.,0.,1.));
#587=DIRECTION('refdir',(1.,0.,0.));
#588=DIRECTION('center_axis',(0.,1.,-6.12323399573677E-17));
#589=DIRECTION('ref_axis',(0.,0.,-1.));
#590=DIRECTION('center_axis',(0.,1.,0.));
#591=DIRECTION('ref_axis',(0.,0.,-1.));
#592=DIRECTION('center_axis',(-1.,0.,1.22464679914735E-16));
#593=DIRECTION('ref_axis',(1.22464679914735E-16,0.,1.));
#594=DIRECTION('center_axis',(0.,1.,0.));
#595=DIRECTION('ref_axis',(0.,0.,1.));
#596=DIRECTION('center_axis',(0.,1.,0.));
#597=DIRECTION('ref_axis',(0.,0.,-1.));
#598=DIRECTION('center_axis',(0.,1.,-6.12323399573677E-17));
#599=DIRECTION('ref_axis',(0.,0.,-1.));
#600=DIRECTION('center_axis',(1.,0.,-1.22464679914735E-16));
#601=DIRECTION('ref_axis',(1.22464679914735E-16,0.,1.));
#602=DIRECTION('axis',(0.,0.,1.));
#603=DIRECTION('refdir',(1.,0.,0.));
#604=DIRECTION('center_axis',(0.,0.,1.));
#605=DIRECTION('ref_axis',(-0.38268343236509,0.923879532511287,0.));
#606=DIRECTION('center_axis',(0.,0.,-1.));
#607=DIRECTION('ref_axis',(-1.,0.,0.));
#608=DIRECTION('',(0.,0.,-1.));
#609=DIRECTION('',(0.,0.,1.));
#610=DIRECTION('center_axis',(0.,-0.910179748249922,-0.41421350276845));
#611=DIRECTION('ref_axis',(0.,-0.41421350276845,0.910179748249922));
#612=DIRECTION('center_axis',(1.,0.,0.));
#613=DIRECTION('ref_axis',(0.,-0.707106781186547,0.707106781186548));
#614=DIRECTION('center_axis',(0.,0.,1.));
#615=DIRECTION('ref_axis',(-1.,0.,0.));
#616=DIRECTION('center_axis',(-1.,0.,0.));
#617=DIRECTION('ref_axis',(0.,-0.707106781186547,0.707106781186548));
#618=DIRECTION('center_axis',(0.,0.,1.));
#619=DIRECTION('ref_axis',(-0.707106781186547,-0.707106781186547,0.));
#620=DIRECTION('',(0.,0.,1.));
#621=DIRECTION('',(0.,0.,-1.));
#622=DIRECTION('center_axis',(0.,0.,1.));
#623=DIRECTION('ref_axis',(1.,0.,0.));
#624=DIRECTION('center_axis',(-0.673113552152922,0.673113552152922,0.306327099382591));
#625=DIRECTION('ref_axis',(0.707106781186548,0.707106781186547,3.5527136788005E-15));
#626=DIRECTION('center_axis',(2.22044604925031E-16,-1.,0.));
#627=DIRECTION('ref_axis',(-1.,-2.22044604925031E-16,0.));
#628=DIRECTION('center_axis',(0.707106781186548,0.707106781186548,0.));
#629=DIRECTION('ref_axis',(-0.707106781186548,0.707106781186548,0.));
#630=DIRECTION('center_axis',(-0.707106781186548,-0.707106781186548,0.));
#631=DIRECTION('ref_axis',(0.707106781186547,-0.707106781186547,0.));
#632=DIRECTION('',(0.,0.,1.));
#633=DIRECTION('center_axis',(0.707106781186548,0.707106781186548,0.));
#634=DIRECTION('ref_axis',(0.,0.,-1.));
#635=DIRECTION('center_axis',(0.894427190999916,0.447213595499958,0.));
#636=DIRECTION('ref_axis',(0.447213595499958,-0.894427190999916,0.));
#637=DIRECTION('center_axis',(0.,0.,-1.));
#638=DIRECTION('ref_axis',(0.707106781186548,0.707106781186547,0.));
#639=DIRECTION('center_axis',(1.,0.,0.));
#640=DIRECTION('ref_axis',(0.,-0.707106781186547,0.707106781186547));
#641=DIRECTION('',(1.,0.,0.));
#642=DIRECTION('center_axis',(0.,0.,1.));
#643=DIRECTION('ref_axis',(0.923879532511287,-0.38268343236509,0.));
#644=DIRECTION('',(0.,0.,-1.));
#645=DIRECTION('center_axis',(-1.,0.,0.));
#646=DIRECTION('ref_axis',(0.,-1.,0.));
#647=DIRECTION('center_axis',(-1.,0.,0.));
#648=DIRECTION('ref_axis',(0.,0.,-1.));
#649=DIRECTION('center_axis',(0.,-1.,0.));
#650=DIRECTION('ref_axis',(1.,0.,0.));
#651=DIRECTION('center_axis',(0.,-1.,0.));
#652=DIRECTION('ref_axis',(0.,0.,1.));
#653=DIRECTION('center_axis',(0.0261802945775825,-0.980924572455417,0.192617692149473));
#654=DIRECTION('ref_axis',(0.132111016073042,0.194388742351913,0.971987498005499));
#655=DIRECTION('center_axis',(0.990889131844718,2.19122965386544E-17,-0.134680096495438));
#656=DIRECTION('ref_axis',(-0.132111016073042,-0.194388742351913,-0.971987498005499));
#657=DIRECTION('center_axis',(0.,0.,1.));
#658=DIRECTION('ref_axis',(1.,0.,0.));
#659=DIRECTION('center_axis',(0.,0.,-1.));
#660=DIRECTION('ref_axis',(0.578970995007919,-0.815348138490265,0.));
#661=DIRECTION('center_axis',(0.815348138491969,0.578970995005519,0.));
#662=DIRECTION('ref_axis',(0.,0.,-1.));
#663=DIRECTION('center_axis',(0.83478895303052,0.550570071742198,3.20233351176564E-12));
#664=DIRECTION('ref_axis',(-0.550570071742198,0.83478895303052,0.));
#665=DIRECTION('center_axis',(-0.996801114913562,0.0665710355144713,0.0442248181184606));
#666=DIRECTION('ref_axis',(-0.0799220702126695,-0.830284829274318,-0.551579155670189));
#667=DIRECTION('center_axis',(0.689938674361767,-0.723867823307493,0.));
#668=DIRECTION('ref_axis',(0.,0.,-1.));
#669=DIRECTION('center_axis',(-0.815348138490209,-0.578970995007998,-3.09601041137021E-13));
#670=DIRECTION('ref_axis',(0.578970995007998,-0.815348138490209,0.));
#671=DIRECTION('center_axis',(0.,0.,-1.));
#672=DIRECTION('ref_axis',(-0.723867823307415,-0.689938674361849,0.));
#673=DIRECTION('center_axis',(-0.815348138490182,-0.578970995008036,1.7754678064353E-16));
#674=DIRECTION('ref_axis',(0.409394316680441,-0.576538197754243,-0.707106781186578));
#675=DIRECTION('',(0.815348138490182,0.578970995008036,-1.7754678064353E-16));
#676=DIRECTION('',(-0.815348138490182,-0.578970995008036,1.7754678064353E-16));
#677=DIRECTION('center_axis',(-7.105427357601E-15,8.88178419700125E-15,
1.));
#678=DIRECTION('ref_axis',(-0.0958157405442197,-0.995399087735147,0.));
#679=DIRECTION('center_axis',(0.,0.,-1.));
#680=DIRECTION('ref_axis',(0.578970995008071,-0.815348138490157,0.));
#681=DIRECTION('',(7.105427357601E-15,-8.88178419700125E-15,-1.));
#682=DIRECTION('',(-7.105427357601E-15,8.88178419700125E-15,1.));
#683=DIRECTION('center_axis',(-0.99680891292407,0.0798247525215937,-7.9335367907622E-15));
#684=DIRECTION('ref_axis',(-0.0798247525215936,-0.99680891292407,8.16978565001172E-15));
#685=DIRECTION('center_axis',(0.993732748893102,-0.1117820369172,2.05869932229874E-14));
#686=DIRECTION('ref_axis',(-0.1117820369172,-0.993732748893102,8.16978565001179E-15));
#687=DIRECTION('center_axis',(0.610921952766748,-0.0694362710390801,-0.788639950732811));
#688=DIRECTION('ref_axis',(-0.783594882031293,0.0890619601524357,-0.614855290379916));
#689=DIRECTION('center_axis',(0.,0.,-1.));
#690=DIRECTION('ref_axis',(-0.550570071742149,0.834788953030552,0.));
#691=DIRECTION('center_axis',(-0.834788953030724,-0.550570071741888,0.));
#692=DIRECTION('ref_axis',(0.,0.,-1.));
#693=DIRECTION('center_axis',(-0.689938674361879,0.723867823307386,5.89556920338032E-13));
#694=DIRECTION('ref_axis',(-0.723867823307386,-0.689938674361879,0.));
#695=DIRECTION('center_axis',(0.834788953030565,0.550570071742129,1.76556066136769E-16));
#696=DIRECTION('ref_axis',(-0.38931183124731,0.590284929547557,-0.707106781186478));
#697=DIRECTION('',(-0.834788953030565,-0.550570071742129,-1.76556066136769E-16));
#698=DIRECTION('',(0.834788953030565,0.550570071742129,1.76556066136769E-16));
#699=DIRECTION('center_axis',(-0.689938674361836,0.723867823307427,-1.01551026321125E-14));
#700=DIRECTION('ref_axis',(-0.511851846543427,-0.487860315244169,-0.707106781186508));
#701=DIRECTION('',(0.689938674361836,-0.723867823307427,1.01551026321125E-14));
#702=DIRECTION('',(-0.689938674361836,0.723867823307427,-1.01551026321125E-14));
#703=DIRECTION('center_axis',(-7.105427357601E-15,8.88178419700125E-15,
1.));
#704=DIRECTION('ref_axis',(-0.993602823827537,0.112931078459137,0.));
#705=DIRECTION('center_axis',(-3.89166463437936E-14,4.0830452221512E-14,
-1.));
#706=DIRECTION('ref_axis',(-0.723867823307396,-0.689938674361869,0.));
#707=DIRECTION('',(7.105427357601E-15,-8.88178419700125E-15,-1.));
#708=DIRECTION('',(-7.105427357601E-15,8.88178419700125E-15,1.));
#709=DIRECTION('center_axis',(0.0969727416379738,0.995287037682705,-3.38641318432117E-15));
#710=DIRECTION('ref_axis',(-0.995287037682705,0.0969727416379738,-1.16093981844497E-14));
#711=DIRECTION('center_axis',(-0.128860334953216,-0.991662752187328,5.47870838082787E-15));
#712=DIRECTION('ref_axis',(-0.991662752187327,0.128860334953216,-1.16093981844496E-14));
#713=DIRECTION('center_axis',(-1.3152536663775E-12,-9.33949178230773E-13,
1.));
#714=DIRECTION('ref_axis',(0.578970995010234,-0.815348138488621,0.));
#715=DIRECTION('center_axis',(0.565323448555148,-0.824869322083029,0.));
#716=DIRECTION('ref_axis',(0.824869322083029,0.565323448555148,8.8421256337001E-16));
#717=DIRECTION('center_axis',(-0.564384723429501,0.825511892076308,1.65434631488496E-13));
#718=DIRECTION('ref_axis',(0.825511892076308,0.564384723429501,8.84212563370011E-16));
#719=DIRECTION('center_axis',(-7.10542735760099E-15,8.88178419700128E-15,
1.));
#720=DIRECTION('ref_axis',(0.825190740561539,0.564854177369255,0.));
#721=DIRECTION('',(7.10542735760098E-15,-8.88178419700127E-15,-1.));
#722=DIRECTION('',(-7.10542735760098E-15,8.88178419700127E-15,1.));
#723=DIRECTION('center_axis',(0.689938674361836,-0.723867823307427,1.13315469256472E-14));
#724=DIRECTION('ref_axis',(-0.511851846543432,-0.487860315244106,0.707106781186548));
#725=DIRECTION('',(-0.689938674361836,0.723867823307427,-1.13315469256472E-14));
#726=DIRECTION('',(0.689938674361836,-0.723867823307427,1.13315469256472E-14));
#727=DIRECTION('center_axis',(0.578970995008036,-0.815348138490182,1.13555825586841E-14));
#728=DIRECTION('ref_axis',(0.815348138490182,0.578970995008036,-1.77546780643529E-16));
#729=DIRECTION('',(0.815348138490182,0.578970995008036,6.51101535212729E-16));
#730=DIRECTION('center_axis',(0.815348138490182,0.578970995008036,6.51101535212729E-16));
#731=DIRECTION('ref_axis',(0.4093943166805,-0.57653819775423,0.707106781186556));
#732=DIRECTION('',(-0.815348138490182,-0.578970995008036,-6.51101535212729E-16));
#733=DIRECTION('center_axis',(-5.81108326271793E-15,8.4902400014768E-15,
1.));
#734=DIRECTION('ref_axis',(1.,-1.71905115110338E-45,5.81108326271793E-15));
#735=DIRECTION('center_axis',(-0.834788953030565,-0.550570071742129,-1.04148770214539E-15));
#736=DIRECTION('ref_axis',(-0.389311831247225,0.590284929547535,0.707106781186543));
#737=DIRECTION('',(0.834788953030565,0.550570071742129,1.04148770214539E-15));
#738=DIRECTION('',(-0.834788953030565,-0.550570071742129,-1.04148770214539E-15));
#739=DIRECTION('center_axis',(-0.723867823307427,-0.689938674361836,9.84496179831261E-16));
#740=DIRECTION('ref_axis',(0.689938674361836,-0.723867823307427,1.01551026321125E-14));
#741=DIRECTION('center_axis',(-0.550570071742129,0.834788953030565,-1.1326450980891E-14));
#742=DIRECTION('ref_axis',(-0.834788953030565,-0.550570071742129,-1.7655606613677E-16));
#743=DIRECTION('center_axis',(-7.105427357601E-15,8.88178419700125E-15,
1.));
#744=DIRECTION('ref_axis',(1.,-2.10194769648723E-45,7.105427357601E-15));
#745=DIRECTION('',(0.,0.,1.));
#746=DIRECTION('',(1.,0.,0.));
#747=DIRECTION('',(0.,0.,1.));
#748=DIRECTION('',(1.,0.,0.));
#749=CARTESIAN_POINT('',(0.,0.,0.));
#750=CARTESIAN_POINT('',(0.,0.,0.));
#751=CARTESIAN_POINT('Origin',(0.,0.,0.));
#752=CARTESIAN_POINT('',(-2.44929359829471E-15,0.,20.));
#753=CARTESIAN_POINT('Origin',(0.,0.,0.));
#754=CARTESIAN_POINT('',(1.49975978266186E-31,20.,1.22464679914735E-15));
#755=CARTESIAN_POINT('Origin',(0.,0.,0.));
#756=CARTESIAN_POINT('Origin',(0.,0.,0.));
#757=CARTESIAN_POINT('',(0.,0.,25.));
#758=CARTESIAN_POINT('Origin',(0.,0.,0.));
#759=CARTESIAN_POINT('Origin',(0.,0.,0.));
#760=CARTESIAN_POINT('',(1.87469972832732E-31,25.,1.53080849893419E-15));
#761=CARTESIAN_POINT('Origin',(0.,0.,0.));
#762=CARTESIAN_POINT('',(0.,0.,0.));
#763=CARTESIAN_POINT('Origin',(2.5,3.96446624307887,0.));
#764=CARTESIAN_POINT('',(0.,3.96446624307887,37.2754493706248));
#765=CARTESIAN_POINT('',(4.26776695296637,5.73223319604524,37.2754493706248));
#766=CARTESIAN_POINT('Origin',(2.5,3.96446624307887,37.2754493706248));
#767=CARTESIAN_POINT('',(4.26776695296637,5.73223319604524,7.60476264598092));
#768=CARTESIAN_POINT('',(4.26776695296637,5.73223319604524,0.));
#769=CARTESIAN_POINT('',(0.,3.96446624307887,8.58179236261906));
#770=CARTESIAN_POINT('Ctrl Pts',(2.68882138776405E-16,3.96446624307887,
8.58179236261906));
#771=CARTESIAN_POINT('Ctrl Pts',(2.68786814596051E-16,3.96506131842821,
8.58166540198532));
#772=CARTESIAN_POINT('Ctrl Pts',(2.12339871983832E-7,3.96565638888966,8.58153841250759));
#773=CARTESIAN_POINT('Ctrl Pts',(0.000237976800258571,4.29851938953273,
8.51048792379627));
#774=CARTESIAN_POINT('Ctrl Pts',(0.0701122532945635,4.62908387073408,8.43010634005814));
#775=CARTESIAN_POINT('Ctrl Pts',(0.307583036738157,5.20623701621496,8.27307918922731));
#776=CARTESIAN_POINT('Ctrl Pts',(0.493036799766071,5.49211184172976,8.18549827262254));
#777=CARTESIAN_POINT('Ctrl Pts',(0.964562073980027,5.96547396555726,8.01669963015555));
#778=CARTESIAN_POINT('Ctrl Pts',(1.2506506808008,6.15294931165596,7.93549614290258));
#779=CARTESIAN_POINT('Ctrl Pts',(1.54329141908728,6.27416507435709,7.86765525231247));
#780=CARTESIAN_POINT('Ctrl Pts',(1.83003498686158,6.39293814905246,7.80118146222194));
#781=CARTESIAN_POINT('Ctrl Pts',(2.16158152469396,6.46379582740314,7.73866731425995));
#782=CARTESIAN_POINT('Ctrl Pts',(2.8284389664189,6.46512669968499,7.64413440899015));
#783=CARTESIAN_POINT('Ctrl Pts',(3.16375900835518,6.39550876040183,7.61217886334273));
#784=CARTESIAN_POINT('Ctrl Pts',(3.74701936525341,6.15391441018001,7.58374602194726));
#785=CARTESIAN_POINT('Ctrl Pts',(4.03245040757279,5.96754974143882,7.58518765118566));
#786=CARTESIAN_POINT('Ctrl Pts',(4.26776695296637,5.73223319604524,7.60476264598092));
#787=CARTESIAN_POINT('',(0.,3.96446624307887,0.));
#788=CARTESIAN_POINT('Ctrl Pts',(0.,3.96446624307887,37.2754493706248));
#789=CARTESIAN_POINT('Ctrl Pts',(0.,2.5,36.6089857480291));
#790=CARTESIAN_POINT('Ctrl Pts',(0.,2.5,35.));
#791=CARTESIAN_POINT('Ctrl Pts',(-1.73500008164667E-15,2.92893248615775,
39.5508987412496));
#792=CARTESIAN_POINT('Ctrl Pts',(-1.71459551809267E-15,-1.11022302462516E-15,
38.2179714960583));
#793=CARTESIAN_POINT('Ctrl Pts',(-1.66533453693773E-15,0.,35.));
#794=CARTESIAN_POINT('Ctrl Pts',(2.5,2.92893248615775,39.5508987412496));
#795=CARTESIAN_POINT('Ctrl Pts',(2.5,-1.11022302462516E-15,38.2179714960583));
#796=CARTESIAN_POINT('Ctrl Pts',(2.5,0.,35.));
#797=CARTESIAN_POINT('',(2.5,2.92893248615775,39.5508987412496));
#798=CARTESIAN_POINT('Origin',(2.5,3.96446624307887,37.2754493706248));
#799=CARTESIAN_POINT('',(0.,2.5,35.));
#800=CARTESIAN_POINT('Origin',(0.,5.,35.));
#801=CARTESIAN_POINT('',(2.5,0.,35.));
#802=CARTESIAN_POINT('Origin',(2.5,2.5,35.));
#803=CARTESIAN_POINT('Origin',(2.5,5.,35.));
#804=CARTESIAN_POINT('Origin',(2.5,2.5,0.));
#805=CARTESIAN_POINT('',(0.,2.5,8.83480820183736));
#806=CARTESIAN_POINT('',(2.5,0.,8.83480820183736));
#807=CARTESIAN_POINT('Ctrl Pts',(2.5,3.55618312575245E-16,8.83480820183736));
#808=CARTESIAN_POINT('Ctrl Pts',(2.49713631664066,3.55217885299675E-16,
8.83518830702992));
#809=CARTESIAN_POINT('Ctrl Pts',(2.49427423046728,4.92043403705287E-6,8.83556753561309));
#810=CARTESIAN_POINT('Ctrl Pts',(2.18051957502804,0.00108251376979711,8.87706758344829));
#811=CARTESIAN_POINT('Ctrl Pts',(1.84781857890655,0.0638346475910338,8.91275480465408));
#812=CARTESIAN_POINT('Ctrl Pts',(1.23454392826,0.318518067689225,8.96009626013284));
#813=CARTESIAN_POINT('Ctrl Pts',(0.95398441567739,0.510481678389873,8.97175979000535));
#814=CARTESIAN_POINT('Ctrl Pts',(0.732233047033631,0.732233047033631,8.97175979000535));
#815=CARTESIAN_POINT('Ctrl Pts',(0.510481678389873,0.953984415677389,8.97175979000535));
#816=CARTESIAN_POINT('Ctrl Pts',(0.318518067689226,1.23454392826,8.96009626013284));
#817=CARTESIAN_POINT('Ctrl Pts',(0.063834647591034,1.84781857890655,8.91275480465408));
#818=CARTESIAN_POINT('Ctrl Pts',(0.00108251376979732,2.18051957502804,8.87706758344829));
#819=CARTESIAN_POINT('Ctrl Pts',(4.92043404331732E-6,2.49427423046546,8.83556753561333));
#820=CARTESIAN_POINT('Ctrl Pts',(3.03576608295941E-16,2.49713631663885,
8.83518830703016));
#821=CARTESIAN_POINT('Ctrl Pts',(3.03576608295941E-16,2.5,8.83480820183736));
#822=CARTESIAN_POINT('',(2.5,0.,0.));
#823=CARTESIAN_POINT('',(0.,2.5,0.));
#824=CARTESIAN_POINT('Origin',(2.5,3.96446624307887,37.2754493706248));
#825=CARTESIAN_POINT('Origin',(2.5,3.96446624307887,37.2754493706248));
#826=CARTESIAN_POINT('',(2.5,3.96446624307887,39.7754493706248));
#827=CARTESIAN_POINT('Origin',(2.5,3.96446624307887,37.2754493706248));
#828=CARTESIAN_POINT('Origin',(10.0000001490116,0.,0.));
#829=CARTESIAN_POINT('',(5.73223319604524,4.26776695296637,35.));
#830=CARTESIAN_POINT('Origin',(3.23223319604524,6.76776695296637,35.));
#831=CARTESIAN_POINT('',(5.73223319604525,4.26776695296637,7.60476264598092));
#832=CARTESIAN_POINT('',(5.73223319604524,4.26776695296637,0.));
#833=CARTESIAN_POINT('Origin',(5.00000007450581,5.00000007450581,-10.));
#834=CARTESIAN_POINT('Ctrl Pts',(5.73223319604524,4.26776695296637,35.));
#835=CARTESIAN_POINT('Ctrl Pts',(5.73223319604524,4.26776695296637,35.2723137633069));
#836=CARTESIAN_POINT('Ctrl Pts',(5.66422566170253,4.33577448730908,35.6801544946888));
#837=CARTESIAN_POINT('Ctrl Pts',(5.28556645514584,4.71443369386577,36.5590115659673));
#838=CARTESIAN_POINT('Ctrl Pts',(4.76347589802975,5.23652425098187,37.049857295122));
#839=CARTESIAN_POINT('Ctrl Pts',(4.26776695296637,5.73223319604524,37.2754493706248));
#840=CARTESIAN_POINT('Ctrl Pts',(6.12891917266653,3.87108097634509,35.));
#841=CARTESIAN_POINT('Ctrl Pts',(6.12891917266653,3.87108097634509,35.3585226610315));
#842=CARTESIAN_POINT('Ctrl Pts',(6.03387884420931,3.96648843442307,35.8932285044899));
#843=CARTESIAN_POINT('Ctrl Pts',(5.53691512906226,4.46264156253171,36.9697770199178));
#844=CARTESIAN_POINT('Ctrl Pts',(4.91791104061056,5.08244160899549,37.4833870414226));
#845=CARTESIAN_POINT('Ctrl Pts',(4.36410749356468,5.63589265544693,37.6988407299213));
#846=CARTESIAN_POINT('Ctrl Pts',(6.6431112156206,2.80116354879643,35.));
#847=CARTESIAN_POINT('Ctrl Pts',(6.6431112156206,2.80116354879643,35.531512273924));
#848=CARTESIAN_POINT('Ctrl Pts',(6.5009983025786,2.95687563040628,36.319738638972));
#849=CARTESIAN_POINT('Ctrl Pts',(5.8014065801297,3.72427092374572,37.7924145400692));
#850=CARTESIAN_POINT('Ctrl Pts',(5.02668062966643,4.5739036039824,38.3503062152211));
#851=CARTESIAN_POINT('Ctrl Pts',(4.38460007381603,5.27126284370315,38.545096584568));
#852=CARTESIAN_POINT('Ctrl Pts',(6.28070582644465,1.21068341332295,35.));
#853=CARTESIAN_POINT('Ctrl Pts',(6.28070582644465,1.21068341332295,35.6649845038934));
#854=CARTESIAN_POINT('Ctrl Pts',(6.12762053768004,1.41708016030555,36.6512801332505));
#855=CARTESIAN_POINT('Ctrl Pts',(5.38606768981817,2.4303272265309,38.4847612186272));
#856=CARTESIAN_POINT('Ctrl Pts',(4.58522962298237,3.54294693615121,39.1606655337539));
#857=CARTESIAN_POINT('Ctrl Pts',(3.93273641056747,4.43716009805143,39.3850167452284));
#858=CARTESIAN_POINT('Ctrl Pts',(5.2255020809624,0.217171348153794,35.));
#859=CARTESIAN_POINT('Ctrl Pts',(5.2255020809624,0.217171348153793,35.6582888964398));
#860=CARTESIAN_POINT('Ctrl Pts',(5.10672891227762,0.413300110414218,36.6378065224565));
#861=CARTESIAN_POINT('Ctrl Pts',(4.5125938080759,1.41365107670238,38.5553057081879));
#862=CARTESIAN_POINT('Ctrl Pts',(3.82665582014677,2.5963119876024,39.3881284289186));
#863=CARTESIAN_POINT('Ctrl Pts',(3.23977679927485,3.59790380723423,39.706484476361));
#864=CARTESIAN_POINT('Ctrl Pts',(4.38521525918465,4.67125245269013E-17,
35.));
#865=CARTESIAN_POINT('Ctrl Pts',(4.38521525918465,-7.24539213776849E-16,
35.5905971537877));
#866=CARTESIAN_POINT('Ctrl Pts',(4.30035345395283,0.159700687993285,36.4726278674892));
#867=CARTESIAN_POINT('Ctrl Pts',(3.84947201357464,1.01691465391116,38.3044585106159));
#868=CARTESIAN_POINT('Ctrl Pts',(3.27292159200608,2.12651589383108,39.2395959186275));
#869=CARTESIAN_POINT('Ctrl Pts',(2.7466954207369,3.13330167642823,39.6439050713978));
#870=CARTESIAN_POINT('Ctrl Pts',(3.96446624307887,0.,35.));
#871=CARTESIAN_POINT('Ctrl Pts',(3.96446624307888,-8.70968072010459E-16,
35.5446275266139));
#872=CARTESIAN_POINT('Ctrl Pts',(3.89645870873617,0.13601506868542,36.3603089893775));
#873=CARTESIAN_POINT('Ctrl Pts',(3.51779950217948,0.893333481798797,38.1180231319345));
#874=CARTESIAN_POINT('Ctrl Pts',(2.99570894506338,1.937514596031,39.0997145902439));
#875=CARTESIAN_POINT('Ctrl Pts',(2.5,2.92893248615775,39.5508987412496));
#876=CARTESIAN_POINT('',(3.96446624307888,0.,35.));
#877=CARTESIAN_POINT('Origin',(1.46446624307887,5.,35.));
#878=CARTESIAN_POINT('Origin',(3.96446624307888,2.5,35.));
#879=CARTESIAN_POINT('Origin',(2.5000000372529,5.,35.));
#880=CARTESIAN_POINT('',(2.5000000372529,0.,35.));
#881=CARTESIAN_POINT('Origin',(3.96446624307888,2.5,0.));
#882=CARTESIAN_POINT('',(3.96446624307888,0.,8.58179236261906));
#883=CARTESIAN_POINT('',(3.96446624307888,0.,0.));
#884=CARTESIAN_POINT('Ctrl Pts',(5.73223319604524,4.26776695296637,7.60476264598092));
#885=CARTESIAN_POINT('Ctrl Pts',(5.96623077800121,4.0337693710104,7.58529737021279));
#886=CARTESIAN_POINT('Ctrl Pts',(6.15180655138595,3.75025726674609,7.58376069753341));
#887=CARTESIAN_POINT('Ctrl Pts',(6.39437714466357,3.16834194095052,7.61178293210528));
#888=CARTESIAN_POINT('Ctrl Pts',(6.46475943275692,2.83216147388071,7.64368961521499));
#889=CARTESIAN_POINT('Ctrl Pts',(6.46417111771326,2.16343888150938,7.73832180175154));
#890=CARTESIAN_POINT('Ctrl Pts',(6.39329135113436,1.83088769211797,7.80098378542429));
#891=CARTESIAN_POINT('Ctrl Pts',(6.27416507435709,1.54329141908728,7.86765525231247));
#892=CARTESIAN_POINT('Ctrl Pts',(6.15294931165596,1.2506506808008,7.93549614290257));
#893=CARTESIAN_POINT('Ctrl Pts',(5.96547396555726,0.964562073980028,8.01669963015555));
#894=CARTESIAN_POINT('Ctrl Pts',(5.49211184172976,0.493036799766073,8.18549827262254));
#895=CARTESIAN_POINT('Ctrl Pts',(5.20623701621496,0.307583036738158,8.27307918922731));
#896=CARTESIAN_POINT('Ctrl Pts',(4.62908387073409,0.070112253294564,8.43010634005813));
#897=CARTESIAN_POINT('Ctrl Pts',(4.29851938953273,0.000237976800258368,
8.51048792379627));
#898=CARTESIAN_POINT('Ctrl Pts',(3.96565638888966,2.12339871706547E-7,8.58153841250759));
#899=CARTESIAN_POINT('Ctrl Pts',(3.96506131842822,1.7267797942806E-17,8.58166540198532));
#900=CARTESIAN_POINT('Ctrl Pts',(3.96446624307888,1.73472347597681E-17,
8.58179236261906));
#901=CARTESIAN_POINT('Origin',(0.,10.0000001490116,0.));
#902=CARTESIAN_POINT('Origin',(0.,0.,-10.));
#903=CARTESIAN_POINT('Origin',(0.,0.,0.));
#904=CARTESIAN_POINT('Origin',(0.,0.,-10.));
#905=CARTESIAN_POINT('Origin',(0.,0.,-10.));
#906=CARTESIAN_POINT('',(0.497425596974067,-18.6375668766529,-6.34026384916001));
#907=CARTESIAN_POINT('',(-0.497425596974068,18.6375668766529,-13.65973615084));
#908=CARTESIAN_POINT('Origin',(0.,0.,-10.));
#909=CARTESIAN_POINT('Origin',(292.089662454432,201.118364332581,20.0800000000001));
#910=CARTESIAN_POINT('',(292.135980134033,201.053136481501,20.0800000000001));
#911=CARTESIAN_POINT('',(292.045616848693,201.185147448823,20.0800000000001));
#912=CARTESIAN_POINT('Origin',(292.089662454432,201.11836433258,20.0800000000001));
#913=CARTESIAN_POINT('',(292.089662454432,201.118364332581,20.0000000000001));
#914=CARTESIAN_POINT('Origin',(292.089662454432,201.118364332581,20.0800000000001));
#915=CARTESIAN_POINT('Origin',(292.089662454432,201.11836433258,20.0800000000001));
#916=CARTESIAN_POINT('Origin',(-30.3666079866763,-27.8547809174677,20.0800000000001));
#917=CARTESIAN_POINT('',(-30.3666079866763,-27.8547809174677,20.0000000000001));
#918=CARTESIAN_POINT('',(-30.4245174125409,-27.9099760114167,20.0800000000001));
#919=CARTESIAN_POINT('Origin',(-30.3666079866763,-27.8547809174677,20.0800000000001));
#920=CARTESIAN_POINT('',(-30.3202903070757,-27.9200087685469,20.0800000000001));
#921=CARTESIAN_POINT('Origin',(-30.3666079866763,-27.8547809174677,20.0800000000001));
#922=CARTESIAN_POINT('Origin',(-30.3666079866763,-27.8547809174677,20.0800000000001));
#923=CARTESIAN_POINT('Origin',(49.5479563677343,28.8917947545928,20.0800000000001));
#924=CARTESIAN_POINT('',(49.5479563677343,28.8917947545928,20.0000000000001));
#925=CARTESIAN_POINT('',(49.594274047335,28.8265669035136,20.0800000000001));
#926=CARTESIAN_POINT('Origin',(-30.3666079866763,-27.8547809174677,20.0000000000002));
#927=CARTESIAN_POINT('',(-30.3202903070758,-27.9200087685468,37.4999999999998));
#928=CARTESIAN_POINT('',(-30.424517412541,-27.9099760114165,37.4999999999998));
#929=CARTESIAN_POINT('Origin',(-30.3666079866764,-27.8547809174676,37.4999999999998));
#930=CARTESIAN_POINT('',(-30.4245174125409,-27.9099760114167,20.0000000000002));
#931=CARTESIAN_POINT('',(-30.3202903070757,-27.9200087685469,20.0000000000002));
#932=CARTESIAN_POINT('Ctrl Pts',(-30.0599458173248,-24.6689657071319,39.9999999999998));
#933=CARTESIAN_POINT('Ctrl Pts',(-30.1417554919847,-25.396246718714,39.9999999999998));
#934=CARTESIAN_POINT('Ctrl Pts',(-30.3329570521351,-27.0960122374051,39.542952146328));
#935=CARTESIAN_POINT('Ctrl Pts',(-30.424517412541,-27.9099760114165,38.2479982508545));
#936=CARTESIAN_POINT('Ctrl Pts',(-30.424517412541,-27.9099760114165,37.4999999999998));
#937=CARTESIAN_POINT('Ctrl Pts',(-30.0599458173248,-24.6689657071319,39.9999999999998));
#938=CARTESIAN_POINT('Ctrl Pts',(-30.137300538123,-25.396675546416,39.9999999999998));
#939=CARTESIAN_POINT('Ctrl Pts',(-30.3182532588914,-27.0974004453554,39.5503668132635));
#940=CARTESIAN_POINT('Ctrl Pts',(-30.4095163524195,-27.9257147794273,38.2536980318392));
#941=CARTESIAN_POINT('Ctrl Pts',(-30.4095163524195,-27.9257147794273,37.4999999999998));
#942=CARTESIAN_POINT('Ctrl Pts',(-30.0599458173248,-24.6689657071319,39.9999999999998));
#943=CARTESIAN_POINT('Ctrl Pts',(-30.129504368865,-25.3974259948944,39.9999999999998));
#944=CARTESIAN_POINT('Ctrl Pts',(-30.2919986567544,-27.099593589654,39.5560612899341));
#945=CARTESIAN_POINT('Ctrl Pts',(-30.3715842378264,-27.9417311116721,38.2584806343245));
#946=CARTESIAN_POINT('Ctrl Pts',(-30.3715842378264,-27.9417311116721,37.4999999999998));
#947=CARTESIAN_POINT('Ctrl Pts',(-30.0599458173248,-24.6689657071319,39.9999999999998));
#948=CARTESIAN_POINT('Ctrl Pts',(-30.1217081996071,-25.3981764433729,39.9999999999998));
#949=CARTESIAN_POINT('Ctrl Pts',(-30.2659330835581,-27.102502904907,39.5485128124233));
#950=CARTESIAN_POINT('Ctrl Pts',(-30.3335861479598,-27.9294500192993,38.2522268943471));
#951=CARTESIAN_POINT('Ctrl Pts',(-30.3335861479598,-27.9294500192993,37.4999999999998));
#952=CARTESIAN_POINT('Ctrl Pts',(-30.0599458173248,-24.6689657071319,39.9999999999998));
#953=CARTESIAN_POINT('Ctrl Pts',(-30.1183669842108,-25.3984980641494,39.9999999999998));
#954=CARTESIAN_POINT('Ctrl Pts',(-30.2549060708267,-27.1035253169994,39.5429521463279));
#955=CARTESIAN_POINT('Ctrl Pts',(-30.3202903070758,-27.9200087685467,38.2479982508545));
#956=CARTESIAN_POINT('Ctrl Pts',(-30.3202903070758,-27.9200087685468,37.4999999999998));
#957=CARTESIAN_POINT('',(-30.0599458173248,-24.6689657071319,39.9999999999998));
#958=CARTESIAN_POINT('Origin',(-30.0599458173247,-24.6689657071319,37.4999999999998));
#959=CARTESIAN_POINT('Origin',(-30.0599458173248,-24.668965707132,37.4999999999998));
#960=CARTESIAN_POINT('Origin',(-39.9076698790718,-17.8445177437473,20.08));
#961=CARTESIAN_POINT('',(-39.9517154848112,-17.7777346275048,20.08));
#962=CARTESIAN_POINT('',(-39.9655793049364,-17.8997128376962,20.08));
#963=CARTESIAN_POINT('Origin',(-39.9076698790717,-17.8445177437472,20.08));
#964=CARTESIAN_POINT('',(-39.9076698790718,-17.8445177437473,20.));
#965=CARTESIAN_POINT('Origin',(-39.9076698790718,-17.8445177437473,20.08));
#966=CARTESIAN_POINT('Origin',(-39.9076698790718,-17.8445177437473,20.08));
#967=CARTESIAN_POINT('Origin',(210.816582034429,147.516162776007,20.0800000000001));
#968=CARTESIAN_POINT('',(210.816582034429,147.516162776007,20.0000000000001));
#969=CARTESIAN_POINT('',(210.772536428689,147.58294589225,20.0800000000001));
#970=CARTESIAN_POINT('Origin',(-26.3936810646916,-32.0230846668359,20.0800000000002));
#971=CARTESIAN_POINT('',(-26.3936810646916,-32.0230846668359,20.0000000000002));
#972=CARTESIAN_POINT('',(-26.4515904905562,-32.0782797607848,20.0800000000002));
#973=CARTESIAN_POINT('Origin',(-39.9076698790717,-17.8445177437472,19.9999999999998));
#974=CARTESIAN_POINT('',(-39.9655793049365,-17.8997128376961,37.4999999999997));
#975=CARTESIAN_POINT('',(-39.9517154848112,-17.7777346275046,37.4999999999997));
#976=CARTESIAN_POINT('Origin',(-39.9076698790718,-17.8445177437471,37.4999999999997));
#977=CARTESIAN_POINT('',(-39.9517154848111,-17.7777346275047,19.9999999999998));
#978=CARTESIAN_POINT('',(-39.9655793049364,-17.8997128376962,19.9999999999998));
#979=CARTESIAN_POINT('Ctrl Pts',(-36.1583515131413,-18.2706584071979,39.9999999999997));
#980=CARTESIAN_POINT('Ctrl Pts',(-37.0095803978407,-18.1600465696934,39.9999999999998));
#981=CARTESIAN_POINT('Ctrl Pts',(-38.9990335819644,-17.9015296463597,39.5429543399461));
#982=CARTESIAN_POINT('Ctrl Pts',(-39.9517154848115,-17.7777346275046,38.247998250854));
#983=CARTESIAN_POINT('Ctrl Pts',(-39.9517154848114,-17.7777346275047,37.4999999999993));
#984=CARTESIAN_POINT('Ctrl Pts',(-36.1583515131413,-18.2706584071979,39.9999999999997));
#985=CARTESIAN_POINT('Ctrl Pts',(-37.0098766867893,-18.1626534122039,39.9999999999998));
#986=CARTESIAN_POINT('Ctrl Pts',(-38.9993573191814,-17.910251901222,39.5480312752699));
#987=CARTESIAN_POINT('Ctrl Pts',(-39.9628406213343,-17.7850720116317,38.2527771301453));
#988=CARTESIAN_POINT('Ctrl Pts',(-39.9628406213341,-17.7850720116319,37.4999999999993));
#989=CARTESIAN_POINT('Ctrl Pts',(-36.1583515131413,-18.2706584071979,39.9999999999997));
#990=CARTESIAN_POINT('Ctrl Pts',(-37.0104692646867,-18.1678670972247,39.9999999999997));
#991=CARTESIAN_POINT('Ctrl Pts',(-38.9999220906188,-17.9278455284175,39.5553209995097));
#992=CARTESIAN_POINT('Ctrl Pts',(-39.9812791853509,-17.8053940300027,38.2602643652302));
#993=CARTESIAN_POINT('Ctrl Pts',(-39.9812791853507,-17.8053940300028,37.4999999999993));
#994=CARTESIAN_POINT('Ctrl Pts',(-36.1583515131413,-18.2706584071979,39.9999999999997));
#995=CARTESIAN_POINT('Ctrl Pts',(-37.0115062760071,-18.1769910460113,39.9999999999997));
#996=CARTESIAN_POINT('Ctrl Pts',(-39.0027530734512,-17.9583855228826,39.5578859344837));
#997=CARTESIAN_POINT('Ctrl Pts',(-39.9927191245303,-17.8522001717695,38.2630848018245));
#998=CARTESIAN_POINT('Ctrl Pts',(-39.9927191245302,-17.8522001717695,37.4999999999994));
#999=CARTESIAN_POINT('Ctrl Pts',(-36.1583515131413,-18.2706584071979,39.9999999999997));
#1000=CARTESIAN_POINT('Ctrl Pts',(-37.0122469983788,-18.1835081522874,39.9999999999997));
#1001=CARTESIAN_POINT('Ctrl Pts',(-39.006901064607,-17.9799870482241,39.5505652186336));
#1002=CARTESIAN_POINT('Ctrl Pts',(-39.9793714051736,-17.8852424826509,38.2552087991251));
#1003=CARTESIAN_POINT('Ctrl Pts',(-39.9793714051735,-17.885242482651,37.4999999999996));
#1004=CARTESIAN_POINT('Ctrl Pts',(-36.1583515131413,-18.2706584071979,39.9999999999997));
#1005=CARTESIAN_POINT('Ctrl Pts',(-37.0126914318018,-18.1874184160531,39.9999999999997));
#1006=CARTESIAN_POINT('Ctrl Pts',(-39.0094155820912,-17.9928737190786,39.542954339946));
#1007=CARTESIAN_POINT('Ctrl Pts',(-39.9655793049365,-17.8997128376961,38.2479982508544));
#1008=CARTESIAN_POINT('Ctrl Pts',(-39.9655793049365,-17.8997128376961,37.4999999999997));
#1009=CARTESIAN_POINT('',(-36.1583515131415,-18.2706584071976,39.9999999999997));
#1010=CARTESIAN_POINT('Origin',(-36.1583515131414,-18.2706584071975,37.4999999999997));
#1011=CARTESIAN_POINT('Origin',(-36.1583515131415,-18.2706584071976,37.4999999999997));
#1012=CARTESIAN_POINT('Ctrl Pts',(176.045955023448,121.684883469219,40.));
#1013=CARTESIAN_POINT('Ctrl Pts',(193.412982168328,133.558346354535,40.));
#1014=CARTESIAN_POINT('Ctrl Pts',(228.134213014382,157.296505012546,39.8293408480738));
#1015=CARTESIAN_POINT('Ctrl Pts',(269.915384653129,185.861393327583,39.111995754082));
#1016=CARTESIAN_POINT('Ctrl Pts',(287.295451272001,197.743771020782,38.3345360871264));
#1017=CARTESIAN_POINT('Ctrl Pts',(291.282283653546,200.469482561241,37.8266499568064));
#1018=CARTESIAN_POINT('Ctrl Pts',(291.923223602656,200.907679417501,37.6635526265015));
#1019=CARTESIAN_POINT('Ctrl Pts',(292.105420819863,201.03224373575,37.5701240726743));
#1020=CARTESIAN_POINT('Ctrl Pts',(292.135980134034,201.053136481502,37.5233749453393));
#1021=CARTESIAN_POINT('Ctrl Pts',(292.135980134034,201.053136481502,37.5000000000001));
#1022=CARTESIAN_POINT('Ctrl Pts',(176.045955023448,121.684883469219,40.));
#1023=CARTESIAN_POINT('Ctrl Pts',(193.411694709673,133.560227192109,40.));
#1024=CARTESIAN_POINT('Ctrl Pts',(228.130496753291,157.302274268564,39.831293247918));
#1025=CARTESIAN_POINT('Ctrl Pts',(269.90995260739,185.869441948427,39.1223793433912));
#1026=CARTESIAN_POINT('Ctrl Pts',(287.292782822555,197.750248219888,38.3516401812449));
#1027=CARTESIAN_POINT('Ctrl Pts',(291.282755227279,200.473437161194,37.8475387982308));
#1028=CARTESIAN_POINT('Ctrl Pts',(291.927878140857,200.912783864542,37.684477274973));
#1029=CARTESIAN_POINT('Ctrl Pts',(292.113363997831,201.038614518614,37.590827964701));
#1030=CARTESIAN_POINT('Ctrl Pts',(292.155282443903,201.066842869023,37.5361798365372));
#1031=CARTESIAN_POINT('Ctrl Pts',(292.155282443903,201.066842869023,37.5000000000001));
#1032=CARTESIAN_POINT('Ctrl Pts',(176.045955023448,121.684883469219,40.));
#1033=CARTESIAN_POINT('Ctrl Pts',(193.409119792363,133.563988867258,40.));
#1034=CARTESIAN_POINT('Ctrl Pts',(228.123084684398,157.313731734951,39.8339159781683));
#1035=CARTESIAN_POINT('Ctrl Pts',(269.896528654235,185.889048939126,39.1380826767317));
#1036=CARTESIAN_POINT('Ctrl Pts',(287.280100707631,197.773176466586,38.380513143572));
#1037=CARTESIAN_POINT('Ctrl Pts',(291.272566810704,200.496453068369,37.8868047534592));
#1038=CARTESIAN_POINT('Ctrl Pts',(291.924819911385,200.939849146871,37.7250378607148));
#1039=CARTESIAN_POINT('Ctrl Pts',(292.116212590873,201.069190250906,37.6317402416011));
#1040=CARTESIAN_POINT('Ctrl Pts',(292.180632122474,201.112562400718,37.561669737869));
#1041=CARTESIAN_POINT('Ctrl Pts',(292.180632122474,201.112562400718,37.5000000000001));
#1042=CARTESIAN_POINT('Ctrl Pts',(176.045955023448,121.684883469219,40.));
#1043=CARTESIAN_POINT('Ctrl Pts',(193.405901145727,133.568690961194,40.0000000000001));
#1044=CARTESIAN_POINT('Ctrl Pts',(228.113515012453,157.327900000906,39.834538786298));
#1045=CARTESIAN_POINT('Ctrl Pts',(269.876853218574,185.917764354961,39.142142621749));
#1046=CARTESIAN_POINT('Ctrl Pts',(287.25300098068,197.814022139542,38.3885023449231));
#1047=CARTESIAN_POINT('Ctrl Pts',(291.240826460681,200.54516875097,37.8983880233978));
#1048=CARTESIAN_POINT('Ctrl Pts',(291.893479112658,200.992387682094,37.737206061806));
#1049=CARTESIAN_POINT('Ctrl Pts',(292.085699378594,201.124222850784,37.6441405810333));
#1050=CARTESIAN_POINT('Ctrl Pts',(292.156567527157,201.172845685787,37.5694255944815));
#1051=CARTESIAN_POINT('Ctrl Pts',(292.156567527157,201.172845685787,37.5000000000001));
#1052=CARTESIAN_POINT('Ctrl Pts',(176.045955023448,121.684883469219,40.));
#1053=CARTESIAN_POINT('Ctrl Pts',(193.40268249909,133.573393055129,40.0000000000001));
#1054=CARTESIAN_POINT('Ctrl Pts',(228.10369895352,157.341899479997,39.8332691272944));
#1055=CARTESIAN_POINT('Ctrl Pts',(269.857924112531,185.945471032831,39.1341367397115));
#1056=CARTESIAN_POINT('Ctrl Pts',(287.226514855354,197.850404269364,38.3731505345904));
#1057=CARTESIAN_POINT('Ctrl Pts',(291.209766678069,200.586220587973,37.8766370658211));
#1058=CARTESIAN_POINT('Ctrl Pts',(291.857490065678,201.032467817286,37.7144912363732));
#1059=CARTESIAN_POINT('Ctrl Pts',(292.045912660751,201.162981031885,37.6210759287181));
#1060=CARTESIAN_POINT('Ctrl Pts',(292.10384337555,201.2032944167,37.5550186760064));
#1061=CARTESIAN_POINT('Ctrl Pts',(292.10384337555,201.2032944167,37.5000000000001));
#1062=CARTESIAN_POINT('Ctrl Pts',(176.045955023448,121.684883469219,40.));
#1063=CARTESIAN_POINT('Ctrl Pts',(193.400751311107,133.576214311491,40.));
#1064=CARTESIAN_POINT('Ctrl Pts',(228.097676600754,157.350165909217,39.8312756048618));
#1065=CARTESIAN_POINT('Ctrl Pts',(269.84780599539,185.960123149192,39.1223632218193));
#1066=CARTESIAN_POINT('Ctrl Pts',(287.213745659135,197.865313022575,38.3517072309673));
#1067=CARTESIAN_POINT('Ctrl Pts',(291.19615803195,200.599331897353,37.8478097823055));
#1068=CARTESIAN_POINT('Ctrl Pts',(291.839221536917,201.041768613871,37.6848079704188));
#1069=CARTESIAN_POINT('Ctrl Pts',(292.023692504595,201.169180119172,37.5911876248608));
#1070=CARTESIAN_POINT('Ctrl Pts',(292.065379394637,201.198181481316,37.5364133289773));
#1071=CARTESIAN_POINT('Ctrl Pts',(292.065379394637,201.198181481316,37.5000000000001));
#1072=CARTESIAN_POINT('Ctrl Pts',(176.045955023448,121.684883469219,40.));
#1073=CARTESIAN_POINT('Ctrl Pts',(193.399463852453,133.578095149065,40.));
#1074=CARTESIAN_POINT('Ctrl Pts',(228.093668048394,157.355736814046,39.8293408480738));
#1075=CARTESIAN_POINT('Ctrl Pts',(269.842317651496,185.968136298786,39.1119957540819));
#1076=CARTESIAN_POINT('Ctrl Pts',(287.2088558047,197.870277614263,38.3345360871264));
#1077=CARTESIAN_POINT('Ctrl Pts',(291.192584876794,200.600522753528,37.8266499568065));
#1078=CARTESIAN_POINT('Ctrl Pts',(291.833025924819,201.039448450208,37.6635526265015));
#1079=CARTESIAN_POINT('Ctrl Pts',(292.01508132158,201.16421995276,37.5701240726744));
#1080=CARTESIAN_POINT('Ctrl Pts',(292.045616848694,201.185147448824,37.5233749453393));
#1081=CARTESIAN_POINT('Ctrl Pts',(292.045616848694,201.185147448824,37.5000000000001));
#1082=CARTESIAN_POINT('',(292.135980134034,201.053136481502,37.5000000000001));
#1083=CARTESIAN_POINT('',(292.045616848694,201.185147448824,37.5000000000001));
#1084=CARTESIAN_POINT('Origin',(292.089662454433,201.118364332581,37.5000000000001));
#1085=CARTESIAN_POINT('',(176.045955023458,121.684883469225,40.));
#1086=CARTESIAN_POINT('Origin',(176.045955023448,121.684883469219,37.5));
#1087=CARTESIAN_POINT('Origin',(176.045955023448,121.684883469218,37.5));
#1088=CARTESIAN_POINT('Origin',(292.089662454432,201.11836433258,20.0000000000002));
#1089=CARTESIAN_POINT('',(292.135980134033,201.053136481501,20.0000000000002));
#1090=CARTESIAN_POINT('',(292.045616848693,201.185147448823,20.0000000000002));
#1091=CARTESIAN_POINT('Origin',(-24.6419209322878,-30.3534330748801,37.4999999999999));
#1092=CARTESIAN_POINT('',(-24.6419209322878,-30.35343307488,39.9999999999999));
#1093=CARTESIAN_POINT('',(-26.4515904905563,-32.0782797607847,37.4999999999999));
#1094=CARTESIAN_POINT('Origin',(-30.3767455790515,-27.960097122768,20.0000000000002));
#1095=CARTESIAN_POINT('',(49.5942740473349,28.8265669035138,37.4999999999999));
#1096=CARTESIAN_POINT('Origin',(48.1468465598148,30.8649372497392,37.4999999999999));
#1097=CARTESIAN_POINT('',(48.1468465598148,30.8649372497393,39.9999999999999));
#1098=CARTESIAN_POINT('Origin',(127.947101892061,87.8920837018213,20.0000000000001));
#1099=CARTESIAN_POINT('Origin',(212.148961608044,145.495973509673,37.5));
#1100=CARTESIAN_POINT('',(212.148961608044,145.495973509673,40.));
#1101=CARTESIAN_POINT('',(210.772536428689,147.58294589225,37.5));
#1102=CARTESIAN_POINT('Origin',(-40.0316142878629,-17.8304304490877,20.));
#1103=CARTESIAN_POINT('Origin',(295.925818071985,203.744264526411,20.0000000000001));
#1104=CARTESIAN_POINT('Origin',(127.947101892061,87.8920837018215,39.9999999999999));
#1105=CARTESIAN_POINT('',(0.,0.,0.));
#1106=CARTESIAN_POINT('',(0.,0.,10.));
#1107=UNCERTAINTY_MEASURE_WITH_UNIT(LENGTH_MEASURE(0.01),#1115,
'DISTANCE_ACCURACY_VALUE',
'Maximum model space distance between geometric entities at asserted c
onnectivities');
#1108=UNCERTAINTY_MEASURE_WITH_UNIT(LENGTH_MEASURE(0.01),#1115,
'DISTANCE_ACCURACY_VALUE',
'Maximum model space distance between geometric entities at asserted c
onnectivities');
#1109=UNCERTAINTY_MEASURE_WITH_UNIT(LENGTH_MEASURE(0.01),#1115,
'DISTANCE_ACCURACY_VALUE',
'Maximum model space distance between geometric entities at asserted c
onnectivities');
#1110=UNCERTAINTY_MEASURE_WITH_UNIT(LENGTH_MEASURE(0.01),#1115,
'DISTANCE_ACCURACY_VALUE',
'Maximum model space distance between geometric entities at asserted c
onnectivities');
#1111=(
GEOMETRIC_REPRESENTATION_CONTEXT(3)
GLOBAL_UNCERTAINTY_ASSIGNED_CONTEXT((#1107))
GLOBAL_UNIT_ASSIGNED_CONTEXT((#1115,#1117,#1118))
REPRESENTATION_CONTEXT('','3D')
);
#1112=(
GEOMETRIC_REPRESENTATION_CONTEXT(3)
GLOBAL_UNCERTAINTY_ASSIGNED_CONTEXT((#1108))
GLOBAL_UNIT_ASSIGNED_CONTEXT((#1115,#1117,#1118))
REPRESENTATION_CONTEXT('','3D')
);
#1113=(
GEOMETRIC_REPRESENTATION_CONTEXT(3)
GLOBAL_UNCERTAINTY_ASSIGNED_CONTEXT((#1109))
GLOBAL_UNIT_ASSIGNED_CONTEXT((#1115,#1117,#1118))
REPRESENTATION_CONTEXT('','3D')
);
#1114=(
GEOMETRIC_REPRESENTATION_CONTEXT(3)
GLOBAL_UNCERTAINTY_ASSIGNED_CONTEXT((#1110))
GLOBAL_UNIT_ASSIGNED_CONTEXT((#1115,#1117,#1118))
REPRESENTATION_CONTEXT('','3D')
);
#1115=(
LENGTH_UNIT()
NAMED_UNIT(*)
SI_UNIT(.MILLI.,.METRE.)
);
#1116=(
LENGTH_UNIT()
NAMED_UNIT(*)
SI_UNIT($,.METRE.)
);
#1117=(
NAMED_UNIT(*)
PLANE_ANGLE_UNIT()
SI_UNIT($,.RADIAN.)
);
#1118=(
NAMED_UNIT(*)
SI_UNIT($,.STERADIAN.)
SOLID_ANGLE_UNIT()
);
#1119=SHAPE_DEFINITION_REPRESENTATION(#1122,#1127);
#1120=SHAPE_DEFINITION_REPRESENTATION(#1123,#1128);
#1121=SHAPE_DEFINITION_REPRESENTATION(#1124,#1129);
#1122=PRODUCT_DEFINITION_SHAPE('',$,#1131);
#1123=PRODUCT_DEFINITION_SHAPE('',$,#1132);
#1124=PRODUCT_DEFINITION_SHAPE('',$,#1133);
#1125=PRODUCT_DEFINITION_SHAPE($,$,#17);
#1126=PRODUCT_DEFINITION_SHAPE($,$,#18);
#1127=SHAPE_REPRESENTATION('',(#514,#582,#583),#1111);
#1128=SHAPE_REPRESENTATION('',(#515),#1112);
#1129=SHAPE_REPRESENTATION('',(#523),#1113);
#1130=PRODUCT_DEFINITION_CONTEXT('part definition',#1141,'design');
#1131=PRODUCT_DEFINITION('dr hip full','dr hip full v1',#1134,#1130);
#1132=PRODUCT_DEFINITION('hip cup2','hip cup2 v1',#1135,#1130);
#1133=PRODUCT_DEFINITION('hip joint3','hip joint3 v1',#1136,#1130);
#1134=PRODUCT_DEFINITION_FORMATION('',$,#1143);
#1135=PRODUCT_DEFINITION_FORMATION('',$,#1144);
#1136=PRODUCT_DEFINITION_FORMATION('',$,#1145);
#1137=PRODUCT_RELATED_PRODUCT_CATEGORY('dr hip full v1',
'dr hip full v1',(#1143));
#1138=PRODUCT_RELATED_PRODUCT_CATEGORY('hip cup2 v1','hip cup2 v1',(#1144));
#1139=PRODUCT_RELATED_PRODUCT_CATEGORY('hip joint3 v1','hip joint3 v1',
(#1145));
#1140=APPLICATION_PROTOCOL_DEFINITION('international standard',
'automotive_design',2009,#1141);
#1141=APPLICATION_CONTEXT(
'Core Data for Automotive Mechanical Design Process');
#1142=PRODUCT_CONTEXT('part definition',#1141,'mechanical');
#1143=PRODUCT('dr hip full','dr hip full v1',$,(#1142));
#1144=PRODUCT('hip cup2','hip cup2 v1',$,(#1142));
#1145=PRODUCT('hip joint3','hip joint3 v1',$,(#1142));
#1146=PRESENTATION_STYLE_ASSIGNMENT((#1147));
#1147=SURFACE_STYLE_USAGE(.BOTH.,#1148);
#1148=SURFACE_SIDE_STYLE('',(#1149));
#1149=SURFACE_STYLE_FILL_AREA(#1150);
#1150=FILL_AREA_STYLE('Steel - Satin',(#1151));
#1151=FILL_AREA_STYLE_COLOUR('Steel - Satin',#1152);
#1152=COLOUR_RGB('Steel - Satin',0.627450980392157,0.627450980392157,0.627450980392157);
ENDSEC;
END-ISO-10303-21;
