ISO-10303-21;
HEADER;
/* Generated by software containing ST-Developer
 * from STEP Tools, Inc. (www.steptools.com) 
 */

FILE_DESCRIPTION(
/* description */ (''),
/* implementation_level */ '2;1');

FILE_NAME(
/* name */ 'exterior of adruino uno R3.step',
/* time_stamp */ '2026-07-02T14:44:50+05:30',
/* author */ (''),
/* organization */ (''),
/* preprocessor_version */ 'ST-DEVELOPER v20.1',
/* originating_system */ 'Autodesk Translation Framework v15.8.0.0',
/* authorisation */ '');

FILE_SCHEMA (('AUTOMOTIVE_DESIGN { 1 0 10303 214 3 1 1 }'));
ENDSEC;

DATA;
#10=MECHANICAL_DESIGN_GEOMETRIC_PRESENTATION_REPRESENTATION('',(#13),#1536);
#11=SHAPE_REPRESENTATION_RELATIONSHIP('SRR','None',#1543,#12);
#12=ADVANCED_BREP_SHAPE_REPRESENTATION('',(#14),#1535);
#13=STYLED_ITEM('',(#1552),#14);
#14=MANIFOLD_SOLID_BREP('Body2',#800);
#15=SPHERICAL_SURFACE('',#867,1.);
#16=SPHERICAL_SURFACE('',#869,1.);
#17=SPHERICAL_SURFACE('',#889,1.);
#18=SPHERICAL_SURFACE('',#891,1.);
#19=FACE_BOUND('',#276,.T.);
#20=FACE_BOUND('',#290,.T.);
#21=PLANE('',#821);
#22=PLANE('',#833);
#23=PLANE('',#846);
#24=PLANE('',#857);
#25=PLANE('',#858);
#26=PLANE('',#859);
#27=PLANE('',#863);
#28=PLANE('',#873);
#29=PLANE('',#881);
#30=PLANE('',#882);
#31=PLANE('',#901);
#32=PLANE('',#902);
#33=PLANE('',#903);
#34=PLANE('',#904);
#35=LINE('',#1195,#102);
#36=LINE('',#1198,#103);
#37=LINE('',#1229,#104);
#38=LINE('',#1231,#105);
#39=LINE('',#1232,#106);
#40=LINE('',#1235,#107);
#41=LINE('',#1239,#108);
#42=LINE('',#1242,#109);
#43=LINE('',#1283,#110);
#44=LINE('',#1284,#111);
#45=LINE('',#1315,#112);
#46=LINE('',#1317,#113);
#47=LINE('',#1318,#114);
#48=LINE('',#1321,#115);
#49=LINE('',#1325,#116);
#50=LINE('',#1328,#117);
#51=LINE('',#1363,#118);
#52=LINE('',#1364,#119);
#53=LINE('',#1393,#120);
#54=LINE('',#1396,#121);
#55=LINE('',#1399,#122);
#56=LINE('',#1400,#123);
#57=LINE('',#1403,#124);
#58=LINE('',#1408,#125);
#59=LINE('',#1412,#126);
#60=LINE('',#1416,#127);
#61=LINE('',#1417,#128);
#62=LINE('',#1419,#129);
#63=LINE('',#1421,#130);
#64=LINE('',#1425,#131);
#65=LINE('',#1427,#132);
#66=LINE('',#1430,#133);
#67=LINE('',#1431,#134);
#68=LINE('',#1434,#135);
#69=LINE('',#1436,#136);
#70=LINE('',#1437,#137);
#71=LINE('',#1440,#138);
#72=LINE('',#1441,#139);
#73=LINE('',#1443,#140);
#74=LINE('',#1444,#141);
#75=LINE('',#1448,#142);
#76=LINE('',#1450,#143);
#77=LINE('',#1453,#144);
#78=LINE('',#1454,#145);
#79=LINE('',#1459,#146);
#80=LINE('',#1467,#147);
#81=LINE('',#1471,#148);
#82=LINE('',#1472,#149);
#83=LINE('',#1475,#150);
#84=LINE('',#1478,#151);
#85=LINE('',#1482,#152);
#86=LINE('',#1486,#153);
#87=LINE('',#1488,#154);
#88=LINE('',#1489,#155);
#89=LINE('',#1491,#156);
#90=LINE('',#1493,#157);
#91=LINE('',#1494,#158);
#92=LINE('',#1496,#159);
#93=LINE('',#1498,#160);
#94=LINE('',#1500,#161);
#95=LINE('',#1502,#162);
#96=LINE('',#1503,#163);
#97=LINE('',#1505,#164);
#98=LINE('',#1507,#165);
#99=LINE('',#1523,#166);
#100=LINE('',#1526,#167);
#101=LINE('',#1529,#168);
#102=VECTOR('',#915,10.);
#103=VECTOR('',#918,10.);
#104=VECTOR('',#925,10.);
#105=VECTOR('',#926,10.);
#106=VECTOR('',#927,10.);
#107=VECTOR('',#930,10.);
#108=VECTOR('',#935,10.);
#109=VECTOR('',#938,10.);
#110=VECTOR('',#949,10.);
#111=VECTOR('',#950,10.);
#112=VECTOR('',#957,10.);
#113=VECTOR('',#958,10.);
#114=VECTOR('',#959,10.);
#115=VECTOR('',#962,10.);
#116=VECTOR('',#967,10.);
#117=VECTOR('',#970,10.);
#118=VECTOR('',#981,10.);
#119=VECTOR('',#982,10.);
#120=VECTOR('',#987,10.);
#121=VECTOR('',#990,10.);
#122=VECTOR('',#993,10.);
#123=VECTOR('',#994,10.);
#124=VECTOR('',#997,10.);
#125=VECTOR('',#1002,10.);
#126=VECTOR('',#1005,10.);
#127=VECTOR('',#1010,10.);
#128=VECTOR('',#1011,10.);
#129=VECTOR('',#1012,10.);
#130=VECTOR('',#1013,10.);
#131=VECTOR('',#1018,10.);
#132=VECTOR('',#1019,10.);
#133=VECTOR('',#1024,10.);
#134=VECTOR('',#1025,10.);
#135=VECTOR('',#1028,10.);
#136=VECTOR('',#1029,10.);
#137=VECTOR('',#1030,10.);
#138=VECTOR('',#1033,10.);
#139=VECTOR('',#1034,10.);
#140=VECTOR('',#1037,10.);
#141=VECTOR('',#1038,10.);
#142=VECTOR('',#1043,10.);
#143=VECTOR('',#1046,10.);
#144=VECTOR('',#1049,10.);
#145=VECTOR('',#1050,10.);
#146=VECTOR('',#1055,10.);
#147=VECTOR('',#1068,10.);
#148=VECTOR('',#1073,10.);
#149=VECTOR('',#1074,10.);
#150=VECTOR('',#1077,10.);
#151=VECTOR('',#1080,10.);
#152=VECTOR('',#1083,10.);
#153=VECTOR('',#1090,10.);
#154=VECTOR('',#1093,10.);
#155=VECTOR('',#1094,10.);
#156=VECTOR('',#1097,10.);
#157=VECTOR('',#1098,10.);
#158=VECTOR('',#1099,10.);
#159=VECTOR('',#1100,10.);
#160=VECTOR('',#1101,10.);
#161=VECTOR('',#1102,10.);
#162=VECTOR('',#1103,10.);
#163=VECTOR('',#1104,10.);
#164=VECTOR('',#1107,10.);
#165=VECTOR('',#1110,10.);
#166=VECTOR('',#1139,10.);
#167=VECTOR('',#1144,10.);
#168=VECTOR('',#1149,10.);
#169=CYLINDRICAL_SURFACE('',#817,0.5);
#170=CYLINDRICAL_SURFACE('',#822,1.);
#171=CYLINDRICAL_SURFACE('',#824,1.);
#172=CYLINDRICAL_SURFACE('',#829,0.5);
#173=CYLINDRICAL_SURFACE('',#834,1.);
#174=CYLINDRICAL_SURFACE('',#836,1.);
#175=CYLINDRICAL_SURFACE('',#841,0.5);
#176=CYLINDRICAL_SURFACE('',#844,1.);
#177=CYLINDRICAL_SURFACE('',#847,1.);
#178=CYLINDRICAL_SURFACE('',#849,1.);
#179=CYLINDRICAL_SURFACE('',#852,1.);
#180=CYLINDRICAL_SURFACE('',#854,1.);
#181=CYLINDRICAL_SURFACE('',#856,1.);
#182=CYLINDRICAL_SURFACE('',#860,1.);
#183=CYLINDRICAL_SURFACE('',#862,1.);
#184=CYLINDRICAL_SURFACE('',#864,1.);
#185=CYLINDRICAL_SURFACE('',#871,1.);
#186=CYLINDRICAL_SURFACE('',#874,1.);
#187=CYLINDRICAL_SURFACE('',#876,1.);
#188=CYLINDRICAL_SURFACE('',#879,1.);
#189=CYLINDRICAL_SURFACE('',#880,1.);
#190=CYLINDRICAL_SURFACE('',#883,1.);
#191=CYLINDRICAL_SURFACE('',#884,1.);
#192=CYLINDRICAL_SURFACE('',#886,1.);
#193=CYLINDRICAL_SURFACE('',#892,1.);
#194=CYLINDRICAL_SURFACE('',#893,1.);
#195=CYLINDRICAL_SURFACE('',#896,1.);
#196=CYLINDRICAL_SURFACE('',#899,1.);
#197=CYLINDRICAL_SURFACE('',#900,1.);
#198=FACE_OUTER_BOUND('',#251,.T.);
#199=FACE_OUTER_BOUND('',#252,.T.);
#200=FACE_OUTER_BOUND('',#253,.T.);
#201=FACE_OUTER_BOUND('',#254,.T.);
#202=FACE_OUTER_BOUND('',#255,.T.);
#203=FACE_OUTER_BOUND('',#256,.T.);
#204=FACE_OUTER_BOUND('',#257,.T.);
#205=FACE_OUTER_BOUND('',#258,.T.);
#206=FACE_OUTER_BOUND('',#259,.T.);
#207=FACE_OUTER_BOUND('',#260,.T.);
#208=FACE_OUTER_BOUND('',#261,.T.);
#209=FACE_OUTER_BOUND('',#262,.T.);
#210=FACE_OUTER_BOUND('',#263,.T.);
#211=FACE_OUTER_BOUND('',#264,.T.);
#212=FACE_OUTER_BOUND('',#265,.T.);
#213=FACE_OUTER_BOUND('',#266,.T.);
#214=FACE_OUTER_BOUND('',#267,.T.);
#215=FACE_OUTER_BOUND('',#268,.T.);
#216=FACE_OUTER_BOUND('',#269,.T.);
#217=FACE_OUTER_BOUND('',#270,.T.);
#218=FACE_OUTER_BOUND('',#271,.T.);
#219=FACE_OUTER_BOUND('',#272,.T.);
#220=FACE_OUTER_BOUND('',#273,.T.);
#221=FACE_OUTER_BOUND('',#274,.T.);
#222=FACE_OUTER_BOUND('',#275,.T.);
#223=FACE_OUTER_BOUND('',#277,.T.);
#224=FACE_OUTER_BOUND('',#278,.T.);
#225=FACE_OUTER_BOUND('',#279,.T.);
#226=FACE_OUTER_BOUND('',#280,.T.);
#227=FACE_OUTER_BOUND('',#281,.T.);
#228=FACE_OUTER_BOUND('',#282,.T.);
#229=FACE_OUTER_BOUND('',#283,.T.);
#230=FACE_OUTER_BOUND('',#284,.T.);
#231=FACE_OUTER_BOUND('',#285,.T.);
#232=FACE_OUTER_BOUND('',#286,.T.);
#233=FACE_OUTER_BOUND('',#287,.T.);
#234=FACE_OUTER_BOUND('',#288,.T.);
#235=FACE_OUTER_BOUND('',#289,.T.);
#236=FACE_OUTER_BOUND('',#291,.T.);
#237=FACE_OUTER_BOUND('',#292,.T.);
#238=FACE_OUTER_BOUND('',#293,.T.);
#239=FACE_OUTER_BOUND('',#294,.T.);
#240=FACE_OUTER_BOUND('',#295,.T.);
#241=FACE_OUTER_BOUND('',#296,.T.);
#242=FACE_OUTER_BOUND('',#297,.T.);
#243=FACE_OUTER_BOUND('',#298,.T.);
#244=FACE_OUTER_BOUND('',#299,.T.);
#245=FACE_OUTER_BOUND('',#300,.T.);
#246=FACE_OUTER_BOUND('',#301,.T.);
#247=FACE_OUTER_BOUND('',#302,.T.);
#248=FACE_OUTER_BOUND('',#303,.T.);
#249=FACE_OUTER_BOUND('',#304,.T.);
#250=FACE_OUTER_BOUND('',#305,.T.);
#251=EDGE_LOOP('',(#519,#520,#521));
#252=EDGE_LOOP('',(#522,#523,#524,#525));
#253=EDGE_LOOP('',(#526,#527,#528));
#254=EDGE_LOOP('',(#529,#530,#531,#532));
#255=EDGE_LOOP('',(#533,#534,#535,#536));
#256=EDGE_LOOP('',(#537,#538,#539,#540));
#257=EDGE_LOOP('',(#541,#542,#543));
#258=EDGE_LOOP('',(#544,#545,#546,#547));
#259=EDGE_LOOP('',(#548,#549,#550));
#260=EDGE_LOOP('',(#551,#552,#553,#554));
#261=EDGE_LOOP('',(#555,#556,#557,#558));
#262=EDGE_LOOP('',(#559,#560,#561,#562));
#263=EDGE_LOOP('',(#563,#564,#565));
#264=EDGE_LOOP('',(#566,#567,#568,#569));
#265=EDGE_LOOP('',(#570,#571,#572));
#266=EDGE_LOOP('',(#573,#574,#575,#576));
#267=EDGE_LOOP('',(#577,#578,#579,#580));
#268=EDGE_LOOP('',(#581,#582,#583,#584));
#269=EDGE_LOOP('',(#585,#586,#587,#588));
#270=EDGE_LOOP('',(#589,#590,#591,#592,#593,#594));
#271=EDGE_LOOP('',(#595,#596,#597,#598));
#272=EDGE_LOOP('',(#599,#600,#601,#602));
#273=EDGE_LOOP('',(#603,#604,#605,#606));
#274=EDGE_LOOP('',(#607,#608,#609,#610));
#275=EDGE_LOOP('',(#611,#612,#613,#614));
#276=EDGE_LOOP('',(#615,#616,#617,#618,#619,#620,#621,#622));
#277=EDGE_LOOP('',(#623,#624,#625,#626));
#278=EDGE_LOOP('',(#627,#628,#629,#630));
#279=EDGE_LOOP('',(#631,#632,#633,#634));
#280=EDGE_LOOP('',(#635,#636,#637,#638));
#281=EDGE_LOOP('',(#639,#640,#641));
#282=EDGE_LOOP('',(#642,#643,#644));
#283=EDGE_LOOP('',(#645,#646,#647,#648));
#284=EDGE_LOOP('',(#649,#650,#651,#652));
#285=EDGE_LOOP('',(#653,#654,#655,#656));
#286=EDGE_LOOP('',(#657,#658,#659,#660));
#287=EDGE_LOOP('',(#661,#662,#663,#664));
#288=EDGE_LOOP('',(#665,#666,#667,#668));
#289=EDGE_LOOP('',(#669,#670,#671,#672));
#290=EDGE_LOOP('',(#673,#674,#675,#676,#677,#678,#679,#680));
#291=EDGE_LOOP('',(#681,#682,#683,#684));
#292=EDGE_LOOP('',(#685,#686,#687,#688));
#293=EDGE_LOOP('',(#689,#690,#691,#692));
#294=EDGE_LOOP('',(#693,#694,#695,#696));
#295=EDGE_LOOP('',(#697,#698,#699));
#296=EDGE_LOOP('',(#700,#701,#702));
#297=EDGE_LOOP('',(#703,#704,#705,#706));
#298=EDGE_LOOP('',(#707,#708,#709,#710));
#299=EDGE_LOOP('',(#711,#712,#713,#714));
#300=EDGE_LOOP('',(#715,#716,#717,#718,#719,#720));
#301=EDGE_LOOP('',(#721,#722,#723,#724));
#302=EDGE_LOOP('',(#725,#726,#727,#728));
#303=EDGE_LOOP('',(#729,#730,#731,#732));
#304=EDGE_LOOP('',(#733,#734,#735,#736));
#305=EDGE_LOOP('',(#737,#738,#739,#740));
#306=ELLIPSE('',#815,1.802775637732,1.);
#307=ELLIPSE('',#816,1.80277563773199,1.);
#308=ELLIPSE('',#819,1.802775637732,0.999999999999996);
#309=ELLIPSE('',#820,1.80277563773199,0.999999999999996);
#310=ELLIPSE('',#823,1.41421356237309,1.);
#311=ELLIPSE('',#825,1.4142135623731,1.);
#312=ELLIPSE('',#827,1.11803398874989,1.);
#313=ELLIPSE('',#828,1.1180339887499,1.);
#314=ELLIPSE('',#831,1.1180339887499,0.999999999999996);
#315=ELLIPSE('',#832,1.11803398874989,0.999999999999996);
#316=ELLIPSE('',#837,1.11803398874989,1.);
#317=ELLIPSE('',#839,1.11803398874989,0.999999999999996);
#318=ELLIPSE('',#840,1.1180339887499,0.999999999999996);
#319=ELLIPSE('',#843,1.1180339887499,1.);
#320=ELLIPSE('',#850,1.41421356237309,1.);
#321=ELLIPSE('',#851,1.4142135623731,1.);
#322=ELLIPSE('',#853,1.4142135623731,1.);
#323=ELLIPSE('',#855,1.4142135623731,1.);
#324=ELLIPSE('',#861,1.4142135623731,1.);
#325=ELLIPSE('',#875,1.4142135623731,1.);
#326=ELLIPSE('',#877,1.41421356237309,1.);
#327=ELLIPSE('',#878,1.4142135623731,1.);
#328=ELLIPSE('',#894,1.41421356237309,1.);
#329=ELLIPSE('',#895,1.41421356237309,1.);
#330=ELLIPSE('',#897,1.41421356237309,1.);
#331=ELLIPSE('',#898,1.4142135623731,1.);
#332=CIRCLE('',#814,0.500000000000002);
#333=CIRCLE('',#818,0.5);
#334=CIRCLE('',#826,0.500000000000003);
#335=CIRCLE('',#830,0.499999999999998);
#336=CIRCLE('',#835,1.);
#337=CIRCLE('',#838,0.499999999999998);
#338=CIRCLE('',#842,0.499999999999998);
#339=CIRCLE('',#845,1.);
#340=CIRCLE('',#848,0.999999999999996);
#341=CIRCLE('',#865,1.);
#342=CIRCLE('',#866,1.);
#343=CIRCLE('',#868,1.);
#344=CIRCLE('',#870,1.);
#345=CIRCLE('',#872,1.);
#346=CIRCLE('',#885,0.999999999999996);
#347=CIRCLE('',#887,0.999999999999996);
#348=CIRCLE('',#888,1.);
#349=CIRCLE('',#890,1.);
#350=VERTEX_POINT('',#1187);
#351=VERTEX_POINT('',#1188);
#352=VERTEX_POINT('',#1190);
#353=VERTEX_POINT('',#1194);
#354=VERTEX_POINT('',#1196);
#355=VERTEX_POINT('',#1224);
#356=VERTEX_POINT('',#1228);
#357=VERTEX_POINT('',#1230);
#358=VERTEX_POINT('',#1234);
#359=VERTEX_POINT('',#1238);
#360=VERTEX_POINT('',#1240);
#361=VERTEX_POINT('',#1273);
#362=VERTEX_POINT('',#1274);
#363=VERTEX_POINT('',#1276);
#364=VERTEX_POINT('',#1280);
#365=VERTEX_POINT('',#1281);
#366=VERTEX_POINT('',#1310);
#367=VERTEX_POINT('',#1314);
#368=VERTEX_POINT('',#1316);
#369=VERTEX_POINT('',#1320);
#370=VERTEX_POINT('',#1324);
#371=VERTEX_POINT('',#1326);
#372=VERTEX_POINT('',#1354);
#373=VERTEX_POINT('',#1355);
#374=VERTEX_POINT('',#1357);
#375=VERTEX_POINT('',#1361);
#376=VERTEX_POINT('',#1392);
#377=VERTEX_POINT('',#1394);
#378=VERTEX_POINT('',#1398);
#379=VERTEX_POINT('',#1402);
#380=VERTEX_POINT('',#1406);
#381=VERTEX_POINT('',#1407);
#382=VERTEX_POINT('',#1409);
#383=VERTEX_POINT('',#1411);
#384=VERTEX_POINT('',#1415);
#385=VERTEX_POINT('',#1418);
#386=VERTEX_POINT('',#1420);
#387=VERTEX_POINT('',#1424);
#388=VERTEX_POINT('',#1426);
#389=VERTEX_POINT('',#1433);
#390=VERTEX_POINT('',#1435);
#391=VERTEX_POINT('',#1439);
#392=VERTEX_POINT('',#1446);
#393=VERTEX_POINT('',#1452);
#394=VERTEX_POINT('',#1456);
#395=VERTEX_POINT('',#1458);
#396=VERTEX_POINT('',#1466);
#397=VERTEX_POINT('',#1470);
#398=VERTEX_POINT('',#1474);
#399=VERTEX_POINT('',#1476);
#400=VERTEX_POINT('',#1480);
#401=VERTEX_POINT('',#1481);
#402=VERTEX_POINT('',#1492);
#403=VERTEX_POINT('',#1495);
#404=VERTEX_POINT('',#1497);
#405=VERTEX_POINT('',#1499);
#406=VERTEX_POINT('',#1501);
#407=VERTEX_POINT('',#1521);
#408=EDGE_CURVE('',#350,#351,#332,.T.);
#409=EDGE_CURVE('',#351,#352,#306,.T.);
#410=EDGE_CURVE('',#352,#350,#307,.T.);
#411=EDGE_CURVE('',#350,#353,#35,.T.);
#412=EDGE_CURVE('',#353,#354,#333,.T.);
#413=EDGE_CURVE('',#354,#351,#36,.T.);
#414=EDGE_CURVE('',#353,#355,#308,.T.);
#415=EDGE_CURVE('',#355,#354,#309,.T.);
#416=EDGE_CURVE('',#356,#350,#37,.T.);
#417=EDGE_CURVE('',#357,#356,#38,.T.);
#418=EDGE_CURVE('',#353,#357,#39,.T.);
#419=EDGE_CURVE('',#352,#358,#40,.T.);
#420=EDGE_CURVE('',#356,#358,#310,.T.);
#421=EDGE_CURVE('',#351,#359,#41,.T.);
#422=EDGE_CURVE('',#359,#360,#311,.T.);
#423=EDGE_CURVE('',#360,#352,#42,.T.);
#424=EDGE_CURVE('',#361,#362,#334,.T.);
#425=EDGE_CURVE('',#362,#363,#312,.T.);
#426=EDGE_CURVE('',#363,#361,#313,.T.);
#427=EDGE_CURVE('',#364,#365,#335,.T.);
#428=EDGE_CURVE('',#365,#362,#43,.T.);
#429=EDGE_CURVE('',#361,#364,#44,.T.);
#430=EDGE_CURVE('',#364,#366,#314,.T.);
#431=EDGE_CURVE('',#366,#365,#315,.T.);
#432=EDGE_CURVE('',#367,#361,#45,.T.);
#433=EDGE_CURVE('',#368,#367,#46,.T.);
#434=EDGE_CURVE('',#364,#368,#47,.T.);
#435=EDGE_CURVE('',#363,#369,#48,.T.);
#436=EDGE_CURVE('',#369,#367,#336,.T.);
#437=EDGE_CURVE('',#362,#370,#49,.T.);
#438=EDGE_CURVE('',#371,#370,#316,.T.);
#439=EDGE_CURVE('',#371,#363,#50,.T.);
#440=EDGE_CURVE('',#372,#373,#337,.T.);
#441=EDGE_CURVE('',#373,#374,#317,.T.);
#442=EDGE_CURVE('',#374,#372,#318,.T.);
#443=EDGE_CURVE('',#375,#370,#338,.T.);
#444=EDGE_CURVE('',#370,#373,#51,.T.);
#445=EDGE_CURVE('',#372,#375,#52,.T.);
#446=EDGE_CURVE('',#375,#371,#319,.T.);
#447=EDGE_CURVE('',#375,#376,#53,.T.);
#448=EDGE_CURVE('',#376,#377,#339,.T.);
#449=EDGE_CURVE('',#377,#371,#54,.T.);
#450=EDGE_CURVE('',#378,#372,#55,.T.);
#451=EDGE_CURVE('',#376,#378,#56,.T.);
#452=EDGE_CURVE('',#374,#379,#57,.T.);
#453=EDGE_CURVE('',#379,#378,#340,.T.);
#454=EDGE_CURVE('',#380,#381,#58,.T.);
#455=EDGE_CURVE('',#381,#382,#320,.T.);
#456=EDGE_CURVE('',#382,#383,#59,.T.);
#457=EDGE_CURVE('',#380,#383,#321,.T.);
#458=EDGE_CURVE('',#384,#382,#60,.T.);
#459=EDGE_CURVE('',#381,#360,#61,.T.);
#460=EDGE_CURVE('',#385,#360,#62,.T.);
#461=EDGE_CURVE('',#385,#386,#63,.T.);
#462=EDGE_CURVE('',#386,#384,#322,.T.);
#463=EDGE_CURVE('',#387,#384,#64,.T.);
#464=EDGE_CURVE('',#386,#388,#65,.T.);
#465=EDGE_CURVE('',#388,#387,#323,.T.);
#466=EDGE_CURVE('',#383,#387,#66,.T.);
#467=EDGE_CURVE('',#388,#380,#67,.T.);
#468=EDGE_CURVE('',#389,#383,#68,.T.);
#469=EDGE_CURVE('',#390,#389,#69,.T.);
#470=EDGE_CURVE('',#387,#390,#70,.T.);
#471=EDGE_CURVE('',#382,#391,#71,.T.);
#472=EDGE_CURVE('',#389,#391,#72,.T.);
#473=EDGE_CURVE('',#369,#377,#73,.T.);
#474=EDGE_CURVE('',#358,#385,#74,.T.);
#475=EDGE_CURVE('',#385,#392,#324,.T.);
#476=EDGE_CURVE('',#392,#356,#75,.T.);
#477=EDGE_CURVE('',#359,#392,#76,.T.);
#478=EDGE_CURVE('',#392,#393,#77,.T.);
#479=EDGE_CURVE('',#357,#393,#78,.T.);
#480=EDGE_CURVE('',#377,#394,#341,.T.);
#481=EDGE_CURVE('',#394,#395,#79,.T.);
#482=EDGE_CURVE('',#395,#369,#342,.T.);
#483=EDGE_CURVE('',#395,#367,#343,.T.);
#484=EDGE_CURVE('',#376,#394,#344,.T.);
#485=EDGE_CURVE('',#395,#396,#80,.T.);
#486=EDGE_CURVE('',#368,#396,#345,.T.);
#487=EDGE_CURVE('',#397,#394,#81,.T.);
#488=EDGE_CURVE('',#396,#397,#82,.T.);
#489=EDGE_CURVE('',#355,#398,#83,.T.);
#490=EDGE_CURVE('',#398,#399,#325,.T.);
#491=EDGE_CURVE('',#399,#354,#84,.T.);
#492=EDGE_CURVE('',#400,#401,#85,.T.);
#493=EDGE_CURVE('',#401,#357,#326,.T.);
#494=EDGE_CURVE('',#393,#400,#327,.T.);
#495=EDGE_CURVE('',#401,#355,#86,.T.);
#496=EDGE_CURVE('',#400,#398,#87,.T.);
#497=EDGE_CURVE('',#393,#399,#88,.T.);
#498=EDGE_CURVE('',#366,#374,#89,.T.);
#499=EDGE_CURVE('',#402,#366,#90,.T.);
#500=EDGE_CURVE('',#379,#402,#91,.T.);
#501=EDGE_CURVE('',#403,#400,#92,.T.);
#502=EDGE_CURVE('',#404,#403,#93,.T.);
#503=EDGE_CURVE('',#405,#404,#94,.T.);
#504=EDGE_CURVE('',#406,#405,#95,.T.);
#505=EDGE_CURVE('',#398,#406,#96,.T.);
#506=EDGE_CURVE('',#399,#359,#97,.T.);
#507=EDGE_CURVE('',#373,#365,#98,.T.);
#508=EDGE_CURVE('',#368,#402,#346,.T.);
#509=EDGE_CURVE('',#402,#396,#347,.T.);
#510=EDGE_CURVE('',#397,#379,#348,.T.);
#511=EDGE_CURVE('',#397,#378,#349,.T.);
#512=EDGE_CURVE('',#405,#389,#328,.T.);
#513=EDGE_CURVE('',#391,#406,#329,.T.);
#514=EDGE_CURVE('',#403,#407,#330,.T.);
#515=EDGE_CURVE('',#407,#390,#99,.T.);
#516=EDGE_CURVE('',#390,#404,#331,.T.);
#517=EDGE_CURVE('',#391,#407,#100,.T.);
#518=EDGE_CURVE('',#407,#384,#101,.T.);
#519=ORIENTED_EDGE('',*,*,#408,.T.);
#520=ORIENTED_EDGE('',*,*,#409,.T.);
#521=ORIENTED_EDGE('',*,*,#410,.T.);
#522=ORIENTED_EDGE('',*,*,#408,.F.);
#523=ORIENTED_EDGE('',*,*,#411,.T.);
#524=ORIENTED_EDGE('',*,*,#412,.T.);
#525=ORIENTED_EDGE('',*,*,#413,.T.);
#526=ORIENTED_EDGE('',*,*,#412,.F.);
#527=ORIENTED_EDGE('',*,*,#414,.T.);
#528=ORIENTED_EDGE('',*,*,#415,.T.);
#529=ORIENTED_EDGE('',*,*,#411,.F.);
#530=ORIENTED_EDGE('',*,*,#416,.F.);
#531=ORIENTED_EDGE('',*,*,#417,.F.);
#532=ORIENTED_EDGE('',*,*,#418,.F.);
#533=ORIENTED_EDGE('',*,*,#410,.F.);
#534=ORIENTED_EDGE('',*,*,#419,.T.);
#535=ORIENTED_EDGE('',*,*,#420,.F.);
#536=ORIENTED_EDGE('',*,*,#416,.T.);
#537=ORIENTED_EDGE('',*,*,#409,.F.);
#538=ORIENTED_EDGE('',*,*,#421,.T.);
#539=ORIENTED_EDGE('',*,*,#422,.T.);
#540=ORIENTED_EDGE('',*,*,#423,.T.);
#541=ORIENTED_EDGE('',*,*,#424,.T.);
#542=ORIENTED_EDGE('',*,*,#425,.T.);
#543=ORIENTED_EDGE('',*,*,#426,.T.);
#544=ORIENTED_EDGE('',*,*,#427,.T.);
#545=ORIENTED_EDGE('',*,*,#428,.T.);
#546=ORIENTED_EDGE('',*,*,#424,.F.);
#547=ORIENTED_EDGE('',*,*,#429,.T.);
#548=ORIENTED_EDGE('',*,*,#427,.F.);
#549=ORIENTED_EDGE('',*,*,#430,.T.);
#550=ORIENTED_EDGE('',*,*,#431,.T.);
#551=ORIENTED_EDGE('',*,*,#429,.F.);
#552=ORIENTED_EDGE('',*,*,#432,.F.);
#553=ORIENTED_EDGE('',*,*,#433,.F.);
#554=ORIENTED_EDGE('',*,*,#434,.F.);
#555=ORIENTED_EDGE('',*,*,#426,.F.);
#556=ORIENTED_EDGE('',*,*,#435,.T.);
#557=ORIENTED_EDGE('',*,*,#436,.T.);
#558=ORIENTED_EDGE('',*,*,#432,.T.);
#559=ORIENTED_EDGE('',*,*,#425,.F.);
#560=ORIENTED_EDGE('',*,*,#437,.T.);
#561=ORIENTED_EDGE('',*,*,#438,.F.);
#562=ORIENTED_EDGE('',*,*,#439,.T.);
#563=ORIENTED_EDGE('',*,*,#440,.T.);
#564=ORIENTED_EDGE('',*,*,#441,.T.);
#565=ORIENTED_EDGE('',*,*,#442,.T.);
#566=ORIENTED_EDGE('',*,*,#443,.T.);
#567=ORIENTED_EDGE('',*,*,#444,.T.);
#568=ORIENTED_EDGE('',*,*,#440,.F.);
#569=ORIENTED_EDGE('',*,*,#445,.T.);
#570=ORIENTED_EDGE('',*,*,#443,.F.);
#571=ORIENTED_EDGE('',*,*,#446,.T.);
#572=ORIENTED_EDGE('',*,*,#438,.T.);
#573=ORIENTED_EDGE('',*,*,#446,.F.);
#574=ORIENTED_EDGE('',*,*,#447,.T.);
#575=ORIENTED_EDGE('',*,*,#448,.T.);
#576=ORIENTED_EDGE('',*,*,#449,.T.);
#577=ORIENTED_EDGE('',*,*,#445,.F.);
#578=ORIENTED_EDGE('',*,*,#450,.F.);
#579=ORIENTED_EDGE('',*,*,#451,.F.);
#580=ORIENTED_EDGE('',*,*,#447,.F.);
#581=ORIENTED_EDGE('',*,*,#442,.F.);
#582=ORIENTED_EDGE('',*,*,#452,.T.);
#583=ORIENTED_EDGE('',*,*,#453,.T.);
#584=ORIENTED_EDGE('',*,*,#450,.T.);
#585=ORIENTED_EDGE('',*,*,#454,.T.);
#586=ORIENTED_EDGE('',*,*,#455,.T.);
#587=ORIENTED_EDGE('',*,*,#456,.T.);
#588=ORIENTED_EDGE('',*,*,#457,.F.);
#589=ORIENTED_EDGE('',*,*,#458,.T.);
#590=ORIENTED_EDGE('',*,*,#455,.F.);
#591=ORIENTED_EDGE('',*,*,#459,.T.);
#592=ORIENTED_EDGE('',*,*,#460,.F.);
#593=ORIENTED_EDGE('',*,*,#461,.T.);
#594=ORIENTED_EDGE('',*,*,#462,.T.);
#595=ORIENTED_EDGE('',*,*,#463,.T.);
#596=ORIENTED_EDGE('',*,*,#462,.F.);
#597=ORIENTED_EDGE('',*,*,#464,.T.);
#598=ORIENTED_EDGE('',*,*,#465,.T.);
#599=ORIENTED_EDGE('',*,*,#466,.T.);
#600=ORIENTED_EDGE('',*,*,#465,.F.);
#601=ORIENTED_EDGE('',*,*,#467,.T.);
#602=ORIENTED_EDGE('',*,*,#457,.T.);
#603=ORIENTED_EDGE('',*,*,#466,.F.);
#604=ORIENTED_EDGE('',*,*,#468,.F.);
#605=ORIENTED_EDGE('',*,*,#469,.F.);
#606=ORIENTED_EDGE('',*,*,#470,.F.);
#607=ORIENTED_EDGE('',*,*,#456,.F.);
#608=ORIENTED_EDGE('',*,*,#471,.T.);
#609=ORIENTED_EDGE('',*,*,#472,.F.);
#610=ORIENTED_EDGE('',*,*,#468,.T.);
#611=ORIENTED_EDGE('',*,*,#439,.F.);
#612=ORIENTED_EDGE('',*,*,#449,.F.);
#613=ORIENTED_EDGE('',*,*,#473,.F.);
#614=ORIENTED_EDGE('',*,*,#435,.F.);
#615=ORIENTED_EDGE('',*,*,#459,.F.);
#616=ORIENTED_EDGE('',*,*,#454,.F.);
#617=ORIENTED_EDGE('',*,*,#467,.F.);
#618=ORIENTED_EDGE('',*,*,#464,.F.);
#619=ORIENTED_EDGE('',*,*,#461,.F.);
#620=ORIENTED_EDGE('',*,*,#474,.F.);
#621=ORIENTED_EDGE('',*,*,#419,.F.);
#622=ORIENTED_EDGE('',*,*,#423,.F.);
#623=ORIENTED_EDGE('',*,*,#474,.T.);
#624=ORIENTED_EDGE('',*,*,#475,.T.);
#625=ORIENTED_EDGE('',*,*,#476,.T.);
#626=ORIENTED_EDGE('',*,*,#420,.T.);
#627=ORIENTED_EDGE('',*,*,#477,.T.);
#628=ORIENTED_EDGE('',*,*,#475,.F.);
#629=ORIENTED_EDGE('',*,*,#460,.T.);
#630=ORIENTED_EDGE('',*,*,#422,.F.);
#631=ORIENTED_EDGE('',*,*,#476,.F.);
#632=ORIENTED_EDGE('',*,*,#478,.T.);
#633=ORIENTED_EDGE('',*,*,#479,.F.);
#634=ORIENTED_EDGE('',*,*,#417,.T.);
#635=ORIENTED_EDGE('',*,*,#480,.T.);
#636=ORIENTED_EDGE('',*,*,#481,.T.);
#637=ORIENTED_EDGE('',*,*,#482,.T.);
#638=ORIENTED_EDGE('',*,*,#473,.T.);
#639=ORIENTED_EDGE('',*,*,#482,.F.);
#640=ORIENTED_EDGE('',*,*,#483,.T.);
#641=ORIENTED_EDGE('',*,*,#436,.F.);
#642=ORIENTED_EDGE('',*,*,#448,.F.);
#643=ORIENTED_EDGE('',*,*,#484,.T.);
#644=ORIENTED_EDGE('',*,*,#480,.F.);
#645=ORIENTED_EDGE('',*,*,#483,.F.);
#646=ORIENTED_EDGE('',*,*,#485,.T.);
#647=ORIENTED_EDGE('',*,*,#486,.F.);
#648=ORIENTED_EDGE('',*,*,#433,.T.);
#649=ORIENTED_EDGE('',*,*,#481,.F.);
#650=ORIENTED_EDGE('',*,*,#487,.F.);
#651=ORIENTED_EDGE('',*,*,#488,.F.);
#652=ORIENTED_EDGE('',*,*,#485,.F.);
#653=ORIENTED_EDGE('',*,*,#415,.F.);
#654=ORIENTED_EDGE('',*,*,#489,.T.);
#655=ORIENTED_EDGE('',*,*,#490,.T.);
#656=ORIENTED_EDGE('',*,*,#491,.T.);
#657=ORIENTED_EDGE('',*,*,#492,.T.);
#658=ORIENTED_EDGE('',*,*,#493,.T.);
#659=ORIENTED_EDGE('',*,*,#479,.T.);
#660=ORIENTED_EDGE('',*,*,#494,.T.);
#661=ORIENTED_EDGE('',*,*,#414,.F.);
#662=ORIENTED_EDGE('',*,*,#418,.T.);
#663=ORIENTED_EDGE('',*,*,#493,.F.);
#664=ORIENTED_EDGE('',*,*,#495,.T.);
#665=ORIENTED_EDGE('',*,*,#496,.F.);
#666=ORIENTED_EDGE('',*,*,#494,.F.);
#667=ORIENTED_EDGE('',*,*,#497,.T.);
#668=ORIENTED_EDGE('',*,*,#490,.F.);
#669=ORIENTED_EDGE('',*,*,#452,.F.);
#670=ORIENTED_EDGE('',*,*,#498,.F.);
#671=ORIENTED_EDGE('',*,*,#499,.F.);
#672=ORIENTED_EDGE('',*,*,#500,.F.);
#673=ORIENTED_EDGE('',*,*,#489,.F.);
#674=ORIENTED_EDGE('',*,*,#495,.F.);
#675=ORIENTED_EDGE('',*,*,#492,.F.);
#676=ORIENTED_EDGE('',*,*,#501,.F.);
#677=ORIENTED_EDGE('',*,*,#502,.F.);
#678=ORIENTED_EDGE('',*,*,#503,.F.);
#679=ORIENTED_EDGE('',*,*,#504,.F.);
#680=ORIENTED_EDGE('',*,*,#505,.F.);
#681=ORIENTED_EDGE('',*,*,#477,.F.);
#682=ORIENTED_EDGE('',*,*,#506,.F.);
#683=ORIENTED_EDGE('',*,*,#497,.F.);
#684=ORIENTED_EDGE('',*,*,#478,.F.);
#685=ORIENTED_EDGE('',*,*,#431,.F.);
#686=ORIENTED_EDGE('',*,*,#498,.T.);
#687=ORIENTED_EDGE('',*,*,#441,.F.);
#688=ORIENTED_EDGE('',*,*,#507,.T.);
#689=ORIENTED_EDGE('',*,*,#430,.F.);
#690=ORIENTED_EDGE('',*,*,#434,.T.);
#691=ORIENTED_EDGE('',*,*,#508,.T.);
#692=ORIENTED_EDGE('',*,*,#499,.T.);
#693=ORIENTED_EDGE('',*,*,#509,.T.);
#694=ORIENTED_EDGE('',*,*,#488,.T.);
#695=ORIENTED_EDGE('',*,*,#510,.T.);
#696=ORIENTED_EDGE('',*,*,#500,.T.);
#697=ORIENTED_EDGE('',*,*,#510,.F.);
#698=ORIENTED_EDGE('',*,*,#511,.T.);
#699=ORIENTED_EDGE('',*,*,#453,.F.);
#700=ORIENTED_EDGE('',*,*,#508,.F.);
#701=ORIENTED_EDGE('',*,*,#486,.T.);
#702=ORIENTED_EDGE('',*,*,#509,.F.);
#703=ORIENTED_EDGE('',*,*,#484,.F.);
#704=ORIENTED_EDGE('',*,*,#451,.T.);
#705=ORIENTED_EDGE('',*,*,#511,.F.);
#706=ORIENTED_EDGE('',*,*,#487,.T.);
#707=ORIENTED_EDGE('',*,*,#504,.T.);
#708=ORIENTED_EDGE('',*,*,#512,.T.);
#709=ORIENTED_EDGE('',*,*,#472,.T.);
#710=ORIENTED_EDGE('',*,*,#513,.T.);
#711=ORIENTED_EDGE('',*,*,#502,.T.);
#712=ORIENTED_EDGE('',*,*,#514,.T.);
#713=ORIENTED_EDGE('',*,*,#515,.T.);
#714=ORIENTED_EDGE('',*,*,#516,.T.);
#715=ORIENTED_EDGE('',*,*,#517,.T.);
#716=ORIENTED_EDGE('',*,*,#514,.F.);
#717=ORIENTED_EDGE('',*,*,#501,.T.);
#718=ORIENTED_EDGE('',*,*,#496,.T.);
#719=ORIENTED_EDGE('',*,*,#505,.T.);
#720=ORIENTED_EDGE('',*,*,#513,.F.);
#721=ORIENTED_EDGE('',*,*,#503,.T.);
#722=ORIENTED_EDGE('',*,*,#516,.F.);
#723=ORIENTED_EDGE('',*,*,#469,.T.);
#724=ORIENTED_EDGE('',*,*,#512,.F.);
#725=ORIENTED_EDGE('',*,*,#463,.F.);
#726=ORIENTED_EDGE('',*,*,#470,.T.);
#727=ORIENTED_EDGE('',*,*,#515,.F.);
#728=ORIENTED_EDGE('',*,*,#518,.T.);
#729=ORIENTED_EDGE('',*,*,#428,.F.);
#730=ORIENTED_EDGE('',*,*,#507,.F.);
#731=ORIENTED_EDGE('',*,*,#444,.F.);
#732=ORIENTED_EDGE('',*,*,#437,.F.);
#733=ORIENTED_EDGE('',*,*,#413,.F.);
#734=ORIENTED_EDGE('',*,*,#491,.F.);
#735=ORIENTED_EDGE('',*,*,#506,.T.);
#736=ORIENTED_EDGE('',*,*,#421,.F.);
#737=ORIENTED_EDGE('',*,*,#458,.F.);
#738=ORIENTED_EDGE('',*,*,#518,.F.);
#739=ORIENTED_EDGE('',*,*,#517,.F.);
#740=ORIENTED_EDGE('',*,*,#471,.F.);
#741=B_SPLINE_SURFACE_WITH_KNOTS('',3,3,((#1157,#1158,#1159,#1160,#1161,
#1162),(#1163,#1164,#1165,#1166,#1167,#1168),(#1169,#1170,#1171,#1172,#1173,
#1174),(#1175,#1176,#1177,#1178,#1179,#1180),(#1181,#1182,#1183,#1184,#1185,
#1186)),.UNSPECIFIED.,.F.,.F.,.F.,(4,1,4),(4,1,1,4),(0.,0.5,1.),(-1.5707963267949,
-0.897597901025655,-0.448798950512828,1.11022302462516E-16),
 .UNSPECIFIED.);
#742=B_SPLINE_SURFACE_WITH_KNOTS('',3,3,((#1199,#1200,#1201,#1202,#1203),
(#1204,#1205,#1206,#1207,#1208),(#1209,#1210,#1211,#1212,#1213),(#1214,
#1215,#1216,#1217,#1218),(#1219,#1220,#1221,#1222,#1223)),.UNSPECIFIED.,
 .F.,.F.,.F.,(4,1,4),(4,1,4),(0.,0.5,1.),(-3.92051211782589E-18,0.673198425769241,
1.5707963267949),.UNSPECIFIED.);
#743=B_SPLINE_SURFACE_WITH_KNOTS('',3,3,((#1243,#1244,#1245,#1246,#1247,
#1248),(#1249,#1250,#1251,#1252,#1253,#1254),(#1255,#1256,#1257,#1258,#1259,
#1260),(#1261,#1262,#1263,#1264,#1265,#1266),(#1267,#1268,#1269,#1270,#1271,
#1272)),.UNSPECIFIED.,.F.,.F.,.F.,(4,1,4),(4,1,1,4),(0.,0.5,1.),(-1.5707963267949,
-0.897597901025655,-0.448798950512828,0.),.UNSPECIFIED.);
#744=B_SPLINE_SURFACE_WITH_KNOTS('',3,3,((#1285,#1286,#1287,#1288,#1289),
(#1290,#1291,#1292,#1293,#1294),(#1295,#1296,#1297,#1298,#1299),(#1300,
#1301,#1302,#1303,#1304),(#1305,#1306,#1307,#1308,#1309)),.UNSPECIFIED.,
 .F.,.F.,.F.,(4,1,4),(4,1,4),(0.,0.5,1.),(-2.09522654968445E-17,0.673198425769241,
1.5707963267949),.UNSPECIFIED.);
#745=B_SPLINE_SURFACE_WITH_KNOTS('',3,3,((#1329,#1330,#1331,#1332,#1333),
(#1334,#1335,#1336,#1337,#1338),(#1339,#1340,#1341,#1342,#1343),(#1344,
#1345,#1346,#1347,#1348),(#1349,#1350,#1351,#1352,#1353)),.UNSPECIFIED.,
 .F.,.F.,.F.,(4,1,4),(4,1,4),(0.,0.5,1.),(-2.09522654968444E-17,0.673198425769241,
1.5707963267949),.UNSPECIFIED.);
#746=B_SPLINE_SURFACE_WITH_KNOTS('',3,3,((#1365,#1366,#1367,#1368,#1369),
(#1370,#1371,#1372,#1373,#1374),(#1375,#1376,#1377,#1378,#1379),(#1380,
#1381,#1382,#1383,#1384),(#1385,#1386,#1387,#1388,#1389)),.UNSPECIFIED.,
 .F.,.F.,.F.,(4,1,4),(4,1,4),(0.,0.5,1.),(-2.75616657635345E-31,0.673198425769241,
1.5707963267949),.UNSPECIFIED.);
#747=ADVANCED_FACE('',(#198),#741,.T.);
#748=ADVANCED_FACE('',(#199),#169,.F.);
#749=ADVANCED_FACE('',(#200),#742,.T.);
#750=ADVANCED_FACE('',(#201),#21,.F.);
#751=ADVANCED_FACE('',(#202),#170,.T.);
#752=ADVANCED_FACE('',(#203),#171,.T.);
#753=ADVANCED_FACE('',(#204),#743,.F.);
#754=ADVANCED_FACE('',(#205),#172,.T.);
#755=ADVANCED_FACE('',(#206),#744,.F.);
#756=ADVANCED_FACE('',(#207),#22,.T.);
#757=ADVANCED_FACE('',(#208),#173,.T.);
#758=ADVANCED_FACE('',(#209),#174,.T.);
#759=ADVANCED_FACE('',(#210),#745,.F.);
#760=ADVANCED_FACE('',(#211),#175,.T.);
#761=ADVANCED_FACE('',(#212),#746,.F.);
#762=ADVANCED_FACE('',(#213),#176,.T.);
#763=ADVANCED_FACE('',(#214),#23,.T.);
#764=ADVANCED_FACE('',(#215),#177,.T.);
#765=ADVANCED_FACE('',(#216),#178,.T.);
#766=ADVANCED_FACE('',(#217),#179,.T.);
#767=ADVANCED_FACE('',(#218),#180,.T.);
#768=ADVANCED_FACE('',(#219),#181,.T.);
#769=ADVANCED_FACE('',(#220),#24,.F.);
#770=ADVANCED_FACE('',(#221),#25,.F.);
#771=ADVANCED_FACE('',(#222,#19),#26,.F.);
#772=ADVANCED_FACE('',(#223),#182,.T.);
#773=ADVANCED_FACE('',(#224),#183,.T.);
#774=ADVANCED_FACE('',(#225),#27,.T.);
#775=ADVANCED_FACE('',(#226),#184,.T.);
#776=ADVANCED_FACE('',(#227),#15,.T.);
#777=ADVANCED_FACE('',(#228),#16,.T.);
#778=ADVANCED_FACE('',(#229),#185,.T.);
#779=ADVANCED_FACE('',(#230),#28,.F.);
#780=ADVANCED_FACE('',(#231),#186,.T.);
#781=ADVANCED_FACE('',(#232),#187,.T.);
#782=ADVANCED_FACE('',(#233),#188,.T.);
#783=ADVANCED_FACE('',(#234),#189,.T.);
#784=ADVANCED_FACE('',(#235,#20),#29,.T.);
#785=ADVANCED_FACE('',(#236),#30,.F.);
#786=ADVANCED_FACE('',(#237),#190,.T.);
#787=ADVANCED_FACE('',(#238),#191,.T.);
#788=ADVANCED_FACE('',(#239),#192,.T.);
#789=ADVANCED_FACE('',(#240),#17,.T.);
#790=ADVANCED_FACE('',(#241),#18,.T.);
#791=ADVANCED_FACE('',(#242),#193,.T.);
#792=ADVANCED_FACE('',(#243),#194,.T.);
#793=ADVANCED_FACE('',(#244),#195,.T.);
#794=ADVANCED_FACE('',(#245),#196,.T.);
#795=ADVANCED_FACE('',(#246),#197,.T.);
#796=ADVANCED_FACE('',(#247),#31,.F.);
#797=ADVANCED_FACE('',(#248),#32,.F.);
#798=ADVANCED_FACE('',(#249),#33,.T.);
#799=ADVANCED_FACE('',(#250),#34,.T.);
#800=CLOSED_SHELL('',(#747,#748,#749,#750,#751,#752,#753,#754,#755,#756,
#757,#758,#759,#760,#761,#762,#763,#764,#765,#766,#767,#768,#769,#770,#771,
#772,#773,#774,#775,#776,#777,#778,#779,#780,#781,#782,#783,#784,#785,#786,
#787,#788,#789,#790,#791,#792,#793,#794,#795,#796,#797,#798,#799));
#801=DERIVED_UNIT_ELEMENT(#803,1.);
#802=DERIVED_UNIT_ELEMENT(#1538,-3.);
#803=(
MASS_UNIT()
NAMED_UNIT(*)
SI_UNIT(.KILO.,.GRAM.)
);
#804=DERIVED_UNIT((#801,#802));
#805=MEASURE_REPRESENTATION_ITEM('density measure',
POSITIVE_RATIO_MEASURE(7850.),#804);
#806=PROPERTY_DEFINITION_REPRESENTATION(#811,#808);
#807=PROPERTY_DEFINITION_REPRESENTATION(#812,#809);
#808=REPRESENTATION('material name',(#810),#1535);
#809=REPRESENTATION('density',(#805),#1535);
#810=DESCRIPTIVE_REPRESENTATION_ITEM('Steel','Steel');
#811=PROPERTY_DEFINITION('material property','material name',#1545);
#812=PROPERTY_DEFINITION('material property','density of part',#1545);
#813=AXIS2_PLACEMENT_3D('',#1156,#905,#906);
#814=AXIS2_PLACEMENT_3D('',#1189,#907,#908);
#815=AXIS2_PLACEMENT_3D('',#1191,#909,#910);
#816=AXIS2_PLACEMENT_3D('',#1192,#911,#912);
#817=AXIS2_PLACEMENT_3D('',#1193,#913,#914);
#818=AXIS2_PLACEMENT_3D('',#1197,#916,#917);
#819=AXIS2_PLACEMENT_3D('',#1225,#919,#920);
#820=AXIS2_PLACEMENT_3D('',#1226,#921,#922);
#821=AXIS2_PLACEMENT_3D('',#1227,#923,#924);
#822=AXIS2_PLACEMENT_3D('',#1233,#928,#929);
#823=AXIS2_PLACEMENT_3D('',#1236,#931,#932);
#824=AXIS2_PLACEMENT_3D('',#1237,#933,#934);
#825=AXIS2_PLACEMENT_3D('',#1241,#936,#937);
#826=AXIS2_PLACEMENT_3D('',#1275,#939,#940);
#827=AXIS2_PLACEMENT_3D('',#1277,#941,#942);
#828=AXIS2_PLACEMENT_3D('',#1278,#943,#944);
#829=AXIS2_PLACEMENT_3D('',#1279,#945,#946);
#830=AXIS2_PLACEMENT_3D('',#1282,#947,#948);
#831=AXIS2_PLACEMENT_3D('',#1311,#951,#952);
#832=AXIS2_PLACEMENT_3D('',#1312,#953,#954);
#833=AXIS2_PLACEMENT_3D('',#1313,#955,#956);
#834=AXIS2_PLACEMENT_3D('',#1319,#960,#961);
#835=AXIS2_PLACEMENT_3D('',#1322,#963,#964);
#836=AXIS2_PLACEMENT_3D('',#1323,#965,#966);
#837=AXIS2_PLACEMENT_3D('',#1327,#968,#969);
#838=AXIS2_PLACEMENT_3D('',#1356,#971,#972);
#839=AXIS2_PLACEMENT_3D('',#1358,#973,#974);
#840=AXIS2_PLACEMENT_3D('',#1359,#975,#976);
#841=AXIS2_PLACEMENT_3D('',#1360,#977,#978);
#842=AXIS2_PLACEMENT_3D('',#1362,#979,#980);
#843=AXIS2_PLACEMENT_3D('',#1390,#983,#984);
#844=AXIS2_PLACEMENT_3D('',#1391,#985,#986);
#845=AXIS2_PLACEMENT_3D('',#1395,#988,#989);
#846=AXIS2_PLACEMENT_3D('',#1397,#991,#992);
#847=AXIS2_PLACEMENT_3D('',#1401,#995,#996);
#848=AXIS2_PLACEMENT_3D('',#1404,#998,#999);
#849=AXIS2_PLACEMENT_3D('',#1405,#1000,#1001);
#850=AXIS2_PLACEMENT_3D('',#1410,#1003,#1004);
#851=AXIS2_PLACEMENT_3D('',#1413,#1006,#1007);
#852=AXIS2_PLACEMENT_3D('',#1414,#1008,#1009);
#853=AXIS2_PLACEMENT_3D('',#1422,#1014,#1015);
#854=AXIS2_PLACEMENT_3D('',#1423,#1016,#1017);
#855=AXIS2_PLACEMENT_3D('',#1428,#1020,#1021);
#856=AXIS2_PLACEMENT_3D('',#1429,#1022,#1023);
#857=AXIS2_PLACEMENT_3D('',#1432,#1026,#1027);
#858=AXIS2_PLACEMENT_3D('',#1438,#1031,#1032);
#859=AXIS2_PLACEMENT_3D('',#1442,#1035,#1036);
#860=AXIS2_PLACEMENT_3D('',#1445,#1039,#1040);
#861=AXIS2_PLACEMENT_3D('',#1447,#1041,#1042);
#862=AXIS2_PLACEMENT_3D('',#1449,#1044,#1045);
#863=AXIS2_PLACEMENT_3D('',#1451,#1047,#1048);
#864=AXIS2_PLACEMENT_3D('',#1455,#1051,#1052);
#865=AXIS2_PLACEMENT_3D('',#1457,#1053,#1054);
#866=AXIS2_PLACEMENT_3D('',#1460,#1056,#1057);
#867=AXIS2_PLACEMENT_3D('',#1461,#1058,#1059);
#868=AXIS2_PLACEMENT_3D('',#1462,#1060,#1061);
#869=AXIS2_PLACEMENT_3D('',#1463,#1062,#1063);
#870=AXIS2_PLACEMENT_3D('',#1464,#1064,#1065);
#871=AXIS2_PLACEMENT_3D('',#1465,#1066,#1067);
#872=AXIS2_PLACEMENT_3D('',#1468,#1069,#1070);
#873=AXIS2_PLACEMENT_3D('',#1469,#1071,#1072);
#874=AXIS2_PLACEMENT_3D('',#1473,#1075,#1076);
#875=AXIS2_PLACEMENT_3D('',#1477,#1078,#1079);
#876=AXIS2_PLACEMENT_3D('',#1479,#1081,#1082);
#877=AXIS2_PLACEMENT_3D('',#1483,#1084,#1085);
#878=AXIS2_PLACEMENT_3D('',#1484,#1086,#1087);
#879=AXIS2_PLACEMENT_3D('',#1485,#1088,#1089);
#880=AXIS2_PLACEMENT_3D('',#1487,#1091,#1092);
#881=AXIS2_PLACEMENT_3D('',#1490,#1095,#1096);
#882=AXIS2_PLACEMENT_3D('',#1504,#1105,#1106);
#883=AXIS2_PLACEMENT_3D('',#1506,#1108,#1109);
#884=AXIS2_PLACEMENT_3D('',#1508,#1111,#1112);
#885=AXIS2_PLACEMENT_3D('',#1509,#1113,#1114);
#886=AXIS2_PLACEMENT_3D('',#1510,#1115,#1116);
#887=AXIS2_PLACEMENT_3D('',#1511,#1117,#1118);
#888=AXIS2_PLACEMENT_3D('',#1512,#1119,#1120);
#889=AXIS2_PLACEMENT_3D('',#1513,#1121,#1122);
#890=AXIS2_PLACEMENT_3D('',#1514,#1123,#1124);
#891=AXIS2_PLACEMENT_3D('',#1515,#1125,#1126);
#892=AXIS2_PLACEMENT_3D('',#1516,#1127,#1128);
#893=AXIS2_PLACEMENT_3D('',#1517,#1129,#1130);
#894=AXIS2_PLACEMENT_3D('',#1518,#1131,#1132);
#895=AXIS2_PLACEMENT_3D('',#1519,#1133,#1134);
#896=AXIS2_PLACEMENT_3D('',#1520,#1135,#1136);
#897=AXIS2_PLACEMENT_3D('',#1522,#1137,#1138);
#898=AXIS2_PLACEMENT_3D('',#1524,#1140,#1141);
#899=AXIS2_PLACEMENT_3D('',#1525,#1142,#1143);
#900=AXIS2_PLACEMENT_3D('',#1527,#1145,#1146);
#901=AXIS2_PLACEMENT_3D('',#1528,#1147,#1148);
#902=AXIS2_PLACEMENT_3D('',#1530,#1150,#1151);
#903=AXIS2_PLACEMENT_3D('',#1531,#1152,#1153);
#904=AXIS2_PLACEMENT_3D('',#1532,#1154,#1155);
#905=DIRECTION('axis',(0.,0.,1.));
#906=DIRECTION('refdir',(1.,0.,0.));
#907=DIRECTION('center_axis',(1.,0.,0.));
#908=DIRECTION('ref_axis',(0.,0.,-1.));
#909=DIRECTION('center_axis',(0.,-0.832050294337844,-0.554700196225229));
#910=DIRECTION('ref_axis',(0.,-0.554700196225229,0.832050294337844));
#911=DIRECTION('center_axis',(0.,0.554700196225229,0.832050294337844));
#912=DIRECTION('ref_axis',(0.,-0.832050294337844,0.554700196225229));
#913=DIRECTION('center_axis',(1.,0.,0.));
#914=DIRECTION('ref_axis',(0.,0.707106781186547,-0.707106781186548));
#915=DIRECTION('',(1.,0.,0.));
#916=DIRECTION('center_axis',(1.,0.,0.));
#917=DIRECTION('ref_axis',(0.,-8.88178419700125E-15,-1.));
#918=DIRECTION('',(-1.,0.,0.));
#919=DIRECTION('center_axis',(0.,0.554700196225228,0.832050294337844));
#920=DIRECTION('ref_axis',(0.,-0.832050294337844,0.554700196225228));
#921=DIRECTION('center_axis',(0.,-0.832050294337843,-0.55470019622523));
#922=DIRECTION('ref_axis',(0.,-0.55470019622523,0.832050294337843));
#923=DIRECTION('center_axis',(0.,0.,-1.));
#924=DIRECTION('ref_axis',(-1.,0.,0.));
#925=DIRECTION('',(0.,1.,0.));
#926=DIRECTION('',(-1.,0.,0.));
#927=DIRECTION('',(0.,-1.,0.));
#928=DIRECTION('center_axis',(0.,1.,0.));
#929=DIRECTION('ref_axis',(-0.707106781186548,0.,0.707106781186548));
#930=DIRECTION('',(0.,-1.,0.));
#931=DIRECTION('center_axis',(0.,-0.707106781186547,0.707106781186548));
#932=DIRECTION('ref_axis',(0.,0.707106781186548,0.707106781186547));
#933=DIRECTION('center_axis',(0.,0.,1.));
#934=DIRECTION('ref_axis',(-0.707106781186549,-0.707106781186546,0.));
#935=DIRECTION('',(0.,0.,1.));
#936=DIRECTION('center_axis',(3.92523114670943E-16,0.707106781186549,-0.707106781186546));
#937=DIRECTION('ref_axis',(-3.92523114670941E-16,-0.707106781186546,-0.707106781186549));
#938=DIRECTION('',(0.,0.,-1.));
#939=DIRECTION('center_axis',(-1.,0.,0.));
#940=DIRECTION('ref_axis',(0.,1.,4.4408920985006E-15));
#941=DIRECTION('center_axis',(0.,0.894427190999917,0.447213595499957));
#942=DIRECTION('ref_axis',(0.,0.447213595499957,-0.894427190999917));
#943=DIRECTION('center_axis',(0.,-0.447213595499958,-0.894427190999916));
#944=DIRECTION('ref_axis',(0.,0.894427190999916,-0.447213595499958));
#945=DIRECTION('center_axis',(-1.,0.,0.));
#946=DIRECTION('ref_axis',(0.,0.707106781186544,-0.707106781186551));
#947=DIRECTION('center_axis',(-1.,0.,0.));
#948=DIRECTION('ref_axis',(0.,1.,0.));
#949=DIRECTION('',(-1.,0.,0.));
#950=DIRECTION('',(1.,0.,0.));
#951=DIRECTION('center_axis',(0.,-0.447213595499958,-0.894427190999916));
#952=DIRECTION('ref_axis',(0.,0.894427190999916,-0.447213595499958));
#953=DIRECTION('center_axis',(0.,0.894427190999917,0.447213595499957));
#954=DIRECTION('ref_axis',(0.,0.447213595499957,-0.894427190999917));
#955=DIRECTION('center_axis',(0.,1.,0.));
#956=DIRECTION('ref_axis',(0.,0.,1.));
#957=DIRECTION('',(0.,0.,-1.));
#958=DIRECTION('',(-1.,0.,0.));
#959=DIRECTION('',(0.,0.,1.));
#960=DIRECTION('center_axis',(0.,0.,-1.));
#961=DIRECTION('ref_axis',(-0.707106781186546,0.707106781186549,0.));
#962=DIRECTION('',(0.,0.,1.));
#963=DIRECTION('center_axis',(0.,0.,-1.));
#964=DIRECTION('ref_axis',(-1.,0.,0.));
#965=DIRECTION('center_axis',(0.,-1.,0.));
#966=DIRECTION('ref_axis',(-0.707106781186547,0.,-0.707106781186548));
#967=DIRECTION('',(0.,-1.,0.));
#968=DIRECTION('center_axis',(-3.97205464519564E-15,-0.894427190999918,
0.447213595499954));
#969=DIRECTION('ref_axis',(0.,-0.447213595499954,-0.894427190999918));
#970=DIRECTION('',(0.,1.,0.));
#971=DIRECTION('center_axis',(1.,0.,0.));
#972=DIRECTION('ref_axis',(0.,-1.,4.44089209850064E-15));
#973=DIRECTION('center_axis',(0.,-0.894427190999917,0.447213595499957));
#974=DIRECTION('ref_axis',(0.,-0.447213595499957,-0.894427190999917));
#975=DIRECTION('center_axis',(0.,0.447213595499959,-0.894427190999916));
#976=DIRECTION('ref_axis',(0.,-0.894427190999916,-0.447213595499959));
#977=DIRECTION('center_axis',(1.,0.,0.));
#978=DIRECTION('ref_axis',(0.,-0.707106781186546,-0.707106781186549));
#979=DIRECTION('center_axis',(1.,0.,0.));
#980=DIRECTION('ref_axis',(0.,-1.,0.));
#981=DIRECTION('',(1.,0.,0.));
#982=DIRECTION('',(-1.,0.,0.));
#983=DIRECTION('center_axis',(-3.97205464519564E-15,0.447213595499958,-0.894427190999916));
#984=DIRECTION('ref_axis',(0.,-0.894427190999916,-0.447213595499958));
#985=DIRECTION('center_axis',(0.,0.,-1.));
#986=DIRECTION('ref_axis',(-0.707106781186546,-0.707106781186549,0.));
#987=DIRECTION('',(0.,0.,1.));
#988=DIRECTION('center_axis',(0.,0.,-1.));
#989=DIRECTION('ref_axis',(0.,-1.,0.));
#990=DIRECTION('',(0.,0.,-1.));
#991=DIRECTION('center_axis',(0.,-1.,0.));
#992=DIRECTION('ref_axis',(1.,0.,0.));
#993=DIRECTION('',(0.,0.,-1.));
#994=DIRECTION('',(1.,0.,0.));
#995=DIRECTION('center_axis',(0.,0.,1.));
#996=DIRECTION('ref_axis',(0.707106781186548,-0.707106781186548,0.));
#997=DIRECTION('',(0.,0.,1.));
#998=DIRECTION('center_axis',(0.,0.,-1.));
#999=DIRECTION('ref_axis',(1.,0.,0.));
#1000=DIRECTION('center_axis',(0.,0.,-1.));
#1001=DIRECTION('ref_axis',(-0.707106781186546,-0.707106781186549,0.));
#1002=DIRECTION('',(0.,0.,-1.));
#1003=DIRECTION('center_axis',(0.,0.707106781186547,0.707106781186548));
#1004=DIRECTION('ref_axis',(0.,-0.707106781186548,0.707106781186547));
#1005=DIRECTION('',(0.,0.,1.));
#1006=DIRECTION('center_axis',(0.,-0.707106781186548,0.707106781186548));
#1007=DIRECTION('ref_axis',(0.,-0.707106781186547,-0.707106781186547));
#1008=DIRECTION('center_axis',(0.,-1.,0.));
#1009=DIRECTION('ref_axis',(-0.707106781186547,0.,0.707106781186548));
#1010=DIRECTION('',(0.,1.,0.));
#1011=DIRECTION('',(0.,-1.,0.));
#1012=DIRECTION('',(0.,1.,0.));
#1013=DIRECTION('',(0.,-1.,0.));
#1014=DIRECTION('center_axis',(3.14018491736754E-15,0.707106781186546,-0.707106781186549));
#1015=DIRECTION('ref_axis',(-3.14018491736753E-15,0.707106781186549,0.707106781186546));
#1016=DIRECTION('center_axis',(0.,0.,1.));
#1017=DIRECTION('ref_axis',(-0.707106781186546,0.707106781186549,0.));
#1018=DIRECTION('',(0.,0.,-1.));
#1019=DIRECTION('',(0.,0.,1.));
#1020=DIRECTION('center_axis',(3.14018491736755E-15,-0.707106781186548,
-0.707106781186548));
#1021=DIRECTION('ref_axis',(-3.14018491736755E-15,0.707106781186547,-0.707106781186547));
#1022=DIRECTION('center_axis',(0.,1.,0.));
#1023=DIRECTION('ref_axis',(-0.707106781186546,0.,-0.707106781186549));
#1024=DIRECTION('',(0.,-1.,0.));
#1025=DIRECTION('',(0.,1.,0.));
#1026=DIRECTION('center_axis',(0.,0.,1.));
#1027=DIRECTION('ref_axis',(1.,0.,0.));
#1028=DIRECTION('',(-1.,0.,0.));
#1029=DIRECTION('',(0.,1.,0.));
#1030=DIRECTION('',(1.,0.,0.));
#1031=DIRECTION('center_axis',(0.,1.,0.));
#1032=DIRECTION('ref_axis',(-1.,0.,0.));
#1033=DIRECTION('',(1.,0.,0.));
#1034=DIRECTION('',(0.,0.,-1.));
#1035=DIRECTION('center_axis',(1.,0.,0.));
#1036=DIRECTION('ref_axis',(0.,0.,-1.));
#1037=DIRECTION('',(0.,-1.,0.));
#1038=DIRECTION('',(0.,0.,1.));
#1039=DIRECTION('center_axis',(0.,0.,-1.));
#1040=DIRECTION('ref_axis',(-0.707106781186549,0.707106781186546,0.));
#1041=DIRECTION('center_axis',(-3.14018491736755E-15,-0.707106781186547,
-0.707106781186548));
#1042=DIRECTION('ref_axis',(-3.14018491736755E-15,-0.707106781186548,0.707106781186547));
#1043=DIRECTION('',(0.,0.,-1.));
#1044=DIRECTION('center_axis',(0.,-1.,0.));
#1045=DIRECTION('ref_axis',(-0.707106781186548,0.,-0.707106781186548));
#1046=DIRECTION('',(0.,-1.,0.));
#1047=DIRECTION('center_axis',(0.,1.,0.));
#1048=DIRECTION('ref_axis',(0.,0.,1.));
#1049=DIRECTION('',(1.,0.,0.));
#1050=DIRECTION('',(0.,0.,1.));
#1051=DIRECTION('center_axis',(0.,1.,0.));
#1052=DIRECTION('ref_axis',(-0.707106781186549,0.,0.707106781186546));
#1053=DIRECTION('center_axis',(0.,1.,-4.44089209850062E-15));
#1054=DIRECTION('ref_axis',(-1.,0.,0.));
#1055=DIRECTION('',(0.,1.,0.));
#1056=DIRECTION('center_axis',(0.,-1.,0.));
#1057=DIRECTION('ref_axis',(0.,0.,1.));
#1058=DIRECTION('center_axis',(-0.408248290463862,-0.816496580927725,0.408248290463866));
#1059=DIRECTION('ref_axis',(-0.577350269189626,0.577350269189627,0.577350269189624));
#1060=DIRECTION('center_axis',(-1.,0.,0.));
#1061=DIRECTION('ref_axis',(0.,0.70710678118655,0.707106781186545));
#1062=DIRECTION('center_axis',(-0.816496580927728,0.408248290463863,-0.40824829046386));
#1063=DIRECTION('ref_axis',(-0.577350269189625,-0.57735026918963,0.577350269189623));
#1064=DIRECTION('center_axis',(-1.,0.,0.));
#1065=DIRECTION('ref_axis',(0.,-0.70710678118655,0.707106781186545));
#1066=DIRECTION('center_axis',(1.,0.,0.));
#1067=DIRECTION('ref_axis',(0.,0.707106781186551,0.707106781186544));
#1068=DIRECTION('',(1.,0.,0.));
#1069=DIRECTION('center_axis',(1.,0.,0.));
#1070=DIRECTION('ref_axis',(0.,0.70710678118655,0.707106781186545));
#1071=DIRECTION('center_axis',(0.,0.,-1.));
#1072=DIRECTION('ref_axis',(-1.,0.,0.));
#1073=DIRECTION('',(-1.,0.,0.));
#1074=DIRECTION('',(0.,-1.,0.));
#1075=DIRECTION('center_axis',(0.,0.,1.));
#1076=DIRECTION('ref_axis',(0.707106781186548,-0.707106781186548,0.));
#1077=DIRECTION('',(0.,0.,1.));
#1078=DIRECTION('center_axis',(-3.92523114670944E-16,0.707106781186549,
-0.707106781186546));
#1079=DIRECTION('ref_axis',(3.92523114670943E-16,-0.707106781186546,-0.707106781186549));
#1080=DIRECTION('',(0.,0.,-1.));
#1081=DIRECTION('center_axis',(0.,0.,1.));
#1082=DIRECTION('ref_axis',(0.707106781186548,0.707106781186548,0.));
#1083=DIRECTION('',(0.,0.,-1.));
#1084=DIRECTION('center_axis',(0.,-0.707106781186547,0.707106781186548));
#1085=DIRECTION('ref_axis',(0.,-0.707106781186548,-0.707106781186547));
#1086=DIRECTION('center_axis',(0.,-0.707106781186547,-0.707106781186548));
#1087=DIRECTION('ref_axis',(0.,0.707106781186548,-0.707106781186547));
#1088=DIRECTION('center_axis',(0.,-1.,0.));
#1089=DIRECTION('ref_axis',(0.707106781186546,0.,0.707106781186549));
#1090=DIRECTION('',(0.,1.,0.));
#1091=DIRECTION('center_axis',(0.,1.,0.));
#1092=DIRECTION('ref_axis',(0.707106781186546,0.,-0.707106781186549));
#1093=DIRECTION('',(0.,1.,0.));
#1094=DIRECTION('',(0.,1.,0.));
#1095=DIRECTION('center_axis',(1.,0.,0.));
#1096=DIRECTION('ref_axis',(0.,1.,0.));
#1097=DIRECTION('',(0.,-1.,0.));
#1098=DIRECTION('',(0.,0.,-1.));
#1099=DIRECTION('',(0.,1.,0.));
#1100=DIRECTION('',(0.,1.,0.));
#1101=DIRECTION('',(0.,0.,-1.));
#1102=DIRECTION('',(0.,-1.,0.));
#1103=DIRECTION('',(0.,0.,1.));
#1104=DIRECTION('',(0.,1.,0.));
#1105=DIRECTION('center_axis',(0.,0.,1.));
#1106=DIRECTION('ref_axis',(1.,0.,0.));
#1107=DIRECTION('',(-1.,0.,0.));
#1108=DIRECTION('center_axis',(0.,1.,0.));
#1109=DIRECTION('ref_axis',(0.707106781186546,0.,-0.707106781186549));
#1110=DIRECTION('',(0.,1.,0.));
#1111=DIRECTION('center_axis',(0.,0.,-1.));
#1112=DIRECTION('ref_axis',(0.707106781186548,0.707106781186548,0.));
#1113=DIRECTION('center_axis',(0.,0.,-1.));
#1114=DIRECTION('ref_axis',(0.,1.,0.));
#1115=DIRECTION('center_axis',(0.,-1.,0.));
#1116=DIRECTION('ref_axis',(0.707106781186548,0.,0.707106781186548));
#1117=DIRECTION('center_axis',(0.,-1.,-4.44089209850062E-15));
#1118=DIRECTION('ref_axis',(1.,0.,0.));
#1119=DIRECTION('center_axis',(0.,1.,0.));
#1120=DIRECTION('ref_axis',(0.,0.,1.));
#1121=DIRECTION('center_axis',(-0.816496580927727,-0.408248290463864,0.40824829046386));
#1122=DIRECTION('ref_axis',(0.577350269189623,-0.577350269189631,0.577350269189623));
#1123=DIRECTION('center_axis',(1.,0.,0.));
#1124=DIRECTION('ref_axis',(0.,-0.70710678118655,0.707106781186545));
#1125=DIRECTION('center_axis',(-0.816496580927727,0.408248290463864,0.40824829046386));
#1126=DIRECTION('ref_axis',(0.577350269189623,0.577350269189631,0.577350269189623));
#1127=DIRECTION('center_axis',(-1.,0.,0.));
#1128=DIRECTION('ref_axis',(0.,-0.707106781186551,0.707106781186544));
#1129=DIRECTION('center_axis',(0.,0.,-1.));
#1130=DIRECTION('ref_axis',(0.707106781186544,-0.707106781186551,0.));
#1131=DIRECTION('center_axis',(0.,0.707106781186546,-0.707106781186549));
#1132=DIRECTION('ref_axis',(0.,0.707106781186549,0.707106781186546));
#1133=DIRECTION('center_axis',(0.,0.707106781186546,0.707106781186549));
#1134=DIRECTION('ref_axis',(0.,-0.707106781186549,0.707106781186546));
#1135=DIRECTION('center_axis',(0.,0.,1.));
#1136=DIRECTION('ref_axis',(0.707106781186544,0.707106781186551,0.));
#1137=DIRECTION('center_axis',(0.,-0.707106781186547,0.707106781186548));
#1138=DIRECTION('ref_axis',(0.,-0.707106781186548,-0.707106781186547));
#1139=DIRECTION('',(0.,0.,1.));
#1140=DIRECTION('center_axis',(0.,-0.707106781186548,-0.707106781186548));
#1141=DIRECTION('ref_axis',(0.,0.707106781186547,-0.707106781186547));
#1142=DIRECTION('center_axis',(0.,-1.,0.));
#1143=DIRECTION('ref_axis',(0.707106781186546,0.,0.707106781186549));
#1144=DIRECTION('',(0.,-1.,0.));
#1145=DIRECTION('center_axis',(0.,1.,0.));
#1146=DIRECTION('ref_axis',(0.707106781186544,0.,-0.707106781186551));
#1147=DIRECTION('center_axis',(0.,-1.,0.));
#1148=DIRECTION('ref_axis',(1.,0.,0.));
#1149=DIRECTION('',(-1.,0.,0.));
#1150=DIRECTION('center_axis',(0.,0.,1.));
#1151=DIRECTION('ref_axis',(1.,0.,0.));
#1152=DIRECTION('center_axis',(0.,-1.,0.));
#1153=DIRECTION('ref_axis',(0.,0.,-1.));
#1154=DIRECTION('center_axis',(0.,0.,1.));
#1155=DIRECTION('ref_axis',(1.,0.,0.));
#1156=CARTESIAN_POINT('',(0.,0.,0.));
#1157=CARTESIAN_POINT('Ctrl Pts',(4.,22.0000003278255,-4.00000010430813));
#1158=CARTESIAN_POINT('Ctrl Pts',(4.,21.7756008525691,-3.66340089142351));
#1159=CARTESIAN_POINT('Ctrl Pts',(4.1309778898042,21.4029081113852,-3.10436177964759));
#1160=CARTESIAN_POINT('Ctrl Pts',(4.55167417230293,21.0683846915782,-2.60257664993708));
#1161=CARTESIAN_POINT('Ctrl Pts',(4.85040034982906,21.0000003278255,-2.50000010430813));
#1162=CARTESIAN_POINT('Ctrl Pts',(5.,21.0000003278255,-2.50000010430813));
#1163=CARTESIAN_POINT('Ctrl Pts',(4.,22.0000003278255,-4.00000010430813));
#1164=CARTESIAN_POINT('Ctrl Pts',(4.,21.7569008962978,-3.68210084769487));
#1165=CARTESIAN_POINT('Ctrl Pts',(4.15711743847295,21.3539572962487,-3.15408502881217));
#1166=CARTESIAN_POINT('Ctrl Pts',(4.60565762940123,21.0465016266307,-2.71047313170791));
#1167=CARTESIAN_POINT('Ctrl Pts',(4.87017634350598,21.0000003278255,-2.6308997982077));
#1168=CARTESIAN_POINT('Ctrl Pts',(5.,21.0000003278255,-2.6308997982077));
#1169=CARTESIAN_POINT('Ctrl Pts',(4.,22.0000003278255,-4.00000010430813));
#1170=CARTESIAN_POINT('Ctrl Pts',(4.,21.719500983755,-3.71950076023761));
#1171=CARTESIAN_POINT('Ctrl Pts',(4.18287303051017,21.254108692077,-3.25410846855959));
#1172=CARTESIAN_POINT('Ctrl Pts',(4.6658949599918,20.9260125462368,-2.92601232271941));
#1173=CARTESIAN_POINT('Ctrl Pts',(4.89262435176398,20.8916452879386,-2.89164506442119));
#1174=CARTESIAN_POINT('Ctrl Pts',(5.,20.8916452879386,-2.89164506442119));
#1175=CARTESIAN_POINT('Ctrl Pts',(4.,22.0000003278255,-4.00000010430813));
#1176=CARTESIAN_POINT('Ctrl Pts',(4.,21.6821010712123,-3.75690067278035));
#1177=CARTESIAN_POINT('Ctrl Pts',(4.15711743847295,21.1540852523296,-3.35395707273125));
#1178=CARTESIAN_POINT('Ctrl Pts',(4.60565762940123,20.7104733552253,-3.04650140311323));
#1179=CARTESIAN_POINT('Ctrl Pts',(4.87017634350598,20.6309000217251,-3.00000010430812));
#1180=CARTESIAN_POINT('Ctrl Pts',(5.,20.6309000217251,-3.00000010430812));
#1181=CARTESIAN_POINT('Ctrl Pts',(4.,22.0000003278255,-4.00000010430813));
#1182=CARTESIAN_POINT('Ctrl Pts',(4.,21.6634011149409,-3.77560062905171));
#1183=CARTESIAN_POINT('Ctrl Pts',(4.13097788980421,21.104362003165,-3.40290788786777));
#1184=CARTESIAN_POINT('Ctrl Pts',(4.55167417230293,20.6025768734545,-3.06838446806076));
#1185=CARTESIAN_POINT('Ctrl Pts',(4.85040034982906,20.5000003278255,-3.00000010430812));
#1186=CARTESIAN_POINT('Ctrl Pts',(5.,20.5000003278255,-3.00000010430812));
#1187=CARTESIAN_POINT('',(5.,20.5000003278255,-3.00000010430813));
#1188=CARTESIAN_POINT('',(5.,21.0000003278255,-2.50000010430813));
#1189=CARTESIAN_POINT('Origin',(5.,20.5000003278255,-2.50000010430813));
#1190=CARTESIAN_POINT('',(4.,22.0000003278255,-4.00000010430813));
#1191=CARTESIAN_POINT('Origin',(5.,22.0000003278255,-4.00000010430813));
#1192=CARTESIAN_POINT('Origin',(5.,22.0000003278255,-4.00000010430813));
#1193=CARTESIAN_POINT('Origin',(0.,20.5000003278255,-2.50000010430813));
#1194=CARTESIAN_POINT('',(44.5,20.5000003278255,-3.00000010430813));
#1195=CARTESIAN_POINT('',(0.,20.5000003278255,-3.00000010430813));
#1196=CARTESIAN_POINT('',(44.5,21.0000003278255,-2.50000010430813));
#1197=CARTESIAN_POINT('Origin',(44.5,20.5000003278255,-2.50000010430813));
#1198=CARTESIAN_POINT('',(0.,21.0000003278255,-2.50000010430813));
#1199=CARTESIAN_POINT('Ctrl Pts',(44.5,21.0000003278255,-2.50000010430813));
#1200=CARTESIAN_POINT('Ctrl Pts',(44.7243994752564,21.0000003278255,-2.50000010430813));
#1201=CARTESIAN_POINT('Ctrl Pts',(45.2489080012443,21.1827557860023,-2.77413329157331));
#1202=CARTESIAN_POINT('Ctrl Pts',(45.5,21.7008010274837,-3.5512011537953));
#1203=CARTESIAN_POINT('Ctrl Pts',(45.5,22.0000003278255,-4.00000010430813));
#1204=CARTESIAN_POINT('Ctrl Pts',(44.5,21.0000003278255,-2.63089979820771));
#1205=CARTESIAN_POINT('Ctrl Pts',(44.694735484741,21.0000003278255,-2.63089979820771));
#1206=CARTESIAN_POINT('Ctrl Pts',(45.1891151492408,21.1248116995979,-2.84617345535387));
#1207=CARTESIAN_POINT('Ctrl Pts',(45.5,21.6758677524552,-3.57613442882379));
#1208=CARTESIAN_POINT('Ctrl Pts',(45.5,22.0000003278255,-4.00000010430813));
#1209=CARTESIAN_POINT('Ctrl Pts',(44.5,20.8915512116333,-2.89155098811589));
#1210=CARTESIAN_POINT('Ctrl Pts',(44.661063472354,20.8915512116333,-2.89155098811589));
#1211=CARTESIAN_POINT('Ctrl Pts',(45.1264838579402,20.9912868292228,-2.99128660570543));
#1212=CARTESIAN_POINT('Ctrl Pts',(45.5,21.6260012023982,-3.62600097888078));
#1213=CARTESIAN_POINT('Ctrl Pts',(45.5,22.0000003278255,-4.00000010430813));
#1214=CARTESIAN_POINT('Ctrl Pts',(44.5,20.6309000217251,-3.00000010430813));
#1215=CARTESIAN_POINT('Ctrl Pts',(44.694735484741,20.6309000217251,-3.00000010430813));
#1216=CARTESIAN_POINT('Ctrl Pts',(45.1891151492408,20.8461736788713,-3.1248114760805));
#1217=CARTESIAN_POINT('Ctrl Pts',(45.5,21.5761346523412,-3.67586752893776));
#1218=CARTESIAN_POINT('Ctrl Pts',(45.5,22.0000003278255,-4.00000010430813));
#1219=CARTESIAN_POINT('Ctrl Pts',(44.5,20.5000003278255,-3.00000010430813));
#1220=CARTESIAN_POINT('Ctrl Pts',(44.7243994752564,20.5000003278255,-3.00000010430813));
#1221=CARTESIAN_POINT('Ctrl Pts',(45.2489080012443,20.7741335150907,-3.18275556248491));
#1222=CARTESIAN_POINT('Ctrl Pts',(45.5,21.5512013773127,-3.70080080396625));
#1223=CARTESIAN_POINT('Ctrl Pts',(45.5,22.0000003278255,-4.00000010430813));
#1224=CARTESIAN_POINT('',(45.5,22.0000003278255,-4.00000010430813));
#1225=CARTESIAN_POINT('Origin',(44.5,22.0000003278255,-4.00000010430813));
#1226=CARTESIAN_POINT('Origin',(44.5,22.0000003278255,-4.00000010430813));
#1227=CARTESIAN_POINT('Origin',(0.,-30.0000004470348,-3.00000010430813));
#1228=CARTESIAN_POINT('',(5.,-28.5050004470348,-3.00000010430813));
#1229=CARTESIAN_POINT('',(5.,-2.50000022351742,-3.00000010430813));
#1230=CARTESIAN_POINT('',(44.5,-28.5050004470348,-3.00000010430813));
#1231=CARTESIAN_POINT('',(0.,-28.5050004470348,-3.00000010430813));
#1232=CARTESIAN_POINT('',(44.5,-31.2500002235174,-3.00000010430813));
#1233=CARTESIAN_POINT('Origin',(5.,-2.50000022351742,-4.00000010430813));
#1234=CARTESIAN_POINT('',(4.,-29.5050004470348,-4.00000010430813));
#1235=CARTESIAN_POINT('',(4.,-2.50000022351742,-4.00000010430813));
#1236=CARTESIAN_POINT('Origin',(5.,-29.5050004470348,-4.00000010430813));
#1237=CARTESIAN_POINT('Origin',(5.,22.0000003278255,-3.50000005215406));
#1238=CARTESIAN_POINT('',(5.,21.0000003278255,0.999999895691872));
#1239=CARTESIAN_POINT('',(5.,21.0000003278255,-3.50000005215406));
#1240=CARTESIAN_POINT('',(4.,22.0000003278255,1.99999989569187));
#1241=CARTESIAN_POINT('Origin',(5.,22.0000003278255,1.99999989569187));
#1242=CARTESIAN_POINT('',(4.,22.0000003278255,-3.50000005215406));
#1243=CARTESIAN_POINT('Ctrl Pts',(4.,24.,-5.));
#1244=CARTESIAN_POINT('Ctrl Pts',(4.,24.2243994752564,-5.11219973762821));
#1245=CARTESIAN_POINT('Ctrl Pts',(4.13100448708042,24.5970824104232,-5.2985412052116));
#1246=CARTESIAN_POINT('Ctrl Pts',(4.55168309427459,24.931608167836,-5.46580408391798));
#1247=CARTESIAN_POINT('Ctrl Pts',(4.85040034982906,25.,-5.5));
#1248=CARTESIAN_POINT('Ctrl Pts',(5.,25.,-5.5));
#1249=CARTESIAN_POINT('Ctrl Pts',(4.,24.,-5.));
#1250=CARTESIAN_POINT('Ctrl Pts',(4.,24.205699518985,-5.13089969389957));
#1251=CARTESIAN_POINT('Ctrl Pts',(4.10484899332487,24.5480948077454,-5.34824616465707));
#1252=CARTESIAN_POINT('Ctrl Pts',(4.49770449095388,24.9096922997887,-5.57368159536893));
#1253=CARTESIAN_POINT('Ctrl Pts',(4.83062435615214,25.,-5.63089969389958));
#1254=CARTESIAN_POINT('Ctrl Pts',(5.,25.,-5.63089969389958));
#1255=CARTESIAN_POINT('Ctrl Pts',(4.,24.,-5.));
#1256=CARTESIAN_POINT('Ctrl Pts',(4.,24.1682996064423,-5.16829960644231));
#1257=CARTESIAN_POINT('Ctrl Pts',(4.07909889666767,24.4482612973627,-5.44826129736269));
#1258=CARTESIAN_POINT('Ctrl Pts',(4.43753783531309,24.7891899253803,-5.78918992538034));
#1259=CARTESIAN_POINT('Ctrl Pts',(4.80817634789414,24.8916231856754,-5.89162318567543));
#1260=CARTESIAN_POINT('Ctrl Pts',(5.,24.8916231856754,-5.89162318567543));
#1261=CARTESIAN_POINT('Ctrl Pts',(4.,24.,-5.));
#1262=CARTESIAN_POINT('Ctrl Pts',(4.,24.1308996938996,-5.20569951898505));
#1263=CARTESIAN_POINT('Ctrl Pts',(4.10484899332487,24.3482461646571,-5.54809480774539));
#1264=CARTESIAN_POINT('Ctrl Pts',(4.49770449095388,24.5736815953689,-5.90969229978873));
#1265=CARTESIAN_POINT('Ctrl Pts',(4.83062435615214,24.6308996938996,-6.));
#1266=CARTESIAN_POINT('Ctrl Pts',(5.,24.6308996938996,-6.));
#1267=CARTESIAN_POINT('Ctrl Pts',(4.,24.,-5.));
#1268=CARTESIAN_POINT('Ctrl Pts',(4.,24.1121997376282,-5.22439947525641));
#1269=CARTESIAN_POINT('Ctrl Pts',(4.13100448708042,24.2985412052116,-5.5970824104232));
#1270=CARTESIAN_POINT('Ctrl Pts',(4.55168309427459,24.465804083918,-5.93160816783596));
#1271=CARTESIAN_POINT('Ctrl Pts',(4.85040034982906,24.5,-6.));
#1272=CARTESIAN_POINT('Ctrl Pts',(5.,24.5,-6.));
#1273=CARTESIAN_POINT('',(5.,25.,-5.5));
#1274=CARTESIAN_POINT('',(5.,24.5,-6.));
#1275=CARTESIAN_POINT('Origin',(5.,24.5,-5.5));
#1276=CARTESIAN_POINT('',(4.,24.,-5.));
#1277=CARTESIAN_POINT('Origin',(5.,24.,-5.));
#1278=CARTESIAN_POINT('Origin',(5.,24.,-5.));
#1279=CARTESIAN_POINT('Origin',(10.25,24.5,-5.5));
#1280=CARTESIAN_POINT('',(44.5,25.,-5.5));
#1281=CARTESIAN_POINT('',(44.5,24.5,-6.));
#1282=CARTESIAN_POINT('Origin',(44.5,24.5,-5.5));
#1283=CARTESIAN_POINT('',(10.25,24.5,-6.));
#1284=CARTESIAN_POINT('',(10.25,25.,-5.5));
#1285=CARTESIAN_POINT('Ctrl Pts',(44.5,25.,-5.5));
#1286=CARTESIAN_POINT('Ctrl Pts',(44.7243994752564,25.,-5.5));
#1287=CARTESIAN_POINT('Ctrl Pts',(45.2488978497053,24.817232361408,-5.408616180704));
#1288=CARTESIAN_POINT('Ctrl Pts',(45.5,24.2991993003419,-5.14959965017094));
#1289=CARTESIAN_POINT('Ctrl Pts',(45.5,24.,-5.));
#1290=CARTESIAN_POINT('Ctrl Pts',(44.5,25.,-5.63089969389958));
#1291=CARTESIAN_POINT('Ctrl Pts',(44.7540634657718,25.,-5.63089969389958));
#1292=CARTESIAN_POINT('Ctrl Pts',(45.3086621559818,24.7592829370975,-5.48065576146998));
#1293=CARTESIAN_POINT('Ctrl Pts',(45.5,24.2742660253134,-5.17453292519943));
#1294=CARTESIAN_POINT('Ctrl Pts',(45.5,24.,-5.));
#1295=CARTESIAN_POINT('Ctrl Pts',(44.5,24.8915463090902,-5.89154630909025));
#1296=CARTESIAN_POINT('Ctrl Pts',(44.7877354781588,24.8915463090902,-5.89154630909025));
#1297=CARTESIAN_POINT('Ctrl Pts',(45.3712415900648,24.6257763828463,-5.62577638284629));
#1298=CARTESIAN_POINT('Ctrl Pts',(45.5,24.2243994752564,-5.22439947525641));
#1299=CARTESIAN_POINT('Ctrl Pts',(45.5,24.,-5.));
#1300=CARTESIAN_POINT('Ctrl Pts',(44.5,24.6308996938996,-6.));
#1301=CARTESIAN_POINT('Ctrl Pts',(44.7540634657718,24.6308996938996,-6.));
#1302=CARTESIAN_POINT('Ctrl Pts',(45.3086621559818,24.48065576147,-5.75928293709745));
#1303=CARTESIAN_POINT('Ctrl Pts',(45.5,24.1745329251994,-5.27426602531339));
#1304=CARTESIAN_POINT('Ctrl Pts',(45.5,24.,-5.));
#1305=CARTESIAN_POINT('Ctrl Pts',(44.5,24.5,-6.));
#1306=CARTESIAN_POINT('Ctrl Pts',(44.7243994752564,24.5,-6.));
#1307=CARTESIAN_POINT('Ctrl Pts',(45.2488978497053,24.408616180704,-5.817232361408));
#1308=CARTESIAN_POINT('Ctrl Pts',(45.5,24.1495996501709,-5.29919930034188));
#1309=CARTESIAN_POINT('Ctrl Pts',(45.5,24.,-5.));
#1310=CARTESIAN_POINT('',(45.5,24.,-5.));
#1311=CARTESIAN_POINT('Origin',(44.5,24.,-5.));
#1312=CARTESIAN_POINT('Origin',(44.5,24.,-5.));
#1313=CARTESIAN_POINT('Origin',(10.25,25.,17.25));
#1314=CARTESIAN_POINT('',(5.,25.,35.));
#1315=CARTESIAN_POINT('',(5.,25.,8.625));
#1316=CARTESIAN_POINT('',(44.5,25.,35.));
#1317=CARTESIAN_POINT('',(10.25,25.,35.));
#1318=CARTESIAN_POINT('',(44.5,25.,8.625));
#1319=CARTESIAN_POINT('Origin',(5.,24.,8.625));
#1320=CARTESIAN_POINT('',(4.,24.,35.));
#1321=CARTESIAN_POINT('',(4.,24.,8.625));
#1322=CARTESIAN_POINT('Origin',(5.,24.,35.));
#1323=CARTESIAN_POINT('Origin',(5.,10.625,-5.));
#1324=CARTESIAN_POINT('',(5.,-32.,-6.));
#1325=CARTESIAN_POINT('',(5.,10.625,-6.));
#1326=CARTESIAN_POINT('',(4.,-31.5,-5.));
#1327=CARTESIAN_POINT('Origin',(5.,-31.5,-5.));
#1328=CARTESIAN_POINT('',(4.,10.625,-5.));
#1329=CARTESIAN_POINT('Ctrl Pts',(44.5,-32.,-6.));
#1330=CARTESIAN_POINT('Ctrl Pts',(44.7243994752564,-32.,-6.));
#1331=CARTESIAN_POINT('Ctrl Pts',(45.2488807271717,-31.9086059083912,-5.81721181678247));
#1332=CARTESIAN_POINT('Ctrl Pts',(45.5,-31.6495996501709,-5.29919930034188));
#1333=CARTESIAN_POINT('Ctrl Pts',(45.5,-31.5,-5.));
#1334=CARTESIAN_POINT('Ctrl Pts',(44.5,-32.1308996938996,-6.));
#1335=CARTESIAN_POINT('Ctrl Pts',(44.7540634657718,-32.1308996938996,-6.));
#1336=CARTESIAN_POINT('Ctrl Pts',(45.3085968855601,-31.9806445057904,-5.75925338906107));
#1337=CARTESIAN_POINT('Ctrl Pts',(45.5,-31.6745329251994,-5.27426602531339));
#1338=CARTESIAN_POINT('Ctrl Pts',(45.5,-31.5,-5.));
#1339=CARTESIAN_POINT('Ctrl Pts',(44.5,-32.3915386888552,-5.89153868885517));
#1340=CARTESIAN_POINT('Ctrl Pts',(44.7877354781588,-32.3915386888552,-5.89153868885517));
#1341=CARTESIAN_POINT('Ctrl Pts',(45.3710890257345,-32.1257775771221,-5.62577757712203));
#1342=CARTESIAN_POINT('Ctrl Pts',(45.5,-31.7243994752564,-5.22439947525641));
#1343=CARTESIAN_POINT('Ctrl Pts',(45.5,-31.5,-5.));
#1344=CARTESIAN_POINT('Ctrl Pts',(44.5,-32.5,-5.63089969389958));
#1345=CARTESIAN_POINT('Ctrl Pts',(44.7540634657718,-32.5,-5.63089969389958));
#1346=CARTESIAN_POINT('Ctrl Pts',(45.3085968855601,-32.2592533890611,-5.4806445057904));
#1347=CARTESIAN_POINT('Ctrl Pts',(45.5,-31.7742660253134,-5.17453292519944));
#1348=CARTESIAN_POINT('Ctrl Pts',(45.5,-31.5,-5.));
#1349=CARTESIAN_POINT('Ctrl Pts',(44.5,-32.5,-5.5));
#1350=CARTESIAN_POINT('Ctrl Pts',(44.7243994752564,-32.5,-5.5));
#1351=CARTESIAN_POINT('Ctrl Pts',(45.2488807271717,-32.3172118167825,-5.40860590839122));
#1352=CARTESIAN_POINT('Ctrl Pts',(45.5,-31.7991993003419,-5.14959965017095));
#1353=CARTESIAN_POINT('Ctrl Pts',(45.5,-31.5,-5.));
#1354=CARTESIAN_POINT('',(44.5,-32.5,-5.5));
#1355=CARTESIAN_POINT('',(44.5,-32.,-6.));
#1356=CARTESIAN_POINT('Origin',(44.5,-32.,-5.5));
#1357=CARTESIAN_POINT('',(45.5,-31.5,-5.));
#1358=CARTESIAN_POINT('Origin',(44.5,-31.5,-5.));
#1359=CARTESIAN_POINT('Origin',(44.5,-31.5,-5.));
#1360=CARTESIAN_POINT('Origin',(-7.375,-32.,-5.5));
#1361=CARTESIAN_POINT('',(5.,-32.5,-5.5));
#1362=CARTESIAN_POINT('Origin',(5.,-32.,-5.5));
#1363=CARTESIAN_POINT('',(-7.375,-32.,-6.));
#1364=CARTESIAN_POINT('',(-7.375,-32.5,-5.5));
#1365=CARTESIAN_POINT('Ctrl Pts',(5.,-32.5,-5.5));
#1366=CARTESIAN_POINT('Ctrl Pts',(4.77560052474359,-32.5,-5.5));
#1367=CARTESIAN_POINT('Ctrl Pts',(4.25098692660324,-32.3173706135881,-5.40868530679404));
#1368=CARTESIAN_POINT('Ctrl Pts',(4.,-31.7991993003419,-5.14959965017094));
#1369=CARTESIAN_POINT('Ctrl Pts',(4.,-31.5,-5.));
#1370=CARTESIAN_POINT('Ctrl Pts',(5.,-32.5,-5.63089969389957));
#1371=CARTESIAN_POINT('Ctrl Pts',(4.7459365342282,-32.5,-5.63089969389957));
#1372=CARTESIAN_POINT('Ctrl Pts',(4.19089861585649,-32.2594817764698,-5.48073150498926));
#1373=CARTESIAN_POINT('Ctrl Pts',(4.,-31.7742660253134,-5.17453292519943));
#1374=CARTESIAN_POINT('Ctrl Pts',(4.,-31.5,-5.));
#1375=CARTESIAN_POINT('Ctrl Pts',(5.,-32.3916008798482,-5.89160087984824));
#1376=CARTESIAN_POINT('Ctrl Pts',(4.7122645218412,-32.3916008798482,-5.89160087984824));
#1377=CARTESIAN_POINT('Ctrl Pts',(4.12772580178748,-32.1257631513417,-5.62576315134167));
#1378=CARTESIAN_POINT('Ctrl Pts',(4.,-31.7243994752564,-5.22439947525641));
#1379=CARTESIAN_POINT('Ctrl Pts',(4.,-31.5,-5.));
#1380=CARTESIAN_POINT('Ctrl Pts',(5.,-32.1308996938996,-6.));
#1381=CARTESIAN_POINT('Ctrl Pts',(4.7459365342282,-32.1308996938996,-6.));
#1382=CARTESIAN_POINT('Ctrl Pts',(4.19089861585649,-31.9807315049892,-5.7594817764698));
#1383=CARTESIAN_POINT('Ctrl Pts',(4.,-31.6745329251994,-5.27426602531339));
#1384=CARTESIAN_POINT('Ctrl Pts',(4.,-31.5,-5.));
#1385=CARTESIAN_POINT('Ctrl Pts',(5.,-32.,-6.));
#1386=CARTESIAN_POINT('Ctrl Pts',(4.77560052474358,-32.,-6.));
#1387=CARTESIAN_POINT('Ctrl Pts',(4.25098692660324,-31.908685306794,-5.81737061358807));
#1388=CARTESIAN_POINT('Ctrl Pts',(4.,-31.6495996501709,-5.29919930034188));
#1389=CARTESIAN_POINT('Ctrl Pts',(4.,-31.5,-5.));
#1390=CARTESIAN_POINT('Origin',(5.,-31.5,-5.));
#1391=CARTESIAN_POINT('Origin',(5.,-31.5,0.));
#1392=CARTESIAN_POINT('',(5.,-32.5,35.));
#1393=CARTESIAN_POINT('',(5.,-32.5,0.));
#1394=CARTESIAN_POINT('',(4.,-31.5,35.));
#1395=CARTESIAN_POINT('Origin',(5.,-31.5,35.));
#1396=CARTESIAN_POINT('',(4.,-31.5,0.));
#1397=CARTESIAN_POINT('Origin',(-25.,-32.5,0.));
#1398=CARTESIAN_POINT('',(44.5,-32.5,35.));
#1399=CARTESIAN_POINT('',(44.5,-32.5,0.));
#1400=CARTESIAN_POINT('',(-7.375,-32.5,35.));
#1401=CARTESIAN_POINT('Origin',(44.5,-31.5,0.));
#1402=CARTESIAN_POINT('',(45.5,-31.5,35.));
#1403=CARTESIAN_POINT('',(45.5,-31.5,0.));
#1404=CARTESIAN_POINT('Origin',(44.5,-31.5,35.));
#1405=CARTESIAN_POINT('Origin',(5.,23.,0.));
#1406=CARTESIAN_POINT('',(4.,23.,34.));
#1407=CARTESIAN_POINT('',(4.,23.,2.));
#1408=CARTESIAN_POINT('',(4.,23.,0.));
#1409=CARTESIAN_POINT('',(5.,22.,3.));
#1410=CARTESIAN_POINT('Origin',(5.,23.,2.));
#1411=CARTESIAN_POINT('',(5.,22.,33.));
#1412=CARTESIAN_POINT('',(5.,22.,0.));
#1413=CARTESIAN_POINT('Origin',(5.,23.,34.));
#1414=CARTESIAN_POINT('Origin',(5.,10.625,2.));
#1415=CARTESIAN_POINT('',(5.,-29.5,3.));
#1416=CARTESIAN_POINT('',(5.,10.625,3.));
#1417=CARTESIAN_POINT('',(4.,10.625,2.));
#1418=CARTESIAN_POINT('',(4.,-29.5050004470348,1.99999989569187));
#1419=CARTESIAN_POINT('',(4.,23.5000001639128,1.99999989569187));
#1420=CARTESIAN_POINT('',(4.,-30.5,2.));
#1421=CARTESIAN_POINT('',(4.,10.625,2.));
#1422=CARTESIAN_POINT('Origin',(5.,-30.5,2.));
#1423=CARTESIAN_POINT('Origin',(5.,-30.5,0.));
#1424=CARTESIAN_POINT('',(5.,-29.5,33.));
#1425=CARTESIAN_POINT('',(5.,-29.5,0.));
#1426=CARTESIAN_POINT('',(4.,-30.5,34.));
#1427=CARTESIAN_POINT('',(4.,-30.5,0.));
#1428=CARTESIAN_POINT('Origin',(5.,-30.5,34.));
#1429=CARTESIAN_POINT('Origin',(5.,10.625,34.));
#1430=CARTESIAN_POINT('',(5.,10.625,33.));
#1431=CARTESIAN_POINT('',(4.,10.625,34.));
#1432=CARTESIAN_POINT('Origin',(10.25,-3.75,33.));
#1433=CARTESIAN_POINT('',(44.5,22.,33.));
#1434=CARTESIAN_POINT('',(27.875,22.,33.));
#1435=CARTESIAN_POINT('',(44.5,-29.5,33.));
#1436=CARTESIAN_POINT('',(44.5,-18.125,33.));
#1437=CARTESIAN_POINT('',(-7.375,-29.5,33.));
#1438=CARTESIAN_POINT('Origin',(45.5,22.,0.));
#1439=CARTESIAN_POINT('',(44.5,22.,3.));
#1440=CARTESIAN_POINT('',(27.875,22.,3.));
#1441=CARTESIAN_POINT('',(44.5,22.,0.));
#1442=CARTESIAN_POINT('Origin',(4.,25.,0.));
#1443=CARTESIAN_POINT('',(4.,10.625,35.));
#1444=CARTESIAN_POINT('',(4.,-29.5050004470348,-1.50000005215406));
#1445=CARTESIAN_POINT('Origin',(5.,-29.5050004470348,-1.50000005215406));
#1446=CARTESIAN_POINT('',(5.,-28.5050004470348,0.999999895691872));
#1447=CARTESIAN_POINT('Origin',(5.,-29.5050004470348,1.99999989569187));
#1448=CARTESIAN_POINT('',(5.,-28.5050004470348,-1.50000005215406));
#1449=CARTESIAN_POINT('Origin',(5.,23.5000001639128,1.99999989569187));
#1450=CARTESIAN_POINT('',(5.,23.5000001639128,0.999999895691872));
#1451=CARTESIAN_POINT('Origin',(0.,-28.5050004470348,-3.00000010430813));
#1452=CARTESIAN_POINT('',(44.5,-28.5050004470348,0.999999895691872));
#1453=CARTESIAN_POINT('',(-5.,-28.5050004470348,0.999999895691872));
#1454=CARTESIAN_POINT('',(44.5,-28.5050004470348,-1.50000005215406));
#1455=CARTESIAN_POINT('Origin',(5.,10.625,35.));
#1456=CARTESIAN_POINT('',(5.,-31.5,36.));
#1457=CARTESIAN_POINT('Origin',(5.,-31.5,35.));
#1458=CARTESIAN_POINT('',(5.,24.,36.));
#1459=CARTESIAN_POINT('',(5.,10.625,36.));
#1460=CARTESIAN_POINT('Origin',(5.,24.,35.));
#1461=CARTESIAN_POINT('Origin',(5.,24.,35.));
#1462=CARTESIAN_POINT('Origin',(5.,24.,35.));
#1463=CARTESIAN_POINT('Origin',(5.,-31.5,35.));
#1464=CARTESIAN_POINT('Origin',(5.,-31.5,35.));
#1465=CARTESIAN_POINT('Origin',(10.25,24.,35.));
#1466=CARTESIAN_POINT('',(44.5,24.,36.));
#1467=CARTESIAN_POINT('',(10.25,24.,36.));
#1468=CARTESIAN_POINT('Origin',(44.5,24.,35.));
#1469=CARTESIAN_POINT('Origin',(10.25,-3.75,36.));
#1470=CARTESIAN_POINT('',(44.5,-31.5,36.));
#1471=CARTESIAN_POINT('',(-7.375,-31.5,36.));
#1472=CARTESIAN_POINT('',(44.5,-18.125,36.));
#1473=CARTESIAN_POINT('Origin',(44.5,22.0000003278255,-3.50000005215406));
#1474=CARTESIAN_POINT('',(45.5,22.0000003278255,1.99999989569187));
#1475=CARTESIAN_POINT('',(45.5,22.0000003278255,-3.50000005215406));
#1476=CARTESIAN_POINT('',(44.5,21.0000003278255,0.999999895691872));
#1477=CARTESIAN_POINT('Origin',(44.5,22.0000003278255,1.99999989569187));
#1478=CARTESIAN_POINT('',(44.5,21.0000003278255,-3.50000005215406));
#1479=CARTESIAN_POINT('Origin',(44.5,-29.5050004470348,-1.50000005215406));
#1480=CARTESIAN_POINT('',(45.5,-29.5050004470348,2.));
#1481=CARTESIAN_POINT('',(45.5,-29.5050004470348,-4.00000010430813));
#1482=CARTESIAN_POINT('',(45.5,-29.5050004470348,-1.50000005215406));
#1483=CARTESIAN_POINT('Origin',(44.5,-29.5050004470348,-4.00000010430813));
#1484=CARTESIAN_POINT('Origin',(44.5,-29.5050004470348,1.99999989569187));
#1485=CARTESIAN_POINT('Origin',(44.5,-31.2500002235174,-4.00000010430813));
#1486=CARTESIAN_POINT('',(45.5,-31.2500002235174,-4.00000010430813));
#1487=CARTESIAN_POINT('Origin',(44.5,-5.24999983608723,1.99999989569187));
#1488=CARTESIAN_POINT('',(45.5,-18.125,2.));
#1489=CARTESIAN_POINT('',(44.5,-5.24999983608723,0.999999895691872));
#1490=CARTESIAN_POINT('Origin',(45.5,-32.5,0.));
#1491=CARTESIAN_POINT('',(45.5,-18.125,-5.));
#1492=CARTESIAN_POINT('',(45.5,24.,35.));
#1493=CARTESIAN_POINT('',(45.5,24.,8.625));
#1494=CARTESIAN_POINT('',(45.5,-18.125,35.));
#1495=CARTESIAN_POINT('',(45.5,-30.5,2.));
#1496=CARTESIAN_POINT('',(45.5,-18.125,2.));
#1497=CARTESIAN_POINT('',(45.5,-30.5,34.));
#1498=CARTESIAN_POINT('',(45.5,-30.5,0.));
#1499=CARTESIAN_POINT('',(45.5,23.,34.));
#1500=CARTESIAN_POINT('',(45.5,-18.125,34.));
#1501=CARTESIAN_POINT('',(45.5,23.,2.));
#1502=CARTESIAN_POINT('',(45.5,23.,0.));
#1503=CARTESIAN_POINT('',(45.5,-18.125,2.));
#1504=CARTESIAN_POINT('Origin',(0.,22.0000003278255,0.999999895691872));
#1505=CARTESIAN_POINT('',(0.,21.0000003278255,0.999999895691872));
#1506=CARTESIAN_POINT('Origin',(44.5,-18.125,-5.));
#1507=CARTESIAN_POINT('',(44.5,-18.125,-6.));
#1508=CARTESIAN_POINT('Origin',(44.5,24.,8.625));
#1509=CARTESIAN_POINT('Origin',(44.5,24.,35.));
#1510=CARTESIAN_POINT('Origin',(44.5,-18.125,35.));
#1511=CARTESIAN_POINT('Origin',(44.5,24.,35.));
#1512=CARTESIAN_POINT('Origin',(44.5,-31.5,35.));
#1513=CARTESIAN_POINT('Origin',(44.5,-31.5,35.));
#1514=CARTESIAN_POINT('Origin',(44.5,-31.5,35.));
#1515=CARTESIAN_POINT('Origin',(44.5,24.,35.));
#1516=CARTESIAN_POINT('Origin',(-7.375,-31.5,35.));
#1517=CARTESIAN_POINT('Origin',(44.5,23.,0.));
#1518=CARTESIAN_POINT('Origin',(44.5,23.,34.));
#1519=CARTESIAN_POINT('Origin',(44.5,23.,2.));
#1520=CARTESIAN_POINT('Origin',(44.5,-30.5,0.));
#1521=CARTESIAN_POINT('',(44.5,-29.5,3.));
#1522=CARTESIAN_POINT('Origin',(44.5,-30.5,2.));
#1523=CARTESIAN_POINT('',(44.5,-29.5,0.));
#1524=CARTESIAN_POINT('Origin',(44.5,-30.5,34.));
#1525=CARTESIAN_POINT('Origin',(44.5,-18.125,2.));
#1526=CARTESIAN_POINT('',(44.5,-18.125,3.));
#1527=CARTESIAN_POINT('Origin',(44.5,-18.125,34.));
#1528=CARTESIAN_POINT('Origin',(-25.,-29.5,0.));
#1529=CARTESIAN_POINT('',(-7.375,-29.5,3.));
#1530=CARTESIAN_POINT('Origin',(10.25,-3.75,-6.));
#1531=CARTESIAN_POINT('Origin',(0.,21.0000003278255,-7.00000010430813));
#1532=CARTESIAN_POINT('Origin',(10.25,-3.75,3.));
#1533=UNCERTAINTY_MEASURE_WITH_UNIT(LENGTH_MEASURE(0.01),#1537,
'DISTANCE_ACCURACY_VALUE',
'Maximum model space distance between geometric entities at asserted c
onnectivities');
#1534=UNCERTAINTY_MEASURE_WITH_UNIT(LENGTH_MEASURE(0.01),#1537,
'DISTANCE_ACCURACY_VALUE',
'Maximum model space distance between geometric entities at asserted c
onnectivities');
#1535=(
GEOMETRIC_REPRESENTATION_CONTEXT(3)
GLOBAL_UNCERTAINTY_ASSIGNED_CONTEXT((#1533))
GLOBAL_UNIT_ASSIGNED_CONTEXT((#1537,#1539,#1540))
REPRESENTATION_CONTEXT('','3D')
);
#1536=(
GEOMETRIC_REPRESENTATION_CONTEXT(3)
GLOBAL_UNCERTAINTY_ASSIGNED_CONTEXT((#1534))
GLOBAL_UNIT_ASSIGNED_CONTEXT((#1537,#1539,#1540))
REPRESENTATION_CONTEXT('','3D')
);
#1537=(
LENGTH_UNIT()
NAMED_UNIT(*)
SI_UNIT(.MILLI.,.METRE.)
);
#1538=(
LENGTH_UNIT()
NAMED_UNIT(*)
SI_UNIT($,.METRE.)
);
#1539=(
NAMED_UNIT(*)
PLANE_ANGLE_UNIT()
SI_UNIT($,.RADIAN.)
);
#1540=(
NAMED_UNIT(*)
SI_UNIT($,.STERADIAN.)
SOLID_ANGLE_UNIT()
);
#1541=SHAPE_DEFINITION_REPRESENTATION(#1542,#1543);
#1542=PRODUCT_DEFINITION_SHAPE('',$,#1545);
#1543=SHAPE_REPRESENTATION('',(#813),#1535);
#1544=PRODUCT_DEFINITION_CONTEXT('part definition',#1549,'design');
#1545=PRODUCT_DEFINITION('(Unsaved)','(Unsaved)',#1546,#1544);
#1546=PRODUCT_DEFINITION_FORMATION('',$,#1551);
#1547=PRODUCT_RELATED_PRODUCT_CATEGORY('(Unsaved)','(Unsaved)',(#1551));
#1548=APPLICATION_PROTOCOL_DEFINITION('international standard',
'automotive_design',2009,#1549);
#1549=APPLICATION_CONTEXT(
'Core Data for Automotive Mechanical Design Process');
#1550=PRODUCT_CONTEXT('part definition',#1549,'mechanical');
#1551=PRODUCT('(Unsaved)','(Unsaved)',$,(#1550));
#1552=PRESENTATION_STYLE_ASSIGNMENT((#1553));
#1553=SURFACE_STYLE_USAGE(.BOTH.,#1554);
#1554=SURFACE_SIDE_STYLE('',(#1555));
#1555=SURFACE_STYLE_FILL_AREA(#1556);
#1556=FILL_AREA_STYLE('Steel - Satin',(#1557));
#1557=FILL_AREA_STYLE_COLOUR('Steel - Satin',#1558);
#1558=COLOUR_RGB('Steel - Satin',0.627450980392157,0.627450980392157,0.627450980392157);
ENDSEC;
END-ISO-10303-21;
