ISO-10303-21;
HEADER;
/* Generated by software containing ST-Developer
 * from STEP Tools, Inc. (www.steptools.com) 
 */

FILE_DESCRIPTION(
/* description */ (''),
/* implementation_level */ '2;1');

FILE_NAME(
/* name */ 'hip joint3.step',
/* time_stamp */ '2026-07-02T14:46:48+05:30',
/* author */ (''),
/* organization */ (''),
/* preprocessor_version */ 'ST-DEVELOPER v20.1',
/* originating_system */ 'Autodesk Translation Framework v15.8.0.0',
/* authorisation */ '');

FILE_SCHEMA (('AUTOMOTIVE_DESIGN { 1 0 10303 214 3 1 1 }'));
ENDSEC;

DATA;
#10=MECHANICAL_DESIGN_GEOMETRIC_PRESENTATION_REPRESENTATION('',(#13,#14),
#1004);
#11=SHAPE_REPRESENTATION_RELATIONSHIP('SRR','None',#1011,#12);
#12=ADVANCED_BREP_SHAPE_REPRESENTATION('',(#15,#16),#1003);
#13=STYLED_ITEM('',(#1020),#15);
#14=STYLED_ITEM('',(#1020),#16);
#15=MANIFOLD_SOLID_BREP('Body1',#442);
#16=MANIFOLD_SOLID_BREP('Body2',#443);
#17=FACE_BOUND('',#86,.T.);
#18=B_SPLINE_SURFACE_WITH_KNOTS('',3,3,((#730,#731,#732,#733,#734,#735),
(#736,#737,#738,#739,#740,#741),(#742,#743,#744,#745,#746,#747),(#748,#749,
#750,#751,#752,#753),(#754,#755,#756,#757,#758,#759),(#760,#761,#762,#763,
#764,#765),(#766,#767,#768,#769,#770,#771)),.UNSPECIFIED.,.F.,.F.,.F.,(4,
1,1,1,4),(4,1,1,4),(0.,0.285714285714286,0.571428571428571,0.785714285714286,
1.),(-3.43125539962922E-16,0.326776515968313,0.49016477395247,1.1437178058891),
 .UNSPECIFIED.);
#19=B_SPLINE_SURFACE_WITH_KNOTS('',3,3,((#828,#829,#830,#831,#832),(#833,
#834,#835,#836,#837),(#838,#839,#840,#841,#842),(#843,#844,#845,#846,#847),
(#848,#849,#850,#851,#852)),.UNSPECIFIED.,.F.,.F.,.F.,(4,1,4),(4,1,4),(0.,
0.571428571428571,1.),(-1.57079632679489,-0.897597901025653,5.90237216622645E-16),
 .UNSPECIFIED.);
#20=B_SPLINE_SURFACE_WITH_KNOTS('',3,3,((#875,#876,#877,#878,#879),(#880,
#881,#882,#883,#884),(#885,#886,#887,#888,#889),(#890,#891,#892,#893,#894),
(#895,#896,#897,#898,#899),(#900,#901,#902,#903,#904)),.UNSPECIFIED.,.F.,
 .F.,.F.,(4,1,1,4),(4,1,4),(0.,0.285714285714286,0.571428571428571,1.),
(-1.5707963267949,-0.897597901025653,1.53163105104557E-14),
 .UNSPECIFIED.);
#21=B_SPLINE_SURFACE_WITH_KNOTS('',3,3,((#908,#909,#910,#911,#912,#913,
#914,#915,#916,#917),(#918,#919,#920,#921,#922,#923,#924,#925,#926,#927),
(#928,#929,#930,#931,#932,#933,#934,#935,#936,#937),(#938,#939,#940,#941,
#942,#943,#944,#945,#946,#947),(#948,#949,#950,#951,#952,#953,#954,#955,
#956,#957),(#958,#959,#960,#961,#962,#963,#964,#965,#966,#967),(#968,#969,
#970,#971,#972,#973,#974,#975,#976,#977)),.UNSPECIFIED.,.F.,.F.,.F.,(4,
1,1,1,4),(4,1,1,1,1,1,1,4),(0.,0.285714285714286,0.571428571428571,0.714285714285714,
1.),(-1.5707963267949,-1.12199737628207,-0.673198425769239,-0.224399475256411,
-0.112199737628203,-0.0560998688140999,-0.028049934407048,3.76087969833385E-15),
 .UNSPECIFIED.);
#22=ELLIPSE('',#468,3.53553390593274,2.5);
#23=ELLIPSE('',#470,5.59016994374947,5.);
#24=ELLIPSE('',#491,3.26145063438299,2.5);
#25=ELLIPSE('',#492,3.26145063438296,2.5);
#26=ELLIPSE('',#501,3.82525607955202,2.5);
#27=ELLIPSE('',#502,3.82525607955203,2.5);
#28=ELLIPSE('',#504,140.627925805646,2.5);
#29=ELLIPSE('',#505,140.627925805646,2.5);
#30=PLANE('',#467);
#31=PLANE('',#474);
#32=PLANE('',#476);
#33=PLANE('',#508);
#34=PLANE('',#510);
#35=PLANE('',#512);
#36=PLANE('',#513);
#37=PLANE('',#514);
#38=SPHERICAL_SURFACE('',#464,2.5);
#39=SPHERICAL_SURFACE('',#478,19.);
#40=SPHERICAL_SURFACE('',#480,0.0800000000000001);
#41=SPHERICAL_SURFACE('',#484,0.0799999999999895);
#42=SPHERICAL_SURFACE('',#493,0.0800000000000001);
#43=(
BOUNDED_SURFACE()
B_SPLINE_SURFACE(2,2,((#684,#685,#686),(#687,#688,#689),(#690,#691,#692)),
 .UNSPECIFIED.,.F.,.F.,.F.)
B_SPLINE_SURFACE_WITH_KNOTS((3,3),(3,3),(-1.5707963267949,0.),(-2.71451413268399,
-1.5707963267949),.UNSPECIFIED.)
GEOMETRIC_REPRESENTATION_ITEM()
RATIONAL_B_SPLINE_SURFACE(((1.,0.840896397533147,1.),(0.707106781186548,
0.594603544971028,0.707106781186548),(1.,0.840896397533147,1.)))
REPRESENTATION_ITEM('')
SURFACE()
);
#44=FACE_OUTER_BOUND('',#75,.T.);
#45=FACE_OUTER_BOUND('',#76,.T.);
#46=FACE_OUTER_BOUND('',#77,.T.);
#47=FACE_OUTER_BOUND('',#78,.T.);
#48=FACE_OUTER_BOUND('',#79,.T.);
#49=FACE_OUTER_BOUND('',#80,.T.);
#50=FACE_OUTER_BOUND('',#81,.T.);
#51=FACE_OUTER_BOUND('',#82,.T.);
#52=FACE_OUTER_BOUND('',#83,.T.);
#53=FACE_OUTER_BOUND('',#84,.T.);
#54=FACE_OUTER_BOUND('',#85,.T.);
#55=FACE_OUTER_BOUND('',#87,.T.);
#56=FACE_OUTER_BOUND('',#88,.T.);
#57=FACE_OUTER_BOUND('',#89,.T.);
#58=FACE_OUTER_BOUND('',#90,.T.);
#59=FACE_OUTER_BOUND('',#91,.T.);
#60=FACE_OUTER_BOUND('',#92,.T.);
#61=FACE_OUTER_BOUND('',#93,.T.);
#62=FACE_OUTER_BOUND('',#94,.T.);
#63=FACE_OUTER_BOUND('',#95,.T.);
#64=FACE_OUTER_BOUND('',#96,.T.);
#65=FACE_OUTER_BOUND('',#97,.T.);
#66=FACE_OUTER_BOUND('',#98,.T.);
#67=FACE_OUTER_BOUND('',#99,.T.);
#68=FACE_OUTER_BOUND('',#100,.T.);
#69=FACE_OUTER_BOUND('',#101,.T.);
#70=FACE_OUTER_BOUND('',#102,.T.);
#71=FACE_OUTER_BOUND('',#103,.T.);
#72=FACE_OUTER_BOUND('',#104,.T.);
#73=FACE_OUTER_BOUND('',#105,.T.);
#74=FACE_OUTER_BOUND('',#106,.T.);
#75=EDGE_LOOP('',(#278,#279,#280,#281));
#76=EDGE_LOOP('',(#282,#283,#284,#285));
#77=EDGE_LOOP('',(#286,#287,#288,#289));
#78=EDGE_LOOP('',(#290,#291,#292,#293,#294));
#79=EDGE_LOOP('',(#295,#296,#297,#298));
#80=EDGE_LOOP('',(#299,#300,#301,#302));
#81=EDGE_LOOP('',(#303,#304,#305));
#82=EDGE_LOOP('',(#306,#307,#308,#309));
#83=EDGE_LOOP('',(#310,#311,#312,#313));
#84=EDGE_LOOP('',(#314,#315,#316,#317));
#85=EDGE_LOOP('',(#318,#319));
#86=EDGE_LOOP('',(#320,#321,#322,#323,#324,#325));
#87=EDGE_LOOP('',(#326,#327,#328));
#88=EDGE_LOOP('',(#329,#330,#331));
#89=EDGE_LOOP('',(#332,#333,#334,#335));
#90=EDGE_LOOP('',(#336,#337,#338,#339));
#91=EDGE_LOOP('',(#340,#341,#342));
#92=EDGE_LOOP('',(#343,#344,#345));
#93=EDGE_LOOP('',(#346,#347,#348,#349));
#94=EDGE_LOOP('',(#350,#351,#352,#353));
#95=EDGE_LOOP('',(#354,#355,#356,#357));
#96=EDGE_LOOP('',(#358,#359,#360));
#97=EDGE_LOOP('',(#361,#362,#363));
#98=EDGE_LOOP('',(#364,#365,#366,#367));
#99=EDGE_LOOP('',(#368,#369,#370,#371));
#100=EDGE_LOOP('',(#372,#373,#374,#375));
#101=EDGE_LOOP('',(#376,#377,#378,#379));
#102=EDGE_LOOP('',(#380,#381,#382));
#103=EDGE_LOOP('',(#383,#384,#385,#386));
#104=EDGE_LOOP('',(#387,#388,#389,#390));
#105=EDGE_LOOP('',(#391,#392,#393,#394));
#106=EDGE_LOOP('',(#395,#396,#397));
#107=B_SPLINE_CURVE_WITH_KNOTS('',3,(#666,#667,#668,#669,#670,#671,#672,
#673,#674,#675,#676,#677,#678,#679,#680,#681,#682),.UNSPECIFIED.,.F.,.F.,
(4,2,2,2,3,2,2,4),(-0.290417168369468,-0.290245447589784,-0.19436133807043,
-0.0971806690352148,0.,0.0952223259174958,0.190444651834992,0.284809248043515),
 .UNSPECIFIED.);
#108=B_SPLINE_CURVE_WITH_KNOTS('',3,(#703,#704,#705,#706,#707,#708,#709,
#710,#711,#712,#713,#714,#715,#716,#717),.UNSPECIFIED.,.F.,.F.,(4,2,2,3,
2,2,4),(-0.189027890922376,-0.188162275806479,-0.0940811379032396,0.,0.0940811379032395,
0.188162275806479,0.189027890921823),.UNSPECIFIED.);
#109=B_SPLINE_CURVE_WITH_KNOTS('',3,(#780,#781,#782,#783,#784,#785,#786,
#787,#788,#789,#790,#791,#792,#793,#794,#795,#796),.UNSPECIFIED.,.F.,.F.,
(4,2,2,3,2,2,2,4),(-0.284826931147223,-0.191010987662264,-0.0955054938311319,
0.,0.0971806690352148,0.19436133807043,0.290245447589784,0.290417168369468),
 .UNSPECIFIED.);
#110=LINE('',#664,#135);
#111=LINE('',#683,#136);
#112=LINE('',#718,#137);
#113=LINE('',#719,#138);
#114=LINE('',#728,#139);
#115=LINE('',#776,#140);
#116=LINE('',#779,#141);
#117=LINE('',#820,#142);
#118=LINE('',#821,#143);
#119=LINE('',#826,#144);
#120=LINE('',#827,#145);
#121=LINE('',#864,#146);
#122=LINE('',#865,#147);
#123=LINE('',#867,#148);
#124=LINE('',#868,#149);
#125=LINE('',#873,#150);
#126=LINE('',#874,#151);
#127=LINE('',#985,#152);
#128=LINE('',#986,#153);
#129=LINE('',#988,#154);
#130=LINE('',#989,#155);
#131=LINE('',#991,#156);
#132=LINE('',#993,#157);
#133=LINE('',#996,#158);
#134=LINE('',#997,#159);
#135=VECTOR('',#521,10.);
#136=VECTOR('',#522,10.);
#137=VECTOR('',#533,10.);
#138=VECTOR('',#534,10.);
#139=VECTOR('',#545,10.);
#140=VECTOR('',#554,10.);
#141=VECTOR('',#557,10.);
#142=VECTOR('',#588,10.);
#143=VECTOR('',#589,10.);
#144=VECTOR('',#594,10.);
#145=VECTOR('',#595,10.);
#146=VECTOR('',#610,10.);
#147=VECTOR('',#611,10.);
#148=VECTOR('',#614,10.);
#149=VECTOR('',#615,10.);
#150=VECTOR('',#620,10.);
#151=VECTOR('',#621,10.);
#152=VECTOR('',#634,10.);
#153=VECTOR('',#635,10.);
#154=VECTOR('',#638,10.);
#155=VECTOR('',#639,10.);
#156=VECTOR('',#642,10.);
#157=VECTOR('',#645,10.);
#158=VECTOR('',#650,10.);
#159=VECTOR('',#651,10.);
#160=CIRCLE('',#458,2.5);
#161=CIRCLE('',#459,2.5);
#162=CIRCLE('',#460,2.5);
#163=CIRCLE('',#461,2.5);
#164=CIRCLE('',#462,5.);
#165=CIRCLE('',#465,2.5);
#166=CIRCLE('',#466,2.5);
#167=CIRCLE('',#469,17.6351920463);
#168=CIRCLE('',#471,2.5);
#169=CIRCLE('',#475,19.);
#170=CIRCLE('',#477,19.);
#171=CIRCLE('',#479,19.);
#172=CIRCLE('',#481,0.0800000000000003);
#173=CIRCLE('',#482,0.0800000000000001);
#174=CIRCLE('',#483,0.0800000000000159);
#175=CIRCLE('',#485,0.0800000000000001);
#176=CIRCLE('',#486,0.0799999999999895);
#177=CIRCLE('',#487,0.0799999999999996);
#178=CIRCLE('',#490,0.0799999999999946);
#179=CIRCLE('',#494,0.0800000000000633);
#180=CIRCLE('',#495,0.0800000000000001);
#181=CIRCLE('',#496,0.080000000000009);
#182=CIRCLE('',#500,0.0800000000000938);
#183=CIRCLE('',#503,0.0799999999999873);
#184=VERTEX_POINT('',#660);
#185=VERTEX_POINT('',#661);
#186=VERTEX_POINT('',#663);
#187=VERTEX_POINT('',#665);
#188=VERTEX_POINT('',#693);
#189=VERTEX_POINT('',#695);
#190=VERTEX_POINT('',#697);
#191=VERTEX_POINT('',#701);
#192=VERTEX_POINT('',#702);
#193=VERTEX_POINT('',#722);
#194=VERTEX_POINT('',#725);
#195=VERTEX_POINT('',#727);
#196=VERTEX_POINT('',#772);
#197=VERTEX_POINT('',#778);
#198=VERTEX_POINT('',#802);
#199=VERTEX_POINT('',#803);
#200=VERTEX_POINT('',#806);
#201=VERTEX_POINT('',#807);
#202=VERTEX_POINT('',#809);
#203=VERTEX_POINT('',#813);
#204=VERTEX_POINT('',#814);
#205=VERTEX_POINT('',#816);
#206=VERTEX_POINT('',#823);
#207=VERTEX_POINT('',#824);
#208=VERTEX_POINT('',#853);
#209=VERTEX_POINT('',#857);
#210=VERTEX_POINT('',#858);
#211=VERTEX_POINT('',#860);
#212=VERTEX_POINT('',#870);
#213=VERTEX_POINT('',#871);
#214=VERTEX_POINT('',#905);
#215=VERTEX_POINT('',#978);
#216=VERTEX_POINT('',#979);
#217=VERTEX_POINT('',#981);
#218=EDGE_CURVE('',#184,#185,#160,.T.);
#219=EDGE_CURVE('',#185,#186,#110,.T.);
#220=EDGE_CURVE('',#186,#187,#107,.F.);
#221=EDGE_CURVE('',#187,#184,#111,.T.);
#222=EDGE_CURVE('',#188,#184,#161,.T.);
#223=EDGE_CURVE('',#184,#189,#162,.T.);
#224=EDGE_CURVE('',#189,#190,#163,.T.);
#225=EDGE_CURVE('',#190,#188,#164,.T.);
#226=EDGE_CURVE('',#191,#192,#108,.F.);
#227=EDGE_CURVE('',#192,#190,#112,.T.);
#228=EDGE_CURVE('',#189,#191,#113,.T.);
#229=EDGE_CURVE('',#188,#185,#165,.T.);
#230=EDGE_CURVE('',#193,#184,#166,.T.);
#231=EDGE_CURVE('',#194,#185,#22,.T.);
#232=EDGE_CURVE('',#195,#194,#114,.T.);
#233=EDGE_CURVE('',#186,#195,#167,.T.);
#234=EDGE_CURVE('',#188,#196,#23,.T.);
#235=EDGE_CURVE('',#194,#196,#168,.T.);
#236=EDGE_CURVE('',#190,#196,#115,.T.);
#237=EDGE_CURVE('',#196,#197,#116,.T.);
#238=EDGE_CURVE('',#197,#195,#109,.F.);
#239=EDGE_CURVE('',#191,#187,#169,.T.);
#240=EDGE_CURVE('',#197,#192,#170,.T.);
#241=EDGE_CURVE('',#198,#199,#171,.T.);
#242=EDGE_CURVE('',#200,#201,#172,.F.);
#243=EDGE_CURVE('',#202,#200,#173,.F.);
#244=EDGE_CURVE('',#201,#202,#174,.F.);
#245=EDGE_CURVE('',#203,#204,#175,.F.);
#246=EDGE_CURVE('',#205,#203,#176,.F.);
#247=EDGE_CURVE('',#204,#205,#177,.F.);
#248=EDGE_CURVE('',#203,#202,#117,.T.);
#249=EDGE_CURVE('',#200,#205,#118,.T.);
#250=EDGE_CURVE('',#206,#207,#178,.T.);
#251=EDGE_CURVE('',#207,#204,#119,.T.);
#252=EDGE_CURVE('',#205,#206,#120,.T.);
#253=EDGE_CURVE('',#206,#208,#24,.T.);
#254=EDGE_CURVE('',#208,#207,#25,.T.);
#255=EDGE_CURVE('',#209,#210,#179,.F.);
#256=EDGE_CURVE('',#211,#209,#180,.F.);
#257=EDGE_CURVE('',#210,#211,#181,.F.);
#258=EDGE_CURVE('',#202,#211,#121,.T.);
#259=EDGE_CURVE('',#209,#201,#122,.T.);
#260=EDGE_CURVE('',#211,#203,#123,.T.);
#261=EDGE_CURVE('',#204,#210,#124,.T.);
#262=EDGE_CURVE('',#212,#213,#182,.T.);
#263=EDGE_CURVE('',#213,#209,#125,.T.);
#264=EDGE_CURVE('',#210,#212,#126,.T.);
#265=EDGE_CURVE('',#212,#214,#26,.T.);
#266=EDGE_CURVE('',#214,#213,#27,.T.);
#267=EDGE_CURVE('',#215,#216,#183,.T.);
#268=EDGE_CURVE('',#216,#217,#28,.T.);
#269=EDGE_CURVE('',#217,#215,#29,.T.);
#270=EDGE_CURVE('',#215,#200,#127,.T.);
#271=EDGE_CURVE('',#201,#216,#128,.T.);
#272=EDGE_CURVE('',#208,#214,#129,.T.);
#273=EDGE_CURVE('',#212,#207,#130,.T.);
#274=EDGE_CURVE('',#206,#215,#131,.T.);
#275=EDGE_CURVE('',#217,#208,#132,.T.);
#276=EDGE_CURVE('',#214,#217,#133,.T.);
#277=EDGE_CURVE('',#216,#213,#134,.T.);
#278=ORIENTED_EDGE('',*,*,#218,.T.);
#279=ORIENTED_EDGE('',*,*,#219,.T.);
#280=ORIENTED_EDGE('',*,*,#220,.T.);
#281=ORIENTED_EDGE('',*,*,#221,.T.);
#282=ORIENTED_EDGE('',*,*,#222,.T.);
#283=ORIENTED_EDGE('',*,*,#223,.T.);
#284=ORIENTED_EDGE('',*,*,#224,.T.);
#285=ORIENTED_EDGE('',*,*,#225,.T.);
#286=ORIENTED_EDGE('',*,*,#226,.T.);
#287=ORIENTED_EDGE('',*,*,#227,.T.);
#288=ORIENTED_EDGE('',*,*,#224,.F.);
#289=ORIENTED_EDGE('',*,*,#228,.T.);
#290=ORIENTED_EDGE('',*,*,#222,.F.);
#291=ORIENTED_EDGE('',*,*,#229,.T.);
#292=ORIENTED_EDGE('',*,*,#218,.F.);
#293=ORIENTED_EDGE('',*,*,#230,.F.);
#294=ORIENTED_EDGE('',*,*,#230,.T.);
#295=ORIENTED_EDGE('',*,*,#219,.F.);
#296=ORIENTED_EDGE('',*,*,#231,.F.);
#297=ORIENTED_EDGE('',*,*,#232,.F.);
#298=ORIENTED_EDGE('',*,*,#233,.F.);
#299=ORIENTED_EDGE('',*,*,#229,.F.);
#300=ORIENTED_EDGE('',*,*,#234,.T.);
#301=ORIENTED_EDGE('',*,*,#235,.F.);
#302=ORIENTED_EDGE('',*,*,#231,.T.);
#303=ORIENTED_EDGE('',*,*,#225,.F.);
#304=ORIENTED_EDGE('',*,*,#236,.T.);
#305=ORIENTED_EDGE('',*,*,#234,.F.);
#306=ORIENTED_EDGE('',*,*,#235,.T.);
#307=ORIENTED_EDGE('',*,*,#237,.T.);
#308=ORIENTED_EDGE('',*,*,#238,.T.);
#309=ORIENTED_EDGE('',*,*,#232,.T.);
#310=ORIENTED_EDGE('',*,*,#221,.F.);
#311=ORIENTED_EDGE('',*,*,#239,.F.);
#312=ORIENTED_EDGE('',*,*,#228,.F.);
#313=ORIENTED_EDGE('',*,*,#223,.F.);
#314=ORIENTED_EDGE('',*,*,#227,.F.);
#315=ORIENTED_EDGE('',*,*,#240,.F.);
#316=ORIENTED_EDGE('',*,*,#237,.F.);
#317=ORIENTED_EDGE('',*,*,#236,.F.);
#318=ORIENTED_EDGE('',*,*,#241,.T.);
#319=ORIENTED_EDGE('',*,*,#241,.F.);
#320=ORIENTED_EDGE('',*,*,#239,.T.);
#321=ORIENTED_EDGE('',*,*,#220,.F.);
#322=ORIENTED_EDGE('',*,*,#233,.T.);
#323=ORIENTED_EDGE('',*,*,#238,.F.);
#324=ORIENTED_EDGE('',*,*,#240,.T.);
#325=ORIENTED_EDGE('',*,*,#226,.F.);
#326=ORIENTED_EDGE('',*,*,#242,.F.);
#327=ORIENTED_EDGE('',*,*,#243,.F.);
#328=ORIENTED_EDGE('',*,*,#244,.F.);
#329=ORIENTED_EDGE('',*,*,#245,.F.);
#330=ORIENTED_EDGE('',*,*,#246,.F.);
#331=ORIENTED_EDGE('',*,*,#247,.F.);
#332=ORIENTED_EDGE('',*,*,#246,.T.);
#333=ORIENTED_EDGE('',*,*,#248,.T.);
#334=ORIENTED_EDGE('',*,*,#243,.T.);
#335=ORIENTED_EDGE('',*,*,#249,.T.);
#336=ORIENTED_EDGE('',*,*,#250,.T.);
#337=ORIENTED_EDGE('',*,*,#251,.T.);
#338=ORIENTED_EDGE('',*,*,#247,.T.);
#339=ORIENTED_EDGE('',*,*,#252,.T.);
#340=ORIENTED_EDGE('',*,*,#250,.F.);
#341=ORIENTED_EDGE('',*,*,#253,.T.);
#342=ORIENTED_EDGE('',*,*,#254,.T.);
#343=ORIENTED_EDGE('',*,*,#255,.F.);
#344=ORIENTED_EDGE('',*,*,#256,.F.);
#345=ORIENTED_EDGE('',*,*,#257,.F.);
#346=ORIENTED_EDGE('',*,*,#244,.T.);
#347=ORIENTED_EDGE('',*,*,#258,.T.);
#348=ORIENTED_EDGE('',*,*,#256,.T.);
#349=ORIENTED_EDGE('',*,*,#259,.T.);
#350=ORIENTED_EDGE('',*,*,#257,.T.);
#351=ORIENTED_EDGE('',*,*,#260,.T.);
#352=ORIENTED_EDGE('',*,*,#245,.T.);
#353=ORIENTED_EDGE('',*,*,#261,.T.);
#354=ORIENTED_EDGE('',*,*,#262,.T.);
#355=ORIENTED_EDGE('',*,*,#263,.T.);
#356=ORIENTED_EDGE('',*,*,#255,.T.);
#357=ORIENTED_EDGE('',*,*,#264,.T.);
#358=ORIENTED_EDGE('',*,*,#262,.F.);
#359=ORIENTED_EDGE('',*,*,#265,.T.);
#360=ORIENTED_EDGE('',*,*,#266,.T.);
#361=ORIENTED_EDGE('',*,*,#267,.T.);
#362=ORIENTED_EDGE('',*,*,#268,.T.);
#363=ORIENTED_EDGE('',*,*,#269,.T.);
#364=ORIENTED_EDGE('',*,*,#267,.F.);
#365=ORIENTED_EDGE('',*,*,#270,.T.);
#366=ORIENTED_EDGE('',*,*,#242,.T.);
#367=ORIENTED_EDGE('',*,*,#271,.T.);
#368=ORIENTED_EDGE('',*,*,#254,.F.);
#369=ORIENTED_EDGE('',*,*,#272,.T.);
#370=ORIENTED_EDGE('',*,*,#265,.F.);
#371=ORIENTED_EDGE('',*,*,#273,.T.);
#372=ORIENTED_EDGE('',*,*,#252,.F.);
#373=ORIENTED_EDGE('',*,*,#249,.F.);
#374=ORIENTED_EDGE('',*,*,#270,.F.);
#375=ORIENTED_EDGE('',*,*,#274,.F.);
#376=ORIENTED_EDGE('',*,*,#253,.F.);
#377=ORIENTED_EDGE('',*,*,#274,.T.);
#378=ORIENTED_EDGE('',*,*,#269,.F.);
#379=ORIENTED_EDGE('',*,*,#275,.T.);
#380=ORIENTED_EDGE('',*,*,#248,.F.);
#381=ORIENTED_EDGE('',*,*,#260,.F.);
#382=ORIENTED_EDGE('',*,*,#258,.F.);
#383=ORIENTED_EDGE('',*,*,#266,.F.);
#384=ORIENTED_EDGE('',*,*,#276,.T.);
#385=ORIENTED_EDGE('',*,*,#268,.F.);
#386=ORIENTED_EDGE('',*,*,#277,.T.);
#387=ORIENTED_EDGE('',*,*,#251,.F.);
#388=ORIENTED_EDGE('',*,*,#273,.F.);
#389=ORIENTED_EDGE('',*,*,#264,.F.);
#390=ORIENTED_EDGE('',*,*,#261,.F.);
#391=ORIENTED_EDGE('',*,*,#263,.F.);
#392=ORIENTED_EDGE('',*,*,#277,.F.);
#393=ORIENTED_EDGE('',*,*,#271,.F.);
#394=ORIENTED_EDGE('',*,*,#259,.F.);
#395=ORIENTED_EDGE('',*,*,#276,.F.);
#396=ORIENTED_EDGE('',*,*,#272,.F.);
#397=ORIENTED_EDGE('',*,*,#275,.F.);
#398=CYLINDRICAL_SURFACE('',#457,2.5);
#399=CYLINDRICAL_SURFACE('',#463,2.5);
#400=CYLINDRICAL_SURFACE('',#472,5.);
#401=CYLINDRICAL_SURFACE('',#473,2.5);
#402=CYLINDRICAL_SURFACE('',#488,0.08);
#403=CYLINDRICAL_SURFACE('',#489,0.08);
#404=CYLINDRICAL_SURFACE('',#497,0.08);
#405=CYLINDRICAL_SURFACE('',#498,0.08);
#406=CYLINDRICAL_SURFACE('',#499,0.08);
#407=CYLINDRICAL_SURFACE('',#506,0.08);
#408=CYLINDRICAL_SURFACE('',#507,2.5);
#409=CYLINDRICAL_SURFACE('',#509,2.5);
#410=CYLINDRICAL_SURFACE('',#511,2.5);
#411=ADVANCED_FACE('',(#44),#398,.T.);
#412=ADVANCED_FACE('',(#45),#43,.F.);
#413=ADVANCED_FACE('',(#46),#399,.T.);
#414=ADVANCED_FACE('',(#47),#38,.T.);
#415=ADVANCED_FACE('',(#48),#30,.T.);
#416=ADVANCED_FACE('',(#49),#18,.F.);
#417=ADVANCED_FACE('',(#50),#400,.T.);
#418=ADVANCED_FACE('',(#51),#401,.T.);
#419=ADVANCED_FACE('',(#52),#31,.T.);
#420=ADVANCED_FACE('',(#53),#32,.T.);
#421=ADVANCED_FACE('',(#54,#17),#39,.T.);
#422=ADVANCED_FACE('',(#55),#40,.T.);
#423=ADVANCED_FACE('',(#56),#41,.T.);
#424=ADVANCED_FACE('',(#57),#402,.T.);
#425=ADVANCED_FACE('',(#58),#403,.T.);
#426=ADVANCED_FACE('',(#59),#19,.F.);
#427=ADVANCED_FACE('',(#60),#42,.T.);
#428=ADVANCED_FACE('',(#61),#404,.T.);
#429=ADVANCED_FACE('',(#62),#405,.T.);
#430=ADVANCED_FACE('',(#63),#406,.T.);
#431=ADVANCED_FACE('',(#64),#20,.F.);
#432=ADVANCED_FACE('',(#65),#21,.F.);
#433=ADVANCED_FACE('',(#66),#407,.T.);
#434=ADVANCED_FACE('',(#67),#408,.T.);
#435=ADVANCED_FACE('',(#68),#33,.T.);
#436=ADVANCED_FACE('',(#69),#409,.T.);
#437=ADVANCED_FACE('',(#70),#34,.F.);
#438=ADVANCED_FACE('',(#71),#410,.T.);
#439=ADVANCED_FACE('',(#72),#35,.T.);
#440=ADVANCED_FACE('',(#73),#36,.T.);
#441=ADVANCED_FACE('',(#74),#37,.T.);
#442=CLOSED_SHELL('',(#411,#412,#413,#414,#415,#416,#417,#418,#419,#420,
#421));
#443=CLOSED_SHELL('',(#422,#423,#424,#425,#426,#427,#428,#429,#430,#431,
#432,#433,#434,#435,#436,#437,#438,#439,#440,#441));
#444=DERIVED_UNIT_ELEMENT(#446,1.);
#445=DERIVED_UNIT_ELEMENT(#1006,-3.);
#446=(
MASS_UNIT()
NAMED_UNIT(*)
SI_UNIT(.KILO.,.GRAM.)
);
#447=DERIVED_UNIT((#444,#445));
#448=MEASURE_REPRESENTATION_ITEM('density measure',
POSITIVE_RATIO_MEASURE(7850.),#447);
#449=PROPERTY_DEFINITION_REPRESENTATION(#454,#451);
#450=PROPERTY_DEFINITION_REPRESENTATION(#455,#452);
#451=REPRESENTATION('material name',(#453),#1003);
#452=REPRESENTATION('density',(#448),#1003);
#453=DESCRIPTIVE_REPRESENTATION_ITEM('Steel','Steel');
#454=PROPERTY_DEFINITION('material property','material name',#1013);
#455=PROPERTY_DEFINITION('material property','density of part',#1013);
#456=AXIS2_PLACEMENT_3D('',#658,#515,#516);
#457=AXIS2_PLACEMENT_3D('',#659,#517,#518);
#458=AXIS2_PLACEMENT_3D('',#662,#519,#520);
#459=AXIS2_PLACEMENT_3D('',#694,#523,#524);
#460=AXIS2_PLACEMENT_3D('',#696,#525,#526);
#461=AXIS2_PLACEMENT_3D('',#698,#527,#528);
#462=AXIS2_PLACEMENT_3D('',#699,#529,#530);
#463=AXIS2_PLACEMENT_3D('',#700,#531,#532);
#464=AXIS2_PLACEMENT_3D('',#720,#535,#536);
#465=AXIS2_PLACEMENT_3D('',#721,#537,#538);
#466=AXIS2_PLACEMENT_3D('',#723,#539,#540);
#467=AXIS2_PLACEMENT_3D('',#724,#541,#542);
#468=AXIS2_PLACEMENT_3D('',#726,#543,#544);
#469=AXIS2_PLACEMENT_3D('',#729,#546,#547);
#470=AXIS2_PLACEMENT_3D('',#773,#548,#549);
#471=AXIS2_PLACEMENT_3D('',#774,#550,#551);
#472=AXIS2_PLACEMENT_3D('',#775,#552,#553);
#473=AXIS2_PLACEMENT_3D('',#777,#555,#556);
#474=AXIS2_PLACEMENT_3D('',#797,#558,#559);
#475=AXIS2_PLACEMENT_3D('',#798,#560,#561);
#476=AXIS2_PLACEMENT_3D('',#799,#562,#563);
#477=AXIS2_PLACEMENT_3D('',#800,#564,#565);
#478=AXIS2_PLACEMENT_3D('',#801,#566,#567);
#479=AXIS2_PLACEMENT_3D('',#804,#568,#569);
#480=AXIS2_PLACEMENT_3D('',#805,#570,#571);
#481=AXIS2_PLACEMENT_3D('',#808,#572,#573);
#482=AXIS2_PLACEMENT_3D('',#810,#574,#575);
#483=AXIS2_PLACEMENT_3D('',#811,#576,#577);
#484=AXIS2_PLACEMENT_3D('',#812,#578,#579);
#485=AXIS2_PLACEMENT_3D('',#815,#580,#581);
#486=AXIS2_PLACEMENT_3D('',#817,#582,#583);
#487=AXIS2_PLACEMENT_3D('',#818,#584,#585);
#488=AXIS2_PLACEMENT_3D('',#819,#586,#587);
#489=AXIS2_PLACEMENT_3D('',#822,#590,#591);
#490=AXIS2_PLACEMENT_3D('',#825,#592,#593);
#491=AXIS2_PLACEMENT_3D('',#854,#596,#597);
#492=AXIS2_PLACEMENT_3D('',#855,#598,#599);
#493=AXIS2_PLACEMENT_3D('',#856,#600,#601);
#494=AXIS2_PLACEMENT_3D('',#859,#602,#603);
#495=AXIS2_PLACEMENT_3D('',#861,#604,#605);
#496=AXIS2_PLACEMENT_3D('',#862,#606,#607);
#497=AXIS2_PLACEMENT_3D('',#863,#608,#609);
#498=AXIS2_PLACEMENT_3D('',#866,#612,#613);
#499=AXIS2_PLACEMENT_3D('',#869,#616,#617);
#500=AXIS2_PLACEMENT_3D('',#872,#618,#619);
#501=AXIS2_PLACEMENT_3D('',#906,#622,#623);
#502=AXIS2_PLACEMENT_3D('',#907,#624,#625);
#503=AXIS2_PLACEMENT_3D('',#980,#626,#627);
#504=AXIS2_PLACEMENT_3D('',#982,#628,#629);
#505=AXIS2_PLACEMENT_3D('',#983,#630,#631);
#506=AXIS2_PLACEMENT_3D('',#984,#632,#633);
#507=AXIS2_PLACEMENT_3D('',#987,#636,#637);
#508=AXIS2_PLACEMENT_3D('',#990,#640,#641);
#509=AXIS2_PLACEMENT_3D('',#992,#643,#644);
#510=AXIS2_PLACEMENT_3D('',#994,#646,#647);
#511=AXIS2_PLACEMENT_3D('',#995,#648,#649);
#512=AXIS2_PLACEMENT_3D('',#998,#652,#653);
#513=AXIS2_PLACEMENT_3D('',#999,#654,#655);
#514=AXIS2_PLACEMENT_3D('',#1000,#656,#657);
#515=DIRECTION('axis',(0.,0.,1.));
#516=DIRECTION('refdir',(1.,0.,0.));
#517=DIRECTION('center_axis',(0.,0.,1.));
#518=DIRECTION('ref_axis',(-0.38268343236509,0.923879532511287,0.));
#519=DIRECTION('center_axis',(0.,0.,-1.));
#520=DIRECTION('ref_axis',(-1.,0.,0.));
#521=DIRECTION('',(0.,0.,-1.));
#522=DIRECTION('',(0.,0.,1.));
#523=DIRECTION('center_axis',(0.,-0.910179748249922,-0.41421350276845));
#524=DIRECTION('ref_axis',(0.,-0.41421350276845,0.910179748249922));
#525=DIRECTION('center_axis',(1.,0.,0.));
#526=DIRECTION('ref_axis',(0.,-0.707106781186547,0.707106781186548));
#527=DIRECTION('center_axis',(0.,0.,1.));
#528=DIRECTION('ref_axis',(-1.,0.,0.));
#529=DIRECTION('center_axis',(-1.,0.,0.));
#530=DIRECTION('ref_axis',(0.,-0.707106781186547,0.707106781186548));
#531=DIRECTION('center_axis',(0.,0.,1.));
#532=DIRECTION('ref_axis',(-0.707106781186547,-0.707106781186547,0.));
#533=DIRECTION('',(0.,0.,1.));
#534=DIRECTION('',(0.,0.,-1.));
#535=DIRECTION('center_axis',(0.,0.,1.));
#536=DIRECTION('ref_axis',(1.,0.,0.));
#537=DIRECTION('center_axis',(-0.673113552152922,0.673113552152922,0.306327099382591));
#538=DIRECTION('ref_axis',(0.707106781186548,0.707106781186547,3.5527136788005E-15));
#539=DIRECTION('center_axis',(2.22044604925031E-16,-1.,0.));
#540=DIRECTION('ref_axis',(-1.,-2.22044604925031E-16,0.));
#541=DIRECTION('center_axis',(0.707106781186548,0.707106781186548,0.));
#542=DIRECTION('ref_axis',(-0.707106781186548,0.707106781186548,0.));
#543=DIRECTION('center_axis',(-0.707106781186548,-0.707106781186548,0.));
#544=DIRECTION('ref_axis',(0.707106781186547,-0.707106781186547,0.));
#545=DIRECTION('',(0.,0.,1.));
#546=DIRECTION('center_axis',(0.707106781186548,0.707106781186548,0.));
#547=DIRECTION('ref_axis',(0.,0.,-1.));
#548=DIRECTION('center_axis',(0.894427190999916,0.447213595499958,0.));
#549=DIRECTION('ref_axis',(0.447213595499958,-0.894427190999916,0.));
#550=DIRECTION('center_axis',(0.,0.,-1.));
#551=DIRECTION('ref_axis',(0.707106781186548,0.707106781186547,0.));
#552=DIRECTION('center_axis',(1.,0.,0.));
#553=DIRECTION('ref_axis',(0.,-0.707106781186547,0.707106781186547));
#554=DIRECTION('',(1.,0.,0.));
#555=DIRECTION('center_axis',(0.,0.,1.));
#556=DIRECTION('ref_axis',(0.923879532511287,-0.38268343236509,0.));
#557=DIRECTION('',(0.,0.,-1.));
#558=DIRECTION('center_axis',(-1.,0.,0.));
#559=DIRECTION('ref_axis',(0.,-1.,0.));
#560=DIRECTION('center_axis',(-1.,0.,0.));
#561=DIRECTION('ref_axis',(0.,0.,-1.));
#562=DIRECTION('center_axis',(0.,-1.,0.));
#563=DIRECTION('ref_axis',(1.,0.,0.));
#564=DIRECTION('center_axis',(0.,-1.,0.));
#565=DIRECTION('ref_axis',(0.,0.,1.));
#566=DIRECTION('center_axis',(0.0261802945775825,-0.980924572455417,0.192617692149473));
#567=DIRECTION('ref_axis',(0.132111016073042,0.194388742351913,0.971987498005499));
#568=DIRECTION('center_axis',(0.990889131844718,2.19122965386544E-17,-0.134680096495438));
#569=DIRECTION('ref_axis',(-0.132111016073042,-0.194388742351913,-0.971987498005499));
#570=DIRECTION('center_axis',(0.,0.,1.));
#571=DIRECTION('ref_axis',(1.,0.,0.));
#572=DIRECTION('center_axis',(0.,0.,-1.));
#573=DIRECTION('ref_axis',(0.578970995007919,-0.815348138490265,0.));
#574=DIRECTION('center_axis',(0.815348138491969,0.578970995005519,0.));
#575=DIRECTION('ref_axis',(0.,0.,-1.));
#576=DIRECTION('center_axis',(0.83478895303052,0.550570071742198,3.20233351176564E-12));
#577=DIRECTION('ref_axis',(-0.550570071742198,0.83478895303052,0.));
#578=DIRECTION('center_axis',(-0.996801114913562,0.0665710355144713,0.0442248181184606));
#579=DIRECTION('ref_axis',(-0.0799220702126695,-0.830284829274318,-0.551579155670189));
#580=DIRECTION('center_axis',(0.689938674361767,-0.723867823307493,0.));
#581=DIRECTION('ref_axis',(0.,0.,-1.));
#582=DIRECTION('center_axis',(-0.815348138490209,-0.578970995007998,-3.09601041137021E-13));
#583=DIRECTION('ref_axis',(0.578970995007998,-0.815348138490209,0.));
#584=DIRECTION('center_axis',(0.,0.,-1.));
#585=DIRECTION('ref_axis',(-0.723867823307415,-0.689938674361849,0.));
#586=DIRECTION('center_axis',(-0.815348138490182,-0.578970995008036,1.7754678064353E-16));
#587=DIRECTION('ref_axis',(0.409394316680441,-0.576538197754243,-0.707106781186578));
#588=DIRECTION('',(0.815348138490182,0.578970995008036,-1.7754678064353E-16));
#589=DIRECTION('',(-0.815348138490182,-0.578970995008036,1.7754678064353E-16));
#590=DIRECTION('center_axis',(-7.105427357601E-15,8.88178419700125E-15,
1.));
#591=DIRECTION('ref_axis',(-0.0958157405442197,-0.995399087735147,0.));
#592=DIRECTION('center_axis',(0.,0.,-1.));
#593=DIRECTION('ref_axis',(0.578970995008071,-0.815348138490157,0.));
#594=DIRECTION('',(7.105427357601E-15,-8.88178419700125E-15,-1.));
#595=DIRECTION('',(-7.105427357601E-15,8.88178419700125E-15,1.));
#596=DIRECTION('center_axis',(-0.99680891292407,0.0798247525215937,-7.9335367907622E-15));
#597=DIRECTION('ref_axis',(-0.0798247525215936,-0.99680891292407,8.16978565001172E-15));
#598=DIRECTION('center_axis',(0.993732748893102,-0.1117820369172,2.05869932229874E-14));
#599=DIRECTION('ref_axis',(-0.1117820369172,-0.993732748893102,8.16978565001179E-15));
#600=DIRECTION('center_axis',(0.610921952766748,-0.0694362710390801,-0.788639950732811));
#601=DIRECTION('ref_axis',(-0.783594882031293,0.0890619601524357,-0.614855290379916));
#602=DIRECTION('center_axis',(0.,0.,-1.));
#603=DIRECTION('ref_axis',(-0.550570071742149,0.834788953030552,0.));
#604=DIRECTION('center_axis',(-0.834788953030724,-0.550570071741888,0.));
#605=DIRECTION('ref_axis',(0.,0.,-1.));
#606=DIRECTION('center_axis',(-0.689938674361879,0.723867823307386,5.89556920338032E-13));
#607=DIRECTION('ref_axis',(-0.723867823307386,-0.689938674361879,0.));
#608=DIRECTION('center_axis',(0.834788953030565,0.550570071742129,1.76556066136769E-16));
#609=DIRECTION('ref_axis',(-0.38931183124731,0.590284929547557,-0.707106781186478));
#610=DIRECTION('',(-0.834788953030565,-0.550570071742129,-1.76556066136769E-16));
#611=DIRECTION('',(0.834788953030565,0.550570071742129,1.76556066136769E-16));
#612=DIRECTION('center_axis',(-0.689938674361836,0.723867823307427,-1.01551026321125E-14));
#613=DIRECTION('ref_axis',(-0.511851846543427,-0.487860315244169,-0.707106781186508));
#614=DIRECTION('',(0.689938674361836,-0.723867823307427,1.01551026321125E-14));
#615=DIRECTION('',(-0.689938674361836,0.723867823307427,-1.01551026321125E-14));
#616=DIRECTION('center_axis',(-7.105427357601E-15,8.88178419700125E-15,
1.));
#617=DIRECTION('ref_axis',(-0.993602823827537,0.112931078459137,0.));
#618=DIRECTION('center_axis',(-3.89166463437936E-14,4.0830452221512E-14,
-1.));
#619=DIRECTION('ref_axis',(-0.723867823307396,-0.689938674361869,0.));
#620=DIRECTION('',(7.105427357601E-15,-8.88178419700125E-15,-1.));
#621=DIRECTION('',(-7.105427357601E-15,8.88178419700125E-15,1.));
#622=DIRECTION('center_axis',(0.0969727416379738,0.995287037682705,-3.38641318432117E-15));
#623=DIRECTION('ref_axis',(-0.995287037682705,0.0969727416379738,-1.16093981844497E-14));
#624=DIRECTION('center_axis',(-0.128860334953216,-0.991662752187328,5.47870838082787E-15));
#625=DIRECTION('ref_axis',(-0.991662752187327,0.128860334953216,-1.16093981844496E-14));
#626=DIRECTION('center_axis',(-1.3152536663775E-12,-9.33949178230773E-13,
1.));
#627=DIRECTION('ref_axis',(0.578970995010234,-0.815348138488621,0.));
#628=DIRECTION('center_axis',(0.565323448555148,-0.824869322083029,0.));
#629=DIRECTION('ref_axis',(0.824869322083029,0.565323448555148,8.8421256337001E-16));
#630=DIRECTION('center_axis',(-0.564384723429501,0.825511892076308,1.65434631488496E-13));
#631=DIRECTION('ref_axis',(0.825511892076308,0.564384723429501,8.84212563370011E-16));
#632=DIRECTION('center_axis',(-7.10542735760099E-15,8.88178419700128E-15,
1.));
#633=DIRECTION('ref_axis',(0.825190740561539,0.564854177369255,0.));
#634=DIRECTION('',(7.10542735760098E-15,-8.88178419700127E-15,-1.));
#635=DIRECTION('',(-7.10542735760098E-15,8.88178419700127E-15,1.));
#636=DIRECTION('center_axis',(0.689938674361836,-0.723867823307427,1.13315469256472E-14));
#637=DIRECTION('ref_axis',(-0.511851846543432,-0.487860315244106,0.707106781186548));
#638=DIRECTION('',(-0.689938674361836,0.723867823307427,-1.13315469256472E-14));
#639=DIRECTION('',(0.689938674361836,-0.723867823307427,1.13315469256472E-14));
#640=DIRECTION('center_axis',(0.578970995008036,-0.815348138490182,1.13555825586841E-14));
#641=DIRECTION('ref_axis',(0.815348138490182,0.578970995008036,-1.77546780643529E-16));
#642=DIRECTION('',(0.815348138490182,0.578970995008036,6.51101535212729E-16));
#643=DIRECTION('center_axis',(0.815348138490182,0.578970995008036,6.51101535212729E-16));
#644=DIRECTION('ref_axis',(0.4093943166805,-0.57653819775423,0.707106781186556));
#645=DIRECTION('',(-0.815348138490182,-0.578970995008036,-6.51101535212729E-16));
#646=DIRECTION('center_axis',(-5.81108326271793E-15,8.4902400014768E-15,
1.));
#647=DIRECTION('ref_axis',(1.,-1.71905115110338E-45,5.81108326271793E-15));
#648=DIRECTION('center_axis',(-0.834788953030565,-0.550570071742129,-1.04148770214539E-15));
#649=DIRECTION('ref_axis',(-0.389311831247225,0.590284929547535,0.707106781186543));
#650=DIRECTION('',(0.834788953030565,0.550570071742129,1.04148770214539E-15));
#651=DIRECTION('',(-0.834788953030565,-0.550570071742129,-1.04148770214539E-15));
#652=DIRECTION('center_axis',(-0.723867823307427,-0.689938674361836,9.84496179831261E-16));
#653=DIRECTION('ref_axis',(0.689938674361836,-0.723867823307427,1.01551026321125E-14));
#654=DIRECTION('center_axis',(-0.550570071742129,0.834788953030565,-1.1326450980891E-14));
#655=DIRECTION('ref_axis',(-0.834788953030565,-0.550570071742129,-1.7655606613677E-16));
#656=DIRECTION('center_axis',(-7.105427357601E-15,8.88178419700125E-15,
1.));
#657=DIRECTION('ref_axis',(1.,-2.10194769648723E-45,7.105427357601E-15));
#658=CARTESIAN_POINT('',(0.,0.,0.));
#659=CARTESIAN_POINT('Origin',(2.5,3.96446624307887,0.));
#660=CARTESIAN_POINT('',(0.,3.96446624307887,37.2754493706248));
#661=CARTESIAN_POINT('',(4.26776695296637,5.73223319604524,37.2754493706248));
#662=CARTESIAN_POINT('Origin',(2.5,3.96446624307887,37.2754493706248));
#663=CARTESIAN_POINT('',(4.26776695296637,5.73223319604524,7.60476264598092));
#664=CARTESIAN_POINT('',(4.26776695296637,5.73223319604524,0.));
#665=CARTESIAN_POINT('',(0.,3.96446624307887,8.58179236261906));
#666=CARTESIAN_POINT('Ctrl Pts',(2.68882138776405E-16,3.96446624307887,
8.58179236261906));
#667=CARTESIAN_POINT('Ctrl Pts',(2.68786814596051E-16,3.96506131842821,
8.58166540198532));
#668=CARTESIAN_POINT('Ctrl Pts',(2.12339871983832E-7,3.96565638888966,8.58153841250759));
#669=CARTESIAN_POINT('Ctrl Pts',(0.000237976800258571,4.29851938953273,
8.51048792379627));
#670=CARTESIAN_POINT('Ctrl Pts',(0.0701122532945635,4.62908387073408,8.43010634005814));
#671=CARTESIAN_POINT('Ctrl Pts',(0.307583036738157,5.20623701621496,8.27307918922731));
#672=CARTESIAN_POINT('Ctrl Pts',(0.493036799766071,5.49211184172976,8.18549827262254));
#673=CARTESIAN_POINT('Ctrl Pts',(0.964562073980027,5.96547396555726,8.01669963015555));
#674=CARTESIAN_POINT('Ctrl Pts',(1.2506506808008,6.15294931165596,7.93549614290258));
#675=CARTESIAN_POINT('Ctrl Pts',(1.54329141908728,6.27416507435709,7.86765525231247));
#676=CARTESIAN_POINT('Ctrl Pts',(1.83003498686158,6.39293814905246,7.80118146222194));
#677=CARTESIAN_POINT('Ctrl Pts',(2.16158152469396,6.46379582740314,7.73866731425995));
#678=CARTESIAN_POINT('Ctrl Pts',(2.8284389664189,6.46512669968499,7.64413440899015));
#679=CARTESIAN_POINT('Ctrl Pts',(3.16375900835518,6.39550876040183,7.61217886334273));
#680=CARTESIAN_POINT('Ctrl Pts',(3.74701936525341,6.15391441018001,7.58374602194726));
#681=CARTESIAN_POINT('Ctrl Pts',(4.03245040757279,5.96754974143882,7.58518765118566));
#682=CARTESIAN_POINT('Ctrl Pts',(4.26776695296637,5.73223319604524,7.60476264598092));
#683=CARTESIAN_POINT('',(0.,3.96446624307887,0.));
#684=CARTESIAN_POINT('Ctrl Pts',(0.,3.96446624307887,37.2754493706248));
#685=CARTESIAN_POINT('Ctrl Pts',(0.,2.5,36.6089857480291));
#686=CARTESIAN_POINT('Ctrl Pts',(0.,2.5,35.));
#687=CARTESIAN_POINT('Ctrl Pts',(-1.73500008164667E-15,2.92893248615775,
39.5508987412496));
#688=CARTESIAN_POINT('Ctrl Pts',(-1.71459551809267E-15,-1.11022302462516E-15,
38.2179714960583));
#689=CARTESIAN_POINT('Ctrl Pts',(-1.66533453693773E-15,0.,35.));
#690=CARTESIAN_POINT('Ctrl Pts',(2.5,2.92893248615775,39.5508987412496));
#691=CARTESIAN_POINT('Ctrl Pts',(2.5,-1.11022302462516E-15,38.2179714960583));
#692=CARTESIAN_POINT('Ctrl Pts',(2.5,0.,35.));
#693=CARTESIAN_POINT('',(2.5,2.92893248615775,39.5508987412496));
#694=CARTESIAN_POINT('Origin',(2.5,3.96446624307887,37.2754493706248));
#695=CARTESIAN_POINT('',(0.,2.5,35.));
#696=CARTESIAN_POINT('Origin',(0.,5.,35.));
#697=CARTESIAN_POINT('',(2.5,0.,35.));
#698=CARTESIAN_POINT('Origin',(2.5,2.5,35.));
#699=CARTESIAN_POINT('Origin',(2.5,5.,35.));
#700=CARTESIAN_POINT('Origin',(2.5,2.5,0.));
#701=CARTESIAN_POINT('',(0.,2.5,8.83480820183736));
#702=CARTESIAN_POINT('',(2.5,0.,8.83480820183736));
#703=CARTESIAN_POINT('Ctrl Pts',(2.5,3.55618312575245E-16,8.83480820183736));
#704=CARTESIAN_POINT('Ctrl Pts',(2.49713631664066,3.55217885299675E-16,
8.83518830702992));
#705=CARTESIAN_POINT('Ctrl Pts',(2.49427423046728,4.92043403705287E-6,8.83556753561309));
#706=CARTESIAN_POINT('Ctrl Pts',(2.18051957502804,0.00108251376979711,8.87706758344829));
#707=CARTESIAN_POINT('Ctrl Pts',(1.84781857890655,0.0638346475910338,8.91275480465408));
#708=CARTESIAN_POINT('Ctrl Pts',(1.23454392826,0.318518067689225,8.96009626013284));
#709=CARTESIAN_POINT('Ctrl Pts',(0.95398441567739,0.510481678389873,8.97175979000535));
#710=CARTESIAN_POINT('Ctrl Pts',(0.732233047033631,0.732233047033631,8.97175979000535));
#711=CARTESIAN_POINT('Ctrl Pts',(0.510481678389873,0.953984415677389,8.97175979000535));
#712=CARTESIAN_POINT('Ctrl Pts',(0.318518067689226,1.23454392826,8.96009626013284));
#713=CARTESIAN_POINT('Ctrl Pts',(0.063834647591034,1.84781857890655,8.91275480465408));
#714=CARTESIAN_POINT('Ctrl Pts',(0.00108251376979732,2.18051957502804,8.87706758344829));
#715=CARTESIAN_POINT('Ctrl Pts',(4.92043404331732E-6,2.49427423046546,8.83556753561333));
#716=CARTESIAN_POINT('Ctrl Pts',(3.03576608295941E-16,2.49713631663885,
8.83518830703016));
#717=CARTESIAN_POINT('Ctrl Pts',(3.03576608295941E-16,2.5,8.83480820183736));
#718=CARTESIAN_POINT('',(2.5,0.,0.));
#719=CARTESIAN_POINT('',(0.,2.5,0.));
#720=CARTESIAN_POINT('Origin',(2.5,3.96446624307887,37.2754493706248));
#721=CARTESIAN_POINT('Origin',(2.5,3.96446624307887,37.2754493706248));
#722=CARTESIAN_POINT('',(2.5,3.96446624307887,39.7754493706248));
#723=CARTESIAN_POINT('Origin',(2.5,3.96446624307887,37.2754493706248));
#724=CARTESIAN_POINT('Origin',(10.0000001490116,0.,0.));
#725=CARTESIAN_POINT('',(5.73223319604524,4.26776695296637,35.));
#726=CARTESIAN_POINT('Origin',(3.23223319604524,6.76776695296637,35.));
#727=CARTESIAN_POINT('',(5.73223319604525,4.26776695296637,7.60476264598092));
#728=CARTESIAN_POINT('',(5.73223319604524,4.26776695296637,0.));
#729=CARTESIAN_POINT('Origin',(5.00000007450581,5.00000007450581,-10.));
#730=CARTESIAN_POINT('Ctrl Pts',(5.73223319604524,4.26776695296637,35.));
#731=CARTESIAN_POINT('Ctrl Pts',(5.73223319604524,4.26776695296637,35.2723137633069));
#732=CARTESIAN_POINT('Ctrl Pts',(5.66422566170253,4.33577448730908,35.6801544946888));
#733=CARTESIAN_POINT('Ctrl Pts',(5.28556645514584,4.71443369386577,36.5590115659673));
#734=CARTESIAN_POINT('Ctrl Pts',(4.76347589802975,5.23652425098187,37.049857295122));
#735=CARTESIAN_POINT('Ctrl Pts',(4.26776695296637,5.73223319604524,37.2754493706248));
#736=CARTESIAN_POINT('Ctrl Pts',(6.12891917266653,3.87108097634509,35.));
#737=CARTESIAN_POINT('Ctrl Pts',(6.12891917266653,3.87108097634509,35.3585226610315));
#738=CARTESIAN_POINT('Ctrl Pts',(6.03387884420931,3.96648843442307,35.8932285044899));
#739=CARTESIAN_POINT('Ctrl Pts',(5.53691512906226,4.46264156253171,36.9697770199178));
#740=CARTESIAN_POINT('Ctrl Pts',(4.91791104061056,5.08244160899549,37.4833870414226));
#741=CARTESIAN_POINT('Ctrl Pts',(4.36410749356468,5.63589265544693,37.6988407299213));
#742=CARTESIAN_POINT('Ctrl Pts',(6.6431112156206,2.80116354879643,35.));
#743=CARTESIAN_POINT('Ctrl Pts',(6.6431112156206,2.80116354879643,35.531512273924));
#744=CARTESIAN_POINT('Ctrl Pts',(6.5009983025786,2.95687563040628,36.319738638972));
#745=CARTESIAN_POINT('Ctrl Pts',(5.8014065801297,3.72427092374572,37.7924145400692));
#746=CARTESIAN_POINT('Ctrl Pts',(5.02668062966643,4.5739036039824,38.3503062152211));
#747=CARTESIAN_POINT('Ctrl Pts',(4.38460007381603,5.27126284370315,38.545096584568));
#748=CARTESIAN_POINT('Ctrl Pts',(6.28070582644465,1.21068341332295,35.));
#749=CARTESIAN_POINT('Ctrl Pts',(6.28070582644465,1.21068341332295,35.6649845038934));
#750=CARTESIAN_POINT('Ctrl Pts',(6.12762053768004,1.41708016030555,36.6512801332505));
#751=CARTESIAN_POINT('Ctrl Pts',(5.38606768981817,2.4303272265309,38.4847612186272));
#752=CARTESIAN_POINT('Ctrl Pts',(4.58522962298237,3.54294693615121,39.1606655337539));
#753=CARTESIAN_POINT('Ctrl Pts',(3.93273641056747,4.43716009805143,39.3850167452284));
#754=CARTESIAN_POINT('Ctrl Pts',(5.2255020809624,0.217171348153794,35.));
#755=CARTESIAN_POINT('Ctrl Pts',(5.2255020809624,0.217171348153793,35.6582888964398));
#756=CARTESIAN_POINT('Ctrl Pts',(5.10672891227762,0.413300110414218,36.6378065224565));
#757=CARTESIAN_POINT('Ctrl Pts',(4.5125938080759,1.41365107670238,38.5553057081879));
#758=CARTESIAN_POINT('Ctrl Pts',(3.82665582014677,2.5963119876024,39.3881284289186));
#759=CARTESIAN_POINT('Ctrl Pts',(3.23977679927485,3.59790380723423,39.706484476361));
#760=CARTESIAN_POINT('Ctrl Pts',(4.38521525918465,4.67125245269013E-17,
35.));
#761=CARTESIAN_POINT('Ctrl Pts',(4.38521525918465,-7.24539213776849E-16,
35.5905971537877));
#762=CARTESIAN_POINT('Ctrl Pts',(4.30035345395283,0.159700687993285,36.4726278674892));
#763=CARTESIAN_POINT('Ctrl Pts',(3.84947201357464,1.01691465391116,38.3044585106159));
#764=CARTESIAN_POINT('Ctrl Pts',(3.27292159200608,2.12651589383108,39.2395959186275));
#765=CARTESIAN_POINT('Ctrl Pts',(2.7466954207369,3.13330167642823,39.6439050713978));
#766=CARTESIAN_POINT('Ctrl Pts',(3.96446624307887,0.,35.));
#767=CARTESIAN_POINT('Ctrl Pts',(3.96446624307888,-8.70968072010459E-16,
35.5446275266139));
#768=CARTESIAN_POINT('Ctrl Pts',(3.89645870873617,0.13601506868542,36.3603089893775));
#769=CARTESIAN_POINT('Ctrl Pts',(3.51779950217948,0.893333481798797,38.1180231319345));
#770=CARTESIAN_POINT('Ctrl Pts',(2.99570894506338,1.937514596031,39.0997145902439));
#771=CARTESIAN_POINT('Ctrl Pts',(2.5,2.92893248615775,39.5508987412496));
#772=CARTESIAN_POINT('',(3.96446624307888,0.,35.));
#773=CARTESIAN_POINT('Origin',(1.46446624307887,5.,35.));
#774=CARTESIAN_POINT('Origin',(3.96446624307888,2.5,35.));
#775=CARTESIAN_POINT('Origin',(2.5000000372529,5.,35.));
#776=CARTESIAN_POINT('',(2.5000000372529,0.,35.));
#777=CARTESIAN_POINT('Origin',(3.96446624307888,2.5,0.));
#778=CARTESIAN_POINT('',(3.96446624307888,0.,8.58179236261906));
#779=CARTESIAN_POINT('',(3.96446624307888,0.,0.));
#780=CARTESIAN_POINT('Ctrl Pts',(5.73223319604524,4.26776695296637,7.60476264598092));
#781=CARTESIAN_POINT('Ctrl Pts',(5.96623077800121,4.0337693710104,7.58529737021279));
#782=CARTESIAN_POINT('Ctrl Pts',(6.15180655138595,3.75025726674609,7.58376069753341));
#783=CARTESIAN_POINT('Ctrl Pts',(6.39437714466357,3.16834194095052,7.61178293210528));
#784=CARTESIAN_POINT('Ctrl Pts',(6.46475943275692,2.83216147388071,7.64368961521499));
#785=CARTESIAN_POINT('Ctrl Pts',(6.46417111771326,2.16343888150938,7.73832180175154));
#786=CARTESIAN_POINT('Ctrl Pts',(6.39329135113436,1.83088769211797,7.80098378542429));
#787=CARTESIAN_POINT('Ctrl Pts',(6.27416507435709,1.54329141908728,7.86765525231247));
#788=CARTESIAN_POINT('Ctrl Pts',(6.15294931165596,1.2506506808008,7.93549614290257));
#789=CARTESIAN_POINT('Ctrl Pts',(5.96547396555726,0.964562073980028,8.01669963015555));
#790=CARTESIAN_POINT('Ctrl Pts',(5.49211184172976,0.493036799766073,8.18549827262254));
#791=CARTESIAN_POINT('Ctrl Pts',(5.20623701621496,0.307583036738158,8.27307918922731));
#792=CARTESIAN_POINT('Ctrl Pts',(4.62908387073409,0.070112253294564,8.43010634005813));
#793=CARTESIAN_POINT('Ctrl Pts',(4.29851938953273,0.000237976800258368,
8.51048792379627));
#794=CARTESIAN_POINT('Ctrl Pts',(3.96565638888966,2.12339871706547E-7,8.58153841250759));
#795=CARTESIAN_POINT('Ctrl Pts',(3.96506131842822,1.7267797942806E-17,8.58166540198532));
#796=CARTESIAN_POINT('Ctrl Pts',(3.96446624307888,1.73472347597681E-17,
8.58179236261906));
#797=CARTESIAN_POINT('Origin',(0.,10.0000001490116,0.));
#798=CARTESIAN_POINT('Origin',(0.,0.,-10.));
#799=CARTESIAN_POINT('Origin',(0.,0.,0.));
#800=CARTESIAN_POINT('Origin',(0.,0.,-10.));
#801=CARTESIAN_POINT('Origin',(0.,0.,-10.));
#802=CARTESIAN_POINT('',(0.497425596974067,-18.6375668766529,-6.34026384916001));
#803=CARTESIAN_POINT('',(-0.497425596974068,18.6375668766529,-13.65973615084));
#804=CARTESIAN_POINT('Origin',(0.,0.,-10.));
#805=CARTESIAN_POINT('Origin',(292.089662454432,201.118364332581,20.0800000000001));
#806=CARTESIAN_POINT('',(292.135980134033,201.053136481501,20.0800000000001));
#807=CARTESIAN_POINT('',(292.045616848693,201.185147448823,20.0800000000001));
#808=CARTESIAN_POINT('Origin',(292.089662454432,201.11836433258,20.0800000000001));
#809=CARTESIAN_POINT('',(292.089662454432,201.118364332581,20.0000000000001));
#810=CARTESIAN_POINT('Origin',(292.089662454432,201.118364332581,20.0800000000001));
#811=CARTESIAN_POINT('Origin',(292.089662454432,201.11836433258,20.0800000000001));
#812=CARTESIAN_POINT('Origin',(-30.3666079866763,-27.8547809174677,20.0800000000001));
#813=CARTESIAN_POINT('',(-30.3666079866763,-27.8547809174677,20.0000000000001));
#814=CARTESIAN_POINT('',(-30.4245174125409,-27.9099760114167,20.0800000000001));
#815=CARTESIAN_POINT('Origin',(-30.3666079866763,-27.8547809174677,20.0800000000001));
#816=CARTESIAN_POINT('',(-30.3202903070757,-27.9200087685469,20.0800000000001));
#817=CARTESIAN_POINT('Origin',(-30.3666079866763,-27.8547809174677,20.0800000000001));
#818=CARTESIAN_POINT('Origin',(-30.3666079866763,-27.8547809174677,20.0800000000001));
#819=CARTESIAN_POINT('Origin',(49.5479563677343,28.8917947545928,20.0800000000001));
#820=CARTESIAN_POINT('',(49.5479563677343,28.8917947545928,20.0000000000001));
#821=CARTESIAN_POINT('',(49.594274047335,28.8265669035136,20.0800000000001));
#822=CARTESIAN_POINT('Origin',(-30.3666079866763,-27.8547809174677,20.0000000000002));
#823=CARTESIAN_POINT('',(-30.3202903070758,-27.9200087685468,37.4999999999998));
#824=CARTESIAN_POINT('',(-30.424517412541,-27.9099760114165,37.4999999999998));
#825=CARTESIAN_POINT('Origin',(-30.3666079866764,-27.8547809174676,37.4999999999998));
#826=CARTESIAN_POINT('',(-30.4245174125409,-27.9099760114167,20.0000000000002));
#827=CARTESIAN_POINT('',(-30.3202903070757,-27.9200087685469,20.0000000000002));
#828=CARTESIAN_POINT('Ctrl Pts',(-30.0599458173248,-24.6689657071319,39.9999999999998));
#829=CARTESIAN_POINT('Ctrl Pts',(-30.1417554919847,-25.396246718714,39.9999999999998));
#830=CARTESIAN_POINT('Ctrl Pts',(-30.3329570521351,-27.0960122374051,39.542952146328));
#831=CARTESIAN_POINT('Ctrl Pts',(-30.424517412541,-27.9099760114165,38.2479982508545));
#832=CARTESIAN_POINT('Ctrl Pts',(-30.424517412541,-27.9099760114165,37.4999999999998));
#833=CARTESIAN_POINT('Ctrl Pts',(-30.0599458173248,-24.6689657071319,39.9999999999998));
#834=CARTESIAN_POINT('Ctrl Pts',(-30.137300538123,-25.396675546416,39.9999999999998));
#835=CARTESIAN_POINT('Ctrl Pts',(-30.3182532588914,-27.0974004453554,39.5503668132635));
#836=CARTESIAN_POINT('Ctrl Pts',(-30.4095163524195,-27.9257147794273,38.2536980318392));
#837=CARTESIAN_POINT('Ctrl Pts',(-30.4095163524195,-27.9257147794273,37.4999999999998));
#838=CARTESIAN_POINT('Ctrl Pts',(-30.0599458173248,-24.6689657071319,39.9999999999998));
#839=CARTESIAN_POINT('Ctrl Pts',(-30.129504368865,-25.3974259948944,39.9999999999998));
#840=CARTESIAN_POINT('Ctrl Pts',(-30.2919986567544,-27.099593589654,39.5560612899341));
#841=CARTESIAN_POINT('Ctrl Pts',(-30.3715842378264,-27.9417311116721,38.2584806343245));
#842=CARTESIAN_POINT('Ctrl Pts',(-30.3715842378264,-27.9417311116721,37.4999999999998));
#843=CARTESIAN_POINT('Ctrl Pts',(-30.0599458173248,-24.6689657071319,39.9999999999998));
#844=CARTESIAN_POINT('Ctrl Pts',(-30.1217081996071,-25.3981764433729,39.9999999999998));
#845=CARTESIAN_POINT('Ctrl Pts',(-30.2659330835581,-27.102502904907,39.5485128124233));
#846=CARTESIAN_POINT('Ctrl Pts',(-30.3335861479598,-27.9294500192993,38.2522268943471));
#847=CARTESIAN_POINT('Ctrl Pts',(-30.3335861479598,-27.9294500192993,37.4999999999998));
#848=CARTESIAN_POINT('Ctrl Pts',(-30.0599458173248,-24.6689657071319,39.9999999999998));
#849=CARTESIAN_POINT('Ctrl Pts',(-30.1183669842108,-25.3984980641494,39.9999999999998));
#850=CARTESIAN_POINT('Ctrl Pts',(-30.2549060708267,-27.1035253169994,39.5429521463279));
#851=CARTESIAN_POINT('Ctrl Pts',(-30.3202903070758,-27.9200087685467,38.2479982508545));
#852=CARTESIAN_POINT('Ctrl Pts',(-30.3202903070758,-27.9200087685468,37.4999999999998));
#853=CARTESIAN_POINT('',(-30.0599458173248,-24.6689657071319,39.9999999999998));
#854=CARTESIAN_POINT('Origin',(-30.0599458173247,-24.6689657071319,37.4999999999998));
#855=CARTESIAN_POINT('Origin',(-30.0599458173248,-24.668965707132,37.4999999999998));
#856=CARTESIAN_POINT('Origin',(-39.9076698790718,-17.8445177437473,20.08));
#857=CARTESIAN_POINT('',(-39.9517154848112,-17.7777346275048,20.08));
#858=CARTESIAN_POINT('',(-39.9655793049364,-17.8997128376962,20.08));
#859=CARTESIAN_POINT('Origin',(-39.9076698790717,-17.8445177437472,20.08));
#860=CARTESIAN_POINT('',(-39.9076698790718,-17.8445177437473,20.));
#861=CARTESIAN_POINT('Origin',(-39.9076698790718,-17.8445177437473,20.08));
#862=CARTESIAN_POINT('Origin',(-39.9076698790718,-17.8445177437473,20.08));
#863=CARTESIAN_POINT('Origin',(210.816582034429,147.516162776007,20.0800000000001));
#864=CARTESIAN_POINT('',(210.816582034429,147.516162776007,20.0000000000001));
#865=CARTESIAN_POINT('',(210.772536428689,147.58294589225,20.0800000000001));
#866=CARTESIAN_POINT('Origin',(-26.3936810646916,-32.0230846668359,20.0800000000002));
#867=CARTESIAN_POINT('',(-26.3936810646916,-32.0230846668359,20.0000000000002));
#868=CARTESIAN_POINT('',(-26.4515904905562,-32.0782797607848,20.0800000000002));
#869=CARTESIAN_POINT('Origin',(-39.9076698790717,-17.8445177437472,19.9999999999998));
#870=CARTESIAN_POINT('',(-39.9655793049365,-17.8997128376961,37.4999999999997));
#871=CARTESIAN_POINT('',(-39.9517154848112,-17.7777346275046,37.4999999999997));
#872=CARTESIAN_POINT('Origin',(-39.9076698790718,-17.8445177437471,37.4999999999997));
#873=CARTESIAN_POINT('',(-39.9517154848111,-17.7777346275047,19.9999999999998));
#874=CARTESIAN_POINT('',(-39.9655793049364,-17.8997128376962,19.9999999999998));
#875=CARTESIAN_POINT('Ctrl Pts',(-36.1583515131413,-18.2706584071979,39.9999999999997));
#876=CARTESIAN_POINT('Ctrl Pts',(-37.0095803978407,-18.1600465696934,39.9999999999998));
#877=CARTESIAN_POINT('Ctrl Pts',(-38.9990335819644,-17.9015296463597,39.5429543399461));
#878=CARTESIAN_POINT('Ctrl Pts',(-39.9517154848115,-17.7777346275046,38.247998250854));
#879=CARTESIAN_POINT('Ctrl Pts',(-39.9517154848114,-17.7777346275047,37.4999999999993));
#880=CARTESIAN_POINT('Ctrl Pts',(-36.1583515131413,-18.2706584071979,39.9999999999997));
#881=CARTESIAN_POINT('Ctrl Pts',(-37.0098766867893,-18.1626534122039,39.9999999999998));
#882=CARTESIAN_POINT('Ctrl Pts',(-38.9993573191814,-17.910251901222,39.5480312752699));
#883=CARTESIAN_POINT('Ctrl Pts',(-39.9628406213343,-17.7850720116317,38.2527771301453));
#884=CARTESIAN_POINT('Ctrl Pts',(-39.9628406213341,-17.7850720116319,37.4999999999993));
#885=CARTESIAN_POINT('Ctrl Pts',(-36.1583515131413,-18.2706584071979,39.9999999999997));
#886=CARTESIAN_POINT('Ctrl Pts',(-37.0104692646867,-18.1678670972247,39.9999999999997));
#887=CARTESIAN_POINT('Ctrl Pts',(-38.9999220906188,-17.9278455284175,39.5553209995097));
#888=CARTESIAN_POINT('Ctrl Pts',(-39.9812791853509,-17.8053940300027,38.2602643652302));
#889=CARTESIAN_POINT('Ctrl Pts',(-39.9812791853507,-17.8053940300028,37.4999999999993));
#890=CARTESIAN_POINT('Ctrl Pts',(-36.1583515131413,-18.2706584071979,39.9999999999997));
#891=CARTESIAN_POINT('Ctrl Pts',(-37.0115062760071,-18.1769910460113,39.9999999999997));
#892=CARTESIAN_POINT('Ctrl Pts',(-39.0027530734512,-17.9583855228826,39.5578859344837));
#893=CARTESIAN_POINT('Ctrl Pts',(-39.9927191245303,-17.8522001717695,38.2630848018245));
#894=CARTESIAN_POINT('Ctrl Pts',(-39.9927191245302,-17.8522001717695,37.4999999999994));
#895=CARTESIAN_POINT('Ctrl Pts',(-36.1583515131413,-18.2706584071979,39.9999999999997));
#896=CARTESIAN_POINT('Ctrl Pts',(-37.0122469983788,-18.1835081522874,39.9999999999997));
#897=CARTESIAN_POINT('Ctrl Pts',(-39.006901064607,-17.9799870482241,39.5505652186336));
#898=CARTESIAN_POINT('Ctrl Pts',(-39.9793714051736,-17.8852424826509,38.2552087991251));
#899=CARTESIAN_POINT('Ctrl Pts',(-39.9793714051735,-17.885242482651,37.4999999999996));
#900=CARTESIAN_POINT('Ctrl Pts',(-36.1583515131413,-18.2706584071979,39.9999999999997));
#901=CARTESIAN_POINT('Ctrl Pts',(-37.0126914318018,-18.1874184160531,39.9999999999997));
#902=CARTESIAN_POINT('Ctrl Pts',(-39.0094155820912,-17.9928737190786,39.542954339946));
#903=CARTESIAN_POINT('Ctrl Pts',(-39.9655793049365,-17.8997128376961,38.2479982508544));
#904=CARTESIAN_POINT('Ctrl Pts',(-39.9655793049365,-17.8997128376961,37.4999999999997));
#905=CARTESIAN_POINT('',(-36.1583515131415,-18.2706584071976,39.9999999999997));
#906=CARTESIAN_POINT('Origin',(-36.1583515131414,-18.2706584071975,37.4999999999997));
#907=CARTESIAN_POINT('Origin',(-36.1583515131415,-18.2706584071976,37.4999999999997));
#908=CARTESIAN_POINT('Ctrl Pts',(176.045955023448,121.684883469219,40.));
#909=CARTESIAN_POINT('Ctrl Pts',(193.412982168328,133.558346354535,40.));
#910=CARTESIAN_POINT('Ctrl Pts',(228.134213014382,157.296505012546,39.8293408480738));
#911=CARTESIAN_POINT('Ctrl Pts',(269.915384653129,185.861393327583,39.111995754082));
#912=CARTESIAN_POINT('Ctrl Pts',(287.295451272001,197.743771020782,38.3345360871264));
#913=CARTESIAN_POINT('Ctrl Pts',(291.282283653546,200.469482561241,37.8266499568064));
#914=CARTESIAN_POINT('Ctrl Pts',(291.923223602656,200.907679417501,37.6635526265015));
#915=CARTESIAN_POINT('Ctrl Pts',(292.105420819863,201.03224373575,37.5701240726743));
#916=CARTESIAN_POINT('Ctrl Pts',(292.135980134034,201.053136481502,37.5233749453393));
#917=CARTESIAN_POINT('Ctrl Pts',(292.135980134034,201.053136481502,37.5000000000001));
#918=CARTESIAN_POINT('Ctrl Pts',(176.045955023448,121.684883469219,40.));
#919=CARTESIAN_POINT('Ctrl Pts',(193.411694709673,133.560227192109,40.));
#920=CARTESIAN_POINT('Ctrl Pts',(228.130496753291,157.302274268564,39.831293247918));
#921=CARTESIAN_POINT('Ctrl Pts',(269.90995260739,185.869441948427,39.1223793433912));
#922=CARTESIAN_POINT('Ctrl Pts',(287.292782822555,197.750248219888,38.3516401812449));
#923=CARTESIAN_POINT('Ctrl Pts',(291.282755227279,200.473437161194,37.8475387982308));
#924=CARTESIAN_POINT('Ctrl Pts',(291.927878140857,200.912783864542,37.684477274973));
#925=CARTESIAN_POINT('Ctrl Pts',(292.113363997831,201.038614518614,37.590827964701));
#926=CARTESIAN_POINT('Ctrl Pts',(292.155282443903,201.066842869023,37.5361798365372));
#927=CARTESIAN_POINT('Ctrl Pts',(292.155282443903,201.066842869023,37.5000000000001));
#928=CARTESIAN_POINT('Ctrl Pts',(176.045955023448,121.684883469219,40.));
#929=CARTESIAN_POINT('Ctrl Pts',(193.409119792363,133.563988867258,40.));
#930=CARTESIAN_POINT('Ctrl Pts',(228.123084684398,157.313731734951,39.8339159781683));
#931=CARTESIAN_POINT('Ctrl Pts',(269.896528654235,185.889048939126,39.1380826767317));
#932=CARTESIAN_POINT('Ctrl Pts',(287.280100707631,197.773176466586,38.380513143572));
#933=CARTESIAN_POINT('Ctrl Pts',(291.272566810704,200.496453068369,37.8868047534592));
#934=CARTESIAN_POINT('Ctrl Pts',(291.924819911385,200.939849146871,37.7250378607148));
#935=CARTESIAN_POINT('Ctrl Pts',(292.116212590873,201.069190250906,37.6317402416011));
#936=CARTESIAN_POINT('Ctrl Pts',(292.180632122474,201.112562400718,37.561669737869));
#937=CARTESIAN_POINT('Ctrl Pts',(292.180632122474,201.112562400718,37.5000000000001));
#938=CARTESIAN_POINT('Ctrl Pts',(176.045955023448,121.684883469219,40.));
#939=CARTESIAN_POINT('Ctrl Pts',(193.405901145727,133.568690961194,40.0000000000001));
#940=CARTESIAN_POINT('Ctrl Pts',(228.113515012453,157.327900000906,39.834538786298));
#941=CARTESIAN_POINT('Ctrl Pts',(269.876853218574,185.917764354961,39.142142621749));
#942=CARTESIAN_POINT('Ctrl Pts',(287.25300098068,197.814022139542,38.3885023449231));
#943=CARTESIAN_POINT('Ctrl Pts',(291.240826460681,200.54516875097,37.8983880233978));
#944=CARTESIAN_POINT('Ctrl Pts',(291.893479112658,200.992387682094,37.737206061806));
#945=CARTESIAN_POINT('Ctrl Pts',(292.085699378594,201.124222850784,37.6441405810333));
#946=CARTESIAN_POINT('Ctrl Pts',(292.156567527157,201.172845685787,37.5694255944815));
#947=CARTESIAN_POINT('Ctrl Pts',(292.156567527157,201.172845685787,37.5000000000001));
#948=CARTESIAN_POINT('Ctrl Pts',(176.045955023448,121.684883469219,40.));
#949=CARTESIAN_POINT('Ctrl Pts',(193.40268249909,133.573393055129,40.0000000000001));
#950=CARTESIAN_POINT('Ctrl Pts',(228.10369895352,157.341899479997,39.8332691272944));
#951=CARTESIAN_POINT('Ctrl Pts',(269.857924112531,185.945471032831,39.1341367397115));
#952=CARTESIAN_POINT('Ctrl Pts',(287.226514855354,197.850404269364,38.3731505345904));
#953=CARTESIAN_POINT('Ctrl Pts',(291.209766678069,200.586220587973,37.8766370658211));
#954=CARTESIAN_POINT('Ctrl Pts',(291.857490065678,201.032467817286,37.7144912363732));
#955=CARTESIAN_POINT('Ctrl Pts',(292.045912660751,201.162981031885,37.6210759287181));
#956=CARTESIAN_POINT('Ctrl Pts',(292.10384337555,201.2032944167,37.5550186760064));
#957=CARTESIAN_POINT('Ctrl Pts',(292.10384337555,201.2032944167,37.5000000000001));
#958=CARTESIAN_POINT('Ctrl Pts',(176.045955023448,121.684883469219,40.));
#959=CARTESIAN_POINT('Ctrl Pts',(193.400751311107,133.576214311491,40.));
#960=CARTESIAN_POINT('Ctrl Pts',(228.097676600754,157.350165909217,39.8312756048618));
#961=CARTESIAN_POINT('Ctrl Pts',(269.84780599539,185.960123149192,39.1223632218193));
#962=CARTESIAN_POINT('Ctrl Pts',(287.213745659135,197.865313022575,38.3517072309673));
#963=CARTESIAN_POINT('Ctrl Pts',(291.19615803195,200.599331897353,37.8478097823055));
#964=CARTESIAN_POINT('Ctrl Pts',(291.839221536917,201.041768613871,37.6848079704188));
#965=CARTESIAN_POINT('Ctrl Pts',(292.023692504595,201.169180119172,37.5911876248608));
#966=CARTESIAN_POINT('Ctrl Pts',(292.065379394637,201.198181481316,37.5364133289773));
#967=CARTESIAN_POINT('Ctrl Pts',(292.065379394637,201.198181481316,37.5000000000001));
#968=CARTESIAN_POINT('Ctrl Pts',(176.045955023448,121.684883469219,40.));
#969=CARTESIAN_POINT('Ctrl Pts',(193.399463852453,133.578095149065,40.));
#970=CARTESIAN_POINT('Ctrl Pts',(228.093668048394,157.355736814046,39.8293408480738));
#971=CARTESIAN_POINT('Ctrl Pts',(269.842317651496,185.968136298786,39.1119957540819));
#972=CARTESIAN_POINT('Ctrl Pts',(287.2088558047,197.870277614263,38.3345360871264));
#973=CARTESIAN_POINT('Ctrl Pts',(291.192584876794,200.600522753528,37.8266499568065));
#974=CARTESIAN_POINT('Ctrl Pts',(291.833025924819,201.039448450208,37.6635526265015));
#975=CARTESIAN_POINT('Ctrl Pts',(292.01508132158,201.16421995276,37.5701240726744));
#976=CARTESIAN_POINT('Ctrl Pts',(292.045616848694,201.185147448824,37.5233749453393));
#977=CARTESIAN_POINT('Ctrl Pts',(292.045616848694,201.185147448824,37.5000000000001));
#978=CARTESIAN_POINT('',(292.135980134034,201.053136481502,37.5000000000001));
#979=CARTESIAN_POINT('',(292.045616848694,201.185147448824,37.5000000000001));
#980=CARTESIAN_POINT('Origin',(292.089662454433,201.118364332581,37.5000000000001));
#981=CARTESIAN_POINT('',(176.045955023458,121.684883469225,40.));
#982=CARTESIAN_POINT('Origin',(176.045955023448,121.684883469219,37.5));
#983=CARTESIAN_POINT('Origin',(176.045955023448,121.684883469218,37.5));
#984=CARTESIAN_POINT('Origin',(292.089662454432,201.11836433258,20.0000000000002));
#985=CARTESIAN_POINT('',(292.135980134033,201.053136481501,20.0000000000002));
#986=CARTESIAN_POINT('',(292.045616848693,201.185147448823,20.0000000000002));
#987=CARTESIAN_POINT('Origin',(-24.6419209322878,-30.3534330748801,37.4999999999999));
#988=CARTESIAN_POINT('',(-24.6419209322878,-30.35343307488,39.9999999999999));
#989=CARTESIAN_POINT('',(-26.4515904905563,-32.0782797607847,37.4999999999999));
#990=CARTESIAN_POINT('Origin',(-30.3767455790515,-27.960097122768,20.0000000000002));
#991=CARTESIAN_POINT('',(49.5942740473349,28.8265669035138,37.4999999999999));
#992=CARTESIAN_POINT('Origin',(48.1468465598148,30.8649372497392,37.4999999999999));
#993=CARTESIAN_POINT('',(48.1468465598148,30.8649372497393,39.9999999999999));
#994=CARTESIAN_POINT('Origin',(127.947101892061,87.8920837018213,20.0000000000001));
#995=CARTESIAN_POINT('Origin',(212.148961608044,145.495973509673,37.5));
#996=CARTESIAN_POINT('',(212.148961608044,145.495973509673,40.));
#997=CARTESIAN_POINT('',(210.772536428689,147.58294589225,37.5));
#998=CARTESIAN_POINT('Origin',(-40.0316142878629,-17.8304304490877,20.));
#999=CARTESIAN_POINT('Origin',(295.925818071985,203.744264526411,20.0000000000001));
#1000=CARTESIAN_POINT('Origin',(127.947101892061,87.8920837018215,39.9999999999999));
#1001=UNCERTAINTY_MEASURE_WITH_UNIT(LENGTH_MEASURE(0.01),#1005,
'DISTANCE_ACCURACY_VALUE',
'Maximum model space distance between geometric entities at asserted c
onnectivities');
#1002=UNCERTAINTY_MEASURE_WITH_UNIT(LENGTH_MEASURE(0.01),#1005,
'DISTANCE_ACCURACY_VALUE',
'Maximum model space distance between geometric entities at asserted c
onnectivities');
#1003=(
GEOMETRIC_REPRESENTATION_CONTEXT(3)
GLOBAL_UNCERTAINTY_ASSIGNED_CONTEXT((#1001))
GLOBAL_UNIT_ASSIGNED_CONTEXT((#1005,#1007,#1008))
REPRESENTATION_CONTEXT('','3D')
);
#1004=(
GEOMETRIC_REPRESENTATION_CONTEXT(3)
GLOBAL_UNCERTAINTY_ASSIGNED_CONTEXT((#1002))
GLOBAL_UNIT_ASSIGNED_CONTEXT((#1005,#1007,#1008))
REPRESENTATION_CONTEXT('','3D')
);
#1005=(
LENGTH_UNIT()
NAMED_UNIT(*)
SI_UNIT(.MILLI.,.METRE.)
);
#1006=(
LENGTH_UNIT()
NAMED_UNIT(*)
SI_UNIT($,.METRE.)
);
#1007=(
NAMED_UNIT(*)
PLANE_ANGLE_UNIT()
SI_UNIT($,.RADIAN.)
);
#1008=(
NAMED_UNIT(*)
SI_UNIT($,.STERADIAN.)
SOLID_ANGLE_UNIT()
);
#1009=SHAPE_DEFINITION_REPRESENTATION(#1010,#1011);
#1010=PRODUCT_DEFINITION_SHAPE('',$,#1013);
#1011=SHAPE_REPRESENTATION('',(#456),#1003);
#1012=PRODUCT_DEFINITION_CONTEXT('part definition',#1017,'design');
#1013=PRODUCT_DEFINITION('(Unsaved)','(Unsaved)',#1014,#1012);
#1014=PRODUCT_DEFINITION_FORMATION('',$,#1019);
#1015=PRODUCT_RELATED_PRODUCT_CATEGORY('(Unsaved)','(Unsaved)',(#1019));
#1016=APPLICATION_PROTOCOL_DEFINITION('international standard',
'automotive_design',2009,#1017);
#1017=APPLICATION_CONTEXT(
'Core Data for Automotive Mechanical Design Process');
#1018=PRODUCT_CONTEXT('part definition',#1017,'mechanical');
#1019=PRODUCT('(Unsaved)','(Unsaved)',$,(#1018));
#1020=PRESENTATION_STYLE_ASSIGNMENT((#1021));
#1021=SURFACE_STYLE_USAGE(.BOTH.,#1022);
#1022=SURFACE_SIDE_STYLE('',(#1023));
#1023=SURFACE_STYLE_FILL_AREA(#1024);
#1024=FILL_AREA_STYLE('Steel - Satin',(#1025));
#1025=FILL_AREA_STYLE_COLOUR('Steel - Satin',#1026);
#1026=COLOUR_RGB('Steel - Satin',0.627450980392157,0.627450980392157,0.627450980392157);
ENDSEC;
END-ISO-10303-21;
