ISO-10303-21;
HEADER;
/* Generated by software containing ST-Developer
 * from STEP Tools, Inc. (www.steptools.com) 
 */

FILE_DESCRIPTION(
/* description */ (''),
/* implementation_level */ '2;1');

FILE_NAME(
/* name */ 'holder belt.step',
/* time_stamp */ '2026-07-02T14:46:38+05:30',
/* author */ (''),
/* organization */ (''),
/* preprocessor_version */ 'ST-DEVELOPER v20.1',
/* originating_system */ 'Autodesk Translation Framework v15.8.0.0',
/* authorisation */ '');

FILE_SCHEMA (('AUTOMOTIVE_DESIGN { 1 0 10303 214 3 1 1 }'));
ENDSEC;

DATA;
#10=MECHANICAL_DESIGN_GEOMETRIC_PRESENTATION_REPRESENTATION('',(#13),#1437);
#11=SHAPE_REPRESENTATION_RELATIONSHIP('SRR','None',#1444,#12);
#12=ADVANCED_BREP_SHAPE_REPRESENTATION('',(#14),#1436);
#13=STYLED_ITEM('',(#1453),#14);
#14=MANIFOLD_SOLID_BREP('Body2',#765);
#15=B_SPLINE_SURFACE_WITH_KNOTS('',3,3,((#1246,#1247,#1248,#1249,#1250,
#1251),(#1252,#1253,#1254,#1255,#1256,#1257),(#1258,#1259,#1260,#1261,#1262,
#1263),(#1264,#1265,#1266,#1267,#1268,#1269),(#1270,#1271,#1272,#1273,#1274,
#1275)),.UNSPECIFIED.,.F.,.F.,.F.,(4,1,4),(4,1,1,4),(0.,0.571428571428571,
1.),(-1.5707963267949,-0.897597901025655,-0.448798950512828,0.),
 .UNSPECIFIED.);
#16=B_SPLINE_SURFACE_WITH_KNOTS('',3,3,((#1298,#1299,#1300,#1301,#1302,
#1303),(#1304,#1305,#1306,#1307,#1308,#1309),(#1310,#1311,#1312,#1313,#1314,
#1315),(#1316,#1317,#1318,#1319,#1320,#1321),(#1322,#1323,#1324,#1325,#1326,
#1327)),.UNSPECIFIED.,.F.,.F.,.F.,(4,1,4),(4,1,1,4),(0.,0.571428571428571,
1.),(-1.5707963267949,-0.897597901025655,-0.448798950512828,0.),
 .UNSPECIFIED.);
#17=B_SPLINE_SURFACE_WITH_KNOTS('',3,3,((#1341,#1342,#1343,#1344,#1345,
#1346),(#1347,#1348,#1349,#1350,#1351,#1352),(#1353,#1354,#1355,#1356,#1357,
#1358),(#1359,#1360,#1361,#1362,#1363,#1364),(#1365,#1366,#1367,#1368,#1369,
#1370)),.UNSPECIFIED.,.F.,.F.,.F.,(4,1,4),(4,1,1,4),(0.,0.571428571428571,
1.),(-1.5707963267949,-0.897597901025655,-0.448798950512828,0.),
 .UNSPECIFIED.);
#18=B_SPLINE_SURFACE_WITH_KNOTS('',3,3,((#1393,#1394,#1395,#1396,#1397,
#1398),(#1399,#1400,#1401,#1402,#1403,#1404),(#1405,#1406,#1407,#1408,#1409,
#1410),(#1411,#1412,#1413,#1414,#1415,#1416),(#1417,#1418,#1419,#1420,#1421,
#1422)),.UNSPECIFIED.,.F.,.F.,.F.,(4,1,4),(4,1,1,4),(0.,0.571428571428571,
1.),(-1.5707963267949,-0.897597901025655,-0.448798950512828,0.),
 .UNSPECIFIED.);
#19=CIRCLE('',#820,1.);
#20=CIRCLE('',#821,1.);
#21=CIRCLE('',#822,1.);
#22=CIRCLE('',#824,0.999999999999996);
#23=CIRCLE('',#831,1.);
#24=CIRCLE('',#833,1.);
#25=CIRCLE('',#834,1.);
#26=CIRCLE('',#836,0.999999999999996);
#27=CIRCLE('',#839,1.);
#28=CIRCLE('',#841,1.);
#29=CIRCLE('',#842,1.);
#30=CIRCLE('',#844,0.999999999999996);
#31=CIRCLE('',#851,1.);
#32=CIRCLE('',#853,1.);
#33=CIRCLE('',#854,1.);
#34=CIRCLE('',#856,0.999999999999996);
#35=SPHERICAL_SURFACE('',#819,1.);
#36=SPHERICAL_SURFACE('',#832,1.);
#37=SPHERICAL_SURFACE('',#840,1.);
#38=SPHERICAL_SURFACE('',#852,1.);
#39=FACE_BOUND('',#110,.T.);
#40=FACE_BOUND('',#124,.T.);
#41=PLANE('',#787);
#42=PLANE('',#788);
#43=PLANE('',#789);
#44=PLANE('',#798);
#45=PLANE('',#799);
#46=PLANE('',#808);
#47=PLANE('',#809);
#48=PLANE('',#818);
#49=PLANE('',#829);
#50=PLANE('',#849);
#51=PLANE('',#859);
#52=PLANE('',#862);
#53=PLANE('',#863);
#54=PLANE('',#864);
#55=FACE_OUTER_BOUND('',#105,.T.);
#56=FACE_OUTER_BOUND('',#106,.T.);
#57=FACE_OUTER_BOUND('',#107,.T.);
#58=FACE_OUTER_BOUND('',#108,.T.);
#59=FACE_OUTER_BOUND('',#109,.T.);
#60=FACE_OUTER_BOUND('',#111,.T.);
#61=FACE_OUTER_BOUND('',#112,.T.);
#62=FACE_OUTER_BOUND('',#113,.T.);
#63=FACE_OUTER_BOUND('',#114,.T.);
#64=FACE_OUTER_BOUND('',#115,.T.);
#65=FACE_OUTER_BOUND('',#116,.T.);
#66=FACE_OUTER_BOUND('',#117,.T.);
#67=FACE_OUTER_BOUND('',#118,.T.);
#68=FACE_OUTER_BOUND('',#119,.T.);
#69=FACE_OUTER_BOUND('',#120,.T.);
#70=FACE_OUTER_BOUND('',#121,.T.);
#71=FACE_OUTER_BOUND('',#122,.T.);
#72=FACE_OUTER_BOUND('',#123,.T.);
#73=FACE_OUTER_BOUND('',#125,.T.);
#74=FACE_OUTER_BOUND('',#126,.T.);
#75=FACE_OUTER_BOUND('',#127,.T.);
#76=FACE_OUTER_BOUND('',#128,.T.);
#77=FACE_OUTER_BOUND('',#129,.T.);
#78=FACE_OUTER_BOUND('',#130,.T.);
#79=FACE_OUTER_BOUND('',#131,.T.);
#80=FACE_OUTER_BOUND('',#132,.T.);
#81=FACE_OUTER_BOUND('',#133,.T.);
#82=FACE_OUTER_BOUND('',#134,.T.);
#83=FACE_OUTER_BOUND('',#135,.T.);
#84=FACE_OUTER_BOUND('',#136,.T.);
#85=FACE_OUTER_BOUND('',#137,.T.);
#86=FACE_OUTER_BOUND('',#138,.T.);
#87=FACE_OUTER_BOUND('',#139,.T.);
#88=FACE_OUTER_BOUND('',#140,.T.);
#89=FACE_OUTER_BOUND('',#141,.T.);
#90=FACE_OUTER_BOUND('',#142,.T.);
#91=FACE_OUTER_BOUND('',#143,.T.);
#92=FACE_OUTER_BOUND('',#144,.T.);
#93=FACE_OUTER_BOUND('',#145,.T.);
#94=FACE_OUTER_BOUND('',#146,.T.);
#95=FACE_OUTER_BOUND('',#147,.T.);
#96=FACE_OUTER_BOUND('',#148,.T.);
#97=FACE_OUTER_BOUND('',#149,.T.);
#98=FACE_OUTER_BOUND('',#150,.T.);
#99=FACE_OUTER_BOUND('',#151,.T.);
#100=FACE_OUTER_BOUND('',#152,.T.);
#101=FACE_OUTER_BOUND('',#153,.T.);
#102=FACE_OUTER_BOUND('',#154,.T.);
#103=FACE_OUTER_BOUND('',#155,.T.);
#104=FACE_OUTER_BOUND('',#156,.T.);
#105=EDGE_LOOP('',(#475,#476,#477,#478));
#106=EDGE_LOOP('',(#479,#480,#481,#482));
#107=EDGE_LOOP('',(#483,#484,#485,#486));
#108=EDGE_LOOP('',(#487,#488,#489,#490));
#109=EDGE_LOOP('',(#491,#492,#493,#494,#495,#496,#497,#498));
#110=EDGE_LOOP('',(#499,#500,#501,#502));
#111=EDGE_LOOP('',(#503,#504,#505,#506));
#112=EDGE_LOOP('',(#507,#508,#509,#510));
#113=EDGE_LOOP('',(#511,#512,#513,#514));
#114=EDGE_LOOP('',(#515,#516,#517,#518));
#115=EDGE_LOOP('',(#519,#520,#521,#522));
#116=EDGE_LOOP('',(#523,#524,#525,#526));
#117=EDGE_LOOP('',(#527,#528,#529,#530));
#118=EDGE_LOOP('',(#531,#532,#533,#534));
#119=EDGE_LOOP('',(#535,#536,#537,#538));
#120=EDGE_LOOP('',(#539,#540,#541,#542));
#121=EDGE_LOOP('',(#543,#544,#545,#546));
#122=EDGE_LOOP('',(#547,#548,#549,#550));
#123=EDGE_LOOP('',(#551,#552,#553,#554,#555,#556,#557,#558));
#124=EDGE_LOOP('',(#559,#560,#561,#562));
#125=EDGE_LOOP('',(#563,#564,#565,#566));
#126=EDGE_LOOP('',(#567,#568,#569,#570));
#127=EDGE_LOOP('',(#571,#572,#573,#574));
#128=EDGE_LOOP('',(#575,#576,#577,#578));
#129=EDGE_LOOP('',(#579,#580,#581,#582));
#130=EDGE_LOOP('',(#583,#584,#585,#586));
#131=EDGE_LOOP('',(#587,#588,#589));
#132=EDGE_LOOP('',(#590,#591,#592,#593));
#133=EDGE_LOOP('',(#594,#595,#596));
#134=EDGE_LOOP('',(#597,#598,#599,#600));
#135=EDGE_LOOP('',(#601,#602,#603,#604));
#136=EDGE_LOOP('',(#605,#606,#607,#608));
#137=EDGE_LOOP('',(#609,#610,#611));
#138=EDGE_LOOP('',(#612,#613,#614,#615));
#139=EDGE_LOOP('',(#616,#617,#618));
#140=EDGE_LOOP('',(#619,#620,#621,#622));
#141=EDGE_LOOP('',(#623,#624,#625));
#142=EDGE_LOOP('',(#626,#627,#628,#629));
#143=EDGE_LOOP('',(#630,#631,#632));
#144=EDGE_LOOP('',(#633,#634,#635,#636));
#145=EDGE_LOOP('',(#637,#638,#639,#640));
#146=EDGE_LOOP('',(#641,#642,#643,#644));
#147=EDGE_LOOP('',(#645,#646,#647));
#148=EDGE_LOOP('',(#648,#649,#650,#651));
#149=EDGE_LOOP('',(#652,#653,#654));
#150=EDGE_LOOP('',(#655,#656,#657,#658));
#151=EDGE_LOOP('',(#659,#660,#661,#662));
#152=EDGE_LOOP('',(#663,#664,#665,#666,#667,#668));
#153=EDGE_LOOP('',(#669,#670,#671,#672,#673,#674));
#154=EDGE_LOOP('',(#675,#676,#677,#678));
#155=EDGE_LOOP('',(#679,#680,#681,#682));
#156=EDGE_LOOP('',(#683,#684,#685,#686));
#157=ELLIPSE('',#780,1.4142135623731,1.);
#158=ELLIPSE('',#781,1.41421356237309,1.);
#159=ELLIPSE('',#783,1.41421356237309,1.);
#160=ELLIPSE('',#785,1.4142135623731,1.);
#161=ELLIPSE('',#791,1.41421356237309,1.);
#162=ELLIPSE('',#792,1.41421356237309,1.);
#163=ELLIPSE('',#794,1.4142135623731,1.);
#164=ELLIPSE('',#796,1.4142135623731,1.);
#165=ELLIPSE('',#801,1.41421356237309,1.);
#166=ELLIPSE('',#802,1.41421356237309,1.);
#167=ELLIPSE('',#804,1.41421356237309,1.);
#168=ELLIPSE('',#805,1.41421356237309,1.);
#169=ELLIPSE('',#811,1.4142135623731,1.);
#170=ELLIPSE('',#812,1.4142135623731,1.);
#171=ELLIPSE('',#814,1.41421356237309,1.);
#172=ELLIPSE('',#816,1.41421356237309,1.);
#173=ELLIPSE('',#825,2.23606797749979,2.);
#174=ELLIPSE('',#826,2.23606797749979,2.);
#175=ELLIPSE('',#828,2.23606797749979,2.);
#176=ELLIPSE('',#837,2.23606797749979,2.);
#177=ELLIPSE('',#845,2.23606797749979,2.);
#178=ELLIPSE('',#846,2.23606797749979,2.);
#179=ELLIPSE('',#848,2.23606797749979,2.);
#180=ELLIPSE('',#857,2.23606797749979,2.);
#181=LINE('',#1109,#247);
#182=LINE('',#1113,#248);
#183=LINE('',#1117,#249);
#184=LINE('',#1119,#250);
#185=LINE('',#1123,#251);
#186=LINE('',#1125,#252);
#187=LINE('',#1128,#253);
#188=LINE('',#1129,#254);
#189=LINE('',#1132,#255);
#190=LINE('',#1134,#256);
#191=LINE('',#1136,#257);
#192=LINE('',#1138,#258);
#193=LINE('',#1139,#259);
#194=LINE('',#1142,#260);
#195=LINE('',#1144,#261);
#196=LINE('',#1146,#262);
#197=LINE('',#1147,#263);
#198=LINE('',#1150,#264);
#199=LINE('',#1152,#265);
#200=LINE('',#1153,#266);
#201=LINE('',#1156,#267);
#202=LINE('',#1157,#268);
#203=LINE('',#1162,#269);
#204=LINE('',#1167,#270);
#205=LINE('',#1171,#271);
#206=LINE('',#1173,#272);
#207=LINE('',#1176,#273);
#208=LINE('',#1178,#274);
#209=LINE('',#1179,#275);
#210=LINE('',#1182,#276);
#211=LINE('',#1183,#277);
#212=LINE('',#1187,#278);
#213=LINE('',#1192,#279);
#214=LINE('',#1196,#280);
#215=LINE('',#1199,#281);
#216=LINE('',#1200,#282);
#217=LINE('',#1202,#283);
#218=LINE('',#1205,#284);
#219=LINE('',#1207,#285);
#220=LINE('',#1209,#286);
#221=LINE('',#1211,#287);
#222=LINE('',#1212,#288);
#223=LINE('',#1215,#289);
#224=LINE('',#1217,#290);
#225=LINE('',#1219,#291);
#226=LINE('',#1220,#292);
#227=LINE('',#1222,#293);
#228=LINE('',#1231,#294);
#229=LINE('',#1233,#295);
#230=LINE('',#1235,#296);
#231=LINE('',#1244,#297);
#232=LINE('',#1281,#298);
#233=LINE('',#1284,#299);
#234=LINE('',#1287,#300);
#235=LINE('',#1288,#301);
#236=LINE('',#1291,#302);
#237=LINE('',#1331,#303);
#238=LINE('',#1339,#304);
#239=LINE('',#1376,#305);
#240=LINE('',#1379,#306);
#241=LINE('',#1382,#307);
#242=LINE('',#1383,#308);
#243=LINE('',#1386,#309);
#244=LINE('',#1425,#310);
#245=LINE('',#1428,#311);
#246=LINE('',#1430,#312);
#247=VECTOR('',#869,10.);
#248=VECTOR('',#872,10.);
#249=VECTOR('',#877,10.);
#250=VECTOR('',#878,10.);
#251=VECTOR('',#883,10.);
#252=VECTOR('',#884,10.);
#253=VECTOR('',#889,10.);
#254=VECTOR('',#890,10.);
#255=VECTOR('',#893,10.);
#256=VECTOR('',#894,10.);
#257=VECTOR('',#895,10.);
#258=VECTOR('',#896,10.);
#259=VECTOR('',#897,10.);
#260=VECTOR('',#898,10.);
#261=VECTOR('',#899,10.);
#262=VECTOR('',#900,10.);
#263=VECTOR('',#901,10.);
#264=VECTOR('',#904,10.);
#265=VECTOR('',#905,10.);
#266=VECTOR('',#906,10.);
#267=VECTOR('',#909,10.);
#268=VECTOR('',#910,10.);
#269=VECTOR('',#915,10.);
#270=VECTOR('',#922,10.);
#271=VECTOR('',#927,10.);
#272=VECTOR('',#930,10.);
#273=VECTOR('',#933,10.);
#274=VECTOR('',#934,10.);
#275=VECTOR('',#935,10.);
#276=VECTOR('',#938,10.);
#277=VECTOR('',#939,10.);
#278=VECTOR('',#942,10.);
#279=VECTOR('',#949,10.);
#280=VECTOR('',#952,10.);
#281=VECTOR('',#957,10.);
#282=VECTOR('',#958,10.);
#283=VECTOR('',#961,10.);
#284=VECTOR('',#964,10.);
#285=VECTOR('',#965,10.);
#286=VECTOR('',#966,10.);
#287=VECTOR('',#967,10.);
#288=VECTOR('',#968,10.);
#289=VECTOR('',#969,10.);
#290=VECTOR('',#970,10.);
#291=VECTOR('',#971,10.);
#292=VECTOR('',#972,10.);
#293=VECTOR('',#975,10.);
#294=VECTOR('',#990,10.);
#295=VECTOR('',#993,10.);
#296=VECTOR('',#996,10.);
#297=VECTOR('',#1007,10.);
#298=VECTOR('',#1016,10.);
#299=VECTOR('',#1019,10.);
#300=VECTOR('',#1022,10.);
#301=VECTOR('',#1023,10.);
#302=VECTOR('',#1026,10.);
#303=VECTOR('',#1043,10.);
#304=VECTOR('',#1054,10.);
#305=VECTOR('',#1063,10.);
#306=VECTOR('',#1066,10.);
#307=VECTOR('',#1069,10.);
#308=VECTOR('',#1070,10.);
#309=VECTOR('',#1073,10.);
#310=VECTOR('',#1090,10.);
#311=VECTOR('',#1095,10.);
#312=VECTOR('',#1098,10.);
#313=VERTEX_POINT('',#1107);
#314=VERTEX_POINT('',#1108);
#315=VERTEX_POINT('',#1110);
#316=VERTEX_POINT('',#1112);
#317=VERTEX_POINT('',#1116);
#318=VERTEX_POINT('',#1118);
#319=VERTEX_POINT('',#1122);
#320=VERTEX_POINT('',#1124);
#321=VERTEX_POINT('',#1131);
#322=VERTEX_POINT('',#1133);
#323=VERTEX_POINT('',#1135);
#324=VERTEX_POINT('',#1137);
#325=VERTEX_POINT('',#1140);
#326=VERTEX_POINT('',#1141);
#327=VERTEX_POINT('',#1143);
#328=VERTEX_POINT('',#1145);
#329=VERTEX_POINT('',#1149);
#330=VERTEX_POINT('',#1151);
#331=VERTEX_POINT('',#1155);
#332=VERTEX_POINT('',#1159);
#333=VERTEX_POINT('',#1161);
#334=VERTEX_POINT('',#1165);
#335=VERTEX_POINT('',#1169);
#336=VERTEX_POINT('',#1175);
#337=VERTEX_POINT('',#1177);
#338=VERTEX_POINT('',#1181);
#339=VERTEX_POINT('',#1185);
#340=VERTEX_POINT('',#1186);
#341=VERTEX_POINT('',#1191);
#342=VERTEX_POINT('',#1193);
#343=VERTEX_POINT('',#1195);
#344=VERTEX_POINT('',#1204);
#345=VERTEX_POINT('',#1206);
#346=VERTEX_POINT('',#1208);
#347=VERTEX_POINT('',#1210);
#348=VERTEX_POINT('',#1213);
#349=VERTEX_POINT('',#1214);
#350=VERTEX_POINT('',#1216);
#351=VERTEX_POINT('',#1218);
#352=VERTEX_POINT('',#1229);
#353=VERTEX_POINT('',#1237);
#354=VERTEX_POINT('',#1239);
#355=VERTEX_POINT('',#1243);
#356=VERTEX_POINT('',#1276);
#357=VERTEX_POINT('',#1280);
#358=VERTEX_POINT('',#1282);
#359=VERTEX_POINT('',#1286);
#360=VERTEX_POINT('',#1290);
#361=VERTEX_POINT('',#1330);
#362=VERTEX_POINT('',#1334);
#363=VERTEX_POINT('',#1338);
#364=VERTEX_POINT('',#1371);
#365=VERTEX_POINT('',#1375);
#366=VERTEX_POINT('',#1377);
#367=VERTEX_POINT('',#1381);
#368=VERTEX_POINT('',#1385);
#369=EDGE_CURVE('',#313,#314,#181,.T.);
#370=EDGE_CURVE('',#314,#315,#157,.T.);
#371=EDGE_CURVE('',#315,#316,#182,.T.);
#372=EDGE_CURVE('',#316,#313,#158,.T.);
#373=EDGE_CURVE('',#317,#313,#183,.T.);
#374=EDGE_CURVE('',#316,#318,#184,.T.);
#375=EDGE_CURVE('',#317,#318,#159,.T.);
#376=EDGE_CURVE('',#315,#319,#185,.T.);
#377=EDGE_CURVE('',#314,#320,#186,.T.);
#378=EDGE_CURVE('',#320,#319,#160,.T.);
#379=EDGE_CURVE('',#318,#319,#187,.T.);
#380=EDGE_CURVE('',#320,#317,#188,.T.);
#381=EDGE_CURVE('',#321,#315,#189,.T.);
#382=EDGE_CURVE('',#322,#321,#190,.T.);
#383=EDGE_CURVE('',#323,#322,#191,.T.);
#384=EDGE_CURVE('',#324,#323,#192,.T.);
#385=EDGE_CURVE('',#319,#324,#193,.T.);
#386=EDGE_CURVE('',#325,#326,#194,.T.);
#387=EDGE_CURVE('',#327,#325,#195,.T.);
#388=EDGE_CURVE('',#328,#327,#196,.T.);
#389=EDGE_CURVE('',#326,#328,#197,.T.);
#390=EDGE_CURVE('',#329,#314,#198,.T.);
#391=EDGE_CURVE('',#330,#329,#199,.T.);
#392=EDGE_CURVE('',#320,#330,#200,.F.);
#393=EDGE_CURVE('',#331,#313,#201,.T.);
#394=EDGE_CURVE('',#329,#331,#202,.T.);
#395=EDGE_CURVE('',#326,#332,#161,.T.);
#396=EDGE_CURVE('',#332,#333,#203,.T.);
#397=EDGE_CURVE('',#325,#333,#162,.T.);
#398=EDGE_CURVE('',#328,#334,#163,.T.);
#399=EDGE_CURVE('',#334,#332,#204,.T.);
#400=EDGE_CURVE('',#327,#335,#164,.T.);
#401=EDGE_CURVE('',#335,#334,#205,.T.);
#402=EDGE_CURVE('',#333,#335,#206,.T.);
#403=EDGE_CURVE('',#336,#333,#207,.T.);
#404=EDGE_CURVE('',#337,#336,#208,.T.);
#405=EDGE_CURVE('',#335,#337,#209,.T.);
#406=EDGE_CURVE('',#332,#338,#210,.T.);
#407=EDGE_CURVE('',#336,#338,#211,.T.);
#408=EDGE_CURVE('',#339,#340,#212,.T.);
#409=EDGE_CURVE('',#340,#329,#165,.T.);
#410=EDGE_CURVE('',#331,#339,#166,.T.);
#411=EDGE_CURVE('',#341,#330,#213,.T.);
#412=EDGE_CURVE('',#330,#342,#167,.T.);
#413=EDGE_CURVE('',#342,#343,#214,.T.);
#414=EDGE_CURVE('',#343,#341,#168,.T.);
#415=EDGE_CURVE('',#331,#341,#215,.T.);
#416=EDGE_CURVE('',#343,#339,#216,.T.);
#417=EDGE_CURVE('',#342,#340,#217,.T.);
#418=EDGE_CURVE('',#344,#342,#218,.T.);
#419=EDGE_CURVE('',#345,#344,#219,.T.);
#420=EDGE_CURVE('',#346,#345,#220,.T.);
#421=EDGE_CURVE('',#347,#346,#221,.T.);
#422=EDGE_CURVE('',#340,#347,#222,.T.);
#423=EDGE_CURVE('',#348,#349,#223,.T.);
#424=EDGE_CURVE('',#350,#348,#224,.T.);
#425=EDGE_CURVE('',#351,#350,#225,.T.);
#426=EDGE_CURVE('',#349,#351,#226,.T.);
#427=EDGE_CURVE('',#317,#341,#227,.F.);
#428=EDGE_CURVE('',#349,#336,#169,.T.);
#429=EDGE_CURVE('',#348,#338,#170,.T.);
#430=EDGE_CURVE('',#351,#337,#171,.T.);
#431=EDGE_CURVE('',#350,#352,#172,.T.);
#432=EDGE_CURVE('',#352,#337,#228,.T.);
#433=EDGE_CURVE('',#338,#352,#229,.T.);
#434=EDGE_CURVE('',#352,#334,#230,.T.);
#435=EDGE_CURVE('',#353,#346,#19,.T.);
#436=EDGE_CURVE('',#346,#354,#20,.T.);
#437=EDGE_CURVE('',#354,#353,#21,.T.);
#438=EDGE_CURVE('',#353,#355,#231,.T.);
#439=EDGE_CURVE('',#355,#347,#22,.T.);
#440=EDGE_CURVE('',#355,#356,#173,.T.);
#441=EDGE_CURVE('',#356,#347,#174,.T.);
#442=EDGE_CURVE('',#355,#357,#232,.T.);
#443=EDGE_CURVE('',#358,#357,#175,.T.);
#444=EDGE_CURVE('',#358,#356,#233,.T.);
#445=EDGE_CURVE('',#359,#353,#234,.T.);
#446=EDGE_CURVE('',#357,#359,#235,.T.);
#447=EDGE_CURVE('',#354,#360,#236,.T.);
#448=EDGE_CURVE('',#359,#360,#23,.T.);
#449=EDGE_CURVE('',#322,#359,#24,.T.);
#450=EDGE_CURVE('',#360,#322,#25,.T.);
#451=EDGE_CURVE('',#321,#357,#26,.T.);
#452=EDGE_CURVE('',#321,#358,#176,.T.);
#453=EDGE_CURVE('',#360,#361,#237,.T.);
#454=EDGE_CURVE('',#323,#361,#27,.T.);
#455=EDGE_CURVE('',#362,#323,#28,.T.);
#456=EDGE_CURVE('',#361,#362,#29,.T.);
#457=EDGE_CURVE('',#362,#363,#238,.T.);
#458=EDGE_CURVE('',#363,#324,#30,.T.);
#459=EDGE_CURVE('',#363,#364,#177,.T.);
#460=EDGE_CURVE('',#364,#324,#178,.T.);
#461=EDGE_CURVE('',#363,#365,#239,.T.);
#462=EDGE_CURVE('',#366,#365,#179,.T.);
#463=EDGE_CURVE('',#366,#364,#240,.T.);
#464=EDGE_CURVE('',#367,#362,#241,.T.);
#465=EDGE_CURVE('',#365,#367,#242,.T.);
#466=EDGE_CURVE('',#361,#368,#243,.T.);
#467=EDGE_CURVE('',#367,#368,#31,.T.);
#468=EDGE_CURVE('',#345,#367,#32,.T.);
#469=EDGE_CURVE('',#368,#345,#33,.T.);
#470=EDGE_CURVE('',#344,#365,#34,.T.);
#471=EDGE_CURVE('',#344,#366,#180,.T.);
#472=EDGE_CURVE('',#368,#354,#244,.T.);
#473=EDGE_CURVE('',#364,#358,#245,.T.);
#474=EDGE_CURVE('',#356,#366,#246,.T.);
#475=ORIENTED_EDGE('',*,*,#369,.T.);
#476=ORIENTED_EDGE('',*,*,#370,.T.);
#477=ORIENTED_EDGE('',*,*,#371,.T.);
#478=ORIENTED_EDGE('',*,*,#372,.T.);
#479=ORIENTED_EDGE('',*,*,#373,.T.);
#480=ORIENTED_EDGE('',*,*,#372,.F.);
#481=ORIENTED_EDGE('',*,*,#374,.T.);
#482=ORIENTED_EDGE('',*,*,#375,.F.);
#483=ORIENTED_EDGE('',*,*,#376,.F.);
#484=ORIENTED_EDGE('',*,*,#370,.F.);
#485=ORIENTED_EDGE('',*,*,#377,.T.);
#486=ORIENTED_EDGE('',*,*,#378,.T.);
#487=ORIENTED_EDGE('',*,*,#379,.T.);
#488=ORIENTED_EDGE('',*,*,#378,.F.);
#489=ORIENTED_EDGE('',*,*,#380,.T.);
#490=ORIENTED_EDGE('',*,*,#375,.T.);
#491=ORIENTED_EDGE('',*,*,#379,.F.);
#492=ORIENTED_EDGE('',*,*,#374,.F.);
#493=ORIENTED_EDGE('',*,*,#371,.F.);
#494=ORIENTED_EDGE('',*,*,#381,.F.);
#495=ORIENTED_EDGE('',*,*,#382,.F.);
#496=ORIENTED_EDGE('',*,*,#383,.F.);
#497=ORIENTED_EDGE('',*,*,#384,.F.);
#498=ORIENTED_EDGE('',*,*,#385,.F.);
#499=ORIENTED_EDGE('',*,*,#386,.F.);
#500=ORIENTED_EDGE('',*,*,#387,.F.);
#501=ORIENTED_EDGE('',*,*,#388,.F.);
#502=ORIENTED_EDGE('',*,*,#389,.F.);
#503=ORIENTED_EDGE('',*,*,#377,.F.);
#504=ORIENTED_EDGE('',*,*,#390,.F.);
#505=ORIENTED_EDGE('',*,*,#391,.F.);
#506=ORIENTED_EDGE('',*,*,#392,.F.);
#507=ORIENTED_EDGE('',*,*,#369,.F.);
#508=ORIENTED_EDGE('',*,*,#393,.F.);
#509=ORIENTED_EDGE('',*,*,#394,.F.);
#510=ORIENTED_EDGE('',*,*,#390,.T.);
#511=ORIENTED_EDGE('',*,*,#386,.T.);
#512=ORIENTED_EDGE('',*,*,#395,.T.);
#513=ORIENTED_EDGE('',*,*,#396,.T.);
#514=ORIENTED_EDGE('',*,*,#397,.F.);
#515=ORIENTED_EDGE('',*,*,#389,.T.);
#516=ORIENTED_EDGE('',*,*,#398,.T.);
#517=ORIENTED_EDGE('',*,*,#399,.T.);
#518=ORIENTED_EDGE('',*,*,#395,.F.);
#519=ORIENTED_EDGE('',*,*,#388,.T.);
#520=ORIENTED_EDGE('',*,*,#400,.T.);
#521=ORIENTED_EDGE('',*,*,#401,.T.);
#522=ORIENTED_EDGE('',*,*,#398,.F.);
#523=ORIENTED_EDGE('',*,*,#402,.T.);
#524=ORIENTED_EDGE('',*,*,#400,.F.);
#525=ORIENTED_EDGE('',*,*,#387,.T.);
#526=ORIENTED_EDGE('',*,*,#397,.T.);
#527=ORIENTED_EDGE('',*,*,#402,.F.);
#528=ORIENTED_EDGE('',*,*,#403,.F.);
#529=ORIENTED_EDGE('',*,*,#404,.F.);
#530=ORIENTED_EDGE('',*,*,#405,.F.);
#531=ORIENTED_EDGE('',*,*,#396,.F.);
#532=ORIENTED_EDGE('',*,*,#406,.T.);
#533=ORIENTED_EDGE('',*,*,#407,.F.);
#534=ORIENTED_EDGE('',*,*,#403,.T.);
#535=ORIENTED_EDGE('',*,*,#408,.T.);
#536=ORIENTED_EDGE('',*,*,#409,.T.);
#537=ORIENTED_EDGE('',*,*,#394,.T.);
#538=ORIENTED_EDGE('',*,*,#410,.T.);
#539=ORIENTED_EDGE('',*,*,#411,.T.);
#540=ORIENTED_EDGE('',*,*,#412,.T.);
#541=ORIENTED_EDGE('',*,*,#413,.T.);
#542=ORIENTED_EDGE('',*,*,#414,.T.);
#543=ORIENTED_EDGE('',*,*,#415,.T.);
#544=ORIENTED_EDGE('',*,*,#414,.F.);
#545=ORIENTED_EDGE('',*,*,#416,.T.);
#546=ORIENTED_EDGE('',*,*,#410,.F.);
#547=ORIENTED_EDGE('',*,*,#417,.F.);
#548=ORIENTED_EDGE('',*,*,#412,.F.);
#549=ORIENTED_EDGE('',*,*,#391,.T.);
#550=ORIENTED_EDGE('',*,*,#409,.F.);
#551=ORIENTED_EDGE('',*,*,#408,.F.);
#552=ORIENTED_EDGE('',*,*,#416,.F.);
#553=ORIENTED_EDGE('',*,*,#413,.F.);
#554=ORIENTED_EDGE('',*,*,#418,.F.);
#555=ORIENTED_EDGE('',*,*,#419,.F.);
#556=ORIENTED_EDGE('',*,*,#420,.F.);
#557=ORIENTED_EDGE('',*,*,#421,.F.);
#558=ORIENTED_EDGE('',*,*,#422,.F.);
#559=ORIENTED_EDGE('',*,*,#423,.F.);
#560=ORIENTED_EDGE('',*,*,#424,.F.);
#561=ORIENTED_EDGE('',*,*,#425,.F.);
#562=ORIENTED_EDGE('',*,*,#426,.F.);
#563=ORIENTED_EDGE('',*,*,#380,.F.);
#564=ORIENTED_EDGE('',*,*,#392,.T.);
#565=ORIENTED_EDGE('',*,*,#411,.F.);
#566=ORIENTED_EDGE('',*,*,#427,.F.);
#567=ORIENTED_EDGE('',*,*,#423,.T.);
#568=ORIENTED_EDGE('',*,*,#428,.T.);
#569=ORIENTED_EDGE('',*,*,#407,.T.);
#570=ORIENTED_EDGE('',*,*,#429,.F.);
#571=ORIENTED_EDGE('',*,*,#426,.T.);
#572=ORIENTED_EDGE('',*,*,#430,.T.);
#573=ORIENTED_EDGE('',*,*,#404,.T.);
#574=ORIENTED_EDGE('',*,*,#428,.F.);
#575=ORIENTED_EDGE('',*,*,#425,.T.);
#576=ORIENTED_EDGE('',*,*,#431,.T.);
#577=ORIENTED_EDGE('',*,*,#432,.T.);
#578=ORIENTED_EDGE('',*,*,#430,.F.);
#579=ORIENTED_EDGE('',*,*,#433,.T.);
#580=ORIENTED_EDGE('',*,*,#431,.F.);
#581=ORIENTED_EDGE('',*,*,#424,.T.);
#582=ORIENTED_EDGE('',*,*,#429,.T.);
#583=ORIENTED_EDGE('',*,*,#399,.F.);
#584=ORIENTED_EDGE('',*,*,#434,.F.);
#585=ORIENTED_EDGE('',*,*,#433,.F.);
#586=ORIENTED_EDGE('',*,*,#406,.F.);
#587=ORIENTED_EDGE('',*,*,#435,.T.);
#588=ORIENTED_EDGE('',*,*,#436,.T.);
#589=ORIENTED_EDGE('',*,*,#437,.T.);
#590=ORIENTED_EDGE('',*,*,#435,.F.);
#591=ORIENTED_EDGE('',*,*,#438,.T.);
#592=ORIENTED_EDGE('',*,*,#439,.T.);
#593=ORIENTED_EDGE('',*,*,#421,.T.);
#594=ORIENTED_EDGE('',*,*,#439,.F.);
#595=ORIENTED_EDGE('',*,*,#440,.T.);
#596=ORIENTED_EDGE('',*,*,#441,.T.);
#597=ORIENTED_EDGE('',*,*,#440,.F.);
#598=ORIENTED_EDGE('',*,*,#442,.T.);
#599=ORIENTED_EDGE('',*,*,#443,.F.);
#600=ORIENTED_EDGE('',*,*,#444,.T.);
#601=ORIENTED_EDGE('',*,*,#438,.F.);
#602=ORIENTED_EDGE('',*,*,#445,.F.);
#603=ORIENTED_EDGE('',*,*,#446,.F.);
#604=ORIENTED_EDGE('',*,*,#442,.F.);
#605=ORIENTED_EDGE('',*,*,#437,.F.);
#606=ORIENTED_EDGE('',*,*,#447,.T.);
#607=ORIENTED_EDGE('',*,*,#448,.F.);
#608=ORIENTED_EDGE('',*,*,#445,.T.);
#609=ORIENTED_EDGE('',*,*,#449,.T.);
#610=ORIENTED_EDGE('',*,*,#448,.T.);
#611=ORIENTED_EDGE('',*,*,#450,.T.);
#612=ORIENTED_EDGE('',*,*,#451,.T.);
#613=ORIENTED_EDGE('',*,*,#446,.T.);
#614=ORIENTED_EDGE('',*,*,#449,.F.);
#615=ORIENTED_EDGE('',*,*,#382,.T.);
#616=ORIENTED_EDGE('',*,*,#451,.F.);
#617=ORIENTED_EDGE('',*,*,#452,.T.);
#618=ORIENTED_EDGE('',*,*,#443,.T.);
#619=ORIENTED_EDGE('',*,*,#450,.F.);
#620=ORIENTED_EDGE('',*,*,#453,.T.);
#621=ORIENTED_EDGE('',*,*,#454,.F.);
#622=ORIENTED_EDGE('',*,*,#383,.T.);
#623=ORIENTED_EDGE('',*,*,#455,.T.);
#624=ORIENTED_EDGE('',*,*,#454,.T.);
#625=ORIENTED_EDGE('',*,*,#456,.T.);
#626=ORIENTED_EDGE('',*,*,#455,.F.);
#627=ORIENTED_EDGE('',*,*,#457,.T.);
#628=ORIENTED_EDGE('',*,*,#458,.T.);
#629=ORIENTED_EDGE('',*,*,#384,.T.);
#630=ORIENTED_EDGE('',*,*,#458,.F.);
#631=ORIENTED_EDGE('',*,*,#459,.T.);
#632=ORIENTED_EDGE('',*,*,#460,.T.);
#633=ORIENTED_EDGE('',*,*,#459,.F.);
#634=ORIENTED_EDGE('',*,*,#461,.T.);
#635=ORIENTED_EDGE('',*,*,#462,.F.);
#636=ORIENTED_EDGE('',*,*,#463,.T.);
#637=ORIENTED_EDGE('',*,*,#457,.F.);
#638=ORIENTED_EDGE('',*,*,#464,.F.);
#639=ORIENTED_EDGE('',*,*,#465,.F.);
#640=ORIENTED_EDGE('',*,*,#461,.F.);
#641=ORIENTED_EDGE('',*,*,#456,.F.);
#642=ORIENTED_EDGE('',*,*,#466,.T.);
#643=ORIENTED_EDGE('',*,*,#467,.F.);
#644=ORIENTED_EDGE('',*,*,#464,.T.);
#645=ORIENTED_EDGE('',*,*,#468,.T.);
#646=ORIENTED_EDGE('',*,*,#467,.T.);
#647=ORIENTED_EDGE('',*,*,#469,.T.);
#648=ORIENTED_EDGE('',*,*,#468,.F.);
#649=ORIENTED_EDGE('',*,*,#419,.T.);
#650=ORIENTED_EDGE('',*,*,#470,.T.);
#651=ORIENTED_EDGE('',*,*,#465,.T.);
#652=ORIENTED_EDGE('',*,*,#470,.F.);
#653=ORIENTED_EDGE('',*,*,#471,.T.);
#654=ORIENTED_EDGE('',*,*,#462,.T.);
#655=ORIENTED_EDGE('',*,*,#436,.F.);
#656=ORIENTED_EDGE('',*,*,#420,.T.);
#657=ORIENTED_EDGE('',*,*,#469,.F.);
#658=ORIENTED_EDGE('',*,*,#472,.T.);
#659=ORIENTED_EDGE('',*,*,#447,.F.);
#660=ORIENTED_EDGE('',*,*,#472,.F.);
#661=ORIENTED_EDGE('',*,*,#466,.F.);
#662=ORIENTED_EDGE('',*,*,#453,.F.);
#663=ORIENTED_EDGE('',*,*,#452,.F.);
#664=ORIENTED_EDGE('',*,*,#381,.T.);
#665=ORIENTED_EDGE('',*,*,#376,.T.);
#666=ORIENTED_EDGE('',*,*,#385,.T.);
#667=ORIENTED_EDGE('',*,*,#460,.F.);
#668=ORIENTED_EDGE('',*,*,#473,.T.);
#669=ORIENTED_EDGE('',*,*,#441,.F.);
#670=ORIENTED_EDGE('',*,*,#474,.T.);
#671=ORIENTED_EDGE('',*,*,#471,.F.);
#672=ORIENTED_EDGE('',*,*,#418,.T.);
#673=ORIENTED_EDGE('',*,*,#417,.T.);
#674=ORIENTED_EDGE('',*,*,#422,.T.);
#675=ORIENTED_EDGE('',*,*,#463,.F.);
#676=ORIENTED_EDGE('',*,*,#474,.F.);
#677=ORIENTED_EDGE('',*,*,#444,.F.);
#678=ORIENTED_EDGE('',*,*,#473,.F.);
#679=ORIENTED_EDGE('',*,*,#401,.F.);
#680=ORIENTED_EDGE('',*,*,#405,.T.);
#681=ORIENTED_EDGE('',*,*,#432,.F.);
#682=ORIENTED_EDGE('',*,*,#434,.T.);
#683=ORIENTED_EDGE('',*,*,#373,.F.);
#684=ORIENTED_EDGE('',*,*,#427,.T.);
#685=ORIENTED_EDGE('',*,*,#415,.F.);
#686=ORIENTED_EDGE('',*,*,#393,.T.);
#687=CYLINDRICAL_SURFACE('',#779,1.);
#688=CYLINDRICAL_SURFACE('',#782,1.);
#689=CYLINDRICAL_SURFACE('',#784,1.);
#690=CYLINDRICAL_SURFACE('',#786,1.);
#691=CYLINDRICAL_SURFACE('',#790,1.);
#692=CYLINDRICAL_SURFACE('',#793,1.);
#693=CYLINDRICAL_SURFACE('',#795,1.);
#694=CYLINDRICAL_SURFACE('',#797,1.);
#695=CYLINDRICAL_SURFACE('',#800,1.);
#696=CYLINDRICAL_SURFACE('',#803,1.);
#697=CYLINDRICAL_SURFACE('',#806,1.);
#698=CYLINDRICAL_SURFACE('',#807,1.);
#699=CYLINDRICAL_SURFACE('',#810,1.);
#700=CYLINDRICAL_SURFACE('',#813,1.);
#701=CYLINDRICAL_SURFACE('',#815,1.);
#702=CYLINDRICAL_SURFACE('',#817,1.);
#703=CYLINDRICAL_SURFACE('',#823,1.);
#704=CYLINDRICAL_SURFACE('',#827,2.);
#705=CYLINDRICAL_SURFACE('',#830,1.);
#706=CYLINDRICAL_SURFACE('',#835,1.);
#707=CYLINDRICAL_SURFACE('',#838,1.);
#708=CYLINDRICAL_SURFACE('',#843,1.);
#709=CYLINDRICAL_SURFACE('',#847,2.);
#710=CYLINDRICAL_SURFACE('',#850,1.);
#711=CYLINDRICAL_SURFACE('',#855,1.);
#712=CYLINDRICAL_SURFACE('',#858,1.);
#713=CYLINDRICAL_SURFACE('',#860,2.);
#714=CYLINDRICAL_SURFACE('',#861,2.);
#715=ADVANCED_FACE('',(#55),#687,.T.);
#716=ADVANCED_FACE('',(#56),#688,.T.);
#717=ADVANCED_FACE('',(#57),#689,.T.);
#718=ADVANCED_FACE('',(#58),#690,.T.);
#719=ADVANCED_FACE('',(#59,#39),#41,.T.);
#720=ADVANCED_FACE('',(#60),#42,.F.);
#721=ADVANCED_FACE('',(#61),#43,.F.);
#722=ADVANCED_FACE('',(#62),#691,.T.);
#723=ADVANCED_FACE('',(#63),#692,.T.);
#724=ADVANCED_FACE('',(#64),#693,.T.);
#725=ADVANCED_FACE('',(#65),#694,.T.);
#726=ADVANCED_FACE('',(#66),#44,.T.);
#727=ADVANCED_FACE('',(#67),#45,.F.);
#728=ADVANCED_FACE('',(#68),#695,.T.);
#729=ADVANCED_FACE('',(#69),#696,.T.);
#730=ADVANCED_FACE('',(#70),#697,.T.);
#731=ADVANCED_FACE('',(#71),#698,.T.);
#732=ADVANCED_FACE('',(#72,#40),#46,.T.);
#733=ADVANCED_FACE('',(#73),#47,.F.);
#734=ADVANCED_FACE('',(#74),#699,.T.);
#735=ADVANCED_FACE('',(#75),#700,.T.);
#736=ADVANCED_FACE('',(#76),#701,.T.);
#737=ADVANCED_FACE('',(#77),#702,.T.);
#738=ADVANCED_FACE('',(#78),#48,.T.);
#739=ADVANCED_FACE('',(#79),#35,.T.);
#740=ADVANCED_FACE('',(#80),#703,.T.);
#741=ADVANCED_FACE('',(#81),#15,.F.);
#742=ADVANCED_FACE('',(#82),#704,.T.);
#743=ADVANCED_FACE('',(#83),#49,.T.);
#744=ADVANCED_FACE('',(#84),#705,.T.);
#745=ADVANCED_FACE('',(#85),#36,.T.);
#746=ADVANCED_FACE('',(#86),#706,.T.);
#747=ADVANCED_FACE('',(#87),#16,.F.);
#748=ADVANCED_FACE('',(#88),#707,.T.);
#749=ADVANCED_FACE('',(#89),#37,.T.);
#750=ADVANCED_FACE('',(#90),#708,.T.);
#751=ADVANCED_FACE('',(#91),#17,.F.);
#752=ADVANCED_FACE('',(#92),#709,.T.);
#753=ADVANCED_FACE('',(#93),#50,.T.);
#754=ADVANCED_FACE('',(#94),#710,.T.);
#755=ADVANCED_FACE('',(#95),#38,.T.);
#756=ADVANCED_FACE('',(#96),#711,.T.);
#757=ADVANCED_FACE('',(#97),#18,.F.);
#758=ADVANCED_FACE('',(#98),#712,.T.);
#759=ADVANCED_FACE('',(#99),#51,.T.);
#760=ADVANCED_FACE('',(#100),#713,.T.);
#761=ADVANCED_FACE('',(#101),#714,.T.);
#762=ADVANCED_FACE('',(#102),#52,.T.);
#763=ADVANCED_FACE('',(#103),#53,.F.);
#764=ADVANCED_FACE('',(#104),#54,.T.);
#765=CLOSED_SHELL('',(#715,#716,#717,#718,#719,#720,#721,#722,#723,#724,
#725,#726,#727,#728,#729,#730,#731,#732,#733,#734,#735,#736,#737,#738,#739,
#740,#741,#742,#743,#744,#745,#746,#747,#748,#749,#750,#751,#752,#753,#754,
#755,#756,#757,#758,#759,#760,#761,#762,#763,#764));
#766=DERIVED_UNIT_ELEMENT(#768,1.);
#767=DERIVED_UNIT_ELEMENT(#1439,-3.);
#768=(
MASS_UNIT()
NAMED_UNIT(*)
SI_UNIT(.KILO.,.GRAM.)
);
#769=DERIVED_UNIT((#766,#767));
#770=MEASURE_REPRESENTATION_ITEM('density measure',
POSITIVE_RATIO_MEASURE(7850.),#769);
#771=PROPERTY_DEFINITION_REPRESENTATION(#776,#773);
#772=PROPERTY_DEFINITION_REPRESENTATION(#777,#774);
#773=REPRESENTATION('material name',(#775),#1436);
#774=REPRESENTATION('density',(#770),#1436);
#775=DESCRIPTIVE_REPRESENTATION_ITEM('Steel','Steel');
#776=PROPERTY_DEFINITION('material property','material name',#1446);
#777=PROPERTY_DEFINITION('material property','density of part',#1446);
#778=AXIS2_PLACEMENT_3D('',#1105,#865,#866);
#779=AXIS2_PLACEMENT_3D('',#1106,#867,#868);
#780=AXIS2_PLACEMENT_3D('',#1111,#870,#871);
#781=AXIS2_PLACEMENT_3D('',#1114,#873,#874);
#782=AXIS2_PLACEMENT_3D('',#1115,#875,#876);
#783=AXIS2_PLACEMENT_3D('',#1120,#879,#880);
#784=AXIS2_PLACEMENT_3D('',#1121,#881,#882);
#785=AXIS2_PLACEMENT_3D('',#1126,#885,#886);
#786=AXIS2_PLACEMENT_3D('',#1127,#887,#888);
#787=AXIS2_PLACEMENT_3D('',#1130,#891,#892);
#788=AXIS2_PLACEMENT_3D('',#1148,#902,#903);
#789=AXIS2_PLACEMENT_3D('',#1154,#907,#908);
#790=AXIS2_PLACEMENT_3D('',#1158,#911,#912);
#791=AXIS2_PLACEMENT_3D('',#1160,#913,#914);
#792=AXIS2_PLACEMENT_3D('',#1163,#916,#917);
#793=AXIS2_PLACEMENT_3D('',#1164,#918,#919);
#794=AXIS2_PLACEMENT_3D('',#1166,#920,#921);
#795=AXIS2_PLACEMENT_3D('',#1168,#923,#924);
#796=AXIS2_PLACEMENT_3D('',#1170,#925,#926);
#797=AXIS2_PLACEMENT_3D('',#1172,#928,#929);
#798=AXIS2_PLACEMENT_3D('',#1174,#931,#932);
#799=AXIS2_PLACEMENT_3D('',#1180,#936,#937);
#800=AXIS2_PLACEMENT_3D('',#1184,#940,#941);
#801=AXIS2_PLACEMENT_3D('',#1188,#943,#944);
#802=AXIS2_PLACEMENT_3D('',#1189,#945,#946);
#803=AXIS2_PLACEMENT_3D('',#1190,#947,#948);
#804=AXIS2_PLACEMENT_3D('',#1194,#950,#951);
#805=AXIS2_PLACEMENT_3D('',#1197,#953,#954);
#806=AXIS2_PLACEMENT_3D('',#1198,#955,#956);
#807=AXIS2_PLACEMENT_3D('',#1201,#959,#960);
#808=AXIS2_PLACEMENT_3D('',#1203,#962,#963);
#809=AXIS2_PLACEMENT_3D('',#1221,#973,#974);
#810=AXIS2_PLACEMENT_3D('',#1223,#976,#977);
#811=AXIS2_PLACEMENT_3D('',#1224,#978,#979);
#812=AXIS2_PLACEMENT_3D('',#1225,#980,#981);
#813=AXIS2_PLACEMENT_3D('',#1226,#982,#983);
#814=AXIS2_PLACEMENT_3D('',#1227,#984,#985);
#815=AXIS2_PLACEMENT_3D('',#1228,#986,#987);
#816=AXIS2_PLACEMENT_3D('',#1230,#988,#989);
#817=AXIS2_PLACEMENT_3D('',#1232,#991,#992);
#818=AXIS2_PLACEMENT_3D('',#1234,#994,#995);
#819=AXIS2_PLACEMENT_3D('',#1236,#997,#998);
#820=AXIS2_PLACEMENT_3D('',#1238,#999,#1000);
#821=AXIS2_PLACEMENT_3D('',#1240,#1001,#1002);
#822=AXIS2_PLACEMENT_3D('',#1241,#1003,#1004);
#823=AXIS2_PLACEMENT_3D('',#1242,#1005,#1006);
#824=AXIS2_PLACEMENT_3D('',#1245,#1008,#1009);
#825=AXIS2_PLACEMENT_3D('',#1277,#1010,#1011);
#826=AXIS2_PLACEMENT_3D('',#1278,#1012,#1013);
#827=AXIS2_PLACEMENT_3D('',#1279,#1014,#1015);
#828=AXIS2_PLACEMENT_3D('',#1283,#1017,#1018);
#829=AXIS2_PLACEMENT_3D('',#1285,#1020,#1021);
#830=AXIS2_PLACEMENT_3D('',#1289,#1024,#1025);
#831=AXIS2_PLACEMENT_3D('',#1292,#1027,#1028);
#832=AXIS2_PLACEMENT_3D('',#1293,#1029,#1030);
#833=AXIS2_PLACEMENT_3D('',#1294,#1031,#1032);
#834=AXIS2_PLACEMENT_3D('',#1295,#1033,#1034);
#835=AXIS2_PLACEMENT_3D('',#1296,#1035,#1036);
#836=AXIS2_PLACEMENT_3D('',#1297,#1037,#1038);
#837=AXIS2_PLACEMENT_3D('',#1328,#1039,#1040);
#838=AXIS2_PLACEMENT_3D('',#1329,#1041,#1042);
#839=AXIS2_PLACEMENT_3D('',#1332,#1044,#1045);
#840=AXIS2_PLACEMENT_3D('',#1333,#1046,#1047);
#841=AXIS2_PLACEMENT_3D('',#1335,#1048,#1049);
#842=AXIS2_PLACEMENT_3D('',#1336,#1050,#1051);
#843=AXIS2_PLACEMENT_3D('',#1337,#1052,#1053);
#844=AXIS2_PLACEMENT_3D('',#1340,#1055,#1056);
#845=AXIS2_PLACEMENT_3D('',#1372,#1057,#1058);
#846=AXIS2_PLACEMENT_3D('',#1373,#1059,#1060);
#847=AXIS2_PLACEMENT_3D('',#1374,#1061,#1062);
#848=AXIS2_PLACEMENT_3D('',#1378,#1064,#1065);
#849=AXIS2_PLACEMENT_3D('',#1380,#1067,#1068);
#850=AXIS2_PLACEMENT_3D('',#1384,#1071,#1072);
#851=AXIS2_PLACEMENT_3D('',#1387,#1074,#1075);
#852=AXIS2_PLACEMENT_3D('',#1388,#1076,#1077);
#853=AXIS2_PLACEMENT_3D('',#1389,#1078,#1079);
#854=AXIS2_PLACEMENT_3D('',#1390,#1080,#1081);
#855=AXIS2_PLACEMENT_3D('',#1391,#1082,#1083);
#856=AXIS2_PLACEMENT_3D('',#1392,#1084,#1085);
#857=AXIS2_PLACEMENT_3D('',#1423,#1086,#1087);
#858=AXIS2_PLACEMENT_3D('',#1424,#1088,#1089);
#859=AXIS2_PLACEMENT_3D('',#1426,#1091,#1092);
#860=AXIS2_PLACEMENT_3D('',#1427,#1093,#1094);
#861=AXIS2_PLACEMENT_3D('',#1429,#1096,#1097);
#862=AXIS2_PLACEMENT_3D('',#1431,#1099,#1100);
#863=AXIS2_PLACEMENT_3D('',#1432,#1101,#1102);
#864=AXIS2_PLACEMENT_3D('',#1433,#1103,#1104);
#865=DIRECTION('axis',(0.,0.,1.));
#866=DIRECTION('refdir',(1.,0.,0.));
#867=DIRECTION('center_axis',(0.,0.,1.));
#868=DIRECTION('ref_axis',(-0.707106781186544,-0.707106781186551,0.));
#869=DIRECTION('',(0.,0.,1.));
#870=DIRECTION('center_axis',(0.,0.707106781186548,-0.707106781186548));
#871=DIRECTION('ref_axis',(0.,-0.707106781186547,-0.707106781186547));
#872=DIRECTION('',(0.,0.,-1.));
#873=DIRECTION('center_axis',(0.,0.707106781186546,0.707106781186549));
#874=DIRECTION('ref_axis',(0.,0.707106781186549,-0.707106781186546));
#875=DIRECTION('center_axis',(0.,1.,0.));
#876=DIRECTION('ref_axis',(-0.707106781186549,0.,0.707106781186546));
#877=DIRECTION('',(0.,1.,0.));
#878=DIRECTION('',(0.,-1.,0.));
#879=DIRECTION('center_axis',(-3.14018491736755E-15,-0.707106781186546,
0.707106781186549));
#880=DIRECTION('ref_axis',(3.14018491736757E-15,0.707106781186549,0.707106781186546));
#881=DIRECTION('center_axis',(0.,-1.,0.));
#882=DIRECTION('ref_axis',(-0.707106781186551,0.,-0.707106781186544));
#883=DIRECTION('',(0.,-1.,0.));
#884=DIRECTION('',(0.,-1.,0.));
#885=DIRECTION('center_axis',(-3.14018491736754E-15,0.707106781186546,0.707106781186549));
#886=DIRECTION('ref_axis',(3.14018491736753E-15,0.707106781186549,-0.707106781186546));
#887=DIRECTION('center_axis',(0.,0.,-1.));
#888=DIRECTION('ref_axis',(-0.707106781186544,0.707106781186551,0.));
#889=DIRECTION('',(0.,0.,1.));
#890=DIRECTION('',(0.,0.,-1.));
#891=DIRECTION('center_axis',(-1.,0.,0.));
#892=DIRECTION('ref_axis',(0.,-1.,0.));
#893=DIRECTION('',(0.,-1.,0.));
#894=DIRECTION('',(0.,0.,1.));
#895=DIRECTION('',(0.,1.,0.));
#896=DIRECTION('',(0.,0.,-1.));
#897=DIRECTION('',(0.,-1.,0.));
#898=DIRECTION('',(0.,1.,0.));
#899=DIRECTION('',(0.,0.,1.));
#900=DIRECTION('',(0.,-1.,0.));
#901=DIRECTION('',(0.,0.,-1.));
#902=DIRECTION('center_axis',(0.,0.,1.));
#903=DIRECTION('ref_axis',(1.,0.,0.));
#904=DIRECTION('',(-1.,0.,0.));
#905=DIRECTION('',(0.,1.,0.));
#906=DIRECTION('',(-1.,0.,0.));
#907=DIRECTION('center_axis',(0.,1.,0.));
#908=DIRECTION('ref_axis',(-1.,0.,0.));
#909=DIRECTION('',(-1.,0.,0.));
#910=DIRECTION('',(0.,0.,-1.));
#911=DIRECTION('center_axis',(0.,-1.,0.));
#912=DIRECTION('ref_axis',(-0.707106781186549,0.,-0.707106781186546));
#913=DIRECTION('center_axis',(0.,-0.707106781186549,0.707106781186546));
#914=DIRECTION('ref_axis',(0.,0.707106781186546,0.707106781186549));
#915=DIRECTION('',(0.,-1.,0.));
#916=DIRECTION('center_axis',(0.,-0.707106781186546,-0.707106781186549));
#917=DIRECTION('ref_axis',(0.,0.707106781186549,-0.707106781186546));
#918=DIRECTION('center_axis',(0.,0.,-1.));
#919=DIRECTION('ref_axis',(-0.707106781186551,-0.707106781186544,0.));
#920=DIRECTION('center_axis',(0.,0.707106781186549,0.707106781186546));
#921=DIRECTION('ref_axis',(0.,-0.707106781186546,0.707106781186549));
#922=DIRECTION('',(0.,0.,1.));
#923=DIRECTION('center_axis',(0.,1.,0.));
#924=DIRECTION('ref_axis',(-0.70710678118655,0.,0.707106781186545));
#925=DIRECTION('center_axis',(7.85046229341889E-16,0.707106781186546,-0.707106781186549));
#926=DIRECTION('ref_axis',(7.85046229341885E-16,-0.707106781186549,-0.707106781186545));
#927=DIRECTION('',(0.,1.,0.));
#928=DIRECTION('center_axis',(0.,0.,1.));
#929=DIRECTION('ref_axis',(-0.707106781186548,0.707106781186548,0.));
#930=DIRECTION('',(0.,0.,-1.));
#931=DIRECTION('center_axis',(0.,1.,0.));
#932=DIRECTION('ref_axis',(0.,0.,1.));
#933=DIRECTION('',(-1.,0.,0.));
#934=DIRECTION('',(0.,0.,1.));
#935=DIRECTION('',(1.,0.,0.));
#936=DIRECTION('center_axis',(0.,0.,1.));
#937=DIRECTION('ref_axis',(0.,-1.,0.));
#938=DIRECTION('',(1.,0.,0.));
#939=DIRECTION('',(0.,1.,0.));
#940=DIRECTION('center_axis',(0.,0.,-1.));
#941=DIRECTION('ref_axis',(0.707106781186544,-0.707106781186551,0.));
#942=DIRECTION('',(0.,0.,1.));
#943=DIRECTION('center_axis',(3.14018491736755E-15,0.707106781186546,-0.707106781186549));
#944=DIRECTION('ref_axis',(3.14018491736757E-15,0.707106781186549,0.707106781186546));
#945=DIRECTION('center_axis',(3.14018491736755E-15,0.707106781186544,0.707106781186551));
#946=DIRECTION('ref_axis',(-3.14018491736758E-15,-0.707106781186551,0.707106781186544));
#947=DIRECTION('center_axis',(0.,0.,1.));
#948=DIRECTION('ref_axis',(0.707106781186544,0.707106781186551,0.));
#949=DIRECTION('',(0.,0.,1.));
#950=DIRECTION('center_axis',(0.,-0.707106781186546,-0.707106781186549));
#951=DIRECTION('ref_axis',(0.,0.707106781186549,-0.707106781186546));
#952=DIRECTION('',(0.,0.,-1.));
#953=DIRECTION('center_axis',(0.,-0.707106781186547,0.707106781186548));
#954=DIRECTION('ref_axis',(0.,-0.707106781186548,-0.707106781186547));
#955=DIRECTION('center_axis',(0.,-1.,0.));
#956=DIRECTION('ref_axis',(0.707106781186549,0.,0.707106781186546));
#957=DIRECTION('',(0.,-1.,0.));
#958=DIRECTION('',(0.,1.,0.));
#959=DIRECTION('center_axis',(0.,1.,0.));
#960=DIRECTION('ref_axis',(0.707106781186551,0.,-0.707106781186544));
#961=DIRECTION('',(0.,1.,0.));
#962=DIRECTION('center_axis',(1.,0.,0.));
#963=DIRECTION('ref_axis',(0.,1.,0.));
#964=DIRECTION('',(0.,1.,0.));
#965=DIRECTION('',(0.,0.,1.));
#966=DIRECTION('',(0.,-1.,0.));
#967=DIRECTION('',(0.,0.,-1.));
#968=DIRECTION('',(0.,1.,0.));
#969=DIRECTION('',(0.,-1.,0.));
#970=DIRECTION('',(0.,0.,1.));
#971=DIRECTION('',(0.,1.,0.));
#972=DIRECTION('',(0.,0.,-1.));
#973=DIRECTION('center_axis',(0.,-1.,0.));
#974=DIRECTION('ref_axis',(1.,0.,0.));
#975=DIRECTION('',(-1.,0.,0.));
#976=DIRECTION('center_axis',(0.,1.,0.));
#977=DIRECTION('ref_axis',(0.707106781186549,0.,-0.707106781186546));
#978=DIRECTION('center_axis',(0.,0.707106781186546,0.707106781186549));
#979=DIRECTION('ref_axis',(0.,-0.707106781186549,0.707106781186546));
#980=DIRECTION('center_axis',(0.,0.707106781186549,-0.707106781186546));
#981=DIRECTION('ref_axis',(0.,-0.707106781186546,-0.707106781186549));
#982=DIRECTION('center_axis',(0.,0.,-1.));
#983=DIRECTION('ref_axis',(0.707106781186548,0.707106781186548,0.));
#984=DIRECTION('center_axis',(-7.85046229341889E-16,-0.707106781186546,
0.707106781186549));
#985=DIRECTION('ref_axis',(7.85046229341892E-16,0.707106781186549,0.707106781186546));
#986=DIRECTION('center_axis',(0.,-1.,0.));
#987=DIRECTION('ref_axis',(0.70710678118655,0.,0.707106781186545));
#988=DIRECTION('center_axis',(0.,-0.707106781186549,-0.707106781186546));
#989=DIRECTION('ref_axis',(0.,0.707106781186546,-0.707106781186549));
#990=DIRECTION('',(0.,-1.,0.));
#991=DIRECTION('center_axis',(0.,0.,1.));
#992=DIRECTION('ref_axis',(0.707106781186551,-0.707106781186544,0.));
#993=DIRECTION('',(0.,0.,-1.));
#994=DIRECTION('center_axis',(0.,-1.,0.));
#995=DIRECTION('ref_axis',(0.,0.,-1.));
#996=DIRECTION('',(-1.,0.,0.));
#997=DIRECTION('center_axis',(-0.816496580927726,0.408248290463863,-0.408248290463863));
#998=DIRECTION('ref_axis',(0.577350269189626,0.577350269189626,-0.577350269189626));
#999=DIRECTION('center_axis',(0.,0.,-1.));
#1000=DIRECTION('ref_axis',(0.,1.,0.));
#1001=DIRECTION('center_axis',(0.,1.,0.));
#1002=DIRECTION('ref_axis',(0.70710678118655,0.,-0.707106781186545));
#1003=DIRECTION('center_axis',(1.,0.,0.));
#1004=DIRECTION('ref_axis',(0.,0.70710678118655,-0.707106781186545));
#1005=DIRECTION('center_axis',(0.,0.,1.));
#1006=DIRECTION('ref_axis',(0.707106781186548,0.707106781186548,0.));
#1007=DIRECTION('',(0.,0.,1.));
#1008=DIRECTION('center_axis',(0.,0.,-1.));
#1009=DIRECTION('ref_axis',(0.,1.,0.));
#1010=DIRECTION('center_axis',(0.894427190999916,-0.447213595499958,0.));
#1011=DIRECTION('ref_axis',(0.447213595499958,0.894427190999916,0.));
#1012=DIRECTION('center_axis',(-0.447213595499958,0.894427190999916,0.));
#1013=DIRECTION('ref_axis',(0.894427190999916,0.447213595499958,0.));
#1014=DIRECTION('center_axis',(-1.,0.,0.));
#1015=DIRECTION('ref_axis',(0.,0.707106781186546,0.707106781186549));
#1016=DIRECTION('',(-1.,0.,0.));
#1017=DIRECTION('center_axis',(-0.894427190999916,-0.447213595499958,0.));
#1018=DIRECTION('ref_axis',(-0.447213595499958,0.894427190999916,0.));
#1019=DIRECTION('',(1.,0.,0.));
#1020=DIRECTION('center_axis',(0.,1.,0.));
#1021=DIRECTION('ref_axis',(-1.,0.,0.));
#1022=DIRECTION('',(1.,0.,0.));
#1023=DIRECTION('',(0.,0.,-1.));
#1024=DIRECTION('center_axis',(1.,0.,0.));
#1025=DIRECTION('ref_axis',(0.,0.70710678118655,-0.707106781186545));
#1026=DIRECTION('',(-1.,0.,0.));
#1027=DIRECTION('center_axis',(-1.,0.,0.));
#1028=DIRECTION('ref_axis',(0.,0.70710678118655,-0.707106781186545));
#1029=DIRECTION('center_axis',(-0.816496580927726,-0.408248290463863,0.408248290463863));
#1030=DIRECTION('ref_axis',(-0.577350269189626,0.577350269189626,-0.577350269189626));
#1031=DIRECTION('center_axis',(0.,0.,-1.));
#1032=DIRECTION('ref_axis',(-1.,0.,0.));
#1033=DIRECTION('center_axis',(0.,1.,0.));
#1034=DIRECTION('ref_axis',(-0.70710678118655,0.,-0.707106781186545));
#1035=DIRECTION('center_axis',(0.,0.,-1.));
#1036=DIRECTION('ref_axis',(-0.707106781186544,0.707106781186551,0.));
#1037=DIRECTION('center_axis',(0.,0.,-1.));
#1038=DIRECTION('ref_axis',(-1.,0.,0.));
#1039=DIRECTION('center_axis',(0.447213595499958,0.894427190999916,0.));
#1040=DIRECTION('ref_axis',(-0.894427190999916,0.447213595499958,0.));
#1041=DIRECTION('center_axis',(0.,1.,0.));
#1042=DIRECTION('ref_axis',(-0.70710678118655,0.,-0.707106781186545));
#1043=DIRECTION('',(0.,-1.,0.));
#1044=DIRECTION('center_axis',(0.,-1.,0.));
#1045=DIRECTION('ref_axis',(-0.70710678118655,0.,-0.707106781186545));
#1046=DIRECTION('center_axis',(-0.816496580927726,0.408248290463863,0.408248290463863));
#1047=DIRECTION('ref_axis',(-0.577350269189626,-0.577350269189626,-0.577350269189626));
#1048=DIRECTION('center_axis',(0.,0.,-1.));
#1049=DIRECTION('ref_axis',(0.,-1.,0.));
#1050=DIRECTION('center_axis',(-1.,0.,0.));
#1051=DIRECTION('ref_axis',(0.,-0.70710678118655,-0.707106781186545));
#1052=DIRECTION('center_axis',(0.,0.,1.));
#1053=DIRECTION('ref_axis',(-0.707106781186548,-0.707106781186548,0.));
#1054=DIRECTION('',(0.,0.,1.));
#1055=DIRECTION('center_axis',(0.,0.,-1.));
#1056=DIRECTION('ref_axis',(0.,-1.,0.));
#1057=DIRECTION('center_axis',(-0.894427190999916,0.447213595499958,0.));
#1058=DIRECTION('ref_axis',(-0.447213595499958,-0.894427190999916,0.));
#1059=DIRECTION('center_axis',(0.447213595499958,-0.894427190999916,0.));
#1060=DIRECTION('ref_axis',(-0.894427190999916,-0.447213595499958,0.));
#1061=DIRECTION('center_axis',(1.,0.,0.));
#1062=DIRECTION('ref_axis',(0.,-0.707106781186546,0.707106781186549));
#1063=DIRECTION('',(1.,0.,0.));
#1064=DIRECTION('center_axis',(0.894427190999916,0.447213595499958,0.));
#1065=DIRECTION('ref_axis',(0.447213595499958,-0.894427190999916,0.));
#1066=DIRECTION('',(-1.,0.,0.));
#1067=DIRECTION('center_axis',(0.,-1.,0.));
#1068=DIRECTION('ref_axis',(1.,0.,0.));
#1069=DIRECTION('',(-1.,0.,0.));
#1070=DIRECTION('',(0.,0.,-1.));
#1071=DIRECTION('center_axis',(-1.,0.,0.));
#1072=DIRECTION('ref_axis',(0.,-0.70710678118655,-0.707106781186545));
#1073=DIRECTION('',(1.,0.,0.));
#1074=DIRECTION('center_axis',(1.,0.,0.));
#1075=DIRECTION('ref_axis',(0.,-0.70710678118655,-0.707106781186545));
#1076=DIRECTION('center_axis',(-0.816496580927726,-0.408248290463863,-0.408248290463863));
#1077=DIRECTION('ref_axis',(0.577350269189626,-0.577350269189626,-0.577350269189626));
#1078=DIRECTION('center_axis',(0.,0.,-1.));
#1079=DIRECTION('ref_axis',(1.,0.,0.));
#1080=DIRECTION('center_axis',(0.,-1.,0.));
#1081=DIRECTION('ref_axis',(0.70710678118655,0.,-0.707106781186545));
#1082=DIRECTION('center_axis',(0.,0.,1.));
#1083=DIRECTION('ref_axis',(0.707106781186548,-0.707106781186548,0.));
#1084=DIRECTION('center_axis',(0.,0.,-1.));
#1085=DIRECTION('ref_axis',(1.,0.,0.));
#1086=DIRECTION('center_axis',(-0.447213595499958,-0.894427190999916,0.));
#1087=DIRECTION('ref_axis',(0.894427190999916,-0.447213595499958,0.));
#1088=DIRECTION('center_axis',(0.,-1.,0.));
#1089=DIRECTION('ref_axis',(0.70710678118655,0.,-0.707106781186545));
#1090=DIRECTION('',(0.,1.,0.));
#1091=DIRECTION('center_axis',(0.,0.,-1.));
#1092=DIRECTION('ref_axis',(-1.,0.,0.));
#1093=DIRECTION('center_axis',(0.,-1.,0.));
#1094=DIRECTION('ref_axis',(-0.707106781186546,0.,0.707106781186549));
#1095=DIRECTION('',(0.,1.,0.));
#1096=DIRECTION('center_axis',(0.,1.,0.));
#1097=DIRECTION('ref_axis',(0.707106781186546,0.,0.707106781186549));
#1098=DIRECTION('',(0.,-1.,0.));
#1099=DIRECTION('center_axis',(0.,0.,1.));
#1100=DIRECTION('ref_axis',(1.,0.,0.));
#1101=DIRECTION('center_axis',(0.,0.,-1.));
#1102=DIRECTION('ref_axis',(0.,1.,0.));
#1103=DIRECTION('center_axis',(0.,0.,1.));
#1104=DIRECTION('ref_axis',(1.,0.,0.));
#1105=CARTESIAN_POINT('',(0.,0.,0.));
#1106=CARTESIAN_POINT('Origin',(-24.000000372529,28.999999627471,0.));
#1107=CARTESIAN_POINT('',(-24.000000372529,27.999999627471,3.));
#1108=CARTESIAN_POINT('',(-24.000000372529,27.999999627471,53.));
#1109=CARTESIAN_POINT('',(-24.000000372529,27.999999627471,0.));
#1110=CARTESIAN_POINT('',(-25.000000372529,28.999999627471,54.));
#1111=CARTESIAN_POINT('Origin',(-24.000000372529,28.999999627471,54.));
#1112=CARTESIAN_POINT('',(-25.000000372529,28.999999627471,2.));
#1113=CARTESIAN_POINT('',(-25.000000372529,28.999999627471,0.));
#1114=CARTESIAN_POINT('Origin',(-24.000000372529,28.999999627471,2.));
#1115=CARTESIAN_POINT('Origin',(-24.000000372529,16.999999627471,2.));
#1116=CARTESIAN_POINT('',(-24.000000372529,-22.000000372529,3.));
#1117=CARTESIAN_POINT('',(-24.000000372529,16.999999627471,3.));
#1118=CARTESIAN_POINT('',(-25.000000372529,-23.000000372529,2.));
#1119=CARTESIAN_POINT('',(-25.000000372529,16.999999627471,2.));
#1120=CARTESIAN_POINT('Origin',(-24.000000372529,-23.000000372529,2.));
#1121=CARTESIAN_POINT('Origin',(-24.000000372529,16.999999627471,54.));
#1122=CARTESIAN_POINT('',(-25.000000372529,-23.000000372529,54.));
#1123=CARTESIAN_POINT('',(-25.000000372529,16.999999627471,54.));
#1124=CARTESIAN_POINT('',(-24.000000372529,-22.000000372529,53.));
#1125=CARTESIAN_POINT('',(-24.000000372529,16.999999627471,53.));
#1126=CARTESIAN_POINT('Origin',(-24.000000372529,-23.000000372529,54.));
#1127=CARTESIAN_POINT('Origin',(-24.000000372529,-23.000000372529,0.));
#1128=CARTESIAN_POINT('',(-25.000000372529,-23.000000372529,0.));
#1129=CARTESIAN_POINT('',(-24.000000372529,-22.000000372529,0.));
#1130=CARTESIAN_POINT('Origin',(-25.000000372529,30.999999627471,0.));
#1131=CARTESIAN_POINT('',(-25.000000372529,29.999999627471,54.));
#1132=CARTESIAN_POINT('',(-25.000000372529,16.999999627471,54.));
#1133=CARTESIAN_POINT('',(-25.000000372529,29.999999627471,-9.));
#1134=CARTESIAN_POINT('',(-25.000000372529,29.999999627471,0.));
#1135=CARTESIAN_POINT('',(-25.000000372529,-24.000000372529,-9.));
#1136=CARTESIAN_POINT('',(-25.000000372529,16.999999627471,-9.));
#1137=CARTESIAN_POINT('',(-25.000000372529,-24.000000372529,54.));
#1138=CARTESIAN_POINT('',(-25.000000372529,-24.000000372529,0.));
#1139=CARTESIAN_POINT('',(-25.000000372529,16.999999627471,54.));
#1140=CARTESIAN_POINT('',(-25.000000372529,-22.1063080953007,-1.32777718685467));
#1141=CARTESIAN_POINT('',(-25.000000372529,28.0000004172325,-1.32777718685467));
#1142=CARTESIAN_POINT('',(-25.000000372529,29.5000000223517,-1.32777718685467));
#1143=CARTESIAN_POINT('',(-25.000000372529,-22.1063080953007,-7.32777718685467));
#1144=CARTESIAN_POINT('',(-25.000000372529,-22.1063080953007,-1.16388859342733));
#1145=CARTESIAN_POINT('',(-25.000000372529,28.0000004172325,-7.32777718685467));
#1146=CARTESIAN_POINT('',(-25.000000372529,4.58284576608514,-7.32777718685467));
#1147=CARTESIAN_POINT('',(-25.000000372529,28.0000004172325,-3.16388859342733));
#1148=CARTESIAN_POINT('Origin',(2.99999962747097,2.99999962747097,53.));
#1149=CARTESIAN_POINT('',(29.999999627471,27.999999627471,53.));
#1150=CARTESIAN_POINT('',(-22.000000372529,27.999999627471,53.));
#1151=CARTESIAN_POINT('',(29.999999627471,-22.000000372529,53.));
#1152=CARTESIAN_POINT('',(29.999999627471,-11.000000372529,53.));
#1153=CARTESIAN_POINT('',(-11.000000372529,-22.000000372529,53.));
#1154=CARTESIAN_POINT('Origin',(30.999999627471,27.999999627471,0.));
#1155=CARTESIAN_POINT('',(29.999999627471,27.999999627471,3.));
#1156=CARTESIAN_POINT('',(-22.000000372529,27.999999627471,3.));
#1157=CARTESIAN_POINT('',(29.999999627471,27.999999627471,0.));
#1158=CARTESIAN_POINT('Origin',(-24.000000372529,29.5000000223517,-1.32777718685467));
#1159=CARTESIAN_POINT('',(-24.000000372529,27.0000004172325,-2.32777718685467));
#1160=CARTESIAN_POINT('Origin',(-24.000000372529,28.0000004172325,-1.32777718685467));
#1161=CARTESIAN_POINT('',(-24.000000372529,-21.1063080953007,-2.32777718685467));
#1162=CARTESIAN_POINT('',(-24.000000372529,29.5000000223517,-2.32777718685467));
#1163=CARTESIAN_POINT('Origin',(-24.000000372529,-22.1063080953007,-1.32777718685467));
#1164=CARTESIAN_POINT('Origin',(-24.000000372529,28.0000004172325,-3.16388859342733));
#1165=CARTESIAN_POINT('',(-24.000000372529,27.0000004172325,-6.32777718685467));
#1166=CARTESIAN_POINT('Origin',(-24.000000372529,28.0000004172325,-7.32777718685467));
#1167=CARTESIAN_POINT('',(-24.000000372529,27.0000004172325,-3.16388859342733));
#1168=CARTESIAN_POINT('Origin',(-24.000000372529,4.58284576608514,-7.32777718685467));
#1169=CARTESIAN_POINT('',(-24.000000372529,-21.1063080953007,-6.32777718685467));
#1170=CARTESIAN_POINT('Origin',(-24.000000372529,-22.1063080953007,-7.32777718685467));
#1171=CARTESIAN_POINT('',(-24.000000372529,4.58284576608514,-6.32777718685467));
#1172=CARTESIAN_POINT('Origin',(-24.000000372529,-22.1063080953007,-1.16388859342733));
#1173=CARTESIAN_POINT('',(-24.000000372529,-21.1063080953007,-1.16388859342733));
#1174=CARTESIAN_POINT('Origin',(0.,-21.1063080953007,-2.32777718685467));
#1175=CARTESIAN_POINT('',(29.999999627471,-21.1063080953007,-2.32777718685467));
#1176=CARTESIAN_POINT('',(0.,-21.1063080953007,-2.32777718685467));
#1177=CARTESIAN_POINT('',(29.999999627471,-21.1063080953007,-6.32777718685467));
#1178=CARTESIAN_POINT('',(29.999999627471,-21.1063080953007,-1.16388859342733));
#1179=CARTESIAN_POINT('',(0.,-21.1063080953007,-6.32777718685467));
#1180=CARTESIAN_POINT('Origin',(0.,28.0000004172325,-2.32777718685467));
#1181=CARTESIAN_POINT('',(29.999999627471,27.0000004172325,-2.32777718685467));
#1182=CARTESIAN_POINT('',(0.,27.0000004172325,-2.32777718685467));
#1183=CARTESIAN_POINT('',(29.999999627471,1.50000002235174,-2.32777718685467));
#1184=CARTESIAN_POINT('Origin',(29.999999627471,28.999999627471,0.));
#1185=CARTESIAN_POINT('',(30.999999627471,28.999999627471,2.));
#1186=CARTESIAN_POINT('',(30.999999627471,28.999999627471,54.));
#1187=CARTESIAN_POINT('',(30.999999627471,28.999999627471,0.));
#1188=CARTESIAN_POINT('Origin',(29.999999627471,28.999999627471,54.));
#1189=CARTESIAN_POINT('Origin',(29.999999627471,28.999999627471,2.));
#1190=CARTESIAN_POINT('Origin',(29.999999627471,-23.000000372529,0.));
#1191=CARTESIAN_POINT('',(29.999999627471,-22.000000372529,3.));
#1192=CARTESIAN_POINT('',(29.999999627471,-22.000000372529,0.));
#1193=CARTESIAN_POINT('',(30.999999627471,-23.000000372529,54.));
#1194=CARTESIAN_POINT('Origin',(29.999999627471,-23.000000372529,54.));
#1195=CARTESIAN_POINT('',(30.999999627471,-23.000000372529,2.));
#1196=CARTESIAN_POINT('',(30.999999627471,-23.000000372529,0.));
#1197=CARTESIAN_POINT('Origin',(29.999999627471,-23.000000372529,2.));
#1198=CARTESIAN_POINT('Origin',(29.999999627471,-11.000000372529,2.));
#1199=CARTESIAN_POINT('',(29.999999627471,-11.000000372529,3.));
#1200=CARTESIAN_POINT('',(30.999999627471,-11.000000372529,2.));
#1201=CARTESIAN_POINT('Origin',(29.999999627471,-11.000000372529,54.));
#1202=CARTESIAN_POINT('',(30.999999627471,-11.000000372529,54.));
#1203=CARTESIAN_POINT('Origin',(30.999999627471,-25.000000372529,0.));
#1204=CARTESIAN_POINT('',(30.999999627471,-24.000000372529,54.));
#1205=CARTESIAN_POINT('',(30.999999627471,-11.000000372529,54.));
#1206=CARTESIAN_POINT('',(30.999999627471,-24.000000372529,-9.));
#1207=CARTESIAN_POINT('',(30.999999627471,-24.000000372529,0.));
#1208=CARTESIAN_POINT('',(30.999999627471,29.999999627471,-9.));
#1209=CARTESIAN_POINT('',(30.999999627471,-11.000000372529,-9.));
#1210=CARTESIAN_POINT('',(30.999999627471,29.999999627471,54.));
#1211=CARTESIAN_POINT('',(30.999999627471,29.999999627471,0.));
#1212=CARTESIAN_POINT('',(30.999999627471,-11.000000372529,54.));
#1213=CARTESIAN_POINT('',(30.999999627471,28.0000004172325,-1.32777718685467));
#1214=CARTESIAN_POINT('',(30.999999627471,-22.1063080953007,-1.32777718685467));
#1215=CARTESIAN_POINT('',(30.999999627471,1.50000002235174,-1.32777718685467));
#1216=CARTESIAN_POINT('',(30.999999627471,28.0000004172325,-7.32777718685467));
#1217=CARTESIAN_POINT('',(30.999999627471,28.0000004172325,-3.16388859342733));
#1218=CARTESIAN_POINT('',(30.999999627471,-22.1063080953007,-7.32777718685467));
#1219=CARTESIAN_POINT('',(30.999999627471,-23.4171542339149,-7.32777718685467));
#1220=CARTESIAN_POINT('',(30.999999627471,-22.1063080953007,-1.16388859342733));
#1221=CARTESIAN_POINT('Origin',(-25.000000372529,-22.000000372529,0.));
#1222=CARTESIAN_POINT('',(-11.000000372529,-22.000000372529,3.));
#1223=CARTESIAN_POINT('Origin',(29.999999627471,1.50000002235174,-1.32777718685467));
#1224=CARTESIAN_POINT('Origin',(29.999999627471,-22.1063080953007,-1.32777718685467));
#1225=CARTESIAN_POINT('Origin',(29.999999627471,28.0000004172325,-1.32777718685467));
#1226=CARTESIAN_POINT('Origin',(29.999999627471,-22.1063080953007,-1.16388859342733));
#1227=CARTESIAN_POINT('Origin',(29.999999627471,-22.1063080953007,-7.32777718685467));
#1228=CARTESIAN_POINT('Origin',(29.999999627471,-23.4171542339149,-7.32777718685467));
#1229=CARTESIAN_POINT('',(29.999999627471,27.0000004172325,-6.32777718685467));
#1230=CARTESIAN_POINT('Origin',(29.999999627471,28.0000004172325,-7.32777718685467));
#1231=CARTESIAN_POINT('',(29.999999627471,-23.4171542339149,-6.32777718685467));
#1232=CARTESIAN_POINT('Origin',(29.999999627471,28.0000004172325,-3.16388859342733));
#1233=CARTESIAN_POINT('',(29.999999627471,27.0000004172325,-3.16388859342733));
#1234=CARTESIAN_POINT('Origin',(0.,27.0000004172325,-6.32777718685467));
#1235=CARTESIAN_POINT('',(0.,27.0000004172325,-6.32777718685467));
#1236=CARTESIAN_POINT('Origin',(29.999999627471,29.999999627471,-9.));
#1237=CARTESIAN_POINT('',(29.999999627471,30.999999627471,-9.));
#1238=CARTESIAN_POINT('Origin',(29.999999627471,29.999999627471,-9.));
#1239=CARTESIAN_POINT('',(29.999999627471,29.999999627471,-10.));
#1240=CARTESIAN_POINT('Origin',(29.999999627471,29.999999627471,-9.));
#1241=CARTESIAN_POINT('Origin',(29.999999627471,29.999999627471,-9.));
#1242=CARTESIAN_POINT('Origin',(29.999999627471,29.999999627471,0.));
#1243=CARTESIAN_POINT('',(29.999999627471,30.999999627471,54.));
#1244=CARTESIAN_POINT('',(29.999999627471,30.999999627471,0.));
#1245=CARTESIAN_POINT('Origin',(29.999999627471,29.999999627471,54.));
#1246=CARTESIAN_POINT('Ctrl Pts',(28.999999627471,28.999999627471,56.));
#1247=CARTESIAN_POINT('Ctrl Pts',(29.4487985779838,29.2243991027274,56.));
#1248=CARTESIAN_POINT('Ctrl Pts',(30.194050126628,29.5970248770495,55.7377021708811));
#1249=CARTESIAN_POINT('Ctrl Pts',(30.8631317746356,29.9315657010533,54.896514363171));
#1250=CARTESIAN_POINT('Ctrl Pts',(30.999999627471,29.999999627471,54.2991993003419));
#1251=CARTESIAN_POINT('Ctrl Pts',(30.999999627471,29.999999627471,54.));
#1252=CARTESIAN_POINT('Ctrl Pts',(28.999999627471,28.999999627471,56.));
#1253=CARTESIAN_POINT('Ctrl Pts',(29.4060558207921,29.2671418599191,56.));
#1254=CARTESIAN_POINT('Ctrl Pts',(30.0811219476476,29.7099533114516,55.7975633649549));
#1255=CARTESIAN_POINT('Ctrl Pts',(30.8124938281733,30.177782705097,55.0202894384102));
#1256=CARTESIAN_POINT('Ctrl Pts',(30.999999627471,30.2991989278128,54.3446314438419));
#1257=CARTESIAN_POINT('Ctrl Pts',(30.999999627471,30.2991989278128,54.));
#1258=CARTESIAN_POINT('Ctrl Pts',(28.999999627471,28.999999627471,56.));
#1259=CARTESIAN_POINT('Ctrl Pts',(29.3312559957066,29.3419416850045,56.));
#1260=CARTESIAN_POINT('Ctrl Pts',(29.8815645990146,29.9103980053633,55.841486811958));
#1261=CARTESIAN_POINT('Ctrl Pts',(30.5482259101546,30.6072106741671,55.1241458475538));
#1262=CARTESIAN_POINT('Ctrl Pts',(30.7487282032455,30.8170288840345,54.383663442962));
#1263=CARTESIAN_POINT('Ctrl Pts',(30.7487282032455,30.8170288840345,54.));
#1264=CARTESIAN_POINT('Ctrl Pts',(28.999999627471,28.999999627471,56.));
#1265=CARTESIAN_POINT('Ctrl Pts',(29.2564561706211,29.41674151009,56.));
#1266=CARTESIAN_POINT('Ctrl Pts',(29.6825448237526,30.1102672533995,55.7827909165552));
#1267=CARTESIAN_POINT('Ctrl Pts',(30.11646862658,30.8254116558261,54.9885080222342));
#1268=CARTESIAN_POINT('Ctrl Pts',(30.2243991027274,30.999999627471,54.3328222997077));
#1269=CARTESIAN_POINT('Ctrl Pts',(30.2243991027274,30.999999627471,54.));
#1270=CARTESIAN_POINT('Ctrl Pts',(28.999999627471,28.999999627471,56.));
#1271=CARTESIAN_POINT('Ctrl Pts',(29.2243991027274,29.4487985779838,56.));
#1272=CARTESIAN_POINT('Ctrl Pts',(29.5970248770495,30.1940501266281,55.7377021708811));
#1273=CARTESIAN_POINT('Ctrl Pts',(29.9315657010533,30.8631317746356,54.896514363171));
#1274=CARTESIAN_POINT('Ctrl Pts',(29.999999627471,30.999999627471,54.2991993003419));
#1275=CARTESIAN_POINT('Ctrl Pts',(29.999999627471,30.999999627471,54.));
#1276=CARTESIAN_POINT('',(28.999999627471,28.999999627471,56.));
#1277=CARTESIAN_POINT('Origin',(28.999999627471,28.999999627471,54.));
#1278=CARTESIAN_POINT('Origin',(28.999999627471,28.999999627471,54.));
#1279=CARTESIAN_POINT('Origin',(16.999999627471,28.999999627471,54.));
#1280=CARTESIAN_POINT('',(-24.000000372529,30.999999627471,54.));
#1281=CARTESIAN_POINT('',(16.999999627471,30.999999627471,54.));
#1282=CARTESIAN_POINT('',(-23.000000372529,28.999999627471,56.));
#1283=CARTESIAN_POINT('Origin',(-23.000000372529,28.999999627471,54.));
#1284=CARTESIAN_POINT('',(16.999999627471,28.999999627471,56.));
#1285=CARTESIAN_POINT('Origin',(30.999999627471,30.999999627471,0.));
#1286=CARTESIAN_POINT('',(-24.000000372529,30.999999627471,-9.));
#1287=CARTESIAN_POINT('',(16.999999627471,30.999999627471,-9.));
#1288=CARTESIAN_POINT('',(-24.000000372529,30.999999627471,0.));
#1289=CARTESIAN_POINT('Origin',(16.999999627471,29.999999627471,-9.));
#1290=CARTESIAN_POINT('',(-24.000000372529,29.999999627471,-10.));
#1291=CARTESIAN_POINT('',(16.999999627471,29.999999627471,-10.));
#1292=CARTESIAN_POINT('Origin',(-24.000000372529,29.999999627471,-9.));
#1293=CARTESIAN_POINT('Origin',(-24.000000372529,29.999999627471,-9.));
#1294=CARTESIAN_POINT('Origin',(-24.000000372529,29.999999627471,-9.));
#1295=CARTESIAN_POINT('Origin',(-24.000000372529,29.999999627471,-9.));
#1296=CARTESIAN_POINT('Origin',(-24.000000372529,29.999999627471,0.));
#1297=CARTESIAN_POINT('Origin',(-24.000000372529,29.999999627471,54.));
#1298=CARTESIAN_POINT('Ctrl Pts',(-23.000000372529,28.999999627471,56.));
#1299=CARTESIAN_POINT('Ctrl Pts',(-23.2243998477854,29.4487985779838,56.));
#1300=CARTESIAN_POINT('Ctrl Pts',(-23.5970276353582,30.1940541531292,55.7377119047575));
#1301=CARTESIAN_POINT('Ctrl Pts',(-23.9315678988578,30.8631346801284,54.8965188900459));
#1302=CARTESIAN_POINT('Ctrl Pts',(-24.000000372529,30.999999627471,54.2991993003419));
#1303=CARTESIAN_POINT('Ctrl Pts',(-24.000000372529,30.999999627471,54.));
#1304=CARTESIAN_POINT('Ctrl Pts',(-23.000000372529,28.999999627471,56.));
#1305=CARTESIAN_POINT('Ctrl Pts',(-23.2671426049771,29.4060558207921,56.));
#1306=CARTESIAN_POINT('Ctrl Pts',(-23.7099691438083,30.0811479377879,55.7975662792109));
#1307=CARTESIAN_POINT('Ctrl Pts',(-24.1777949612601,30.8125130944629,55.0202914948797));
#1308=CARTESIAN_POINT('Ctrl Pts',(-24.2991996728709,30.999999627471,54.3446314438419));
#1309=CARTESIAN_POINT('Ctrl Pts',(-24.2991996728709,30.999999627471,54.));
#1310=CARTESIAN_POINT('Ctrl Pts',(-23.000000372529,28.999999627471,56.));
#1311=CARTESIAN_POINT('Ctrl Pts',(-23.3419424300626,29.3312559957066,56.));
#1312=CARTESIAN_POINT('Ctrl Pts',(-23.9104170371804,29.8815802340523,55.8414990271888));
#1313=CARTESIAN_POINT('Ctrl Pts',(-24.6072306695538,30.54824302802,55.1241689831589));
#1314=CARTESIAN_POINT('Ctrl Pts',(-24.8170345437227,30.748732299252,54.3836634429621));
#1315=CARTESIAN_POINT('Ctrl Pts',(-24.8170345437227,30.748732299252,54.));
#1316=CARTESIAN_POINT('Ctrl Pts',(-23.000000372529,28.999999627471,56.));
#1317=CARTESIAN_POINT('Ctrl Pts',(-23.4167422551481,29.2564561706211,56.));
#1318=CARTESIAN_POINT('Ctrl Pts',(-24.1102802533963,29.6825491727143,55.7827982488283));
#1319=CARTESIAN_POINT('Ctrl Pts',(-24.8254230252584,30.116473474673,54.9885162467272));
#1320=CARTESIAN_POINT('Ctrl Pts',(-25.000000372529,30.2243991027274,54.3328222997077));
#1321=CARTESIAN_POINT('Ctrl Pts',(-25.000000372529,30.2243991027274,54.));
#1322=CARTESIAN_POINT('Ctrl Pts',(-23.000000372529,28.999999627471,56.));
#1323=CARTESIAN_POINT('Ctrl Pts',(-23.4487993230419,29.2243991027274,56.));
#1324=CARTESIAN_POINT('Ctrl Pts',(-24.1940548981873,29.5970268903001,55.7377119047574));
#1325=CARTESIAN_POINT('Ctrl Pts',(-24.8631354251865,29.9315671537997,54.8965188900459));
#1326=CARTESIAN_POINT('Ctrl Pts',(-25.000000372529,29.999999627471,54.2991993003419));
#1327=CARTESIAN_POINT('Ctrl Pts',(-25.000000372529,29.999999627471,54.));
#1328=CARTESIAN_POINT('Origin',(-23.000000372529,28.999999627471,54.));
#1329=CARTESIAN_POINT('Origin',(-24.000000372529,16.999999627471,-9.));
#1330=CARTESIAN_POINT('',(-24.000000372529,-24.000000372529,-10.));
#1331=CARTESIAN_POINT('',(-24.000000372529,16.999999627471,-10.));
#1332=CARTESIAN_POINT('Origin',(-24.000000372529,-24.000000372529,-9.));
#1333=CARTESIAN_POINT('Origin',(-24.000000372529,-24.000000372529,-9.));
#1334=CARTESIAN_POINT('',(-24.000000372529,-25.000000372529,-9.));
#1335=CARTESIAN_POINT('Origin',(-24.000000372529,-24.000000372529,-9.));
#1336=CARTESIAN_POINT('Origin',(-24.000000372529,-24.000000372529,-9.));
#1337=CARTESIAN_POINT('Origin',(-24.000000372529,-24.000000372529,0.));
#1338=CARTESIAN_POINT('',(-24.000000372529,-25.000000372529,54.));
#1339=CARTESIAN_POINT('',(-24.000000372529,-25.000000372529,0.));
#1340=CARTESIAN_POINT('Origin',(-24.000000372529,-24.000000372529,54.));
#1341=CARTESIAN_POINT('Ctrl Pts',(-23.000000372529,-23.000000372529,56.));
#1342=CARTESIAN_POINT('Ctrl Pts',(-23.4487993230419,-23.2243998477854,56.));
#1343=CARTESIAN_POINT('Ctrl Pts',(-24.1940592847981,-23.5970298286635,55.7377225372273));
#1344=CARTESIAN_POINT('Ctrl Pts',(-24.8631385943381,-23.9315694834335,54.8965238013886));
#1345=CARTESIAN_POINT('Ctrl Pts',(-25.000000372529,-24.000000372529,54.2991993003419));
#1346=CARTESIAN_POINT('Ctrl Pts',(-25.000000372529,-24.000000372529,54.));
#1347=CARTESIAN_POINT('Ctrl Pts',(-23.000000372529,-23.000000372529,56.));
#1348=CARTESIAN_POINT('Ctrl Pts',(-23.4060565658502,-23.2671426049771,56.));
#1349=CARTESIAN_POINT('Ctrl Pts',(-24.0811769916606,-23.7099855734265,55.7975694546245));
#1350=CARTESIAN_POINT('Ctrl Pts',(-24.8125348595261,-24.1778075235201,55.0202937374738));
#1351=CARTESIAN_POINT('Ctrl Pts',(-25.000000372529,-24.2991996728709,54.3446314438419));
#1352=CARTESIAN_POINT('Ctrl Pts',(-25.000000372529,-24.2991996728709,54.));
#1353=CARTESIAN_POINT('Ctrl Pts',(-23.000000372529,-23.000000372529,56.));
#1354=CARTESIAN_POINT('Ctrl Pts',(-23.3312567407647,-23.3419424300626,56.));
#1355=CARTESIAN_POINT('Ctrl Pts',(-23.8815979392672,-23.9104368825401,55.8415122025411));
#1356=CARTESIAN_POINT('Ctrl Pts',(-24.5482625022775,-24.6072517267789,55.1241944143932));
#1357=CARTESIAN_POINT('Ctrl Pts',(-24.7487375675174,-24.8170399709335,54.3836634429621));
#1358=CARTESIAN_POINT('Ctrl Pts',(-24.7487375675174,-24.8170399709335,54.));
#1359=CARTESIAN_POINT('Ctrl Pts',(-23.000000372529,-23.000000372529,56.));
#1360=CARTESIAN_POINT('Ctrl Pts',(-23.2564569156792,-23.4167422551481,56.));
#1361=CARTESIAN_POINT('Ctrl Pts',(-23.6825546364778,-24.1102935843471,55.7828062039134));
#1362=CARTESIAN_POINT('Ctrl Pts',(-24.1164795257896,-24.825434632519,54.9885252484768));
#1363=CARTESIAN_POINT('Ctrl Pts',(-24.2243998477854,-25.000000372529,54.3328222997077));
#1364=CARTESIAN_POINT('Ctrl Pts',(-24.2243998477854,-25.000000372529,54.));
#1365=CARTESIAN_POINT('Ctrl Pts',(-23.000000372529,-23.000000372529,56.));
#1366=CARTESIAN_POINT('Ctrl Pts',(-23.2243998477854,-23.4487993230419,56.));
#1367=CARTESIAN_POINT('Ctrl Pts',(-23.5970298286635,-24.1940592847981,55.7377225372273));
#1368=CARTESIAN_POINT('Ctrl Pts',(-23.9315694834335,-24.8631385943381,54.8965238013886));
#1369=CARTESIAN_POINT('Ctrl Pts',(-24.000000372529,-25.000000372529,54.2991993003419));
#1370=CARTESIAN_POINT('Ctrl Pts',(-24.000000372529,-25.000000372529,54.));
#1371=CARTESIAN_POINT('',(-23.000000372529,-23.000000372529,56.));
#1372=CARTESIAN_POINT('Origin',(-23.000000372529,-23.000000372529,54.));
#1373=CARTESIAN_POINT('Origin',(-23.000000372529,-23.000000372529,54.));
#1374=CARTESIAN_POINT('Origin',(-11.000000372529,-23.000000372529,54.));
#1375=CARTESIAN_POINT('',(29.999999627471,-25.000000372529,54.));
#1376=CARTESIAN_POINT('',(-11.000000372529,-25.000000372529,54.));
#1377=CARTESIAN_POINT('',(28.999999627471,-23.000000372529,56.));
#1378=CARTESIAN_POINT('Origin',(28.999999627471,-23.000000372529,54.));
#1379=CARTESIAN_POINT('',(-11.000000372529,-23.000000372529,56.));
#1380=CARTESIAN_POINT('Origin',(-25.000000372529,-25.000000372529,0.));
#1381=CARTESIAN_POINT('',(29.999999627471,-25.000000372529,-9.));
#1382=CARTESIAN_POINT('',(-11.000000372529,-25.000000372529,-9.));
#1383=CARTESIAN_POINT('',(29.999999627471,-25.000000372529,0.));
#1384=CARTESIAN_POINT('Origin',(-11.000000372529,-24.000000372529,-9.));
#1385=CARTESIAN_POINT('',(29.999999627471,-24.000000372529,-10.));
#1386=CARTESIAN_POINT('',(-11.000000372529,-24.000000372529,-10.));
#1387=CARTESIAN_POINT('Origin',(29.999999627471,-24.000000372529,-9.));
#1388=CARTESIAN_POINT('Origin',(29.999999627471,-24.000000372529,-9.));
#1389=CARTESIAN_POINT('Origin',(29.999999627471,-24.000000372529,-9.));
#1390=CARTESIAN_POINT('Origin',(29.999999627471,-24.000000372529,-9.));
#1391=CARTESIAN_POINT('Origin',(29.999999627471,-24.000000372529,0.));
#1392=CARTESIAN_POINT('Origin',(29.999999627471,-24.000000372529,54.));
#1393=CARTESIAN_POINT('Ctrl Pts',(28.999999627471,-23.000000372529,56.));
#1394=CARTESIAN_POINT('Ctrl Pts',(29.2243991027274,-23.4487993230419,56.));
#1395=CARTESIAN_POINT('Ctrl Pts',(29.5970268903001,-24.1940548981873,55.7377119047575));
#1396=CARTESIAN_POINT('Ctrl Pts',(29.9315671537997,-24.8631354251865,54.8965188900459));
#1397=CARTESIAN_POINT('Ctrl Pts',(29.999999627471,-25.000000372529,54.2991993003419));
#1398=CARTESIAN_POINT('Ctrl Pts',(29.999999627471,-25.000000372529,54.));
#1399=CARTESIAN_POINT('Ctrl Pts',(28.999999627471,-23.000000372529,56.));
#1400=CARTESIAN_POINT('Ctrl Pts',(29.2671418599191,-23.4060565658502,56.));
#1401=CARTESIAN_POINT('Ctrl Pts',(29.7099683987502,-24.0811486828459,55.7975662792109));
#1402=CARTESIAN_POINT('Ctrl Pts',(30.177794216202,-24.8125138395209,55.0202914948797));
#1403=CARTESIAN_POINT('Ctrl Pts',(30.2991989278128,-25.000000372529,54.3446314438419));
#1404=CARTESIAN_POINT('Ctrl Pts',(30.2991989278128,-25.000000372529,54.));
#1405=CARTESIAN_POINT('Ctrl Pts',(28.999999627471,-23.000000372529,56.));
#1406=CARTESIAN_POINT('Ctrl Pts',(29.3419416850046,-23.3312567407647,56.));
#1407=CARTESIAN_POINT('Ctrl Pts',(29.9104162921223,-23.8815809791104,55.8414990271888));
#1408=CARTESIAN_POINT('Ctrl Pts',(30.6072299244958,-24.5482437730781,55.1241689831589));
#1409=CARTESIAN_POINT('Ctrl Pts',(30.8170337986646,-24.7487330443101,54.3836634429621));
#1410=CARTESIAN_POINT('Ctrl Pts',(30.8170337986646,-24.7487330443101,54.));
#1411=CARTESIAN_POINT('Ctrl Pts',(28.999999627471,-23.000000372529,56.));
#1412=CARTESIAN_POINT('Ctrl Pts',(29.41674151009,-23.2564569156792,56.));
#1413=CARTESIAN_POINT('Ctrl Pts',(30.1102795083383,-23.6825499177724,55.7827982488283));
#1414=CARTESIAN_POINT('Ctrl Pts',(30.8254222802003,-24.116474219731,54.9885162467272));
#1415=CARTESIAN_POINT('Ctrl Pts',(30.999999627471,-24.2243998477854,54.3328222997077));
#1416=CARTESIAN_POINT('Ctrl Pts',(30.999999627471,-24.2243998477854,54.));
#1417=CARTESIAN_POINT('Ctrl Pts',(28.999999627471,-23.000000372529,56.));
#1418=CARTESIAN_POINT('Ctrl Pts',(29.4487985779838,-23.2243998477854,56.));
#1419=CARTESIAN_POINT('Ctrl Pts',(30.1940541531292,-23.5970276353581,55.7377119047574));
#1420=CARTESIAN_POINT('Ctrl Pts',(30.8631346801284,-23.9315678988578,54.8965188900459));
#1421=CARTESIAN_POINT('Ctrl Pts',(30.999999627471,-24.000000372529,54.2991993003419));
#1422=CARTESIAN_POINT('Ctrl Pts',(30.999999627471,-24.000000372529,54.));
#1423=CARTESIAN_POINT('Origin',(28.999999627471,-23.000000372529,54.));
#1424=CARTESIAN_POINT('Origin',(29.999999627471,-11.000000372529,-9.));
#1425=CARTESIAN_POINT('',(29.999999627471,-11.000000372529,-10.));
#1426=CARTESIAN_POINT('Origin',(2.99999962747097,2.99999962747097,-10.));
#1427=CARTESIAN_POINT('Origin',(-23.000000372529,16.999999627471,54.));
#1428=CARTESIAN_POINT('',(-23.000000372529,16.999999627471,56.));
#1429=CARTESIAN_POINT('Origin',(28.999999627471,-11.000000372529,54.));
#1430=CARTESIAN_POINT('',(28.999999627471,-11.000000372529,56.));
#1431=CARTESIAN_POINT('Origin',(2.99999962747097,2.99999962747097,56.));
#1432=CARTESIAN_POINT('Origin',(0.,-21.8343080953007,-6.32777718685467));
#1433=CARTESIAN_POINT('Origin',(2.99999962747097,2.99999962747097,3.));
#1434=UNCERTAINTY_MEASURE_WITH_UNIT(LENGTH_MEASURE(0.01),#1438,
'DISTANCE_ACCURACY_VALUE',
'Maximum model space distance between geometric entities at asserted c
onnectivities');
#1435=UNCERTAINTY_MEASURE_WITH_UNIT(LENGTH_MEASURE(0.01),#1438,
'DISTANCE_ACCURACY_VALUE',
'Maximum model space distance between geometric entities at asserted c
onnectivities');
#1436=(
GEOMETRIC_REPRESENTATION_CONTEXT(3)
GLOBAL_UNCERTAINTY_ASSIGNED_CONTEXT((#1434))
GLOBAL_UNIT_ASSIGNED_CONTEXT((#1438,#1440,#1441))
REPRESENTATION_CONTEXT('','3D')
);
#1437=(
GEOMETRIC_REPRESENTATION_CONTEXT(3)
GLOBAL_UNCERTAINTY_ASSIGNED_CONTEXT((#1435))
GLOBAL_UNIT_ASSIGNED_CONTEXT((#1438,#1440,#1441))
REPRESENTATION_CONTEXT('','3D')
);
#1438=(
LENGTH_UNIT()
NAMED_UNIT(*)
SI_UNIT(.MILLI.,.METRE.)
);
#1439=(
LENGTH_UNIT()
NAMED_UNIT(*)
SI_UNIT($,.METRE.)
);
#1440=(
NAMED_UNIT(*)
PLANE_ANGLE_UNIT()
SI_UNIT($,.RADIAN.)
);
#1441=(
NAMED_UNIT(*)
SI_UNIT($,.STERADIAN.)
SOLID_ANGLE_UNIT()
);
#1442=SHAPE_DEFINITION_REPRESENTATION(#1443,#1444);
#1443=PRODUCT_DEFINITION_SHAPE('',$,#1446);
#1444=SHAPE_REPRESENTATION('',(#778),#1436);
#1445=PRODUCT_DEFINITION_CONTEXT('part definition',#1450,'design');
#1446=PRODUCT_DEFINITION('(Unsaved)','(Unsaved)',#1447,#1445);
#1447=PRODUCT_DEFINITION_FORMATION('',$,#1452);
#1448=PRODUCT_RELATED_PRODUCT_CATEGORY('(Unsaved)','(Unsaved)',(#1452));
#1449=APPLICATION_PROTOCOL_DEFINITION('international standard',
'automotive_design',2009,#1450);
#1450=APPLICATION_CONTEXT(
'Core Data for Automotive Mechanical Design Process');
#1451=PRODUCT_CONTEXT('part definition',#1450,'mechanical');
#1452=PRODUCT('(Unsaved)','(Unsaved)',$,(#1451));
#1453=PRESENTATION_STYLE_ASSIGNMENT((#1454));
#1454=SURFACE_STYLE_USAGE(.BOTH.,#1455);
#1455=SURFACE_SIDE_STYLE('',(#1456));
#1456=SURFACE_STYLE_FILL_AREA(#1457);
#1457=FILL_AREA_STYLE('Steel - Satin',(#1458));
#1458=FILL_AREA_STYLE_COLOUR('Steel - Satin',#1459);
#1459=COLOUR_RGB('Steel - Satin',0.627450980392157,0.627450980392157,0.627450980392157);
ENDSEC;
END-ISO-10303-21;
