ISO-10303-21;
HEADER;
/* Generated by software containing ST-Developer
 * from STEP Tools, Inc. (www.steptools.com) 
 */

FILE_DESCRIPTION(
/* description */ (''),
/* implementation_level */ '2;1');

FILE_NAME(
/* name */ 'joint hip 6.step',
/* time_stamp */ '2026-07-02T12:51:25+05:30',
/* author */ (''),
/* organization */ (''),
/* preprocessor_version */ 'ST-DEVELOPER v20.1',
/* originating_system */ 'Autodesk Translation Framework v15.8.0.0',
/* authorisation */ '');

FILE_SCHEMA (('AUTOMOTIVE_DESIGN { 1 0 10303 214 3 1 1 }'));
ENDSEC;

DATA;
#10=MECHANICAL_DESIGN_GEOMETRIC_PRESENTATION_REPRESENTATION('',(#23,#24,
#25),#1114);
#11=ITEM_DEFINED_TRANSFORMATION($,$,#515,#582);
#12=ITEM_DEFINED_TRANSFORMATION($,$,#574,#583);
#13=(
REPRESENTATION_RELATIONSHIP($,$,#1128,#1127)
REPRESENTATION_RELATIONSHIP_WITH_TRANSFORMATION(#11)
SHAPE_REPRESENTATION_RELATIONSHIP()
);
#14=(
REPRESENTATION_RELATIONSHIP($,$,#1129,#1127)
REPRESENTATION_RELATIONSHIP_WITH_TRANSFORMATION(#12)
SHAPE_REPRESENTATION_RELATIONSHIP()
);
#15=CONTEXT_DEPENDENT_SHAPE_REPRESENTATION(#13,#1125);
#16=CONTEXT_DEPENDENT_SHAPE_REPRESENTATION(#14,#1126);
#17=NEXT_ASSEMBLY_USAGE_OCCURRENCE('hip joint3 v1:1','hip joint3 v1:1',
'hip joint3 v1:1',#1131,#1132,'hip joint3 v1:1');
#18=NEXT_ASSEMBLY_USAGE_OCCURRENCE('hip cup2 v1:1','hip cup2 v1:1',
'hip cup2 v1:1',#1131,#1133,'hip cup2 v1:1');
#19=SHAPE_REPRESENTATION_RELATIONSHIP('SRR','None',#1128,#21);
#20=SHAPE_REPRESENTATION_RELATIONSHIP('SRR','None',#1129,#22);
#21=ADVANCED_BREP_SHAPE_REPRESENTATION('',(#26,#27),#1112);
#22=ADVANCED_BREP_SHAPE_REPRESENTATION('',(#28),#1113);
#23=STYLED_ITEM('',(#1146),#26);
#24=STYLED_ITEM('',(#1146),#27);
#25=STYLED_ITEM('',(#1146),#28);
#26=MANIFOLD_SOLID_BREP('Body1',#488);
#27=MANIFOLD_SOLID_BREP('Body2',#489);
#28=MANIFOLD_SOLID_BREP('Body2',#490);
#29=FACE_BOUND('',#105,.T.);
#30=FACE_BOUND('',#128,.T.);
#31=B_SPLINE_SURFACE_WITH_KNOTS('',3,3,((#822,#823,#824,#825,#826,#827),
(#828,#829,#830,#831,#832,#833),(#834,#835,#836,#837,#838,#839),(#840,#841,
#842,#843,#844,#845),(#846,#847,#848,#849,#850,#851),(#852,#853,#854,#855,
#856,#857),(#858,#859,#860,#861,#862,#863)),.UNSPECIFIED.,.F.,.F.,.F.,(4,
1,1,1,4),(4,1,1,4),(0.,0.285714285714286,0.571428571428571,0.785714285714286,
1.),(-3.43125539962922E-16,0.326776515968313,0.49016477395247,1.1437178058891),
 .UNSPECIFIED.);
#32=B_SPLINE_SURFACE_WITH_KNOTS('',3,3,((#920,#921,#922,#923,#924),(#925,
#926,#927,#928,#929),(#930,#931,#932,#933,#934),(#935,#936,#937,#938,#939),
(#940,#941,#942,#943,#944)),.UNSPECIFIED.,.F.,.F.,.F.,(4,1,4),(4,1,4),(0.,
0.571428571428571,1.),(-1.57079632679489,-0.897597901025653,5.90237216622645E-16),
 .UNSPECIFIED.);
#33=B_SPLINE_SURFACE_WITH_KNOTS('',3,3,((#967,#968,#969,#970,#971),(#972,
#973,#974,#975,#976),(#977,#978,#979,#980,#981),(#982,#983,#984,#985,#986),
(#987,#988,#989,#990,#991),(#992,#993,#994,#995,#996)),.UNSPECIFIED.,.F.,
 .F.,.F.,(4,1,1,4),(4,1,4),(0.,0.285714285714286,0.571428571428571,1.),
(-1.5707963267949,-0.897597901025653,1.53163105104557E-14),
 .UNSPECIFIED.);
#34=B_SPLINE_SURFACE_WITH_KNOTS('',3,3,((#1000,#1001,#1002,#1003,#1004,
#1005,#1006,#1007,#1008,#1009),(#1010,#1011,#1012,#1013,#1014,#1015,#1016,
#1017,#1018,#1019),(#1020,#1021,#1022,#1023,#1024,#1025,#1026,#1027,#1028,
#1029),(#1030,#1031,#1032,#1033,#1034,#1035,#1036,#1037,#1038,#1039),(#1040,
#1041,#1042,#1043,#1044,#1045,#1046,#1047,#1048,#1049),(#1050,#1051,#1052,
#1053,#1054,#1055,#1056,#1057,#1058,#1059),(#1060,#1061,#1062,#1063,#1064,
#1065,#1066,#1067,#1068,#1069)),.UNSPECIFIED.,.F.,.F.,.F.,(4,1,1,1,4),(4,
1,1,1,1,1,1,4),(0.,0.285714285714286,0.571428571428571,0.714285714285714,
1.),(-1.5707963267949,-1.12199737628207,-0.673198425769239,-0.224399475256411,
-0.112199737628203,-0.0560998688140999,-0.028049934407048,3.76087969833385E-15),
 .UNSPECIFIED.);
#35=ELLIPSE('',#527,3.53553390593274,2.5);
#36=ELLIPSE('',#529,5.59016994374947,5.);
#37=ELLIPSE('',#550,3.26145063438299,2.5);
#38=ELLIPSE('',#551,3.26145063438296,2.5);
#39=ELLIPSE('',#560,3.82525607955202,2.5);
#40=ELLIPSE('',#561,3.82525607955203,2.5);
#41=ELLIPSE('',#563,140.627925805646,2.5);
#42=ELLIPSE('',#564,140.627925805646,2.5);
#43=PLANE('',#526);
#44=PLANE('',#533);
#45=PLANE('',#535);
#46=PLANE('',#567);
#47=PLANE('',#569);
#48=PLANE('',#571);
#49=PLANE('',#572);
#50=PLANE('',#573);
#51=PLANE('',#578);
#52=SPHERICAL_SURFACE('',#523,2.5);
#53=SPHERICAL_SURFACE('',#537,19.);
#54=SPHERICAL_SURFACE('',#539,0.0800000000000001);
#55=SPHERICAL_SURFACE('',#543,0.0799999999999895);
#56=SPHERICAL_SURFACE('',#552,0.0800000000000001);
#57=SPHERICAL_SURFACE('',#575,20.);
#58=SPHERICAL_SURFACE('',#580,25.);
#59=(
BOUNDED_SURFACE()
B_SPLINE_SURFACE(2,2,((#776,#777,#778),(#779,#780,#781),(#782,#783,#784)),
 .UNSPECIFIED.,.F.,.F.,.F.)
B_SPLINE_SURFACE_WITH_KNOTS((3,3),(3,3),(-1.5707963267949,0.),(-2.71451413268399,
-1.5707963267949),.UNSPECIFIED.)
GEOMETRIC_REPRESENTATION_ITEM()
RATIONAL_B_SPLINE_SURFACE(((1.,0.840896397533147,1.),(0.707106781186548,
0.594603544971028,0.707106781186548),(1.,0.840896397533147,1.)))
REPRESENTATION_ITEM('')
SURFACE()
);
#60=FACE_OUTER_BOUND('',#94,.T.);
#61=FACE_OUTER_BOUND('',#95,.T.);
#62=FACE_OUTER_BOUND('',#96,.T.);
#63=FACE_OUTER_BOUND('',#97,.T.);
#64=FACE_OUTER_BOUND('',#98,.T.);
#65=FACE_OUTER_BOUND('',#99,.T.);
#66=FACE_OUTER_BOUND('',#100,.T.);
#67=FACE_OUTER_BOUND('',#101,.T.);
#68=FACE_OUTER_BOUND('',#102,.T.);
#69=FACE_OUTER_BOUND('',#103,.T.);
#70=FACE_OUTER_BOUND('',#104,.T.);
#71=FACE_OUTER_BOUND('',#106,.T.);
#72=FACE_OUTER_BOUND('',#107,.T.);
#73=FACE_OUTER_BOUND('',#108,.T.);
#74=FACE_OUTER_BOUND('',#109,.T.);
#75=FACE_OUTER_BOUND('',#110,.T.);
#76=FACE_OUTER_BOUND('',#111,.T.);
#77=FACE_OUTER_BOUND('',#112,.T.);
#78=FACE_OUTER_BOUND('',#113,.T.);
#79=FACE_OUTER_BOUND('',#114,.T.);
#80=FACE_OUTER_BOUND('',#115,.T.);
#81=FACE_OUTER_BOUND('',#116,.T.);
#82=FACE_OUTER_BOUND('',#117,.T.);
#83=FACE_OUTER_BOUND('',#118,.T.);
#84=FACE_OUTER_BOUND('',#119,.T.);
#85=FACE_OUTER_BOUND('',#120,.T.);
#86=FACE_OUTER_BOUND('',#121,.T.);
#87=FACE_OUTER_BOUND('',#122,.T.);
#88=FACE_OUTER_BOUND('',#123,.T.);
#89=FACE_OUTER_BOUND('',#124,.T.);
#90=FACE_OUTER_BOUND('',#125,.T.);
#91=FACE_OUTER_BOUND('',#126,.T.);
#92=FACE_OUTER_BOUND('',#127,.T.);
#93=FACE_OUTER_BOUND('',#129,.T.);
#94=EDGE_LOOP('',(#313,#314,#315,#316));
#95=EDGE_LOOP('',(#317,#318,#319,#320));
#96=EDGE_LOOP('',(#321,#322,#323,#324));
#97=EDGE_LOOP('',(#325,#326,#327,#328,#329));
#98=EDGE_LOOP('',(#330,#331,#332,#333));
#99=EDGE_LOOP('',(#334,#335,#336,#337));
#100=EDGE_LOOP('',(#338,#339,#340));
#101=EDGE_LOOP('',(#341,#342,#343,#344));
#102=EDGE_LOOP('',(#345,#346,#347,#348));
#103=EDGE_LOOP('',(#349,#350,#351,#352));
#104=EDGE_LOOP('',(#353,#354));
#105=EDGE_LOOP('',(#355,#356,#357,#358,#359,#360));
#106=EDGE_LOOP('',(#361,#362,#363));
#107=EDGE_LOOP('',(#364,#365,#366));
#108=EDGE_LOOP('',(#367,#368,#369,#370));
#109=EDGE_LOOP('',(#371,#372,#373,#374));
#110=EDGE_LOOP('',(#375,#376,#377));
#111=EDGE_LOOP('',(#378,#379,#380));
#112=EDGE_LOOP('',(#381,#382,#383,#384));
#113=EDGE_LOOP('',(#385,#386,#387,#388));
#114=EDGE_LOOP('',(#389,#390,#391,#392));
#115=EDGE_LOOP('',(#393,#394,#395));
#116=EDGE_LOOP('',(#396,#397,#398));
#117=EDGE_LOOP('',(#399,#400,#401,#402));
#118=EDGE_LOOP('',(#403,#404,#405,#406));
#119=EDGE_LOOP('',(#407,#408,#409,#410));
#120=EDGE_LOOP('',(#411,#412,#413,#414));
#121=EDGE_LOOP('',(#415,#416,#417));
#122=EDGE_LOOP('',(#418,#419,#420,#421));
#123=EDGE_LOOP('',(#422,#423,#424,#425));
#124=EDGE_LOOP('',(#426,#427,#428,#429));
#125=EDGE_LOOP('',(#430,#431,#432));
#126=EDGE_LOOP('',(#433,#434,#435));
#127=EDGE_LOOP('',(#436));
#128=EDGE_LOOP('',(#437));
#129=EDGE_LOOP('',(#438,#439,#440));
#130=B_SPLINE_CURVE_WITH_KNOTS('',3,(#758,#759,#760,#761,#762,#763,#764,
#765,#766,#767,#768,#769,#770,#771,#772,#773,#774),.UNSPECIFIED.,.F.,.F.,
(4,2,2,2,3,2,2,4),(-0.290417168369468,-0.290245447589784,-0.19436133807043,
-0.0971806690352148,0.,0.0952223259174958,0.190444651834992,0.284809248043515),
 .UNSPECIFIED.);
#131=B_SPLINE_CURVE_WITH_KNOTS('',3,(#795,#796,#797,#798,#799,#800,#801,
#802,#803,#804,#805,#806,#807,#808,#809),.UNSPECIFIED.,.F.,.F.,(4,2,2,3,
2,2,4),(-0.189027890922376,-0.188162275806479,-0.0940811379032396,0.,0.0940811379032395,
0.188162275806479,0.189027890921823),.UNSPECIFIED.);
#132=B_SPLINE_CURVE_WITH_KNOTS('',3,(#872,#873,#874,#875,#876,#877,#878,
#879,#880,#881,#882,#883,#884,#885,#886,#887,#888),.UNSPECIFIED.,.F.,.F.,
(4,2,2,3,2,2,2,4),(-0.284826931147223,-0.191010987662264,-0.0955054938311319,
0.,0.0971806690352148,0.19436133807043,0.290245447589784,0.290417168369468),
 .UNSPECIFIED.);
#133=LINE('',#756,#158);
#134=LINE('',#775,#159);
#135=LINE('',#810,#160);
#136=LINE('',#811,#161);
#137=LINE('',#820,#162);
#138=LINE('',#868,#163);
#139=LINE('',#871,#164);
#140=LINE('',#912,#165);
#141=LINE('',#913,#166);
#142=LINE('',#918,#167);
#143=LINE('',#919,#168);
#144=LINE('',#956,#169);
#145=LINE('',#957,#170);
#146=LINE('',#959,#171);
#147=LINE('',#960,#172);
#148=LINE('',#965,#173);
#149=LINE('',#966,#174);
#150=LINE('',#1077,#175);
#151=LINE('',#1078,#176);
#152=LINE('',#1080,#177);
#153=LINE('',#1081,#178);
#154=LINE('',#1083,#179);
#155=LINE('',#1085,#180);
#156=LINE('',#1088,#181);
#157=LINE('',#1089,#182);
#158=VECTOR('',#592,10.);
#159=VECTOR('',#593,10.);
#160=VECTOR('',#604,10.);
#161=VECTOR('',#605,10.);
#162=VECTOR('',#616,10.);
#163=VECTOR('',#625,10.);
#164=VECTOR('',#628,10.);
#165=VECTOR('',#659,10.);
#166=VECTOR('',#660,10.);
#167=VECTOR('',#665,10.);
#168=VECTOR('',#666,10.);
#169=VECTOR('',#681,10.);
#170=VECTOR('',#682,10.);
#171=VECTOR('',#685,10.);
#172=VECTOR('',#686,10.);
#173=VECTOR('',#691,10.);
#174=VECTOR('',#692,10.);
#175=VECTOR('',#705,10.);
#176=VECTOR('',#706,10.);
#177=VECTOR('',#709,10.);
#178=VECTOR('',#710,10.);
#179=VECTOR('',#713,10.);
#180=VECTOR('',#716,10.);
#181=VECTOR('',#721,10.);
#182=VECTOR('',#722,10.);
#183=CIRCLE('',#517,2.5);
#184=CIRCLE('',#518,2.5);
#185=CIRCLE('',#519,2.5);
#186=CIRCLE('',#520,2.5);
#187=CIRCLE('',#521,5.);
#188=CIRCLE('',#524,2.5);
#189=CIRCLE('',#525,2.5);
#190=CIRCLE('',#528,17.6351920463);
#191=CIRCLE('',#530,2.5);
#192=CIRCLE('',#534,19.);
#193=CIRCLE('',#536,19.);
#194=CIRCLE('',#538,19.);
#195=CIRCLE('',#540,0.0800000000000003);
#196=CIRCLE('',#541,0.0800000000000001);
#197=CIRCLE('',#542,0.0800000000000159);
#198=CIRCLE('',#544,0.0800000000000001);
#199=CIRCLE('',#545,0.0799999999999895);
#200=CIRCLE('',#546,0.0799999999999996);
#201=CIRCLE('',#549,0.0799999999999946);
#202=CIRCLE('',#553,0.0800000000000633);
#203=CIRCLE('',#554,0.0800000000000001);
#204=CIRCLE('',#555,0.080000000000009);
#205=CIRCLE('',#559,0.0800000000000938);
#206=CIRCLE('',#562,0.0799999999999873);
#207=CIRCLE('',#576,20.);
#208=CIRCLE('',#577,20.);
#209=CIRCLE('',#579,25.);
#210=CIRCLE('',#581,25.);
#211=VERTEX_POINT('',#752);
#212=VERTEX_POINT('',#753);
#213=VERTEX_POINT('',#755);
#214=VERTEX_POINT('',#757);
#215=VERTEX_POINT('',#785);
#216=VERTEX_POINT('',#787);
#217=VERTEX_POINT('',#789);
#218=VERTEX_POINT('',#793);
#219=VERTEX_POINT('',#794);
#220=VERTEX_POINT('',#814);
#221=VERTEX_POINT('',#817);
#222=VERTEX_POINT('',#819);
#223=VERTEX_POINT('',#864);
#224=VERTEX_POINT('',#870);
#225=VERTEX_POINT('',#894);
#226=VERTEX_POINT('',#895);
#227=VERTEX_POINT('',#898);
#228=VERTEX_POINT('',#899);
#229=VERTEX_POINT('',#901);
#230=VERTEX_POINT('',#905);
#231=VERTEX_POINT('',#906);
#232=VERTEX_POINT('',#908);
#233=VERTEX_POINT('',#915);
#234=VERTEX_POINT('',#916);
#235=VERTEX_POINT('',#945);
#236=VERTEX_POINT('',#949);
#237=VERTEX_POINT('',#950);
#238=VERTEX_POINT('',#952);
#239=VERTEX_POINT('',#962);
#240=VERTEX_POINT('',#963);
#241=VERTEX_POINT('',#997);
#242=VERTEX_POINT('',#1070);
#243=VERTEX_POINT('',#1071);
#244=VERTEX_POINT('',#1073);
#245=VERTEX_POINT('',#1095);
#246=VERTEX_POINT('',#1097);
#247=VERTEX_POINT('',#1100);
#248=VERTEX_POINT('',#1103);
#249=EDGE_CURVE('',#211,#212,#183,.T.);
#250=EDGE_CURVE('',#212,#213,#133,.T.);
#251=EDGE_CURVE('',#213,#214,#130,.F.);
#252=EDGE_CURVE('',#214,#211,#134,.T.);
#253=EDGE_CURVE('',#215,#211,#184,.T.);
#254=EDGE_CURVE('',#211,#216,#185,.T.);
#255=EDGE_CURVE('',#216,#217,#186,.T.);
#256=EDGE_CURVE('',#217,#215,#187,.T.);
#257=EDGE_CURVE('',#218,#219,#131,.F.);
#258=EDGE_CURVE('',#219,#217,#135,.T.);
#259=EDGE_CURVE('',#216,#218,#136,.T.);
#260=EDGE_CURVE('',#215,#212,#188,.T.);
#261=EDGE_CURVE('',#220,#211,#189,.T.);
#262=EDGE_CURVE('',#221,#212,#35,.T.);
#263=EDGE_CURVE('',#222,#221,#137,.T.);
#264=EDGE_CURVE('',#213,#222,#190,.T.);
#265=EDGE_CURVE('',#215,#223,#36,.T.);
#266=EDGE_CURVE('',#221,#223,#191,.T.);
#267=EDGE_CURVE('',#217,#223,#138,.T.);
#268=EDGE_CURVE('',#223,#224,#139,.T.);
#269=EDGE_CURVE('',#224,#222,#132,.F.);
#270=EDGE_CURVE('',#218,#214,#192,.T.);
#271=EDGE_CURVE('',#224,#219,#193,.T.);
#272=EDGE_CURVE('',#225,#226,#194,.T.);
#273=EDGE_CURVE('',#227,#228,#195,.F.);
#274=EDGE_CURVE('',#229,#227,#196,.F.);
#275=EDGE_CURVE('',#228,#229,#197,.F.);
#276=EDGE_CURVE('',#230,#231,#198,.F.);
#277=EDGE_CURVE('',#232,#230,#199,.F.);
#278=EDGE_CURVE('',#231,#232,#200,.F.);
#279=EDGE_CURVE('',#230,#229,#140,.T.);
#280=EDGE_CURVE('',#227,#232,#141,.T.);
#281=EDGE_CURVE('',#233,#234,#201,.T.);
#282=EDGE_CURVE('',#234,#231,#142,.T.);
#283=EDGE_CURVE('',#232,#233,#143,.T.);
#284=EDGE_CURVE('',#233,#235,#37,.T.);
#285=EDGE_CURVE('',#235,#234,#38,.T.);
#286=EDGE_CURVE('',#236,#237,#202,.F.);
#287=EDGE_CURVE('',#238,#236,#203,.F.);
#288=EDGE_CURVE('',#237,#238,#204,.F.);
#289=EDGE_CURVE('',#229,#238,#144,.T.);
#290=EDGE_CURVE('',#236,#228,#145,.T.);
#291=EDGE_CURVE('',#238,#230,#146,.T.);
#292=EDGE_CURVE('',#231,#237,#147,.T.);
#293=EDGE_CURVE('',#239,#240,#205,.T.);
#294=EDGE_CURVE('',#240,#236,#148,.T.);
#295=EDGE_CURVE('',#237,#239,#149,.T.);
#296=EDGE_CURVE('',#239,#241,#39,.T.);
#297=EDGE_CURVE('',#241,#240,#40,.T.);
#298=EDGE_CURVE('',#242,#243,#206,.T.);
#299=EDGE_CURVE('',#243,#244,#41,.T.);
#300=EDGE_CURVE('',#244,#242,#42,.T.);
#301=EDGE_CURVE('',#242,#227,#150,.T.);
#302=EDGE_CURVE('',#228,#243,#151,.T.);
#303=EDGE_CURVE('',#235,#241,#152,.T.);
#304=EDGE_CURVE('',#239,#234,#153,.T.);
#305=EDGE_CURVE('',#233,#242,#154,.T.);
#306=EDGE_CURVE('',#244,#235,#155,.T.);
#307=EDGE_CURVE('',#241,#244,#156,.T.);
#308=EDGE_CURVE('',#243,#240,#157,.T.);
#309=EDGE_CURVE('',#245,#245,#207,.T.);
#310=EDGE_CURVE('',#245,#246,#208,.T.);
#311=EDGE_CURVE('',#247,#247,#209,.T.);
#312=EDGE_CURVE('',#248,#247,#210,.T.);
#313=ORIENTED_EDGE('',*,*,#249,.T.);
#314=ORIENTED_EDGE('',*,*,#250,.T.);
#315=ORIENTED_EDGE('',*,*,#251,.T.);
#316=ORIENTED_EDGE('',*,*,#252,.T.);
#317=ORIENTED_EDGE('',*,*,#253,.T.);
#318=ORIENTED_EDGE('',*,*,#254,.T.);
#319=ORIENTED_EDGE('',*,*,#255,.T.);
#320=ORIENTED_EDGE('',*,*,#256,.T.);
#321=ORIENTED_EDGE('',*,*,#257,.T.);
#322=ORIENTED_EDGE('',*,*,#258,.T.);
#323=ORIENTED_EDGE('',*,*,#255,.F.);
#324=ORIENTED_EDGE('',*,*,#259,.T.);
#325=ORIENTED_EDGE('',*,*,#253,.F.);
#326=ORIENTED_EDGE('',*,*,#260,.T.);
#327=ORIENTED_EDGE('',*,*,#249,.F.);
#328=ORIENTED_EDGE('',*,*,#261,.F.);
#329=ORIENTED_EDGE('',*,*,#261,.T.);
#330=ORIENTED_EDGE('',*,*,#250,.F.);
#331=ORIENTED_EDGE('',*,*,#262,.F.);
#332=ORIENTED_EDGE('',*,*,#263,.F.);
#333=ORIENTED_EDGE('',*,*,#264,.F.);
#334=ORIENTED_EDGE('',*,*,#260,.F.);
#335=ORIENTED_EDGE('',*,*,#265,.T.);
#336=ORIENTED_EDGE('',*,*,#266,.F.);
#337=ORIENTED_EDGE('',*,*,#262,.T.);
#338=ORIENTED_EDGE('',*,*,#256,.F.);
#339=ORIENTED_EDGE('',*,*,#267,.T.);
#340=ORIENTED_EDGE('',*,*,#265,.F.);
#341=ORIENTED_EDGE('',*,*,#266,.T.);
#342=ORIENTED_EDGE('',*,*,#268,.T.);
#343=ORIENTED_EDGE('',*,*,#269,.T.);
#344=ORIENTED_EDGE('',*,*,#263,.T.);
#345=ORIENTED_EDGE('',*,*,#252,.F.);
#346=ORIENTED_EDGE('',*,*,#270,.F.);
#347=ORIENTED_EDGE('',*,*,#259,.F.);
#348=ORIENTED_EDGE('',*,*,#254,.F.);
#349=ORIENTED_EDGE('',*,*,#258,.F.);
#350=ORIENTED_EDGE('',*,*,#271,.F.);
#351=ORIENTED_EDGE('',*,*,#268,.F.);
#352=ORIENTED_EDGE('',*,*,#267,.F.);
#353=ORIENTED_EDGE('',*,*,#272,.T.);
#354=ORIENTED_EDGE('',*,*,#272,.F.);
#355=ORIENTED_EDGE('',*,*,#270,.T.);
#356=ORIENTED_EDGE('',*,*,#251,.F.);
#357=ORIENTED_EDGE('',*,*,#264,.T.);
#358=ORIENTED_EDGE('',*,*,#269,.F.);
#359=ORIENTED_EDGE('',*,*,#271,.T.);
#360=ORIENTED_EDGE('',*,*,#257,.F.);
#361=ORIENTED_EDGE('',*,*,#273,.F.);
#362=ORIENTED_EDGE('',*,*,#274,.F.);
#363=ORIENTED_EDGE('',*,*,#275,.F.);
#364=ORIENTED_EDGE('',*,*,#276,.F.);
#365=ORIENTED_EDGE('',*,*,#277,.F.);
#366=ORIENTED_EDGE('',*,*,#278,.F.);
#367=ORIENTED_EDGE('',*,*,#277,.T.);
#368=ORIENTED_EDGE('',*,*,#279,.T.);
#369=ORIENTED_EDGE('',*,*,#274,.T.);
#370=ORIENTED_EDGE('',*,*,#280,.T.);
#371=ORIENTED_EDGE('',*,*,#281,.T.);
#372=ORIENTED_EDGE('',*,*,#282,.T.);
#373=ORIENTED_EDGE('',*,*,#278,.T.);
#374=ORIENTED_EDGE('',*,*,#283,.T.);
#375=ORIENTED_EDGE('',*,*,#281,.F.);
#376=ORIENTED_EDGE('',*,*,#284,.T.);
#377=ORIENTED_EDGE('',*,*,#285,.T.);
#378=ORIENTED_EDGE('',*,*,#286,.F.);
#379=ORIENTED_EDGE('',*,*,#287,.F.);
#380=ORIENTED_EDGE('',*,*,#288,.F.);
#381=ORIENTED_EDGE('',*,*,#275,.T.);
#382=ORIENTED_EDGE('',*,*,#289,.T.);
#383=ORIENTED_EDGE('',*,*,#287,.T.);
#384=ORIENTED_EDGE('',*,*,#290,.T.);
#385=ORIENTED_EDGE('',*,*,#288,.T.);
#386=ORIENTED_EDGE('',*,*,#291,.T.);
#387=ORIENTED_EDGE('',*,*,#276,.T.);
#388=ORIENTED_EDGE('',*,*,#292,.T.);
#389=ORIENTED_EDGE('',*,*,#293,.T.);
#390=ORIENTED_EDGE('',*,*,#294,.T.);
#391=ORIENTED_EDGE('',*,*,#286,.T.);
#392=ORIENTED_EDGE('',*,*,#295,.T.);
#393=ORIENTED_EDGE('',*,*,#293,.F.);
#394=ORIENTED_EDGE('',*,*,#296,.T.);
#395=ORIENTED_EDGE('',*,*,#297,.T.);
#396=ORIENTED_EDGE('',*,*,#298,.T.);
#397=ORIENTED_EDGE('',*,*,#299,.T.);
#398=ORIENTED_EDGE('',*,*,#300,.T.);
#399=ORIENTED_EDGE('',*,*,#298,.F.);
#400=ORIENTED_EDGE('',*,*,#301,.T.);
#401=ORIENTED_EDGE('',*,*,#273,.T.);
#402=ORIENTED_EDGE('',*,*,#302,.T.);
#403=ORIENTED_EDGE('',*,*,#285,.F.);
#404=ORIENTED_EDGE('',*,*,#303,.T.);
#405=ORIENTED_EDGE('',*,*,#296,.F.);
#406=ORIENTED_EDGE('',*,*,#304,.T.);
#407=ORIENTED_EDGE('',*,*,#283,.F.);
#408=ORIENTED_EDGE('',*,*,#280,.F.);
#409=ORIENTED_EDGE('',*,*,#301,.F.);
#410=ORIENTED_EDGE('',*,*,#305,.F.);
#411=ORIENTED_EDGE('',*,*,#284,.F.);
#412=ORIENTED_EDGE('',*,*,#305,.T.);
#413=ORIENTED_EDGE('',*,*,#300,.F.);
#414=ORIENTED_EDGE('',*,*,#306,.T.);
#415=ORIENTED_EDGE('',*,*,#279,.F.);
#416=ORIENTED_EDGE('',*,*,#291,.F.);
#417=ORIENTED_EDGE('',*,*,#289,.F.);
#418=ORIENTED_EDGE('',*,*,#297,.F.);
#419=ORIENTED_EDGE('',*,*,#307,.T.);
#420=ORIENTED_EDGE('',*,*,#299,.F.);
#421=ORIENTED_EDGE('',*,*,#308,.T.);
#422=ORIENTED_EDGE('',*,*,#282,.F.);
#423=ORIENTED_EDGE('',*,*,#304,.F.);
#424=ORIENTED_EDGE('',*,*,#295,.F.);
#425=ORIENTED_EDGE('',*,*,#292,.F.);
#426=ORIENTED_EDGE('',*,*,#294,.F.);
#427=ORIENTED_EDGE('',*,*,#308,.F.);
#428=ORIENTED_EDGE('',*,*,#302,.F.);
#429=ORIENTED_EDGE('',*,*,#290,.F.);
#430=ORIENTED_EDGE('',*,*,#307,.F.);
#431=ORIENTED_EDGE('',*,*,#303,.F.);
#432=ORIENTED_EDGE('',*,*,#306,.F.);
#433=ORIENTED_EDGE('',*,*,#309,.F.);
#434=ORIENTED_EDGE('',*,*,#310,.T.);
#435=ORIENTED_EDGE('',*,*,#310,.F.);
#436=ORIENTED_EDGE('',*,*,#311,.F.);
#437=ORIENTED_EDGE('',*,*,#309,.T.);
#438=ORIENTED_EDGE('',*,*,#311,.T.);
#439=ORIENTED_EDGE('',*,*,#312,.F.);
#440=ORIENTED_EDGE('',*,*,#312,.T.);
#441=CYLINDRICAL_SURFACE('',#516,2.5);
#442=CYLINDRICAL_SURFACE('',#522,2.5);
#443=CYLINDRICAL_SURFACE('',#531,5.);
#444=CYLINDRICAL_SURFACE('',#532,2.5);
#445=CYLINDRICAL_SURFACE('',#547,0.08);
#446=CYLINDRICAL_SURFACE('',#548,0.08);
#447=CYLINDRICAL_SURFACE('',#556,0.08);
#448=CYLINDRICAL_SURFACE('',#557,0.08);
#449=CYLINDRICAL_SURFACE('',#558,0.08);
#450=CYLINDRICAL_SURFACE('',#565,0.08);
#451=CYLINDRICAL_SURFACE('',#566,2.5);
#452=CYLINDRICAL_SURFACE('',#568,2.5);
#453=CYLINDRICAL_SURFACE('',#570,2.5);
#454=ADVANCED_FACE('',(#60),#441,.T.);
#455=ADVANCED_FACE('',(#61),#59,.F.);
#456=ADVANCED_FACE('',(#62),#442,.T.);
#457=ADVANCED_FACE('',(#63),#52,.T.);
#458=ADVANCED_FACE('',(#64),#43,.T.);
#459=ADVANCED_FACE('',(#65),#31,.F.);
#460=ADVANCED_FACE('',(#66),#443,.T.);
#461=ADVANCED_FACE('',(#67),#444,.T.);
#462=ADVANCED_FACE('',(#68),#44,.T.);
#463=ADVANCED_FACE('',(#69),#45,.T.);
#464=ADVANCED_FACE('',(#70,#29),#53,.T.);
#465=ADVANCED_FACE('',(#71),#54,.T.);
#466=ADVANCED_FACE('',(#72),#55,.T.);
#467=ADVANCED_FACE('',(#73),#445,.T.);
#468=ADVANCED_FACE('',(#74),#446,.T.);
#469=ADVANCED_FACE('',(#75),#32,.F.);
#470=ADVANCED_FACE('',(#76),#56,.T.);
#471=ADVANCED_FACE('',(#77),#447,.T.);
#472=ADVANCED_FACE('',(#78),#448,.T.);
#473=ADVANCED_FACE('',(#79),#449,.T.);
#474=ADVANCED_FACE('',(#80),#33,.F.);
#475=ADVANCED_FACE('',(#81),#34,.F.);
#476=ADVANCED_FACE('',(#82),#450,.T.);
#477=ADVANCED_FACE('',(#83),#451,.T.);
#478=ADVANCED_FACE('',(#84),#46,.T.);
#479=ADVANCED_FACE('',(#85),#452,.T.);
#480=ADVANCED_FACE('',(#86),#47,.F.);
#481=ADVANCED_FACE('',(#87),#453,.T.);
#482=ADVANCED_FACE('',(#88),#48,.T.);
#483=ADVANCED_FACE('',(#89),#49,.T.);
#484=ADVANCED_FACE('',(#90),#50,.T.);
#485=ADVANCED_FACE('',(#91),#57,.F.);
#486=ADVANCED_FACE('',(#92,#30),#51,.F.);
#487=ADVANCED_FACE('',(#93),#58,.T.);
#488=CLOSED_SHELL('',(#454,#455,#456,#457,#458,#459,#460,#461,#462,#463,
#464));
#489=CLOSED_SHELL('',(#465,#466,#467,#468,#469,#470,#471,#472,#473,#474,
#475,#476,#477,#478,#479,#480,#481,#482,#483,#484));
#490=CLOSED_SHELL('',(#485,#486,#487));
#491=DERIVED_UNIT_ELEMENT(#495,1.);
#492=DERIVED_UNIT_ELEMENT(#1116,-3.);
#493=DERIVED_UNIT_ELEMENT(#495,1.);
#494=DERIVED_UNIT_ELEMENT(#1116,-3.);
#495=(
MASS_UNIT()
NAMED_UNIT(*)
SI_UNIT(.KILO.,.GRAM.)
);
#496=DERIVED_UNIT((#491,#492));
#497=DERIVED_UNIT((#493,#494));
#498=MEASURE_REPRESENTATION_ITEM('density measure',
POSITIVE_RATIO_MEASURE(7850.),#496);
#499=MEASURE_REPRESENTATION_ITEM('density measure',
POSITIVE_RATIO_MEASURE(7850.),#497);
#500=PROPERTY_DEFINITION_REPRESENTATION(#510,#504);
#501=PROPERTY_DEFINITION_REPRESENTATION(#511,#505);
#502=PROPERTY_DEFINITION_REPRESENTATION(#512,#506);
#503=PROPERTY_DEFINITION_REPRESENTATION(#513,#507);
#504=REPRESENTATION('material name',(#508),#1112);
#505=REPRESENTATION('density',(#498),#1112);
#506=REPRESENTATION('material name',(#509),#1113);
#507=REPRESENTATION('density',(#499),#1113);
#508=DESCRIPTIVE_REPRESENTATION_ITEM('Steel','Steel');
#509=DESCRIPTIVE_REPRESENTATION_ITEM('Steel','Steel');
#510=PROPERTY_DEFINITION('material property','material name',#1132);
#511=PROPERTY_DEFINITION('material property','density of part',#1132);
#512=PROPERTY_DEFINITION('material property','material name',#1133);
#513=PROPERTY_DEFINITION('material property','density of part',#1133);
#514=AXIS2_PLACEMENT_3D('',#749,#584,#585);
#515=AXIS2_PLACEMENT_3D('',#750,#586,#587);
#516=AXIS2_PLACEMENT_3D('',#751,#588,#589);
#517=AXIS2_PLACEMENT_3D('',#754,#590,#591);
#518=AXIS2_PLACEMENT_3D('',#786,#594,#595);
#519=AXIS2_PLACEMENT_3D('',#788,#596,#597);
#520=AXIS2_PLACEMENT_3D('',#790,#598,#599);
#521=AXIS2_PLACEMENT_3D('',#791,#600,#601);
#522=AXIS2_PLACEMENT_3D('',#792,#602,#603);
#523=AXIS2_PLACEMENT_3D('',#812,#606,#607);
#524=AXIS2_PLACEMENT_3D('',#813,#608,#609);
#525=AXIS2_PLACEMENT_3D('',#815,#610,#611);
#526=AXIS2_PLACEMENT_3D('',#816,#612,#613);
#527=AXIS2_PLACEMENT_3D('',#818,#614,#615);
#528=AXIS2_PLACEMENT_3D('',#821,#617,#618);
#529=AXIS2_PLACEMENT_3D('',#865,#619,#620);
#530=AXIS2_PLACEMENT_3D('',#866,#621,#622);
#531=AXIS2_PLACEMENT_3D('',#867,#623,#624);
#532=AXIS2_PLACEMENT_3D('',#869,#626,#627);
#533=AXIS2_PLACEMENT_3D('',#889,#629,#630);
#534=AXIS2_PLACEMENT_3D('',#890,#631,#632);
#535=AXIS2_PLACEMENT_3D('',#891,#633,#634);
#536=AXIS2_PLACEMENT_3D('',#892,#635,#636);
#537=AXIS2_PLACEMENT_3D('',#893,#637,#638);
#538=AXIS2_PLACEMENT_3D('',#896,#639,#640);
#539=AXIS2_PLACEMENT_3D('',#897,#641,#642);
#540=AXIS2_PLACEMENT_3D('',#900,#643,#644);
#541=AXIS2_PLACEMENT_3D('',#902,#645,#646);
#542=AXIS2_PLACEMENT_3D('',#903,#647,#648);
#543=AXIS2_PLACEMENT_3D('',#904,#649,#650);
#544=AXIS2_PLACEMENT_3D('',#907,#651,#652);
#545=AXIS2_PLACEMENT_3D('',#909,#653,#654);
#546=AXIS2_PLACEMENT_3D('',#910,#655,#656);
#547=AXIS2_PLACEMENT_3D('',#911,#657,#658);
#548=AXIS2_PLACEMENT_3D('',#914,#661,#662);
#549=AXIS2_PLACEMENT_3D('',#917,#663,#664);
#550=AXIS2_PLACEMENT_3D('',#946,#667,#668);
#551=AXIS2_PLACEMENT_3D('',#947,#669,#670);
#552=AXIS2_PLACEMENT_3D('',#948,#671,#672);
#553=AXIS2_PLACEMENT_3D('',#951,#673,#674);
#554=AXIS2_PLACEMENT_3D('',#953,#675,#676);
#555=AXIS2_PLACEMENT_3D('',#954,#677,#678);
#556=AXIS2_PLACEMENT_3D('',#955,#679,#680);
#557=AXIS2_PLACEMENT_3D('',#958,#683,#684);
#558=AXIS2_PLACEMENT_3D('',#961,#687,#688);
#559=AXIS2_PLACEMENT_3D('',#964,#689,#690);
#560=AXIS2_PLACEMENT_3D('',#998,#693,#694);
#561=AXIS2_PLACEMENT_3D('',#999,#695,#696);
#562=AXIS2_PLACEMENT_3D('',#1072,#697,#698);
#563=AXIS2_PLACEMENT_3D('',#1074,#699,#700);
#564=AXIS2_PLACEMENT_3D('',#1075,#701,#702);
#565=AXIS2_PLACEMENT_3D('',#1076,#703,#704);
#566=AXIS2_PLACEMENT_3D('',#1079,#707,#708);
#567=AXIS2_PLACEMENT_3D('',#1082,#711,#712);
#568=AXIS2_PLACEMENT_3D('',#1084,#714,#715);
#569=AXIS2_PLACEMENT_3D('',#1086,#717,#718);
#570=AXIS2_PLACEMENT_3D('',#1087,#719,#720);
#571=AXIS2_PLACEMENT_3D('',#1090,#723,#724);
#572=AXIS2_PLACEMENT_3D('',#1091,#725,#726);
#573=AXIS2_PLACEMENT_3D('',#1092,#727,#728);
#574=AXIS2_PLACEMENT_3D('',#1093,#729,#730);
#575=AXIS2_PLACEMENT_3D('',#1094,#731,#732);
#576=AXIS2_PLACEMENT_3D('',#1096,#733,#734);
#577=AXIS2_PLACEMENT_3D('',#1098,#735,#736);
#578=AXIS2_PLACEMENT_3D('',#1099,#737,#738);
#579=AXIS2_PLACEMENT_3D('',#1101,#739,#740);
#580=AXIS2_PLACEMENT_3D('',#1102,#741,#742);
#581=AXIS2_PLACEMENT_3D('',#1104,#743,#744);
#582=AXIS2_PLACEMENT_3D('',#1105,#745,#746);
#583=AXIS2_PLACEMENT_3D('',#1106,#747,#748);
#584=DIRECTION('axis',(0.,0.,1.));
#585=DIRECTION('refdir',(1.,0.,0.));
#586=DIRECTION('axis',(0.,0.,1.));
#587=DIRECTION('refdir',(1.,0.,0.));
#588=DIRECTION('center_axis',(0.,0.,1.));
#589=DIRECTION('ref_axis',(-0.38268343236509,0.923879532511287,0.));
#590=DIRECTION('center_axis',(0.,0.,-1.));
#591=DIRECTION('ref_axis',(-1.,0.,0.));
#592=DIRECTION('',(0.,0.,-1.));
#593=DIRECTION('',(0.,0.,1.));
#594=DIRECTION('center_axis',(0.,-0.910179748249922,-0.41421350276845));
#595=DIRECTION('ref_axis',(0.,-0.41421350276845,0.910179748249922));
#596=DIRECTION('center_axis',(1.,0.,0.));
#597=DIRECTION('ref_axis',(0.,-0.707106781186547,0.707106781186548));
#598=DIRECTION('center_axis',(0.,0.,1.));
#599=DIRECTION('ref_axis',(-1.,0.,0.));
#600=DIRECTION('center_axis',(-1.,0.,0.));
#601=DIRECTION('ref_axis',(0.,-0.707106781186547,0.707106781186548));
#602=DIRECTION('center_axis',(0.,0.,1.));
#603=DIRECTION('ref_axis',(-0.707106781186547,-0.707106781186547,0.));
#604=DIRECTION('',(0.,0.,1.));
#605=DIRECTION('',(0.,0.,-1.));
#606=DIRECTION('center_axis',(0.,0.,1.));
#607=DIRECTION('ref_axis',(1.,0.,0.));
#608=DIRECTION('center_axis',(-0.673113552152922,0.673113552152922,0.306327099382591));
#609=DIRECTION('ref_axis',(0.707106781186548,0.707106781186547,3.5527136788005E-15));
#610=DIRECTION('center_axis',(2.22044604925031E-16,-1.,0.));
#611=DIRECTION('ref_axis',(-1.,-2.22044604925031E-16,0.));
#612=DIRECTION('center_axis',(0.707106781186548,0.707106781186548,0.));
#613=DIRECTION('ref_axis',(-0.707106781186548,0.707106781186548,0.));
#614=DIRECTION('center_axis',(-0.707106781186548,-0.707106781186548,0.));
#615=DIRECTION('ref_axis',(0.707106781186547,-0.707106781186547,0.));
#616=DIRECTION('',(0.,0.,1.));
#617=DIRECTION('center_axis',(0.707106781186548,0.707106781186548,0.));
#618=DIRECTION('ref_axis',(0.,0.,-1.));
#619=DIRECTION('center_axis',(0.894427190999916,0.447213595499958,0.));
#620=DIRECTION('ref_axis',(0.447213595499958,-0.894427190999916,0.));
#621=DIRECTION('center_axis',(0.,0.,-1.));
#622=DIRECTION('ref_axis',(0.707106781186548,0.707106781186547,0.));
#623=DIRECTION('center_axis',(1.,0.,0.));
#624=DIRECTION('ref_axis',(0.,-0.707106781186547,0.707106781186547));
#625=DIRECTION('',(1.,0.,0.));
#626=DIRECTION('center_axis',(0.,0.,1.));
#627=DIRECTION('ref_axis',(0.923879532511287,-0.38268343236509,0.));
#628=DIRECTION('',(0.,0.,-1.));
#629=DIRECTION('center_axis',(-1.,0.,0.));
#630=DIRECTION('ref_axis',(0.,-1.,0.));
#631=DIRECTION('center_axis',(-1.,0.,0.));
#632=DIRECTION('ref_axis',(0.,0.,-1.));
#633=DIRECTION('center_axis',(0.,-1.,0.));
#634=DIRECTION('ref_axis',(1.,0.,0.));
#635=DIRECTION('center_axis',(0.,-1.,0.));
#636=DIRECTION('ref_axis',(0.,0.,1.));
#637=DIRECTION('center_axis',(0.0261802945775825,-0.980924572455417,0.192617692149473));
#638=DIRECTION('ref_axis',(0.132111016073042,0.194388742351913,0.971987498005499));
#639=DIRECTION('center_axis',(0.990889131844718,2.19122965386544E-17,-0.134680096495438));
#640=DIRECTION('ref_axis',(-0.132111016073042,-0.194388742351913,-0.971987498005499));
#641=DIRECTION('center_axis',(0.,0.,1.));
#642=DIRECTION('ref_axis',(1.,0.,0.));
#643=DIRECTION('center_axis',(0.,0.,-1.));
#644=DIRECTION('ref_axis',(0.578970995007919,-0.815348138490265,0.));
#645=DIRECTION('center_axis',(0.815348138491969,0.578970995005519,0.));
#646=DIRECTION('ref_axis',(0.,0.,-1.));
#647=DIRECTION('center_axis',(0.83478895303052,0.550570071742198,3.20233351176564E-12));
#648=DIRECTION('ref_axis',(-0.550570071742198,0.83478895303052,0.));
#649=DIRECTION('center_axis',(-0.996801114913562,0.0665710355144713,0.0442248181184606));
#650=DIRECTION('ref_axis',(-0.0799220702126695,-0.830284829274318,-0.551579155670189));
#651=DIRECTION('center_axis',(0.689938674361767,-0.723867823307493,0.));
#652=DIRECTION('ref_axis',(0.,0.,-1.));
#653=DIRECTION('center_axis',(-0.815348138490209,-0.578970995007998,-3.09601041137021E-13));
#654=DIRECTION('ref_axis',(0.578970995007998,-0.815348138490209,0.));
#655=DIRECTION('center_axis',(0.,0.,-1.));
#656=DIRECTION('ref_axis',(-0.723867823307415,-0.689938674361849,0.));
#657=DIRECTION('center_axis',(-0.815348138490182,-0.578970995008036,1.7754678064353E-16));
#658=DIRECTION('ref_axis',(0.409394316680441,-0.576538197754243,-0.707106781186578));
#659=DIRECTION('',(0.815348138490182,0.578970995008036,-1.7754678064353E-16));
#660=DIRECTION('',(-0.815348138490182,-0.578970995008036,1.7754678064353E-16));
#661=DIRECTION('center_axis',(-7.105427357601E-15,8.88178419700125E-15,
1.));
#662=DIRECTION('ref_axis',(-0.0958157405442197,-0.995399087735147,0.));
#663=DIRECTION('center_axis',(0.,0.,-1.));
#664=DIRECTION('ref_axis',(0.578970995008071,-0.815348138490157,0.));
#665=DIRECTION('',(7.105427357601E-15,-8.88178419700125E-15,-1.));
#666=DIRECTION('',(-7.105427357601E-15,8.88178419700125E-15,1.));
#667=DIRECTION('center_axis',(-0.99680891292407,0.0798247525215937,-7.9335367907622E-15));
#668=DIRECTION('ref_axis',(-0.0798247525215936,-0.99680891292407,8.16978565001172E-15));
#669=DIRECTION('center_axis',(0.993732748893102,-0.1117820369172,2.05869932229874E-14));
#670=DIRECTION('ref_axis',(-0.1117820369172,-0.993732748893102,8.16978565001179E-15));
#671=DIRECTION('center_axis',(0.610921952766748,-0.0694362710390801,-0.788639950732811));
#672=DIRECTION('ref_axis',(-0.783594882031293,0.0890619601524357,-0.614855290379916));
#673=DIRECTION('center_axis',(0.,0.,-1.));
#674=DIRECTION('ref_axis',(-0.550570071742149,0.834788953030552,0.));
#675=DIRECTION('center_axis',(-0.834788953030724,-0.550570071741888,0.));
#676=DIRECTION('ref_axis',(0.,0.,-1.));
#677=DIRECTION('center_axis',(-0.689938674361879,0.723867823307386,5.89556920338032E-13));
#678=DIRECTION('ref_axis',(-0.723867823307386,-0.689938674361879,0.));
#679=DIRECTION('center_axis',(0.834788953030565,0.550570071742129,1.76556066136769E-16));
#680=DIRECTION('ref_axis',(-0.38931183124731,0.590284929547557,-0.707106781186478));
#681=DIRECTION('',(-0.834788953030565,-0.550570071742129,-1.76556066136769E-16));
#682=DIRECTION('',(0.834788953030565,0.550570071742129,1.76556066136769E-16));
#683=DIRECTION('center_axis',(-0.689938674361836,0.723867823307427,-1.01551026321125E-14));
#684=DIRECTION('ref_axis',(-0.511851846543427,-0.487860315244169,-0.707106781186508));
#685=DIRECTION('',(0.689938674361836,-0.723867823307427,1.01551026321125E-14));
#686=DIRECTION('',(-0.689938674361836,0.723867823307427,-1.01551026321125E-14));
#687=DIRECTION('center_axis',(-7.105427357601E-15,8.88178419700125E-15,
1.));
#688=DIRECTION('ref_axis',(-0.993602823827537,0.112931078459137,0.));
#689=DIRECTION('center_axis',(-3.89166463437936E-14,4.0830452221512E-14,
-1.));
#690=DIRECTION('ref_axis',(-0.723867823307396,-0.689938674361869,0.));
#691=DIRECTION('',(7.105427357601E-15,-8.88178419700125E-15,-1.));
#692=DIRECTION('',(-7.105427357601E-15,8.88178419700125E-15,1.));
#693=DIRECTION('center_axis',(0.0969727416379738,0.995287037682705,-3.38641318432117E-15));
#694=DIRECTION('ref_axis',(-0.995287037682705,0.0969727416379738,-1.16093981844497E-14));
#695=DIRECTION('center_axis',(-0.128860334953216,-0.991662752187328,5.47870838082787E-15));
#696=DIRECTION('ref_axis',(-0.991662752187327,0.128860334953216,-1.16093981844496E-14));
#697=DIRECTION('center_axis',(-1.3152536663775E-12,-9.33949178230773E-13,
1.));
#698=DIRECTION('ref_axis',(0.578970995010234,-0.815348138488621,0.));
#699=DIRECTION('center_axis',(0.565323448555148,-0.824869322083029,0.));
#700=DIRECTION('ref_axis',(0.824869322083029,0.565323448555148,8.8421256337001E-16));
#701=DIRECTION('center_axis',(-0.564384723429501,0.825511892076308,1.65434631488496E-13));
#702=DIRECTION('ref_axis',(0.825511892076308,0.564384723429501,8.84212563370011E-16));
#703=DIRECTION('center_axis',(-7.10542735760099E-15,8.88178419700128E-15,
1.));
#704=DIRECTION('ref_axis',(0.825190740561539,0.564854177369255,0.));
#705=DIRECTION('',(7.10542735760098E-15,-8.88178419700127E-15,-1.));
#706=DIRECTION('',(-7.10542735760098E-15,8.88178419700127E-15,1.));
#707=DIRECTION('center_axis',(0.689938674361836,-0.723867823307427,1.13315469256472E-14));
#708=DIRECTION('ref_axis',(-0.511851846543432,-0.487860315244106,0.707106781186548));
#709=DIRECTION('',(-0.689938674361836,0.723867823307427,-1.13315469256472E-14));
#710=DIRECTION('',(0.689938674361836,-0.723867823307427,1.13315469256472E-14));
#711=DIRECTION('center_axis',(0.578970995008036,-0.815348138490182,1.13555825586841E-14));
#712=DIRECTION('ref_axis',(0.815348138490182,0.578970995008036,-1.77546780643529E-16));
#713=DIRECTION('',(0.815348138490182,0.578970995008036,6.51101535212729E-16));
#714=DIRECTION('center_axis',(0.815348138490182,0.578970995008036,6.51101535212729E-16));
#715=DIRECTION('ref_axis',(0.4093943166805,-0.57653819775423,0.707106781186556));
#716=DIRECTION('',(-0.815348138490182,-0.578970995008036,-6.51101535212729E-16));
#717=DIRECTION('center_axis',(-5.81108326271793E-15,8.4902400014768E-15,
1.));
#718=DIRECTION('ref_axis',(1.,-1.71905115110338E-45,5.81108326271793E-15));
#719=DIRECTION('center_axis',(-0.834788953030565,-0.550570071742129,-1.04148770214539E-15));
#720=DIRECTION('ref_axis',(-0.389311831247225,0.590284929547535,0.707106781186543));
#721=DIRECTION('',(0.834788953030565,0.550570071742129,1.04148770214539E-15));
#722=DIRECTION('',(-0.834788953030565,-0.550570071742129,-1.04148770214539E-15));
#723=DIRECTION('center_axis',(-0.723867823307427,-0.689938674361836,9.84496179831261E-16));
#724=DIRECTION('ref_axis',(0.689938674361836,-0.723867823307427,1.01551026321125E-14));
#725=DIRECTION('center_axis',(-0.550570071742129,0.834788953030565,-1.1326450980891E-14));
#726=DIRECTION('ref_axis',(-0.834788953030565,-0.550570071742129,-1.7655606613677E-16));
#727=DIRECTION('center_axis',(-7.105427357601E-15,8.88178419700125E-15,
1.));
#728=DIRECTION('ref_axis',(1.,-2.10194769648723E-45,7.105427357601E-15));
#729=DIRECTION('axis',(0.,0.,1.));
#730=DIRECTION('refdir',(1.,0.,0.));
#731=DIRECTION('center_axis',(0.,1.,-6.12323399573677E-17));
#732=DIRECTION('ref_axis',(0.,0.,-1.));
#733=DIRECTION('center_axis',(0.,1.,0.));
#734=DIRECTION('ref_axis',(0.,0.,-1.));
#735=DIRECTION('center_axis',(-1.,0.,1.22464679914735E-16));
#736=DIRECTION('ref_axis',(1.22464679914735E-16,0.,1.));
#737=DIRECTION('center_axis',(0.,1.,0.));
#738=DIRECTION('ref_axis',(0.,0.,1.));
#739=DIRECTION('center_axis',(0.,1.,0.));
#740=DIRECTION('ref_axis',(0.,0.,-1.));
#741=DIRECTION('center_axis',(0.,1.,-6.12323399573677E-17));
#742=DIRECTION('ref_axis',(0.,0.,-1.));
#743=DIRECTION('center_axis',(1.,0.,-1.22464679914735E-16));
#744=DIRECTION('ref_axis',(1.22464679914735E-16,0.,1.));
#745=DIRECTION('',(0.,0.,1.));
#746=DIRECTION('',(1.,0.,0.));
#747=DIRECTION('',(-1.6603120199616E-15,-2.76960705938644E-16,0.999999999999999));
#748=DIRECTION('',(0.999999999999999,-3.03056191253148E-15,2.22044604925035E-16));
#749=CARTESIAN_POINT('',(0.,0.,0.));
#750=CARTESIAN_POINT('',(0.,0.,0.));
#751=CARTESIAN_POINT('Origin',(2.5,3.96446624307887,0.));
#752=CARTESIAN_POINT('',(0.,3.96446624307887,37.2754493706248));
#753=CARTESIAN_POINT('',(4.26776695296637,5.73223319604524,37.2754493706248));
#754=CARTESIAN_POINT('Origin',(2.5,3.96446624307887,37.2754493706248));
#755=CARTESIAN_POINT('',(4.26776695296637,5.73223319604524,7.60476264598092));
#756=CARTESIAN_POINT('',(4.26776695296637,5.73223319604524,0.));
#757=CARTESIAN_POINT('',(0.,3.96446624307887,8.58179236261906));
#758=CARTESIAN_POINT('Ctrl Pts',(2.68882138776405E-16,3.96446624307887,
8.58179236261906));
#759=CARTESIAN_POINT('Ctrl Pts',(2.68786814596051E-16,3.96506131842821,
8.58166540198532));
#760=CARTESIAN_POINT('Ctrl Pts',(2.12339871983832E-7,3.96565638888966,8.58153841250759));
#761=CARTESIAN_POINT('Ctrl Pts',(0.000237976800258571,4.29851938953273,
8.51048792379627));
#762=CARTESIAN_POINT('Ctrl Pts',(0.0701122532945635,4.62908387073408,8.43010634005814));
#763=CARTESIAN_POINT('Ctrl Pts',(0.307583036738157,5.20623701621496,8.27307918922731));
#764=CARTESIAN_POINT('Ctrl Pts',(0.493036799766071,5.49211184172976,8.18549827262254));
#765=CARTESIAN_POINT('Ctrl Pts',(0.964562073980027,5.96547396555726,8.01669963015555));
#766=CARTESIAN_POINT('Ctrl Pts',(1.2506506808008,6.15294931165596,7.93549614290258));
#767=CARTESIAN_POINT('Ctrl Pts',(1.54329141908728,6.27416507435709,7.86765525231247));
#768=CARTESIAN_POINT('Ctrl Pts',(1.83003498686158,6.39293814905246,7.80118146222194));
#769=CARTESIAN_POINT('Ctrl Pts',(2.16158152469396,6.46379582740314,7.73866731425995));
#770=CARTESIAN_POINT('Ctrl Pts',(2.8284389664189,6.46512669968499,7.64413440899015));
#771=CARTESIAN_POINT('Ctrl Pts',(3.16375900835518,6.39550876040183,7.61217886334273));
#772=CARTESIAN_POINT('Ctrl Pts',(3.74701936525341,6.15391441018001,7.58374602194726));
#773=CARTESIAN_POINT('Ctrl Pts',(4.03245040757279,5.96754974143882,7.58518765118566));
#774=CARTESIAN_POINT('Ctrl Pts',(4.26776695296637,5.73223319604524,7.60476264598092));
#775=CARTESIAN_POINT('',(0.,3.96446624307887,0.));
#776=CARTESIAN_POINT('Ctrl Pts',(0.,3.96446624307887,37.2754493706248));
#777=CARTESIAN_POINT('Ctrl Pts',(0.,2.5,36.6089857480291));
#778=CARTESIAN_POINT('Ctrl Pts',(0.,2.5,35.));
#779=CARTESIAN_POINT('Ctrl Pts',(-1.73500008164667E-15,2.92893248615775,
39.5508987412496));
#780=CARTESIAN_POINT('Ctrl Pts',(-1.71459551809267E-15,-1.11022302462516E-15,
38.2179714960583));
#781=CARTESIAN_POINT('Ctrl Pts',(-1.66533453693773E-15,0.,35.));
#782=CARTESIAN_POINT('Ctrl Pts',(2.5,2.92893248615775,39.5508987412496));
#783=CARTESIAN_POINT('Ctrl Pts',(2.5,-1.11022302462516E-15,38.2179714960583));
#784=CARTESIAN_POINT('Ctrl Pts',(2.5,0.,35.));
#785=CARTESIAN_POINT('',(2.5,2.92893248615775,39.5508987412496));
#786=CARTESIAN_POINT('Origin',(2.5,3.96446624307887,37.2754493706248));
#787=CARTESIAN_POINT('',(0.,2.5,35.));
#788=CARTESIAN_POINT('Origin',(0.,5.,35.));
#789=CARTESIAN_POINT('',(2.5,0.,35.));
#790=CARTESIAN_POINT('Origin',(2.5,2.5,35.));
#791=CARTESIAN_POINT('Origin',(2.5,5.,35.));
#792=CARTESIAN_POINT('Origin',(2.5,2.5,0.));
#793=CARTESIAN_POINT('',(0.,2.5,8.83480820183736));
#794=CARTESIAN_POINT('',(2.5,0.,8.83480820183736));
#795=CARTESIAN_POINT('Ctrl Pts',(2.5,3.55618312575245E-16,8.83480820183736));
#796=CARTESIAN_POINT('Ctrl Pts',(2.49713631664066,3.55217885299675E-16,
8.83518830702992));
#797=CARTESIAN_POINT('Ctrl Pts',(2.49427423046728,4.92043403705287E-6,8.83556753561309));
#798=CARTESIAN_POINT('Ctrl Pts',(2.18051957502804,0.00108251376979711,8.87706758344829));
#799=CARTESIAN_POINT('Ctrl Pts',(1.84781857890655,0.0638346475910338,8.91275480465408));
#800=CARTESIAN_POINT('Ctrl Pts',(1.23454392826,0.318518067689225,8.96009626013284));
#801=CARTESIAN_POINT('Ctrl Pts',(0.95398441567739,0.510481678389873,8.97175979000535));
#802=CARTESIAN_POINT('Ctrl Pts',(0.732233047033631,0.732233047033631,8.97175979000535));
#803=CARTESIAN_POINT('Ctrl Pts',(0.510481678389873,0.953984415677389,8.97175979000535));
#804=CARTESIAN_POINT('Ctrl Pts',(0.318518067689226,1.23454392826,8.96009626013284));
#805=CARTESIAN_POINT('Ctrl Pts',(0.063834647591034,1.84781857890655,8.91275480465408));
#806=CARTESIAN_POINT('Ctrl Pts',(0.00108251376979732,2.18051957502804,8.87706758344829));
#807=CARTESIAN_POINT('Ctrl Pts',(4.92043404331732E-6,2.49427423046546,8.83556753561333));
#808=CARTESIAN_POINT('Ctrl Pts',(3.03576608295941E-16,2.49713631663885,
8.83518830703016));
#809=CARTESIAN_POINT('Ctrl Pts',(3.03576608295941E-16,2.5,8.83480820183736));
#810=CARTESIAN_POINT('',(2.5,0.,0.));
#811=CARTESIAN_POINT('',(0.,2.5,0.));
#812=CARTESIAN_POINT('Origin',(2.5,3.96446624307887,37.2754493706248));
#813=CARTESIAN_POINT('Origin',(2.5,3.96446624307887,37.2754493706248));
#814=CARTESIAN_POINT('',(2.5,3.96446624307887,39.7754493706248));
#815=CARTESIAN_POINT('Origin',(2.5,3.96446624307887,37.2754493706248));
#816=CARTESIAN_POINT('Origin',(10.0000001490116,0.,0.));
#817=CARTESIAN_POINT('',(5.73223319604524,4.26776695296637,35.));
#818=CARTESIAN_POINT('Origin',(3.23223319604524,6.76776695296637,35.));
#819=CARTESIAN_POINT('',(5.73223319604525,4.26776695296637,7.60476264598092));
#820=CARTESIAN_POINT('',(5.73223319604524,4.26776695296637,0.));
#821=CARTESIAN_POINT('Origin',(5.00000007450581,5.00000007450581,-10.));
#822=CARTESIAN_POINT('Ctrl Pts',(5.73223319604524,4.26776695296637,35.));
#823=CARTESIAN_POINT('Ctrl Pts',(5.73223319604524,4.26776695296637,35.2723137633069));
#824=CARTESIAN_POINT('Ctrl Pts',(5.66422566170253,4.33577448730908,35.6801544946888));
#825=CARTESIAN_POINT('Ctrl Pts',(5.28556645514584,4.71443369386577,36.5590115659673));
#826=CARTESIAN_POINT('Ctrl Pts',(4.76347589802975,5.23652425098187,37.049857295122));
#827=CARTESIAN_POINT('Ctrl Pts',(4.26776695296637,5.73223319604524,37.2754493706248));
#828=CARTESIAN_POINT('Ctrl Pts',(6.12891917266653,3.87108097634509,35.));
#829=CARTESIAN_POINT('Ctrl Pts',(6.12891917266653,3.87108097634509,35.3585226610315));
#830=CARTESIAN_POINT('Ctrl Pts',(6.03387884420931,3.96648843442307,35.8932285044899));
#831=CARTESIAN_POINT('Ctrl Pts',(5.53691512906226,4.46264156253171,36.9697770199178));
#832=CARTESIAN_POINT('Ctrl Pts',(4.91791104061056,5.08244160899549,37.4833870414226));
#833=CARTESIAN_POINT('Ctrl Pts',(4.36410749356468,5.63589265544693,37.6988407299213));
#834=CARTESIAN_POINT('Ctrl Pts',(6.6431112156206,2.80116354879643,35.));
#835=CARTESIAN_POINT('Ctrl Pts',(6.6431112156206,2.80116354879643,35.531512273924));
#836=CARTESIAN_POINT('Ctrl Pts',(6.5009983025786,2.95687563040628,36.319738638972));
#837=CARTESIAN_POINT('Ctrl Pts',(5.8014065801297,3.72427092374572,37.7924145400692));
#838=CARTESIAN_POINT('Ctrl Pts',(5.02668062966643,4.5739036039824,38.3503062152211));
#839=CARTESIAN_POINT('Ctrl Pts',(4.38460007381603,5.27126284370315,38.545096584568));
#840=CARTESIAN_POINT('Ctrl Pts',(6.28070582644465,1.21068341332295,35.));
#841=CARTESIAN_POINT('Ctrl Pts',(6.28070582644465,1.21068341332295,35.6649845038934));
#842=CARTESIAN_POINT('Ctrl Pts',(6.12762053768004,1.41708016030555,36.6512801332505));
#843=CARTESIAN_POINT('Ctrl Pts',(5.38606768981817,2.4303272265309,38.4847612186272));
#844=CARTESIAN_POINT('Ctrl Pts',(4.58522962298237,3.54294693615121,39.1606655337539));
#845=CARTESIAN_POINT('Ctrl Pts',(3.93273641056747,4.43716009805143,39.3850167452284));
#846=CARTESIAN_POINT('Ctrl Pts',(5.2255020809624,0.217171348153794,35.));
#847=CARTESIAN_POINT('Ctrl Pts',(5.2255020809624,0.217171348153793,35.6582888964398));
#848=CARTESIAN_POINT('Ctrl Pts',(5.10672891227762,0.413300110414218,36.6378065224565));
#849=CARTESIAN_POINT('Ctrl Pts',(4.5125938080759,1.41365107670238,38.5553057081879));
#850=CARTESIAN_POINT('Ctrl Pts',(3.82665582014677,2.5963119876024,39.3881284289186));
#851=CARTESIAN_POINT('Ctrl Pts',(3.23977679927485,3.59790380723423,39.706484476361));
#852=CARTESIAN_POINT('Ctrl Pts',(4.38521525918465,4.67125245269013E-17,
35.));
#853=CARTESIAN_POINT('Ctrl Pts',(4.38521525918465,-7.24539213776849E-16,
35.5905971537877));
#854=CARTESIAN_POINT('Ctrl Pts',(4.30035345395283,0.159700687993285,36.4726278674892));
#855=CARTESIAN_POINT('Ctrl Pts',(3.84947201357464,1.01691465391116,38.3044585106159));
#856=CARTESIAN_POINT('Ctrl Pts',(3.27292159200608,2.12651589383108,39.2395959186275));
#857=CARTESIAN_POINT('Ctrl Pts',(2.7466954207369,3.13330167642823,39.6439050713978));
#858=CARTESIAN_POINT('Ctrl Pts',(3.96446624307887,0.,35.));
#859=CARTESIAN_POINT('Ctrl Pts',(3.96446624307888,-8.70968072010459E-16,
35.5446275266139));
#860=CARTESIAN_POINT('Ctrl Pts',(3.89645870873617,0.13601506868542,36.3603089893775));
#861=CARTESIAN_POINT('Ctrl Pts',(3.51779950217948,0.893333481798797,38.1180231319345));
#862=CARTESIAN_POINT('Ctrl Pts',(2.99570894506338,1.937514596031,39.0997145902439));
#863=CARTESIAN_POINT('Ctrl Pts',(2.5,2.92893248615775,39.5508987412496));
#864=CARTESIAN_POINT('',(3.96446624307888,0.,35.));
#865=CARTESIAN_POINT('Origin',(1.46446624307887,5.,35.));
#866=CARTESIAN_POINT('Origin',(3.96446624307888,2.5,35.));
#867=CARTESIAN_POINT('Origin',(2.5000000372529,5.,35.));
#868=CARTESIAN_POINT('',(2.5000000372529,0.,35.));
#869=CARTESIAN_POINT('Origin',(3.96446624307888,2.5,0.));
#870=CARTESIAN_POINT('',(3.96446624307888,0.,8.58179236261906));
#871=CARTESIAN_POINT('',(3.96446624307888,0.,0.));
#872=CARTESIAN_POINT('Ctrl Pts',(5.73223319604524,4.26776695296637,7.60476264598092));
#873=CARTESIAN_POINT('Ctrl Pts',(5.96623077800121,4.0337693710104,7.58529737021279));
#874=CARTESIAN_POINT('Ctrl Pts',(6.15180655138595,3.75025726674609,7.58376069753341));
#875=CARTESIAN_POINT('Ctrl Pts',(6.39437714466357,3.16834194095052,7.61178293210528));
#876=CARTESIAN_POINT('Ctrl Pts',(6.46475943275692,2.83216147388071,7.64368961521499));
#877=CARTESIAN_POINT('Ctrl Pts',(6.46417111771326,2.16343888150938,7.73832180175154));
#878=CARTESIAN_POINT('Ctrl Pts',(6.39329135113436,1.83088769211797,7.80098378542429));
#879=CARTESIAN_POINT('Ctrl Pts',(6.27416507435709,1.54329141908728,7.86765525231247));
#880=CARTESIAN_POINT('Ctrl Pts',(6.15294931165596,1.2506506808008,7.93549614290257));
#881=CARTESIAN_POINT('Ctrl Pts',(5.96547396555726,0.964562073980028,8.01669963015555));
#882=CARTESIAN_POINT('Ctrl Pts',(5.49211184172976,0.493036799766073,8.18549827262254));
#883=CARTESIAN_POINT('Ctrl Pts',(5.20623701621496,0.307583036738158,8.27307918922731));
#884=CARTESIAN_POINT('Ctrl Pts',(4.62908387073409,0.070112253294564,8.43010634005813));
#885=CARTESIAN_POINT('Ctrl Pts',(4.29851938953273,0.000237976800258368,
8.51048792379627));
#886=CARTESIAN_POINT('Ctrl Pts',(3.96565638888966,2.12339871706547E-7,8.58153841250759));
#887=CARTESIAN_POINT('Ctrl Pts',(3.96506131842822,1.7267797942806E-17,8.58166540198532));
#888=CARTESIAN_POINT('Ctrl Pts',(3.96446624307888,1.73472347597681E-17,
8.58179236261906));
#889=CARTESIAN_POINT('Origin',(0.,10.0000001490116,0.));
#890=CARTESIAN_POINT('Origin',(0.,0.,-10.));
#891=CARTESIAN_POINT('Origin',(0.,0.,0.));
#892=CARTESIAN_POINT('Origin',(0.,0.,-10.));
#893=CARTESIAN_POINT('Origin',(0.,0.,-10.));
#894=CARTESIAN_POINT('',(0.497425596974067,-18.6375668766529,-6.34026384916001));
#895=CARTESIAN_POINT('',(-0.497425596974068,18.6375668766529,-13.65973615084));
#896=CARTESIAN_POINT('Origin',(0.,0.,-10.));
#897=CARTESIAN_POINT('Origin',(292.089662454432,201.118364332581,20.0800000000001));
#898=CARTESIAN_POINT('',(292.135980134033,201.053136481501,20.0800000000001));
#899=CARTESIAN_POINT('',(292.045616848693,201.185147448823,20.0800000000001));
#900=CARTESIAN_POINT('Origin',(292.089662454432,201.11836433258,20.0800000000001));
#901=CARTESIAN_POINT('',(292.089662454432,201.118364332581,20.0000000000001));
#902=CARTESIAN_POINT('Origin',(292.089662454432,201.118364332581,20.0800000000001));
#903=CARTESIAN_POINT('Origin',(292.089662454432,201.11836433258,20.0800000000001));
#904=CARTESIAN_POINT('Origin',(-30.3666079866763,-27.8547809174677,20.0800000000001));
#905=CARTESIAN_POINT('',(-30.3666079866763,-27.8547809174677,20.0000000000001));
#906=CARTESIAN_POINT('',(-30.4245174125409,-27.9099760114167,20.0800000000001));
#907=CARTESIAN_POINT('Origin',(-30.3666079866763,-27.8547809174677,20.0800000000001));
#908=CARTESIAN_POINT('',(-30.3202903070757,-27.9200087685469,20.0800000000001));
#909=CARTESIAN_POINT('Origin',(-30.3666079866763,-27.8547809174677,20.0800000000001));
#910=CARTESIAN_POINT('Origin',(-30.3666079866763,-27.8547809174677,20.0800000000001));
#911=CARTESIAN_POINT('Origin',(49.5479563677343,28.8917947545928,20.0800000000001));
#912=CARTESIAN_POINT('',(49.5479563677343,28.8917947545928,20.0000000000001));
#913=CARTESIAN_POINT('',(49.594274047335,28.8265669035136,20.0800000000001));
#914=CARTESIAN_POINT('Origin',(-30.3666079866763,-27.8547809174677,20.0000000000002));
#915=CARTESIAN_POINT('',(-30.3202903070758,-27.9200087685468,37.4999999999998));
#916=CARTESIAN_POINT('',(-30.424517412541,-27.9099760114165,37.4999999999998));
#917=CARTESIAN_POINT('Origin',(-30.3666079866764,-27.8547809174676,37.4999999999998));
#918=CARTESIAN_POINT('',(-30.4245174125409,-27.9099760114167,20.0000000000002));
#919=CARTESIAN_POINT('',(-30.3202903070757,-27.9200087685469,20.0000000000002));
#920=CARTESIAN_POINT('Ctrl Pts',(-30.0599458173248,-24.6689657071319,39.9999999999998));
#921=CARTESIAN_POINT('Ctrl Pts',(-30.1417554919847,-25.396246718714,39.9999999999998));
#922=CARTESIAN_POINT('Ctrl Pts',(-30.3329570521351,-27.0960122374051,39.542952146328));
#923=CARTESIAN_POINT('Ctrl Pts',(-30.424517412541,-27.9099760114165,38.2479982508545));
#924=CARTESIAN_POINT('Ctrl Pts',(-30.424517412541,-27.9099760114165,37.4999999999998));
#925=CARTESIAN_POINT('Ctrl Pts',(-30.0599458173248,-24.6689657071319,39.9999999999998));
#926=CARTESIAN_POINT('Ctrl Pts',(-30.137300538123,-25.396675546416,39.9999999999998));
#927=CARTESIAN_POINT('Ctrl Pts',(-30.3182532588914,-27.0974004453554,39.5503668132635));
#928=CARTESIAN_POINT('Ctrl Pts',(-30.4095163524195,-27.9257147794273,38.2536980318392));
#929=CARTESIAN_POINT('Ctrl Pts',(-30.4095163524195,-27.9257147794273,37.4999999999998));
#930=CARTESIAN_POINT('Ctrl Pts',(-30.0599458173248,-24.6689657071319,39.9999999999998));
#931=CARTESIAN_POINT('Ctrl Pts',(-30.129504368865,-25.3974259948944,39.9999999999998));
#932=CARTESIAN_POINT('Ctrl Pts',(-30.2919986567544,-27.099593589654,39.5560612899341));
#933=CARTESIAN_POINT('Ctrl Pts',(-30.3715842378264,-27.9417311116721,38.2584806343245));
#934=CARTESIAN_POINT('Ctrl Pts',(-30.3715842378264,-27.9417311116721,37.4999999999998));
#935=CARTESIAN_POINT('Ctrl Pts',(-30.0599458173248,-24.6689657071319,39.9999999999998));
#936=CARTESIAN_POINT('Ctrl Pts',(-30.1217081996071,-25.3981764433729,39.9999999999998));
#937=CARTESIAN_POINT('Ctrl Pts',(-30.2659330835581,-27.102502904907,39.5485128124233));
#938=CARTESIAN_POINT('Ctrl Pts',(-30.3335861479598,-27.9294500192993,38.2522268943471));
#939=CARTESIAN_POINT('Ctrl Pts',(-30.3335861479598,-27.9294500192993,37.4999999999998));
#940=CARTESIAN_POINT('Ctrl Pts',(-30.0599458173248,-24.6689657071319,39.9999999999998));
#941=CARTESIAN_POINT('Ctrl Pts',(-30.1183669842108,-25.3984980641494,39.9999999999998));
#942=CARTESIAN_POINT('Ctrl Pts',(-30.2549060708267,-27.1035253169994,39.5429521463279));
#943=CARTESIAN_POINT('Ctrl Pts',(-30.3202903070758,-27.9200087685467,38.2479982508545));
#944=CARTESIAN_POINT('Ctrl Pts',(-30.3202903070758,-27.9200087685468,37.4999999999998));
#945=CARTESIAN_POINT('',(-30.0599458173248,-24.6689657071319,39.9999999999998));
#946=CARTESIAN_POINT('Origin',(-30.0599458173247,-24.6689657071319,37.4999999999998));
#947=CARTESIAN_POINT('Origin',(-30.0599458173248,-24.668965707132,37.4999999999998));
#948=CARTESIAN_POINT('Origin',(-39.9076698790718,-17.8445177437473,20.08));
#949=CARTESIAN_POINT('',(-39.9517154848112,-17.7777346275048,20.08));
#950=CARTESIAN_POINT('',(-39.9655793049364,-17.8997128376962,20.08));
#951=CARTESIAN_POINT('Origin',(-39.9076698790717,-17.8445177437472,20.08));
#952=CARTESIAN_POINT('',(-39.9076698790718,-17.8445177437473,20.));
#953=CARTESIAN_POINT('Origin',(-39.9076698790718,-17.8445177437473,20.08));
#954=CARTESIAN_POINT('Origin',(-39.9076698790718,-17.8445177437473,20.08));
#955=CARTESIAN_POINT('Origin',(210.816582034429,147.516162776007,20.0800000000001));
#956=CARTESIAN_POINT('',(210.816582034429,147.516162776007,20.0000000000001));
#957=CARTESIAN_POINT('',(210.772536428689,147.58294589225,20.0800000000001));
#958=CARTESIAN_POINT('Origin',(-26.3936810646916,-32.0230846668359,20.0800000000002));
#959=CARTESIAN_POINT('',(-26.3936810646916,-32.0230846668359,20.0000000000002));
#960=CARTESIAN_POINT('',(-26.4515904905562,-32.0782797607848,20.0800000000002));
#961=CARTESIAN_POINT('Origin',(-39.9076698790717,-17.8445177437472,19.9999999999998));
#962=CARTESIAN_POINT('',(-39.9655793049365,-17.8997128376961,37.4999999999997));
#963=CARTESIAN_POINT('',(-39.9517154848112,-17.7777346275046,37.4999999999997));
#964=CARTESIAN_POINT('Origin',(-39.9076698790718,-17.8445177437471,37.4999999999997));
#965=CARTESIAN_POINT('',(-39.9517154848111,-17.7777346275047,19.9999999999998));
#966=CARTESIAN_POINT('',(-39.9655793049364,-17.8997128376962,19.9999999999998));
#967=CARTESIAN_POINT('Ctrl Pts',(-36.1583515131413,-18.2706584071979,39.9999999999997));
#968=CARTESIAN_POINT('Ctrl Pts',(-37.0095803978407,-18.1600465696934,39.9999999999998));
#969=CARTESIAN_POINT('Ctrl Pts',(-38.9990335819644,-17.9015296463597,39.5429543399461));
#970=CARTESIAN_POINT('Ctrl Pts',(-39.9517154848115,-17.7777346275046,38.247998250854));
#971=CARTESIAN_POINT('Ctrl Pts',(-39.9517154848114,-17.7777346275047,37.4999999999993));
#972=CARTESIAN_POINT('Ctrl Pts',(-36.1583515131413,-18.2706584071979,39.9999999999997));
#973=CARTESIAN_POINT('Ctrl Pts',(-37.0098766867893,-18.1626534122039,39.9999999999998));
#974=CARTESIAN_POINT('Ctrl Pts',(-38.9993573191814,-17.910251901222,39.5480312752699));
#975=CARTESIAN_POINT('Ctrl Pts',(-39.9628406213343,-17.7850720116317,38.2527771301453));
#976=CARTESIAN_POINT('Ctrl Pts',(-39.9628406213341,-17.7850720116319,37.4999999999993));
#977=CARTESIAN_POINT('Ctrl Pts',(-36.1583515131413,-18.2706584071979,39.9999999999997));
#978=CARTESIAN_POINT('Ctrl Pts',(-37.0104692646867,-18.1678670972247,39.9999999999997));
#979=CARTESIAN_POINT('Ctrl Pts',(-38.9999220906188,-17.9278455284175,39.5553209995097));
#980=CARTESIAN_POINT('Ctrl Pts',(-39.9812791853509,-17.8053940300027,38.2602643652302));
#981=CARTESIAN_POINT('Ctrl Pts',(-39.9812791853507,-17.8053940300028,37.4999999999993));
#982=CARTESIAN_POINT('Ctrl Pts',(-36.1583515131413,-18.2706584071979,39.9999999999997));
#983=CARTESIAN_POINT('Ctrl Pts',(-37.0115062760071,-18.1769910460113,39.9999999999997));
#984=CARTESIAN_POINT('Ctrl Pts',(-39.0027530734512,-17.9583855228826,39.5578859344837));
#985=CARTESIAN_POINT('Ctrl Pts',(-39.9927191245303,-17.8522001717695,38.2630848018245));
#986=CARTESIAN_POINT('Ctrl Pts',(-39.9927191245302,-17.8522001717695,37.4999999999994));
#987=CARTESIAN_POINT('Ctrl Pts',(-36.1583515131413,-18.2706584071979,39.9999999999997));
#988=CARTESIAN_POINT('Ctrl Pts',(-37.0122469983788,-18.1835081522874,39.9999999999997));
#989=CARTESIAN_POINT('Ctrl Pts',(-39.006901064607,-17.9799870482241,39.5505652186336));
#990=CARTESIAN_POINT('Ctrl Pts',(-39.9793714051736,-17.8852424826509,38.2552087991251));
#991=CARTESIAN_POINT('Ctrl Pts',(-39.9793714051735,-17.885242482651,37.4999999999996));
#992=CARTESIAN_POINT('Ctrl Pts',(-36.1583515131413,-18.2706584071979,39.9999999999997));
#993=CARTESIAN_POINT('Ctrl Pts',(-37.0126914318018,-18.1874184160531,39.9999999999997));
#994=CARTESIAN_POINT('Ctrl Pts',(-39.0094155820912,-17.9928737190786,39.542954339946));
#995=CARTESIAN_POINT('Ctrl Pts',(-39.9655793049365,-17.8997128376961,38.2479982508544));
#996=CARTESIAN_POINT('Ctrl Pts',(-39.9655793049365,-17.8997128376961,37.4999999999997));
#997=CARTESIAN_POINT('',(-36.1583515131415,-18.2706584071976,39.9999999999997));
#998=CARTESIAN_POINT('Origin',(-36.1583515131414,-18.2706584071975,37.4999999999997));
#999=CARTESIAN_POINT('Origin',(-36.1583515131415,-18.2706584071976,37.4999999999997));
#1000=CARTESIAN_POINT('Ctrl Pts',(176.045955023448,121.684883469219,40.));
#1001=CARTESIAN_POINT('Ctrl Pts',(193.412982168328,133.558346354535,40.));
#1002=CARTESIAN_POINT('Ctrl Pts',(228.134213014382,157.296505012546,39.8293408480738));
#1003=CARTESIAN_POINT('Ctrl Pts',(269.915384653129,185.861393327583,39.111995754082));
#1004=CARTESIAN_POINT('Ctrl Pts',(287.295451272001,197.743771020782,38.3345360871264));
#1005=CARTESIAN_POINT('Ctrl Pts',(291.282283653546,200.469482561241,37.8266499568064));
#1006=CARTESIAN_POINT('Ctrl Pts',(291.923223602656,200.907679417501,37.6635526265015));
#1007=CARTESIAN_POINT('Ctrl Pts',(292.105420819863,201.03224373575,37.5701240726743));
#1008=CARTESIAN_POINT('Ctrl Pts',(292.135980134034,201.053136481502,37.5233749453393));
#1009=CARTESIAN_POINT('Ctrl Pts',(292.135980134034,201.053136481502,37.5000000000001));
#1010=CARTESIAN_POINT('Ctrl Pts',(176.045955023448,121.684883469219,40.));
#1011=CARTESIAN_POINT('Ctrl Pts',(193.411694709673,133.560227192109,40.));
#1012=CARTESIAN_POINT('Ctrl Pts',(228.130496753291,157.302274268564,39.831293247918));
#1013=CARTESIAN_POINT('Ctrl Pts',(269.90995260739,185.869441948427,39.1223793433912));
#1014=CARTESIAN_POINT('Ctrl Pts',(287.292782822555,197.750248219888,38.3516401812449));
#1015=CARTESIAN_POINT('Ctrl Pts',(291.282755227279,200.473437161194,37.8475387982308));
#1016=CARTESIAN_POINT('Ctrl Pts',(291.927878140857,200.912783864542,37.684477274973));
#1017=CARTESIAN_POINT('Ctrl Pts',(292.113363997831,201.038614518614,37.590827964701));
#1018=CARTESIAN_POINT('Ctrl Pts',(292.155282443903,201.066842869023,37.5361798365372));
#1019=CARTESIAN_POINT('Ctrl Pts',(292.155282443903,201.066842869023,37.5000000000001));
#1020=CARTESIAN_POINT('Ctrl Pts',(176.045955023448,121.684883469219,40.));
#1021=CARTESIAN_POINT('Ctrl Pts',(193.409119792363,133.563988867258,40.));
#1022=CARTESIAN_POINT('Ctrl Pts',(228.123084684398,157.313731734951,39.8339159781683));
#1023=CARTESIAN_POINT('Ctrl Pts',(269.896528654235,185.889048939126,39.1380826767317));
#1024=CARTESIAN_POINT('Ctrl Pts',(287.280100707631,197.773176466586,38.380513143572));
#1025=CARTESIAN_POINT('Ctrl Pts',(291.272566810704,200.496453068369,37.8868047534592));
#1026=CARTESIAN_POINT('Ctrl Pts',(291.924819911385,200.939849146871,37.7250378607148));
#1027=CARTESIAN_POINT('Ctrl Pts',(292.116212590873,201.069190250906,37.6317402416011));
#1028=CARTESIAN_POINT('Ctrl Pts',(292.180632122474,201.112562400718,37.561669737869));
#1029=CARTESIAN_POINT('Ctrl Pts',(292.180632122474,201.112562400718,37.5000000000001));
#1030=CARTESIAN_POINT('Ctrl Pts',(176.045955023448,121.684883469219,40.));
#1031=CARTESIAN_POINT('Ctrl Pts',(193.405901145727,133.568690961194,40.0000000000001));
#1032=CARTESIAN_POINT('Ctrl Pts',(228.113515012453,157.327900000906,39.834538786298));
#1033=CARTESIAN_POINT('Ctrl Pts',(269.876853218574,185.917764354961,39.142142621749));
#1034=CARTESIAN_POINT('Ctrl Pts',(287.25300098068,197.814022139542,38.3885023449231));
#1035=CARTESIAN_POINT('Ctrl Pts',(291.240826460681,200.54516875097,37.8983880233978));
#1036=CARTESIAN_POINT('Ctrl Pts',(291.893479112658,200.992387682094,37.737206061806));
#1037=CARTESIAN_POINT('Ctrl Pts',(292.085699378594,201.124222850784,37.6441405810333));
#1038=CARTESIAN_POINT('Ctrl Pts',(292.156567527157,201.172845685787,37.5694255944815));
#1039=CARTESIAN_POINT('Ctrl Pts',(292.156567527157,201.172845685787,37.5000000000001));
#1040=CARTESIAN_POINT('Ctrl Pts',(176.045955023448,121.684883469219,40.));
#1041=CARTESIAN_POINT('Ctrl Pts',(193.40268249909,133.573393055129,40.0000000000001));
#1042=CARTESIAN_POINT('Ctrl Pts',(228.10369895352,157.341899479997,39.8332691272944));
#1043=CARTESIAN_POINT('Ctrl Pts',(269.857924112531,185.945471032831,39.1341367397115));
#1044=CARTESIAN_POINT('Ctrl Pts',(287.226514855354,197.850404269364,38.3731505345904));
#1045=CARTESIAN_POINT('Ctrl Pts',(291.209766678069,200.586220587973,37.8766370658211));
#1046=CARTESIAN_POINT('Ctrl Pts',(291.857490065678,201.032467817286,37.7144912363732));
#1047=CARTESIAN_POINT('Ctrl Pts',(292.045912660751,201.162981031885,37.6210759287181));
#1048=CARTESIAN_POINT('Ctrl Pts',(292.10384337555,201.2032944167,37.5550186760064));
#1049=CARTESIAN_POINT('Ctrl Pts',(292.10384337555,201.2032944167,37.5000000000001));
#1050=CARTESIAN_POINT('Ctrl Pts',(176.045955023448,121.684883469219,40.));
#1051=CARTESIAN_POINT('Ctrl Pts',(193.400751311107,133.576214311491,40.));
#1052=CARTESIAN_POINT('Ctrl Pts',(228.097676600754,157.350165909217,39.8312756048618));
#1053=CARTESIAN_POINT('Ctrl Pts',(269.84780599539,185.960123149192,39.1223632218193));
#1054=CARTESIAN_POINT('Ctrl Pts',(287.213745659135,197.865313022575,38.3517072309673));
#1055=CARTESIAN_POINT('Ctrl Pts',(291.19615803195,200.599331897353,37.8478097823055));
#1056=CARTESIAN_POINT('Ctrl Pts',(291.839221536917,201.041768613871,37.6848079704188));
#1057=CARTESIAN_POINT('Ctrl Pts',(292.023692504595,201.169180119172,37.5911876248608));
#1058=CARTESIAN_POINT('Ctrl Pts',(292.065379394637,201.198181481316,37.5364133289773));
#1059=CARTESIAN_POINT('Ctrl Pts',(292.065379394637,201.198181481316,37.5000000000001));
#1060=CARTESIAN_POINT('Ctrl Pts',(176.045955023448,121.684883469219,40.));
#1061=CARTESIAN_POINT('Ctrl Pts',(193.399463852453,133.578095149065,40.));
#1062=CARTESIAN_POINT('Ctrl Pts',(228.093668048394,157.355736814046,39.8293408480738));
#1063=CARTESIAN_POINT('Ctrl Pts',(269.842317651496,185.968136298786,39.1119957540819));
#1064=CARTESIAN_POINT('Ctrl Pts',(287.2088558047,197.870277614263,38.3345360871264));
#1065=CARTESIAN_POINT('Ctrl Pts',(291.192584876794,200.600522753528,37.8266499568065));
#1066=CARTESIAN_POINT('Ctrl Pts',(291.833025924819,201.039448450208,37.6635526265015));
#1067=CARTESIAN_POINT('Ctrl Pts',(292.01508132158,201.16421995276,37.5701240726744));
#1068=CARTESIAN_POINT('Ctrl Pts',(292.045616848694,201.185147448824,37.5233749453393));
#1069=CARTESIAN_POINT('Ctrl Pts',(292.045616848694,201.185147448824,37.5000000000001));
#1070=CARTESIAN_POINT('',(292.135980134034,201.053136481502,37.5000000000001));
#1071=CARTESIAN_POINT('',(292.045616848694,201.185147448824,37.5000000000001));
#1072=CARTESIAN_POINT('Origin',(292.089662454433,201.118364332581,37.5000000000001));
#1073=CARTESIAN_POINT('',(176.045955023458,121.684883469225,40.));
#1074=CARTESIAN_POINT('Origin',(176.045955023448,121.684883469219,37.5));
#1075=CARTESIAN_POINT('Origin',(176.045955023448,121.684883469218,37.5));
#1076=CARTESIAN_POINT('Origin',(292.089662454432,201.11836433258,20.0000000000002));
#1077=CARTESIAN_POINT('',(292.135980134033,201.053136481501,20.0000000000002));
#1078=CARTESIAN_POINT('',(292.045616848693,201.185147448823,20.0000000000002));
#1079=CARTESIAN_POINT('Origin',(-24.6419209322878,-30.3534330748801,37.4999999999999));
#1080=CARTESIAN_POINT('',(-24.6419209322878,-30.35343307488,39.9999999999999));
#1081=CARTESIAN_POINT('',(-26.4515904905563,-32.0782797607847,37.4999999999999));
#1082=CARTESIAN_POINT('Origin',(-30.3767455790515,-27.960097122768,20.0000000000002));
#1083=CARTESIAN_POINT('',(49.5942740473349,28.8265669035138,37.4999999999999));
#1084=CARTESIAN_POINT('Origin',(48.1468465598148,30.8649372497392,37.4999999999999));
#1085=CARTESIAN_POINT('',(48.1468465598148,30.8649372497393,39.9999999999999));
#1086=CARTESIAN_POINT('Origin',(127.947101892061,87.8920837018213,20.0000000000001));
#1087=CARTESIAN_POINT('Origin',(212.148961608044,145.495973509673,37.5));
#1088=CARTESIAN_POINT('',(212.148961608044,145.495973509673,40.));
#1089=CARTESIAN_POINT('',(210.772536428689,147.58294589225,37.5));
#1090=CARTESIAN_POINT('Origin',(-40.0316142878629,-17.8304304490877,20.));
#1091=CARTESIAN_POINT('Origin',(295.925818071985,203.744264526411,20.0000000000001));
#1092=CARTESIAN_POINT('Origin',(127.947101892061,87.8920837018215,39.9999999999999));
#1093=CARTESIAN_POINT('',(0.,0.,0.));
#1094=CARTESIAN_POINT('Origin',(0.,0.,0.));
#1095=CARTESIAN_POINT('',(-2.44929359829471E-15,0.,20.));
#1096=CARTESIAN_POINT('Origin',(0.,0.,0.));
#1097=CARTESIAN_POINT('',(1.49975978266186E-31,20.,1.22464679914735E-15));
#1098=CARTESIAN_POINT('Origin',(0.,0.,0.));
#1099=CARTESIAN_POINT('Origin',(0.,0.,0.));
#1100=CARTESIAN_POINT('',(0.,0.,25.));
#1101=CARTESIAN_POINT('Origin',(0.,0.,0.));
#1102=CARTESIAN_POINT('Origin',(0.,0.,0.));
#1103=CARTESIAN_POINT('',(1.87469972832732E-31,25.,1.53080849893419E-15));
#1104=CARTESIAN_POINT('Origin',(0.,0.,0.));
#1105=CARTESIAN_POINT('',(0.,0.,0.));
#1106=CARTESIAN_POINT('',(-1.09042017739291,61.7993263457319,-8.65566148315917));
#1107=UNCERTAINTY_MEASURE_WITH_UNIT(LENGTH_MEASURE(0.01),#1115,
'DISTANCE_ACCURACY_VALUE',
'Maximum model space distance between geometric entities at asserted c
onnectivities');
#1108=UNCERTAINTY_MEASURE_WITH_UNIT(LENGTH_MEASURE(0.01),#1115,
'DISTANCE_ACCURACY_VALUE',
'Maximum model space distance between geometric entities at asserted c
onnectivities');
#1109=UNCERTAINTY_MEASURE_WITH_UNIT(LENGTH_MEASURE(0.01),#1115,
'DISTANCE_ACCURACY_VALUE',
'Maximum model space distance between geometric entities at asserted c
onnectivities');
#1110=UNCERTAINTY_MEASURE_WITH_UNIT(LENGTH_MEASURE(0.01),#1115,
'DISTANCE_ACCURACY_VALUE',
'Maximum model space distance between geometric entities at asserted c
onnectivities');
#1111=(
GEOMETRIC_REPRESENTATION_CONTEXT(3)
GLOBAL_UNCERTAINTY_ASSIGNED_CONTEXT((#1107))
GLOBAL_UNIT_ASSIGNED_CONTEXT((#1115,#1117,#1118))
REPRESENTATION_CONTEXT('','3D')
);
#1112=(
GEOMETRIC_REPRESENTATION_CONTEXT(3)
GLOBAL_UNCERTAINTY_ASSIGNED_CONTEXT((#1108))
GLOBAL_UNIT_ASSIGNED_CONTEXT((#1115,#1117,#1118))
REPRESENTATION_CONTEXT('','3D')
);
#1113=(
GEOMETRIC_REPRESENTATION_CONTEXT(3)
GLOBAL_UNCERTAINTY_ASSIGNED_CONTEXT((#1109))
GLOBAL_UNIT_ASSIGNED_CONTEXT((#1115,#1117,#1118))
REPRESENTATION_CONTEXT('','3D')
);
#1114=(
GEOMETRIC_REPRESENTATION_CONTEXT(3)
GLOBAL_UNCERTAINTY_ASSIGNED_CONTEXT((#1110))
GLOBAL_UNIT_ASSIGNED_CONTEXT((#1115,#1117,#1118))
REPRESENTATION_CONTEXT('','3D')
);
#1115=(
LENGTH_UNIT()
NAMED_UNIT(*)
SI_UNIT(.MILLI.,.METRE.)
);
#1116=(
LENGTH_UNIT()
NAMED_UNIT(*)
SI_UNIT($,.METRE.)
);
#1117=(
NAMED_UNIT(*)
PLANE_ANGLE_UNIT()
SI_UNIT($,.RADIAN.)
);
#1118=(
NAMED_UNIT(*)
SI_UNIT($,.STERADIAN.)
SOLID_ANGLE_UNIT()
);
#1119=SHAPE_DEFINITION_REPRESENTATION(#1122,#1127);
#1120=SHAPE_DEFINITION_REPRESENTATION(#1123,#1128);
#1121=SHAPE_DEFINITION_REPRESENTATION(#1124,#1129);
#1122=PRODUCT_DEFINITION_SHAPE('',$,#1131);
#1123=PRODUCT_DEFINITION_SHAPE('',$,#1132);
#1124=PRODUCT_DEFINITION_SHAPE('',$,#1133);
#1125=PRODUCT_DEFINITION_SHAPE($,$,#17);
#1126=PRODUCT_DEFINITION_SHAPE($,$,#18);
#1127=SHAPE_REPRESENTATION('',(#514,#582,#583),#1111);
#1128=SHAPE_REPRESENTATION('',(#515),#1112);
#1129=SHAPE_REPRESENTATION('',(#574),#1113);
#1130=PRODUCT_DEFINITION_CONTEXT('part definition',#1141,'design');
#1131=PRODUCT_DEFINITION('joint hip 6','joint hip 6 v2',#1134,#1130);
#1132=PRODUCT_DEFINITION('hip joint3','hip joint3 v1',#1135,#1130);
#1133=PRODUCT_DEFINITION('hip cup2','hip cup2 v1',#1136,#1130);
#1134=PRODUCT_DEFINITION_FORMATION('',$,#1143);
#1135=PRODUCT_DEFINITION_FORMATION('',$,#1144);
#1136=PRODUCT_DEFINITION_FORMATION('',$,#1145);
#1137=PRODUCT_RELATED_PRODUCT_CATEGORY('joint hip 6 v2',
'joint hip 6 v2',(#1143));
#1138=PRODUCT_RELATED_PRODUCT_CATEGORY('hip joint3 v1','hip joint3 v1',
(#1144));
#1139=PRODUCT_RELATED_PRODUCT_CATEGORY('hip cup2 v1','hip cup2 v1',(#1145));
#1140=APPLICATION_PROTOCOL_DEFINITION('international standard',
'automotive_design',2009,#1141);
#1141=APPLICATION_CONTEXT(
'Core Data for Automotive Mechanical Design Process');
#1142=PRODUCT_CONTEXT('part definition',#1141,'mechanical');
#1143=PRODUCT('joint hip 6','joint hip 6 v2',$,(#1142));
#1144=PRODUCT('hip joint3','hip joint3 v1',$,(#1142));
#1145=PRODUCT('hip cup2','hip cup2 v1',$,(#1142));
#1146=PRESENTATION_STYLE_ASSIGNMENT((#1147));
#1147=SURFACE_STYLE_USAGE(.BOTH.,#1148);
#1148=SURFACE_SIDE_STYLE('',(#1149));
#1149=SURFACE_STYLE_FILL_AREA(#1150);
#1150=FILL_AREA_STYLE('Steel - Satin',(#1151));
#1151=FILL_AREA_STYLE_COLOUR('Steel - Satin',#1152);
#1152=COLOUR_RGB('Steel - Satin',0.627450980392157,0.627450980392157,0.627450980392157);
ENDSEC;
END-ISO-10303-21;
