ISO-10303-21;
HEADER;
/* Generated by software containing ST-Developer
 * from STEP Tools, Inc. (www.steptools.com) 
 */

FILE_DESCRIPTION(
/* description */ (''),
/* implementation_level */ '2;1');

FILE_NAME(
/* name */ 'laptop Stand.step',
/* time_stamp */ '2026-07-02T14:46:28+05:30',
/* author */ (''),
/* organization */ (''),
/* preprocessor_version */ 'ST-DEVELOPER v20.1',
/* originating_system */ 'Autodesk Translation Framework v15.8.0.0',
/* authorisation */ '');

FILE_SCHEMA (('AUTOMOTIVE_DESIGN { 1 0 10303 214 3 1 1 }'));
ENDSEC;

DATA;
#10=MECHANICAL_DESIGN_GEOMETRIC_PRESENTATION_REPRESENTATION('',(#13),#1147);
#11=SHAPE_REPRESENTATION_RELATIONSHIP('SRR','None',#1154,#12);
#12=ADVANCED_BREP_SHAPE_REPRESENTATION('',(#14),#1146);
#13=STYLED_ITEM('',(#1163),#14);
#14=MANIFOLD_SOLID_BREP('Body1',#705);
#15=FACE_BOUND('',#108,.T.);
#16=FACE_BOUND('',#109,.T.);
#17=FACE_BOUND('',#110,.T.);
#18=FACE_BOUND('',#111,.T.);
#19=FACE_BOUND('',#112,.T.);
#20=CIRCLE('',#753,15.);
#21=CIRCLE('',#754,15.);
#22=CIRCLE('',#756,15.);
#23=CIRCLE('',#758,15.);
#24=ELLIPSE('',#745,14.142135623731,10.);
#25=ELLIPSE('',#746,14.142135623731,10.);
#26=ELLIPSE('',#748,14.142135623731,10.);
#27=ELLIPSE('',#749,14.142135623731,10.);
#28=CYLINDRICAL_SURFACE('',#744,10.);
#29=CYLINDRICAL_SURFACE('',#747,10.);
#30=CYLINDRICAL_SURFACE('',#750,10.);
#31=CYLINDRICAL_SURFACE('',#755,15.);
#32=CYLINDRICAL_SURFACE('',#757,15.);
#33=FACE_OUTER_BOUND('',#72,.T.);
#34=FACE_OUTER_BOUND('',#73,.T.);
#35=FACE_OUTER_BOUND('',#74,.T.);
#36=FACE_OUTER_BOUND('',#75,.T.);
#37=FACE_OUTER_BOUND('',#76,.T.);
#38=FACE_OUTER_BOUND('',#77,.T.);
#39=FACE_OUTER_BOUND('',#78,.T.);
#40=FACE_OUTER_BOUND('',#79,.T.);
#41=FACE_OUTER_BOUND('',#80,.T.);
#42=FACE_OUTER_BOUND('',#81,.T.);
#43=FACE_OUTER_BOUND('',#82,.T.);
#44=FACE_OUTER_BOUND('',#83,.T.);
#45=FACE_OUTER_BOUND('',#84,.T.);
#46=FACE_OUTER_BOUND('',#85,.T.);
#47=FACE_OUTER_BOUND('',#86,.T.);
#48=FACE_OUTER_BOUND('',#87,.T.);
#49=FACE_OUTER_BOUND('',#88,.T.);
#50=FACE_OUTER_BOUND('',#89,.T.);
#51=FACE_OUTER_BOUND('',#90,.T.);
#52=FACE_OUTER_BOUND('',#91,.T.);
#53=FACE_OUTER_BOUND('',#92,.T.);
#54=FACE_OUTER_BOUND('',#93,.T.);
#55=FACE_OUTER_BOUND('',#94,.T.);
#56=FACE_OUTER_BOUND('',#95,.T.);
#57=FACE_OUTER_BOUND('',#96,.T.);
#58=FACE_OUTER_BOUND('',#97,.T.);
#59=FACE_OUTER_BOUND('',#98,.T.);
#60=FACE_OUTER_BOUND('',#99,.T.);
#61=FACE_OUTER_BOUND('',#100,.T.);
#62=FACE_OUTER_BOUND('',#101,.T.);
#63=FACE_OUTER_BOUND('',#102,.T.);
#64=FACE_OUTER_BOUND('',#103,.T.);
#65=FACE_OUTER_BOUND('',#104,.T.);
#66=FACE_OUTER_BOUND('',#105,.T.);
#67=FACE_OUTER_BOUND('',#106,.T.);
#68=FACE_OUTER_BOUND('',#107,.T.);
#69=FACE_OUTER_BOUND('',#113,.T.);
#70=FACE_OUTER_BOUND('',#114,.T.);
#71=FACE_OUTER_BOUND('',#115,.T.);
#72=EDGE_LOOP('',(#444,#445,#446,#447));
#73=EDGE_LOOP('',(#448,#449,#450,#451));
#74=EDGE_LOOP('',(#452,#453,#454,#455));
#75=EDGE_LOOP('',(#456,#457,#458,#459));
#76=EDGE_LOOP('',(#460,#461,#462,#463));
#77=EDGE_LOOP('',(#464,#465,#466,#467));
#78=EDGE_LOOP('',(#468,#469,#470,#471));
#79=EDGE_LOOP('',(#472,#473,#474,#475));
#80=EDGE_LOOP('',(#476,#477,#478,#479));
#81=EDGE_LOOP('',(#480,#481,#482,#483));
#82=EDGE_LOOP('',(#484,#485,#486,#487));
#83=EDGE_LOOP('',(#488,#489,#490,#491));
#84=EDGE_LOOP('',(#492,#493,#494,#495));
#85=EDGE_LOOP('',(#496,#497,#498,#499));
#86=EDGE_LOOP('',(#500,#501,#502,#503));
#87=EDGE_LOOP('',(#504,#505,#506,#507));
#88=EDGE_LOOP('',(#508,#509,#510,#511));
#89=EDGE_LOOP('',(#512,#513,#514,#515));
#90=EDGE_LOOP('',(#516,#517,#518,#519));
#91=EDGE_LOOP('',(#520,#521,#522,#523));
#92=EDGE_LOOP('',(#524,#525,#526,#527));
#93=EDGE_LOOP('',(#528,#529,#530,#531));
#94=EDGE_LOOP('',(#532,#533,#534,#535));
#95=EDGE_LOOP('',(#536,#537,#538,#539));
#96=EDGE_LOOP('',(#540,#541,#542,#543));
#97=EDGE_LOOP('',(#544,#545,#546));
#98=EDGE_LOOP('',(#547,#548,#549,#550,#551,#552));
#99=EDGE_LOOP('',(#553,#554,#555));
#100=EDGE_LOOP('',(#556,#557,#558,#559));
#101=EDGE_LOOP('',(#560,#561,#562,#563,#564,#565,#566,#567,#568,#569));
#102=EDGE_LOOP('',(#570,#571,#572,#573));
#103=EDGE_LOOP('',(#574,#575,#576,#577));
#104=EDGE_LOOP('',(#578,#579,#580,#581));
#105=EDGE_LOOP('',(#582,#583,#584,#585));
#106=EDGE_LOOP('',(#586,#587,#588,#589));
#107=EDGE_LOOP('',(#590,#591,#592,#593));
#108=EDGE_LOOP('',(#594,#595,#596,#597));
#109=EDGE_LOOP('',(#598,#599,#600,#601));
#110=EDGE_LOOP('',(#602,#603,#604,#605));
#111=EDGE_LOOP('',(#606,#607,#608,#609));
#112=EDGE_LOOP('',(#610,#611,#612,#613));
#113=EDGE_LOOP('',(#614,#615,#616,#617,#618,#619,#620,#621,#622,#623));
#114=EDGE_LOOP('',(#624,#625,#626,#627));
#115=EDGE_LOOP('',(#628,#629,#630,#631));
#116=LINE('',#952,#202);
#117=LINE('',#954,#203);
#118=LINE('',#956,#204);
#119=LINE('',#957,#205);
#120=LINE('',#960,#206);
#121=LINE('',#962,#207);
#122=LINE('',#963,#208);
#123=LINE('',#966,#209);
#124=LINE('',#968,#210);
#125=LINE('',#969,#211);
#126=LINE('',#971,#212);
#127=LINE('',#972,#213);
#128=LINE('',#977,#214);
#129=LINE('',#979,#215);
#130=LINE('',#981,#216);
#131=LINE('',#982,#217);
#132=LINE('',#985,#218);
#133=LINE('',#987,#219);
#134=LINE('',#988,#220);
#135=LINE('',#991,#221);
#136=LINE('',#993,#222);
#137=LINE('',#994,#223);
#138=LINE('',#996,#224);
#139=LINE('',#997,#225);
#140=LINE('',#1002,#226);
#141=LINE('',#1004,#227);
#142=LINE('',#1006,#228);
#143=LINE('',#1007,#229);
#144=LINE('',#1010,#230);
#145=LINE('',#1012,#231);
#146=LINE('',#1013,#232);
#147=LINE('',#1016,#233);
#148=LINE('',#1018,#234);
#149=LINE('',#1019,#235);
#150=LINE('',#1021,#236);
#151=LINE('',#1022,#237);
#152=LINE('',#1027,#238);
#153=LINE('',#1029,#239);
#154=LINE('',#1031,#240);
#155=LINE('',#1032,#241);
#156=LINE('',#1035,#242);
#157=LINE('',#1037,#243);
#158=LINE('',#1038,#244);
#159=LINE('',#1041,#245);
#160=LINE('',#1043,#246);
#161=LINE('',#1044,#247);
#162=LINE('',#1046,#248);
#163=LINE('',#1047,#249);
#164=LINE('',#1052,#250);
#165=LINE('',#1054,#251);
#166=LINE('',#1056,#252);
#167=LINE('',#1057,#253);
#168=LINE('',#1060,#254);
#169=LINE('',#1062,#255);
#170=LINE('',#1063,#256);
#171=LINE('',#1066,#257);
#172=LINE('',#1068,#258);
#173=LINE('',#1069,#259);
#174=LINE('',#1071,#260);
#175=LINE('',#1072,#261);
#176=LINE('',#1079,#262);
#177=LINE('',#1083,#263);
#178=LINE('',#1088,#264);
#179=LINE('',#1090,#265);
#180=LINE('',#1093,#266);
#181=LINE('',#1095,#267);
#182=LINE('',#1096,#268);
#183=LINE('',#1099,#269);
#184=LINE('',#1101,#270);
#185=LINE('',#1103,#271);
#186=LINE('',#1105,#272);
#187=LINE('',#1107,#273);
#188=LINE('',#1111,#274);
#189=LINE('',#1116,#275);
#190=LINE('',#1121,#276);
#191=LINE('',#1122,#277);
#192=LINE('',#1124,#278);
#193=LINE('',#1127,#279);
#194=LINE('',#1128,#280);
#195=LINE('',#1131,#281);
#196=LINE('',#1132,#282);
#197=LINE('',#1135,#283);
#198=LINE('',#1136,#284);
#199=LINE('',#1139,#285);
#200=LINE('',#1140,#286);
#201=LINE('',#1142,#287);
#202=VECTOR('',#770,10.);
#203=VECTOR('',#771,10.);
#204=VECTOR('',#772,10.);
#205=VECTOR('',#773,10.);
#206=VECTOR('',#776,10.);
#207=VECTOR('',#777,10.);
#208=VECTOR('',#778,10.);
#209=VECTOR('',#781,10.);
#210=VECTOR('',#782,10.);
#211=VECTOR('',#783,10.);
#212=VECTOR('',#786,10.);
#213=VECTOR('',#787,10.);
#214=VECTOR('',#792,10.);
#215=VECTOR('',#793,10.);
#216=VECTOR('',#794,10.);
#217=VECTOR('',#795,10.);
#218=VECTOR('',#798,10.);
#219=VECTOR('',#799,10.);
#220=VECTOR('',#800,10.);
#221=VECTOR('',#803,10.);
#222=VECTOR('',#804,10.);
#223=VECTOR('',#805,10.);
#224=VECTOR('',#808,10.);
#225=VECTOR('',#809,10.);
#226=VECTOR('',#814,10.);
#227=VECTOR('',#815,10.);
#228=VECTOR('',#816,10.);
#229=VECTOR('',#817,10.);
#230=VECTOR('',#820,10.);
#231=VECTOR('',#821,10.);
#232=VECTOR('',#822,10.);
#233=VECTOR('',#825,10.);
#234=VECTOR('',#826,10.);
#235=VECTOR('',#827,10.);
#236=VECTOR('',#830,10.);
#237=VECTOR('',#831,10.);
#238=VECTOR('',#836,10.);
#239=VECTOR('',#837,10.);
#240=VECTOR('',#838,10.);
#241=VECTOR('',#839,10.);
#242=VECTOR('',#842,10.);
#243=VECTOR('',#843,10.);
#244=VECTOR('',#844,10.);
#245=VECTOR('',#847,10.);
#246=VECTOR('',#848,10.);
#247=VECTOR('',#849,10.);
#248=VECTOR('',#852,10.);
#249=VECTOR('',#853,10.);
#250=VECTOR('',#858,10.);
#251=VECTOR('',#859,10.);
#252=VECTOR('',#860,10.);
#253=VECTOR('',#861,10.);
#254=VECTOR('',#864,10.);
#255=VECTOR('',#865,10.);
#256=VECTOR('',#866,10.);
#257=VECTOR('',#869,10.);
#258=VECTOR('',#870,10.);
#259=VECTOR('',#871,10.);
#260=VECTOR('',#874,10.);
#261=VECTOR('',#875,10.);
#262=VECTOR('',#882,10.);
#263=VECTOR('',#887,10.);
#264=VECTOR('',#892,10.);
#265=VECTOR('',#895,10.);
#266=VECTOR('',#898,10.);
#267=VECTOR('',#899,10.);
#268=VECTOR('',#900,10.);
#269=VECTOR('',#903,10.);
#270=VECTOR('',#904,10.);
#271=VECTOR('',#905,10.);
#272=VECTOR('',#906,10.);
#273=VECTOR('',#907,10.);
#274=VECTOR('',#910,10.);
#275=VECTOR('',#917,10.);
#276=VECTOR('',#922,10.);
#277=VECTOR('',#923,10.);
#278=VECTOR('',#926,10.);
#279=VECTOR('',#929,10.);
#280=VECTOR('',#930,10.);
#281=VECTOR('',#933,10.);
#282=VECTOR('',#934,10.);
#283=VECTOR('',#937,10.);
#284=VECTOR('',#938,10.);
#285=VECTOR('',#941,10.);
#286=VECTOR('',#942,10.);
#287=VECTOR('',#945,10.);
#288=VERTEX_POINT('',#950);
#289=VERTEX_POINT('',#951);
#290=VERTEX_POINT('',#953);
#291=VERTEX_POINT('',#955);
#292=VERTEX_POINT('',#959);
#293=VERTEX_POINT('',#961);
#294=VERTEX_POINT('',#965);
#295=VERTEX_POINT('',#967);
#296=VERTEX_POINT('',#975);
#297=VERTEX_POINT('',#976);
#298=VERTEX_POINT('',#978);
#299=VERTEX_POINT('',#980);
#300=VERTEX_POINT('',#984);
#301=VERTEX_POINT('',#986);
#302=VERTEX_POINT('',#990);
#303=VERTEX_POINT('',#992);
#304=VERTEX_POINT('',#1000);
#305=VERTEX_POINT('',#1001);
#306=VERTEX_POINT('',#1003);
#307=VERTEX_POINT('',#1005);
#308=VERTEX_POINT('',#1009);
#309=VERTEX_POINT('',#1011);
#310=VERTEX_POINT('',#1015);
#311=VERTEX_POINT('',#1017);
#312=VERTEX_POINT('',#1025);
#313=VERTEX_POINT('',#1026);
#314=VERTEX_POINT('',#1028);
#315=VERTEX_POINT('',#1030);
#316=VERTEX_POINT('',#1034);
#317=VERTEX_POINT('',#1036);
#318=VERTEX_POINT('',#1040);
#319=VERTEX_POINT('',#1042);
#320=VERTEX_POINT('',#1050);
#321=VERTEX_POINT('',#1051);
#322=VERTEX_POINT('',#1053);
#323=VERTEX_POINT('',#1055);
#324=VERTEX_POINT('',#1059);
#325=VERTEX_POINT('',#1061);
#326=VERTEX_POINT('',#1065);
#327=VERTEX_POINT('',#1067);
#328=VERTEX_POINT('',#1075);
#329=VERTEX_POINT('',#1076);
#330=VERTEX_POINT('',#1078);
#331=VERTEX_POINT('',#1082);
#332=VERTEX_POINT('',#1084);
#333=VERTEX_POINT('',#1086);
#334=VERTEX_POINT('',#1092);
#335=VERTEX_POINT('',#1094);
#336=VERTEX_POINT('',#1098);
#337=VERTEX_POINT('',#1100);
#338=VERTEX_POINT('',#1102);
#339=VERTEX_POINT('',#1104);
#340=VERTEX_POINT('',#1106);
#341=VERTEX_POINT('',#1108);
#342=VERTEX_POINT('',#1110);
#343=VERTEX_POINT('',#1114);
#344=VERTEX_POINT('',#1118);
#345=VERTEX_POINT('',#1119);
#346=VERTEX_POINT('',#1126);
#347=VERTEX_POINT('',#1130);
#348=VERTEX_POINT('',#1134);
#349=VERTEX_POINT('',#1138);
#350=EDGE_CURVE('',#288,#289,#116,.T.);
#351=EDGE_CURVE('',#288,#290,#117,.T.);
#352=EDGE_CURVE('',#290,#291,#118,.T.);
#353=EDGE_CURVE('',#289,#291,#119,.T.);
#354=EDGE_CURVE('',#289,#292,#120,.T.);
#355=EDGE_CURVE('',#291,#293,#121,.T.);
#356=EDGE_CURVE('',#292,#293,#122,.T.);
#357=EDGE_CURVE('',#294,#288,#123,.T.);
#358=EDGE_CURVE('',#294,#295,#124,.T.);
#359=EDGE_CURVE('',#295,#290,#125,.T.);
#360=EDGE_CURVE('',#292,#294,#126,.T.);
#361=EDGE_CURVE('',#293,#295,#127,.T.);
#362=EDGE_CURVE('',#296,#297,#128,.T.);
#363=EDGE_CURVE('',#296,#298,#129,.T.);
#364=EDGE_CURVE('',#298,#299,#130,.T.);
#365=EDGE_CURVE('',#297,#299,#131,.T.);
#366=EDGE_CURVE('',#297,#300,#132,.T.);
#367=EDGE_CURVE('',#299,#301,#133,.T.);
#368=EDGE_CURVE('',#300,#301,#134,.T.);
#369=EDGE_CURVE('',#302,#296,#135,.T.);
#370=EDGE_CURVE('',#302,#303,#136,.T.);
#371=EDGE_CURVE('',#303,#298,#137,.T.);
#372=EDGE_CURVE('',#300,#302,#138,.T.);
#373=EDGE_CURVE('',#301,#303,#139,.T.);
#374=EDGE_CURVE('',#304,#305,#140,.T.);
#375=EDGE_CURVE('',#304,#306,#141,.T.);
#376=EDGE_CURVE('',#306,#307,#142,.T.);
#377=EDGE_CURVE('',#305,#307,#143,.T.);
#378=EDGE_CURVE('',#305,#308,#144,.T.);
#379=EDGE_CURVE('',#307,#309,#145,.T.);
#380=EDGE_CURVE('',#308,#309,#146,.T.);
#381=EDGE_CURVE('',#310,#304,#147,.T.);
#382=EDGE_CURVE('',#310,#311,#148,.T.);
#383=EDGE_CURVE('',#311,#306,#149,.T.);
#384=EDGE_CURVE('',#308,#310,#150,.T.);
#385=EDGE_CURVE('',#309,#311,#151,.T.);
#386=EDGE_CURVE('',#312,#313,#152,.T.);
#387=EDGE_CURVE('',#312,#314,#153,.T.);
#388=EDGE_CURVE('',#314,#315,#154,.T.);
#389=EDGE_CURVE('',#313,#315,#155,.T.);
#390=EDGE_CURVE('',#313,#316,#156,.T.);
#391=EDGE_CURVE('',#315,#317,#157,.T.);
#392=EDGE_CURVE('',#316,#317,#158,.T.);
#393=EDGE_CURVE('',#318,#312,#159,.T.);
#394=EDGE_CURVE('',#318,#319,#160,.T.);
#395=EDGE_CURVE('',#319,#314,#161,.T.);
#396=EDGE_CURVE('',#316,#318,#162,.T.);
#397=EDGE_CURVE('',#317,#319,#163,.T.);
#398=EDGE_CURVE('',#320,#321,#164,.T.);
#399=EDGE_CURVE('',#320,#322,#165,.T.);
#400=EDGE_CURVE('',#322,#323,#166,.T.);
#401=EDGE_CURVE('',#321,#323,#167,.T.);
#402=EDGE_CURVE('',#321,#324,#168,.T.);
#403=EDGE_CURVE('',#323,#325,#169,.T.);
#404=EDGE_CURVE('',#324,#325,#170,.T.);
#405=EDGE_CURVE('',#326,#320,#171,.T.);
#406=EDGE_CURVE('',#326,#327,#172,.T.);
#407=EDGE_CURVE('',#327,#322,#173,.T.);
#408=EDGE_CURVE('',#324,#326,#174,.T.);
#409=EDGE_CURVE('',#325,#327,#175,.T.);
#410=EDGE_CURVE('',#328,#329,#24,.T.);
#411=EDGE_CURVE('',#329,#330,#176,.T.);
#412=EDGE_CURVE('',#328,#330,#25,.T.);
#413=EDGE_CURVE('',#330,#331,#177,.T.);
#414=EDGE_CURVE('',#332,#331,#26,.T.);
#415=EDGE_CURVE('',#332,#333,#27,.T.);
#416=EDGE_CURVE('',#333,#329,#178,.T.);
#417=EDGE_CURVE('',#331,#333,#179,.T.);
#418=EDGE_CURVE('',#334,#330,#180,.T.);
#419=EDGE_CURVE('',#335,#334,#181,.T.);
#420=EDGE_CURVE('',#335,#331,#182,.T.);
#421=EDGE_CURVE('',#336,#329,#183,.T.);
#422=EDGE_CURVE('',#337,#336,#184,.T.);
#423=EDGE_CURVE('',#337,#338,#185,.T.);
#424=EDGE_CURVE('',#339,#338,#186,.T.);
#425=EDGE_CURVE('',#340,#339,#187,.T.);
#426=EDGE_CURVE('',#341,#340,#20,.T.);
#427=EDGE_CURVE('',#341,#342,#188,.T.);
#428=EDGE_CURVE('',#334,#342,#21,.T.);
#429=EDGE_CURVE('',#343,#335,#22,.T.);
#430=EDGE_CURVE('',#342,#343,#189,.T.);
#431=EDGE_CURVE('',#344,#345,#23,.T.);
#432=EDGE_CURVE('',#345,#341,#190,.T.);
#433=EDGE_CURVE('',#340,#344,#191,.T.);
#434=EDGE_CURVE('',#345,#343,#192,.T.);
#435=EDGE_CURVE('',#346,#333,#193,.T.);
#436=EDGE_CURVE('',#346,#336,#194,.T.);
#437=EDGE_CURVE('',#347,#339,#195,.T.);
#438=EDGE_CURVE('',#344,#347,#196,.T.);
#439=EDGE_CURVE('',#338,#348,#197,.T.);
#440=EDGE_CURVE('',#348,#347,#198,.T.);
#441=EDGE_CURVE('',#349,#348,#199,.T.);
#442=EDGE_CURVE('',#346,#349,#200,.T.);
#443=EDGE_CURVE('',#349,#337,#201,.T.);
#444=ORIENTED_EDGE('',*,*,#350,.F.);
#445=ORIENTED_EDGE('',*,*,#351,.T.);
#446=ORIENTED_EDGE('',*,*,#352,.T.);
#447=ORIENTED_EDGE('',*,*,#353,.F.);
#448=ORIENTED_EDGE('',*,*,#354,.F.);
#449=ORIENTED_EDGE('',*,*,#353,.T.);
#450=ORIENTED_EDGE('',*,*,#355,.T.);
#451=ORIENTED_EDGE('',*,*,#356,.F.);
#452=ORIENTED_EDGE('',*,*,#357,.F.);
#453=ORIENTED_EDGE('',*,*,#358,.T.);
#454=ORIENTED_EDGE('',*,*,#359,.T.);
#455=ORIENTED_EDGE('',*,*,#351,.F.);
#456=ORIENTED_EDGE('',*,*,#360,.F.);
#457=ORIENTED_EDGE('',*,*,#356,.T.);
#458=ORIENTED_EDGE('',*,*,#361,.T.);
#459=ORIENTED_EDGE('',*,*,#358,.F.);
#460=ORIENTED_EDGE('',*,*,#355,.F.);
#461=ORIENTED_EDGE('',*,*,#352,.F.);
#462=ORIENTED_EDGE('',*,*,#359,.F.);
#463=ORIENTED_EDGE('',*,*,#361,.F.);
#464=ORIENTED_EDGE('',*,*,#362,.F.);
#465=ORIENTED_EDGE('',*,*,#363,.T.);
#466=ORIENTED_EDGE('',*,*,#364,.T.);
#467=ORIENTED_EDGE('',*,*,#365,.F.);
#468=ORIENTED_EDGE('',*,*,#366,.F.);
#469=ORIENTED_EDGE('',*,*,#365,.T.);
#470=ORIENTED_EDGE('',*,*,#367,.T.);
#471=ORIENTED_EDGE('',*,*,#368,.F.);
#472=ORIENTED_EDGE('',*,*,#369,.F.);
#473=ORIENTED_EDGE('',*,*,#370,.T.);
#474=ORIENTED_EDGE('',*,*,#371,.T.);
#475=ORIENTED_EDGE('',*,*,#363,.F.);
#476=ORIENTED_EDGE('',*,*,#372,.F.);
#477=ORIENTED_EDGE('',*,*,#368,.T.);
#478=ORIENTED_EDGE('',*,*,#373,.T.);
#479=ORIENTED_EDGE('',*,*,#370,.F.);
#480=ORIENTED_EDGE('',*,*,#367,.F.);
#481=ORIENTED_EDGE('',*,*,#364,.F.);
#482=ORIENTED_EDGE('',*,*,#371,.F.);
#483=ORIENTED_EDGE('',*,*,#373,.F.);
#484=ORIENTED_EDGE('',*,*,#374,.F.);
#485=ORIENTED_EDGE('',*,*,#375,.T.);
#486=ORIENTED_EDGE('',*,*,#376,.T.);
#487=ORIENTED_EDGE('',*,*,#377,.F.);
#488=ORIENTED_EDGE('',*,*,#378,.F.);
#489=ORIENTED_EDGE('',*,*,#377,.T.);
#490=ORIENTED_EDGE('',*,*,#379,.T.);
#491=ORIENTED_EDGE('',*,*,#380,.F.);
#492=ORIENTED_EDGE('',*,*,#381,.F.);
#493=ORIENTED_EDGE('',*,*,#382,.T.);
#494=ORIENTED_EDGE('',*,*,#383,.T.);
#495=ORIENTED_EDGE('',*,*,#375,.F.);
#496=ORIENTED_EDGE('',*,*,#384,.F.);
#497=ORIENTED_EDGE('',*,*,#380,.T.);
#498=ORIENTED_EDGE('',*,*,#385,.T.);
#499=ORIENTED_EDGE('',*,*,#382,.F.);
#500=ORIENTED_EDGE('',*,*,#379,.F.);
#501=ORIENTED_EDGE('',*,*,#376,.F.);
#502=ORIENTED_EDGE('',*,*,#383,.F.);
#503=ORIENTED_EDGE('',*,*,#385,.F.);
#504=ORIENTED_EDGE('',*,*,#386,.F.);
#505=ORIENTED_EDGE('',*,*,#387,.T.);
#506=ORIENTED_EDGE('',*,*,#388,.T.);
#507=ORIENTED_EDGE('',*,*,#389,.F.);
#508=ORIENTED_EDGE('',*,*,#390,.F.);
#509=ORIENTED_EDGE('',*,*,#389,.T.);
#510=ORIENTED_EDGE('',*,*,#391,.T.);
#511=ORIENTED_EDGE('',*,*,#392,.F.);
#512=ORIENTED_EDGE('',*,*,#393,.F.);
#513=ORIENTED_EDGE('',*,*,#394,.T.);
#514=ORIENTED_EDGE('',*,*,#395,.T.);
#515=ORIENTED_EDGE('',*,*,#387,.F.);
#516=ORIENTED_EDGE('',*,*,#396,.F.);
#517=ORIENTED_EDGE('',*,*,#392,.T.);
#518=ORIENTED_EDGE('',*,*,#397,.T.);
#519=ORIENTED_EDGE('',*,*,#394,.F.);
#520=ORIENTED_EDGE('',*,*,#391,.F.);
#521=ORIENTED_EDGE('',*,*,#388,.F.);
#522=ORIENTED_EDGE('',*,*,#395,.F.);
#523=ORIENTED_EDGE('',*,*,#397,.F.);
#524=ORIENTED_EDGE('',*,*,#398,.F.);
#525=ORIENTED_EDGE('',*,*,#399,.T.);
#526=ORIENTED_EDGE('',*,*,#400,.T.);
#527=ORIENTED_EDGE('',*,*,#401,.F.);
#528=ORIENTED_EDGE('',*,*,#402,.F.);
#529=ORIENTED_EDGE('',*,*,#401,.T.);
#530=ORIENTED_EDGE('',*,*,#403,.T.);
#531=ORIENTED_EDGE('',*,*,#404,.F.);
#532=ORIENTED_EDGE('',*,*,#405,.F.);
#533=ORIENTED_EDGE('',*,*,#406,.T.);
#534=ORIENTED_EDGE('',*,*,#407,.T.);
#535=ORIENTED_EDGE('',*,*,#399,.F.);
#536=ORIENTED_EDGE('',*,*,#408,.F.);
#537=ORIENTED_EDGE('',*,*,#404,.T.);
#538=ORIENTED_EDGE('',*,*,#409,.T.);
#539=ORIENTED_EDGE('',*,*,#406,.F.);
#540=ORIENTED_EDGE('',*,*,#403,.F.);
#541=ORIENTED_EDGE('',*,*,#400,.F.);
#542=ORIENTED_EDGE('',*,*,#407,.F.);
#543=ORIENTED_EDGE('',*,*,#409,.F.);
#544=ORIENTED_EDGE('',*,*,#410,.T.);
#545=ORIENTED_EDGE('',*,*,#411,.T.);
#546=ORIENTED_EDGE('',*,*,#412,.F.);
#547=ORIENTED_EDGE('',*,*,#412,.T.);
#548=ORIENTED_EDGE('',*,*,#413,.T.);
#549=ORIENTED_EDGE('',*,*,#414,.F.);
#550=ORIENTED_EDGE('',*,*,#415,.T.);
#551=ORIENTED_EDGE('',*,*,#416,.T.);
#552=ORIENTED_EDGE('',*,*,#410,.F.);
#553=ORIENTED_EDGE('',*,*,#414,.T.);
#554=ORIENTED_EDGE('',*,*,#417,.T.);
#555=ORIENTED_EDGE('',*,*,#415,.F.);
#556=ORIENTED_EDGE('',*,*,#413,.F.);
#557=ORIENTED_EDGE('',*,*,#418,.F.);
#558=ORIENTED_EDGE('',*,*,#419,.F.);
#559=ORIENTED_EDGE('',*,*,#420,.T.);
#560=ORIENTED_EDGE('',*,*,#411,.F.);
#561=ORIENTED_EDGE('',*,*,#421,.F.);
#562=ORIENTED_EDGE('',*,*,#422,.F.);
#563=ORIENTED_EDGE('',*,*,#423,.T.);
#564=ORIENTED_EDGE('',*,*,#424,.F.);
#565=ORIENTED_EDGE('',*,*,#425,.F.);
#566=ORIENTED_EDGE('',*,*,#426,.F.);
#567=ORIENTED_EDGE('',*,*,#427,.T.);
#568=ORIENTED_EDGE('',*,*,#428,.F.);
#569=ORIENTED_EDGE('',*,*,#418,.T.);
#570=ORIENTED_EDGE('',*,*,#429,.T.);
#571=ORIENTED_EDGE('',*,*,#419,.T.);
#572=ORIENTED_EDGE('',*,*,#428,.T.);
#573=ORIENTED_EDGE('',*,*,#430,.T.);
#574=ORIENTED_EDGE('',*,*,#431,.T.);
#575=ORIENTED_EDGE('',*,*,#432,.T.);
#576=ORIENTED_EDGE('',*,*,#426,.T.);
#577=ORIENTED_EDGE('',*,*,#433,.T.);
#578=ORIENTED_EDGE('',*,*,#430,.F.);
#579=ORIENTED_EDGE('',*,*,#427,.F.);
#580=ORIENTED_EDGE('',*,*,#432,.F.);
#581=ORIENTED_EDGE('',*,*,#434,.T.);
#582=ORIENTED_EDGE('',*,*,#416,.F.);
#583=ORIENTED_EDGE('',*,*,#435,.F.);
#584=ORIENTED_EDGE('',*,*,#436,.T.);
#585=ORIENTED_EDGE('',*,*,#421,.T.);
#586=ORIENTED_EDGE('',*,*,#433,.F.);
#587=ORIENTED_EDGE('',*,*,#425,.T.);
#588=ORIENTED_EDGE('',*,*,#437,.F.);
#589=ORIENTED_EDGE('',*,*,#438,.F.);
#590=ORIENTED_EDGE('',*,*,#437,.T.);
#591=ORIENTED_EDGE('',*,*,#424,.T.);
#592=ORIENTED_EDGE('',*,*,#439,.T.);
#593=ORIENTED_EDGE('',*,*,#440,.T.);
#594=ORIENTED_EDGE('',*,*,#408,.T.);
#595=ORIENTED_EDGE('',*,*,#405,.T.);
#596=ORIENTED_EDGE('',*,*,#398,.T.);
#597=ORIENTED_EDGE('',*,*,#402,.T.);
#598=ORIENTED_EDGE('',*,*,#396,.T.);
#599=ORIENTED_EDGE('',*,*,#393,.T.);
#600=ORIENTED_EDGE('',*,*,#386,.T.);
#601=ORIENTED_EDGE('',*,*,#390,.T.);
#602=ORIENTED_EDGE('',*,*,#372,.T.);
#603=ORIENTED_EDGE('',*,*,#369,.T.);
#604=ORIENTED_EDGE('',*,*,#362,.T.);
#605=ORIENTED_EDGE('',*,*,#366,.T.);
#606=ORIENTED_EDGE('',*,*,#384,.T.);
#607=ORIENTED_EDGE('',*,*,#381,.T.);
#608=ORIENTED_EDGE('',*,*,#374,.T.);
#609=ORIENTED_EDGE('',*,*,#378,.T.);
#610=ORIENTED_EDGE('',*,*,#360,.T.);
#611=ORIENTED_EDGE('',*,*,#357,.T.);
#612=ORIENTED_EDGE('',*,*,#350,.T.);
#613=ORIENTED_EDGE('',*,*,#354,.T.);
#614=ORIENTED_EDGE('',*,*,#417,.F.);
#615=ORIENTED_EDGE('',*,*,#420,.F.);
#616=ORIENTED_EDGE('',*,*,#429,.F.);
#617=ORIENTED_EDGE('',*,*,#434,.F.);
#618=ORIENTED_EDGE('',*,*,#431,.F.);
#619=ORIENTED_EDGE('',*,*,#438,.T.);
#620=ORIENTED_EDGE('',*,*,#440,.F.);
#621=ORIENTED_EDGE('',*,*,#441,.F.);
#622=ORIENTED_EDGE('',*,*,#442,.F.);
#623=ORIENTED_EDGE('',*,*,#435,.T.);
#624=ORIENTED_EDGE('',*,*,#443,.F.);
#625=ORIENTED_EDGE('',*,*,#441,.T.);
#626=ORIENTED_EDGE('',*,*,#439,.F.);
#627=ORIENTED_EDGE('',*,*,#423,.F.);
#628=ORIENTED_EDGE('',*,*,#443,.T.);
#629=ORIENTED_EDGE('',*,*,#422,.T.);
#630=ORIENTED_EDGE('',*,*,#436,.F.);
#631=ORIENTED_EDGE('',*,*,#442,.T.);
#632=PLANE('',#719);
#633=PLANE('',#720);
#634=PLANE('',#721);
#635=PLANE('',#722);
#636=PLANE('',#723);
#637=PLANE('',#724);
#638=PLANE('',#725);
#639=PLANE('',#726);
#640=PLANE('',#727);
#641=PLANE('',#728);
#642=PLANE('',#729);
#643=PLANE('',#730);
#644=PLANE('',#731);
#645=PLANE('',#732);
#646=PLANE('',#733);
#647=PLANE('',#734);
#648=PLANE('',#735);
#649=PLANE('',#736);
#650=PLANE('',#737);
#651=PLANE('',#738);
#652=PLANE('',#739);
#653=PLANE('',#740);
#654=PLANE('',#741);
#655=PLANE('',#742);
#656=PLANE('',#743);
#657=PLANE('',#751);
#658=PLANE('',#752);
#659=PLANE('',#759);
#660=PLANE('',#760);
#661=PLANE('',#761);
#662=PLANE('',#762);
#663=PLANE('',#763);
#664=PLANE('',#764);
#665=PLANE('',#765);
#666=ADVANCED_FACE('',(#33),#632,.F.);
#667=ADVANCED_FACE('',(#34),#633,.F.);
#668=ADVANCED_FACE('',(#35),#634,.F.);
#669=ADVANCED_FACE('',(#36),#635,.F.);
#670=ADVANCED_FACE('',(#37),#636,.F.);
#671=ADVANCED_FACE('',(#38),#637,.F.);
#672=ADVANCED_FACE('',(#39),#638,.F.);
#673=ADVANCED_FACE('',(#40),#639,.F.);
#674=ADVANCED_FACE('',(#41),#640,.F.);
#675=ADVANCED_FACE('',(#42),#641,.F.);
#676=ADVANCED_FACE('',(#43),#642,.F.);
#677=ADVANCED_FACE('',(#44),#643,.F.);
#678=ADVANCED_FACE('',(#45),#644,.F.);
#679=ADVANCED_FACE('',(#46),#645,.F.);
#680=ADVANCED_FACE('',(#47),#646,.F.);
#681=ADVANCED_FACE('',(#48),#647,.F.);
#682=ADVANCED_FACE('',(#49),#648,.F.);
#683=ADVANCED_FACE('',(#50),#649,.F.);
#684=ADVANCED_FACE('',(#51),#650,.F.);
#685=ADVANCED_FACE('',(#52),#651,.F.);
#686=ADVANCED_FACE('',(#53),#652,.F.);
#687=ADVANCED_FACE('',(#54),#653,.F.);
#688=ADVANCED_FACE('',(#55),#654,.F.);
#689=ADVANCED_FACE('',(#56),#655,.F.);
#690=ADVANCED_FACE('',(#57),#656,.F.);
#691=ADVANCED_FACE('',(#58),#28,.T.);
#692=ADVANCED_FACE('',(#59),#29,.T.);
#693=ADVANCED_FACE('',(#60),#30,.T.);
#694=ADVANCED_FACE('',(#61),#657,.T.);
#695=ADVANCED_FACE('',(#62),#658,.T.);
#696=ADVANCED_FACE('',(#63),#31,.F.);
#697=ADVANCED_FACE('',(#64),#32,.F.);
#698=ADVANCED_FACE('',(#65),#659,.T.);
#699=ADVANCED_FACE('',(#66),#660,.T.);
#700=ADVANCED_FACE('',(#67),#661,.T.);
#701=ADVANCED_FACE('',(#68,#15,#16,#17,#18,#19),#662,.T.);
#702=ADVANCED_FACE('',(#69),#663,.T.);
#703=ADVANCED_FACE('',(#70),#664,.T.);
#704=ADVANCED_FACE('',(#71),#665,.F.);
#705=CLOSED_SHELL('',(#666,#667,#668,#669,#670,#671,#672,#673,#674,#675,
#676,#677,#678,#679,#680,#681,#682,#683,#684,#685,#686,#687,#688,#689,#690,
#691,#692,#693,#694,#695,#696,#697,#698,#699,#700,#701,#702,#703,#704));
#706=DERIVED_UNIT_ELEMENT(#708,1.);
#707=DERIVED_UNIT_ELEMENT(#1149,-3.);
#708=(
MASS_UNIT()
NAMED_UNIT(*)
SI_UNIT(.KILO.,.GRAM.)
);
#709=DERIVED_UNIT((#706,#707));
#710=MEASURE_REPRESENTATION_ITEM('density measure',
POSITIVE_RATIO_MEASURE(7850.),#709);
#711=PROPERTY_DEFINITION_REPRESENTATION(#716,#713);
#712=PROPERTY_DEFINITION_REPRESENTATION(#717,#714);
#713=REPRESENTATION('material name',(#715),#1146);
#714=REPRESENTATION('density',(#710),#1146);
#715=DESCRIPTIVE_REPRESENTATION_ITEM('Steel','Steel');
#716=PROPERTY_DEFINITION('material property','material name',#1156);
#717=PROPERTY_DEFINITION('material property','density of part',#1156);
#718=AXIS2_PLACEMENT_3D('',#948,#766,#767);
#719=AXIS2_PLACEMENT_3D('',#949,#768,#769);
#720=AXIS2_PLACEMENT_3D('',#958,#774,#775);
#721=AXIS2_PLACEMENT_3D('',#964,#779,#780);
#722=AXIS2_PLACEMENT_3D('',#970,#784,#785);
#723=AXIS2_PLACEMENT_3D('',#973,#788,#789);
#724=AXIS2_PLACEMENT_3D('',#974,#790,#791);
#725=AXIS2_PLACEMENT_3D('',#983,#796,#797);
#726=AXIS2_PLACEMENT_3D('',#989,#801,#802);
#727=AXIS2_PLACEMENT_3D('',#995,#806,#807);
#728=AXIS2_PLACEMENT_3D('',#998,#810,#811);
#729=AXIS2_PLACEMENT_3D('',#999,#812,#813);
#730=AXIS2_PLACEMENT_3D('',#1008,#818,#819);
#731=AXIS2_PLACEMENT_3D('',#1014,#823,#824);
#732=AXIS2_PLACEMENT_3D('',#1020,#828,#829);
#733=AXIS2_PLACEMENT_3D('',#1023,#832,#833);
#734=AXIS2_PLACEMENT_3D('',#1024,#834,#835);
#735=AXIS2_PLACEMENT_3D('',#1033,#840,#841);
#736=AXIS2_PLACEMENT_3D('',#1039,#845,#846);
#737=AXIS2_PLACEMENT_3D('',#1045,#850,#851);
#738=AXIS2_PLACEMENT_3D('',#1048,#854,#855);
#739=AXIS2_PLACEMENT_3D('',#1049,#856,#857);
#740=AXIS2_PLACEMENT_3D('',#1058,#862,#863);
#741=AXIS2_PLACEMENT_3D('',#1064,#867,#868);
#742=AXIS2_PLACEMENT_3D('',#1070,#872,#873);
#743=AXIS2_PLACEMENT_3D('',#1073,#876,#877);
#744=AXIS2_PLACEMENT_3D('',#1074,#878,#879);
#745=AXIS2_PLACEMENT_3D('',#1077,#880,#881);
#746=AXIS2_PLACEMENT_3D('',#1080,#883,#884);
#747=AXIS2_PLACEMENT_3D('',#1081,#885,#886);
#748=AXIS2_PLACEMENT_3D('',#1085,#888,#889);
#749=AXIS2_PLACEMENT_3D('',#1087,#890,#891);
#750=AXIS2_PLACEMENT_3D('',#1089,#893,#894);
#751=AXIS2_PLACEMENT_3D('',#1091,#896,#897);
#752=AXIS2_PLACEMENT_3D('',#1097,#901,#902);
#753=AXIS2_PLACEMENT_3D('',#1109,#908,#909);
#754=AXIS2_PLACEMENT_3D('',#1112,#911,#912);
#755=AXIS2_PLACEMENT_3D('',#1113,#913,#914);
#756=AXIS2_PLACEMENT_3D('',#1115,#915,#916);
#757=AXIS2_PLACEMENT_3D('',#1117,#918,#919);
#758=AXIS2_PLACEMENT_3D('',#1120,#920,#921);
#759=AXIS2_PLACEMENT_3D('',#1123,#924,#925);
#760=AXIS2_PLACEMENT_3D('',#1125,#927,#928);
#761=AXIS2_PLACEMENT_3D('',#1129,#931,#932);
#762=AXIS2_PLACEMENT_3D('',#1133,#935,#936);
#763=AXIS2_PLACEMENT_3D('',#1137,#939,#940);
#764=AXIS2_PLACEMENT_3D('',#1141,#943,#944);
#765=AXIS2_PLACEMENT_3D('',#1143,#946,#947);
#766=DIRECTION('axis',(0.,0.,1.));
#767=DIRECTION('refdir',(1.,0.,0.));
#768=DIRECTION('center_axis',(1.,0.,0.));
#769=DIRECTION('ref_axis',(0.,-1.,0.));
#770=DIRECTION('',(0.,-1.,0.));
#771=DIRECTION('',(0.,0.,-1.));
#772=DIRECTION('',(0.,-1.,0.));
#773=DIRECTION('',(0.,0.,-1.));
#774=DIRECTION('center_axis',(0.,-1.,0.));
#775=DIRECTION('ref_axis',(-1.,0.,0.));
#776=DIRECTION('',(-1.,0.,0.));
#777=DIRECTION('',(-1.,0.,0.));
#778=DIRECTION('',(0.,0.,-1.));
#779=DIRECTION('center_axis',(0.,1.,0.));
#780=DIRECTION('ref_axis',(1.,0.,0.));
#781=DIRECTION('',(1.,0.,0.));
#782=DIRECTION('',(0.,0.,-1.));
#783=DIRECTION('',(1.,0.,0.));
#784=DIRECTION('center_axis',(-1.,0.,0.));
#785=DIRECTION('ref_axis',(0.,1.,0.));
#786=DIRECTION('',(0.,1.,0.));
#787=DIRECTION('',(0.,1.,0.));
#788=DIRECTION('center_axis',(0.,0.,-1.));
#789=DIRECTION('ref_axis',(-1.,0.,0.));
#790=DIRECTION('center_axis',(1.,0.,0.));
#791=DIRECTION('ref_axis',(0.,-1.,0.));
#792=DIRECTION('',(0.,-1.,0.));
#793=DIRECTION('',(0.,0.,-1.));
#794=DIRECTION('',(0.,-1.,0.));
#795=DIRECTION('',(0.,0.,-1.));
#796=DIRECTION('center_axis',(0.,-1.,0.));
#797=DIRECTION('ref_axis',(-1.,0.,0.));
#798=DIRECTION('',(-1.,0.,0.));
#799=DIRECTION('',(-1.,0.,0.));
#800=DIRECTION('',(0.,0.,-1.));
#801=DIRECTION('center_axis',(0.,1.,0.));
#802=DIRECTION('ref_axis',(1.,0.,0.));
#803=DIRECTION('',(1.,0.,0.));
#804=DIRECTION('',(0.,0.,-1.));
#805=DIRECTION('',(1.,0.,0.));
#806=DIRECTION('center_axis',(-1.,0.,0.));
#807=DIRECTION('ref_axis',(0.,1.,0.));
#808=DIRECTION('',(0.,1.,0.));
#809=DIRECTION('',(0.,1.,0.));
#810=DIRECTION('center_axis',(0.,0.,-1.));
#811=DIRECTION('ref_axis',(-1.,0.,0.));
#812=DIRECTION('center_axis',(1.,0.,0.));
#813=DIRECTION('ref_axis',(0.,-1.,0.));
#814=DIRECTION('',(0.,-1.,0.));
#815=DIRECTION('',(0.,0.,-1.));
#816=DIRECTION('',(0.,-1.,0.));
#817=DIRECTION('',(0.,0.,-1.));
#818=DIRECTION('center_axis',(0.,-1.,0.));
#819=DIRECTION('ref_axis',(-1.,0.,0.));
#820=DIRECTION('',(-1.,0.,0.));
#821=DIRECTION('',(-1.,0.,0.));
#822=DIRECTION('',(0.,0.,-1.));
#823=DIRECTION('center_axis',(0.,1.,0.));
#824=DIRECTION('ref_axis',(1.,0.,0.));
#825=DIRECTION('',(1.,0.,0.));
#826=DIRECTION('',(0.,0.,-1.));
#827=DIRECTION('',(1.,0.,0.));
#828=DIRECTION('center_axis',(-1.,0.,0.));
#829=DIRECTION('ref_axis',(0.,1.,0.));
#830=DIRECTION('',(0.,1.,0.));
#831=DIRECTION('',(0.,1.,0.));
#832=DIRECTION('center_axis',(0.,0.,-1.));
#833=DIRECTION('ref_axis',(-1.,0.,0.));
#834=DIRECTION('center_axis',(1.,0.,0.));
#835=DIRECTION('ref_axis',(0.,-1.,0.));
#836=DIRECTION('',(0.,-1.,0.));
#837=DIRECTION('',(0.,0.,-1.));
#838=DIRECTION('',(0.,-1.,0.));
#839=DIRECTION('',(0.,0.,-1.));
#840=DIRECTION('center_axis',(0.,-1.,0.));
#841=DIRECTION('ref_axis',(-1.,0.,0.));
#842=DIRECTION('',(-1.,0.,0.));
#843=DIRECTION('',(-1.,0.,0.));
#844=DIRECTION('',(0.,0.,-1.));
#845=DIRECTION('center_axis',(0.,1.,0.));
#846=DIRECTION('ref_axis',(1.,0.,0.));
#847=DIRECTION('',(1.,0.,0.));
#848=DIRECTION('',(0.,0.,-1.));
#849=DIRECTION('',(1.,0.,0.));
#850=DIRECTION('center_axis',(-1.,0.,0.));
#851=DIRECTION('ref_axis',(0.,1.,0.));
#852=DIRECTION('',(0.,1.,0.));
#853=DIRECTION('',(0.,1.,0.));
#854=DIRECTION('center_axis',(0.,0.,-1.));
#855=DIRECTION('ref_axis',(-1.,0.,0.));
#856=DIRECTION('center_axis',(1.,0.,0.));
#857=DIRECTION('ref_axis',(0.,-1.,0.));
#858=DIRECTION('',(0.,-1.,0.));
#859=DIRECTION('',(0.,0.,-1.));
#860=DIRECTION('',(0.,-1.,0.));
#861=DIRECTION('',(0.,0.,-1.));
#862=DIRECTION('center_axis',(0.,-1.,0.));
#863=DIRECTION('ref_axis',(-1.,0.,0.));
#864=DIRECTION('',(-1.,0.,0.));
#865=DIRECTION('',(-1.,0.,0.));
#866=DIRECTION('',(0.,0.,-1.));
#867=DIRECTION('center_axis',(0.,1.,0.));
#868=DIRECTION('ref_axis',(1.,0.,0.));
#869=DIRECTION('',(1.,0.,0.));
#870=DIRECTION('',(0.,0.,-1.));
#871=DIRECTION('',(1.,0.,0.));
#872=DIRECTION('center_axis',(-1.,0.,0.));
#873=DIRECTION('ref_axis',(0.,1.,0.));
#874=DIRECTION('',(0.,1.,0.));
#875=DIRECTION('',(0.,1.,0.));
#876=DIRECTION('center_axis',(0.,0.,-1.));
#877=DIRECTION('ref_axis',(-1.,0.,0.));
#878=DIRECTION('center_axis',(0.,-1.,0.));
#879=DIRECTION('ref_axis',(-0.707106781186547,0.,0.707106781186547));
#880=DIRECTION('center_axis',(-0.707106781186548,-0.707106781186548,0.));
#881=DIRECTION('ref_axis',(-0.707106781186547,0.707106781186547,0.));
#882=DIRECTION('',(0.,-1.,0.));
#883=DIRECTION('center_axis',(0.707106781186548,-0.707106781186548,0.));
#884=DIRECTION('ref_axis',(-0.707106781186547,-0.707106781186547,0.));
#885=DIRECTION('center_axis',(-1.,0.,0.));
#886=DIRECTION('ref_axis',(0.,0.707106781186547,0.707106781186547));
#887=DIRECTION('',(1.,0.,0.));
#888=DIRECTION('center_axis',(0.707106781186548,0.707106781186548,0.));
#889=DIRECTION('ref_axis',(0.707106781186547,-0.707106781186547,0.));
#890=DIRECTION('center_axis',(-0.707106781186548,0.707106781186548,0.));
#891=DIRECTION('ref_axis',(0.707106781186547,0.707106781186547,0.));
#892=DIRECTION('',(-1.,0.,0.));
#893=DIRECTION('center_axis',(0.,1.,0.));
#894=DIRECTION('ref_axis',(0.707106781186547,0.,0.707106781186547));
#895=DIRECTION('',(0.,1.,0.));
#896=DIRECTION('center_axis',(0.,-1.,0.));
#897=DIRECTION('ref_axis',(1.,0.,0.));
#898=DIRECTION('',(0.,0.,1.));
#899=DIRECTION('',(-1.,0.,0.));
#900=DIRECTION('',(0.,0.,1.));
#901=DIRECTION('center_axis',(-1.,0.,0.));
#902=DIRECTION('ref_axis',(0.,-1.,0.));
#903=DIRECTION('',(0.,0.,1.));
#904=DIRECTION('',(0.,1.,0.));
#905=DIRECTION('',(0.,0.,1.));
#906=DIRECTION('',(0.,-1.,0.));
#907=DIRECTION('',(0.,0.,1.));
#908=DIRECTION('center_axis',(-1.,0.,0.));
#909=DIRECTION('ref_axis',(0.,-0.707106781186547,-0.707106781186547));
#910=DIRECTION('',(0.,1.,0.));
#911=DIRECTION('center_axis',(-1.,0.,0.));
#912=DIRECTION('ref_axis',(0.,0.707106781186547,-0.707106781186547));
#913=DIRECTION('center_axis',(-1.,0.,0.));
#914=DIRECTION('ref_axis',(0.,0.707106781186547,-0.707106781186547));
#915=DIRECTION('center_axis',(1.,0.,0.));
#916=DIRECTION('ref_axis',(0.,0.707106781186547,-0.707106781186547));
#917=DIRECTION('',(1.,0.,0.));
#918=DIRECTION('center_axis',(-1.,0.,0.));
#919=DIRECTION('ref_axis',(0.,-0.707106781186547,-0.707106781186547));
#920=DIRECTION('center_axis',(1.,0.,0.));
#921=DIRECTION('ref_axis',(0.,-0.707106781186547,-0.707106781186547));
#922=DIRECTION('',(-1.,0.,0.));
#923=DIRECTION('',(1.,0.,0.));
#924=DIRECTION('center_axis',(0.,0.,1.));
#925=DIRECTION('ref_axis',(1.,0.,0.));
#926=DIRECTION('',(0.,1.,0.));
#927=DIRECTION('center_axis',(0.,1.,0.));
#928=DIRECTION('ref_axis',(0.,0.,1.));
#929=DIRECTION('',(0.,0.,1.));
#930=DIRECTION('',(-1.,0.,0.));
#931=DIRECTION('center_axis',(0.,1.,0.));
#932=DIRECTION('ref_axis',(-1.,0.,0.));
#933=DIRECTION('',(-1.,0.,0.));
#934=DIRECTION('',(0.,0.,1.));
#935=DIRECTION('center_axis',(0.,0.,1.));
#936=DIRECTION('ref_axis',(1.,0.,0.));
#937=DIRECTION('',(1.,0.,0.));
#938=DIRECTION('',(0.,1.,0.));
#939=DIRECTION('center_axis',(1.,0.,0.));
#940=DIRECTION('ref_axis',(0.,1.,0.));
#941=DIRECTION('',(0.,0.,1.));
#942=DIRECTION('',(0.,-1.,0.));
#943=DIRECTION('center_axis',(0.,-1.,0.));
#944=DIRECTION('ref_axis',(1.,0.,0.));
#945=DIRECTION('',(-1.,0.,0.));
#946=DIRECTION('center_axis',(0.,0.,1.));
#947=DIRECTION('ref_axis',(1.,0.,0.));
#948=CARTESIAN_POINT('',(0.,0.,0.));
#949=CARTESIAN_POINT('Origin',(65.,-10.,90.));
#950=CARTESIAN_POINT('',(65.,-10.,85.));
#951=CARTESIAN_POINT('',(65.,-15.,85.));
#952=CARTESIAN_POINT('',(65.,-13.75,85.));
#953=CARTESIAN_POINT('',(65.,-10.,80.));
#954=CARTESIAN_POINT('',(65.,-10.,90.));
#955=CARTESIAN_POINT('',(65.,-15.,80.));
#956=CARTESIAN_POINT('',(65.,-10.,80.));
#957=CARTESIAN_POINT('',(65.,-15.,90.));
#958=CARTESIAN_POINT('Origin',(65.,-15.,90.));
#959=CARTESIAN_POINT('',(50.,-15.,85.));
#960=CARTESIAN_POINT('',(25.,-15.,85.));
#961=CARTESIAN_POINT('',(50.,-15.,80.));
#962=CARTESIAN_POINT('',(65.,-15.,80.));
#963=CARTESIAN_POINT('',(50.,-15.,90.));
#964=CARTESIAN_POINT('Origin',(50.,-10.,90.));
#965=CARTESIAN_POINT('',(50.,-10.,85.));
#966=CARTESIAN_POINT('',(32.5,-10.,85.));
#967=CARTESIAN_POINT('',(50.,-10.,80.));
#968=CARTESIAN_POINT('',(50.,-10.,90.));
#969=CARTESIAN_POINT('',(50.,-10.,80.));
#970=CARTESIAN_POINT('Origin',(50.,-15.,90.));
#971=CARTESIAN_POINT('',(50.,-11.25,85.));
#972=CARTESIAN_POINT('',(50.,-15.,80.));
#973=CARTESIAN_POINT('Origin',(57.5,-12.5,80.));
#974=CARTESIAN_POINT('Origin',(40.,-10.,90.));
#975=CARTESIAN_POINT('',(40.,-10.,85.));
#976=CARTESIAN_POINT('',(40.,-15.,85.));
#977=CARTESIAN_POINT('',(40.,-13.75,85.));
#978=CARTESIAN_POINT('',(40.,-10.,80.));
#979=CARTESIAN_POINT('',(40.,-10.,90.));
#980=CARTESIAN_POINT('',(40.,-15.,80.));
#981=CARTESIAN_POINT('',(40.,-10.,80.));
#982=CARTESIAN_POINT('',(40.,-15.,90.));
#983=CARTESIAN_POINT('Origin',(40.,-15.,90.));
#984=CARTESIAN_POINT('',(25.,-15.,85.));
#985=CARTESIAN_POINT('',(12.5,-15.,85.));
#986=CARTESIAN_POINT('',(25.,-15.,80.));
#987=CARTESIAN_POINT('',(40.,-15.,80.));
#988=CARTESIAN_POINT('',(25.,-15.,90.));
#989=CARTESIAN_POINT('Origin',(25.,-10.,90.));
#990=CARTESIAN_POINT('',(25.,-10.,85.));
#991=CARTESIAN_POINT('',(20.,-10.,85.));
#992=CARTESIAN_POINT('',(25.,-10.,80.));
#993=CARTESIAN_POINT('',(25.,-10.,90.));
#994=CARTESIAN_POINT('',(25.,-10.,80.));
#995=CARTESIAN_POINT('Origin',(25.,-15.,90.));
#996=CARTESIAN_POINT('',(25.,-11.25,85.));
#997=CARTESIAN_POINT('',(25.,-15.,80.));
#998=CARTESIAN_POINT('Origin',(32.5,-12.5,80.));
#999=CARTESIAN_POINT('Origin',(-50.,-10.,90.));
#1000=CARTESIAN_POINT('',(-50.,-10.,85.));
#1001=CARTESIAN_POINT('',(-50.,-15.,85.));
#1002=CARTESIAN_POINT('',(-50.,-13.75,85.));
#1003=CARTESIAN_POINT('',(-50.,-10.,80.));
#1004=CARTESIAN_POINT('',(-50.,-10.,90.));
#1005=CARTESIAN_POINT('',(-50.,-15.,80.));
#1006=CARTESIAN_POINT('',(-50.,-10.,80.));
#1007=CARTESIAN_POINT('',(-50.,-15.,90.));
#1008=CARTESIAN_POINT('Origin',(-50.,-15.,90.));
#1009=CARTESIAN_POINT('',(-65.,-15.,85.));
#1010=CARTESIAN_POINT('',(-32.5,-15.,85.));
#1011=CARTESIAN_POINT('',(-65.,-15.,80.));
#1012=CARTESIAN_POINT('',(-50.,-15.,80.));
#1013=CARTESIAN_POINT('',(-65.,-15.,90.));
#1014=CARTESIAN_POINT('Origin',(-65.,-10.,90.));
#1015=CARTESIAN_POINT('',(-65.,-10.,85.));
#1016=CARTESIAN_POINT('',(-25.,-10.,85.));
#1017=CARTESIAN_POINT('',(-65.,-10.,80.));
#1018=CARTESIAN_POINT('',(-65.,-10.,90.));
#1019=CARTESIAN_POINT('',(-65.,-10.,80.));
#1020=CARTESIAN_POINT('Origin',(-65.,-15.,90.));
#1021=CARTESIAN_POINT('',(-65.,-11.25,85.));
#1022=CARTESIAN_POINT('',(-65.,-15.,80.));
#1023=CARTESIAN_POINT('Origin',(-57.5,-12.5,80.));
#1024=CARTESIAN_POINT('Origin',(-20.,-10.,90.));
#1025=CARTESIAN_POINT('',(-20.,-10.,85.));
#1026=CARTESIAN_POINT('',(-20.,-15.,85.));
#1027=CARTESIAN_POINT('',(-20.,-13.75,85.));
#1028=CARTESIAN_POINT('',(-20.,-10.,80.));
#1029=CARTESIAN_POINT('',(-20.,-10.,90.));
#1030=CARTESIAN_POINT('',(-20.,-15.,80.));
#1031=CARTESIAN_POINT('',(-20.,-10.,80.));
#1032=CARTESIAN_POINT('',(-20.,-15.,90.));
#1033=CARTESIAN_POINT('Origin',(-20.,-15.,90.));
#1034=CARTESIAN_POINT('',(-35.,-15.,85.));
#1035=CARTESIAN_POINT('',(-17.5,-15.,85.));
#1036=CARTESIAN_POINT('',(-35.,-15.,80.));
#1037=CARTESIAN_POINT('',(-20.,-15.,80.));
#1038=CARTESIAN_POINT('',(-35.,-15.,90.));
#1039=CARTESIAN_POINT('Origin',(-35.,-10.,90.));
#1040=CARTESIAN_POINT('',(-35.,-10.,85.));
#1041=CARTESIAN_POINT('',(-10.,-10.,85.));
#1042=CARTESIAN_POINT('',(-35.,-10.,80.));
#1043=CARTESIAN_POINT('',(-35.,-10.,90.));
#1044=CARTESIAN_POINT('',(-35.,-10.,80.));
#1045=CARTESIAN_POINT('Origin',(-35.,-15.,90.));
#1046=CARTESIAN_POINT('',(-35.,-11.25,85.));
#1047=CARTESIAN_POINT('',(-35.,-15.,80.));
#1048=CARTESIAN_POINT('Origin',(-27.5,-12.5,80.));
#1049=CARTESIAN_POINT('Origin',(10.,-10.,90.));
#1050=CARTESIAN_POINT('',(10.,-10.,85.));
#1051=CARTESIAN_POINT('',(10.,-15.,85.));
#1052=CARTESIAN_POINT('',(10.,-13.75,85.));
#1053=CARTESIAN_POINT('',(10.,-10.,80.));
#1054=CARTESIAN_POINT('',(10.,-10.,90.));
#1055=CARTESIAN_POINT('',(10.,-15.,80.));
#1056=CARTESIAN_POINT('',(10.,-10.,80.));
#1057=CARTESIAN_POINT('',(10.,-15.,90.));
#1058=CARTESIAN_POINT('Origin',(10.,-15.,90.));
#1059=CARTESIAN_POINT('',(-5.,-15.,85.));
#1060=CARTESIAN_POINT('',(-2.5,-15.,85.));
#1061=CARTESIAN_POINT('',(-5.,-15.,80.));
#1062=CARTESIAN_POINT('',(10.,-15.,80.));
#1063=CARTESIAN_POINT('',(-5.,-15.,90.));
#1064=CARTESIAN_POINT('Origin',(-5.,-10.,90.));
#1065=CARTESIAN_POINT('',(-5.,-10.,85.));
#1066=CARTESIAN_POINT('',(5.,-10.,85.));
#1067=CARTESIAN_POINT('',(-5.,-10.,80.));
#1068=CARTESIAN_POINT('',(-5.,-10.,90.));
#1069=CARTESIAN_POINT('',(-5.,-10.,80.));
#1070=CARTESIAN_POINT('Origin',(-5.,-15.,90.));
#1071=CARTESIAN_POINT('',(-5.,-11.25,85.));
#1072=CARTESIAN_POINT('',(-5.,-15.,80.));
#1073=CARTESIAN_POINT('Origin',(2.5,-12.5,80.));
#1074=CARTESIAN_POINT('Origin',(-65.,80.,55.));
#1075=CARTESIAN_POINT('',(-65.,85.,65.));
#1076=CARTESIAN_POINT('',(-75.,95.,55.));
#1077=CARTESIAN_POINT('Origin',(-65.,85.,55.));
#1078=CARTESIAN_POINT('',(-75.,75.,55.));
#1079=CARTESIAN_POINT('',(-75.,80.,55.));
#1080=CARTESIAN_POINT('Origin',(-65.,85.,55.));
#1081=CARTESIAN_POINT('Origin',(37.5,85.,55.));
#1082=CARTESIAN_POINT('',(75.,75.,55.));
#1083=CARTESIAN_POINT('',(-37.5,75.,55.));
#1084=CARTESIAN_POINT('',(65.,85.,65.));
#1085=CARTESIAN_POINT('Origin',(65.,85.,55.));
#1086=CARTESIAN_POINT('',(75.,95.,55.));
#1087=CARTESIAN_POINT('Origin',(65.,85.,55.));
#1088=CARTESIAN_POINT('',(37.5,95.,55.));
#1089=CARTESIAN_POINT('Origin',(65.,30.,55.));
#1090=CARTESIAN_POINT('',(75.,30.,55.));
#1091=CARTESIAN_POINT('Origin',(-75.,75.,15.));
#1092=CARTESIAN_POINT('',(-75.,75.,30.));
#1093=CARTESIAN_POINT('',(-75.,75.,15.));
#1094=CARTESIAN_POINT('',(75.,75.,30.));
#1095=CARTESIAN_POINT('',(-37.5,75.,30.));
#1096=CARTESIAN_POINT('',(75.,75.,15.));
#1097=CARTESIAN_POINT('Origin',(-75.,75.,0.));
#1098=CARTESIAN_POINT('',(-75.,95.,0.));
#1099=CARTESIAN_POINT('',(-75.,95.,0.));
#1100=CARTESIAN_POINT('',(-75.,-25.,0.));
#1101=CARTESIAN_POINT('',(-75.,75.,0.));
#1102=CARTESIAN_POINT('',(-75.,-25.,85.));
#1103=CARTESIAN_POINT('',(-75.,-25.,0.));
#1104=CARTESIAN_POINT('',(-75.,0.,85.));
#1105=CARTESIAN_POINT('',(-75.,-25.,85.));
#1106=CARTESIAN_POINT('',(-75.,0.,30.));
#1107=CARTESIAN_POINT('',(-75.,0.,10.));
#1108=CARTESIAN_POINT('',(-75.,15.,15.));
#1109=CARTESIAN_POINT('Origin',(-75.,15.,30.));
#1110=CARTESIAN_POINT('',(-75.,60.,15.));
#1111=CARTESIAN_POINT('',(-75.,75.,15.));
#1112=CARTESIAN_POINT('Origin',(-75.,60.,30.));
#1113=CARTESIAN_POINT('Origin',(-37.5,60.,30.));
#1114=CARTESIAN_POINT('',(75.,60.,15.));
#1115=CARTESIAN_POINT('Origin',(75.,60.,30.));
#1116=CARTESIAN_POINT('',(-37.5,60.,15.));
#1117=CARTESIAN_POINT('Origin',(37.5,15.,30.));
#1118=CARTESIAN_POINT('',(75.,0.,30.));
#1119=CARTESIAN_POINT('',(75.,15.,15.));
#1120=CARTESIAN_POINT('Origin',(75.,15.,30.));
#1121=CARTESIAN_POINT('',(37.5,15.,15.));
#1122=CARTESIAN_POINT('',(37.5,0.,30.));
#1123=CARTESIAN_POINT('Origin',(0.,37.5,15.));
#1124=CARTESIAN_POINT('',(75.,0.,15.));
#1125=CARTESIAN_POINT('Origin',(75.,95.,0.));
#1126=CARTESIAN_POINT('',(75.,95.,0.));
#1127=CARTESIAN_POINT('',(75.,95.,15.));
#1128=CARTESIAN_POINT('',(-75.,95.,0.));
#1129=CARTESIAN_POINT('Origin',(75.,0.,10.));
#1130=CARTESIAN_POINT('',(75.,0.,85.));
#1131=CARTESIAN_POINT('',(-75.,0.,85.));
#1132=CARTESIAN_POINT('',(75.,0.,10.));
#1133=CARTESIAN_POINT('Origin',(0.,-12.5,85.));
#1134=CARTESIAN_POINT('',(75.,-25.,85.));
#1135=CARTESIAN_POINT('',(75.,-25.,85.));
#1136=CARTESIAN_POINT('',(75.,0.,85.));
#1137=CARTESIAN_POINT('Origin',(75.,-25.,0.));
#1138=CARTESIAN_POINT('',(75.,-25.,0.));
#1139=CARTESIAN_POINT('',(75.,-25.,0.));
#1140=CARTESIAN_POINT('',(75.,75.,0.));
#1141=CARTESIAN_POINT('Origin',(-75.,-25.,0.));
#1142=CARTESIAN_POINT('',(75.,-25.,0.));
#1143=CARTESIAN_POINT('Origin',(0.,25.,0.));
#1144=UNCERTAINTY_MEASURE_WITH_UNIT(LENGTH_MEASURE(0.01),#1148,
'DISTANCE_ACCURACY_VALUE',
'Maximum model space distance between geometric entities at asserted c
onnectivities');
#1145=UNCERTAINTY_MEASURE_WITH_UNIT(LENGTH_MEASURE(0.01),#1148,
'DISTANCE_ACCURACY_VALUE',
'Maximum model space distance between geometric entities at asserted c
onnectivities');
#1146=(
GEOMETRIC_REPRESENTATION_CONTEXT(3)
GLOBAL_UNCERTAINTY_ASSIGNED_CONTEXT((#1144))
GLOBAL_UNIT_ASSIGNED_CONTEXT((#1148,#1150,#1151))
REPRESENTATION_CONTEXT('','3D')
);
#1147=(
GEOMETRIC_REPRESENTATION_CONTEXT(3)
GLOBAL_UNCERTAINTY_ASSIGNED_CONTEXT((#1145))
GLOBAL_UNIT_ASSIGNED_CONTEXT((#1148,#1150,#1151))
REPRESENTATION_CONTEXT('','3D')
);
#1148=(
LENGTH_UNIT()
NAMED_UNIT(*)
SI_UNIT(.MILLI.,.METRE.)
);
#1149=(
LENGTH_UNIT()
NAMED_UNIT(*)
SI_UNIT($,.METRE.)
);
#1150=(
NAMED_UNIT(*)
PLANE_ANGLE_UNIT()
SI_UNIT($,.RADIAN.)
);
#1151=(
NAMED_UNIT(*)
SI_UNIT($,.STERADIAN.)
SOLID_ANGLE_UNIT()
);
#1152=SHAPE_DEFINITION_REPRESENTATION(#1153,#1154);
#1153=PRODUCT_DEFINITION_SHAPE('',$,#1156);
#1154=SHAPE_REPRESENTATION('',(#718),#1146);
#1155=PRODUCT_DEFINITION_CONTEXT('part definition',#1160,'design');
#1156=PRODUCT_DEFINITION('(Unsaved)','(Unsaved)',#1157,#1155);
#1157=PRODUCT_DEFINITION_FORMATION('',$,#1162);
#1158=PRODUCT_RELATED_PRODUCT_CATEGORY('(Unsaved)','(Unsaved)',(#1162));
#1159=APPLICATION_PROTOCOL_DEFINITION('international standard',
'automotive_design',2009,#1160);
#1160=APPLICATION_CONTEXT(
'Core Data for Automotive Mechanical Design Process');
#1161=PRODUCT_CONTEXT('part definition',#1160,'mechanical');
#1162=PRODUCT('(Unsaved)','(Unsaved)',$,(#1161));
#1163=PRESENTATION_STYLE_ASSIGNMENT((#1164));
#1164=SURFACE_STYLE_USAGE(.BOTH.,#1165);
#1165=SURFACE_SIDE_STYLE('',(#1166));
#1166=SURFACE_STYLE_FILL_AREA(#1167);
#1167=FILL_AREA_STYLE('Steel - Satin',(#1168));
#1168=FILL_AREA_STYLE_COLOUR('Steel - Satin',#1169);
#1169=COLOUR_RGB('Steel - Satin',0.627450980392157,0.627450980392157,0.627450980392157);
ENDSEC;
END-ISO-10303-21;
