ISO-10303-21;
HEADER;
/* Generated by software containing ST-Developer
 * from STEP Tools, Inc. (www.steptools.com) 
 */

FILE_DESCRIPTION(
/* description */ (''),
/* implementation_level */ '2;1');

FILE_NAME(
/* name */ 'learn1.step',
/* time_stamp */ '2026-07-02T14:46:20+05:30',
/* author */ (''),
/* organization */ (''),
/* preprocessor_version */ 'ST-DEVELOPER v20.1',
/* originating_system */ 'Autodesk Translation Framework v15.8.0.0',
/* authorisation */ '');

FILE_SCHEMA (('AUTOMOTIVE_DESIGN { 1 0 10303 214 3 1 1 }'));
ENDSEC;

DATA;
#10=MECHANICAL_DESIGN_GEOMETRIC_PRESENTATION_REPRESENTATION('',(#17),#677);
#11=ITEM_DEFINED_TRANSFORMATION($,$,#397,#440);
#12=(
REPRESENTATION_RELATIONSHIP($,$,#688,#687)
REPRESENTATION_RELATIONSHIP_WITH_TRANSFORMATION(#11)
SHAPE_REPRESENTATION_RELATIONSHIP()
);
#13=CONTEXT_DEPENDENT_SHAPE_REPRESENTATION(#12,#686);
#14=NEXT_ASSEMBLY_USAGE_OCCURRENCE('part 1:1','part 1:1','part 1:1',#690,
#691,'part 1:1');
#15=SHAPE_REPRESENTATION_RELATIONSHIP('SRR','None',#688,#16);
#16=ADVANCED_BREP_SHAPE_REPRESENTATION('',(#18),#676);
#17=STYLED_ITEM('',(#701),#18);
#18=MANIFOLD_SOLID_BREP('Body1',#383);
#19=ELLIPSE('',#410,0.282842712474619,0.2);
#20=ELLIPSE('',#414,0.282842712474619,0.2);
#21=ELLIPSE('',#415,0.282842712474619,0.2);
#22=FACE_BOUND('',#134,.T.);
#23=FACE_BOUND('',#153,.T.);
#24=PLANE('',#407);
#25=PLANE('',#411);
#26=PLANE('',#412);
#27=PLANE('',#418);
#28=PLANE('',#419);
#29=PLANE('',#429);
#30=PLANE('',#430);
#31=PLANE('',#434);
#32=PLANE('',#435);
#33=PLANE('',#436);
#34=PLANE('',#437);
#35=PLANE('',#438);
#36=PLANE('',#439);
#37=LINE('',#578,#69);
#38=LINE('',#580,#70);
#39=LINE('',#584,#71);
#40=LINE('',#587,#72);
#41=LINE('',#590,#73);
#42=LINE('',#592,#74);
#43=LINE('',#594,#75);
#44=LINE('',#595,#76);
#45=LINE('',#600,#77);
#46=LINE('',#604,#78);
#47=LINE('',#605,#79);
#48=LINE('',#608,#80);
#49=LINE('',#610,#81);
#50=LINE('',#611,#82);
#51=LINE('',#616,#83);
#52=LINE('',#619,#84);
#53=LINE('',#621,#85);
#54=LINE('',#624,#86);
#55=LINE('',#625,#87);
#56=LINE('',#628,#88);
#57=LINE('',#629,#89);
#58=LINE('',#638,#90);
#59=LINE('',#651,#91);
#60=LINE('',#654,#92);
#61=LINE('',#656,#93);
#62=LINE('',#657,#94);
#63=LINE('',#660,#95);
#64=LINE('',#662,#96);
#65=LINE('',#663,#97);
#66=LINE('',#665,#98);
#67=LINE('',#666,#99);
#68=LINE('',#669,#100);
#69=VECTOR('',#459,10.);
#70=VECTOR('',#460,10.);
#71=VECTOR('',#463,10.);
#72=VECTOR('',#466,10.);
#73=VECTOR('',#469,10.);
#74=VECTOR('',#470,10.);
#75=VECTOR('',#471,10.);
#76=VECTOR('',#472,10.);
#77=VECTOR('',#477,10.);
#78=VECTOR('',#482,10.);
#79=VECTOR('',#483,10.);
#80=VECTOR('',#486,10.);
#81=VECTOR('',#487,10.);
#82=VECTOR('',#488,10.);
#83=VECTOR('',#493,10.);
#84=VECTOR('',#498,10.);
#85=VECTOR('',#501,10.);
#86=VECTOR('',#504,10.);
#87=VECTOR('',#505,10.);
#88=VECTOR('',#508,10.);
#89=VECTOR('',#509,10.);
#90=VECTOR('',#520,2.5);
#91=VECTOR('',#539,2.5);
#92=VECTOR('',#542,10.);
#93=VECTOR('',#543,10.);
#94=VECTOR('',#544,10.);
#95=VECTOR('',#547,10.);
#96=VECTOR('',#548,10.);
#97=VECTOR('',#549,10.);
#98=VECTOR('',#552,10.);
#99=VECTOR('',#553,10.);
#100=VECTOR('',#558,10.);
#101=CYLINDRICAL_SURFACE('',#403,9.5);
#102=CYLINDRICAL_SURFACE('',#409,0.2);
#103=CYLINDRICAL_SURFACE('',#413,0.2);
#104=CYLINDRICAL_SURFACE('',#416,0.2);
#105=CYLINDRICAL_SURFACE('',#417,0.2);
#106=CYLINDRICAL_SURFACE('',#423,2.5);
#107=CYLINDRICAL_SURFACE('',#432,1.1);
#108=FACE_OUTER_BOUND('',#131,.T.);
#109=FACE_OUTER_BOUND('',#132,.T.);
#110=FACE_OUTER_BOUND('',#133,.T.);
#111=FACE_OUTER_BOUND('',#135,.T.);
#112=FACE_OUTER_BOUND('',#136,.T.);
#113=FACE_OUTER_BOUND('',#137,.T.);
#114=FACE_OUTER_BOUND('',#138,.T.);
#115=FACE_OUTER_BOUND('',#139,.T.);
#116=FACE_OUTER_BOUND('',#140,.T.);
#117=FACE_OUTER_BOUND('',#141,.T.);
#118=FACE_OUTER_BOUND('',#142,.T.);
#119=FACE_OUTER_BOUND('',#143,.T.);
#120=FACE_OUTER_BOUND('',#144,.T.);
#121=FACE_OUTER_BOUND('',#145,.T.);
#122=FACE_OUTER_BOUND('',#146,.T.);
#123=FACE_OUTER_BOUND('',#147,.T.);
#124=FACE_OUTER_BOUND('',#148,.T.);
#125=FACE_OUTER_BOUND('',#149,.T.);
#126=FACE_OUTER_BOUND('',#150,.T.);
#127=FACE_OUTER_BOUND('',#151,.T.);
#128=FACE_OUTER_BOUND('',#152,.T.);
#129=FACE_OUTER_BOUND('',#154,.T.);
#130=FACE_OUTER_BOUND('',#155,.T.);
#131=EDGE_LOOP('',(#255,#256,#257,#258));
#132=EDGE_LOOP('',(#259,#260,#261,#262,#263,#264,#265,#266));
#133=EDGE_LOOP('',(#267,#268,#269,#270,#271));
#134=EDGE_LOOP('',(#272));
#135=EDGE_LOOP('',(#273,#274,#275,#276));
#136=EDGE_LOOP('',(#277,#278,#279,#280));
#137=EDGE_LOOP('',(#281,#282,#283,#284));
#138=EDGE_LOOP('',(#285,#286,#287,#288));
#139=EDGE_LOOP('',(#289,#290,#291,#292));
#140=EDGE_LOOP('',(#293,#294,#295,#296));
#141=EDGE_LOOP('',(#297,#298,#299,#300));
#142=EDGE_LOOP('',(#301,#302,#303,#304));
#143=EDGE_LOOP('',(#305,#306,#307,#308));
#144=EDGE_LOOP('',(#309,#310,#311,#312,#313));
#145=EDGE_LOOP('',(#314,#315,#316,#317,#318));
#146=EDGE_LOOP('',(#319));
#147=EDGE_LOOP('',(#320));
#148=EDGE_LOOP('',(#321,#322,#323,#324));
#149=EDGE_LOOP('',(#325,#326,#327,#328));
#150=EDGE_LOOP('',(#329,#330,#331,#332));
#151=EDGE_LOOP('',(#333,#334,#335,#336));
#152=EDGE_LOOP('',(#337,#338,#339,#340,#341));
#153=EDGE_LOOP('',(#342));
#154=EDGE_LOOP('',(#343,#344,#345,#346));
#155=EDGE_LOOP('',(#347,#348,#349,#350,#351,#352,#353,#354,#355,#356));
#156=CIRCLE('',#399,0.200000000000001);
#157=CIRCLE('',#400,9.3);
#158=CIRCLE('',#401,0.2);
#159=CIRCLE('',#402,9.5);
#160=CIRCLE('',#404,9.5);
#161=CIRCLE('',#405,9.5);
#162=CIRCLE('',#406,9.5);
#163=CIRCLE('',#408,2.7);
#164=CIRCLE('',#421,2.5);
#165=CIRCLE('',#422,0.2);
#166=CIRCLE('',#424,2.5);
#167=CIRCLE('',#425,2.5);
#168=CIRCLE('',#427,2.3);
#169=CIRCLE('',#428,0.2);
#170=CIRCLE('',#431,1.1);
#171=CIRCLE('',#433,1.1);
#172=VERTEX_POINT('',#566);
#173=VERTEX_POINT('',#567);
#174=VERTEX_POINT('',#569);
#175=VERTEX_POINT('',#571);
#176=VERTEX_POINT('',#575);
#177=VERTEX_POINT('',#576);
#178=VERTEX_POINT('',#579);
#179=VERTEX_POINT('',#581);
#180=VERTEX_POINT('',#583);
#181=VERTEX_POINT('',#585);
#182=VERTEX_POINT('',#589);
#183=VERTEX_POINT('',#591);
#184=VERTEX_POINT('',#593);
#185=VERTEX_POINT('',#596);
#186=VERTEX_POINT('',#599);
#187=VERTEX_POINT('',#603);
#188=VERTEX_POINT('',#607);
#189=VERTEX_POINT('',#609);
#190=VERTEX_POINT('',#613);
#191=VERTEX_POINT('',#615);
#192=VERTEX_POINT('',#623);
#193=VERTEX_POINT('',#627);
#194=VERTEX_POINT('',#631);
#195=VERTEX_POINT('',#635);
#196=VERTEX_POINT('',#636);
#197=VERTEX_POINT('',#641);
#198=VERTEX_POINT('',#646);
#199=VERTEX_POINT('',#649);
#200=VERTEX_POINT('',#653);
#201=VERTEX_POINT('',#655);
#202=VERTEX_POINT('',#659);
#203=VERTEX_POINT('',#661);
#204=EDGE_CURVE('',#172,#173,#156,.T.);
#205=EDGE_CURVE('',#173,#174,#157,.T.);
#206=EDGE_CURVE('',#174,#175,#158,.T.);
#207=EDGE_CURVE('',#175,#172,#159,.T.);
#208=EDGE_CURVE('',#176,#177,#160,.T.);
#209=EDGE_CURVE('',#177,#172,#37,.T.);
#210=EDGE_CURVE('',#175,#178,#38,.T.);
#211=EDGE_CURVE('',#178,#179,#161,.T.);
#212=EDGE_CURVE('',#179,#180,#39,.T.);
#213=EDGE_CURVE('',#180,#181,#162,.T.);
#214=EDGE_CURVE('',#181,#176,#40,.T.);
#215=EDGE_CURVE('',#182,#173,#41,.T.);
#216=EDGE_CURVE('',#183,#182,#42,.T.);
#217=EDGE_CURVE('',#184,#183,#43,.T.);
#218=EDGE_CURVE('',#174,#184,#44,.T.);
#219=EDGE_CURVE('',#185,#185,#163,.T.);
#220=EDGE_CURVE('',#172,#186,#45,.T.);
#221=EDGE_CURVE('',#182,#186,#19,.T.);
#222=EDGE_CURVE('',#177,#187,#46,.T.);
#223=EDGE_CURVE('',#187,#186,#47,.T.);
#224=EDGE_CURVE('',#181,#188,#48,.F.);
#225=EDGE_CURVE('',#189,#188,#49,.F.);
#226=EDGE_CURVE('',#176,#189,#50,.T.);
#227=EDGE_CURVE('',#183,#190,#20,.T.);
#228=EDGE_CURVE('',#190,#191,#51,.T.);
#229=EDGE_CURVE('',#184,#191,#21,.T.);
#230=EDGE_CURVE('',#186,#190,#52,.T.);
#231=EDGE_CURVE('',#191,#175,#53,.T.);
#232=EDGE_CURVE('',#192,#191,#54,.T.);
#233=EDGE_CURVE('',#192,#178,#55,.T.);
#234=EDGE_CURVE('',#193,#190,#56,.T.);
#235=EDGE_CURVE('',#193,#192,#57,.T.);
#236=EDGE_CURVE('',#194,#194,#164,.T.);
#237=EDGE_CURVE('',#194,#185,#165,.T.);
#238=EDGE_CURVE('',#195,#196,#166,.T.);
#239=EDGE_CURVE('',#195,#194,#58,.T.);
#240=EDGE_CURVE('',#196,#195,#167,.T.);
#241=EDGE_CURVE('',#197,#197,#168,.T.);
#242=EDGE_CURVE('',#197,#196,#169,.T.);
#243=EDGE_CURVE('',#198,#198,#170,.T.);
#244=EDGE_CURVE('',#199,#199,#171,.T.);
#245=EDGE_CURVE('',#199,#198,#59,.T.);
#246=EDGE_CURVE('',#200,#179,#60,.T.);
#247=EDGE_CURVE('',#200,#201,#61,.F.);
#248=EDGE_CURVE('',#201,#180,#62,.F.);
#249=EDGE_CURVE('',#202,#200,#63,.T.);
#250=EDGE_CURVE('',#202,#203,#64,.F.);
#251=EDGE_CURVE('',#203,#201,#65,.F.);
#252=EDGE_CURVE('',#189,#202,#66,.T.);
#253=EDGE_CURVE('',#188,#203,#67,.F.);
#254=EDGE_CURVE('',#187,#193,#68,.T.);
#255=ORIENTED_EDGE('',*,*,#204,.T.);
#256=ORIENTED_EDGE('',*,*,#205,.T.);
#257=ORIENTED_EDGE('',*,*,#206,.T.);
#258=ORIENTED_EDGE('',*,*,#207,.T.);
#259=ORIENTED_EDGE('',*,*,#208,.T.);
#260=ORIENTED_EDGE('',*,*,#209,.T.);
#261=ORIENTED_EDGE('',*,*,#207,.F.);
#262=ORIENTED_EDGE('',*,*,#210,.T.);
#263=ORIENTED_EDGE('',*,*,#211,.T.);
#264=ORIENTED_EDGE('',*,*,#212,.T.);
#265=ORIENTED_EDGE('',*,*,#213,.T.);
#266=ORIENTED_EDGE('',*,*,#214,.T.);
#267=ORIENTED_EDGE('',*,*,#205,.F.);
#268=ORIENTED_EDGE('',*,*,#215,.F.);
#269=ORIENTED_EDGE('',*,*,#216,.F.);
#270=ORIENTED_EDGE('',*,*,#217,.F.);
#271=ORIENTED_EDGE('',*,*,#218,.F.);
#272=ORIENTED_EDGE('',*,*,#219,.F.);
#273=ORIENTED_EDGE('',*,*,#204,.F.);
#274=ORIENTED_EDGE('',*,*,#220,.T.);
#275=ORIENTED_EDGE('',*,*,#221,.F.);
#276=ORIENTED_EDGE('',*,*,#215,.T.);
#277=ORIENTED_EDGE('',*,*,#209,.F.);
#278=ORIENTED_EDGE('',*,*,#222,.T.);
#279=ORIENTED_EDGE('',*,*,#223,.T.);
#280=ORIENTED_EDGE('',*,*,#220,.F.);
#281=ORIENTED_EDGE('',*,*,#214,.F.);
#282=ORIENTED_EDGE('',*,*,#224,.T.);
#283=ORIENTED_EDGE('',*,*,#225,.F.);
#284=ORIENTED_EDGE('',*,*,#226,.F.);
#285=ORIENTED_EDGE('',*,*,#217,.T.);
#286=ORIENTED_EDGE('',*,*,#227,.T.);
#287=ORIENTED_EDGE('',*,*,#228,.T.);
#288=ORIENTED_EDGE('',*,*,#229,.F.);
#289=ORIENTED_EDGE('',*,*,#216,.T.);
#290=ORIENTED_EDGE('',*,*,#221,.T.);
#291=ORIENTED_EDGE('',*,*,#230,.T.);
#292=ORIENTED_EDGE('',*,*,#227,.F.);
#293=ORIENTED_EDGE('',*,*,#206,.F.);
#294=ORIENTED_EDGE('',*,*,#218,.T.);
#295=ORIENTED_EDGE('',*,*,#229,.T.);
#296=ORIENTED_EDGE('',*,*,#231,.T.);
#297=ORIENTED_EDGE('',*,*,#210,.F.);
#298=ORIENTED_EDGE('',*,*,#231,.F.);
#299=ORIENTED_EDGE('',*,*,#232,.F.);
#300=ORIENTED_EDGE('',*,*,#233,.T.);
#301=ORIENTED_EDGE('',*,*,#228,.F.);
#302=ORIENTED_EDGE('',*,*,#234,.F.);
#303=ORIENTED_EDGE('',*,*,#235,.T.);
#304=ORIENTED_EDGE('',*,*,#232,.T.);
#305=ORIENTED_EDGE('',*,*,#236,.T.);
#306=ORIENTED_EDGE('',*,*,#237,.T.);
#307=ORIENTED_EDGE('',*,*,#219,.T.);
#308=ORIENTED_EDGE('',*,*,#237,.F.);
#309=ORIENTED_EDGE('',*,*,#238,.F.);
#310=ORIENTED_EDGE('',*,*,#239,.T.);
#311=ORIENTED_EDGE('',*,*,#236,.F.);
#312=ORIENTED_EDGE('',*,*,#239,.F.);
#313=ORIENTED_EDGE('',*,*,#240,.F.);
#314=ORIENTED_EDGE('',*,*,#241,.T.);
#315=ORIENTED_EDGE('',*,*,#242,.T.);
#316=ORIENTED_EDGE('',*,*,#240,.T.);
#317=ORIENTED_EDGE('',*,*,#238,.T.);
#318=ORIENTED_EDGE('',*,*,#242,.F.);
#319=ORIENTED_EDGE('',*,*,#241,.F.);
#320=ORIENTED_EDGE('',*,*,#243,.F.);
#321=ORIENTED_EDGE('',*,*,#244,.T.);
#322=ORIENTED_EDGE('',*,*,#245,.T.);
#323=ORIENTED_EDGE('',*,*,#243,.T.);
#324=ORIENTED_EDGE('',*,*,#245,.F.);
#325=ORIENTED_EDGE('',*,*,#212,.F.);
#326=ORIENTED_EDGE('',*,*,#246,.F.);
#327=ORIENTED_EDGE('',*,*,#247,.T.);
#328=ORIENTED_EDGE('',*,*,#248,.T.);
#329=ORIENTED_EDGE('',*,*,#249,.F.);
#330=ORIENTED_EDGE('',*,*,#250,.T.);
#331=ORIENTED_EDGE('',*,*,#251,.T.);
#332=ORIENTED_EDGE('',*,*,#247,.F.);
#333=ORIENTED_EDGE('',*,*,#252,.F.);
#334=ORIENTED_EDGE('',*,*,#225,.T.);
#335=ORIENTED_EDGE('',*,*,#253,.T.);
#336=ORIENTED_EDGE('',*,*,#250,.F.);
#337=ORIENTED_EDGE('',*,*,#213,.F.);
#338=ORIENTED_EDGE('',*,*,#248,.F.);
#339=ORIENTED_EDGE('',*,*,#251,.F.);
#340=ORIENTED_EDGE('',*,*,#253,.F.);
#341=ORIENTED_EDGE('',*,*,#224,.F.);
#342=ORIENTED_EDGE('',*,*,#244,.F.);
#343=ORIENTED_EDGE('',*,*,#230,.F.);
#344=ORIENTED_EDGE('',*,*,#223,.F.);
#345=ORIENTED_EDGE('',*,*,#254,.T.);
#346=ORIENTED_EDGE('',*,*,#234,.T.);
#347=ORIENTED_EDGE('',*,*,#211,.F.);
#348=ORIENTED_EDGE('',*,*,#233,.F.);
#349=ORIENTED_EDGE('',*,*,#235,.F.);
#350=ORIENTED_EDGE('',*,*,#254,.F.);
#351=ORIENTED_EDGE('',*,*,#222,.F.);
#352=ORIENTED_EDGE('',*,*,#208,.F.);
#353=ORIENTED_EDGE('',*,*,#226,.T.);
#354=ORIENTED_EDGE('',*,*,#252,.T.);
#355=ORIENTED_EDGE('',*,*,#249,.T.);
#356=ORIENTED_EDGE('',*,*,#246,.T.);
#357=TOROIDAL_SURFACE('',#398,9.3,0.2);
#358=TOROIDAL_SURFACE('',#420,2.7,0.2);
#359=TOROIDAL_SURFACE('',#426,2.3,0.2);
#360=ADVANCED_FACE('',(#108),#357,.T.);
#361=ADVANCED_FACE('',(#109),#101,.T.);
#362=ADVANCED_FACE('',(#110,#22),#24,.T.);
#363=ADVANCED_FACE('',(#111),#102,.T.);
#364=ADVANCED_FACE('',(#112),#25,.T.);
#365=ADVANCED_FACE('',(#113),#26,.F.);
#366=ADVANCED_FACE('',(#114),#103,.T.);
#367=ADVANCED_FACE('',(#115),#104,.T.);
#368=ADVANCED_FACE('',(#116),#105,.T.);
#369=ADVANCED_FACE('',(#117),#27,.T.);
#370=ADVANCED_FACE('',(#118),#28,.T.);
#371=ADVANCED_FACE('',(#119),#358,.F.);
#372=ADVANCED_FACE('',(#120),#106,.T.);
#373=ADVANCED_FACE('',(#121),#359,.T.);
#374=ADVANCED_FACE('',(#122),#29,.T.);
#375=ADVANCED_FACE('',(#123),#30,.F.);
#376=ADVANCED_FACE('',(#124),#107,.F.);
#377=ADVANCED_FACE('',(#125),#31,.F.);
#378=ADVANCED_FACE('',(#126),#32,.F.);
#379=ADVANCED_FACE('',(#127),#33,.F.);
#380=ADVANCED_FACE('',(#128,#23),#34,.F.);
#381=ADVANCED_FACE('',(#129),#35,.T.);
#382=ADVANCED_FACE('',(#130),#36,.F.);
#383=CLOSED_SHELL('',(#360,#361,#362,#363,#364,#365,#366,#367,#368,#369,
#370,#371,#372,#373,#374,#375,#376,#377,#378,#379,#380,#381,#382));
#384=DERIVED_UNIT_ELEMENT(#386,1.);
#385=DERIVED_UNIT_ELEMENT(#679,-3.);
#386=(
MASS_UNIT()
NAMED_UNIT(*)
SI_UNIT(.KILO.,.GRAM.)
);
#387=DERIVED_UNIT((#384,#385));
#388=MEASURE_REPRESENTATION_ITEM('density measure',
POSITIVE_RATIO_MEASURE(7850.),#387);
#389=PROPERTY_DEFINITION_REPRESENTATION(#394,#391);
#390=PROPERTY_DEFINITION_REPRESENTATION(#395,#392);
#391=REPRESENTATION('material name',(#393),#676);
#392=REPRESENTATION('density',(#388),#676);
#393=DESCRIPTIVE_REPRESENTATION_ITEM('Steel','Steel');
#394=PROPERTY_DEFINITION('material property','material name',#691);
#395=PROPERTY_DEFINITION('material property','density of part',#691);
#396=AXIS2_PLACEMENT_3D('',#563,#441,#442);
#397=AXIS2_PLACEMENT_3D('',#564,#443,#444);
#398=AXIS2_PLACEMENT_3D('',#565,#445,#446);
#399=AXIS2_PLACEMENT_3D('',#568,#447,#448);
#400=AXIS2_PLACEMENT_3D('',#570,#449,#450);
#401=AXIS2_PLACEMENT_3D('',#572,#451,#452);
#402=AXIS2_PLACEMENT_3D('',#573,#453,#454);
#403=AXIS2_PLACEMENT_3D('',#574,#455,#456);
#404=AXIS2_PLACEMENT_3D('',#577,#457,#458);
#405=AXIS2_PLACEMENT_3D('',#582,#461,#462);
#406=AXIS2_PLACEMENT_3D('',#586,#464,#465);
#407=AXIS2_PLACEMENT_3D('',#588,#467,#468);
#408=AXIS2_PLACEMENT_3D('',#597,#473,#474);
#409=AXIS2_PLACEMENT_3D('',#598,#475,#476);
#410=AXIS2_PLACEMENT_3D('',#601,#478,#479);
#411=AXIS2_PLACEMENT_3D('',#602,#480,#481);
#412=AXIS2_PLACEMENT_3D('',#606,#484,#485);
#413=AXIS2_PLACEMENT_3D('',#612,#489,#490);
#414=AXIS2_PLACEMENT_3D('',#614,#491,#492);
#415=AXIS2_PLACEMENT_3D('',#617,#494,#495);
#416=AXIS2_PLACEMENT_3D('',#618,#496,#497);
#417=AXIS2_PLACEMENT_3D('',#620,#499,#500);
#418=AXIS2_PLACEMENT_3D('',#622,#502,#503);
#419=AXIS2_PLACEMENT_3D('',#626,#506,#507);
#420=AXIS2_PLACEMENT_3D('',#630,#510,#511);
#421=AXIS2_PLACEMENT_3D('',#632,#512,#513);
#422=AXIS2_PLACEMENT_3D('',#633,#514,#515);
#423=AXIS2_PLACEMENT_3D('',#634,#516,#517);
#424=AXIS2_PLACEMENT_3D('',#637,#518,#519);
#425=AXIS2_PLACEMENT_3D('',#639,#521,#522);
#426=AXIS2_PLACEMENT_3D('',#640,#523,#524);
#427=AXIS2_PLACEMENT_3D('',#642,#525,#526);
#428=AXIS2_PLACEMENT_3D('',#643,#527,#528);
#429=AXIS2_PLACEMENT_3D('',#644,#529,#530);
#430=AXIS2_PLACEMENT_3D('',#645,#531,#532);
#431=AXIS2_PLACEMENT_3D('',#647,#533,#534);
#432=AXIS2_PLACEMENT_3D('',#648,#535,#536);
#433=AXIS2_PLACEMENT_3D('',#650,#537,#538);
#434=AXIS2_PLACEMENT_3D('',#652,#540,#541);
#435=AXIS2_PLACEMENT_3D('',#658,#545,#546);
#436=AXIS2_PLACEMENT_3D('',#664,#550,#551);
#437=AXIS2_PLACEMENT_3D('',#667,#554,#555);
#438=AXIS2_PLACEMENT_3D('',#668,#556,#557);
#439=AXIS2_PLACEMENT_3D('',#670,#559,#560);
#440=AXIS2_PLACEMENT_3D('',#671,#561,#562);
#441=DIRECTION('axis',(0.,0.,1.));
#442=DIRECTION('refdir',(1.,0.,0.));
#443=DIRECTION('axis',(0.,0.,1.));
#444=DIRECTION('refdir',(1.,0.,0.));
#445=DIRECTION('center_axis',(0.,0.,1.));
#446=DIRECTION('ref_axis',(1.,0.,0.));
#447=DIRECTION('center_axis',(-5.55111512312576E-15,1.,5.55111512312577E-15));
#448=DIRECTION('ref_axis',(-1.,-5.55111512312576E-15,0.));
#449=DIRECTION('center_axis',(0.,0.,-1.));
#450=DIRECTION('ref_axis',(-0.707106781186548,0.707106781186548,0.));
#451=DIRECTION('center_axis',(-1.,0.,5.55111512312578E-15));
#452=DIRECTION('ref_axis',(5.55111512312578E-15,1.11022302462516E-14,1.));
#453=DIRECTION('center_axis',(0.,0.,1.));
#454=DIRECTION('ref_axis',(-0.707106781186548,0.707106781186548,0.));
#455=DIRECTION('center_axis',(0.,0.,1.));
#456=DIRECTION('ref_axis',(-0.707106781186548,0.707106781186548,0.));
#457=DIRECTION('center_axis',(0.,0.,1.));
#458=DIRECTION('ref_axis',(-0.707106781186548,0.707106781186548,0.));
#459=DIRECTION('',(0.,0.,1.));
#460=DIRECTION('',(0.,0.,-1.));
#461=DIRECTION('center_axis',(0.,0.,1.));
#462=DIRECTION('ref_axis',(-0.707106781186548,0.707106781186548,0.));
#463=DIRECTION('',(0.,0.,1.));
#464=DIRECTION('center_axis',(0.,0.,1.));
#465=DIRECTION('ref_axis',(-0.707106781186548,0.707106781186548,0.));
#466=DIRECTION('',(0.,0.,-1.));
#467=DIRECTION('center_axis',(0.,0.,1.));
#468=DIRECTION('ref_axis',(1.,0.,0.));
#469=DIRECTION('',(0.,1.,0.));
#470=DIRECTION('',(-1.,0.,0.));
#471=DIRECTION('',(0.,-1.,0.));
#472=DIRECTION('',(1.,0.,0.));
#473=DIRECTION('center_axis',(0.,0.,1.));
#474=DIRECTION('ref_axis',(-1.,0.,0.));
#475=DIRECTION('center_axis',(0.,-1.,0.));
#476=DIRECTION('ref_axis',(-0.707106781186548,0.,0.707106781186548));
#477=DIRECTION('',(0.,-1.,0.));
#478=DIRECTION('center_axis',(0.707106781186548,-0.707106781186548,0.));
#479=DIRECTION('ref_axis',(-0.707106781186547,-0.707106781186547,0.));
#480=DIRECTION('center_axis',(-1.,0.,0.));
#481=DIRECTION('ref_axis',(0.,-1.,0.));
#482=DIRECTION('',(0.,-1.,0.));
#483=DIRECTION('',(0.,0.,1.));
#484=DIRECTION('center_axis',(-1.,0.,0.));
#485=DIRECTION('ref_axis',(0.,-1.,0.));
#486=DIRECTION('',(0.,1.,0.));
#487=DIRECTION('',(0.,0.,-1.));
#488=DIRECTION('',(0.,-1.,0.));
#489=DIRECTION('center_axis',(0.,1.,0.));
#490=DIRECTION('ref_axis',(0.707106781186548,0.,0.707106781186548));
#491=DIRECTION('center_axis',(0.707106781186548,0.707106781186548,0.));
#492=DIRECTION('ref_axis',(0.707106781186547,-0.707106781186547,0.));
#493=DIRECTION('',(0.,1.,0.));
#494=DIRECTION('center_axis',(-0.707106781186548,0.707106781186548,0.));
#495=DIRECTION('ref_axis',(0.707106781186547,0.707106781186547,0.));
#496=DIRECTION('center_axis',(1.,0.,0.));
#497=DIRECTION('ref_axis',(0.,-0.707106781186548,0.707106781186548));
#498=DIRECTION('',(1.,0.,0.));
#499=DIRECTION('center_axis',(-1.,0.,0.));
#500=DIRECTION('ref_axis',(0.,0.707106781186548,0.707106781186548));
#501=DIRECTION('',(-1.,0.,0.));
#502=DIRECTION('center_axis',(0.,1.,0.));
#503=DIRECTION('ref_axis',(-1.,0.,0.));
#504=DIRECTION('',(0.,0.,1.));
#505=DIRECTION('',(-1.,0.,0.));
#506=DIRECTION('center_axis',(1.,0.,0.));
#507=DIRECTION('ref_axis',(0.,1.,0.));
#508=DIRECTION('',(0.,0.,1.));
#509=DIRECTION('',(0.,1.,0.));
#510=DIRECTION('center_axis',(0.,0.,-1.));
#511=DIRECTION('ref_axis',(-1.,0.,0.));
#512=DIRECTION('center_axis',(0.,0.,-1.));
#513=DIRECTION('ref_axis',(-1.,0.,0.));
#514=DIRECTION('center_axis',(0.,-1.,0.));
#515=DIRECTION('ref_axis',(1.,0.,0.));
#516=DIRECTION('center_axis',(0.,0.,1.));
#517=DIRECTION('ref_axis',(-1.,0.,0.));
#518=DIRECTION('center_axis',(0.,0.,1.));
#519=DIRECTION('ref_axis',(-1.,0.,0.));
#520=DIRECTION('',(0.,0.,-1.));
#521=DIRECTION('center_axis',(0.,0.,1.));
#522=DIRECTION('ref_axis',(-1.,0.,0.));
#523=DIRECTION('center_axis',(0.,0.,1.));
#524=DIRECTION('ref_axis',(1.,0.,0.));
#525=DIRECTION('center_axis',(0.,0.,-1.));
#526=DIRECTION('ref_axis',(-1.,0.,0.));
#527=DIRECTION('center_axis',(0.,-1.,0.));
#528=DIRECTION('ref_axis',(-1.,0.,0.));
#529=DIRECTION('center_axis',(0.,0.,1.));
#530=DIRECTION('ref_axis',(-1.,0.,0.));
#531=DIRECTION('center_axis',(0.,0.,1.));
#532=DIRECTION('ref_axis',(-1.,0.,0.));
#533=DIRECTION('center_axis',(0.,0.,1.));
#534=DIRECTION('ref_axis',(-1.,0.,0.));
#535=DIRECTION('center_axis',(0.,0.,1.));
#536=DIRECTION('ref_axis',(-1.,0.,0.));
#537=DIRECTION('center_axis',(0.,0.,-1.));
#538=DIRECTION('ref_axis',(-1.,0.,0.));
#539=DIRECTION('',(0.,0.,1.));
#540=DIRECTION('center_axis',(0.,1.,0.));
#541=DIRECTION('ref_axis',(-1.,0.,0.));
#542=DIRECTION('',(-1.,0.,0.));
#543=DIRECTION('',(0.,0.,-1.));
#544=DIRECTION('',(1.,0.,0.));
#545=DIRECTION('center_axis',(1.,0.,0.));
#546=DIRECTION('ref_axis',(0.,1.,0.));
#547=DIRECTION('',(0.,1.,0.));
#548=DIRECTION('',(0.,0.,-1.));
#549=DIRECTION('',(0.,-1.,0.));
#550=DIRECTION('center_axis',(0.,-1.,0.));
#551=DIRECTION('ref_axis',(1.,0.,0.));
#552=DIRECTION('',(1.,0.,0.));
#553=DIRECTION('',(-1.,0.,0.));
#554=DIRECTION('center_axis',(0.,0.,1.));
#555=DIRECTION('ref_axis',(1.,0.,0.));
#556=DIRECTION('center_axis',(0.,-1.,0.));
#557=DIRECTION('ref_axis',(1.,0.,0.));
#558=DIRECTION('',(1.,0.,0.));
#559=DIRECTION('center_axis',(0.,0.,1.));
#560=DIRECTION('ref_axis',(1.,0.,0.));
#561=DIRECTION('',(0.,0.,1.));
#562=DIRECTION('',(1.,0.,0.));
#563=CARTESIAN_POINT('',(0.,0.,0.));
#564=CARTESIAN_POINT('',(0.,0.,0.));
#565=CARTESIAN_POINT('Origin',(9.5,5.50000022351742,14.8));
#566=CARTESIAN_POINT('',(-5.55111512312578E-16,5.50000022351742,14.8));
#567=CARTESIAN_POINT('',(0.2,5.50000022351742,15.));
#568=CARTESIAN_POINT('Origin',(0.2,5.50000022351742,14.8));
#569=CARTESIAN_POINT('',(9.5,14.8000002235174,15.));
#570=CARTESIAN_POINT('Origin',(9.5,5.50000022351742,15.));
#571=CARTESIAN_POINT('',(9.5,15.0000002235174,14.8));
#572=CARTESIAN_POINT('Origin',(9.5,14.8000002235174,14.8));
#573=CARTESIAN_POINT('Origin',(9.5,5.50000022351742,14.8));
#574=CARTESIAN_POINT('Origin',(9.5,5.50000022351742,0.));
#575=CARTESIAN_POINT('',(1.4,10.4638696819138,0.));
#576=CARTESIAN_POINT('',(0.,5.50000022351742,0.));
#577=CARTESIAN_POINT('Origin',(9.5,5.50000022351742,0.));
#578=CARTESIAN_POINT('',(0.,5.50000022351742,0.));
#579=CARTESIAN_POINT('',(9.5,15.0000002235174,0.));
#580=CARTESIAN_POINT('',(9.5,15.0000002235174,0.));
#581=CARTESIAN_POINT('',(4.53613054160367,13.6000002235174,0.));
#582=CARTESIAN_POINT('Origin',(9.5,5.50000022351742,0.));
#583=CARTESIAN_POINT('',(4.53613054160367,13.6000002235174,13.6));
#584=CARTESIAN_POINT('',(4.53613054160366,13.6000002235174,0.));
#585=CARTESIAN_POINT('',(1.4,10.4638696819138,13.6));
#586=CARTESIAN_POINT('Origin',(9.5,5.50000022351742,13.6));
#587=CARTESIAN_POINT('',(1.4,10.4638696819138,0.));
#588=CARTESIAN_POINT('Origin',(7.50000011175871,7.50000011175871,15.));
#589=CARTESIAN_POINT('',(0.2,0.2,15.));
#590=CARTESIAN_POINT('',(0.2,11.2500001676381,15.));
#591=CARTESIAN_POINT('',(14.8000002235174,0.2,15.));
#592=CARTESIAN_POINT('',(3.75000005587935,0.2,15.));
#593=CARTESIAN_POINT('',(14.8000002235174,14.8000002235174,15.));
#594=CARTESIAN_POINT('',(14.8000002235174,3.75000005587935,15.));
#595=CARTESIAN_POINT('',(11.2500001676381,14.8000002235174,15.));
#596=CARTESIAN_POINT('',(10.1740770222149,7.54392820933841,15.));
#597=CARTESIAN_POINT('Origin',(7.4740770222149,7.54392820933841,15.));
#598=CARTESIAN_POINT('Origin',(0.2,11.2500001676381,14.8));
#599=CARTESIAN_POINT('',(0.,0.,14.8));
#600=CARTESIAN_POINT('',(0.,11.2500001676381,14.8));
#601=CARTESIAN_POINT('Origin',(0.2,0.2,14.8));
#602=CARTESIAN_POINT('Origin',(0.,15.0000002235174,0.));
#603=CARTESIAN_POINT('',(0.,0.,0.));
#604=CARTESIAN_POINT('',(0.,15.0000002235174,0.));
#605=CARTESIAN_POINT('',(0.,0.,0.));
#606=CARTESIAN_POINT('Origin',(1.4,15.0000002235174,0.));
#607=CARTESIAN_POINT('',(1.4,1.4,13.6));
#608=CARTESIAN_POINT('',(1.4,11.2500001676381,13.6));
#609=CARTESIAN_POINT('',(1.4,1.4,0.));
#610=CARTESIAN_POINT('',(1.4,1.4,0.));
#611=CARTESIAN_POINT('',(1.4,11.2500001676381,0.));
#612=CARTESIAN_POINT('Origin',(14.8000002235174,3.75000005587935,14.8));
#613=CARTESIAN_POINT('',(15.0000002235174,0.,14.8));
#614=CARTESIAN_POINT('Origin',(14.8000002235174,0.2,14.8));
#615=CARTESIAN_POINT('',(15.0000002235174,15.0000002235174,14.8));
#616=CARTESIAN_POINT('',(15.0000002235174,3.75000005587935,14.8));
#617=CARTESIAN_POINT('Origin',(14.8000002235174,14.8000002235174,14.8));
#618=CARTESIAN_POINT('Origin',(3.75000005587935,0.2,14.8));
#619=CARTESIAN_POINT('',(3.75000005587935,0.,14.8));
#620=CARTESIAN_POINT('Origin',(11.2500001676381,14.8000002235174,14.8));
#621=CARTESIAN_POINT('',(11.2500001676381,15.0000002235174,14.8));
#622=CARTESIAN_POINT('Origin',(15.0000002235174,15.0000002235174,0.));
#623=CARTESIAN_POINT('',(15.0000002235174,15.0000002235174,0.));
#624=CARTESIAN_POINT('',(15.0000002235174,15.0000002235174,0.));
#625=CARTESIAN_POINT('',(15.0000002235174,15.0000002235174,0.));
#626=CARTESIAN_POINT('Origin',(15.0000002235174,0.,0.));
#627=CARTESIAN_POINT('',(15.0000002235174,0.,0.));
#628=CARTESIAN_POINT('',(15.0000002235174,0.,0.));
#629=CARTESIAN_POINT('',(15.0000002235174,0.,0.));
#630=CARTESIAN_POINT('Origin',(7.4740770222149,7.54392820933841,15.2));
#631=CARTESIAN_POINT('',(9.9740770222149,7.54392820933841,15.2));
#632=CARTESIAN_POINT('Origin',(7.4740770222149,7.54392820933841,15.2));
#633=CARTESIAN_POINT('Origin',(10.1740770222149,7.54392820933841,15.2));
#634=CARTESIAN_POINT('Origin',(7.4740770222149,7.54392820933841,15.));
#635=CARTESIAN_POINT('',(9.9740770222149,7.54392820933841,16.3));
#636=CARTESIAN_POINT('',(4.9740770222149,7.54392820933841,16.3));
#637=CARTESIAN_POINT('Origin',(7.4740770222149,7.54392820933841,16.3));
#638=CARTESIAN_POINT('',(9.9740770222149,7.54392820933841,15.));
#639=CARTESIAN_POINT('Origin',(7.4740770222149,7.54392820933841,16.3));
#640=CARTESIAN_POINT('Origin',(7.4740770222149,7.54392820933841,16.3));
#641=CARTESIAN_POINT('',(5.1740770222149,7.54392820933841,16.5));
#642=CARTESIAN_POINT('Origin',(7.4740770222149,7.54392820933841,16.5));
#643=CARTESIAN_POINT('Origin',(5.1740770222149,7.54392820933841,16.3));
#644=CARTESIAN_POINT('Origin',(7.4740770222149,7.54392820933841,16.5));
#645=CARTESIAN_POINT('Origin',(7.4740770222149,7.54392820933841,15.1));
#646=CARTESIAN_POINT('',(8.5740770222149,7.54392820933841,15.1));
#647=CARTESIAN_POINT('Origin',(7.4740770222149,7.54392820933841,15.1));
#648=CARTESIAN_POINT('Origin',(7.4740770222149,7.54392820933841,15.));
#649=CARTESIAN_POINT('',(8.5740770222149,7.54392820933841,13.6));
#650=CARTESIAN_POINT('Origin',(7.4740770222149,7.54392820933841,13.6));
#651=CARTESIAN_POINT('',(8.5740770222149,7.54392820933841,15.));
#652=CARTESIAN_POINT('Origin',(15.0000002235174,13.6000002235174,0.));
#653=CARTESIAN_POINT('',(13.6000002235174,13.6000002235174,0.));
#654=CARTESIAN_POINT('',(11.2500001676381,13.6000002235174,0.));
#655=CARTESIAN_POINT('',(13.6000002235174,13.6000002235174,13.6));
#656=CARTESIAN_POINT('',(13.6000002235174,13.6000002235174,0.));
#657=CARTESIAN_POINT('',(11.2500001676381,13.6000002235174,13.6));
#658=CARTESIAN_POINT('Origin',(13.6000002235174,0.,0.));
#659=CARTESIAN_POINT('',(13.6000002235174,1.4,0.));
#660=CARTESIAN_POINT('',(13.6000002235174,3.75000005587935,0.));
#661=CARTESIAN_POINT('',(13.6000002235174,1.4,13.6));
#662=CARTESIAN_POINT('',(13.6000002235174,1.4,0.));
#663=CARTESIAN_POINT('',(13.6000002235174,3.75000005587935,13.6));
#664=CARTESIAN_POINT('Origin',(0.,1.4,0.));
#665=CARTESIAN_POINT('',(3.75000005587935,1.4,0.));
#666=CARTESIAN_POINT('',(3.75000005587935,1.4,13.6));
#667=CARTESIAN_POINT('Origin',(7.50000011175871,7.50000011175871,13.6));
#668=CARTESIAN_POINT('Origin',(0.,0.,0.));
#669=CARTESIAN_POINT('',(0.,0.,0.));
#670=CARTESIAN_POINT('Origin',(7.50000011175871,7.50000011175871,0.));
#671=CARTESIAN_POINT('',(0.,0.,0.));
#672=UNCERTAINTY_MEASURE_WITH_UNIT(LENGTH_MEASURE(0.01),#678,
'DISTANCE_ACCURACY_VALUE',
'Maximum model space distance between geometric entities at asserted c
onnectivities');
#673=UNCERTAINTY_MEASURE_WITH_UNIT(LENGTH_MEASURE(0.01),#678,
'DISTANCE_ACCURACY_VALUE',
'Maximum model space distance between geometric entities at asserted c
onnectivities');
#674=UNCERTAINTY_MEASURE_WITH_UNIT(LENGTH_MEASURE(0.01),#678,
'DISTANCE_ACCURACY_VALUE',
'Maximum model space distance between geometric entities at asserted c
onnectivities');
#675=(
GEOMETRIC_REPRESENTATION_CONTEXT(3)
GLOBAL_UNCERTAINTY_ASSIGNED_CONTEXT((#672))
GLOBAL_UNIT_ASSIGNED_CONTEXT((#678,#680,#681))
REPRESENTATION_CONTEXT('','3D')
);
#676=(
GEOMETRIC_REPRESENTATION_CONTEXT(3)
GLOBAL_UNCERTAINTY_ASSIGNED_CONTEXT((#673))
GLOBAL_UNIT_ASSIGNED_CONTEXT((#678,#680,#681))
REPRESENTATION_CONTEXT('','3D')
);
#677=(
GEOMETRIC_REPRESENTATION_CONTEXT(3)
GLOBAL_UNCERTAINTY_ASSIGNED_CONTEXT((#674))
GLOBAL_UNIT_ASSIGNED_CONTEXT((#678,#680,#681))
REPRESENTATION_CONTEXT('','3D')
);
#678=(
LENGTH_UNIT()
NAMED_UNIT(*)
SI_UNIT(.MILLI.,.METRE.)
);
#679=(
LENGTH_UNIT()
NAMED_UNIT(*)
SI_UNIT($,.METRE.)
);
#680=(
NAMED_UNIT(*)
PLANE_ANGLE_UNIT()
SI_UNIT($,.RADIAN.)
);
#681=(
NAMED_UNIT(*)
SI_UNIT($,.STERADIAN.)
SOLID_ANGLE_UNIT()
);
#682=SHAPE_DEFINITION_REPRESENTATION(#684,#687);
#683=SHAPE_DEFINITION_REPRESENTATION(#685,#688);
#684=PRODUCT_DEFINITION_SHAPE('',$,#690);
#685=PRODUCT_DEFINITION_SHAPE('',$,#691);
#686=PRODUCT_DEFINITION_SHAPE($,$,#14);
#687=SHAPE_REPRESENTATION('',(#396,#440),#675);
#688=SHAPE_REPRESENTATION('',(#397),#676);
#689=PRODUCT_DEFINITION_CONTEXT('part definition',#697,'design');
#690=PRODUCT_DEFINITION('(Unsaved)','(Unsaved)',#692,#689);
#691=PRODUCT_DEFINITION('part 1','part 1',#693,#689);
#692=PRODUCT_DEFINITION_FORMATION('',$,#699);
#693=PRODUCT_DEFINITION_FORMATION('',$,#700);
#694=PRODUCT_RELATED_PRODUCT_CATEGORY('(Unsaved)','(Unsaved)',(#699));
#695=PRODUCT_RELATED_PRODUCT_CATEGORY('part 1','part 1',(#700));
#696=APPLICATION_PROTOCOL_DEFINITION('international standard',
'automotive_design',2009,#697);
#697=APPLICATION_CONTEXT(
'Core Data for Automotive Mechanical Design Process');
#698=PRODUCT_CONTEXT('part definition',#697,'mechanical');
#699=PRODUCT('(Unsaved)','(Unsaved)',$,(#698));
#700=PRODUCT('part 1','part 1',$,(#698));
#701=PRESENTATION_STYLE_ASSIGNMENT((#702));
#702=SURFACE_STYLE_USAGE(.BOTH.,#703);
#703=SURFACE_SIDE_STYLE('',(#704));
#704=SURFACE_STYLE_FILL_AREA(#705);
#705=FILL_AREA_STYLE('Steel - Satin',(#706));
#706=FILL_AREA_STYLE_COLOUR('Steel - Satin',#707);
#707=COLOUR_RGB('Steel - Satin',0.627450980392157,0.627450980392157,0.627450980392157);
ENDSEC;
END-ISO-10303-21;
