ISO-10303-21;
HEADER;
/* Generated by software containing ST-Developer
 * from STEP Tools, Inc. (www.steptools.com) 
 */

FILE_DESCRIPTION(
/* description */ (''),
/* implementation_level */ '2;1');

FILE_NAME(
/* name */ 'lung_intubate.step',
/* time_stamp */ '2026-07-02T14:46:01+05:30',
/* author */ (''),
/* organization */ (''),
/* preprocessor_version */ 'ST-DEVELOPER v20.1',
/* originating_system */ 'Autodesk Translation Framework v15.8.0.0',
/* authorisation */ '');

FILE_SCHEMA (('AUTOMOTIVE_DESIGN { 1 0 10303 214 3 1 1 }'));
ENDSEC;

DATA;
#10=MECHANICAL_DESIGN_GEOMETRIC_PRESENTATION_REPRESENTATION('',(#13),#619);
#11=SHAPE_REPRESENTATION_RELATIONSHIP('SRR','None',#626,#12);
#12=ADVANCED_BREP_SHAPE_REPRESENTATION('',(#14),#618);
#13=STYLED_ITEM('',(#635),#14);
#14=MANIFOLD_SOLID_BREP('Body1',#270);
#15=B_SPLINE_SURFACE_WITH_KNOTS('',3,3,((#465,#466,#467,#468,#469,#470),
(#471,#472,#473,#474,#475,#476),(#477,#478,#479,#480,#481,#482),(#483,#484,
#485,#486,#487,#488),(#489,#490,#491,#492,#493,#494)),.UNSPECIFIED.,.F.,
 .F.,.F.,(4,1,4),(4,2,4),(0.,0.5,1.),(-0.138763686843018,0.,0.000531496231651939),
 .UNSPECIFIED.);
#16=B_SPLINE_SURFACE_WITH_KNOTS('',3,3,((#501,#502,#503,#504,#505,#506,
#507,#508),(#509,#510,#511,#512,#513,#514,#515,#516),(#517,#518,#519,#520,
#521,#522,#523,#524),(#525,#526,#527,#528,#529,#530,#531,#532)),
 .UNSPECIFIED.,.F.,.F.,.F.,(4,4),(4,2,1,1,4),(0.,1.),(-0.472303455155803,
-0.471772063510456,-0.402390031794232,-0.388513625450988,-0.333008000078009),
 .UNSPECIFIED.);
#17=CONICAL_SURFACE('',#297,5.,0.174532925199433);
#18=CONICAL_SURFACE('',#312,7.,0.523598775598299);
#19=FACE_BOUND('',#70,.T.);
#20=FACE_BOUND('',#75,.T.);
#21=B_SPLINE_CURVE_WITH_KNOTS('',3,(#428,#429,#430,#431,#432,#433,#434,
#435),.UNSPECIFIED.,.F.,.F.,(4,1,1,2,4),(0.333008000078009,0.388513625450988,
0.402390031794232,0.471772063510456,0.472303455155803),.UNSPECIFIED.);
#22=B_SPLINE_CURVE_WITH_KNOTS('',3,(#438,#439,#440,#441,#442,#443),
 .UNSPECIFIED.,.F.,.F.,(4,2,4),(-0.000531496231651939,0.,0.138763686843018),
 .UNSPECIFIED.);
#23=B_SPLINE_CURVE_WITH_KNOTS('',3,(#495,#496,#497,#498,#499,#500),
 .UNSPECIFIED.,.F.,.F.,(4,2,4),(1.37249487695246,1.43558386705595,1.51113868430879),
 .UNSPECIFIED.);
#24=B_SPLINE_CURVE_WITH_KNOTS('',3,(#533,#534,#535,#536,#537,#538),
 .UNSPECIFIED.,.F.,.F.,(4,2,4),(0.302227736861757,0.377782554114597,0.440871544218087),
 .UNSPECIFIED.);
#25=B_SPLINE_CURVE_WITH_KNOTS('',3,(#541,#542,#543,#544,#545,#546,#547,
#548),.UNSPECIFIED.,.F.,.F.,(4,2,2,4),(0.440871544218087,0.453337371367437,
0.528896422545476,0.604455473723514),.UNSPECIFIED.);
#26=B_SPLINE_CURVE_WITH_KNOTS('',3,(#550,#551,#552,#553,#554,#555,#556,
#557),.UNSPECIFIED.,.F.,.F.,(4,2,2,4),(0.604455473723514,0.680014524901553,
0.755573576079592,0.76803939435218),.UNSPECIFIED.);
#27=B_SPLINE_CURVE_WITH_KNOTS('',3,(#562,#563,#564,#565,#566,#567,#568,
#569,#570,#571,#572,#573,#574,#575,#576),.UNSPECIFIED.,.F.,.F.,(4,2,2,3,
2,2,4),(1.04532702681836,1.05779284509095,1.13335189626899,1.20891094744703,
1.28446999862507,1.36002904980311,1.37249487695246),.UNSPECIFIED.);
#28=B_SPLINE_CURVE_WITH_KNOTS('',3,(#591,#592,#593,#594,#595,#596,#597,
#598,#599,#600,#601,#602,#603,#604),.UNSPECIFIED.,.F.,.F.,(4,2,2,2,2,2,
4),(0.,0.0694349950945911,0.114293163739154,0.148609087895114,0.184335281852795,
0.235214267139484,0.285298022455546),.UNSPECIFIED.);
#29=PLANE('',#290);
#30=PLANE('',#292);
#31=PLANE('',#299);
#32=PLANE('',#301);
#33=PLANE('',#324);
#34=LINE('',#423,#39);
#35=LINE('',#453,#40);
#36=LINE('',#583,#41);
#37=LINE('',#610,#42);
#38=LINE('',#614,#43);
#39=VECTOR('',#337,6.5);
#40=VECTOR('',#356,5.);
#41=VECTOR('',#387,7.);
#42=VECTOR('',#406,7.);
#43=VECTOR('',#411,2.);
#44=CYLINDRICAL_SURFACE('',#288,6.5);
#45=CYLINDRICAL_SURFACE('',#306,10.);
#46=CYLINDRICAL_SURFACE('',#321,7.);
#47=CYLINDRICAL_SURFACE('',#322,2.);
#48=FACE_OUTER_BOUND('',#67,.T.);
#49=FACE_OUTER_BOUND('',#68,.T.);
#50=FACE_OUTER_BOUND('',#69,.T.);
#51=FACE_OUTER_BOUND('',#71,.T.);
#52=FACE_OUTER_BOUND('',#72,.T.);
#53=FACE_OUTER_BOUND('',#73,.T.);
#54=FACE_OUTER_BOUND('',#74,.T.);
#55=FACE_OUTER_BOUND('',#76,.T.);
#56=FACE_OUTER_BOUND('',#77,.T.);
#57=FACE_OUTER_BOUND('',#78,.T.);
#58=FACE_OUTER_BOUND('',#79,.T.);
#59=FACE_OUTER_BOUND('',#80,.T.);
#60=FACE_OUTER_BOUND('',#81,.T.);
#61=FACE_OUTER_BOUND('',#82,.T.);
#62=FACE_OUTER_BOUND('',#83,.T.);
#63=FACE_OUTER_BOUND('',#84,.T.);
#64=FACE_OUTER_BOUND('',#85,.T.);
#65=FACE_OUTER_BOUND('',#86,.T.);
#66=FACE_OUTER_BOUND('',#87,.T.);
#67=EDGE_LOOP('',(#171,#172,#173,#174));
#68=EDGE_LOOP('',(#175,#176,#177,#178));
#69=EDGE_LOOP('',(#179,#180,#181));
#70=EDGE_LOOP('',(#182));
#71=EDGE_LOOP('',(#183));
#72=EDGE_LOOP('',(#184,#185,#186,#187));
#73=EDGE_LOOP('',(#188,#189,#190,#191));
#74=EDGE_LOOP('',(#192));
#75=EDGE_LOOP('',(#193));
#76=EDGE_LOOP('',(#194));
#77=EDGE_LOOP('',(#195,#196,#197,#198));
#78=EDGE_LOOP('',(#199,#200,#201));
#79=EDGE_LOOP('',(#202,#203,#204));
#80=EDGE_LOOP('',(#205,#206,#207,#208,#209,#210));
#81=EDGE_LOOP('',(#211,#212,#213,#214));
#82=EDGE_LOOP('',(#215,#216,#217,#218));
#83=EDGE_LOOP('',(#219,#220,#221,#222,#223,#224,#225));
#84=EDGE_LOOP('',(#226,#227,#228,#229,#230));
#85=EDGE_LOOP('',(#231,#232,#233,#234));
#86=EDGE_LOOP('',(#235,#236,#237,#238,#239,#240,#241,#242,#243));
#87=EDGE_LOOP('',(#244));
#88=CIRCLE('',#285,8.);
#89=CIRCLE('',#286,1.5);
#90=CIRCLE('',#287,6.5);
#91=CIRCLE('',#289,6.5);
#92=CIRCLE('',#291,9.5);
#93=CIRCLE('',#294,7.51729889353184);
#94=CIRCLE('',#295,3.);
#95=CIRCLE('',#296,4.56287563449522);
#96=CIRCLE('',#298,4.29469207716614);
#97=CIRCLE('',#300,7.86602540378444);
#98=CIRCLE('',#303,0.500000000000001);
#99=CIRCLE('',#304,0.5);
#100=CIRCLE('',#305,10.);
#101=CIRCLE('',#307,10.);
#102=CIRCLE('',#308,10.);
#103=CIRCLE('',#310,9.1650635094611);
#104=CIRCLE('',#311,1.5);
#105=CIRCLE('',#313,7.);
#106=CIRCLE('',#315,8.5);
#107=CIRCLE('',#316,8.5);
#108=CIRCLE('',#317,1.5);
#109=CIRCLE('',#319,7.);
#110=CIRCLE('',#320,1.5);
#111=CIRCLE('',#323,2.);
#112=VERTEX_POINT('',#416);
#113=VERTEX_POINT('',#418);
#114=VERTEX_POINT('',#422);
#115=VERTEX_POINT('',#426);
#116=VERTEX_POINT('',#427);
#117=VERTEX_POINT('',#436);
#118=VERTEX_POINT('',#446);
#119=VERTEX_POINT('',#448);
#120=VERTEX_POINT('',#452);
#121=VERTEX_POINT('',#456);
#122=VERTEX_POINT('',#460);
#123=VERTEX_POINT('',#462);
#124=VERTEX_POINT('',#540);
#125=VERTEX_POINT('',#549);
#126=VERTEX_POINT('',#558);
#127=VERTEX_POINT('',#560);
#128=VERTEX_POINT('',#578);
#129=VERTEX_POINT('',#582);
#130=VERTEX_POINT('',#586);
#131=VERTEX_POINT('',#587);
#132=VERTEX_POINT('',#606);
#133=VERTEX_POINT('',#612);
#134=EDGE_CURVE('',#112,#112,#88,.T.);
#135=EDGE_CURVE('',#112,#113,#89,.T.);
#136=EDGE_CURVE('',#113,#113,#90,.T.);
#137=EDGE_CURVE('',#113,#114,#34,.T.);
#138=EDGE_CURVE('',#114,#114,#91,.T.);
#139=EDGE_CURVE('',#115,#116,#21,.T.);
#140=EDGE_CURVE('',#117,#115,#92,.T.);
#141=EDGE_CURVE('',#116,#117,#22,.T.);
#142=EDGE_CURVE('',#118,#118,#93,.T.);
#143=EDGE_CURVE('',#118,#119,#94,.T.);
#144=EDGE_CURVE('',#119,#119,#95,.T.);
#145=EDGE_CURVE('',#119,#120,#35,.T.);
#146=EDGE_CURVE('',#120,#120,#96,.T.);
#147=EDGE_CURVE('',#121,#121,#97,.T.);
#148=EDGE_CURVE('',#122,#117,#98,.T.);
#149=EDGE_CURVE('',#115,#123,#99,.T.);
#150=EDGE_CURVE('',#123,#122,#100,.T.);
#151=EDGE_CURVE('',#122,#116,#23,.T.);
#152=EDGE_CURVE('',#116,#123,#24,.T.);
#153=EDGE_CURVE('',#123,#124,#25,.T.);
#154=EDGE_CURVE('',#124,#125,#26,.T.);
#155=EDGE_CURVE('',#126,#125,#101,.T.);
#156=EDGE_CURVE('',#127,#126,#102,.T.);
#157=EDGE_CURVE('',#127,#122,#27,.T.);
#158=EDGE_CURVE('',#128,#128,#103,.T.);
#159=EDGE_CURVE('',#128,#121,#104,.T.);
#160=EDGE_CURVE('',#128,#129,#36,.T.);
#161=EDGE_CURVE('',#129,#129,#105,.T.);
#162=EDGE_CURVE('',#130,#131,#106,.T.);
#163=EDGE_CURVE('',#131,#130,#107,.T.);
#164=EDGE_CURVE('',#131,#126,#108,.T.);
#165=EDGE_CURVE('',#127,#125,#28,.T.);
#166=EDGE_CURVE('',#132,#132,#109,.T.);
#167=EDGE_CURVE('',#132,#130,#110,.T.);
#168=EDGE_CURVE('',#129,#132,#37,.T.);
#169=EDGE_CURVE('',#133,#133,#111,.T.);
#170=EDGE_CURVE('',#133,#124,#38,.T.);
#171=ORIENTED_EDGE('',*,*,#134,.T.);
#172=ORIENTED_EDGE('',*,*,#135,.T.);
#173=ORIENTED_EDGE('',*,*,#136,.T.);
#174=ORIENTED_EDGE('',*,*,#135,.F.);
#175=ORIENTED_EDGE('',*,*,#136,.F.);
#176=ORIENTED_EDGE('',*,*,#137,.T.);
#177=ORIENTED_EDGE('',*,*,#138,.T.);
#178=ORIENTED_EDGE('',*,*,#137,.F.);
#179=ORIENTED_EDGE('',*,*,#139,.F.);
#180=ORIENTED_EDGE('',*,*,#140,.F.);
#181=ORIENTED_EDGE('',*,*,#141,.F.);
#182=ORIENTED_EDGE('',*,*,#134,.F.);
#183=ORIENTED_EDGE('',*,*,#138,.F.);
#184=ORIENTED_EDGE('',*,*,#142,.T.);
#185=ORIENTED_EDGE('',*,*,#143,.T.);
#186=ORIENTED_EDGE('',*,*,#144,.T.);
#187=ORIENTED_EDGE('',*,*,#143,.F.);
#188=ORIENTED_EDGE('',*,*,#144,.F.);
#189=ORIENTED_EDGE('',*,*,#145,.T.);
#190=ORIENTED_EDGE('',*,*,#146,.F.);
#191=ORIENTED_EDGE('',*,*,#145,.F.);
#192=ORIENTED_EDGE('',*,*,#147,.F.);
#193=ORIENTED_EDGE('',*,*,#142,.F.);
#194=ORIENTED_EDGE('',*,*,#146,.T.);
#195=ORIENTED_EDGE('',*,*,#148,.T.);
#196=ORIENTED_EDGE('',*,*,#140,.T.);
#197=ORIENTED_EDGE('',*,*,#149,.T.);
#198=ORIENTED_EDGE('',*,*,#150,.T.);
#199=ORIENTED_EDGE('',*,*,#148,.F.);
#200=ORIENTED_EDGE('',*,*,#151,.T.);
#201=ORIENTED_EDGE('',*,*,#141,.T.);
#202=ORIENTED_EDGE('',*,*,#149,.F.);
#203=ORIENTED_EDGE('',*,*,#139,.T.);
#204=ORIENTED_EDGE('',*,*,#152,.T.);
#205=ORIENTED_EDGE('',*,*,#150,.F.);
#206=ORIENTED_EDGE('',*,*,#153,.T.);
#207=ORIENTED_EDGE('',*,*,#154,.T.);
#208=ORIENTED_EDGE('',*,*,#155,.F.);
#209=ORIENTED_EDGE('',*,*,#156,.F.);
#210=ORIENTED_EDGE('',*,*,#157,.T.);
#211=ORIENTED_EDGE('',*,*,#158,.T.);
#212=ORIENTED_EDGE('',*,*,#159,.T.);
#213=ORIENTED_EDGE('',*,*,#147,.T.);
#214=ORIENTED_EDGE('',*,*,#159,.F.);
#215=ORIENTED_EDGE('',*,*,#158,.F.);
#216=ORIENTED_EDGE('',*,*,#160,.T.);
#217=ORIENTED_EDGE('',*,*,#161,.T.);
#218=ORIENTED_EDGE('',*,*,#160,.F.);
#219=ORIENTED_EDGE('',*,*,#162,.F.);
#220=ORIENTED_EDGE('',*,*,#163,.F.);
#221=ORIENTED_EDGE('',*,*,#164,.T.);
#222=ORIENTED_EDGE('',*,*,#155,.T.);
#223=ORIENTED_EDGE('',*,*,#165,.F.);
#224=ORIENTED_EDGE('',*,*,#156,.T.);
#225=ORIENTED_EDGE('',*,*,#164,.F.);
#226=ORIENTED_EDGE('',*,*,#166,.T.);
#227=ORIENTED_EDGE('',*,*,#167,.T.);
#228=ORIENTED_EDGE('',*,*,#162,.T.);
#229=ORIENTED_EDGE('',*,*,#163,.T.);
#230=ORIENTED_EDGE('',*,*,#167,.F.);
#231=ORIENTED_EDGE('',*,*,#161,.F.);
#232=ORIENTED_EDGE('',*,*,#168,.T.);
#233=ORIENTED_EDGE('',*,*,#166,.F.);
#234=ORIENTED_EDGE('',*,*,#168,.F.);
#235=ORIENTED_EDGE('',*,*,#169,.F.);
#236=ORIENTED_EDGE('',*,*,#170,.T.);
#237=ORIENTED_EDGE('',*,*,#153,.F.);
#238=ORIENTED_EDGE('',*,*,#152,.F.);
#239=ORIENTED_EDGE('',*,*,#151,.F.);
#240=ORIENTED_EDGE('',*,*,#157,.F.);
#241=ORIENTED_EDGE('',*,*,#165,.T.);
#242=ORIENTED_EDGE('',*,*,#154,.F.);
#243=ORIENTED_EDGE('',*,*,#170,.F.);
#244=ORIENTED_EDGE('',*,*,#169,.T.);
#245=TOROIDAL_SURFACE('',#284,8.,1.5);
#246=TOROIDAL_SURFACE('',#293,7.51729889353184,3.);
#247=TOROIDAL_SURFACE('',#302,9.5,0.5);
#248=TOROIDAL_SURFACE('',#309,7.86602540378444,1.5);
#249=TOROIDAL_SURFACE('',#314,8.5,1.5);
#250=TOROIDAL_SURFACE('',#318,8.5,1.5);
#251=ADVANCED_FACE('',(#48),#245,.T.);
#252=ADVANCED_FACE('',(#49),#44,.F.);
#253=ADVANCED_FACE('',(#50,#19),#29,.F.);
#254=ADVANCED_FACE('',(#51),#30,.F.);
#255=ADVANCED_FACE('',(#52),#246,.T.);
#256=ADVANCED_FACE('',(#53),#17,.F.);
#257=ADVANCED_FACE('',(#54,#20),#31,.T.);
#258=ADVANCED_FACE('',(#55),#32,.T.);
#259=ADVANCED_FACE('',(#56),#247,.T.);
#260=ADVANCED_FACE('',(#57),#15,.F.);
#261=ADVANCED_FACE('',(#58),#16,.F.);
#262=ADVANCED_FACE('',(#59),#45,.T.);
#263=ADVANCED_FACE('',(#60),#248,.T.);
#264=ADVANCED_FACE('',(#61),#18,.T.);
#265=ADVANCED_FACE('',(#62),#249,.T.);
#266=ADVANCED_FACE('',(#63),#250,.F.);
#267=ADVANCED_FACE('',(#64),#46,.T.);
#268=ADVANCED_FACE('',(#65),#47,.T.);
#269=ADVANCED_FACE('',(#66),#33,.T.);
#270=CLOSED_SHELL('',(#251,#252,#253,#254,#255,#256,#257,#258,#259,#260,
#261,#262,#263,#264,#265,#266,#267,#268,#269));
#271=DERIVED_UNIT_ELEMENT(#273,1.);
#272=DERIVED_UNIT_ELEMENT(#621,-3.);
#273=(
MASS_UNIT()
NAMED_UNIT(*)
SI_UNIT(.KILO.,.GRAM.)
);
#274=DERIVED_UNIT((#271,#272));
#275=MEASURE_REPRESENTATION_ITEM('density measure',
POSITIVE_RATIO_MEASURE(7850.),#274);
#276=PROPERTY_DEFINITION_REPRESENTATION(#281,#278);
#277=PROPERTY_DEFINITION_REPRESENTATION(#282,#279);
#278=REPRESENTATION('material name',(#280),#618);
#279=REPRESENTATION('density',(#275),#618);
#280=DESCRIPTIVE_REPRESENTATION_ITEM('Steel','Steel');
#281=PROPERTY_DEFINITION('material property','material name',#628);
#282=PROPERTY_DEFINITION('material property','density of part',#628);
#283=AXIS2_PLACEMENT_3D('',#414,#325,#326);
#284=AXIS2_PLACEMENT_3D('',#415,#327,#328);
#285=AXIS2_PLACEMENT_3D('',#417,#329,#330);
#286=AXIS2_PLACEMENT_3D('',#419,#331,#332);
#287=AXIS2_PLACEMENT_3D('',#420,#333,#334);
#288=AXIS2_PLACEMENT_3D('',#421,#335,#336);
#289=AXIS2_PLACEMENT_3D('',#424,#338,#339);
#290=AXIS2_PLACEMENT_3D('',#425,#340,#341);
#291=AXIS2_PLACEMENT_3D('',#437,#342,#343);
#292=AXIS2_PLACEMENT_3D('',#444,#344,#345);
#293=AXIS2_PLACEMENT_3D('',#445,#346,#347);
#294=AXIS2_PLACEMENT_3D('',#447,#348,#349);
#295=AXIS2_PLACEMENT_3D('',#449,#350,#351);
#296=AXIS2_PLACEMENT_3D('',#450,#352,#353);
#297=AXIS2_PLACEMENT_3D('',#451,#354,#355);
#298=AXIS2_PLACEMENT_3D('',#454,#357,#358);
#299=AXIS2_PLACEMENT_3D('',#455,#359,#360);
#300=AXIS2_PLACEMENT_3D('',#457,#361,#362);
#301=AXIS2_PLACEMENT_3D('',#458,#363,#364);
#302=AXIS2_PLACEMENT_3D('',#459,#365,#366);
#303=AXIS2_PLACEMENT_3D('',#461,#367,#368);
#304=AXIS2_PLACEMENT_3D('',#463,#369,#370);
#305=AXIS2_PLACEMENT_3D('',#464,#371,#372);
#306=AXIS2_PLACEMENT_3D('',#539,#373,#374);
#307=AXIS2_PLACEMENT_3D('',#559,#375,#376);
#308=AXIS2_PLACEMENT_3D('',#561,#377,#378);
#309=AXIS2_PLACEMENT_3D('',#577,#379,#380);
#310=AXIS2_PLACEMENT_3D('',#579,#381,#382);
#311=AXIS2_PLACEMENT_3D('',#580,#383,#384);
#312=AXIS2_PLACEMENT_3D('',#581,#385,#386);
#313=AXIS2_PLACEMENT_3D('',#584,#388,#389);
#314=AXIS2_PLACEMENT_3D('',#585,#390,#391);
#315=AXIS2_PLACEMENT_3D('',#588,#392,#393);
#316=AXIS2_PLACEMENT_3D('',#589,#394,#395);
#317=AXIS2_PLACEMENT_3D('',#590,#396,#397);
#318=AXIS2_PLACEMENT_3D('',#605,#398,#399);
#319=AXIS2_PLACEMENT_3D('',#607,#400,#401);
#320=AXIS2_PLACEMENT_3D('',#608,#402,#403);
#321=AXIS2_PLACEMENT_3D('',#609,#404,#405);
#322=AXIS2_PLACEMENT_3D('',#611,#407,#408);
#323=AXIS2_PLACEMENT_3D('',#613,#409,#410);
#324=AXIS2_PLACEMENT_3D('',#615,#412,#413);
#325=DIRECTION('axis',(0.,0.,1.));
#326=DIRECTION('refdir',(1.,0.,0.));
#327=DIRECTION('center_axis',(0.,0.,1.));
#328=DIRECTION('ref_axis',(1.,0.,0.));
#329=DIRECTION('center_axis',(0.,0.,-1.));
#330=DIRECTION('ref_axis',(1.,0.,0.));
#331=DIRECTION('center_axis',(1.22464679914735E-16,-1.,0.));
#332=DIRECTION('ref_axis',(-1.,-1.22464679914735E-16,0.));
#333=DIRECTION('center_axis',(0.,0.,1.));
#334=DIRECTION('ref_axis',(1.,0.,0.));
#335=DIRECTION('center_axis',(0.,0.,1.));
#336=DIRECTION('ref_axis',(1.,0.,0.));
#337=DIRECTION('',(0.,0.,1.));
#338=DIRECTION('center_axis',(0.,0.,1.));
#339=DIRECTION('ref_axis',(1.,0.,0.));
#340=DIRECTION('center_axis',(0.,0.,1.));
#341=DIRECTION('ref_axis',(1.,0.,0.));
#342=DIRECTION('center_axis',(0.,0.,1.));
#343=DIRECTION('ref_axis',(-1.,-1.22464679914735E-16,0.));
#344=DIRECTION('center_axis',(0.,0.,1.));
#345=DIRECTION('ref_axis',(1.,0.,0.));
#346=DIRECTION('center_axis',(0.,0.,-1.));
#347=DIRECTION('ref_axis',(-1.,0.,0.));
#348=DIRECTION('center_axis',(0.,0.,1.));
#349=DIRECTION('ref_axis',(-1.,0.,0.));
#350=DIRECTION('center_axis',(-1.22464679914735E-16,-1.,0.));
#351=DIRECTION('ref_axis',(1.,-1.22464679914735E-16,0.));
#352=DIRECTION('center_axis',(0.,0.,-1.));
#353=DIRECTION('ref_axis',(-1.,6.12323399573677E-17,0.));
#354=DIRECTION('center_axis',(0.,0.,1.));
#355=DIRECTION('ref_axis',(-1.,0.,0.));
#356=DIRECTION('',(-0.17364817766693,2.12657684957577E-17,-0.984807753012208));
#357=DIRECTION('center_axis',(0.,0.,1.));
#358=DIRECTION('ref_axis',(-1.,0.,0.));
#359=DIRECTION('center_axis',(0.,0.,1.));
#360=DIRECTION('ref_axis',(-1.,0.,0.));
#361=DIRECTION('center_axis',(0.,0.,-1.));
#362=DIRECTION('ref_axis',(-1.,0.,0.));
#363=DIRECTION('center_axis',(0.,0.,1.));
#364=DIRECTION('ref_axis',(-1.,0.,0.));
#365=DIRECTION('center_axis',(0.,0.,1.));
#366=DIRECTION('ref_axis',(-1.,1.22464679914735E-16,0.));
#367=DIRECTION('center_axis',(-0.13228756271344,0.99121138045895,0.));
#368=DIRECTION('ref_axis',(0.99121138045895,0.13228756271344,4.75772476971058E-9));
#369=DIRECTION('center_axis',(-0.132287562713436,-0.991211380458951,0.));
#370=DIRECTION('ref_axis',(0.,0.,-1.));
#371=DIRECTION('center_axis',(0.,0.,-1.));
#372=DIRECTION('ref_axis',(-1.,-1.22464679914735E-16,0.));
#373=DIRECTION('center_axis',(0.,0.,1.));
#374=DIRECTION('ref_axis',(-1.,1.22464679914735E-16,0.));
#375=DIRECTION('center_axis',(0.,0.,1.));
#376=DIRECTION('ref_axis',(1.,0.,0.));
#377=DIRECTION('center_axis',(0.,0.,1.));
#378=DIRECTION('ref_axis',(1.,0.,0.));
#379=DIRECTION('center_axis',(0.,0.,-1.));
#380=DIRECTION('ref_axis',(-1.,0.,0.));
#381=DIRECTION('center_axis',(0.,0.,1.));
#382=DIRECTION('ref_axis',(-1.,-6.12323399573677E-17,0.));
#383=DIRECTION('center_axis',(-1.22464679914735E-16,-1.,0.));
#384=DIRECTION('ref_axis',(1.,-1.22464679914735E-16,0.));
#385=DIRECTION('center_axis',(0.,0.,1.));
#386=DIRECTION('ref_axis',(-1.,0.,0.));
#387=DIRECTION('',(-0.5,-6.12323399573676E-17,-0.866025403784439));
#388=DIRECTION('center_axis',(0.,0.,1.));
#389=DIRECTION('ref_axis',(-1.,0.,0.));
#390=DIRECTION('center_axis',(0.,0.,1.));
#391=DIRECTION('ref_axis',(1.,0.,0.));
#392=DIRECTION('center_axis',(0.,0.,1.));
#393=DIRECTION('ref_axis',(-1.,0.,0.));
#394=DIRECTION('center_axis',(0.,0.,1.));
#395=DIRECTION('ref_axis',(-1.,0.,0.));
#396=DIRECTION('center_axis',(1.22464679914735E-16,-1.,0.));
#397=DIRECTION('ref_axis',(-1.,-1.22464679914735E-16,0.));
#398=DIRECTION('center_axis',(0.,0.,-1.));
#399=DIRECTION('ref_axis',(-1.,0.,0.));
#400=DIRECTION('center_axis',(0.,0.,-1.));
#401=DIRECTION('ref_axis',(-1.,0.,0.));
#402=DIRECTION('center_axis',(-1.22464679914735E-16,-1.,0.));
#403=DIRECTION('ref_axis',(1.,-1.22464679914735E-16,0.));
#404=DIRECTION('center_axis',(0.,0.,1.));
#405=DIRECTION('ref_axis',(-1.,0.,0.));
#406=DIRECTION('',(0.,0.,-1.));
#407=DIRECTION('center_axis',(1.,0.,0.));
#408=DIRECTION('ref_axis',(0.,1.,0.));
#409=DIRECTION('center_axis',(1.,0.,0.));
#410=DIRECTION('ref_axis',(0.,1.,0.));
#411=DIRECTION('',(-1.,0.,0.));
#412=DIRECTION('center_axis',(1.,0.,0.));
#413=DIRECTION('ref_axis',(0.,1.,0.));
#414=CARTESIAN_POINT('',(0.,0.,0.));
#415=CARTESIAN_POINT('Origin',(0.,0.,1.5));
#416=CARTESIAN_POINT('',(-8.,9.79717439317883E-16,0.));
#417=CARTESIAN_POINT('Origin',(0.,0.,0.));
#418=CARTESIAN_POINT('',(-6.5,-7.9602041944578E-16,1.5));
#419=CARTESIAN_POINT('Origin',(-8.,-9.79717439317883E-16,1.5));
#420=CARTESIAN_POINT('Origin',(0.,0.,1.5));
#421=CARTESIAN_POINT('Origin',(0.,0.,0.));
#422=CARTESIAN_POINT('',(-6.5,-7.9602041944578E-16,13.));
#423=CARTESIAN_POINT('',(-6.5,-7.9602041944578E-16,0.));
#424=CARTESIAN_POINT('Origin',(0.,0.,13.));
#425=CARTESIAN_POINT('Origin',(0.,0.,0.));
#426=CARTESIAN_POINT('',(9.41650811436003,-1.25673184577767,0.));
#427=CARTESIAN_POINT('',(10.,0.,0.));
#428=CARTESIAN_POINT('Ctrl Pts',(9.41650811436003,-1.25673184577767,1.38777878078145E-16));
#429=CARTESIAN_POINT('Ctrl Pts',(9.44098379312836,-1.07333915382828,7.56228412734034E-17));
#430=CARTESIAN_POINT('Ctrl Pts',(9.5230637502304,-0.852048273846929,1.11167236968125E-7));
#431=CARTESIAN_POINT('Ctrl Pts',(9.73130125067473,-0.440835996452409,4.71900043700252E-8));
#432=CARTESIAN_POINT('Ctrl Pts',(9.88180368989008,-0.204923916261601,3.69890106355676E-7));
#433=CARTESIAN_POINT('Ctrl Pts',(9.99821813611163,-0.00307178126851978,
-2.04142772389224E-9));
#434=CARTESIAN_POINT('Ctrl Pts',(9.99910311874785,-0.00153398161173946,
2.98023222665308E-8));
#435=CARTESIAN_POINT('Ctrl Pts',(10.,2.54693034070352E-15,2.9802322276673E-8));
#436=CARTESIAN_POINT('',(9.41650811436003,1.25673184577767,0.));
#437=CARTESIAN_POINT('Origin',(0.,0.,0.));
#438=CARTESIAN_POINT('Ctrl Pts',(10.,-2.08166817117217E-16,2.9802322276673E-8));
#439=CARTESIAN_POINT('Ctrl Pts',(9.99910294665214,0.00153428353431528,2.98023222842998E-8));
#440=CARTESIAN_POINT('Ctrl Pts',(9.99821152590778,0.00307567920763294,-1.87486028766183E-9));
#441=CARTESIAN_POINT('Ctrl Pts',(9.76860004669141,0.404020357960361,6.78367932717852E-7));
#442=CARTESIAN_POINT('Ctrl Pts',(9.47769714522054,0.798251360169944,1.12446417590097E-15));
#443=CARTESIAN_POINT('Ctrl Pts',(9.41650811436003,1.25673184577767,1.17961196366423E-15));
#444=CARTESIAN_POINT('Origin',(0.,0.,13.));
#445=CARTESIAN_POINT('Origin',(0.,0.,23.));
#446=CARTESIAN_POINT('',(7.51729889353184,9.20603602819771E-16,26.));
#447=CARTESIAN_POINT('Origin',(0.,0.,26.));
#448=CARTESIAN_POINT('',(4.56287563449522,-1.1175822081384E-15,23.5209445330008));
#449=CARTESIAN_POINT('Origin',(7.51729889353184,-9.20603602819771E-16,23.));
#450=CARTESIAN_POINT('Origin',(0.,-2.79395552034601E-16,23.5209445330008));
#451=CARTESIAN_POINT('Origin',(0.,0.,26.));
#452=CARTESIAN_POINT('',(4.29469207716614,5.25948090562501E-16,22.));
#453=CARTESIAN_POINT('',(5.,-6.12323399573677E-16,26.));
#454=CARTESIAN_POINT('Origin',(0.,0.,22.));
#455=CARTESIAN_POINT('Origin',(0.,0.,26.));
#456=CARTESIAN_POINT('',(7.86602540378444,-9.63310283275638E-16,26.));
#457=CARTESIAN_POINT('Origin',(0.,0.,26.));
#458=CARTESIAN_POINT('Origin',(0.,0.,22.));
#459=CARTESIAN_POINT('Origin',(0.,0.,0.5));
#460=CARTESIAN_POINT('',(9.9121138045895,1.32287562713439,0.500000002378862));
#461=CARTESIAN_POINT('Origin',(9.41650811436003,1.25673184577767,0.5));
#462=CARTESIAN_POINT('',(9.9121138045895,-1.32287562713439,0.500000002378862));
#463=CARTESIAN_POINT('Origin',(9.41650811436003,-1.25673184577767,0.5));
#464=CARTESIAN_POINT('Origin',(0.,0.,0.5));
#465=CARTESIAN_POINT('Ctrl Pts',(9.91211380491047,1.32287562472944,0.500000002636755));
#466=CARTESIAN_POINT('Ctrl Pts',(9.94780988761418,1.05541009166317,0.264117584142923));
#467=CARTESIAN_POINT('Ctrl Pts',(10.0001157045723,0.54565126372134,-0.00163099982683806));
#468=CARTESIAN_POINT('Ctrl Pts',(9.99999818172349,0.0040839610364091,1.19633746611996E-5));
#469=CARTESIAN_POINT('Ctrl Pts',(10.,0.00205876584966793,2.98023222762159E-8));
#470=CARTESIAN_POINT('Ctrl Pts',(10.,-2.08166817117217E-16,2.9802322276673E-8));
#471=CARTESIAN_POINT('Ctrl Pts',(9.9121138055947,1.32287562482076,0.369100308297722));
#472=CARTESIAN_POINT('Ctrl Pts',(9.88516178330828,1.04745798979118,0.172421516171573));
#473=CARTESIAN_POINT('Ctrl Pts',(9.95959882122922,0.518351963816121,-0.000972431217796151));
#474=CARTESIAN_POINT('Ctrl Pts',(9.99970559741556,0.00392585255423251,7.67579420626845E-6));
#475=CARTESIAN_POINT('Ctrl Pts',(9.99985049110869,0.00197135213044249,2.98023222775632E-8));
#476=CARTESIAN_POINT('Ctrl Pts',(10.,-2.08166817117217E-16,2.9802322276673E-8));
#477=CARTESIAN_POINT('Ctrl Pts',(9.80483837749816,1.30855859348261,0.108226591729633));
#478=CARTESIAN_POINT('Ctrl Pts',(9.731573021322,0.984216007794564,0.0392363004003316));
#479=CARTESIAN_POINT('Ctrl Pts',(9.88241088474377,0.468697556526232,-0.000126149821178257));
#480=CARTESIAN_POINT('Ctrl Pts',(9.9991101218074,0.0035963446029037,1.59646908468093E-6));
#481=CARTESIAN_POINT('Ctrl Pts',(9.99955147332607,0.0017965246919916,2.98023222802578E-8));
#482=CARTESIAN_POINT('Ctrl Pts',(10.,-2.08166817117217E-16,2.9802322276673E-8));
#483=CARTESIAN_POINT('Ctrl Pts',(9.54625738117151,1.2740482466721,1.16582808157631E-15));
#484=CARTESIAN_POINT('Ctrl Pts',(9.56140918272415,0.860415780003275,0.00128173702382767));
#485=CARTESIAN_POINT('Ctrl Pts',(9.80653006853919,0.425540531413581,0.000112046388373426));
#486=CARTESIAN_POINT('Ctrl Pts',(9.99851107007617,0.00324933846334751,-2.86534511959943E-7));
#487=CARTESIAN_POINT('Ctrl Pts',(9.99925245554345,0.00162169725354073,2.98023222829524E-8));
#488=CARTESIAN_POINT('Ctrl Pts',(10.,-2.08166817117217E-16,2.9802322276673E-8));
#489=CARTESIAN_POINT('Ctrl Pts',(9.41650811436003,1.25673184577767,1.17961196366423E-15));
#490=CARTESIAN_POINT('Ctrl Pts',(9.47769714522054,0.798251360169944,1.12446417590097E-15));
#491=CARTESIAN_POINT('Ctrl Pts',(9.76860004669141,0.404020357960361,6.78367932717852E-7));
#492=CARTESIAN_POINT('Ctrl Pts',(9.99821152590778,0.00307567920763294,-1.87486028766183E-9));
#493=CARTESIAN_POINT('Ctrl Pts',(9.99910294665214,0.00153428353431528,2.98023222842998E-8));
#494=CARTESIAN_POINT('Ctrl Pts',(10.,-2.08166817117217E-16,2.9802322276673E-8));
#495=CARTESIAN_POINT('Ctrl Pts',(9.91211380474544,1.32287562596599,0.500000003727296));
#496=CARTESIAN_POINT('Ctrl Pts',(9.93348095165451,1.16277471573054,0.358804278284784));
#497=CARTESIAN_POINT('Ctrl Pts',(9.95478995170283,0.971955605236682,0.237935884021446));
#498=CARTESIAN_POINT('Ctrl Pts',(9.98952377294163,0.520026612163729,0.0504709453306535));
#499=CARTESIAN_POINT('Ctrl Pts',(10.,0.251849390842799,2.98023222154444E-8));
#500=CARTESIAN_POINT('Ctrl Pts',(10.,-2.08166817117217E-16,2.98023222853466E-8));
#501=CARTESIAN_POINT('Ctrl Pts',(10.,1.38777878078145E-16,2.9802322276673E-8));
#502=CARTESIAN_POINT('Ctrl Pts',(10.,-0.00205836589766005,2.98023222764445E-8));
#503=CARTESIAN_POINT('Ctrl Pts',(9.99999892286237,-0.0040955512638221,5.07977509831156E-6));
#504=CARTESIAN_POINT('Ctrl Pts',(9.99991970356047,-0.273593461190875,0.000465910514793155));
#505=CARTESIAN_POINT('Ctrl Pts',(9.98519333199787,-0.600385816058823,0.0725855362188585));
#506=CARTESIAN_POINT('Ctrl Pts',(9.94750793133706,-1.04039432724691,0.278625690084049));
#507=CARTESIAN_POINT('Ctrl Pts',(9.92639227674205,-1.21588912115414,0.405646779175664));
#508=CARTESIAN_POINT('Ctrl Pts',(9.91211380491047,-1.32287562472944,0.500000002636757));
#509=CARTESIAN_POINT('Ctrl Pts',(10.,9.41495365619938E-16,2.9802322276673E-8));
#510=CARTESIAN_POINT('Ctrl Pts',(9.99969390588784,-0.00186067351203174,
1.69129367824691E-5));
#511=CARTESIAN_POINT('Ctrl Pts',(9.9994176227742,-0.00378185340119089,-1.73013484450044E-5));
#512=CARTESIAN_POINT('Ctrl Pts',(9.95979148053288,-0.248845555846137,0.00195111235018393));
#513=CARTESIAN_POINT('Ctrl Pts',(9.90214408087458,-0.550265578179672,0.0223551938719034));
#514=CARTESIAN_POINT('Ctrl Pts',(9.86316503961479,-1.0042625513148,0.109715556557199));
#515=CARTESIAN_POINT('Ctrl Pts',(9.87621395528986,-1.20787557099795,0.175005484172709));
#516=CARTESIAN_POINT('Ctrl Pts',(9.91211380627894,-1.32287562491208,0.238200613958688));
#517=CARTESIAN_POINT('Ctrl Pts',(10.,1.74421285316173E-15,2.9802322276673E-8));
#518=CARTESIAN_POINT('Ctrl Pts',(9.99939492724627,-0.0017021788094233,2.98023222665377E-8));
#519=CARTESIAN_POINT('Ctrl Pts',(9.99881468711393,-0.00341805765197658,
-2.04142772390881E-9));
#520=CARTESIAN_POINT('Ctrl Pts',(9.92102607376876,-0.227330231697247,3.69890106360007E-7));
#521=CARTESIAN_POINT('Ctrl Pts',(9.8162680872136,-0.495751291421445,4.71900043601156E-8));
#522=CARTESIAN_POINT('Ctrl Pts',(9.69458157980075,-0.928976657867013,1.11167236995541E-7));
#523=CARTESIAN_POINT('Ctrl Pts',(9.66303416882651,-1.14342831306905,5.40882075014013E-17));
#524=CARTESIAN_POINT('Ctrl Pts',(9.67600664798298,-1.29136464756653,1.33009289164545E-16));
#525=CARTESIAN_POINT('Ctrl Pts',(10.,2.54693034070352E-15,2.9802322276673E-8));
#526=CARTESIAN_POINT('Ctrl Pts',(9.99910311874785,-0.00153398161173946,
2.98023222665308E-8));
#527=CARTESIAN_POINT('Ctrl Pts',(9.99821813611163,-0.00307178126851978,
-2.04142772389224E-9));
#528=CARTESIAN_POINT('Ctrl Pts',(9.88180368989008,-0.204923916261601,3.69890106355676E-7));
#529=CARTESIAN_POINT('Ctrl Pts',(9.73130125067473,-0.440835996452409,4.71900043700252E-8));
#530=CARTESIAN_POINT('Ctrl Pts',(9.5230637502304,-0.852048273846929,1.11167236968125E-7));
#531=CARTESIAN_POINT('Ctrl Pts',(9.44098379312836,-1.07333915382828,7.56228412734034E-17));
#532=CARTESIAN_POINT('Ctrl Pts',(9.41650811436003,-1.25673184577767,1.38777878078145E-16));
#533=CARTESIAN_POINT('Ctrl Pts',(10.,-4.16333634234434E-16,2.98023223113675E-8));
#534=CARTESIAN_POINT('Ctrl Pts',(10.,-0.2518493908428,2.98023223393284E-8));
#535=CARTESIAN_POINT('Ctrl Pts',(9.98952377294163,-0.52002661216373,0.0504709453306539));
#536=CARTESIAN_POINT('Ctrl Pts',(9.95478995170283,-0.971955605236683,0.237935884021446));
#537=CARTESIAN_POINT('Ctrl Pts',(9.93348095165451,-1.16277471573054,0.358804278284784));
#538=CARTESIAN_POINT('Ctrl Pts',(9.91211380474544,-1.32287562596599,0.500000003727296));
#539=CARTESIAN_POINT('Origin',(0.,0.,0.));
#540=CARTESIAN_POINT('',(9.79795897113272,-2.,2.00000002980232));
#541=CARTESIAN_POINT('Ctrl Pts',(9.91211380474544,-1.32287562596599,0.500000003727296));
#542=CARTESIAN_POINT('Ctrl Pts',(9.90789184526239,-1.35451015158092,0.52789903182564));
#543=CARTESIAN_POINT('Ctrl Pts',(9.90367114583953,-1.38498009777807,0.556553002834204));
#544=CARTESIAN_POINT('Ctrl Pts',(9.87418170203865,-1.59140620438418,0.762979109440309));
#545=CARTESIAN_POINT('Ctrl Pts',(9.84708301585542,-1.74521083529677,0.987416019742214));
#546=CARTESIAN_POINT('Ctrl Pts',(9.80867753236894,-1.94952559249723,1.47996447547854));
#547=CARTESIAN_POINT('Ctrl Pts',(9.79795897113271,-2.,1.74813652587553));
#548=CARTESIAN_POINT('Ctrl Pts',(9.79795897113271,-2.,2.00000002980232));
#549=CARTESIAN_POINT('',(9.91211379556954,-1.32287569471969,3.49999999762114));
#550=CARTESIAN_POINT('Ctrl Pts',(9.79795897113271,-2.,2.00000002980232));
#551=CARTESIAN_POINT('Ctrl Pts',(9.79795897113271,-2.,2.25186353372912));
#552=CARTESIAN_POINT('Ctrl Pts',(9.80867753236894,-1.94952559249723,2.5200355841261));
#553=CARTESIAN_POINT('Ctrl Pts',(9.84708301585542,-1.74521083529676,3.01258403986243));
#554=CARTESIAN_POINT('Ctrl Pts',(9.87418170203865,-1.59140620438418,3.23702095016434));
#555=CARTESIAN_POINT('Ctrl Pts',(9.9036711428657,-1.38498011859486,3.44344703595365));
#556=CARTESIAN_POINT('Ctrl Pts',(9.9078918392508,-1.35451019497993,3.47210098697072));
#557=CARTESIAN_POINT('Ctrl Pts',(9.91211379572547,-1.3228756935513,3.49999999627271));
#558=CARTESIAN_POINT('',(-10.,-1.22464679914735E-15,3.5));
#559=CARTESIAN_POINT('Origin',(0.,0.,3.5));
#560=CARTESIAN_POINT('',(9.91211379556954,1.32287569471969,3.49999999762114));
#561=CARTESIAN_POINT('Origin',(0.,0.,3.5));
#562=CARTESIAN_POINT('Ctrl Pts',(9.91211379572547,1.3228756935513,3.49999999627271));
#563=CARTESIAN_POINT('Ctrl Pts',(9.9078918392508,1.35451019497993,3.47210098697072));
#564=CARTESIAN_POINT('Ctrl Pts',(9.9036711428657,1.38498011859486,3.44344703595365));
#565=CARTESIAN_POINT('Ctrl Pts',(9.87418170203865,1.59140620438418,3.23702095016434));
#566=CARTESIAN_POINT('Ctrl Pts',(9.84708301585542,1.74521083529676,3.01258403986243));
#567=CARTESIAN_POINT('Ctrl Pts',(9.80867753236894,1.94952559249723,2.5200355841261));
#568=CARTESIAN_POINT('Ctrl Pts',(9.79795897113271,2.,2.25186353372912));
#569=CARTESIAN_POINT('Ctrl Pts',(9.79795897113271,2.,2.00000002980232));
#570=CARTESIAN_POINT('Ctrl Pts',(9.79795897113271,2.,1.74813652587553));
#571=CARTESIAN_POINT('Ctrl Pts',(9.80867753236894,1.94952559249723,1.47996447547854));
#572=CARTESIAN_POINT('Ctrl Pts',(9.84708301585542,1.74521083529677,0.987416019742215));
#573=CARTESIAN_POINT('Ctrl Pts',(9.87418170203865,1.59140620438418,0.762979109440309));
#574=CARTESIAN_POINT('Ctrl Pts',(9.90367114583952,1.38498009777807,0.556553002834204));
#575=CARTESIAN_POINT('Ctrl Pts',(9.90789184526239,1.35451015158092,0.527899031825641));
#576=CARTESIAN_POINT('Ctrl Pts',(9.91211380474544,1.32287562596599,0.500000003727296));
#577=CARTESIAN_POINT('Origin',(0.,0.,24.5));
#578=CARTESIAN_POINT('',(9.1650635094611,2.24479313816875E-15,23.75));
#579=CARTESIAN_POINT('Origin',(0.,5.61198284542187E-16,23.75));
#580=CARTESIAN_POINT('Origin',(7.86602540378444,-9.63310283275638E-16,24.5));
#581=CARTESIAN_POINT('Origin',(0.,0.,20.));
#582=CARTESIAN_POINT('',(7.,8.57252759403147E-16,20.));
#583=CARTESIAN_POINT('',(7.,8.57252759403147E-16,20.));
#584=CARTESIAN_POINT('Origin',(0.,0.,20.));
#585=CARTESIAN_POINT('Origin',(0.,0.,3.5));
#586=CARTESIAN_POINT('',(8.5,1.04094977927525E-15,5.));
#587=CARTESIAN_POINT('',(-8.5,-1.04094977927525E-15,5.));
#588=CARTESIAN_POINT('Origin',(0.,0.,5.));
#589=CARTESIAN_POINT('Origin',(0.,0.,5.));
#590=CARTESIAN_POINT('Origin',(-8.5,-1.04094977927525E-15,3.5));
#591=CARTESIAN_POINT('Ctrl Pts',(9.91211379628952,1.32287568932495,3.5));
#592=CARTESIAN_POINT('Ctrl Pts',(9.93516567763243,1.15015131852175,3.65232858375284));
#593=CARTESIAN_POINT('Ctrl Pts',(9.93416596623148,0.951025497930485,3.77481421127234));
#594=CARTESIAN_POINT('Ctrl Pts',(9.92559219346257,0.593848398615573,3.91573891585789));
#595=CARTESIAN_POINT('Ctrl Pts',(9.92050917675826,0.447532781467223,3.95517915920959));
#596=CARTESIAN_POINT('Ctrl Pts',(9.91506350731642,0.18277427979231,3.99500873524964));
#597=CARTESIAN_POINT('Ctrl Pts',(9.91386643254679,0.0665283707376025,4.00229374224833));
#598=CARTESIAN_POINT('Ctrl Pts',(9.9147689939174,-0.171481387476524,3.99633206180537));
#599=CARTESIAN_POINT('Ctrl Pts',(9.9170119477923,-0.292516794697462,3.98224340253684));
#600=CARTESIAN_POINT('Ctrl Pts',(9.92449266013091,-0.581641599466722,3.92141127456183));
#601=CARTESIAN_POINT('Ctrl Pts',(9.93062989731702,-0.746230987959233,3.86370864774723));
#602=CARTESIAN_POINT('Ctrl Pts',(9.93292790713818,-1.05441445410034,3.70808135344413));
#603=CARTESIAN_POINT('Ctrl Pts',(9.92905480611562,-1.19593918633562,3.61194747878839));
#604=CARTESIAN_POINT('Ctrl Pts',(9.91211379572545,-1.32287569355145,3.49999999627258));
#605=CARTESIAN_POINT('Origin',(0.,0.,6.5));
#606=CARTESIAN_POINT('',(7.,-8.57252759403147E-16,6.5));
#607=CARTESIAN_POINT('Origin',(0.,0.,6.5));
#608=CARTESIAN_POINT('Origin',(8.5,-1.04094977927525E-15,6.5));
#609=CARTESIAN_POINT('Origin',(0.,0.,5.));
#610=CARTESIAN_POINT('',(7.,8.57252759403147E-16,5.));
#611=CARTESIAN_POINT('Origin',(0.,0.,2.00000002980232));
#612=CARTESIAN_POINT('',(100.,-2.,2.00000002980232));
#613=CARTESIAN_POINT('Origin',(100.,0.,2.00000002980232));
#614=CARTESIAN_POINT('',(0.,-2.,2.00000002980232));
#615=CARTESIAN_POINT('Origin',(100.,0.,2.00000002980232));
#616=UNCERTAINTY_MEASURE_WITH_UNIT(LENGTH_MEASURE(0.01),#620,
'DISTANCE_ACCURACY_VALUE',
'Maximum model space distance between geometric entities at asserted c
onnectivities');
#617=UNCERTAINTY_MEASURE_WITH_UNIT(LENGTH_MEASURE(0.01),#620,
'DISTANCE_ACCURACY_VALUE',
'Maximum model space distance between geometric entities at asserted c
onnectivities');
#618=(
GEOMETRIC_REPRESENTATION_CONTEXT(3)
GLOBAL_UNCERTAINTY_ASSIGNED_CONTEXT((#616))
GLOBAL_UNIT_ASSIGNED_CONTEXT((#620,#622,#623))
REPRESENTATION_CONTEXT('','3D')
);
#619=(
GEOMETRIC_REPRESENTATION_CONTEXT(3)
GLOBAL_UNCERTAINTY_ASSIGNED_CONTEXT((#617))
GLOBAL_UNIT_ASSIGNED_CONTEXT((#620,#622,#623))
REPRESENTATION_CONTEXT('','3D')
);
#620=(
LENGTH_UNIT()
NAMED_UNIT(*)
SI_UNIT(.MILLI.,.METRE.)
);
#621=(
LENGTH_UNIT()
NAMED_UNIT(*)
SI_UNIT($,.METRE.)
);
#622=(
NAMED_UNIT(*)
PLANE_ANGLE_UNIT()
SI_UNIT($,.RADIAN.)
);
#623=(
NAMED_UNIT(*)
SI_UNIT($,.STERADIAN.)
SOLID_ANGLE_UNIT()
);
#624=SHAPE_DEFINITION_REPRESENTATION(#625,#626);
#625=PRODUCT_DEFINITION_SHAPE('',$,#628);
#626=SHAPE_REPRESENTATION('',(#283),#618);
#627=PRODUCT_DEFINITION_CONTEXT('part definition',#632,'design');
#628=PRODUCT_DEFINITION('(Unsaved)','(Unsaved)',#629,#627);
#629=PRODUCT_DEFINITION_FORMATION('',$,#634);
#630=PRODUCT_RELATED_PRODUCT_CATEGORY('(Unsaved)','(Unsaved)',(#634));
#631=APPLICATION_PROTOCOL_DEFINITION('international standard',
'automotive_design',2009,#632);
#632=APPLICATION_CONTEXT(
'Core Data for Automotive Mechanical Design Process');
#633=PRODUCT_CONTEXT('part definition',#632,'mechanical');
#634=PRODUCT('(Unsaved)','(Unsaved)',$,(#633));
#635=PRESENTATION_STYLE_ASSIGNMENT((#636));
#636=SURFACE_STYLE_USAGE(.BOTH.,#637);
#637=SURFACE_SIDE_STYLE('',(#638));
#638=SURFACE_STYLE_FILL_AREA(#639);
#639=FILL_AREA_STYLE('Steel - Satin',(#640));
#640=FILL_AREA_STYLE_COLOUR('Steel - Satin',#641);
#641=COLOUR_RGB('Steel - Satin',0.627450980392157,0.627450980392157,0.627450980392157);
ENDSEC;
END-ISO-10303-21;
