ISO-10303-21;
HEADER;
/* Generated by software containing ST-Developer
 * from STEP Tools, Inc. (www.steptools.com) 
 */

FILE_DESCRIPTION(
/* description */ (''),
/* implementation_level */ '2;1');

FILE_NAME(
/* name */ 'Motor Base V6.step',
/* time_stamp */ '2026-07-02T14:49:03+05:30',
/* author */ (''),
/* organization */ (''),
/* preprocessor_version */ 'ST-DEVELOPER v20.1',
/* originating_system */ 'Autodesk Translation Framework v15.8.0.0',
/* authorisation */ '');

FILE_SCHEMA (('AUTOMOTIVE_DESIGN { 1 0 10303 214 3 1 1 }'));
ENDSEC;

DATA;
#10=MECHANICAL_DESIGN_GEOMETRIC_PRESENTATION_REPRESENTATION('',(#13),#469);
#11=SHAPE_REPRESENTATION_RELATIONSHIP('SRR','None',#476,#12);
#12=ADVANCED_BREP_SHAPE_REPRESENTATION('',(#14),#468);
#13=STYLED_ITEM('',(#485),#14);
#14=MANIFOLD_SOLID_BREP('Body1',#277);
#15=FACE_BOUND('',#49,.T.);
#16=FACE_BOUND('',#50,.T.);
#17=FACE_BOUND('',#51,.T.);
#18=FACE_BOUND('',#55,.T.);
#19=FACE_BOUND('',#56,.T.);
#20=FACE_BOUND('',#57,.T.);
#21=PLANE('',#303);
#22=PLANE('',#305);
#23=PLANE('',#308);
#24=PLANE('',#309);
#25=PLANE('',#310);
#26=PLANE('',#311);
#27=PLANE('',#312);
#28=PLANE('',#313);
#29=PLANE('',#314);
#30=FACE_OUTER_BOUND('',#44,.T.);
#31=FACE_OUTER_BOUND('',#45,.T.);
#32=FACE_OUTER_BOUND('',#46,.T.);
#33=FACE_OUTER_BOUND('',#47,.T.);
#34=FACE_OUTER_BOUND('',#48,.T.);
#35=FACE_OUTER_BOUND('',#52,.T.);
#36=FACE_OUTER_BOUND('',#53,.T.);
#37=FACE_OUTER_BOUND('',#54,.T.);
#38=FACE_OUTER_BOUND('',#58,.T.);
#39=FACE_OUTER_BOUND('',#59,.T.);
#40=FACE_OUTER_BOUND('',#60,.T.);
#41=FACE_OUTER_BOUND('',#61,.T.);
#42=FACE_OUTER_BOUND('',#62,.T.);
#43=FACE_OUTER_BOUND('',#63,.T.);
#44=EDGE_LOOP('',(#186,#187,#188,#189));
#45=EDGE_LOOP('',(#190,#191,#192,#193));
#46=EDGE_LOOP('',(#194,#195,#196,#197));
#47=EDGE_LOOP('',(#198,#199,#200,#201));
#48=EDGE_LOOP('',(#202,#203,#204,#205,#206,#207,#208,#209,#210));
#49=EDGE_LOOP('',(#211));
#50=EDGE_LOOP('',(#212));
#51=EDGE_LOOP('',(#213));
#52=EDGE_LOOP('',(#214,#215,#216,#217));
#53=EDGE_LOOP('',(#218,#219,#220,#221));
#54=EDGE_LOOP('',(#222,#223,#224,#225,#226,#227,#228,#229,#230));
#55=EDGE_LOOP('',(#231));
#56=EDGE_LOOP('',(#232));
#57=EDGE_LOOP('',(#233));
#58=EDGE_LOOP('',(#234,#235,#236,#237));
#59=EDGE_LOOP('',(#238,#239,#240,#241));
#60=EDGE_LOOP('',(#242,#243,#244,#245));
#61=EDGE_LOOP('',(#246,#247,#248,#249));
#62=EDGE_LOOP('',(#250,#251,#252,#253));
#63=EDGE_LOOP('',(#254,#255,#256,#257));
#64=LINE('',#396,#90);
#65=LINE('',#402,#91);
#66=LINE('',#408,#92);
#67=LINE('',#415,#93);
#68=LINE('',#418,#94);
#69=LINE('',#421,#95);
#70=LINE('',#425,#96);
#71=LINE('',#427,#97);
#72=LINE('',#429,#98);
#73=LINE('',#431,#99);
#74=LINE('',#433,#100);
#75=LINE('',#434,#101);
#76=LINE('',#437,#102);
#77=LINE('',#438,#103);
#78=LINE('',#442,#104);
#79=LINE('',#445,#105);
#80=LINE('',#447,#106);
#81=LINE('',#449,#107);
#82=LINE('',#451,#108);
#83=LINE('',#453,#109);
#84=LINE('',#454,#110);
#85=LINE('',#456,#111);
#86=LINE('',#457,#112);
#87=LINE('',#459,#113);
#88=LINE('',#461,#114);
#89=LINE('',#464,#115);
#90=VECTOR('',#321,3.15);
#91=VECTOR('',#328,3.15);
#92=VECTOR('',#335,3.15);
#93=VECTOR('',#342,10.);
#94=VECTOR('',#345,10.);
#95=VECTOR('',#348,10.);
#96=VECTOR('',#351,10.);
#97=VECTOR('',#352,10.);
#98=VECTOR('',#353,10.);
#99=VECTOR('',#354,10.);
#100=VECTOR('',#355,10.);
#101=VECTOR('',#356,10.);
#102=VECTOR('',#359,10.);
#103=VECTOR('',#360,35.);
#104=VECTOR('',#365,10.);
#105=VECTOR('',#368,10.);
#106=VECTOR('',#369,10.);
#107=VECTOR('',#370,10.);
#108=VECTOR('',#371,10.);
#109=VECTOR('',#372,10.);
#110=VECTOR('',#373,10.);
#111=VECTOR('',#376,10.);
#112=VECTOR('',#377,10.);
#113=VECTOR('',#380,10.);
#114=VECTOR('',#383,10.);
#115=VECTOR('',#388,10.);
#116=CIRCLE('',#292,3.15);
#117=CIRCLE('',#293,3.15);
#118=CIRCLE('',#295,3.15);
#119=CIRCLE('',#296,3.15);
#120=CIRCLE('',#298,3.15);
#121=CIRCLE('',#299,3.15);
#122=CIRCLE('',#301,30.);
#123=CIRCLE('',#302,30.);
#124=CIRCLE('',#304,35.);
#125=CIRCLE('',#307,35.);
#126=VERTEX_POINT('',#393);
#127=VERTEX_POINT('',#395);
#128=VERTEX_POINT('',#399);
#129=VERTEX_POINT('',#401);
#130=VERTEX_POINT('',#405);
#131=VERTEX_POINT('',#407);
#132=VERTEX_POINT('',#411);
#133=VERTEX_POINT('',#412);
#134=VERTEX_POINT('',#414);
#135=VERTEX_POINT('',#416);
#136=VERTEX_POINT('',#420);
#137=VERTEX_POINT('',#422);
#138=VERTEX_POINT('',#424);
#139=VERTEX_POINT('',#426);
#140=VERTEX_POINT('',#428);
#141=VERTEX_POINT('',#430);
#142=VERTEX_POINT('',#432);
#143=VERTEX_POINT('',#436);
#144=VERTEX_POINT('',#440);
#145=VERTEX_POINT('',#444);
#146=VERTEX_POINT('',#446);
#147=VERTEX_POINT('',#448);
#148=VERTEX_POINT('',#450);
#149=VERTEX_POINT('',#452);
#150=EDGE_CURVE('',#126,#126,#116,.T.);
#151=EDGE_CURVE('',#126,#127,#64,.T.);
#152=EDGE_CURVE('',#127,#127,#117,.T.);
#153=EDGE_CURVE('',#128,#128,#118,.T.);
#154=EDGE_CURVE('',#128,#129,#65,.T.);
#155=EDGE_CURVE('',#129,#129,#119,.T.);
#156=EDGE_CURVE('',#130,#130,#120,.T.);
#157=EDGE_CURVE('',#130,#131,#66,.T.);
#158=EDGE_CURVE('',#131,#131,#121,.T.);
#159=EDGE_CURVE('',#132,#133,#122,.T.);
#160=EDGE_CURVE('',#133,#134,#67,.T.);
#161=EDGE_CURVE('',#134,#135,#123,.T.);
#162=EDGE_CURVE('',#135,#132,#68,.T.);
#163=EDGE_CURVE('',#132,#136,#69,.T.);
#164=EDGE_CURVE('',#137,#136,#124,.T.);
#165=EDGE_CURVE('',#137,#138,#70,.T.);
#166=EDGE_CURVE('',#139,#138,#71,.T.);
#167=EDGE_CURVE('',#139,#140,#72,.T.);
#168=EDGE_CURVE('',#140,#141,#73,.T.);
#169=EDGE_CURVE('',#141,#142,#74,.T.);
#170=EDGE_CURVE('',#142,#133,#75,.T.);
#171=EDGE_CURVE('',#143,#135,#76,.T.);
#172=EDGE_CURVE('',#136,#143,#77,.T.);
#173=EDGE_CURVE('',#143,#144,#125,.T.);
#174=EDGE_CURVE('',#137,#144,#78,.T.);
#175=EDGE_CURVE('',#145,#134,#79,.T.);
#176=EDGE_CURVE('',#146,#145,#80,.T.);
#177=EDGE_CURVE('',#146,#147,#81,.T.);
#178=EDGE_CURVE('',#147,#148,#82,.T.);
#179=EDGE_CURVE('',#149,#148,#83,.T.);
#180=EDGE_CURVE('',#149,#144,#84,.T.);
#181=EDGE_CURVE('',#147,#140,#85,.T.);
#182=EDGE_CURVE('',#141,#146,#86,.T.);
#183=EDGE_CURVE('',#139,#148,#87,.T.);
#184=EDGE_CURVE('',#149,#138,#88,.T.);
#185=EDGE_CURVE('',#145,#142,#89,.T.);
#186=ORIENTED_EDGE('',*,*,#150,.F.);
#187=ORIENTED_EDGE('',*,*,#151,.T.);
#188=ORIENTED_EDGE('',*,*,#152,.F.);
#189=ORIENTED_EDGE('',*,*,#151,.F.);
#190=ORIENTED_EDGE('',*,*,#153,.F.);
#191=ORIENTED_EDGE('',*,*,#154,.T.);
#192=ORIENTED_EDGE('',*,*,#155,.F.);
#193=ORIENTED_EDGE('',*,*,#154,.F.);
#194=ORIENTED_EDGE('',*,*,#156,.F.);
#195=ORIENTED_EDGE('',*,*,#157,.T.);
#196=ORIENTED_EDGE('',*,*,#158,.F.);
#197=ORIENTED_EDGE('',*,*,#157,.F.);
#198=ORIENTED_EDGE('',*,*,#159,.T.);
#199=ORIENTED_EDGE('',*,*,#160,.T.);
#200=ORIENTED_EDGE('',*,*,#161,.T.);
#201=ORIENTED_EDGE('',*,*,#162,.T.);
#202=ORIENTED_EDGE('',*,*,#159,.F.);
#203=ORIENTED_EDGE('',*,*,#163,.T.);
#204=ORIENTED_EDGE('',*,*,#164,.F.);
#205=ORIENTED_EDGE('',*,*,#165,.T.);
#206=ORIENTED_EDGE('',*,*,#166,.F.);
#207=ORIENTED_EDGE('',*,*,#167,.T.);
#208=ORIENTED_EDGE('',*,*,#168,.T.);
#209=ORIENTED_EDGE('',*,*,#169,.T.);
#210=ORIENTED_EDGE('',*,*,#170,.T.);
#211=ORIENTED_EDGE('',*,*,#152,.T.);
#212=ORIENTED_EDGE('',*,*,#155,.T.);
#213=ORIENTED_EDGE('',*,*,#158,.T.);
#214=ORIENTED_EDGE('',*,*,#162,.F.);
#215=ORIENTED_EDGE('',*,*,#171,.F.);
#216=ORIENTED_EDGE('',*,*,#172,.F.);
#217=ORIENTED_EDGE('',*,*,#163,.F.);
#218=ORIENTED_EDGE('',*,*,#164,.T.);
#219=ORIENTED_EDGE('',*,*,#172,.T.);
#220=ORIENTED_EDGE('',*,*,#173,.T.);
#221=ORIENTED_EDGE('',*,*,#174,.F.);
#222=ORIENTED_EDGE('',*,*,#161,.F.);
#223=ORIENTED_EDGE('',*,*,#175,.F.);
#224=ORIENTED_EDGE('',*,*,#176,.F.);
#225=ORIENTED_EDGE('',*,*,#177,.T.);
#226=ORIENTED_EDGE('',*,*,#178,.T.);
#227=ORIENTED_EDGE('',*,*,#179,.F.);
#228=ORIENTED_EDGE('',*,*,#180,.T.);
#229=ORIENTED_EDGE('',*,*,#173,.F.);
#230=ORIENTED_EDGE('',*,*,#171,.T.);
#231=ORIENTED_EDGE('',*,*,#150,.T.);
#232=ORIENTED_EDGE('',*,*,#153,.T.);
#233=ORIENTED_EDGE('',*,*,#156,.T.);
#234=ORIENTED_EDGE('',*,*,#181,.F.);
#235=ORIENTED_EDGE('',*,*,#177,.F.);
#236=ORIENTED_EDGE('',*,*,#182,.F.);
#237=ORIENTED_EDGE('',*,*,#168,.F.);
#238=ORIENTED_EDGE('',*,*,#181,.T.);
#239=ORIENTED_EDGE('',*,*,#167,.F.);
#240=ORIENTED_EDGE('',*,*,#183,.T.);
#241=ORIENTED_EDGE('',*,*,#178,.F.);
#242=ORIENTED_EDGE('',*,*,#179,.T.);
#243=ORIENTED_EDGE('',*,*,#183,.F.);
#244=ORIENTED_EDGE('',*,*,#166,.T.);
#245=ORIENTED_EDGE('',*,*,#184,.F.);
#246=ORIENTED_EDGE('',*,*,#174,.T.);
#247=ORIENTED_EDGE('',*,*,#180,.F.);
#248=ORIENTED_EDGE('',*,*,#184,.T.);
#249=ORIENTED_EDGE('',*,*,#165,.F.);
#250=ORIENTED_EDGE('',*,*,#160,.F.);
#251=ORIENTED_EDGE('',*,*,#170,.F.);
#252=ORIENTED_EDGE('',*,*,#185,.F.);
#253=ORIENTED_EDGE('',*,*,#175,.T.);
#254=ORIENTED_EDGE('',*,*,#182,.T.);
#255=ORIENTED_EDGE('',*,*,#176,.T.);
#256=ORIENTED_EDGE('',*,*,#185,.T.);
#257=ORIENTED_EDGE('',*,*,#169,.F.);
#258=CYLINDRICAL_SURFACE('',#291,3.15);
#259=CYLINDRICAL_SURFACE('',#294,3.15);
#260=CYLINDRICAL_SURFACE('',#297,3.15);
#261=CYLINDRICAL_SURFACE('',#300,30.);
#262=CYLINDRICAL_SURFACE('',#306,35.);
#263=ADVANCED_FACE('',(#30),#258,.F.);
#264=ADVANCED_FACE('',(#31),#259,.F.);
#265=ADVANCED_FACE('',(#32),#260,.F.);
#266=ADVANCED_FACE('',(#33),#261,.T.);
#267=ADVANCED_FACE('',(#34,#15,#16,#17),#21,.T.);
#268=ADVANCED_FACE('',(#35),#22,.F.);
#269=ADVANCED_FACE('',(#36),#262,.T.);
#270=ADVANCED_FACE('',(#37,#18,#19,#20),#23,.F.);
#271=ADVANCED_FACE('',(#38),#24,.F.);
#272=ADVANCED_FACE('',(#39),#25,.F.);
#273=ADVANCED_FACE('',(#40),#26,.T.);
#274=ADVANCED_FACE('',(#41),#27,.F.);
#275=ADVANCED_FACE('',(#42),#28,.T.);
#276=ADVANCED_FACE('',(#43),#29,.T.);
#277=CLOSED_SHELL('',(#263,#264,#265,#266,#267,#268,#269,#270,#271,#272,
#273,#274,#275,#276));
#278=DERIVED_UNIT_ELEMENT(#280,1.);
#279=DERIVED_UNIT_ELEMENT(#471,-3.);
#280=(
MASS_UNIT()
NAMED_UNIT(*)
SI_UNIT(.KILO.,.GRAM.)
);
#281=DERIVED_UNIT((#278,#279));
#282=MEASURE_REPRESENTATION_ITEM('density measure',
POSITIVE_RATIO_MEASURE(7850.),#281);
#283=PROPERTY_DEFINITION_REPRESENTATION(#288,#285);
#284=PROPERTY_DEFINITION_REPRESENTATION(#289,#286);
#285=REPRESENTATION('material name',(#287),#468);
#286=REPRESENTATION('density',(#282),#468);
#287=DESCRIPTIVE_REPRESENTATION_ITEM('Steel','Steel');
#288=PROPERTY_DEFINITION('material property','material name',#478);
#289=PROPERTY_DEFINITION('material property','density of part',#478);
#290=AXIS2_PLACEMENT_3D('',#391,#315,#316);
#291=AXIS2_PLACEMENT_3D('',#392,#317,#318);
#292=AXIS2_PLACEMENT_3D('',#394,#319,#320);
#293=AXIS2_PLACEMENT_3D('',#397,#322,#323);
#294=AXIS2_PLACEMENT_3D('',#398,#324,#325);
#295=AXIS2_PLACEMENT_3D('',#400,#326,#327);
#296=AXIS2_PLACEMENT_3D('',#403,#329,#330);
#297=AXIS2_PLACEMENT_3D('',#404,#331,#332);
#298=AXIS2_PLACEMENT_3D('',#406,#333,#334);
#299=AXIS2_PLACEMENT_3D('',#409,#336,#337);
#300=AXIS2_PLACEMENT_3D('',#410,#338,#339);
#301=AXIS2_PLACEMENT_3D('',#413,#340,#341);
#302=AXIS2_PLACEMENT_3D('',#417,#343,#344);
#303=AXIS2_PLACEMENT_3D('',#419,#346,#347);
#304=AXIS2_PLACEMENT_3D('',#423,#349,#350);
#305=AXIS2_PLACEMENT_3D('',#435,#357,#358);
#306=AXIS2_PLACEMENT_3D('',#439,#361,#362);
#307=AXIS2_PLACEMENT_3D('',#441,#363,#364);
#308=AXIS2_PLACEMENT_3D('',#443,#366,#367);
#309=AXIS2_PLACEMENT_3D('',#455,#374,#375);
#310=AXIS2_PLACEMENT_3D('',#458,#378,#379);
#311=AXIS2_PLACEMENT_3D('',#460,#381,#382);
#312=AXIS2_PLACEMENT_3D('',#462,#384,#385);
#313=AXIS2_PLACEMENT_3D('',#463,#386,#387);
#314=AXIS2_PLACEMENT_3D('',#465,#389,#390);
#315=DIRECTION('axis',(0.,0.,1.));
#316=DIRECTION('refdir',(1.,0.,0.));
#317=DIRECTION('center_axis',(0.,0.,1.));
#318=DIRECTION('ref_axis',(-1.,0.,0.));
#319=DIRECTION('center_axis',(0.,0.,1.));
#320=DIRECTION('ref_axis',(-1.,0.,0.));
#321=DIRECTION('',(0.,0.,1.));
#322=DIRECTION('center_axis',(0.,0.,-1.));
#323=DIRECTION('ref_axis',(-1.,0.,0.));
#324=DIRECTION('center_axis',(0.,0.,1.));
#325=DIRECTION('ref_axis',(-1.,0.,0.));
#326=DIRECTION('center_axis',(0.,0.,1.));
#327=DIRECTION('ref_axis',(-1.,0.,0.));
#328=DIRECTION('',(0.,0.,1.));
#329=DIRECTION('center_axis',(0.,0.,-1.));
#330=DIRECTION('ref_axis',(-1.,0.,0.));
#331=DIRECTION('center_axis',(0.,0.,1.));
#332=DIRECTION('ref_axis',(-1.,0.,0.));
#333=DIRECTION('center_axis',(0.,0.,1.));
#334=DIRECTION('ref_axis',(-1.,0.,0.));
#335=DIRECTION('',(0.,0.,1.));
#336=DIRECTION('center_axis',(0.,0.,-1.));
#337=DIRECTION('ref_axis',(-1.,0.,0.));
#338=DIRECTION('center_axis',(0.,0.,1.));
#339=DIRECTION('ref_axis',(-0.707106781186548,0.707106781186547,0.));
#340=DIRECTION('center_axis',(0.,0.,-1.));
#341=DIRECTION('ref_axis',(-0.707106781186548,0.707106781186547,0.));
#342=DIRECTION('',(0.,0.,-1.));
#343=DIRECTION('center_axis',(0.,0.,1.));
#344=DIRECTION('ref_axis',(-0.707106781186548,0.707106781186547,0.));
#345=DIRECTION('',(0.,0.,1.));
#346=DIRECTION('center_axis',(0.,0.,1.));
#347=DIRECTION('ref_axis',(1.,0.,0.));
#348=DIRECTION('',(0.,-1.,0.));
#349=DIRECTION('center_axis',(0.,0.,-1.));
#350=DIRECTION('ref_axis',(-0.0285367938284425,-0.999592742769771,0.));
#351=DIRECTION('',(0.,1.,0.));
#352=DIRECTION('',(-1.,0.,0.));
#353=DIRECTION('',(0.,-1.,0.));
#354=DIRECTION('',(1.,0.,0.));
#355=DIRECTION('',(0.,1.,0.));
#356=DIRECTION('',(-1.,0.,0.));
#357=DIRECTION('center_axis',(1.,0.,0.));
#358=DIRECTION('ref_axis',(0.,0.,-1.));
#359=DIRECTION('',(0.,1.,0.));
#360=DIRECTION('',(0.,0.,-1.));
#361=DIRECTION('center_axis',(0.,0.,-1.));
#362=DIRECTION('ref_axis',(-0.0285367938284425,-0.999592742769771,0.));
#363=DIRECTION('center_axis',(0.,0.,1.));
#364=DIRECTION('ref_axis',(-0.0285367938284425,-0.999592742769771,0.));
#365=DIRECTION('',(0.,0.,-1.));
#366=DIRECTION('center_axis',(0.,0.,1.));
#367=DIRECTION('ref_axis',(1.,0.,0.));
#368=DIRECTION('',(-1.,0.,0.));
#369=DIRECTION('',(0.,1.,0.));
#370=DIRECTION('',(-1.,0.,0.));
#371=DIRECTION('',(0.,1.,0.));
#372=DIRECTION('',(1.,0.,0.));
#373=DIRECTION('',(0.,-1.,0.));
#374=DIRECTION('center_axis',(0.,1.,0.));
#375=DIRECTION('ref_axis',(0.,0.,1.));
#376=DIRECTION('',(0.,0.,1.));
#377=DIRECTION('',(0.,0.,-1.));
#378=DIRECTION('center_axis',(1.,0.,0.));
#379=DIRECTION('ref_axis',(0.,0.,-1.));
#380=DIRECTION('',(0.,0.,-1.));
#381=DIRECTION('center_axis',(0.,-1.,0.));
#382=DIRECTION('ref_axis',(0.,0.,-1.));
#383=DIRECTION('',(0.,0.,1.));
#384=DIRECTION('center_axis',(-1.,0.,0.));
#385=DIRECTION('ref_axis',(0.,1.,0.));
#386=DIRECTION('center_axis',(0.,1.,0.));
#387=DIRECTION('ref_axis',(-1.,0.,0.));
#388=DIRECTION('',(0.,0.,1.));
#389=DIRECTION('center_axis',(1.,0.,0.));
#390=DIRECTION('ref_axis',(0.,1.,0.));
#391=CARTESIAN_POINT('',(0.,0.,0.));
#392=CARTESIAN_POINT('Origin',(36.98616486877,-0.237396217102079,7.5));
#393=CARTESIAN_POINT('',(40.13616486877,-0.237396217102079,0.));
#394=CARTESIAN_POINT('Origin',(36.98616486877,-0.237396217102079,0.));
#395=CARTESIAN_POINT('',(40.13616486877,-0.237396217102079,15.));
#396=CARTESIAN_POINT('',(40.13616486877,-0.237396217102079,7.5));
#397=CARTESIAN_POINT('Origin',(36.98616486877,-0.237396217102079,15.));
#398=CARTESIAN_POINT('Origin',(36.7831849764068,-20.0408170825314,7.5));
#399=CARTESIAN_POINT('',(39.9331849764068,-20.0408170825314,0.));
#400=CARTESIAN_POINT('Origin',(36.7831849764068,-20.0408170825314,0.));
#401=CARTESIAN_POINT('',(39.9331849764068,-20.0408170825314,15.));
#402=CARTESIAN_POINT('',(39.9331849764068,-20.0408170825314,7.5));
#403=CARTESIAN_POINT('Origin',(36.7831849764068,-20.0408170825314,15.));
#404=CARTESIAN_POINT('Origin',(-55.0962604120081,-10.0219480542137,7.5));
#405=CARTESIAN_POINT('',(-51.9462604120081,-10.0219480542137,0.));
#406=CARTESIAN_POINT('Origin',(-55.0962604120081,-10.0219480542137,0.));
#407=CARTESIAN_POINT('',(-51.9462604120081,-10.0219480542137,15.));
#408=CARTESIAN_POINT('',(-51.9462604120081,-10.0219480542137,7.5));
#409=CARTESIAN_POINT('Origin',(-55.0962604120081,-10.0219480542137,15.));
#410=CARTESIAN_POINT('Origin',(-33.,-3.31671149227247,0.));
#411=CARTESIAN_POINT('',(-63.,-3.31671149227247,15.));
#412=CARTESIAN_POINT('',(-33.,26.6832885077275,15.));
#413=CARTESIAN_POINT('Origin',(-33.,-3.31671149227247,15.));
#414=CARTESIAN_POINT('',(-33.,26.6832885077275,0.));
#415=CARTESIAN_POINT('',(-33.,26.6832885077275,0.));
#416=CARTESIAN_POINT('',(-63.,-3.31671149227247,0.));
#417=CARTESIAN_POINT('Origin',(-33.,-3.31671149227247,0.));
#418=CARTESIAN_POINT('',(-63.,-3.31671149227247,0.));
#419=CARTESIAN_POINT('Origin',(-6.77369997945473,-11.6583557461362,15.));
#420=CARTESIAN_POINT('',(-63.,-12.014254003058,15.));
#421=CARTESIAN_POINT('',(-63.,7.51246638079564,15.));
#422=CARTESIAN_POINT('',(-28.9987877839955,-47.,15.));
#423=CARTESIAN_POINT('Origin',(-28.,-12.014254003058,15.));
#424=CARTESIAN_POINT('',(-28.9987877839955,4.93966245743542,15.));
#425=CARTESIAN_POINT('',(-28.9987877839955,-30.8291778730681,15.));
#426=CARTESIAN_POINT('',(8.99999999999999,4.93966245743542,15.));
#427=CARTESIAN_POINT('',(-3.88684998972737,4.93966245743542,15.));
#428=CARTESIAN_POINT('',(8.99999999999999,-47.,15.));
#429=CARTESIAN_POINT('',(8.99999999999999,-0.359346644350409,15.));
#430=CARTESIAN_POINT('',(51.4526000410905,-47.,15.));
#431=CARTESIAN_POINT('',(-35.8868499897274,-47.,15.));
#432=CARTESIAN_POINT('',(51.4526000410905,26.6832885077275,15.));
#433=CARTESIAN_POINT('',(51.4526000410905,-50.,15.));
#434=CARTESIAN_POINT('',(51.4526000410905,26.6832885077275,15.));
#435=CARTESIAN_POINT('Origin',(-63.,26.6832885077275,0.));
#436=CARTESIAN_POINT('',(-63.,-12.014254003058,0.));
#437=CARTESIAN_POINT('',(-63.,7.51246638079564,0.));
#438=CARTESIAN_POINT('',(-63.,-12.014254003058,7.5));
#439=CARTESIAN_POINT('Origin',(-28.,-12.014254003058,7.5));
#440=CARTESIAN_POINT('',(-28.9987877839955,-47.,0.));
#441=CARTESIAN_POINT('Origin',(-28.,-12.014254003058,0.));
#442=CARTESIAN_POINT('',(-28.9987877839955,-47.,7.5));
#443=CARTESIAN_POINT('Origin',(-6.77369997945473,-11.6583557461362,0.));
#444=CARTESIAN_POINT('',(51.4526000410905,26.6832885077275,0.));
#445=CARTESIAN_POINT('',(51.4526000410905,26.6832885077275,0.));
#446=CARTESIAN_POINT('',(51.4526000410905,-47.,0.));
#447=CARTESIAN_POINT('',(51.4526000410905,-50.,0.));
#448=CARTESIAN_POINT('',(8.99999999999999,-47.,0.));
#449=CARTESIAN_POINT('',(-35.8868499897274,-47.,0.));
#450=CARTESIAN_POINT('',(8.99999999999999,4.93966245743542,0.));
#451=CARTESIAN_POINT('',(8.99999999999999,-0.359346644350409,0.));
#452=CARTESIAN_POINT('',(-28.9987877839955,4.93966245743542,0.));
#453=CARTESIAN_POINT('',(-3.88684998972737,4.93966245743542,0.));
#454=CARTESIAN_POINT('',(-28.9987877839955,-30.8291778730681,0.));
#455=CARTESIAN_POINT('Origin',(-65.,-47.,0.));
#456=CARTESIAN_POINT('',(8.99999999999999,-47.,7.5));
#457=CARTESIAN_POINT('',(51.4526000410905,-47.,0.));
#458=CARTESIAN_POINT('Origin',(8.99999999999999,10.9396624574354,15.));
#459=CARTESIAN_POINT('',(8.99999999999999,4.93966245743542,15.));
#460=CARTESIAN_POINT('Origin',(-28.9987877839955,4.93966245743542,15.));
#461=CARTESIAN_POINT('',(-28.9987877839955,4.93966245743541,15.));
#462=CARTESIAN_POINT('Origin',(-28.9987877839955,-50.,15.));
#463=CARTESIAN_POINT('Origin',(51.4526000410905,26.6832885077275,0.));
#464=CARTESIAN_POINT('',(51.4526000410905,26.6832885077275,0.));
#465=CARTESIAN_POINT('Origin',(51.4526000410905,-50.,0.));
#466=UNCERTAINTY_MEASURE_WITH_UNIT(LENGTH_MEASURE(0.01),#470,
'DISTANCE_ACCURACY_VALUE',
'Maximum model space distance between geometric entities at asserted c
onnectivities');
#467=UNCERTAINTY_MEASURE_WITH_UNIT(LENGTH_MEASURE(0.01),#470,
'DISTANCE_ACCURACY_VALUE',
'Maximum model space distance between geometric entities at asserted c
onnectivities');
#468=(
GEOMETRIC_REPRESENTATION_CONTEXT(3)
GLOBAL_UNCERTAINTY_ASSIGNED_CONTEXT((#466))
GLOBAL_UNIT_ASSIGNED_CONTEXT((#470,#472,#473))
REPRESENTATION_CONTEXT('','3D')
);
#469=(
GEOMETRIC_REPRESENTATION_CONTEXT(3)
GLOBAL_UNCERTAINTY_ASSIGNED_CONTEXT((#467))
GLOBAL_UNIT_ASSIGNED_CONTEXT((#470,#472,#473))
REPRESENTATION_CONTEXT('','3D')
);
#470=(
LENGTH_UNIT()
NAMED_UNIT(*)
SI_UNIT(.MILLI.,.METRE.)
);
#471=(
LENGTH_UNIT()
NAMED_UNIT(*)
SI_UNIT($,.METRE.)
);
#472=(
NAMED_UNIT(*)
PLANE_ANGLE_UNIT()
SI_UNIT($,.RADIAN.)
);
#473=(
NAMED_UNIT(*)
SI_UNIT($,.STERADIAN.)
SOLID_ANGLE_UNIT()
);
#474=SHAPE_DEFINITION_REPRESENTATION(#475,#476);
#475=PRODUCT_DEFINITION_SHAPE('',$,#478);
#476=SHAPE_REPRESENTATION('',(#290),#468);
#477=PRODUCT_DEFINITION_CONTEXT('part definition',#482,'design');
#478=PRODUCT_DEFINITION('Configuration 1','(Unsaved)',#479,#477);
#479=PRODUCT_DEFINITION_FORMATION('',$,#484);
#480=PRODUCT_RELATED_PRODUCT_CATEGORY('(Unsaved)','(Unsaved)',(#484));
#481=APPLICATION_PROTOCOL_DEFINITION('international standard',
'automotive_design',2009,#482);
#482=APPLICATION_CONTEXT(
'Core Data for Automotive Mechanical Design Process');
#483=PRODUCT_CONTEXT('part definition',#482,'mechanical');
#484=PRODUCT('Configuration 1','(Unsaved)',$,(#483));
#485=PRESENTATION_STYLE_ASSIGNMENT((#486));
#486=SURFACE_STYLE_USAGE(.BOTH.,#487);
#487=SURFACE_SIDE_STYLE('',(#488));
#488=SURFACE_STYLE_FILL_AREA(#489);
#489=FILL_AREA_STYLE('Steel - Satin',(#490));
#490=FILL_AREA_STYLE_COLOUR('Steel - Satin',#491);
#491=COLOUR_RGB('Steel - Satin',0.627450980392157,0.627450980392157,0.627450980392157);
ENDSEC;
END-ISO-10303-21;
