ISO-10303-21;
HEADER;
/* Generated by software containing ST-Developer
 * from STEP Tools, Inc. (www.steptools.com) 
 */

FILE_DESCRIPTION(
/* description */ (''),
/* implementation_level */ '2;1');

FILE_NAME(
/* name */ 'plastic model 1.step',
/* time_stamp */ '2026-07-02T14:48:46+05:30',
/* author */ (''),
/* organization */ (''),
/* preprocessor_version */ 'ST-DEVELOPER v20.1',
/* originating_system */ 'Autodesk Translation Framework v15.8.0.0',
/* authorisation */ '');

FILE_SCHEMA (('AUTOMOTIVE_DESIGN { 1 0 10303 214 3 1 1 }'));
ENDSEC;

DATA;
#10=MECHANICAL_DESIGN_GEOMETRIC_PRESENTATION_REPRESENTATION('',(#13),#450);
#11=SHAPE_REPRESENTATION_RELATIONSHIP('SRR','None',#457,#12);
#12=ADVANCED_BREP_SHAPE_REPRESENTATION('',(#14),#449);
#13=STYLED_ITEM('',(#466),#14);
#14=MANIFOLD_SOLID_BREP('Body1',#257);
#15=SPHERICAL_SURFACE('',#290,50.);
#16=B_SPLINE_CURVE_WITH_KNOTS('',3,(#399,#400,#401,#402),.UNSPECIFIED.,
 .F.,.F.,(4,4),(6.27901539059769,6.28581481008769),.UNSPECIFIED.);
#17=B_SPLINE_CURVE_WITH_KNOTS('',3,(#406,#407,#408,#409),.UNSPECIFIED.,
 .F.,.F.,(4,4),(11.8931710950791,11.8995780554851),.UNSPECIFIED.);
#18=CIRCLE('',#274,30.);
#19=CIRCLE('',#275,30.);
#20=CIRCLE('',#276,30.);
#21=CIRCLE('',#277,30.);
#22=CIRCLE('',#280,46.481235055219);
#23=CIRCLE('',#285,47.0402510140093);
#24=CIRCLE('',#288,25.);
#25=CIRCLE('',#291,25.);
#26=CIRCLE('',#292,50.);
#27=CIRCLE('',#293,25.);
#28=CYLINDRICAL_SURFACE('',#273,30.);
#29=CYLINDRICAL_SURFACE('',#279,46.481235055219);
#30=CYLINDRICAL_SURFACE('',#284,47.0402510140093);
#31=CYLINDRICAL_SURFACE('',#294,25.);
#32=FACE_OUTER_BOUND('',#46,.T.);
#33=FACE_OUTER_BOUND('',#47,.T.);
#34=FACE_OUTER_BOUND('',#48,.T.);
#35=FACE_OUTER_BOUND('',#49,.T.);
#36=FACE_OUTER_BOUND('',#50,.T.);
#37=FACE_OUTER_BOUND('',#51,.T.);
#38=FACE_OUTER_BOUND('',#52,.T.);
#39=FACE_OUTER_BOUND('',#53,.T.);
#40=FACE_OUTER_BOUND('',#54,.T.);
#41=FACE_OUTER_BOUND('',#55,.T.);
#42=FACE_OUTER_BOUND('',#56,.T.);
#43=FACE_OUTER_BOUND('',#57,.T.);
#44=FACE_OUTER_BOUND('',#58,.T.);
#45=FACE_OUTER_BOUND('',#59,.T.);
#46=EDGE_LOOP('',(#164,#165,#166,#167));
#47=EDGE_LOOP('',(#168,#169,#170,#171));
#48=EDGE_LOOP('',(#172,#173,#174,#175,#176,#177,#178,#179,#180,#181));
#49=EDGE_LOOP('',(#182,#183,#184));
#50=EDGE_LOOP('',(#185,#186,#187,#188));
#51=EDGE_LOOP('',(#189,#190,#191,#192));
#52=EDGE_LOOP('',(#193,#194,#195,#196));
#53=EDGE_LOOP('',(#197,#198,#199,#200));
#54=EDGE_LOOP('',(#201,#202,#203,#204));
#55=EDGE_LOOP('',(#205,#206,#207,#208));
#56=EDGE_LOOP('',(#209,#210,#211,#212,#213,#214,#215,#216,#217));
#57=EDGE_LOOP('',(#218,#219,#220,#221,#222));
#58=EDGE_LOOP('',(#223,#224,#225,#226,#227,#228));
#59=EDGE_LOOP('',(#229,#230,#231,#232,#233));
#60=LINE('',#372,#83);
#61=LINE('',#374,#84);
#62=LINE('',#376,#85);
#63=LINE('',#377,#86);
#64=LINE('',#380,#87);
#65=LINE('',#382,#88);
#66=LINE('',#383,#89);
#67=LINE('',#389,#90);
#68=LINE('',#393,#91);
#69=LINE('',#397,#92);
#70=LINE('',#410,#93);
#71=LINE('',#413,#94);
#72=LINE('',#414,#95);
#73=LINE('',#417,#96);
#74=LINE('',#421,#97);
#75=LINE('',#422,#98);
#76=LINE('',#424,#99);
#77=LINE('',#425,#100);
#78=LINE('',#428,#101);
#79=LINE('',#430,#102);
#80=LINE('',#431,#103);
#81=LINE('',#435,#104);
#82=LINE('',#436,#105);
#83=VECTOR('',#299,10.);
#84=VECTOR('',#300,10.);
#85=VECTOR('',#301,10.);
#86=VECTOR('',#302,10.);
#87=VECTOR('',#305,10.);
#88=VECTOR('',#306,10.);
#89=VECTOR('',#307,10.);
#90=VECTOR('',#312,10.);
#91=VECTOR('',#315,10.);
#92=VECTOR('',#318,10.);
#93=VECTOR('',#321,10.);
#94=VECTOR('',#324,10.);
#95=VECTOR('',#325,10.);
#96=VECTOR('',#328,10.);
#97=VECTOR('',#333,10.);
#98=VECTOR('',#334,10.);
#99=VECTOR('',#337,10.);
#100=VECTOR('',#338,10.);
#101=VECTOR('',#341,10.);
#102=VECTOR('',#342,10.);
#103=VECTOR('',#343,10.);
#104=VECTOR('',#350,10.);
#105=VECTOR('',#351,10.);
#106=VERTEX_POINT('',#370);
#107=VERTEX_POINT('',#371);
#108=VERTEX_POINT('',#373);
#109=VERTEX_POINT('',#375);
#110=VERTEX_POINT('',#379);
#111=VERTEX_POINT('',#381);
#112=VERTEX_POINT('',#385);
#113=VERTEX_POINT('',#386);
#114=VERTEX_POINT('',#388);
#115=VERTEX_POINT('',#390);
#116=VERTEX_POINT('',#392);
#117=VERTEX_POINT('',#394);
#118=VERTEX_POINT('',#396);
#119=VERTEX_POINT('',#398);
#120=VERTEX_POINT('',#403);
#121=VERTEX_POINT('',#405);
#122=VERTEX_POINT('',#412);
#123=VERTEX_POINT('',#416);
#124=VERTEX_POINT('',#420);
#125=VERTEX_POINT('',#427);
#126=VERTEX_POINT('',#429);
#127=VERTEX_POINT('',#441);
#128=VERTEX_POINT('',#443);
#129=EDGE_CURVE('',#106,#107,#60,.T.);
#130=EDGE_CURVE('',#107,#108,#61,.T.);
#131=EDGE_CURVE('',#108,#109,#62,.T.);
#132=EDGE_CURVE('',#109,#106,#63,.T.);
#133=EDGE_CURVE('',#110,#106,#64,.T.);
#134=EDGE_CURVE('',#111,#109,#65,.T.);
#135=EDGE_CURVE('',#111,#110,#66,.T.);
#136=EDGE_CURVE('',#112,#113,#18,.T.);
#137=EDGE_CURVE('',#113,#114,#67,.T.);
#138=EDGE_CURVE('',#114,#115,#19,.T.);
#139=EDGE_CURVE('',#115,#116,#68,.T.);
#140=EDGE_CURVE('',#116,#117,#20,.T.);
#141=EDGE_CURVE('',#117,#118,#69,.T.);
#142=EDGE_CURVE('',#118,#119,#16,.T.);
#143=EDGE_CURVE('',#119,#120,#21,.T.);
#144=EDGE_CURVE('',#120,#121,#17,.T.);
#145=EDGE_CURVE('',#121,#112,#70,.T.);
#146=EDGE_CURVE('',#122,#119,#71,.T.);
#147=EDGE_CURVE('',#122,#120,#72,.T.);
#148=EDGE_CURVE('',#123,#118,#73,.T.);
#149=EDGE_CURVE('',#122,#123,#22,.T.);
#150=EDGE_CURVE('',#124,#117,#74,.T.);
#151=EDGE_CURVE('',#123,#124,#75,.T.);
#152=EDGE_CURVE('',#110,#115,#76,.T.);
#153=EDGE_CURVE('',#116,#111,#77,.T.);
#154=EDGE_CURVE('',#125,#121,#78,.T.);
#155=EDGE_CURVE('',#126,#125,#79,.T.);
#156=EDGE_CURVE('',#126,#112,#80,.T.);
#157=EDGE_CURVE('',#125,#122,#23,.T.);
#158=EDGE_CURVE('',#113,#108,#81,.T.);
#159=EDGE_CURVE('',#114,#107,#82,.T.);
#160=EDGE_CURVE('',#126,#124,#24,.T.);
#161=EDGE_CURVE('',#123,#127,#25,.T.);
#162=EDGE_CURVE('',#127,#128,#26,.T.);
#163=EDGE_CURVE('',#127,#125,#27,.T.);
#164=ORIENTED_EDGE('',*,*,#129,.T.);
#165=ORIENTED_EDGE('',*,*,#130,.T.);
#166=ORIENTED_EDGE('',*,*,#131,.T.);
#167=ORIENTED_EDGE('',*,*,#132,.T.);
#168=ORIENTED_EDGE('',*,*,#133,.T.);
#169=ORIENTED_EDGE('',*,*,#132,.F.);
#170=ORIENTED_EDGE('',*,*,#134,.F.);
#171=ORIENTED_EDGE('',*,*,#135,.T.);
#172=ORIENTED_EDGE('',*,*,#136,.T.);
#173=ORIENTED_EDGE('',*,*,#137,.T.);
#174=ORIENTED_EDGE('',*,*,#138,.T.);
#175=ORIENTED_EDGE('',*,*,#139,.T.);
#176=ORIENTED_EDGE('',*,*,#140,.T.);
#177=ORIENTED_EDGE('',*,*,#141,.T.);
#178=ORIENTED_EDGE('',*,*,#142,.T.);
#179=ORIENTED_EDGE('',*,*,#143,.T.);
#180=ORIENTED_EDGE('',*,*,#144,.T.);
#181=ORIENTED_EDGE('',*,*,#145,.T.);
#182=ORIENTED_EDGE('',*,*,#143,.F.);
#183=ORIENTED_EDGE('',*,*,#146,.F.);
#184=ORIENTED_EDGE('',*,*,#147,.T.);
#185=ORIENTED_EDGE('',*,*,#142,.F.);
#186=ORIENTED_EDGE('',*,*,#148,.F.);
#187=ORIENTED_EDGE('',*,*,#149,.F.);
#188=ORIENTED_EDGE('',*,*,#146,.T.);
#189=ORIENTED_EDGE('',*,*,#141,.F.);
#190=ORIENTED_EDGE('',*,*,#150,.F.);
#191=ORIENTED_EDGE('',*,*,#151,.F.);
#192=ORIENTED_EDGE('',*,*,#148,.T.);
#193=ORIENTED_EDGE('',*,*,#139,.F.);
#194=ORIENTED_EDGE('',*,*,#152,.F.);
#195=ORIENTED_EDGE('',*,*,#135,.F.);
#196=ORIENTED_EDGE('',*,*,#153,.F.);
#197=ORIENTED_EDGE('',*,*,#145,.F.);
#198=ORIENTED_EDGE('',*,*,#154,.F.);
#199=ORIENTED_EDGE('',*,*,#155,.F.);
#200=ORIENTED_EDGE('',*,*,#156,.T.);
#201=ORIENTED_EDGE('',*,*,#144,.F.);
#202=ORIENTED_EDGE('',*,*,#147,.F.);
#203=ORIENTED_EDGE('',*,*,#157,.F.);
#204=ORIENTED_EDGE('',*,*,#154,.T.);
#205=ORIENTED_EDGE('',*,*,#137,.F.);
#206=ORIENTED_EDGE('',*,*,#158,.T.);
#207=ORIENTED_EDGE('',*,*,#130,.F.);
#208=ORIENTED_EDGE('',*,*,#159,.F.);
#209=ORIENTED_EDGE('',*,*,#136,.F.);
#210=ORIENTED_EDGE('',*,*,#156,.F.);
#211=ORIENTED_EDGE('',*,*,#160,.T.);
#212=ORIENTED_EDGE('',*,*,#150,.T.);
#213=ORIENTED_EDGE('',*,*,#140,.F.);
#214=ORIENTED_EDGE('',*,*,#153,.T.);
#215=ORIENTED_EDGE('',*,*,#134,.T.);
#216=ORIENTED_EDGE('',*,*,#131,.F.);
#217=ORIENTED_EDGE('',*,*,#158,.F.);
#218=ORIENTED_EDGE('',*,*,#138,.F.);
#219=ORIENTED_EDGE('',*,*,#159,.T.);
#220=ORIENTED_EDGE('',*,*,#129,.F.);
#221=ORIENTED_EDGE('',*,*,#133,.F.);
#222=ORIENTED_EDGE('',*,*,#152,.T.);
#223=ORIENTED_EDGE('',*,*,#157,.T.);
#224=ORIENTED_EDGE('',*,*,#149,.T.);
#225=ORIENTED_EDGE('',*,*,#161,.T.);
#226=ORIENTED_EDGE('',*,*,#162,.T.);
#227=ORIENTED_EDGE('',*,*,#162,.F.);
#228=ORIENTED_EDGE('',*,*,#163,.T.);
#229=ORIENTED_EDGE('',*,*,#155,.T.);
#230=ORIENTED_EDGE('',*,*,#163,.F.);
#231=ORIENTED_EDGE('',*,*,#161,.F.);
#232=ORIENTED_EDGE('',*,*,#151,.T.);
#233=ORIENTED_EDGE('',*,*,#160,.F.);
#234=PLANE('',#271);
#235=PLANE('',#272);
#236=PLANE('',#278);
#237=PLANE('',#281);
#238=PLANE('',#282);
#239=PLANE('',#283);
#240=PLANE('',#286);
#241=PLANE('',#287);
#242=PLANE('',#289);
#243=ADVANCED_FACE('',(#32),#234,.T.);
#244=ADVANCED_FACE('',(#33),#235,.T.);
#245=ADVANCED_FACE('',(#34),#28,.T.);
#246=ADVANCED_FACE('',(#35),#236,.T.);
#247=ADVANCED_FACE('',(#36),#29,.F.);
#248=ADVANCED_FACE('',(#37),#237,.T.);
#249=ADVANCED_FACE('',(#38),#238,.T.);
#250=ADVANCED_FACE('',(#39),#239,.T.);
#251=ADVANCED_FACE('',(#40),#30,.F.);
#252=ADVANCED_FACE('',(#41),#240,.T.);
#253=ADVANCED_FACE('',(#42),#241,.T.);
#254=ADVANCED_FACE('',(#43),#242,.F.);
#255=ADVANCED_FACE('',(#44),#15,.T.);
#256=ADVANCED_FACE('',(#45),#31,.T.);
#257=CLOSED_SHELL('',(#243,#244,#245,#246,#247,#248,#249,#250,#251,#252,
#253,#254,#255,#256));
#258=DERIVED_UNIT_ELEMENT(#260,1.);
#259=DERIVED_UNIT_ELEMENT(#452,-3.);
#260=(
MASS_UNIT()
NAMED_UNIT(*)
SI_UNIT(.KILO.,.GRAM.)
);
#261=DERIVED_UNIT((#258,#259));
#262=MEASURE_REPRESENTATION_ITEM('density measure',
POSITIVE_RATIO_MEASURE(7850.),#261);
#263=PROPERTY_DEFINITION_REPRESENTATION(#268,#265);
#264=PROPERTY_DEFINITION_REPRESENTATION(#269,#266);
#265=REPRESENTATION('material name',(#267),#449);
#266=REPRESENTATION('density',(#262),#449);
#267=DESCRIPTIVE_REPRESENTATION_ITEM('Steel','Steel');
#268=PROPERTY_DEFINITION('material property','material name',#459);
#269=PROPERTY_DEFINITION('material property','density of part',#459);
#270=AXIS2_PLACEMENT_3D('',#368,#295,#296);
#271=AXIS2_PLACEMENT_3D('',#369,#297,#298);
#272=AXIS2_PLACEMENT_3D('',#378,#303,#304);
#273=AXIS2_PLACEMENT_3D('',#384,#308,#309);
#274=AXIS2_PLACEMENT_3D('',#387,#310,#311);
#275=AXIS2_PLACEMENT_3D('',#391,#313,#314);
#276=AXIS2_PLACEMENT_3D('',#395,#316,#317);
#277=AXIS2_PLACEMENT_3D('',#404,#319,#320);
#278=AXIS2_PLACEMENT_3D('',#411,#322,#323);
#279=AXIS2_PLACEMENT_3D('',#415,#326,#327);
#280=AXIS2_PLACEMENT_3D('',#418,#329,#330);
#281=AXIS2_PLACEMENT_3D('',#419,#331,#332);
#282=AXIS2_PLACEMENT_3D('',#423,#335,#336);
#283=AXIS2_PLACEMENT_3D('',#426,#339,#340);
#284=AXIS2_PLACEMENT_3D('',#432,#344,#345);
#285=AXIS2_PLACEMENT_3D('',#433,#346,#347);
#286=AXIS2_PLACEMENT_3D('',#434,#348,#349);
#287=AXIS2_PLACEMENT_3D('',#437,#352,#353);
#288=AXIS2_PLACEMENT_3D('',#438,#354,#355);
#289=AXIS2_PLACEMENT_3D('',#439,#356,#357);
#290=AXIS2_PLACEMENT_3D('',#440,#358,#359);
#291=AXIS2_PLACEMENT_3D('',#442,#360,#361);
#292=AXIS2_PLACEMENT_3D('',#444,#362,#363);
#293=AXIS2_PLACEMENT_3D('',#445,#364,#365);
#294=AXIS2_PLACEMENT_3D('',#446,#366,#367);
#295=DIRECTION('axis',(0.,0.,1.));
#296=DIRECTION('refdir',(1.,0.,0.));
#297=DIRECTION('center_axis',(0.,-1.,0.));
#298=DIRECTION('ref_axis',(0.,0.,-1.));
#299=DIRECTION('',(-1.,0.,0.));
#300=DIRECTION('',(0.,0.,-1.));
#301=DIRECTION('',(1.,0.,0.));
#302=DIRECTION('',(0.,0.,1.));
#303=DIRECTION('center_axis',(1.,0.,0.));
#304=DIRECTION('ref_axis',(0.,0.,-1.));
#305=DIRECTION('',(0.,-1.,0.));
#306=DIRECTION('',(0.,-1.,0.));
#307=DIRECTION('',(0.,0.,1.));
#308=DIRECTION('center_axis',(0.,0.,-1.));
#309=DIRECTION('ref_axis',(-0.707106781186547,0.707106781186547,0.));
#310=DIRECTION('center_axis',(0.,0.,1.));
#311=DIRECTION('ref_axis',(-0.707106781186547,0.707106781186547,0.));
#312=DIRECTION('',(0.,0.,1.));
#313=DIRECTION('center_axis',(0.,0.,-1.));
#314=DIRECTION('ref_axis',(-0.707106781186547,0.707106781186547,0.));
#315=DIRECTION('',(0.,0.,-1.));
#316=DIRECTION('center_axis',(0.,0.,1.));
#317=DIRECTION('ref_axis',(-0.707106781186547,0.707106781186547,0.));
#318=DIRECTION('',(0.,0.,-1.));
#319=DIRECTION('center_axis',(0.,0.,1.));
#320=DIRECTION('ref_axis',(-0.707106781186547,0.707106781186547,0.));
#321=DIRECTION('',(0.,0.,1.));
#322=DIRECTION('center_axis',(0.,0.,-1.));
#323=DIRECTION('ref_axis',(0.,-1.,0.));
#324=DIRECTION('',(0.,1.,0.));
#325=DIRECTION('',(-1.,0.,0.));
#326=DIRECTION('center_axis',(0.,1.,0.));
#327=DIRECTION('ref_axis',(0.,0.,-1.));
#328=DIRECTION('',(0.,1.,0.));
#329=DIRECTION('center_axis',(0.,1.,0.));
#330=DIRECTION('ref_axis',(0.,0.,-1.));
#331=DIRECTION('center_axis',(1.,0.,0.));
#332=DIRECTION('ref_axis',(0.,0.,-1.));
#333=DIRECTION('',(0.,1.,0.));
#334=DIRECTION('',(0.,0.,1.));
#335=DIRECTION('center_axis',(0.,1.,0.));
#336=DIRECTION('ref_axis',(-1.,0.,0.));
#337=DIRECTION('',(-1.,0.,0.));
#338=DIRECTION('',(1.,0.,0.));
#339=DIRECTION('center_axis',(0.,-1.,0.));
#340=DIRECTION('ref_axis',(0.,0.,1.));
#341=DIRECTION('',(-1.,0.,0.));
#342=DIRECTION('',(0.,0.,-1.));
#343=DIRECTION('',(-1.,0.,0.));
#344=DIRECTION('center_axis',(-1.,0.,0.));
#345=DIRECTION('ref_axis',(0.,0.,-1.));
#346=DIRECTION('center_axis',(-1.,0.,0.));
#347=DIRECTION('ref_axis',(0.,0.,-1.));
#348=DIRECTION('center_axis',(-1.,0.,0.));
#349=DIRECTION('ref_axis',(0.,-1.,0.));
#350=DIRECTION('',(0.,-1.,0.));
#351=DIRECTION('',(0.,-1.,0.));
#352=DIRECTION('center_axis',(0.,0.,-1.));
#353=DIRECTION('ref_axis',(1.,0.,0.));
#354=DIRECTION('center_axis',(0.,0.,1.));
#355=DIRECTION('ref_axis',(1.,0.,0.));
#356=DIRECTION('center_axis',(0.,0.,-1.));
#357=DIRECTION('ref_axis',(-1.,0.,0.));
#358=DIRECTION('center_axis',(6.12323399573677E-17,0.,1.));
#359=DIRECTION('ref_axis',(1.,0.,0.));
#360=DIRECTION('center_axis',(0.,0.,-1.));
#361=DIRECTION('ref_axis',(1.,0.,0.));
#362=DIRECTION('center_axis',(1.22464679914735E-16,-1.,0.));
#363=DIRECTION('ref_axis',(-1.,-1.22464679914735E-16,0.));
#364=DIRECTION('center_axis',(0.,0.,-1.));
#365=DIRECTION('ref_axis',(1.,0.,0.));
#366=DIRECTION('center_axis',(0.,0.,1.));
#367=DIRECTION('ref_axis',(0.676886873762555,-0.736087060155221,0.));
#368=CARTESIAN_POINT('',(0.,0.,0.));
#369=CARTESIAN_POINT('Origin',(-16.9474123257503,-471.574615669097,0.));
#370=CARTESIAN_POINT('',(51.5535876742497,-471.574615669097,160.));
#371=CARTESIAN_POINT('',(-26.9474123257503,-471.574615669097,160.));
#372=CARTESIAN_POINT('',(16.5535876742497,-471.574615669097,160.));
#373=CARTESIAN_POINT('',(-26.9474123257503,-471.574615669097,150.));
#374=CARTESIAN_POINT('',(-26.9474123257503,-471.574615669097,0.));
#375=CARTESIAN_POINT('',(51.5535876742497,-471.574615669097,150.));
#376=CARTESIAN_POINT('',(-16.9474123257503,-471.574615669097,150.));
#377=CARTESIAN_POINT('',(51.5535876742497,-471.574615669097,0.));
#378=CARTESIAN_POINT('Origin',(51.5535876742497,-16.574615669097,0.));
#379=CARTESIAN_POINT('',(51.5535876742497,28.425384330903,160.));
#380=CARTESIAN_POINT('',(51.5535876742497,-7.82461566909705,160.));
#381=CARTESIAN_POINT('',(51.5535876742497,28.425384330903,150.));
#382=CARTESIAN_POINT('',(51.5535876742497,-416.574615669097,150.));
#383=CARTESIAN_POINT('',(51.5535876742497,28.425384330903,0.));
#384=CARTESIAN_POINT('Origin',(3.05258767424968,-1.57461566909705,0.));
#385=CARTESIAN_POINT('',(-19.3495518458208,18.3789340131849,150.));
#386=CARTESIAN_POINT('',(-26.9474123257503,-1.57461566909705,150.));
#387=CARTESIAN_POINT('Origin',(3.05258767424968,-1.57461566909705,150.));
#388=CARTESIAN_POINT('',(-26.9474123257503,-1.57461566909705,160.));
#389=CARTESIAN_POINT('',(-26.9474123257503,-1.57461566909705,0.));
#390=CARTESIAN_POINT('',(3.05258767424968,28.425384330903,160.));
#391=CARTESIAN_POINT('Origin',(3.05258767424968,-1.57461566909705,160.));
#392=CARTESIAN_POINT('',(3.05258767424968,28.425384330903,150.));
#393=CARTESIAN_POINT('',(3.05258767424968,28.425384330903,0.));
#394=CARTESIAN_POINT('',(-16.8968994865483,20.8311416718445,150.));
#395=CARTESIAN_POINT('Origin',(3.05258767424968,-1.57461566909705,150.));
#396=CARTESIAN_POINT('',(-16.8968994865483,20.8311416718445,43.3012701892219));
#397=CARTESIAN_POINT('',(-16.8968994865483,20.8311416718445,0.));
#398=CARTESIAN_POINT('',(-16.9474123257503,20.7860641059009,43.2815252471481));
#399=CARTESIAN_POINT('Ctrl Pts',(-16.8968994865483,20.8311416718445,43.3012701892219));
#400=CARTESIAN_POINT('Ctrl Pts',(-16.9137594746667,20.8161299892943,43.2946911322258));
#401=CARTESIAN_POINT('Ctrl Pts',(-16.9305974988863,20.80110374426,43.2881092989445));
#402=CARTESIAN_POINT('Ctrl Pts',(-16.9474123257503,20.7860641059009,43.2815252471481));
#403=CARTESIAN_POINT('',(-19.3080921007482,18.425384330903,43.2815252471481));
#404=CARTESIAN_POINT('Origin',(3.05258767424968,-1.57461566909705,43.2815252471481));
#405=CARTESIAN_POINT('',(-19.3495518458208,18.3789340131849,43.3012701892219));
#406=CARTESIAN_POINT('Ctrl Pts',(-19.3080921007482,18.425384330903,43.2815252471481));
#407=CARTESIAN_POINT('Ctrl Pts',(-19.3219228484228,18.409921084913,43.28810810782));
#408=CARTESIAN_POINT('Ctrl Pts',(-19.3357430828646,18.394437311559,43.2946899180992));
#409=CARTESIAN_POINT('Ctrl Pts',(-19.3495518458208,18.3789340131849,43.3012701892219));
#410=CARTESIAN_POINT('',(-19.3495518458208,18.3789340131849,0.));
#411=CARTESIAN_POINT('Origin',(-16.9474123257503,28.425384330903,43.2815252471481));
#412=CARTESIAN_POINT('',(-16.9474123257503,18.425384330903,43.2815252471481));
#413=CARTESIAN_POINT('',(-16.9474123257503,18.425384330903,43.2815252471481));
#414=CARTESIAN_POINT('',(-16.9474123257503,18.425384330903,43.2815252471481));
#415=CARTESIAN_POINT('Origin',(0.,18.425384330903,0.));
#416=CARTESIAN_POINT('',(-16.8968994865483,18.425384330903,43.3012701892219));
#417=CARTESIAN_POINT('',(-16.8968994865483,18.425384330903,43.3012701892219));
#418=CARTESIAN_POINT('Origin',(0.,18.425384330903,0.));
#419=CARTESIAN_POINT('Origin',(-16.8968994865483,18.425384330903,150.));
#420=CARTESIAN_POINT('',(-16.8968994865483,18.425384330903,150.));
#421=CARTESIAN_POINT('',(-16.8968994865483,18.425384330903,150.));
#422=CARTESIAN_POINT('',(-16.8968994865483,18.425384330903,0.));
#423=CARTESIAN_POINT('Origin',(16.5535876742497,28.425384330903,0.));
#424=CARTESIAN_POINT('',(-16.9474123257503,28.425384330903,160.));
#425=CARTESIAN_POINT('',(16.5535876742497,28.425384330903,150.));
#426=CARTESIAN_POINT('Origin',(-16.9474123257503,18.3789340131849,43.3012701892219));
#427=CARTESIAN_POINT('',(-16.9474123257503,18.3789340131849,43.3012701892219));
#428=CARTESIAN_POINT('',(-16.9474123257503,18.3789340131849,43.3012701892219));
#429=CARTESIAN_POINT('',(-16.9474123257503,18.3789340131849,150.));
#430=CARTESIAN_POINT('',(-16.9474123257503,18.3789340131849,0.));
#431=CARTESIAN_POINT('',(-16.9474123257503,18.3789340131849,150.));
#432=CARTESIAN_POINT('Origin',(-16.9474123257503,0.,0.));
#433=CARTESIAN_POINT('Origin',(-16.9474123257503,0.,0.));
#434=CARTESIAN_POINT('Origin',(-26.9474123257503,18.425384330903,0.));
#435=CARTESIAN_POINT('',(-26.9474123257503,0.462692165451477,150.));
#436=CARTESIAN_POINT('',(-26.9474123257503,-416.574615669097,160.));
#437=CARTESIAN_POINT('Origin',(-16.9474123257503,-16.574615669097,150.));
#438=CARTESIAN_POINT('Origin',(0.,0.,150.));
#439=CARTESIAN_POINT('Origin',(-0.196912325750318,0.925384330902954,160.));
#440=CARTESIAN_POINT('Origin',(0.,0.,0.));
#441=CARTESIAN_POINT('',(-25.,-3.06161699786838E-15,43.3012701892219));
#442=CARTESIAN_POINT('Origin',(0.,0.,43.3012701892219));
#443=CARTESIAN_POINT('',(-3.06161699786838E-15,-3.74939945665464E-31,-50.));
#444=CARTESIAN_POINT('Origin',(0.,0.,0.));
#445=CARTESIAN_POINT('Origin',(0.,0.,43.3012701892219));
#446=CARTESIAN_POINT('Origin',(0.,0.,0.));
#447=UNCERTAINTY_MEASURE_WITH_UNIT(LENGTH_MEASURE(0.01),#451,
'DISTANCE_ACCURACY_VALUE',
'Maximum model space distance between geometric entities at asserted c
onnectivities');
#448=UNCERTAINTY_MEASURE_WITH_UNIT(LENGTH_MEASURE(0.01),#451,
'DISTANCE_ACCURACY_VALUE',
'Maximum model space distance between geometric entities at asserted c
onnectivities');
#449=(
GEOMETRIC_REPRESENTATION_CONTEXT(3)
GLOBAL_UNCERTAINTY_ASSIGNED_CONTEXT((#447))
GLOBAL_UNIT_ASSIGNED_CONTEXT((#451,#453,#454))
REPRESENTATION_CONTEXT('','3D')
);
#450=(
GEOMETRIC_REPRESENTATION_CONTEXT(3)
GLOBAL_UNCERTAINTY_ASSIGNED_CONTEXT((#448))
GLOBAL_UNIT_ASSIGNED_CONTEXT((#451,#453,#454))
REPRESENTATION_CONTEXT('','3D')
);
#451=(
LENGTH_UNIT()
NAMED_UNIT(*)
SI_UNIT(.MILLI.,.METRE.)
);
#452=(
LENGTH_UNIT()
NAMED_UNIT(*)
SI_UNIT($,.METRE.)
);
#453=(
NAMED_UNIT(*)
PLANE_ANGLE_UNIT()
SI_UNIT($,.RADIAN.)
);
#454=(
NAMED_UNIT(*)
SI_UNIT($,.STERADIAN.)
SOLID_ANGLE_UNIT()
);
#455=SHAPE_DEFINITION_REPRESENTATION(#456,#457);
#456=PRODUCT_DEFINITION_SHAPE('',$,#459);
#457=SHAPE_REPRESENTATION('',(#270),#449);
#458=PRODUCT_DEFINITION_CONTEXT('part definition',#463,'design');
#459=PRODUCT_DEFINITION('(Unsaved)','(Unsaved)',#460,#458);
#460=PRODUCT_DEFINITION_FORMATION('',$,#465);
#461=PRODUCT_RELATED_PRODUCT_CATEGORY('(Unsaved)','(Unsaved)',(#465));
#462=APPLICATION_PROTOCOL_DEFINITION('international standard',
'automotive_design',2009,#463);
#463=APPLICATION_CONTEXT(
'Core Data for Automotive Mechanical Design Process');
#464=PRODUCT_CONTEXT('part definition',#463,'mechanical');
#465=PRODUCT('(Unsaved)','(Unsaved)',$,(#464));
#466=PRESENTATION_STYLE_ASSIGNMENT((#467));
#467=SURFACE_STYLE_USAGE(.BOTH.,#468);
#468=SURFACE_SIDE_STYLE('',(#469));
#469=SURFACE_STYLE_FILL_AREA(#470);
#470=FILL_AREA_STYLE('Steel - Satin',(#471));
#471=FILL_AREA_STYLE_COLOUR('Steel - Satin',#472);
#472=COLOUR_RGB('Steel - Satin',0.627450980392157,0.627450980392157,0.627450980392157);
ENDSEC;
END-ISO-10303-21;
