ISO-10303-21;
HEADER;
/* Generated by software containing ST-Developer
 * from STEP Tools, Inc. (www.steptools.com) 
 */

FILE_DESCRIPTION(
/* description */ (''),
/* implementation_level */ '2;1');

FILE_NAME(
/* name */ 'ring1.step',
/* time_stamp */ '2026-07-02T14:48:29+05:30',
/* author */ (''),
/* organization */ (''),
/* preprocessor_version */ 'ST-DEVELOPER v20.1',
/* originating_system */ 'Autodesk Translation Framework v15.8.0.0',
/* authorisation */ '');

FILE_SCHEMA (('AUTOMOTIVE_DESIGN { 1 0 10303 214 3 1 1 }'));
ENDSEC;

DATA;
#10=MECHANICAL_DESIGN_GEOMETRIC_PRESENTATION_REPRESENTATION('',(#13),#1183);
#11=SHAPE_REPRESENTATION_RELATIONSHIP('SRR','None',#1190,#12);
#12=ADVANCED_BREP_SHAPE_REPRESENTATION('',(#14),#1182);
#13=STYLED_ITEM('',(#1199),#14);
#14=MANIFOLD_SOLID_BREP('Body2',#324);
#15=TOROIDAL_SURFACE('',#354,24.5,0.5);
#16=TOROIDAL_SURFACE('',#360,15.,7.);
#17=TOROIDAL_SURFACE('',#370,17.0710678118655,7.5);
#18=TOROIDAL_SURFACE('',#372,24.5,0.5);
#19=TOROIDAL_SURFACE('',#376,15.,4.);
#20=TOROIDAL_SURFACE('',#378,17.0710678118655,6.5);
#21=TOROIDAL_SURFACE('',#379,7.5,2.);
#22=LINE('',#812,#27);
#23=LINE('',#816,#28);
#24=LINE('',#819,#29);
#25=LINE('',#822,#30);
#26=LINE('',#958,#31);
#27=VECTOR('',#400,10.);
#28=VECTOR('',#403,10.);
#29=VECTOR('',#406,10.);
#30=VECTOR('',#409,10.);
#31=VECTOR('',#442,25.);
#32=CYLINDRICAL_SURFACE('',#345,23.5710678118655);
#33=CYLINDRICAL_SURFACE('',#364,25.);
#34=CYLINDRICAL_SURFACE('',#367,24.5);
#35=CYLINDRICAL_SURFACE('',#369,24.);
#36=CYLINDRICAL_SURFACE('',#375,24.);
#37=CIRCLE('',#339,23.5710678118655);
#38=CIRCLE('',#340,24.);
#39=CIRCLE('',#341,15.);
#40=CIRCLE('',#342,24.);
#41=CIRCLE('',#343,23.5710678118655);
#42=CIRCLE('',#344,9.23205080756888);
#43=CIRCLE('',#346,23.5710678118655);
#44=CIRCLE('',#347,23.5710678118655);
#45=CIRCLE('',#348,23.5710678118655);
#46=CIRCLE('',#349,23.5710678118655);
#47=CIRCLE('',#351,24.5);
#48=CIRCLE('',#352,15.);
#49=CIRCLE('',#353,24.5);
#50=CIRCLE('',#355,0.5);
#51=CIRCLE('',#356,25.);
#52=CIRCLE('',#357,25.);
#53=CIRCLE('',#358,0.499999999999999);
#54=CIRCLE('',#359,24.5);
#55=CIRCLE('',#361,7.);
#56=CIRCLE('',#362,9.94679266011808);
#57=CIRCLE('',#363,9.94679266011808);
#58=CIRCLE('',#365,25.);
#59=CIRCLE('',#366,25.);
#60=CIRCLE('',#368,24.5);
#61=CIRCLE('',#371,7.5);
#62=CIRCLE('',#373,0.5);
#63=CIRCLE('',#374,0.499999999999999);
#64=CIRCLE('',#377,11.0035559645022);
#65=PLANE('',#338);
#66=PLANE('',#350);
#67=FACE_OUTER_BOUND('',#84,.T.);
#68=FACE_OUTER_BOUND('',#85,.T.);
#69=FACE_OUTER_BOUND('',#86,.T.);
#70=FACE_OUTER_BOUND('',#87,.T.);
#71=FACE_OUTER_BOUND('',#88,.T.);
#72=FACE_OUTER_BOUND('',#89,.T.);
#73=FACE_OUTER_BOUND('',#90,.T.);
#74=FACE_OUTER_BOUND('',#91,.T.);
#75=FACE_OUTER_BOUND('',#92,.T.);
#76=FACE_OUTER_BOUND('',#93,.T.);
#77=FACE_OUTER_BOUND('',#94,.T.);
#78=FACE_OUTER_BOUND('',#95,.T.);
#79=FACE_OUTER_BOUND('',#96,.T.);
#80=FACE_OUTER_BOUND('',#97,.T.);
#81=FACE_OUTER_BOUND('',#98,.T.);
#82=FACE_OUTER_BOUND('',#99,.T.);
#83=FACE_OUTER_BOUND('',#100,.T.);
#84=EDGE_LOOP('',(#202,#203,#204,#205,#206,#207));
#85=EDGE_LOOP('',(#208,#209,#210,#211,#212,#213,#214,#215));
#86=EDGE_LOOP('',(#216,#217,#218,#219,#220,#221,#222,#223,#224,#225,#226,
#227));
#87=EDGE_LOOP('',(#228,#229,#230,#231,#232,#233));
#88=EDGE_LOOP('',(#234,#235,#236,#237,#238,#239,#240));
#89=EDGE_LOOP('',(#241,#242,#243,#244,#245));
#90=EDGE_LOOP('',(#246,#247,#248,#249,#250,#251,#252));
#91=EDGE_LOOP('',(#253,#254,#255,#256,#257,#258,#259,#260));
#92=EDGE_LOOP('',(#261,#262,#263,#264,#265,#266,#267));
#93=EDGE_LOOP('',(#268,#269,#270,#271));
#94=EDGE_LOOP('',(#272,#273,#274,#275,#276,#277,#278,#279,#280));
#95=EDGE_LOOP('',(#281,#282,#283,#284,#285));
#96=EDGE_LOOP('',(#286,#287,#288,#289));
#97=EDGE_LOOP('',(#290,#291,#292,#293));
#98=EDGE_LOOP('',(#294,#295,#296,#297));
#99=EDGE_LOOP('',(#298,#299,#300,#301));
#100=EDGE_LOOP('',(#302,#303));
#101=B_SPLINE_CURVE_WITH_KNOTS('',3,(#588,#589,#590,#591,#592,#593,#594,
#595,#596,#597),.UNSPECIFIED.,.F.,.F.,(4,2,2,2,4),(0.,0.45294366213913,
0.910661286775962,1.37395566452283,1.80039558514643),.UNSPECIFIED.);
#102=B_SPLINE_CURVE_WITH_KNOTS('',3,(#599,#600,#601,#602,#603,#604,#605,
#606,#607,#608,#609,#610,#611,#612,#613,#614,#615,#616,#617,#618,#619,#620,
#621,#622,#623,#624,#625,#626,#627,#628,#629,#630,#631,#632,#633,#634,#635,
#636,#637,#638,#639,#640,#641,#642,#643,#644,#645,#646,#647,#648,#649,#650,
#651,#652,#653,#654,#655,#656,#657,#658,#659,#660,#661,#662,#663,#664,#665,
#666,#667,#668,#669,#670,#671,#672,#673,#674,#675,#676,#677,#678,#679,#680,
#681,#682,#683,#684,#685,#686,#687,#688,#689,#690,#691,#692,#693,#694,#695,
#696,#697,#698,#699,#700,#701,#702,#703,#704,#705,#706,#707,#708,#709,#710,
#711,#712,#713,#714,#715,#716,#717,#718,#719,#720,#721,#722,#723,#724,#725,
#726,#727,#728,#729,#730,#731,#732,#733,#734,#735,#736,#737,#738,#739,#740,
#741,#742,#743),.UNSPECIFIED.,.F.,.F.,(4,3,3,3,3,3,3,3,3,3,3,3,3,3,3,3,
3,3,3,3,3,3,3,3,3,3,3,3,3,3,3,3,3,3,3,3,3,3,3,3,3,3,3,3,3,3,3,3,4),(-9.36961386116125,
-9.05274622358204,-8.98547691654656,-8.92487108910383,-8.60134452269753,
-8.40103840421122,-8.21721417698135,-7.98899900097484,-7.92653137397941,
-7.83316048857088,-7.74769034624288,-7.61416464336624,-7.49800533316368,
-7.44886540329378,-7.34912068884216,-7.26664947292143,-7.18410485139926,
-7.09921424350663,-7.08937997784921,-7.06508192757191,-6.99794581892111,
-6.92308041644203,-6.85791588915013,-6.80875251540509,-6.7337086638524,
-6.64752061921372,-6.61239695046382,-6.55259680814453,-6.47699519989815,
-6.40836203398659,-6.37501849169397,-6.29651113278913,-6.18180948485412,
-6.13856865651109,-6.04047376997004,-5.92277699797922,-5.80934203301007,
-5.78436117428112,-5.58788148257239,-5.52827675174002,-5.3665619093379,
-5.14411806099333,-4.84131399301384,-4.75998093040095,-4.44458530842615,
-4.37583984126175,-4.32145697479863,-4.06602716645207,-3.99170760207449),
 .UNSPECIFIED.);
#103=B_SPLINE_CURVE_WITH_KNOTS('',3,(#745,#746,#747,#748,#749,#750,#751,
#752,#753,#754),.UNSPECIFIED.,.F.,.F.,(4,2,2,2,4),(0.,0.430178246051508,
0.899562390377367,1.35920452581249,1.79166430120839),.UNSPECIFIED.);
#104=B_SPLINE_CURVE_WITH_KNOTS('',3,(#756,#757,#758,#759,#760),
 .UNSPECIFIED.,.F.,.F.,(4,1,4),(4.5989380696432,4.75997992480117,4.89976148640483),
 .UNSPECIFIED.);
#105=B_SPLINE_CURVE_WITH_KNOTS('',3,(#762,#763,#764,#765,#766,#767,#768,
#769,#770,#771,#772,#773,#774,#775,#776,#777,#778,#779,#780,#781,#782,#783,
#784,#785,#786,#787,#788,#789,#790,#791),.UNSPECIFIED.,.F.,.F.,(4,2,2,2,
2,2,2,2,2,2,2,2,2,2,4),(0.,0.463977432305479,0.946083776068981,1.30121806949163,
1.53553285171649,1.6476623565805,1.77388784301771,1.91934162610225,2.03675500838066,
2.1583460398684,2.28830631468029,2.52653350471492,2.69314120493763,2.77946463293663,
2.86466875662985),.UNSPECIFIED.);
#106=B_SPLINE_CURVE_WITH_KNOTS('',3,(#792,#793,#794,#795,#796),
 .UNSPECIFIED.,.F.,.F.,(4,1,4),(8.46156638892833,8.60134153843457,8.76237979237403),
 .UNSPECIFIED.);
#107=B_SPLINE_CURVE_WITH_KNOTS('',3,(#908,#909,#910,#911,#912,#913,#914,
#915,#916,#917),.UNSPECIFIED.,.F.,.F.,(4,1,1,1,1,1,1,4),(-2.87466685432754,
-2.46400016085218,-2.05333346737682,-1.64266677390145,-1.23200008042609,
-0.821333386950727,-0.410666693475363,0.),.UNSPECIFIED.);
#108=B_SPLINE_CURVE_WITH_KNOTS('',3,(#919,#920,#921,#922,#923,#924,#925,
#926,#927),.UNSPECIFIED.,.F.,.F.,(4,1,1,1,1,1,4),(0.,0.410666693475363,
0.821333386950727,1.23200008042609,1.64266677390145,2.05333346737682,2.32435695648564),
 .UNSPECIFIED.);
#109=B_SPLINE_CURVE_WITH_KNOTS('',3,(#928,#929,#930,#931,#932),
 .UNSPECIFIED.,.F.,.F.,(4,1,4),(2.32436890211279,2.46400016085218,2.87466685432754),
 .UNSPECIFIED.);
#110=B_SPLINE_CURVE_WITH_KNOTS('',3,(#942,#943,#944,#945,#946,#947,#948,
#949,#950,#951,#952,#953,#954,#955),.UNSPECIFIED.,.F.,.F.,(4,1,1,1,1,1,
1,1,1,1,1,4),(0.,0.535923128726499,1.071846257453,1.33980782181625,1.47378860399787,
1.6077693861795,1.87573095054275,2.00971173272437,2.143692514906,2.67961564363249,
3.21553877235899,3.75146190108549),.UNSPECIFIED.);
#111=B_SPLINE_CURVE_WITH_KNOTS('',3,(#962,#963,#964,#965,#966,#967,#968,
#969),.UNSPECIFIED.,.F.,.F.,(4,2,2,4),(-1.34440826343981,-1.13473306456689,
-0.773682771130735,-0.698561925489735),.UNSPECIFIED.);
#112=B_SPLINE_CURVE_WITH_KNOTS('',3,(#971,#972,#973,#974,#975,#976),
 .UNSPECIFIED.,.F.,.F.,(4,2,4),(-1.70342301057295,-1.57942833665946,-1.34440826343981),
 .UNSPECIFIED.);
#113=B_SPLINE_CURVE_WITH_KNOTS('',3,(#979,#980,#981,#982,#983,#984,#985,
#986),.UNSPECIFIED.,.F.,.F.,(4,2,2,4),(-5.62232972244686,-5.42975077617414,
-4.84866010824947,-4.3220454087106),.UNSPECIFIED.);
#114=B_SPLINE_CURVE_WITH_KNOTS('',3,(#989,#990,#991,#992,#993,#994,#995,
#996,#997,#998,#999,#1000,#1001,#1002,#1003,#1004,#1005,#1006,#1007,#1008),
 .UNSPECIFIED.,.F.,.F.,(4,2,2,3,2,2,3,2,4),(-2.09999593056018,-1.62077775916518,
-1.25070957313973,-1.17002271232641,-0.80729911286194,-0.548652367869097,
-0.427189229989109,-0.317739891207891,-0.26823700623328),.UNSPECIFIED.);
#115=B_SPLINE_CURVE_WITH_KNOTS('',3,(#1009,#1010,#1011,#1012,#1013,#1014,
#1015,#1016,#1017,#1018,#1019,#1020),.UNSPECIFIED.,.F.,.F.,(4,2,2,2,2,4),
(-2.34187721828635,-2.09665025093431,-1.83416014970999,-1.69123986992422,
-1.61479855184039,-1.56496920370751),.UNSPECIFIED.);
#116=B_SPLINE_CURVE_WITH_KNOTS('',3,(#1023,#1024,#1025,#1026,#1027,#1028,
#1029,#1030,#1031,#1032,#1033,#1034,#1035,#1036),.UNSPECIFIED.,.F.,.F.,
(4,1,1,1,1,1,1,1,1,1,1,4),(-3.75146190108549,-3.21553877235899,-2.67961564363249,
-2.143692514906,-2.00971173272437,-1.87573095054275,-1.6077693861795,-1.47378860399787,
-1.33980782181625,-1.071846257453,-0.535923128726499,0.),.UNSPECIFIED.);
#117=B_SPLINE_CURVE_WITH_KNOTS('',3,(#1140,#1141,#1142,#1143,#1144,#1145,
#1146,#1147,#1148,#1149,#1150,#1151,#1152,#1153),.UNSPECIFIED.,.F.,.F.,
(4,2,2,2,2,2,4),(-1.52885124476966,-1.51250909237172,-1.44659515467956,
-1.346426343649,-1.15421338538878,-0.825617606471641,-0.733744813199899),
 .UNSPECIFIED.);
#118=B_SPLINE_CURVE_WITH_KNOTS('',3,(#1154,#1155,#1156,#1157,#1158,#1159,
#1160,#1161,#1162,#1163,#1164,#1165,#1166,#1167,#1168,#1169,#1170,#1171,
#1172,#1173,#1174,#1175),.UNSPECIFIED.,.F.,.F.,(4,2,3,2,2,3,2,2,2,4),(-4.65207458187931,
-4.6058473011405,-4.50364022142967,-4.39021429530313,-4.14868219673786,
-3.80996000566495,-3.78889227051877,-3.4078103005249,-2.99214361185637,
-2.90775459967979),.UNSPECIFIED.);
#119=VERTEX_POINT('',#586);
#120=VERTEX_POINT('',#587);
#121=VERTEX_POINT('',#598);
#122=VERTEX_POINT('',#744);
#123=VERTEX_POINT('',#755);
#124=VERTEX_POINT('',#761);
#125=VERTEX_POINT('',#798);
#126=VERTEX_POINT('',#800);
#127=VERTEX_POINT('',#802);
#128=VERTEX_POINT('',#804);
#129=VERTEX_POINT('',#809);
#130=VERTEX_POINT('',#811);
#131=VERTEX_POINT('',#813);
#132=VERTEX_POINT('',#815);
#133=VERTEX_POINT('',#818);
#134=VERTEX_POINT('',#820);
#135=VERTEX_POINT('',#824);
#136=VERTEX_POINT('',#826);
#137=VERTEX_POINT('',#830);
#138=VERTEX_POINT('',#832);
#139=VERTEX_POINT('',#834);
#140=VERTEX_POINT('',#918);
#141=VERTEX_POINT('',#934);
#142=VERTEX_POINT('',#936);
#143=VERTEX_POINT('',#940);
#144=VERTEX_POINT('',#941);
#145=VERTEX_POINT('',#956);
#146=VERTEX_POINT('',#961);
#147=VERTEX_POINT('',#970);
#148=VERTEX_POINT('',#977);
#149=VERTEX_POINT('',#988);
#150=VERTEX_POINT('',#1139);
#151=EDGE_CURVE('',#119,#120,#101,.T.);
#152=EDGE_CURVE('',#120,#121,#102,.T.);
#153=EDGE_CURVE('',#121,#122,#103,.T.);
#154=EDGE_CURVE('',#122,#123,#104,.T.);
#155=EDGE_CURVE('',#123,#124,#105,.T.);
#156=EDGE_CURVE('',#124,#119,#106,.T.);
#157=EDGE_CURVE('',#119,#125,#37,.T.);
#158=EDGE_CURVE('',#126,#125,#38,.T.);
#159=EDGE_CURVE('',#126,#127,#39,.T.);
#160=EDGE_CURVE('',#128,#127,#40,.T.);
#161=EDGE_CURVE('',#128,#122,#41,.T.);
#162=EDGE_CURVE('',#121,#120,#42,.T.);
#163=EDGE_CURVE('',#129,#124,#43,.T.);
#164=EDGE_CURVE('',#130,#129,#22,.T.);
#165=EDGE_CURVE('',#131,#130,#44,.T.);
#166=EDGE_CURVE('',#131,#132,#23,.F.);
#167=EDGE_CURVE('',#123,#132,#45,.T.);
#168=EDGE_CURVE('',#133,#128,#24,.F.);
#169=EDGE_CURVE('',#133,#134,#46,.F.);
#170=EDGE_CURVE('',#125,#134,#25,.F.);
#171=EDGE_CURVE('',#135,#132,#47,.T.);
#172=EDGE_CURVE('',#136,#135,#48,.T.);
#173=EDGE_CURVE('',#129,#136,#49,.T.);
#174=EDGE_CURVE('',#136,#137,#50,.T.);
#175=EDGE_CURVE('',#137,#138,#51,.T.);
#176=EDGE_CURVE('',#138,#139,#52,.T.);
#177=EDGE_CURVE('',#139,#135,#53,.T.);
#178=EDGE_CURVE('',#132,#129,#54,.T.);
#179=EDGE_CURVE('',#139,#137,#107,.T.);
#180=EDGE_CURVE('',#136,#140,#108,.T.);
#181=EDGE_CURVE('',#140,#135,#109,.T.);
#182=EDGE_CURVE('',#140,#141,#55,.T.);
#183=EDGE_CURVE('',#141,#142,#56,.T.);
#184=EDGE_CURVE('',#142,#141,#57,.T.);
#185=EDGE_CURVE('',#143,#144,#110,.T.);
#186=EDGE_CURVE('',#145,#143,#58,.T.);
#187=EDGE_CURVE('',#145,#138,#26,.T.);
#188=EDGE_CURVE('',#144,#145,#59,.T.);
#189=EDGE_CURVE('',#146,#131,#111,.T.);
#190=EDGE_CURVE('',#147,#146,#112,.T.);
#191=EDGE_CURVE('',#148,#147,#60,.T.);
#192=EDGE_CURVE('',#130,#148,#113,.T.);
#193=EDGE_CURVE('',#149,#134,#114,.T.);
#194=EDGE_CURVE('',#126,#149,#115,.T.);
#195=EDGE_CURVE('',#142,#146,#61,.T.);
#196=EDGE_CURVE('',#147,#148,#116,.T.);
#197=EDGE_CURVE('',#148,#143,#62,.T.);
#198=EDGE_CURVE('',#144,#147,#63,.T.);
#199=EDGE_CURVE('',#150,#127,#117,.T.);
#200=EDGE_CURVE('',#133,#150,#118,.T.);
#201=EDGE_CURVE('',#150,#149,#64,.F.);
#202=ORIENTED_EDGE('',*,*,#151,.T.);
#203=ORIENTED_EDGE('',*,*,#152,.T.);
#204=ORIENTED_EDGE('',*,*,#153,.T.);
#205=ORIENTED_EDGE('',*,*,#154,.T.);
#206=ORIENTED_EDGE('',*,*,#155,.T.);
#207=ORIENTED_EDGE('',*,*,#156,.T.);
#208=ORIENTED_EDGE('',*,*,#151,.F.);
#209=ORIENTED_EDGE('',*,*,#157,.T.);
#210=ORIENTED_EDGE('',*,*,#158,.F.);
#211=ORIENTED_EDGE('',*,*,#159,.T.);
#212=ORIENTED_EDGE('',*,*,#160,.F.);
#213=ORIENTED_EDGE('',*,*,#161,.T.);
#214=ORIENTED_EDGE('',*,*,#153,.F.);
#215=ORIENTED_EDGE('',*,*,#162,.T.);
#216=ORIENTED_EDGE('',*,*,#156,.F.);
#217=ORIENTED_EDGE('',*,*,#163,.F.);
#218=ORIENTED_EDGE('',*,*,#164,.F.);
#219=ORIENTED_EDGE('',*,*,#165,.F.);
#220=ORIENTED_EDGE('',*,*,#166,.T.);
#221=ORIENTED_EDGE('',*,*,#167,.F.);
#222=ORIENTED_EDGE('',*,*,#154,.F.);
#223=ORIENTED_EDGE('',*,*,#161,.F.);
#224=ORIENTED_EDGE('',*,*,#168,.F.);
#225=ORIENTED_EDGE('',*,*,#169,.T.);
#226=ORIENTED_EDGE('',*,*,#170,.F.);
#227=ORIENTED_EDGE('',*,*,#157,.F.);
#228=ORIENTED_EDGE('',*,*,#155,.F.);
#229=ORIENTED_EDGE('',*,*,#167,.T.);
#230=ORIENTED_EDGE('',*,*,#171,.F.);
#231=ORIENTED_EDGE('',*,*,#172,.F.);
#232=ORIENTED_EDGE('',*,*,#173,.F.);
#233=ORIENTED_EDGE('',*,*,#163,.T.);
#234=ORIENTED_EDGE('',*,*,#174,.T.);
#235=ORIENTED_EDGE('',*,*,#175,.T.);
#236=ORIENTED_EDGE('',*,*,#176,.T.);
#237=ORIENTED_EDGE('',*,*,#177,.T.);
#238=ORIENTED_EDGE('',*,*,#171,.T.);
#239=ORIENTED_EDGE('',*,*,#178,.T.);
#240=ORIENTED_EDGE('',*,*,#173,.T.);
#241=ORIENTED_EDGE('',*,*,#177,.F.);
#242=ORIENTED_EDGE('',*,*,#179,.T.);
#243=ORIENTED_EDGE('',*,*,#174,.F.);
#244=ORIENTED_EDGE('',*,*,#180,.T.);
#245=ORIENTED_EDGE('',*,*,#181,.T.);
#246=ORIENTED_EDGE('',*,*,#180,.F.);
#247=ORIENTED_EDGE('',*,*,#172,.T.);
#248=ORIENTED_EDGE('',*,*,#181,.F.);
#249=ORIENTED_EDGE('',*,*,#182,.T.);
#250=ORIENTED_EDGE('',*,*,#183,.T.);
#251=ORIENTED_EDGE('',*,*,#184,.T.);
#252=ORIENTED_EDGE('',*,*,#182,.F.);
#253=ORIENTED_EDGE('',*,*,#185,.F.);
#254=ORIENTED_EDGE('',*,*,#186,.F.);
#255=ORIENTED_EDGE('',*,*,#187,.T.);
#256=ORIENTED_EDGE('',*,*,#175,.F.);
#257=ORIENTED_EDGE('',*,*,#179,.F.);
#258=ORIENTED_EDGE('',*,*,#176,.F.);
#259=ORIENTED_EDGE('',*,*,#187,.F.);
#260=ORIENTED_EDGE('',*,*,#188,.F.);
#261=ORIENTED_EDGE('',*,*,#178,.F.);
#262=ORIENTED_EDGE('',*,*,#166,.F.);
#263=ORIENTED_EDGE('',*,*,#189,.F.);
#264=ORIENTED_EDGE('',*,*,#190,.F.);
#265=ORIENTED_EDGE('',*,*,#191,.F.);
#266=ORIENTED_EDGE('',*,*,#192,.F.);
#267=ORIENTED_EDGE('',*,*,#164,.T.);
#268=ORIENTED_EDGE('',*,*,#170,.T.);
#269=ORIENTED_EDGE('',*,*,#193,.F.);
#270=ORIENTED_EDGE('',*,*,#194,.F.);
#271=ORIENTED_EDGE('',*,*,#158,.T.);
#272=ORIENTED_EDGE('',*,*,#183,.F.);
#273=ORIENTED_EDGE('',*,*,#184,.F.);
#274=ORIENTED_EDGE('',*,*,#195,.T.);
#275=ORIENTED_EDGE('',*,*,#189,.T.);
#276=ORIENTED_EDGE('',*,*,#165,.T.);
#277=ORIENTED_EDGE('',*,*,#192,.T.);
#278=ORIENTED_EDGE('',*,*,#196,.F.);
#279=ORIENTED_EDGE('',*,*,#190,.T.);
#280=ORIENTED_EDGE('',*,*,#195,.F.);
#281=ORIENTED_EDGE('',*,*,#197,.F.);
#282=ORIENTED_EDGE('',*,*,#191,.T.);
#283=ORIENTED_EDGE('',*,*,#198,.F.);
#284=ORIENTED_EDGE('',*,*,#188,.T.);
#285=ORIENTED_EDGE('',*,*,#186,.T.);
#286=ORIENTED_EDGE('',*,*,#198,.T.);
#287=ORIENTED_EDGE('',*,*,#196,.T.);
#288=ORIENTED_EDGE('',*,*,#197,.T.);
#289=ORIENTED_EDGE('',*,*,#185,.T.);
#290=ORIENTED_EDGE('',*,*,#168,.T.);
#291=ORIENTED_EDGE('',*,*,#160,.T.);
#292=ORIENTED_EDGE('',*,*,#199,.F.);
#293=ORIENTED_EDGE('',*,*,#200,.F.);
#294=ORIENTED_EDGE('',*,*,#199,.T.);
#295=ORIENTED_EDGE('',*,*,#159,.F.);
#296=ORIENTED_EDGE('',*,*,#194,.T.);
#297=ORIENTED_EDGE('',*,*,#201,.F.);
#298=ORIENTED_EDGE('',*,*,#193,.T.);
#299=ORIENTED_EDGE('',*,*,#169,.F.);
#300=ORIENTED_EDGE('',*,*,#200,.T.);
#301=ORIENTED_EDGE('',*,*,#201,.T.);
#302=ORIENTED_EDGE('',*,*,#152,.F.);
#303=ORIENTED_EDGE('',*,*,#162,.F.);
#304=B_SPLINE_SURFACE_WITH_KNOTS('',3,3,((#472,#473,#474,#475,#476,#477,
#478,#479,#480,#481,#482,#483,#484,#485,#486,#487,#488,#489,#490),(#491,
#492,#493,#494,#495,#496,#497,#498,#499,#500,#501,#502,#503,#504,#505,#506,
#507,#508,#509),(#510,#511,#512,#513,#514,#515,#516,#517,#518,#519,#520,
#521,#522,#523,#524,#525,#526,#527,#528),(#529,#530,#531,#532,#533,#534,
#535,#536,#537,#538,#539,#540,#541,#542,#543,#544,#545,#546,#547),(#548,
#549,#550,#551,#552,#553,#554,#555,#556,#557,#558,#559,#560,#561,#562,#563,
#564,#565,#566),(#567,#568,#569,#570,#571,#572,#573,#574,#575,#576,#577,
#578,#579,#580,#581,#582,#583,#584,#585)),.UNSPECIFIED.,.F.,.F.,.F.,(4,
1,1,4),(4,1,1,1,1,1,1,1,1,1,1,1,1,1,1,1,4),(0.,0.285714285714286,0.571428571428571,
1.),(3.99170760207449,4.37584376343783,4.75997992480117,5.14411608616451,
5.52825224752785,5.78434302177008,6.04043379601231,6.29652457025453,6.55261534449676,
6.80870611873898,7.06479689298121,7.44893305434455,7.83306921570789,8.21720537707123,
8.60134153843457,8.98547769979791,9.36961386116125),.UNSPECIFIED.);
#305=B_SPLINE_SURFACE_WITH_KNOTS('',3,3,((#838,#839,#840,#841,#842,#843,
#844,#845,#846,#847),(#848,#849,#850,#851,#852,#853,#854,#855,#856,#857),
(#858,#859,#860,#861,#862,#863,#864,#865,#866,#867),(#868,#869,#870,#871,
#872,#873,#874,#875,#876,#877),(#878,#879,#880,#881,#882,#883,#884,#885,
#886,#887),(#888,#889,#890,#891,#892,#893,#894,#895,#896,#897),(#898,#899,
#900,#901,#902,#903,#904,#905,#906,#907)),.UNSPECIFIED.,.F.,.F.,.F.,(4,
1,1,1,4),(4,1,1,1,1,1,1,4),(0.,0.285714285714286,0.571428571428571,0.857142857142857,
1.),(0.,0.410666693475363,0.821333386950727,1.23200008042609,1.64266677390145,
2.05333346737682,2.46400016085218,2.87466685432754),.UNSPECIFIED.);
#306=B_SPLINE_SURFACE_WITH_KNOTS('',3,3,((#1040,#1041,#1042,#1043,#1044,
#1045,#1046,#1047,#1048,#1049,#1050,#1051,#1052,#1053),(#1054,#1055,#1056,
#1057,#1058,#1059,#1060,#1061,#1062,#1063,#1064,#1065,#1066,#1067),(#1068,
#1069,#1070,#1071,#1072,#1073,#1074,#1075,#1076,#1077,#1078,#1079,#1080,
#1081),(#1082,#1083,#1084,#1085,#1086,#1087,#1088,#1089,#1090,#1091,#1092,
#1093,#1094,#1095),(#1096,#1097,#1098,#1099,#1100,#1101,#1102,#1103,#1104,
#1105,#1106,#1107,#1108,#1109),(#1110,#1111,#1112,#1113,#1114,#1115,#1116,
#1117,#1118,#1119,#1120,#1121,#1122,#1123),(#1124,#1125,#1126,#1127,#1128,
#1129,#1130,#1131,#1132,#1133,#1134,#1135,#1136,#1137)),.UNSPECIFIED.,.F.,
 .F.,.F.,(4,1,1,1,4),(4,1,1,1,1,1,1,1,1,1,1,4),(0.,0.285714285714286,0.571428571428571,
0.785714285714286,1.),(0.,0.535923128726499,1.071846257453,1.33980782181625,
1.47378860399787,1.6077693861795,1.87573095054275,2.00971173272437,2.143692514906,
2.67961564363249,3.21553877235899,3.75146190108549),.UNSPECIFIED.);
#307=ADVANCED_FACE('',(#67),#304,.F.);
#308=ADVANCED_FACE('',(#68),#65,.T.);
#309=ADVANCED_FACE('',(#69),#32,.T.);
#310=ADVANCED_FACE('',(#70),#66,.F.);
#311=ADVANCED_FACE('',(#71),#15,.T.);
#312=ADVANCED_FACE('',(#72),#305,.F.);
#313=ADVANCED_FACE('',(#73),#16,.T.);
#314=ADVANCED_FACE('',(#74),#33,.T.);
#315=ADVANCED_FACE('',(#75),#34,.F.);
#316=ADVANCED_FACE('',(#76),#35,.F.);
#317=ADVANCED_FACE('',(#77),#17,.T.);
#318=ADVANCED_FACE('',(#78),#18,.T.);
#319=ADVANCED_FACE('',(#79),#306,.F.);
#320=ADVANCED_FACE('',(#80),#36,.F.);
#321=ADVANCED_FACE('',(#81),#19,.F.);
#322=ADVANCED_FACE('',(#82),#20,.F.);
#323=ADVANCED_FACE('',(#83),#21,.F.);
#324=CLOSED_SHELL('',(#307,#308,#309,#310,#311,#312,#313,#314,#315,#316,
#317,#318,#319,#320,#321,#322,#323));
#325=DERIVED_UNIT_ELEMENT(#327,1.);
#326=DERIVED_UNIT_ELEMENT(#1185,-3.);
#327=(
MASS_UNIT()
NAMED_UNIT(*)
SI_UNIT(.KILO.,.GRAM.)
);
#328=DERIVED_UNIT((#325,#326));
#329=MEASURE_REPRESENTATION_ITEM('density measure',
POSITIVE_RATIO_MEASURE(7850.),#328);
#330=PROPERTY_DEFINITION_REPRESENTATION(#335,#332);
#331=PROPERTY_DEFINITION_REPRESENTATION(#336,#333);
#332=REPRESENTATION('material name',(#334),#1182);
#333=REPRESENTATION('density',(#329),#1182);
#334=DESCRIPTIVE_REPRESENTATION_ITEM('Steel','Steel');
#335=PROPERTY_DEFINITION('material property','material name',#1192);
#336=PROPERTY_DEFINITION('material property','density of part',#1192);
#337=AXIS2_PLACEMENT_3D('',#471,#380,#381);
#338=AXIS2_PLACEMENT_3D('',#797,#382,#383);
#339=AXIS2_PLACEMENT_3D('',#799,#384,#385);
#340=AXIS2_PLACEMENT_3D('',#801,#386,#387);
#341=AXIS2_PLACEMENT_3D('',#803,#388,#389);
#342=AXIS2_PLACEMENT_3D('',#805,#390,#391);
#343=AXIS2_PLACEMENT_3D('',#806,#392,#393);
#344=AXIS2_PLACEMENT_3D('',#807,#394,#395);
#345=AXIS2_PLACEMENT_3D('',#808,#396,#397);
#346=AXIS2_PLACEMENT_3D('',#810,#398,#399);
#347=AXIS2_PLACEMENT_3D('',#814,#401,#402);
#348=AXIS2_PLACEMENT_3D('',#817,#404,#405);
#349=AXIS2_PLACEMENT_3D('',#821,#407,#408);
#350=AXIS2_PLACEMENT_3D('',#823,#410,#411);
#351=AXIS2_PLACEMENT_3D('',#825,#412,#413);
#352=AXIS2_PLACEMENT_3D('',#827,#414,#415);
#353=AXIS2_PLACEMENT_3D('',#828,#416,#417);
#354=AXIS2_PLACEMENT_3D('',#829,#418,#419);
#355=AXIS2_PLACEMENT_3D('',#831,#420,#421);
#356=AXIS2_PLACEMENT_3D('',#833,#422,#423);
#357=AXIS2_PLACEMENT_3D('',#835,#424,#425);
#358=AXIS2_PLACEMENT_3D('',#836,#426,#427);
#359=AXIS2_PLACEMENT_3D('',#837,#428,#429);
#360=AXIS2_PLACEMENT_3D('',#933,#430,#431);
#361=AXIS2_PLACEMENT_3D('',#935,#432,#433);
#362=AXIS2_PLACEMENT_3D('',#937,#434,#435);
#363=AXIS2_PLACEMENT_3D('',#938,#436,#437);
#364=AXIS2_PLACEMENT_3D('',#939,#438,#439);
#365=AXIS2_PLACEMENT_3D('',#957,#440,#441);
#366=AXIS2_PLACEMENT_3D('',#959,#443,#444);
#367=AXIS2_PLACEMENT_3D('',#960,#445,#446);
#368=AXIS2_PLACEMENT_3D('',#978,#447,#448);
#369=AXIS2_PLACEMENT_3D('',#987,#449,#450);
#370=AXIS2_PLACEMENT_3D('',#1021,#451,#452);
#371=AXIS2_PLACEMENT_3D('',#1022,#453,#454);
#372=AXIS2_PLACEMENT_3D('',#1037,#455,#456);
#373=AXIS2_PLACEMENT_3D('',#1038,#457,#458);
#374=AXIS2_PLACEMENT_3D('',#1039,#459,#460);
#375=AXIS2_PLACEMENT_3D('',#1138,#461,#462);
#376=AXIS2_PLACEMENT_3D('',#1176,#463,#464);
#377=AXIS2_PLACEMENT_3D('',#1177,#465,#466);
#378=AXIS2_PLACEMENT_3D('',#1178,#467,#468);
#379=AXIS2_PLACEMENT_3D('',#1179,#469,#470);
#380=DIRECTION('axis',(0.,0.,1.));
#381=DIRECTION('refdir',(1.,0.,0.));
#382=DIRECTION('center_axis',(0.,0.,1.));
#383=DIRECTION('ref_axis',(1.,0.,0.));
#384=DIRECTION('center_axis',(0.,0.,1.));
#385=DIRECTION('ref_axis',(0.703688500097218,0.710508616999771,0.));
#386=DIRECTION('center_axis',(0.,0.,-1.));
#387=DIRECTION('ref_axis',(1.,0.,0.));
#388=DIRECTION('center_axis',(0.,0.,-1.));
#389=DIRECTION('ref_axis',(1.,0.,0.));
#390=DIRECTION('center_axis',(0.,0.,-1.));
#391=DIRECTION('ref_axis',(1.,0.,0.));
#392=DIRECTION('center_axis',(0.,0.,1.));
#393=DIRECTION('ref_axis',(0.703688500097218,0.710508616999771,0.));
#394=DIRECTION('center_axis',(0.,-6.12323399573677E-17,-1.));
#395=DIRECTION('ref_axis',(-1.,0.,0.));
#396=DIRECTION('center_axis',(0.,0.,-1.));
#397=DIRECTION('ref_axis',(0.703688500097218,0.710508616999771,0.));
#398=DIRECTION('center_axis',(0.,0.,-1.));
#399=DIRECTION('ref_axis',(0.703688500097218,0.710508616999771,0.));
#400=DIRECTION('',(0.,0.,-1.));
#401=DIRECTION('center_axis',(0.,0.,1.));
#402=DIRECTION('ref_axis',(0.703688500097218,0.710508616999771,0.));
#403=DIRECTION('',(0.,0.,1.));
#404=DIRECTION('center_axis',(0.,0.,-1.));
#405=DIRECTION('ref_axis',(0.703688500097218,0.710508616999771,0.));
#406=DIRECTION('',(0.,0.,1.));
#407=DIRECTION('center_axis',(0.,0.,-1.));
#408=DIRECTION('ref_axis',(0.703688500097218,0.710508616999771,0.));
#409=DIRECTION('',(0.,0.,-1.));
#410=DIRECTION('center_axis',(0.,0.,1.));
#411=DIRECTION('ref_axis',(1.,0.,0.));
#412=DIRECTION('center_axis',(0.,0.,1.));
#413=DIRECTION('ref_axis',(0.726656990881032,-0.687000449493101,0.));
#414=DIRECTION('center_axis',(0.,0.,-1.));
#415=DIRECTION('ref_axis',(1.,0.,0.));
#416=DIRECTION('center_axis',(0.,0.,1.));
#417=DIRECTION('ref_axis',(0.726656990881032,-0.687000449493101,0.));
#418=DIRECTION('center_axis',(0.,0.,-1.));
#419=DIRECTION('ref_axis',(0.726656990881032,-0.687000449493101,0.));
#420=DIRECTION('center_axis',(0.973286463882897,0.229594118440186,-8.76644500470145E-15));
#421=DIRECTION('ref_axis',(-1.11022302462516E-14,8.88178419700125E-15,-1.));
#422=DIRECTION('center_axis',(0.,0.,-1.));
#423=DIRECTION('ref_axis',(0.726656990881032,-0.687000449493101,0.));
#424=DIRECTION('center_axis',(0.,0.,-1.));
#425=DIRECTION('ref_axis',(0.726656990881032,-0.687000449493101,0.));
#426=DIRECTION('center_axis',(-0.174669865725543,-0.984627055289169,-6.34931201808343E-16));
#427=DIRECTION('ref_axis',(-0.984627055289169,0.174669865725543,0.));
#428=DIRECTION('center_axis',(0.,0.,1.));
#429=DIRECTION('ref_axis',(0.726656990881032,-0.687000449493101,0.));
#430=DIRECTION('center_axis',(0.,0.,1.));
#431=DIRECTION('ref_axis',(1.,0.,0.));
#432=DIRECTION('center_axis',(1.00929365875014E-16,-1.,0.));
#433=DIRECTION('ref_axis',(-1.,-1.00929365875014E-16,0.));
#434=DIRECTION('center_axis',(0.,0.,1.));
#435=DIRECTION('ref_axis',(1.,1.1161618247826E-16,-5.23200855366844E-18));
#436=DIRECTION('center_axis',(0.,0.,1.));
#437=DIRECTION('ref_axis',(1.,1.1161618247826E-16,-5.23200855366844E-18));
#438=DIRECTION('center_axis',(0.,0.,1.));
#439=DIRECTION('ref_axis',(1.,0.,0.));
#440=DIRECTION('center_axis',(0.,0.,1.));
#441=DIRECTION('ref_axis',(0.726656990881032,-0.687000449493101,0.));
#442=DIRECTION('',(0.,0.,-1.));
#443=DIRECTION('center_axis',(0.,0.,1.));
#444=DIRECTION('ref_axis',(0.726656990881032,-0.687000449493101,0.));
#445=DIRECTION('center_axis',(0.,0.,-1.));
#446=DIRECTION('ref_axis',(0.726656990881032,-0.687000449493101,0.));
#447=DIRECTION('center_axis',(0.,0.,-1.));
#448=DIRECTION('ref_axis',(0.726656990881032,-0.687000449493101,0.));
#449=DIRECTION('center_axis',(0.,0.,1.));
#450=DIRECTION('ref_axis',(1.,0.,0.));
#451=DIRECTION('center_axis',(0.,0.,1.));
#452=DIRECTION('ref_axis',(0.703688500097218,0.710508616999772,0.));
#453=DIRECTION('center_axis',(0.710508616999771,-0.703688500097218,0.));
#454=DIRECTION('ref_axis',(-0.703688500097218,-0.710508616999771,0.));
#455=DIRECTION('center_axis',(0.,0.,1.));
#456=DIRECTION('ref_axis',(0.726656990881032,-0.687000449493101,0.));
#457=DIRECTION('center_axis',(-0.997392589788406,-0.0721666254938957,-5.53664108886801E-16));
#458=DIRECTION('ref_axis',(-5.55111512312578E-16,0.,1.));
#459=DIRECTION('center_axis',(0.0161385418980137,0.999869765252158,-2.08597630765904E-15));
#460=DIRECTION('ref_axis',(-0.999869765252158,0.0161385418980137,0.));
#461=DIRECTION('center_axis',(0.,0.,1.));
#462=DIRECTION('ref_axis',(-0.999849663281904,0.0173392858867976,0.));
#463=DIRECTION('center_axis',(0.,0.,1.));
#464=DIRECTION('ref_axis',(0.726656990881032,-0.687000449493101,0.));
#465=DIRECTION('center_axis',(0.,0.,-1.));
#466=DIRECTION('ref_axis',(1.,-1.00896749033382E-16,0.));
#467=DIRECTION('center_axis',(0.,0.,1.));
#468=DIRECTION('ref_axis',(-0.693977093522691,0.719997078928657,0.));
#469=DIRECTION('center_axis',(0.,-1.22464679914735E-16,-1.));
#470=DIRECTION('ref_axis',(1.,0.,0.));
#471=CARTESIAN_POINT('',(0.,0.,0.));
#472=CARTESIAN_POINT('Ctrl Pts',(-12.6310220491386,-13.9126754990223,6.75000000057248));
#473=CARTESIAN_POINT('Ctrl Pts',(-13.8894466124782,-13.7750286879513,5.64581132464697));
#474=CARTESIAN_POINT('Ctrl Pts',(-15.7357039331734,-13.37850548515,3.24460601096334));
#475=CARTESIAN_POINT('Ctrl Pts',(-16.4383904304062,-13.1696265956281,-0.617766404277369));
#476=CARTESIAN_POINT('Ctrl Pts',(-15.0811861145897,-13.5515057355297,-4.42990724886812));
#477=CARTESIAN_POINT('Ctrl Pts',(-12.0396010949987,-14.0690080907342,-7.50138637240435));
#478=CARTESIAN_POINT('Ctrl Pts',(-8.11250704061546,-14.0714912949779,-9.73974470738192));
#479=CARTESIAN_POINT('Ctrl Pts',(-4.03532302385309,-13.4113840748997,-11.2269569237214));
#480=CARTESIAN_POINT('Ctrl Pts',(0.380877386029776,-11.7973871288386,-12.1777436680552));
#481=CARTESIAN_POINT('Ctrl Pts',(4.60610083191532,-9.15517087024264,-12.6030637032455));
#482=CARTESIAN_POINT('Ctrl Pts',(8.21543013583375,-5.63633470214166,-12.6008552355244));
#483=CARTESIAN_POINT('Ctrl Pts',(11.434472121245,-0.78916470835348,-12.1114593895856));
#484=CARTESIAN_POINT('Ctrl Pts',(13.3689115328315,5.10806412627872,-10.651474555178));
#485=CARTESIAN_POINT('Ctrl Pts',(13.6152057610859,10.4982847891792,-7.88313128247504));
#486=CARTESIAN_POINT('Ctrl Pts',(13.125995949474,13.9268796898689,-4.43084394361258));
#487=CARTESIAN_POINT('Ctrl Pts',(12.7770409314599,15.2970472626495,-0.617245374186274));
#488=CARTESIAN_POINT('Ctrl Pts',(12.9695790150842,14.5872149756902,3.24436570407204));
#489=CARTESIAN_POINT('Ctrl Pts',(13.3172094393396,12.731927185792,5.64581124812189));
#490=CARTESIAN_POINT('Ctrl Pts',(13.4220293862921,11.4703439294972,6.75000008058946));
#491=CARTESIAN_POINT('Ctrl Pts',(-11.3046225383978,-14.0577574277913,5.9665888217983));
#492=CARTESIAN_POINT('Ctrl Pts',(-12.4525695319774,-14.0044594090928,4.97213024959031));
#493=CARTESIAN_POINT('Ctrl Pts',(-14.1326148906862,-13.7711130383301,2.83378458482373));
#494=CARTESIAN_POINT('Ctrl Pts',(-14.7705514569493,-13.6394917125165,-0.537731234736695));
#495=CARTESIAN_POINT('Ctrl Pts',(-13.5377716885831,-13.8783184248157,-3.88003470750238));
#496=CARTESIAN_POINT('Ctrl Pts',(-10.76710976213,-14.1571771658033,-6.63808384269404));
#497=CARTESIAN_POINT('Ctrl Pts',(-7.17504327588654,-13.9776854642968,-8.6828628052988));
#498=CARTESIAN_POINT('Ctrl Pts',(-3.4246217856998,-13.230639640258,-10.0486386555023));
#499=CARTESIAN_POINT('Ctrl Pts',(0.681819551079894,-11.629003332131,-10.9128749638638));
#500=CARTESIAN_POINT('Ctrl Pts',(4.67751745336281,-9.07956672504269,-11.2864186115937));
#501=CARTESIAN_POINT('Ctrl Pts',(8.13853197730377,-5.70625136800661,-11.2839714406746));
#502=CARTESIAN_POINT('Ctrl Pts',(11.2404264781961,-1.12269081025419,-10.8556526636333));
#503=CARTESIAN_POINT('Ctrl Pts',(13.1796863966205,4.33271627893915,-9.52112539875529));
#504=CARTESIAN_POINT('Ctrl Pts',(13.641565405147,9.25761120398675,-6.98057023368331));
#505=CARTESIAN_POINT('Ctrl Pts',(13.4122963738453,12.3759123438195,-3.88100682390952));
#506=CARTESIAN_POINT('Ctrl Pts',(13.2035317567585,13.6172781320338,-0.537066401569954));
#507=CARTESIAN_POINT('Ctrl Pts',(13.3201848516837,12.9745776327645,2.83347387690406));
#508=CARTESIAN_POINT('Ctrl Pts',(13.5091337123151,11.2895613155219,4.97213018013465));
#509=CARTESIAN_POINT('Ctrl Pts',(13.5325112598077,10.140615325317,5.96658889386477));
#510=CARTESIAN_POINT('Ctrl Pts',(-8.58681580767886,-13.7164561686956,4.40213730411833));
#511=CARTESIAN_POINT('Ctrl Pts',(-9.47625435214024,-13.7961188189679,3.62705210161673));
#512=CARTESIAN_POINT('Ctrl Pts',(-10.7550913642228,-13.8297332508478,2.01390844627474));
#513=CARTESIAN_POINT('Ctrl Pts',(-11.2308683752323,-13.8276267008582,-0.378035341187685));
#514=CARTESIAN_POINT('Ctrl Pts',(-10.307225614456,-13.82757421756,-2.78247458503087));
#515=CARTESIAN_POINT('Ctrl Pts',(-8.18035460477244,-13.7224564481704,-4.91397291962275));
#516=CARTESIAN_POINT('Ctrl Pts',(-5.34882298450591,-13.2718047849002,-6.57134155110583));
#517=CARTESIAN_POINT('Ctrl Pts',(-2.32519336936996,-12.4194135922373,-7.69403451022286));
#518=CARTESIAN_POINT('Ctrl Pts',(1.08537341545132,-10.8886216799537,-8.3851677137183));
#519=CARTESIAN_POINT('Ctrl Pts',(4.53665058991461,-8.5661273183763,-8.65533191148551));
#520=CARTESIAN_POINT('Ctrl Pts',(7.62959300596614,-5.55263714822393,-8.65241203727901));
#521=CARTESIAN_POINT('Ctrl Pts',(10.4477270138627,-1.59559696992517,-8.34603202771157));
#522=CARTESIAN_POINT('Ctrl Pts',(12.3270189369646,2.88066040900705,-7.26250922804274));
#523=CARTESIAN_POINT('Ctrl Pts',(13.0940063027816,6.76339685481274,-5.17797852722637));
#524=CARTESIAN_POINT('Ctrl Pts',(13.2773033861978,9.14849777610591,-2.78352564157218));
#525=CARTESIAN_POINT('Ctrl Pts',(13.2996904503883,10.0734367356733,-0.377079924233889));
#526=CARTESIAN_POINT('Ctrl Pts',(13.2906706375825,9.5969088573943,2.01345537691141));
#527=CARTESIAN_POINT('Ctrl Pts',(13.2233350504389,8.31968301806294,3.62705204630123));
#528=CARTESIAN_POINT('Ctrl Pts',(13.1205308043664,7.43262123666058,4.40213736028916));
#529=CARTESIAN_POINT('Ctrl Pts',(-4.34174939174941,-11.0203122029874,2.09663702275135));
#530=CARTESIAN_POINT('Ctrl Pts',(-4.76319303781463,-11.1790312544692,1.67030866283313));
#531=CARTESIAN_POINT('Ctrl Pts',(-5.31262483789732,-11.3957970041041,0.854451780214677));
#532=CARTESIAN_POINT('Ctrl Pts',(-5.49489670813299,-11.4871902956264,-0.154725319021174));
#533=CARTESIAN_POINT('Ctrl Pts',(-5.13211327620869,-11.3157191993044,-1.21519853134495));
#534=CARTESIAN_POINT('Ctrl Pts',(-4.17276919762593,-10.9599949352438,-2.36294060259944));
#535=CARTESIAN_POINT('Ctrl Pts',(-2.72369608376902,-10.3961380233815,-3.35889670192604));
#536=CARTESIAN_POINT('Ctrl Pts',(-1.04165064842573,-9.60003914286676,-4.05469125576659));
#537=CARTESIAN_POINT('Ctrl Pts',(1.02393835167588,-8.33393768197166,-4.45890192191213));
#538=CARTESIAN_POINT('Ctrl Pts',(3.33151415372778,-6.51163681144385,-4.57986145189835));
#539=CARTESIAN_POINT('Ctrl Pts',(5.6069653194951,-4.29411876012588,-4.57690176431674));
#540=CARTESIAN_POINT('Ctrl Pts',(7.80689860575463,-1.6563213950399,-4.44463987152724));
#541=CARTESIAN_POINT('Ctrl Pts',(9.3653746496393,0.969986978143334,-3.78964130572532));
#542=CARTESIAN_POINT('Ctrl Pts',(10.2002538888293,2.9744962647468,-2.50396150532443));
#543=CARTESIAN_POINT('Ctrl Pts',(10.6318060969582,4.0408470292496,-1.21651001575169));
#544=CARTESIAN_POINT('Ctrl Pts',(10.8106932717495,4.40004820897589,-0.153299717501157));
#545=CARTESIAN_POINT('Ctrl Pts',(10.7157768114046,4.21985512791909,0.853767342131227));
#546=CARTESIAN_POINT('Ctrl Pts',(10.4843669838546,3.67639231564209,1.67030863084916));
#547=CARTESIAN_POINT('Ctrl Pts',(10.3147237542926,3.25922601215336,2.09663705364343));
#548=CARTESIAN_POINT('Ctrl Pts',(-2.40440693546484,-7.58917174715761,1.18495492175021));
#549=CARTESIAN_POINT('Ctrl Pts',(-2.58352801342583,-7.6776356563349,0.945789236009967));
#550=CARTESIAN_POINT('Ctrl Pts',(-2.79872478679606,-7.77511413261433,0.486457247441394));
#551=CARTESIAN_POINT('Ctrl Pts',(-2.86042181325382,-7.812012645064,-0.0883252641548732));
#552=CARTESIAN_POINT('Ctrl Pts',(-2.73245582927385,-7.74214369175855,-0.690594213211783));
#553=CARTESIAN_POINT('Ctrl Pts',(-2.34166859636096,-7.56632538827267,-1.33376130508557));
#554=CARTESIAN_POINT('Ctrl Pts',(-1.67712499716228,-7.20497583992012,-1.89369068907267));
#555=CARTESIAN_POINT('Ctrl Pts',(-0.840183666013944,-6.62456003852425,-2.28598547463805));
#556=CARTESIAN_POINT('Ctrl Pts',(0.291605899611793,-5.63718503586864,-2.51415244324534));
#557=CARTESIAN_POINT('Ctrl Pts',(1.73138077214289,-4.21841900201127,-2.58206344255998));
#558=CARTESIAN_POINT('Ctrl Pts',(3.3552172378959,-2.63377509279393,-2.58033095815147));
#559=CARTESIAN_POINT('Ctrl Pts',(5.06071348092687,-0.998493823677471,-2.50627168995798));
#560=CARTESIAN_POINT('Ctrl Pts',(6.2505959326642,0.376241364638067,-2.13609830740151));
#561=CARTESIAN_POINT('Ctrl Pts',(6.78367623699161,1.30232218798776,-1.41284575593341));
#562=CARTESIAN_POINT('Ctrl Pts',(6.99684883962766,1.73597897688715,-0.69094573246335));
#563=CARTESIAN_POINT('Ctrl Pts',(7.06812858271671,1.86182349301399,-0.0880026187657364));
#564=CARTESIAN_POINT('Ctrl Pts',(7.03084543562647,1.80131992989476,0.486298822079883));
#565=CARTESIAN_POINT('Ctrl Pts',(6.92738230669937,1.58867325092744,0.945789218073718));
#566=CARTESIAN_POINT('Ctrl Pts',(6.83428255033122,1.41191728230957,1.18495493909082));
#567=CARTESIAN_POINT('Ctrl Pts',(-1.84204378439553,-5.34500068740758,1.00000000008481));
#568=CARTESIAN_POINT('Ctrl Pts',(-1.94879901893394,-5.3721244580449,0.836416492540297));
#569=CARTESIAN_POINT('Ctrl Pts',(-2.09441603398147,-5.36170628713261,0.480682371994562));
#570=CARTESIAN_POINT('Ctrl Pts',(-2.1478215939095,-5.34571862794943,-0.0915209487818233));
#571=CARTESIAN_POINT('Ctrl Pts',(-2.04405342367252,-5.37245688280582,-0.656282555387878));
#572=CARTESIAN_POINT('Ctrl Pts',(-1.79774964149601,-5.35745570440533,-1.11131649961541));
#573=CARTESIAN_POINT('Ctrl Pts',(-1.43658710752805,-5.15463525679741,-1.44292514183439));
#574=CARTESIAN_POINT('Ctrl Pts',(-0.991112409085549,-4.72296747836661,-1.66325287758837));
#575=CARTESIAN_POINT('Ctrl Pts',(-0.341571481039107,-3.90655972909414,-1.80411017304521));
#576=CARTESIAN_POINT('Ctrl Pts',(0.626312305902163,-2.72028407867062,-1.86712054862897));
#577=CARTESIAN_POINT('Ctrl Pts',(1.88565418046832,-1.48929224155303,-1.86679336822583));
#578=CARTESIAN_POINT('Ctrl Pts',(3.30750015157882,-0.399413280268372,-1.7942902799386));
#579=CARTESIAN_POINT('Ctrl Pts',(4.26898180940281,0.340308256812495,-1.57799623039678));
#580=CARTESIAN_POINT('Ctrl Pts',(4.58167899491342,0.832831605688765,-1.16787130110739));
#581=CARTESIAN_POINT('Ctrl Pts',(4.61034834245245,1.10946983030671,-0.656421324979681));
#582=CARTESIAN_POINT('Ctrl Pts',(4.58392286063858,1.21380547640095,-0.0914437591386606));
#583=CARTESIAN_POINT('Ctrl Pts',(4.60000316128712,1.16007899776959,0.48064677097359));
#584=CARTESIAN_POINT('Ctrl Pts',(4.60611962627843,1.01421491298859,0.836416481203273));
#585=CARTESIAN_POINT('Ctrl Pts',(4.57622423128777,0.908202421349769,1.00000001193918));
#586=CARTESIAN_POINT('',(12.8790750866792,14.9058932130701,0.999999999990641));
#587=CARTESIAN_POINT('',(4.57622422998309,0.90820242410397,1.00000001348564));
#588=CARTESIAN_POINT('Ctrl Pts',(12.8790750866798,14.9058932130674,1.));
#589=CARTESIAN_POINT('Ctrl Pts',(13.2241479983869,13.4360437015847,1.));
#590=CARTESIAN_POINT('Ctrl Pts',(13.2779379425708,11.9135449882982,1.00000000000001));
#591=CARTESIAN_POINT('Ctrl Pts',(12.7989307280194,8.91523246774158,1.00000000000001));
#592=CARTESIAN_POINT('Ctrl Pts',(12.2650634438628,7.47132519345905,1.));
#593=CARTESIAN_POINT('Ctrl Pts',(10.669119723609,4.84660289464233,1.));
#594=CARTESIAN_POINT('Ctrl Pts',(9.61301924012116,3.69088704089323,1.));
#595=CARTESIAN_POINT('Ctrl Pts',(7.23488919020279,1.92520395434349,1.));
#596=CARTESIAN_POINT('Ctrl Pts',(5.94136995405969,1.27963619923384,1.));
#597=CARTESIAN_POINT('Ctrl Pts',(4.57622423346968,0.908202429087114,1.));
#598=CARTESIAN_POINT('',(-1.84204378441484,-5.34500068739781,1.0000000000958));
#599=CARTESIAN_POINT('Ctrl Pts',(4.57622423128777,0.908202421349769,1.00000001193918));
#600=CARTESIAN_POINT('Ctrl Pts',(4.60088445372444,0.995650392038767,0.865062632580788));
#601=CARTESIAN_POINT('Ctrl Pts',(4.60321797111954,1.0606150604191,0.720392935282302));
#602=CARTESIAN_POINT('Ctrl Pts',(4.60090892906148,1.10617685929986,0.570426649220217));
#603=CARTESIAN_POINT('Ctrl Pts',(4.60041873176538,1.115849385852,0.538589607674566));
#604=CARTESIAN_POINT('Ctrl Pts',(4.5997191779131,1.12464739590426,0.506514001200488));
#605=CARTESIAN_POINT('Ctrl Pts',(4.59897929127468,1.13260034626395,0.474242421135765));
#606=CARTESIAN_POINT('Ctrl Pts',(4.59831269540934,1.13976550312971,0.445167559227718));
#607=CARTESIAN_POINT('Ctrl Pts',(4.59761335887253,1.14624472584256,0.415933626557059));
#608=CARTESIAN_POINT('Ctrl Pts',(4.59691232707928,1.15204229393193,0.386570558458161));
#609=CARTESIAN_POINT('Ctrl Pts',(4.59317007293342,1.1829909234055,0.229824367505341));
#610=CARTESIAN_POINT('Ctrl Pts',(4.58957065930084,1.19457007198848,0.0693557715976465));
#611=CARTESIAN_POINT('Ctrl Pts',(4.59101315122129,1.18746335690334,-0.0902582712306925));
#612=CARTESIAN_POINT('Ctrl Pts',(4.59190624621729,1.18306335189075,-0.189080663870622));
#613=CARTESIAN_POINT('Ctrl Pts',(4.59473150773121,1.17150125417688,-0.287575068887459));
#614=CARTESIAN_POINT('Ctrl Pts',(4.59717631751903,1.15244504770187,-0.384635083993457));
#615=CARTESIAN_POINT('Ctrl Pts',(4.59941995976703,1.13495685285453,-0.473708660011046));
#616=CARTESIAN_POINT('Ctrl Pts',(4.60135216555549,1.11114942976652,-0.561620858924094));
#617=CARTESIAN_POINT('Ctrl Pts',(4.60123650554717,1.08077071783062,-0.647501944220933));
#618=CARTESIAN_POINT('Ctrl Pts',(4.60109291528406,1.04305597698401,-0.754122095938695));
#619=CARTESIAN_POINT('Ctrl Pts',(4.59779195042736,0.995214062840279,-0.857609199373551));
#620=CARTESIAN_POINT('Ctrl Pts',(4.5834051986088,0.935742720331401,-0.956280442369417));
#621=CARTESIAN_POINT('Ctrl Pts',(4.57946722102991,0.919464076177358,-0.983288981023593));
#622=CARTESIAN_POINT('Ctrl Pts',(4.57469869699156,0.902314071241328,-1.00993697318588));
#623=CARTESIAN_POINT('Ctrl Pts',(4.56893730868865,0.884261704593238,-1.03619060221128));
#624=CARTESIAN_POINT('Ctrl Pts',(4.5603257133248,0.857278680926039,-1.07543212146201));
#625=CARTESIAN_POINT('Ctrl Pts',(4.54929982211793,0.828237261231527,-1.11377473295029));
#626=CARTESIAN_POINT('Ctrl Pts',(4.53539326391091,0.797053671288073,-1.15110940632784));
#627=CARTESIAN_POINT('Ctrl Pts',(4.52266343379259,0.768508736117935,-1.18528494009714));
#628=CARTESIAN_POINT('Ctrl Pts',(4.50751991261577,0.738169008462062,-1.21861584429158));
#629=CARTESIAN_POINT('Ctrl Pts',(4.489126816102,0.705816321570226,-1.25099007792198));
#630=CARTESIAN_POINT('Ctrl Pts',(4.4603922068784,0.655273346684305,-1.30156671419342));
#631=CARTESIAN_POINT('Ctrl Pts',(4.42386854408385,0.599889435359193,-1.34977362482394));
#632=CARTESIAN_POINT('Ctrl Pts',(4.37621908408298,0.538776313096696,-1.39520784609542));
#633=CARTESIAN_POINT('Ctrl Pts',(4.33476692703769,0.485611581712392,-1.43473287902007));
#634=CARTESIAN_POINT('Ctrl Pts',(4.28489556806318,0.428110984711018,-1.47216003044046));
#635=CARTESIAN_POINT('Ctrl Pts',(4.22438108924589,0.365659303812922,-1.50722369144577));
#636=CARTESIAN_POINT('Ctrl Pts',(4.19878109868112,0.339239801026291,-1.52205699098739));
#637=CARTESIAN_POINT('Ctrl Pts',(4.17127597471113,0.311933839177494,-1.53646727335914));
#638=CARTESIAN_POINT('Ctrl Pts',(4.14169518158514,0.283692899704245,-1.55043409584677));
#639=CARTESIAN_POINT('Ctrl Pts',(4.08165179586166,0.226369162143722,-1.57878408992519));
#640=CARTESIAN_POINT('Ctrl Pts',(4.01305800006303,0.165194851629338,-1.60530732440572));
#641=CARTESIAN_POINT('Ctrl Pts',(3.935511969212,0.0991074736396702,-1.62998092764617));
#642=CARTESIAN_POINT('Ctrl Pts',(3.87139513365562,0.0444649148856914,-1.65038162829054));
#643=CARTESIAN_POINT('Ctrl Pts',(3.80064327727527,-0.013512118005927,-1.66937103954143));
#644=CARTESIAN_POINT('Ctrl Pts',(3.7232872225023,-0.0753346003049938,-1.68695924357205));
#645=CARTESIAN_POINT('Ctrl Pts',(3.64586231500707,-0.137212109275415,-1.70456310243061));
#646=CARTESIAN_POINT('Ctrl Pts',(3.561821512416,-0.202941591173783,-1.72076376980921));
#647=CARTESIAN_POINT('Ctrl Pts',(3.47119779244107,-0.273080957384458,-1.73559721248613));
#648=CARTESIAN_POINT('Ctrl Pts',(3.37799847143989,-0.345213742356156,-1.75085223386443));
#649=CARTESIAN_POINT('Ctrl Pts',(3.27783695168704,-0.422010551348153,-1.76466178945659));
#650=CARTESIAN_POINT('Ctrl Pts',(3.17074917445862,-0.50413002670492,-1.77708418265903));
#651=CARTESIAN_POINT('Ctrl Pts',(3.15834344812363,-0.513643266818918,-1.77852327136256));
#652=CARTESIAN_POINT('Ctrl Pts',(3.14584476636507,-0.523227994425859,-1.77994375834976));
#653=CARTESIAN_POINT('Ctrl Pts',(3.13325318250646,-0.532885276047586,-1.78134574428506));
#654=CARTESIAN_POINT('Ctrl Pts',(3.1021424775158,-0.556746042327564,-1.78480970650966));
#655=CARTESIAN_POINT('Ctrl Pts',(3.07046171420321,-0.581033481095123,-1.78815269703681));
#656=CARTESIAN_POINT('Ctrl Pts',(3.03820359868775,-0.605764292748854,-1.7913752526237));
#657=CARTESIAN_POINT('Ctrl Pts',(2.94907363462066,-0.674096131693078,-1.80027925272024));
#658=CARTESIAN_POINT('Ctrl Pts',(2.8555396390226,-0.745810425404641,-1.80826444275155));
#659=CARTESIAN_POINT('Ctrl Pts',(2.75860037483638,-0.820955131784993,-1.81540304575751));
#660=CARTESIAN_POINT('Ctrl Pts',(2.65050061786243,-0.904751151548355,-1.82336350694479));
#661=CARTESIAN_POINT('Ctrl Pts',(2.53816509327774,-0.99281222808428,-1.83027130267851));
#662=CARTESIAN_POINT('Ctrl Pts',(2.42292778528692,-1.08525106280505,-1.83621519087741));
#663=CARTESIAN_POINT('Ctrl Pts',(2.32262264495576,-1.16571190010136,-1.84138888462553));
#664=CARTESIAN_POINT('Ctrl Pts',(2.2201171772416,-1.24949027419396,-1.8458320377473));
#665=CARTESIAN_POINT('Ctrl Pts',(2.11627951914437,-1.33668959367105,-1.84959706279982));
#666=CARTESIAN_POINT('Ctrl Pts',(2.03793920416019,-1.40247711507147,-1.85243758572708));
#667=CARTESIAN_POINT('Ctrl Pts',(1.95889881611454,-1.47001615734895,-1.85484069795726));
#668=CARTESIAN_POINT('Ctrl Pts',(1.87959709581278,-1.53931375738879,-1.85684108024109));
#669=CARTESIAN_POINT('Ctrl Pts',(1.75854953392124,-1.64509085147753,-1.85989449947823));
#670=CARTESIAN_POINT('Ctrl Pts',(1.63689411798844,-1.75496280498459,-1.86200971235369));
#671=CARTESIAN_POINT('Ctrl Pts',(1.5160612056776,-1.86759223918683,-1.86322437861058));
#672=CARTESIAN_POINT('Ctrl Pts',(1.37728431423895,-1.99694741621735,-1.86461942573841));
#673=CARTESIAN_POINT('Ctrl Pts',(1.23959239957036,-2.1299405220425,-1.86482672293184));
#674=CARTESIAN_POINT('Ctrl Pts',(1.10511671788436,-2.26460853054725,-1.86389832511113));
#675=CARTESIAN_POINT('Ctrl Pts',(1.05031469379555,-2.31948893236817,-1.86351998101876));
#676=CARTESIAN_POINT('Ctrl Pts',(0.996046436184094,-2.37464808124477,-1.86295296254634));
#677=CARTESIAN_POINT('Ctrl Pts',(0.942454874523264,-2.4299549513087,-1.86220052388816));
#678=CARTESIAN_POINT('Ctrl Pts',(0.851212042310871,-2.52411819845148,-1.8609194521651));
#679=CARTESIAN_POINT('Ctrl Pts',(0.761782406311102,-2.61870855557204,-1.85905720050652));
#680=CARTESIAN_POINT('Ctrl Pts',(0.674961174379506,-2.71292996833983,-1.85661191092285));
#681=CARTESIAN_POINT('Ctrl Pts',(0.565198479687011,-2.83204825234754,-1.85352048307697));
#682=CARTESIAN_POINT('Ctrl Pts',(0.459607454950481,-2.95057512055669,-1.84949687823425));
#683=CARTESIAN_POINT('Ctrl Pts',(0.358446472153024,-3.06697358952784,-1.84448959553943));
#684=CARTESIAN_POINT('Ctrl Pts',(0.266609821092795,-3.17264323886538,-1.83994385012565));
#685=CARTESIAN_POINT('Ctrl Pts',(0.178423758648163,-3.27655753713819,-1.83458746667451));
#686=CARTESIAN_POINT('Ctrl Pts',(0.0940468047178211,-3.37758972769993,-1.82838921247501));
#687=CARTESIAN_POINT('Ctrl Pts',(0.0530545745834291,-3.426673448,-1.8253779605781));
#688=CARTESIAN_POINT('Ctrl Pts',(0.0129608723119223,-3.4750773958017,-1.82216811733235));
#689=CARTESIAN_POINT('Ctrl Pts',(-0.0262190874330046,-3.5226758137978,-1.81875674811634));
#690=CARTESIAN_POINT('Ctrl Pts',(-0.118468289229821,-3.63474627266293,-1.81072468046593));
#691=CARTESIAN_POINT('Ctrl Pts',(-0.205923995359092,-3.7427580158531,-1.80157079195669));
#692=CARTESIAN_POINT('Ctrl Pts',(-0.288457400085025,-3.84507020556296,-1.79119847411879));
#693=CARTESIAN_POINT('Ctrl Pts',(-0.409041223866758,-3.99455143798837,-1.77604420112441));
#694=CARTESIAN_POINT('Ctrl Pts',(-0.519119161599396,-4.13186380006436,-1.75828764870678));
#695=CARTESIAN_POINT('Ctrl Pts',(-0.620353721575406,-4.25649809401328,-1.73783134629971));
#696=CARTESIAN_POINT('Ctrl Pts',(-0.658517656524148,-4.30348338330358,-1.73011962221517));
#697=CARTESIAN_POINT('Ctrl Pts',(-0.695424319655691,-4.34866688098804,-1.72202443379394));
#698=CARTESIAN_POINT('Ctrl Pts',(-0.731161072313903,-4.39202136412469,-1.7135415458322));
#699=CARTESIAN_POINT('Ctrl Pts',(-0.81223243083513,-4.49037408462756,-1.69429751272658));
#700=CARTESIAN_POINT('Ctrl Pts',(-0.887166794278081,-4.57940990322302,-1.67314716831407));
#701=CARTESIAN_POINT('Ctrl Pts',(-0.957084600642565,-4.65903582664804,-1.65006927352789));
#702=CARTESIAN_POINT('Ctrl Pts',(-1.04097378594006,-4.75457306089512,-1.62237982083108));
#703=CARTESIAN_POINT('Ctrl Pts',(-1.11764138649234,-4.83656548737496,-1.59191569352906));
#704=CARTESIAN_POINT('Ctrl Pts',(-1.18823828778259,-4.90709710513932,-1.55890936420241));
#705=CARTESIAN_POINT('Ctrl Pts',(-1.25627887113363,-4.97507476888478,-1.52709819599788));
#706=CARTESIAN_POINT('Ctrl Pts',(-1.31867957491539,-5.03240523703798,-1.49292533310112));
#707=CARTESIAN_POINT('Ctrl Pts',(-1.37644530515521,-5.08091675545273,-1.45659289457676));
#708=CARTESIAN_POINT('Ctrl Pts',(-1.38916658158782,-5.09160005216442,-1.44859169746526));
#709=CARTESIAN_POINT('Ctrl Pts',(-1.40166114012592,-5.10185427662154,-1.44048700927892));
#710=CARTESIAN_POINT('Ctrl Pts',(-1.41393962465443,-5.11169919350557,-1.43228123231146));
#711=CARTESIAN_POINT('Ctrl Pts',(-1.51051247993488,-5.18913152900928,-1.36774107593449));
#712=CARTESIAN_POINT('Ctrl Pts',(-1.59372087698201,-5.24124789372914,-1.29694830588441));
#713=CARTESIAN_POINT('Ctrl Pts',(-1.66630712947528,-5.27769386581752,-1.22126966402692));
#714=CARTESIAN_POINT('Ctrl Pts',(-1.68832713573834,-5.28875023677046,-1.1983115402715));
#715=CARTESIAN_POINT('Ctrl Pts',(-1.70936941617748,-5.29836413196484,-1.17490370333905));
#716=CARTESIAN_POINT('Ctrl Pts',(-1.72951011918323,-5.30680410880478,-1.15108415305218));
#717=CARTESIAN_POINT('Ctrl Pts',(-1.78415428193607,-5.32970278656891,-1.08645883276403));
#718=CARTESIAN_POINT('Ctrl Pts',(-1.83216237608207,-5.34396062544084,-1.01880301961482));
#719=CARTESIAN_POINT('Ctrl Pts',(-1.87417719822179,-5.35267183702669,-0.948726528726894));
#720=CARTESIAN_POINT('Ctrl Pts',(-1.93196990658082,-5.36465438235227,-0.852334113039825));
#721=CARTESIAN_POINT('Ctrl Pts',(-1.97841044070733,-5.36613939143435,-0.751381198010015));
#722=CARTESIAN_POINT('Ctrl Pts',(-2.01516961752904,-5.36520002888724,-0.647474814669001));
#723=CARTESIAN_POINT('Ctrl Pts',(-2.06520844018037,-5.3639213115719,-0.506031138888144));
#724=CARTESIAN_POINT('Ctrl Pts',(-2.09730801240425,-5.35814969586875,-0.35911413613525));
#725=CARTESIAN_POINT('Ctrl Pts',(-2.11279333468101,-5.35496547675419,-0.210413583424673));
#726=CARTESIAN_POINT('Ctrl Pts',(-2.1169526866168,-5.35411019665723,-0.170472669008029));
#727=CARTESIAN_POINT('Ctrl Pts',(-2.11991348562773,-5.35344276220683,-0.130404466874145));
#728=CARTESIAN_POINT('Ctrl Pts',(-2.12170018002726,-5.35309578577615,-0.0902809387432354));
#729=CARTESIAN_POINT('Ctrl Pts',(-2.12862867347523,-5.35175027088159,0.0653111993630432));
#730=CARTESIAN_POINT('Ctrl Pts',(-2.11790040371629,-5.35522132415703,0.22173539263381));
#731=CARTESIAN_POINT('Ctrl Pts',(-2.08873107691208,-5.35930737834069,0.374737797505436));
#732=CARTESIAN_POINT('Ctrl Pts',(-2.08237316051023,-5.36019799851467,0.40808709301664));
#733=CARTESIAN_POINT('Ctrl Pts',(-2.07513920966507,-5.36111798858312,0.441273781529759));
#734=CARTESIAN_POINT('Ctrl Pts',(-2.06702132271542,-5.36202417526032,0.474253613868064));
#735=CARTESIAN_POINT('Ctrl Pts',(-2.06059945986168,-5.36274103749269,0.500343156815541));
#736=CARTESIAN_POINT('Ctrl Pts',(-2.0536244299903,-5.36344926343283,0.526303246002054));
#737=CARTESIAN_POINT('Ctrl Pts',(-2.04607782247078,-5.36405639023814,0.552111375893901));
#738=CARTESIAN_POINT('Ctrl Pts',(-2.01063231108559,-5.36690799210488,0.673329070009526));
#739=CARTESIAN_POINT('Ctrl Pts',(-1.96266290991818,-5.3678805448317,0.791241545321087));
#740=CARTESIAN_POINT('Ctrl Pts',(-1.9002437630642,-5.35734997423879,0.903502777166767));
#741=CARTESIAN_POINT('Ctrl Pts',(-1.88208235961236,-5.35428601148448,0.936166176561177));
#742=CARTESIAN_POINT('Ctrl Pts',(-1.86269792561921,-5.35024837565148,0.968351183225403));
#743=CARTESIAN_POINT('Ctrl Pts',(-1.84204378439553,-5.34500068740758,1.00000000008481));
#744=CARTESIAN_POINT('',(-16.0512622979823,-13.2804142752226,1.));
#745=CARTESIAN_POINT('Ctrl Pts',(-1.84204378445087,-5.34500068742164,1.));
#746=CARTESIAN_POINT('Ctrl Pts',(-2.25441983633084,-6.71835207339192,1.));
#747=CARTESIAN_POINT('Ctrl Pts',(-2.94633463267386,-8.01078834065293,1.));
#748=CARTESIAN_POINT('Ctrl Pts',(-4.81396354293822,-10.3703125635605,1.));
#749=CARTESIAN_POINT('Ctrl Pts',(-6.02703114094703,-11.4048737884209,1.));
#750=CARTESIAN_POINT('Ctrl Pts',(-8.74690290306062,-12.9205841624746,1.));
#751=CARTESIAN_POINT('Ctrl Pts',(-10.224431099207,-13.4009825139427,1.));
#752=CARTESIAN_POINT('Ctrl Pts',(-13.1929800186465,-13.7491717312183,1.));
#753=CARTESIAN_POINT('Ctrl Pts',(-14.6501243473383,-13.6481153710703,1.));
#754=CARTESIAN_POINT('Ctrl Pts',(-16.0512622979757,-13.2804142752243,1.));
#755=CARTESIAN_POINT('',(-15.8395930182746,-13.3349149908766,-2.));
#756=CARTESIAN_POINT('Ctrl Pts',(-16.0511709917709,-13.2812213433566,0.999900685287794));
#757=CARTESIAN_POINT('Ctrl Pts',(-16.1262007773312,-13.2612153255689,0.464542006887715));
#758=CARTESIAN_POINT('Ctrl Pts',(-16.1534862094984,-13.2514702308492,-0.539879717246103));
#759=CARTESIAN_POINT('Ctrl Pts',(-15.9702261990609,-13.302107662227,-1.53916717493812));
#760=CARTESIAN_POINT('Ctrl Pts',(-15.8395751171275,-13.3355388283282,-1.99992938936639));
#761=CARTESIAN_POINT('',(12.9280436255042,14.692876091261,-1.9999999999997));
#762=CARTESIAN_POINT('Ctrl Pts',(-15.8395930182712,-13.3349149908775,-2.));
#763=CARTESIAN_POINT('Ctrl Pts',(-14.3400802860031,-13.7136056973873,-2.));
#764=CARTESIAN_POINT('Ctrl Pts',(-12.783360899385,-13.7922568854427,-2.));
#765=CARTESIAN_POINT('Ctrl Pts',(-9.65792443147523,-13.350309277997,-2.));
#766=CARTESIAN_POINT('Ctrl Pts',(-8.13007577258733,-12.8122169065023,-2.));
#767=CARTESIAN_POINT('Ctrl Pts',(-5.70833326415693,-11.4128834468129,-2.));
#768=CARTESIAN_POINT('Ctrl Pts',(-4.29084722006425,-10.4194898146255,-2.));
#769=CARTESIAN_POINT('Ctrl Pts',(-1.9830757088089,-7.55180621652093,-2.));
#770=CARTESIAN_POINT('Ctrl Pts',(-1.38417158645353,-6.46959870987476,-2.));
#771=CARTESIAN_POINT('Ctrl Pts',(-0.568696269556456,-5.05486408061732,-2.));
#772=CARTESIAN_POINT('Ctrl Pts',(-0.324151573801996,-4.64083675703281,-2.));
#773=CARTESIAN_POINT('Ctrl Pts',(0.281466703945728,-3.73240892191275,-2.));
#774=CARTESIAN_POINT('Ctrl Pts',(0.619074019721968,-3.2879758592009,-2.0000000000001));
#775=CARTESIAN_POINT('Ctrl Pts',(1.44297290798562,-2.36954300934579,-2.0000000000001));
#776=CARTESIAN_POINT('Ctrl Pts',(1.91939643134074,-1.92971185184601,-2.));
#777=CARTESIAN_POINT('Ctrl Pts',(2.86759368621332,-1.20106142114137,-2.));
#778=CARTESIAN_POINT('Ctrl Pts',(3.29916601759529,-0.916741592385149,-2.));
#779=CARTESIAN_POINT('Ctrl Pts',(4.24478992837935,-0.356082640424928,-2.));
#780=CARTESIAN_POINT('Ctrl Pts',(4.71960639524343,-0.104840807855849,-2.00000000000325));
#781=CARTESIAN_POINT('Ctrl Pts',(5.74639101546316,0.451734476339818,-2.00000000000325));
#782=CARTESIAN_POINT('Ctrl Pts',(6.28883396774073,0.752496448696945,-2.00000000000003));
#783=CARTESIAN_POINT('Ctrl Pts',(7.93861401824978,1.81013130313206,-2.00000000000003));
#784=CARTESIAN_POINT('Ctrl Pts',(9.57819448944348,3.02178238090698,-2.00000000000001));
#785=CARTESIAN_POINT('Ctrl Pts',(11.9085745641478,6.37338525279636,-2.00000000000001));
#786=CARTESIAN_POINT('Ctrl Pts',(12.5932297818502,7.91890615659903,-2.00000000015598));
#787=CARTESIAN_POINT('Ctrl Pts',(13.128242615071,10.4088156294054,-2.00000000015598));
#788=CARTESIAN_POINT('Ctrl Pts',(13.2195427673183,11.2750202506434,-2.00000000000001));
#789=CARTESIAN_POINT('Ctrl Pts',(13.2123511246211,13.0017586399567,-2.00000000000001));
#790=CARTESIAN_POINT('Ctrl Pts',(13.1163059421075,13.8561711349763,-2.));
#791=CARTESIAN_POINT('Ctrl Pts',(12.9280436255042,14.6928760912609,-2.));
#792=CARTESIAN_POINT('Ctrl Pts',(12.9283726693939,14.6927196565568,-1.99993376586486));
#793=CARTESIAN_POINT('Ctrl Pts',(12.8982105178977,14.824389996431,-1.53910682061807));
#794=CARTESIAN_POINT('Ctrl Pts',(12.8520800415596,15.0093536724164,-0.539656242948534));
#795=CARTESIAN_POINT('Ctrl Pts',(12.86129294278,14.9817306742397,0.464701459845545));
#796=CARTESIAN_POINT('Ctrl Pts',(12.8794755173194,14.9061020437928,1.00000795314441));
#797=CARTESIAN_POINT('Origin',(0.,0.,1.));
#798=CARTESIAN_POINT('',(10.055609593918,21.7918497538576,1.));
#799=CARTESIAN_POINT('Origin',(-10.0680983066559,9.51864242553711,1.));
#800=CARTESIAN_POINT('',(-4.71733080863019,23.5318250469858,1.));
#801=CARTESIAN_POINT('Origin',(0.,0.,1.));
#802=CARTESIAN_POINT('',(-23.7592751005556,3.39070003039482,1.));
#803=CARTESIAN_POINT('Origin',(-10.0680983066559,9.51864242553711,1.));
#804=CARTESIAN_POINT('',(-21.1938538271889,-11.2614634906725,1.));
#805=CARTESIAN_POINT('Origin',(0.,0.,1.));
#806=CARTESIAN_POINT('Origin',(-10.0680983066559,9.51864242553711,1.));
#807=CARTESIAN_POINT('Origin',(7.00000010430813,-8.00000011920929,1.));
#808=CARTESIAN_POINT('Origin',(-10.0680983066559,9.51864242553711,10.));
#809=CARTESIAN_POINT('',(9.57106620060927,22.5531525907922,-2.));
#810=CARTESIAN_POINT('Origin',(-10.0680983066559,9.51864242553711,-2.));
#811=CARTESIAN_POINT('',(9.57106620060927,22.5531525907922,6.24165738677394));
#812=CARTESIAN_POINT('',(9.57106620060927,22.5531525907922,10.));
#813=CARTESIAN_POINT('',(-21.9811232810635,-10.8203613295808,6.24165738677394));
#814=CARTESIAN_POINT('Origin',(-10.0680983066559,9.51864242553711,6.24165738677394));
#815=CARTESIAN_POINT('',(-21.9811232810635,-10.8203613295808,-2.));
#816=CARTESIAN_POINT('',(-21.9811232810635,-10.8203613295808,10.));
#817=CARTESIAN_POINT('Origin',(-10.0680983066559,9.51864242553711,-2.));
#818=CARTESIAN_POINT('',(-21.1938538271889,-11.2614634906725,2.5));
#819=CARTESIAN_POINT('',(-21.1938538271889,-11.2614634906725,10.));
#820=CARTESIAN_POINT('',(10.055609593918,21.7918497538576,2.5));
#821=CARTESIAN_POINT('Origin',(-10.0680983066559,9.51864242553711,2.5));
#822=CARTESIAN_POINT('',(10.055609593918,21.7918497538576,10.));
#823=CARTESIAN_POINT('Origin',(0.,0.,-2.));
#824=CARTESIAN_POINT('',(-24.1233628545846,4.27941171027586,-2.));
#825=CARTESIAN_POINT('Origin',(0.,0.,-2.));
#826=CARTESIAN_POINT('',(-5.62505590178447,23.845518365131,-2.));
#827=CARTESIAN_POINT('Origin',(-10.0680983066559,9.51864242553711,-2.));
#828=CARTESIAN_POINT('Origin',(0.,0.,-2.));
#829=CARTESIAN_POINT('Origin',(0.,0.,-1.5));
#830=CARTESIAN_POINT('',(-5.73985296100456,24.3321615970724,-1.5));
#831=CARTESIAN_POINT('Origin',(-5.62505590178447,23.845518365131,-1.5));
#832=CARTESIAN_POINT('',(-25.,-3.06161699786838E-15,-1.5));
#833=CARTESIAN_POINT('Origin',(0.,0.,-1.5));
#834=CARTESIAN_POINT('',(-24.6156763822292,4.36674664313863,-1.5));
#835=CARTESIAN_POINT('Origin',(0.,0.,-1.5));
#836=CARTESIAN_POINT('Origin',(-24.1233628545846,4.27941171027585,-1.5));
#837=CARTESIAN_POINT('Origin',(0.,0.,-2.));
#838=CARTESIAN_POINT('Ctrl Pts',(-5.62505590178447,23.845518365131,-2.));
#839=CARTESIAN_POINT('Ctrl Pts',(-6.97320842815372,23.4801800967872,-2.));
#840=CARTESIAN_POINT('Ctrl Pts',(-9.5887166190797,22.5219876219806,-1.75621151422405));
#841=CARTESIAN_POINT('Ctrl Pts',(-13.0960964045189,20.5289511011161,-0.960196510423133));
#842=CARTESIAN_POINT('Ctrl Pts',(-16.2039379103802,18.069688601668,-0.169842975233637));
#843=CARTESIAN_POINT('Ctrl Pts',(-18.9497489768624,15.1648795208571,-0.166137906475669));
#844=CARTESIAN_POINT('Ctrl Pts',(-21.2307970199041,11.9254971243373,-0.959026165662707));
#845=CARTESIAN_POINT('Ctrl Pts',(-23.0246334763339,8.30973025469679,-1.75540680605387));
#846=CARTESIAN_POINT('Ctrl Pts',(-23.8341775939662,5.64592521906868,-2.));
#847=CARTESIAN_POINT('Ctrl Pts',(-24.1233628545846,4.27941171027585,-2.));
#848=CARTESIAN_POINT('Ctrl Pts',(-5.64222950168445,23.9183200223875,-2.));
#849=CARTESIAN_POINT('Ctrl Pts',(-6.99545704394028,23.5562789218979,-2.00690570098346));
#850=CARTESIAN_POINT('Ctrl Pts',(-9.62408821041849,22.601104474164,-1.77921547421972));
#851=CARTESIAN_POINT('Ctrl Pts',(-13.1527480389827,20.5981597091962,-1.00955359432958));
#852=CARTESIAN_POINT('Ctrl Pts',(-16.2653107946815,18.1233833868257,-0.244109845752799));
#853=CARTESIAN_POINT('Ctrl Pts',(-19.0065790863618,15.2231561939689,-0.24053572923275));
#854=CARTESIAN_POINT('Ctrl Pts',(-21.3030414176505,11.9779971594732,-1.00850280742485));
#855=CARTESIAN_POINT('Ctrl Pts',(-23.1055652945488,8.34059131606701,-1.77844205607875));
#856=CARTESIAN_POINT('Ctrl Pts',(-23.9114040173401,5.66387268742822,-2.00690570098346));
#857=CARTESIAN_POINT('Ctrl Pts',(-24.1970127860947,4.29247698567983,-2.));
#858=CARTESIAN_POINT('Ctrl Pts',(-5.67656189044625,24.0638605505232,-1.96582312286119));
#859=CARTESIAN_POINT('Ctrl Pts',(-7.0388516068356,23.7119242359193,-1.98241358258991));
#860=CARTESIAN_POINT('Ctrl Pts',(-9.69253483873874,22.7723695060366,-1.77937037847919));
#861=CARTESIAN_POINT('Ctrl Pts',(-13.2716176930701,20.7690426730588,-1.05471886090848));
#862=CARTESIAN_POINT('Ctrl Pts',(-16.4169107977457,18.2742943509378,-0.336468499883414));
#863=CARTESIAN_POINT('Ctrl Pts',(-19.1655967586046,15.3661592372161,-0.333148422455534));
#864=CARTESIAN_POINT('Ctrl Pts',(-21.4802468488696,12.0868766716846,-1.05392737952863));
#865=CARTESIAN_POINT('Ctrl Pts',(-23.2803473367672,8.39929847191802,-1.77866811675551));
#866=CARTESIAN_POINT('Ctrl Pts',(-24.0692372895002,5.69847341090241,-1.98241358258991));
#867=CARTESIAN_POINT('Ctrl Pts',(-24.3442491311598,4.3185962685944,-1.96582312286119));
#868=CARTESIAN_POINT('Ctrl Pts',(-5.71788543835035,24.2390377287885,-1.82240238125844));
#869=CARTESIAN_POINT('Ctrl Pts',(-7.08666317170334,23.9047128564128,-1.8396380635704));
#870=CARTESIAN_POINT('Ctrl Pts',(-9.76299353469257,23.000366335569,-1.64382319530407));
#871=CARTESIAN_POINT('Ctrl Pts',(-13.4071088217901,21.032850943501,-0.941800252560227));
#872=CARTESIAN_POINT('Ctrl Pts',(-16.6361129841436,18.5355537171641,-0.250308161222008));
#873=CARTESIAN_POINT('Ctrl Pts',(-19.4389302254838,15.5704308415005,-0.247123836130655));
#874=CARTESIAN_POINT('Ctrl Pts',(-21.7512375348152,12.2074594054821,-0.941128398240638));
#875=CARTESIAN_POINT('Ctrl Pts',(-23.5119618958584,8.45689145412303,-1.64316454867571));
#876=CARTESIAN_POINT('Ctrl Pts',(-24.2644030755442,5.73540190782165,-1.83963806357039));
#877=CARTESIAN_POINT('Ctrl Pts',(-24.5214674482636,4.35003426279368,-1.82240238125844));
#878=CARTESIAN_POINT('Ctrl Pts',(-5.73697575950384,24.3199646762909,-1.64961842367662));
#879=CARTESIAN_POINT('Ctrl Pts',(-7.10337427647187,23.9961421062119,-1.65839642802009));
#880=CARTESIAN_POINT('Ctrl Pts',(-9.7797116617469,23.1156527770288,-1.44819684764792));
#881=CARTESIAN_POINT('Ctrl Pts',(-13.4465918068338,21.1824367240532,-0.730171645945703));
#882=CARTESIAN_POINT('Ctrl Pts',(-16.7355931353797,18.6900350459125,-0.0207750861037482));
#883=CARTESIAN_POINT('Ctrl Pts',(-19.5991710717638,15.6610834085983,-0.017486473849116));
#884=CARTESIAN_POINT('Ctrl Pts',(-21.9028074260438,12.2387940719743,-0.729312572840767));
#885=CARTESIAN_POINT('Ctrl Pts',(-23.6280727779057,8.46715116959315,-1.44749985673849));
#886=CARTESIAN_POINT('Ctrl Pts',(-24.3566253772452,5.74696113834893,-1.65839642802009));
#887=CARTESIAN_POINT('Ctrl Pts',(-24.6033373447122,4.36455773515086,-1.64961842367662));
#888=CARTESIAN_POINT('Ctrl Pts',(-5.73985296100456,24.3321615970724,-1.53739991254274));
#889=CARTESIAN_POINT('Ctrl Pts',(-7.10133400280439,24.0109820885372,-1.53959155988956));
#890=CARTESIAN_POINT('Ctrl Pts',(-9.76898174742077,23.1379092058351,-1.31726201393531));
#891=CARTESIAN_POINT('Ctrl Pts',(-13.4319174621756,21.2176619931996,-0.583373993054994));
#892=CARTESIAN_POINT('Ctrl Pts',(-16.7396976057462,18.7250729761126,0.144427596956217));
#893=CARTESIAN_POINT('Ctrl Pts',(-19.6345578193944,15.663128277363,0.147836143540135));
#894=CARTESIAN_POINT('Ctrl Pts',(-21.937149212114,12.2223316525054,-0.582343898520109));
#895=CARTESIAN_POINT('Ctrl Pts',(-23.6497261371,8.45520957431703,-1.31652760789474));
#896=CARTESIAN_POINT('Ctrl Pts',(-24.3713276422996,5.74409213254136,-1.53959155988955));
#897=CARTESIAN_POINT('Ctrl Pts',(-24.6156763822292,4.36674664313863,-1.53739991254273));
#898=CARTESIAN_POINT('Ctrl Pts',(-5.73985296100456,24.3321615970724,-1.5));
#899=CARTESIAN_POINT('Ctrl Pts',(-7.09936430089272,24.0114586805377,-1.5));
#900=CARTESIAN_POINT('Ctrl Pts',(-9.7632307317718,23.1399845848798,-1.27362497749376));
#901=CARTESIAN_POINT('Ctrl Pts',(-13.423127179195,21.2230684670805,-0.534468188250054));
#902=CARTESIAN_POINT('Ctrl Pts',(-16.735118342276,18.7300072639878,0.199431522997337));
#903=CARTESIAN_POINT('Ctrl Pts',(-19.63930899106,15.6582683906304,0.202871943986878));
#904=CARTESIAN_POINT('Ctrl Pts',(-21.9420424125604,12.213304949991,-0.533381439543941));
#905=CARTESIAN_POINT('Ctrl Pts',(-23.6514867181216,8.44935215525236,-1.27287774847859));
#906=CARTESIAN_POINT('Ctrl Pts',(-24.3716930617962,5.74209881015218,-1.5));
#907=CARTESIAN_POINT('Ctrl Pts',(-24.6156763822292,4.36674664313863,-1.5));
#908=CARTESIAN_POINT('Ctrl Pts',(-24.6156763822292,4.36674664313863,-1.5));
#909=CARTESIAN_POINT('Ctrl Pts',(-24.3716930617962,5.74209881015218,-1.5));
#910=CARTESIAN_POINT('Ctrl Pts',(-23.6514867181216,8.44935215525236,-1.27287774847859));
#911=CARTESIAN_POINT('Ctrl Pts',(-21.9420424125604,12.213304949991,-0.533381439543941));
#912=CARTESIAN_POINT('Ctrl Pts',(-19.63930899106,15.6582683906304,0.202871943986878));
#913=CARTESIAN_POINT('Ctrl Pts',(-16.735118342276,18.7300072639878,0.199431522997337));
#914=CARTESIAN_POINT('Ctrl Pts',(-13.423127179195,21.2230684670805,-0.534468188250054));
#915=CARTESIAN_POINT('Ctrl Pts',(-9.7632307317718,23.1399845848798,-1.27362497749376));
#916=CARTESIAN_POINT('Ctrl Pts',(-7.09936430089272,24.0114586805377,-1.5));
#917=CARTESIAN_POINT('Ctrl Pts',(-5.73985296100456,24.3321615970724,-1.5));
#918=CARTESIAN_POINT('',(-22.3837009743079,9.51856816603832,-1.46405250217059));
#919=CARTESIAN_POINT('Ctrl Pts',(-5.62505590178447,23.845518365131,-2.));
#920=CARTESIAN_POINT('Ctrl Pts',(-6.97320842815372,23.4801800967872,-2.));
#921=CARTESIAN_POINT('Ctrl Pts',(-9.5887166190797,22.5219876219806,-1.75621151422405));
#922=CARTESIAN_POINT('Ctrl Pts',(-13.0960964045189,20.5289511011161,-0.960196510423133));
#923=CARTESIAN_POINT('Ctrl Pts',(-16.2039379103802,18.069688601668,-0.169842975233637));
#924=CARTESIAN_POINT('Ctrl Pts',(-18.9497489768624,15.1648795208571,-0.166137906475669));
#925=CARTESIAN_POINT('Ctrl Pts',(-20.9722476390192,12.2926705890193,-0.86915485885306));
#926=CARTESIAN_POINT('Ctrl Pts',(-22.0106477625412,10.3274033292274,-1.30947958133244));
#927=CARTESIAN_POINT('Ctrl Pts',(-22.3837009743079,9.51856816603832,-1.46405250217059));
#928=CARTESIAN_POINT('Ctrl Pts',(-22.3837503021389,9.51846121525943,-1.46407294091222));
#929=CARTESIAN_POINT('Ctrl Pts',(-22.5759454507808,9.10174821846476,-1.54370795471963));
#930=CARTESIAN_POINT('Ctrl Pts',(-23.2917785179777,7.43068945670395,-1.83612119525064));
#931=CARTESIAN_POINT('Ctrl Pts',(-23.8341775939662,5.64592521906868,-2.));
#932=CARTESIAN_POINT('Ctrl Pts',(-24.1233628545846,4.27941171027585,-2.));
#933=CARTESIAN_POINT('Origin',(-10.0680983066559,9.51864242553711,5.));
#934=CARTESIAN_POINT('',(-20.014890966774,9.51864242553711,0.155921596406237));
#935=CARTESIAN_POINT('Origin',(-25.0680983066559,9.51864242553711,5.));
#936=CARTESIAN_POINT('',(-17.0675419144324,2.45136052901313,0.155921596406237));
#937=CARTESIAN_POINT('Origin',(-10.0680983066559,9.51864242553711,0.155921596406237));
#938=CARTESIAN_POINT('Origin',(-10.0680983066559,9.51864242553711,0.155921596406237));
#939=CARTESIAN_POINT('Origin',(0.,0.,0.));
#940=CARTESIAN_POINT('',(-1.80416563734742,24.9348147447102,9.5));
#941=CARTESIAN_POINT('',(-24.996744131304,0.403463547450366,9.5));
#942=CARTESIAN_POINT('Ctrl Pts',(-1.80416563734742,24.9348147447102,9.5));
#943=CARTESIAN_POINT('Ctrl Pts',(-3.62228045805499,24.8032645279608,9.5));
#944=CARTESIAN_POINT('Ctrl Pts',(-7.22632325582929,24.1341044319089,9.08752422216707));
#945=CARTESIAN_POINT('Ctrl Pts',(-11.2686290909553,22.4298885811769,7.77159087945549));
#946=CARTESIAN_POINT('Ctrl Pts',(-13.8082094599399,20.8713845711188,6.66068590303381));
#947=CARTESIAN_POINT('Ctrl Pts',(-15.1999162350243,19.8624671357446,6.05451649468582));
#948=CARTESIAN_POINT('Ctrl Pts',(-16.5513764138524,18.7726166567416,5.51216787673874));
#949=CARTESIAN_POINT('Ctrl Pts',(-17.869063329932,17.526077184801,5.19817062514375));
#950=CARTESIAN_POINT('Ctrl Pts',(-19.0870292474711,16.1651314925447,5.34931995960501));
#951=CARTESIAN_POINT('Ctrl Pts',(-20.7531717423392,14.0819715386968,5.96150518943915));
#952=CARTESIAN_POINT('Ctrl Pts',(-22.7267320032756,10.8229582499157,7.52811479095947));
#953=CARTESIAN_POINT('Ctrl Pts',(-24.5035238264692,5.85995496537618,9.0784779609769));
#954=CARTESIAN_POINT('Ctrl Pts',(-24.9673257031847,2.22609393150807,9.5));
#955=CARTESIAN_POINT('Ctrl Pts',(-24.996744131304,0.403463547450366,9.5));
#956=CARTESIAN_POINT('',(-25.,-3.06161699786838E-15,9.5));
#957=CARTESIAN_POINT('Origin',(0.,0.,9.5));
#958=CARTESIAN_POINT('',(-25.,-3.06161699786838E-15,0.));
#959=CARTESIAN_POINT('Origin',(0.,0.,9.5));
#960=CARTESIAN_POINT('Origin',(0.,0.,10.));
#961=CARTESIAN_POINT('',(-24.062171883563,-4.61106107473976,9.45140010692856));
#962=CARTESIAN_POINT('Ctrl Pts',(-24.0621718838423,-4.61106107446314,9.45140010692855));
#963=CARTESIAN_POINT('Ctrl Pts',(-23.8934583999496,-5.49146859520296,9.24611363487959));
#964=CARTESIAN_POINT('Ctrl Pts',(-23.6858843391945,-6.31252469442177,8.98776700084231));
#965=CARTESIAN_POINT('Ctrl Pts',(-23.0682130423528,-8.36320536508037,8.15884357966952));
#966=CARTESIAN_POINT('Ctrl Pts',(-22.6218897903205,-9.45434906786977,7.49979451824759));
#967=CARTESIAN_POINT('Ctrl Pts',(-22.1438571919609,-10.4851267719856,6.58244884724537));
#968=CARTESIAN_POINT('Ctrl Pts',(-22.0616563836391,-10.656761612159,6.41618462829414));
#969=CARTESIAN_POINT('Ctrl Pts',(-21.9811232810635,-10.8203613295808,6.24165738677394));
#970=CARTESIAN_POINT('',(-24.4968092486779,0.39539427650136,10.));
#971=CARTESIAN_POINT('Ctrl Pts',(-24.4968092486779,0.395394276501359,10.));
#972=CARTESIAN_POINT('Ctrl Pts',(-24.5069635608185,-0.23372016026273,10.));
#973=CARTESIAN_POINT('Ctrl Pts',(-24.4926070437186,-0.8456699025926,9.97623712698952));
#974=CARTESIAN_POINT('Ctrl Pts',(-24.3915913981184,-2.56286734540942,9.84504455997947));
#975=CARTESIAN_POINT('Ctrl Pts',(-24.2512789196326,-3.62423267940432,9.68150095791758));
#976=CARTESIAN_POINT('Ctrl Pts',(-24.0621718838423,-4.61106107446314,9.45140010692855));
#977=CARTESIAN_POINT('',(-1.76808232460046,24.436118449816,10.));
#978=CARTESIAN_POINT('Origin',(0.,0.,10.));
#979=CARTESIAN_POINT('Ctrl Pts',(9.57106620060927,22.5531525907922,6.24165738677394));
#980=CARTESIAN_POINT('Ctrl Pts',(9.25171547624117,22.6886780749494,6.57369799799145));
#981=CARTESIAN_POINT('Ctrl Pts',(8.89038406711479,22.8340279898748,6.8889571812849));
#982=CARTESIAN_POINT('Ctrl Pts',(7.28374959742108,23.427588601118,8.07890217609018));
#983=CARTESIAN_POINT('Ctrl Pts',(5.71416654561783,23.8984715476038,8.8078658377928));
#984=CARTESIAN_POINT('Ctrl Pts',(2.17296559278468,24.4629205604265,9.74983187047754));
#985=CARTESIAN_POINT('Ctrl Pts',(0.272609404980298,24.5837732823312,10.));
#986=CARTESIAN_POINT('Ctrl Pts',(-1.76808232460046,24.436118449816,10.));
#987=CARTESIAN_POINT('Origin',(0.,0.,0.));
#988=CARTESIAN_POINT('',(-13.1362377942619,20.0857973855311,4.83137298219444));
#989=CARTESIAN_POINT('Ctrl Pts',(-13.1362377942619,20.085797385531,4.83137298219443));
#990=CARTESIAN_POINT('Ctrl Pts',(-12.0858030544896,20.7727883107179,5.78611911630827));
#991=CARTESIAN_POINT('Ctrl Pts',(-10.3379594505991,21.7992203000178,6.92047270205953));
#992=CARTESIAN_POINT('Ctrl Pts',(-6.21905771586813,23.2583048039362,8.42313480212344));
#993=CARTESIAN_POINT('Ctrl Pts',(-4.28513163964562,23.6995705324215,8.83306452633232));
#994=CARTESIAN_POINT('Ctrl Pts',(-1.85046578964247,23.9325604555362,8.98667332636997));
#995=CARTESIAN_POINT('Ctrl Pts',(-1.41993086457744,23.9617222722747,9.));
#996=CARTESIAN_POINT('Ctrl Pts',(-0.99563432340179,23.9793392797647,9.));
#997=CARTESIAN_POINT('Ctrl Pts',(0.911768779212969,24.0585356235575,9.));
#998=CARTESIAN_POINT('Ctrl Pts',(2.84181341251951,23.8999368756306,8.73472516792208));
#999=CARTESIAN_POINT('Ctrl Pts',(5.88763032079125,23.3024686905654,7.70464168978404));
#1000=CARTESIAN_POINT('Ctrl Pts',(7.12898213798298,22.9411458847067,7.08278858056663));
#1001=CARTESIAN_POINT('Ctrl Pts',(8.59151259647385,22.415008178883,5.82326787107411));
#1002=CARTESIAN_POINT('Ctrl Pts',(9.0163155170085,22.2449194173913,5.35759847963943));
#1003=CARTESIAN_POINT('Ctrl Pts',(9.34888258279846,22.1042619069954,4.83007370394955));
#1004=CARTESIAN_POINT('Ctrl Pts',(9.64855576831327,21.9775166921414,4.35472588322211));
#1005=CARTESIAN_POINT('Ctrl Pts',(9.8721734710514,21.8758915630821,3.83088507280338));
#1006=CARTESIAN_POINT('Ctrl Pts',(10.030885234325,21.8033092787611,3.01271153221273));
#1007=CARTESIAN_POINT('Ctrl Pts',(10.0556095939204,21.7918497538565,2.7564701023721));
#1008=CARTESIAN_POINT('Ctrl Pts',(10.055609593918,21.7918497538576,2.49999999996355));
#1009=CARTESIAN_POINT('Ctrl Pts',(-4.71733080863019,23.5318250469858,1.));
#1010=CARTESIAN_POINT('Ctrl Pts',(-6.00975761368183,23.2727374168,1.));
#1011=CARTESIAN_POINT('Ctrl Pts',(-7.2909645247908,22.9015654268092,1.18348266703421));
#1012=CARTESIAN_POINT('Ctrl Pts',(-9.77087425200795,21.9638085734286,1.88221283487323));
#1013=CARTESIAN_POINT('Ctrl Pts',(-10.8341261365456,21.4334442405084,2.3863410927317));
#1014=CARTESIAN_POINT('Ctrl Pts',(-12.0211318939846,20.7778945851257,3.18774124145586));
#1015=CARTESIAN_POINT('Ctrl Pts',(-12.3798116189403,20.5630237295556,3.49293633209041));
#1016=CARTESIAN_POINT('Ctrl Pts',(-12.787524776753,20.3102721139273,3.98102265223064));
#1017=CARTESIAN_POINT('Ctrl Pts',(-12.920221870057,20.2257279490227,4.17551051372474));
#1018=CARTESIAN_POINT('Ctrl Pts',(-13.0735544673118,20.1267821446456,4.52797698577936));
#1019=CARTESIAN_POINT('Ctrl Pts',(-13.1174195359499,20.0981046448007,4.67561656083506));
#1020=CARTESIAN_POINT('Ctrl Pts',(-13.1362377942616,20.0857973855313,4.83137298219181));
#1021=CARTESIAN_POINT('Origin',(-10.0680983066559,9.51864242553711,2.5));
#1022=CARTESIAN_POINT('Origin',(-22.0808124102454,-2.61049835618074,2.5));
#1023=CARTESIAN_POINT('Ctrl Pts',(-24.4968092486779,0.395394276501359,10.));
#1024=CARTESIAN_POINT('Ctrl Pts',(-24.4088775713638,2.21894190018956,10.));
#1025=CARTESIAN_POINT('Ctrl Pts',(-23.8192128391162,5.82051002788751,9.54836924390383));
#1026=CARTESIAN_POINT('Ctrl Pts',(-21.8966922273753,10.5990175457678,7.88726584745658));
#1027=CARTESIAN_POINT('Ctrl Pts',(-19.9254665414345,13.6340353331597,6.20875556011337));
#1028=CARTESIAN_POINT('Ctrl Pts',(-18.3355650194683,15.5716658516987,5.55284281386251));
#1029=CARTESIAN_POINT('Ctrl Pts',(-17.1879592985811,16.8427428878422,5.3908970983683));
#1030=CARTESIAN_POINT('Ctrl Pts',(-15.9631841294915,18.0224000944857,5.72732272507722));
#1031=CARTESIAN_POINT('Ctrl Pts',(-14.7082129059757,19.075976325896,6.30841053002053));
#1032=CARTESIAN_POINT('Ctrl Pts',(-13.4122145976299,20.0664516081392,6.95787775325051));
#1033=CARTESIAN_POINT('Ctrl Pts',(-11.0301640900682,21.6365813187877,8.14813308513088));
#1034=CARTESIAN_POINT('Ctrl Pts',(-7.14876091884506,23.452840545976,9.55806166660758));
#1035=CARTESIAN_POINT('Ctrl Pts',(-3.58383264494935,24.2460955830674,10.));
#1036=CARTESIAN_POINT('Ctrl Pts',(-1.76808232460047,24.436118449816,10.));
#1037=CARTESIAN_POINT('Origin',(0.,0.,9.5));
#1038=CARTESIAN_POINT('Origin',(-1.76808232460047,24.436118449816,9.5));
#1039=CARTESIAN_POINT('Origin',(-24.4968092486779,0.395394276501359,9.5));
#1040=CARTESIAN_POINT('Ctrl Pts',(-1.80416563734742,24.9348147447102,9.5));
#1041=CARTESIAN_POINT('Ctrl Pts',(-3.62228045805499,24.8032645279608,9.5));
#1042=CARTESIAN_POINT('Ctrl Pts',(-7.22632325582929,24.1341044319089,9.08752422216707));
#1043=CARTESIAN_POINT('Ctrl Pts',(-11.2686290909553,22.4298885811769,7.77159087945549));
#1044=CARTESIAN_POINT('Ctrl Pts',(-13.8082094599399,20.8713845711188,6.66068590303381));
#1045=CARTESIAN_POINT('Ctrl Pts',(-15.1999162350243,19.8624671357446,6.05451649468582));
#1046=CARTESIAN_POINT('Ctrl Pts',(-16.5513764138524,18.7726166567416,5.51216787673874));
#1047=CARTESIAN_POINT('Ctrl Pts',(-17.869063329932,17.526077184801,5.19817062514375));
#1048=CARTESIAN_POINT('Ctrl Pts',(-19.0870292474711,16.1651314925447,5.34931995960501));
#1049=CARTESIAN_POINT('Ctrl Pts',(-20.7531717423392,14.0819715386968,5.96150518943915));
#1050=CARTESIAN_POINT('Ctrl Pts',(-22.7267320032756,10.8229582499157,7.52811479095947));
#1051=CARTESIAN_POINT('Ctrl Pts',(-24.5035238264692,5.85995496537618,9.0784779609769));
#1052=CARTESIAN_POINT('Ctrl Pts',(-24.9673257031847,2.22609393150807,9.5));
#1053=CARTESIAN_POINT('Ctrl Pts',(-24.996744131304,0.403463547450366,9.5));
#1054=CARTESIAN_POINT('Ctrl Pts',(-1.80416563734742,24.9348147447102,9.57479982508547));
#1055=CARTESIAN_POINT('Ctrl Pts',(-3.62800251363681,24.8028710215783,9.58036320579258));
#1056=CARTESIAN_POINT('Ctrl Pts',(-7.24479301839644,24.1300858929797,9.17765300182592));
#1057=CARTESIAN_POINT('Ctrl Pts',(-11.3005291021968,22.414534574054,7.87188309323968));
#1058=CARTESIAN_POINT('Ctrl Pts',(-13.8429629546396,20.84831820477,6.76995292733766));
#1059=CARTESIAN_POINT('Ctrl Pts',(-15.2315924108875,19.8382457039069,6.17047941441188));
#1060=CARTESIAN_POINT('Ctrl Pts',(-16.5759879138419,18.7505475510467,5.6359896984765));
#1061=CARTESIAN_POINT('Ctrl Pts',(-17.8738933708847,17.5199026691683,5.33040630957781));
#1062=CARTESIAN_POINT('Ctrl Pts',(-19.0728782539881,16.1814125840285,5.47745392081926));
#1063=CARTESIAN_POINT('Ctrl Pts',(-20.7262929571942,14.1197376960273,6.07686974646376));
#1064=CARTESIAN_POINT('Ctrl Pts',(-22.7119623671052,10.8580198362726,7.63006233648455));
#1065=CARTESIAN_POINT('Ctrl Pts',(-24.5001493869852,5.87884461547031,9.16878527017013));
#1066=CARTESIAN_POINT('Ctrl Pts',(-24.9672535984587,2.23182904861785,9.58036320579258));
#1067=CARTESIAN_POINT('Ctrl Pts',(-24.996744131304,0.403463547450366,9.57479982508547));
#1068=CARTESIAN_POINT('Ctrl Pts',(-1.80170302540797,24.9007797474643,9.7243731861986));
#1069=CARTESIAN_POINT('Ctrl Pts',(-3.63411239247023,24.7630095523751,9.74107406370592));
#1070=CARTESIAN_POINT('Ctrl Pts',(-7.26845154360253,24.0727557028439,9.35780983065678));
#1071=CARTESIAN_POINT('Ctrl Pts',(-11.3340879250761,22.3210740059793,8.07225588358073));
#1072=CARTESIAN_POINT('Ctrl Pts',(-13.8656564703315,20.7308623203456,6.98817589287659));
#1073=CARTESIAN_POINT('Ctrl Pts',(-15.2375560199012,19.7146269973765,6.40206329377534));
#1074=CARTESIAN_POINT('Ctrl Pts',(-16.5569648046003,18.6287043401331,5.8832546734593));
#1075=CARTESIAN_POINT('Ctrl Pts',(-17.8058953778896,17.4312218371456,5.59441271558116));
#1076=CARTESIAN_POINT('Ctrl Pts',(-18.9635169418643,16.1454759060232,5.73327716507491));
#1077=CARTESIAN_POINT('Ctrl Pts',(-20.5928315215783,14.1422366233698,6.30718374677262));
#1078=CARTESIAN_POINT('Ctrl Pts',(-22.6153173806114,10.8983965593987,7.83379084238508));
#1079=CARTESIAN_POINT('Ctrl Pts',(-24.4433282743132,5.90601246710292,9.34928524314872));
#1080=CARTESIAN_POINT('Ctrl Pts',(-24.9277973415275,2.24016398325289,9.74107406370592));
#1081=CARTESIAN_POINT('Ctrl Pts',(-24.9626246029908,0.402912836291415,9.7243731861986));
#1082=CARTESIAN_POINT('Ctrl Pts',(-1.79220953067379,24.7695730957155,9.88924268933691));
#1083=CARTESIAN_POINT('Ctrl Pts',(-3.62632253051415,24.6130884873622,9.91224144200585));
#1084=CARTESIAN_POINT('Ctrl Pts',(-7.25593646984441,23.8790619400416,9.53461218036532));
#1085=CARTESIAN_POINT('Ctrl Pts',(-11.2781317313969,22.0679847560937,8.24078437764308));
#1086=CARTESIAN_POINT('Ctrl Pts',(-13.7526083496367,20.4491296367405,7.14665784818221));
#1087=CARTESIAN_POINT('Ctrl Pts',(-15.0837899814396,19.4263808461451,6.55549504417363));
#1088=CARTESIAN_POINT('Ctrl Pts',(-16.3580070329682,18.3427709246286,6.03295563784653));
#1089=CARTESIAN_POINT('Ctrl Pts',(-17.5545060662601,17.1724231102698,5.74414545512741));
#1090=CARTESIAN_POINT('Ctrl Pts',(-18.6780158230806,15.9363915938296,5.88292544230338));
#1091=CARTESIAN_POINT('Ctrl Pts',(-20.2866450260618,14.008423055576,6.45892360663416));
#1092=CARTESIAN_POINT('Ctrl Pts',(-22.3482840293507,10.8493255367461,8.00091099179508));
#1093=CARTESIAN_POINT('Ctrl Pts',(-24.2487231944013,5.90410243324948,9.52598544025251));
#1094=CARTESIAN_POINT('Ctrl Pts',(-24.7776753429505,2.24079106151837,9.91224144200585));
#1095=CARTESIAN_POINT('Ctrl Pts',(-24.8310920796627,0.400789816661806,9.88924268933691));
#1096=CARTESIAN_POINT('Ctrl Pts',(-1.78022518955179,24.6039412271505,9.98090351122254));
#1097=CARTESIAN_POINT('Ctrl Pts',(-3.60781369884096,24.4278448653852,9.99770812835284));
#1098=CARTESIAN_POINT('Ctrl Pts',(-7.21113940165019,23.6545682751282,9.59851052280256));
#1099=CARTESIAN_POINT('Ctrl Pts',(-11.162195468389,21.8161487640004,8.2570338103301));
#1100=CARTESIAN_POINT('Ctrl Pts',(-13.5772083594154,20.2025554045747,7.11975503627083));
#1101=CARTESIAN_POINT('Ctrl Pts',(-14.8781990868701,19.1881063558928,6.50189835137374));
#1102=CARTESIAN_POINT('Ctrl Pts',(-16.127124429324,18.1151364171739,5.95249582234893));
#1103=CARTESIAN_POINT('Ctrl Pts',(-17.3167721912721,16.9480560923134,5.64244342867339));
#1104=CARTESIAN_POINT('Ctrl Pts',(-18.440370263736,15.7139948298573,5.79154061526444));
#1105=CARTESIAN_POINT('Ctrl Pts',(-20.0376187870992,13.8096605738279,6.40380395582421));
#1106=CARTESIAN_POINT('Ctrl Pts',(-22.082642669293,10.7347132595805,8.00873467038584));
#1107=CARTESIAN_POINT('Ctrl Pts',(-24.0227555789441,5.87153847518589,9.58934512567929));
#1108=CARTESIAN_POINT('Ctrl Pts',(-24.5916854234802,2.23269623671878,9.99770812835284));
#1109=CARTESIAN_POINT('Ctrl Pts',(-24.6650488392819,0.398109771835077,9.98090351122254));
#1110=CARTESIAN_POINT('Ctrl Pts',(-1.77213086282343,24.4920720432592,10.));
#1111=CARTESIAN_POINT('Ctrl Pts',(-3.59227143082867,24.3059310516302,10.0065825923633));
#1112=CARTESIAN_POINT('Ctrl Pts',(-7.17083752951472,23.5168669868683,9.58060325335502));
#1113=CARTESIAN_POINT('Ctrl Pts',(-11.0741706814877,21.6878354993656,8.19436878350375));
#1114=CARTESIAN_POINT('Ctrl Pts',(-13.4636175448614,20.0996450276676,7.02129949739711));
#1115=CARTESIAN_POINT('Ctrl Pts',(-14.7585059104696,19.0998135053846,6.38188561710262));
#1116=CARTESIAN_POINT('Ctrl Pts',(-16.0083145174769,18.0390700899971,5.81078510468374));
#1117=CARTESIAN_POINT('Ctrl Pts',(-17.2181050359496,16.864586400637,5.48267590086207));
#1118=CARTESIAN_POINT('Ctrl Pts',(-18.3561022153159,15.6087416212699,5.64053955541107));
#1119=CARTESIAN_POINT('Ctrl Pts',(-19.9482341236937,13.6871660455513,6.28266240345438));
#1120=CARTESIAN_POINT('Ctrl Pts',(-21.9490537560573,10.6446717389768,7.93799123455204));
#1121=CARTESIAN_POINT('Ctrl Pts',(-23.8838963160363,5.83892560056759,9.57104469479154));
#1122=CARTESIAN_POINT('Ctrl Pts',(-24.4690920249894,2.22401299275655,10.0065825923633));
#1123=CARTESIAN_POINT('Ctrl Pts',(-24.5529018113397,0.396299646584688,10.));
#1124=CARTESIAN_POINT('Ctrl Pts',(-1.76808232460047,24.436118449816,10.));
#1125=CARTESIAN_POINT('Ctrl Pts',(-3.58383264494935,24.2460955830674,10.));
#1126=CARTESIAN_POINT('Ctrl Pts',(-7.14876091884506,23.452840545976,9.55806166660758));
#1127=CARTESIAN_POINT('Ctrl Pts',(-11.0301640900682,21.6365813187877,8.14813308513088));
#1128=CARTESIAN_POINT('Ctrl Pts',(-13.4122145976299,20.0664516081392,6.95787775325051));
#1129=CARTESIAN_POINT('Ctrl Pts',(-14.7082129059757,19.075976325896,6.30841053002053));
#1130=CARTESIAN_POINT('Ctrl Pts',(-15.9631841294915,18.0224000944857,5.72732272507722));
#1131=CARTESIAN_POINT('Ctrl Pts',(-17.1879592985811,16.8427428878422,5.3908970983683));
#1132=CARTESIAN_POINT('Ctrl Pts',(-18.3355650194683,15.5716658516987,5.55284281386251));
#1133=CARTESIAN_POINT('Ctrl Pts',(-19.9254665414345,13.6340353331597,6.20875556011337));
#1134=CARTESIAN_POINT('Ctrl Pts',(-21.8966922273753,10.5990175457678,7.88726584745658));
#1135=CARTESIAN_POINT('Ctrl Pts',(-23.8192128391162,5.82051002788751,9.54836924390383));
#1136=CARTESIAN_POINT('Ctrl Pts',(-24.4088775713638,2.21894190018956,10.));
#1137=CARTESIAN_POINT('Ctrl Pts',(-24.4968092486779,0.395394276501359,10.));
#1138=CARTESIAN_POINT('Origin',(0.,0.,0.));
#1139=CARTESIAN_POINT('',(-20.7906371687674,11.9895540416092,4.83137298219444));
#1140=CARTESIAN_POINT('Ctrl Pts',(-20.7906371687674,11.9895540416092,4.83137298219446));
#1141=CARTESIAN_POINT('Ctrl Pts',(-20.7942766633751,11.9832429301531,4.78090758882804));
#1142=CARTESIAN_POINT('Ctrl Pts',(-20.7995326327054,11.9741233353741,4.73060857267313));
#1143=CARTESIAN_POINT('Ctrl Pts',(-20.8338752619975,11.9143900404728,4.47815498470333));
#1144=CARTESIAN_POINT('Ctrl Pts',(-20.8852989553481,11.8245458147066,4.29043924388595));
#1145=CARTESIAN_POINT('Ctrl Pts',(-21.0389048401576,11.5499135011225,3.8633923018036));
#1146=CARTESIAN_POINT('Ctrl Pts',(-21.1596842348009,11.3283653622534,3.63007063392847));
#1147=CARTESIAN_POINT('Ctrl Pts',(-21.5015906607631,10.6732197311034,3.05102223402146));
#1148=CARTESIAN_POINT('Ctrl Pts',(-21.7863419273115,10.0951612283113,2.67743140633175));
#1149=CARTESIAN_POINT('Ctrl Pts',(-22.5790746295505,8.23487481070598,1.76712923844547));
#1150=CARTESIAN_POINT('Ctrl Pts',(-23.1260162792252,6.67629825965556,1.2677399524522));
#1151=CARTESIAN_POINT('Ctrl Pts',(-23.6042290968139,4.37092965685791,1.02549257816668));
#1152=CARTESIAN_POINT('Ctrl Pts',(-23.6901650044715,3.87496751804266,0.999999999999994));
#1153=CARTESIAN_POINT('Ctrl Pts',(-23.7592751005556,3.39070003039465,1.));
#1154=CARTESIAN_POINT('Ctrl Pts',(-21.1938538271889,-11.2614634906725,2.49999999996356));
#1155=CARTESIAN_POINT('Ctrl Pts',(-21.1938538271877,-11.2614634906748,2.75647010237211));
#1156=CARTESIAN_POINT('Ctrl Pts',(-21.2066813968784,-11.2374204433581,3.01271153221274));
#1157=CARTESIAN_POINT('Ctrl Pts',(-21.2880470381339,-11.0830272951237,3.83088507280338));
#1158=CARTESIAN_POINT('Ctrl Pts',(-21.4020485267573,-10.8654584452718,4.35472588322212));
#1159=CARTESIAN_POINT('Ctrl Pts',(-21.5453943248228,-10.5733619718561,4.83007370394955));
#1160=CARTESIAN_POINT('Ctrl Pts',(-21.7044745954648,-10.2492032823679,5.35759847963807));
#1161=CARTESIAN_POINT('Ctrl Pts',(-21.8981106449606,-9.83460373049287,5.82326787107171));
#1162=CARTESIAN_POINT('Ctrl Pts',(-22.5054115009463,-8.40386898994424,7.08278858056338));
#1163=CARTESIAN_POINT('Ctrl Pts',(-22.9357572078952,-7.18472540669176,7.70464168978098));
#1164=CARTESIAN_POINT('Ctrl Pts',(-23.7030366151284,-4.17719299920201,8.73472516792024));
#1165=CARTESIAN_POINT('Ctrl Pts',(-23.9695857223458,-2.25907480085273,8.99999999999905));
#1166=CARTESIAN_POINT('Ctrl Pts',(-23.9974444026931,-0.350231551483676,
9.));
#1167=CARTESIAN_POINT('Ctrl Pts',(-23.9991771480359,-0.231505925961804,
9.00000000000006));
#1168=CARTESIAN_POINT('Ctrl Pts',(-24.0000372108043,-0.112189793656674,
8.99895726231382));
#1169=CARTESIAN_POINT('Ctrl Pts',(-23.9993033601342,2.17624533754174,8.95876560196562));
#1170=CARTESIAN_POINT('Ctrl Pts',(-23.7004629408025,4.30983465622191,8.58229191623785));
#1171=CARTESIAN_POINT('Ctrl Pts',(-22.5628245747882,8.48639658922035,7.18834438873632));
#1172=CARTESIAN_POINT('Ctrl Pts',(-21.7662779161366,10.193635197109,6.2156665539437));
#1173=CARTESIAN_POINT('Ctrl Pts',(-21.0295129392786,11.5684430364454,5.18558421486351));
#1174=CARTESIAN_POINT('Ctrl Pts',(-20.9072521055867,11.7873364419007,5.00893867555109));
#1175=CARTESIAN_POINT('Ctrl Pts',(-20.7906371687674,11.9895540416092,4.83137298219443));
#1176=CARTESIAN_POINT('Origin',(-10.0680983066559,9.51864242553711,5.));
#1177=CARTESIAN_POINT('Origin',(-10.0680983066559,9.51864242553711,4.83137298219444));
#1178=CARTESIAN_POINT('Origin',(-10.0680983066559,9.51864242553711,2.5));
#1179=CARTESIAN_POINT('Origin',(7.00000010430813,-8.00000011920929,0.));
#1180=UNCERTAINTY_MEASURE_WITH_UNIT(LENGTH_MEASURE(0.01),#1184,
'DISTANCE_ACCURACY_VALUE',
'Maximum model space distance between geometric entities at asserted c
onnectivities');
#1181=UNCERTAINTY_MEASURE_WITH_UNIT(LENGTH_MEASURE(0.01),#1184,
'DISTANCE_ACCURACY_VALUE',
'Maximum model space distance between geometric entities at asserted c
onnectivities');
#1182=(
GEOMETRIC_REPRESENTATION_CONTEXT(3)
GLOBAL_UNCERTAINTY_ASSIGNED_CONTEXT((#1180))
GLOBAL_UNIT_ASSIGNED_CONTEXT((#1184,#1186,#1187))
REPRESENTATION_CONTEXT('','3D')
);
#1183=(
GEOMETRIC_REPRESENTATION_CONTEXT(3)
GLOBAL_UNCERTAINTY_ASSIGNED_CONTEXT((#1181))
GLOBAL_UNIT_ASSIGNED_CONTEXT((#1184,#1186,#1187))
REPRESENTATION_CONTEXT('','3D')
);
#1184=(
LENGTH_UNIT()
NAMED_UNIT(*)
SI_UNIT(.MILLI.,.METRE.)
);
#1185=(
LENGTH_UNIT()
NAMED_UNIT(*)
SI_UNIT($,.METRE.)
);
#1186=(
NAMED_UNIT(*)
PLANE_ANGLE_UNIT()
SI_UNIT($,.RADIAN.)
);
#1187=(
NAMED_UNIT(*)
SI_UNIT($,.STERADIAN.)
SOLID_ANGLE_UNIT()
);
#1188=SHAPE_DEFINITION_REPRESENTATION(#1189,#1190);
#1189=PRODUCT_DEFINITION_SHAPE('',$,#1192);
#1190=SHAPE_REPRESENTATION('',(#337),#1182);
#1191=PRODUCT_DEFINITION_CONTEXT('part definition',#1196,'design');
#1192=PRODUCT_DEFINITION('(Unsaved)','(Unsaved)',#1193,#1191);
#1193=PRODUCT_DEFINITION_FORMATION('',$,#1198);
#1194=PRODUCT_RELATED_PRODUCT_CATEGORY('(Unsaved)','(Unsaved)',(#1198));
#1195=APPLICATION_PROTOCOL_DEFINITION('international standard',
'automotive_design',2009,#1196);
#1196=APPLICATION_CONTEXT(
'Core Data for Automotive Mechanical Design Process');
#1197=PRODUCT_CONTEXT('part definition',#1196,'mechanical');
#1198=PRODUCT('(Unsaved)','(Unsaved)',$,(#1197));
#1199=PRESENTATION_STYLE_ASSIGNMENT((#1200));
#1200=SURFACE_STYLE_USAGE(.BOTH.,#1201);
#1201=SURFACE_SIDE_STYLE('',(#1202));
#1202=SURFACE_STYLE_FILL_AREA(#1203);
#1203=FILL_AREA_STYLE('Steel - Satin',(#1204));
#1204=FILL_AREA_STYLE_COLOUR('Steel - Satin',#1205);
#1205=COLOUR_RGB('Steel - Satin',0.627450980392157,0.627450980392157,0.627450980392157);
ENDSEC;
END-ISO-10303-21;
