ISO-10303-21;
HEADER;
/* Generated by software containing ST-Developer
 * from STEP Tools, Inc. (www.steptools.com) 
 */

FILE_DESCRIPTION(
/* description */ (''),
/* implementation_level */ '2;1');

FILE_NAME(
/* name */ 'shell44.step',
/* time_stamp */ '2026-07-02T14:48:13+05:30',
/* author */ (''),
/* organization */ (''),
/* preprocessor_version */ 'ST-DEVELOPER v20.1',
/* originating_system */ 'Autodesk Translation Framework v15.8.0.0',
/* authorisation */ '');

FILE_SCHEMA (('AUTOMOTIVE_DESIGN { 1 0 10303 214 3 1 1 }'));
ENDSEC;

DATA;
#10=MECHANICAL_DESIGN_GEOMETRIC_PRESENTATION_REPRESENTATION('',(#13),#845);
#11=SHAPE_REPRESENTATION_RELATIONSHIP('SRR','None',#852,#12);
#12=ADVANCED_BREP_SHAPE_REPRESENTATION('',(#14),#844);
#13=STYLED_ITEM('',(#861),#14);
#14=MANIFOLD_SOLID_BREP('Body1',#429);
#15=CONICAL_SURFACE('',#465,10.,0.0872664625997165);
#16=TOROIDAL_SURFACE('',#459,6.87572996845538,1.5);
#17=TOROIDAL_SURFACE('',#466,6.5,1.5);
#18=B_SPLINE_CURVE_WITH_KNOTS('',3,(#651,#652,#653,#654,#655,#656,#657,
#658,#659,#660,#661,#662,#663,#664,#665,#666,#667,#668,#669,#670),
 .UNSPECIFIED.,.F.,.F.,(4,2,2,2,2,2,2,2,2,4),(0.,0.0337493935831012,0.0674987871662023,
0.101209308168358,0.134919829170515,0.168631204632679,0.202342580094844,
0.23609060326445,0.269838626434055,0.270633682551908),.UNSPECIFIED.);
#19=B_SPLINE_CURVE_WITH_KNOTS('',3,(#671,#672,#673,#674,#675,#676,#677,
#678,#679,#680,#681,#682,#683,#684,#685,#686,#687,#688),.UNSPECIFIED.,.F.,
 .F.,(4,2,2,2,2,2,2,2,4),(0.270633682551908,0.30414287337432,0.338447120314584,
0.372650115572236,0.406853110829888,0.441052893050931,0.475252675271973,
0.509554281525275,0.543855887778577),.UNSPECIFIED.);
#20=B_SPLINE_CURVE_WITH_KNOTS('',3,(#691,#692,#693,#694,#695,#696,#697,
#698,#699,#700,#701,#702,#703,#704,#705,#706,#707,#708,#709,#710,#711,#712,
#713,#714,#715,#716,#717,#718,#719,#720,#721,#722,#723,#724),
 .UNSPECIFIED.,.T.,.F.,(4,2,2,2,2,2,2,2,2,2,2,2,2,2,2,2,4),(0.,0.0339832062955769,
0.0679664125911537,0.101956794808913,0.135947177026672,0.169919180855225,
0.203891184683778,0.237872289732146,0.271853394780514,0.305834499828882,
0.33981560487725,0.373787608705803,0.407759612534356,0.441749994752115,
0.475740376969874,0.509723583265451,0.543706789561028),.UNSPECIFIED.);
#21=B_SPLINE_CURVE_WITH_KNOTS('',3,(#728,#729,#730,#731,#732,#733,#734,
#735,#736,#737,#738,#739),.UNSPECIFIED.,.F.,.F.,(4,2,2,2,2,4),(0.,0.0339832062955769,
0.0679664125911537,0.101956794808913,0.135947177026672,0.137854570454952),
 .UNSPECIFIED.);
#22=B_SPLINE_CURVE_WITH_KNOTS('',3,(#743,#744,#745,#746,#747,#748,#749,
#750,#751,#752,#753,#754),.UNSPECIFIED.,.F.,.F.,(4,2,2,2,2,4),(0.136172632953551,
0.137002776948688,0.17120577220634,0.205408767463992,0.239713014404257,
0.273222205226668),.UNSPECIFIED.);
#23=B_SPLINE_CURVE_WITH_KNOTS('',3,(#756,#757,#758,#759,#760,#761,#762,
#763,#764,#765),.UNSPECIFIED.,.F.,.F.,(4,2,2,2,4),(0.,0.0343016062533016,
0.0686032125066032,0.102802994727646,0.136172632953551),.UNSPECIFIED.);
#24=B_SPLINE_CURVE_WITH_KNOTS('',3,(#767,#768,#769,#770,#771,#772,#773,
#774,#775,#776),.UNSPECIFIED.,.F.,.F.,(4,2,2,2,4),(0.409751787731742,0.442646579610218,
0.476357100612374,0.510106494195475,0.543855887778577),.UNSPECIFIED.);
#25=B_SPLINE_CURVE_WITH_KNOTS('',3,(#777,#778,#779,#780,#781,#782,#783,
#784,#785,#786,#787,#788,#789,#790),.UNSPECIFIED.,.F.,.F.,(4,2,2,2,2,2,
4),(0.273222205226668,0.274017261344521,0.307765284514127,0.341513307683732,
0.375224683145897,0.408936058608062,0.409751787731742),.UNSPECIFIED.);
#26=B_SPLINE_CURVE_WITH_KNOTS('',3,(#792,#793,#794,#795,#796,#797,#798,
#799,#800,#801,#802,#803),.UNSPECIFIED.,.F.,.F.,(4,2,2,2,2,4),(0.405852219106076,
0.407759612534356,0.441749994752115,0.475740376969874,0.509723583265451,
0.543706789561028),.UNSPECIFIED.);
#27=B_SPLINE_CURVE_WITH_KNOTS('',3,(#804,#805,#806,#807,#808,#809,#810,
#811,#812,#813,#814,#815,#816,#817,#818,#819,#820,#821),.UNSPECIFIED.,.F.,
 .F.,(4,2,2,2,2,2,2,2,4),(0.137854570454952,0.169919180855225,0.203891184683778,
0.237872289732146,0.271853394780514,0.305834499828882,0.33981560487725,
0.373787608705803,0.405852219106076),.UNSPECIFIED.);
#28=CYLINDRICAL_SURFACE('',#457,0.9);
#29=CYLINDRICAL_SURFACE('',#458,0.9);
#30=CYLINDRICAL_SURFACE('',#469,5.);
#31=FACE_BOUND('',#68,.T.);
#32=FACE_BOUND('',#71,.T.);
#33=FACE_BOUND('',#73,.T.);
#34=FACE_BOUND('',#84,.T.);
#35=FACE_BOUND('',#86,.T.);
#36=FACE_BOUND('',#89,.T.);
#37=CIRCLE('',#446,10.);
#38=CIRCLE('',#449,5.);
#39=CIRCLE('',#460,8.370022015593);
#40=CIRCLE('',#461,1.5);
#41=CIRCLE('',#462,6.87572996845538);
#42=CIRCLE('',#464,6.5);
#43=CIRCLE('',#467,1.5);
#44=CIRCLE('',#468,5.);
#45=FACE_OUTER_BOUND('',#65,.T.);
#46=FACE_OUTER_BOUND('',#66,.T.);
#47=FACE_OUTER_BOUND('',#67,.T.);
#48=FACE_OUTER_BOUND('',#69,.T.);
#49=FACE_OUTER_BOUND('',#70,.T.);
#50=FACE_OUTER_BOUND('',#72,.T.);
#51=FACE_OUTER_BOUND('',#74,.T.);
#52=FACE_OUTER_BOUND('',#75,.T.);
#53=FACE_OUTER_BOUND('',#76,.T.);
#54=FACE_OUTER_BOUND('',#77,.T.);
#55=FACE_OUTER_BOUND('',#78,.T.);
#56=FACE_OUTER_BOUND('',#79,.T.);
#57=FACE_OUTER_BOUND('',#80,.T.);
#58=FACE_OUTER_BOUND('',#81,.T.);
#59=FACE_OUTER_BOUND('',#82,.T.);
#60=FACE_OUTER_BOUND('',#83,.T.);
#61=FACE_OUTER_BOUND('',#85,.T.);
#62=FACE_OUTER_BOUND('',#87,.T.);
#63=FACE_OUTER_BOUND('',#88,.T.);
#64=FACE_OUTER_BOUND('',#90,.T.);
#65=EDGE_LOOP('',(#275,#276,#277,#278));
#66=EDGE_LOOP('',(#279,#280,#281,#282));
#67=EDGE_LOOP('',(#283,#284,#285,#286,#287,#288,#289,#290));
#68=EDGE_LOOP('',(#291));
#69=EDGE_LOOP('',(#292,#293,#294,#295));
#70=EDGE_LOOP('',(#296,#297,#298,#299,#300,#301,#302,#303));
#71=EDGE_LOOP('',(#304));
#72=EDGE_LOOP('',(#305,#306,#307,#308));
#73=EDGE_LOOP('',(#309,#310,#311,#312));
#74=EDGE_LOOP('',(#313,#314,#315,#316));
#75=EDGE_LOOP('',(#317,#318,#319,#320));
#76=EDGE_LOOP('',(#321,#322,#323,#324,#325,#326,#327,#328));
#77=EDGE_LOOP('',(#329,#330,#331,#332));
#78=EDGE_LOOP('',(#333,#334,#335,#336,#337,#338,#339,#340));
#79=EDGE_LOOP('',(#341,#342,#343,#344));
#80=EDGE_LOOP('',(#345,#346,#347,#348,#349));
#81=EDGE_LOOP('',(#350,#351,#352,#353,#354,#355,#356,#357,#358));
#82=EDGE_LOOP('',(#359,#360,#361,#362));
#83=EDGE_LOOP('',(#363));
#84=EDGE_LOOP('',(#364));
#85=EDGE_LOOP('',(#365,#366,#367,#368,#369,#370,#371,#372,#373,#374));
#86=EDGE_LOOP('',(#375,#376));
#87=EDGE_LOOP('',(#377,#378,#379,#380));
#88=EDGE_LOOP('',(#381,#382,#383,#384,#385,#386,#387,#388,#389));
#89=EDGE_LOOP('',(#390));
#90=EDGE_LOOP('',(#391,#392,#393,#394));
#91=LINE('',#575,#133);
#92=LINE('',#577,#134);
#93=LINE('',#579,#135);
#94=LINE('',#580,#136);
#95=LINE('',#583,#137);
#96=LINE('',#585,#138);
#97=LINE('',#586,#139);
#98=LINE('',#589,#140);
#99=LINE('',#591,#141);
#100=LINE('',#593,#142);
#101=LINE('',#595,#143);
#102=LINE('',#597,#144);
#103=LINE('',#598,#145);
#104=LINE('',#603,#146);
#105=LINE('',#604,#147);
#106=LINE('',#607,#148);
#107=LINE('',#609,#149);
#108=LINE('',#611,#150);
#109=LINE('',#613,#151);
#110=LINE('',#614,#152);
#111=LINE('',#618,#153);
#112=LINE('',#621,#154);
#113=LINE('',#623,#155);
#114=LINE('',#625,#156);
#115=LINE('',#626,#157);
#116=LINE('',#629,#158);
#117=LINE('',#631,#159);
#118=LINE('',#632,#160);
#119=LINE('',#635,#161);
#120=LINE('',#636,#162);
#121=LINE('',#639,#163);
#122=LINE('',#640,#164);
#123=LINE('',#641,#165);
#124=LINE('',#642,#166);
#125=LINE('',#644,#167);
#126=LINE('',#646,#168);
#127=LINE('',#690,#169);
#128=LINE('',#741,#170);
#129=LINE('',#832,#171);
#130=LINE('',#833,#172);
#131=LINE('',#839,#173);
#132=LINE('',#840,#174);
#133=VECTOR('',#475,10.);
#134=VECTOR('',#476,10.);
#135=VECTOR('',#477,10.);
#136=VECTOR('',#478,10.);
#137=VECTOR('',#481,10.);
#138=VECTOR('',#482,10.);
#139=VECTOR('',#483,10.);
#140=VECTOR('',#486,10.);
#141=VECTOR('',#487,10.);
#142=VECTOR('',#488,10.);
#143=VECTOR('',#489,10.);
#144=VECTOR('',#490,10.);
#145=VECTOR('',#491,10.);
#146=VECTOR('',#496,10.);
#147=VECTOR('',#497,10.);
#148=VECTOR('',#500,10.);
#149=VECTOR('',#501,10.);
#150=VECTOR('',#502,10.);
#151=VECTOR('',#503,10.);
#152=VECTOR('',#504,10.);
#153=VECTOR('',#509,10.);
#154=VECTOR('',#510,10.);
#155=VECTOR('',#511,10.);
#156=VECTOR('',#512,10.);
#157=VECTOR('',#513,10.);
#158=VECTOR('',#516,10.);
#159=VECTOR('',#517,10.);
#160=VECTOR('',#518,10.);
#161=VECTOR('',#521,10.);
#162=VECTOR('',#522,10.);
#163=VECTOR('',#525,10.);
#164=VECTOR('',#526,10.);
#165=VECTOR('',#527,10.);
#166=VECTOR('',#528,10.);
#167=VECTOR('',#531,10.);
#168=VECTOR('',#534,10.);
#169=VECTOR('',#539,0.9);
#170=VECTOR('',#542,0.9);
#171=VECTOR('',#557,10.);
#172=VECTOR('',#558,10.);
#173=VECTOR('',#567,5.);
#174=VECTOR('',#568,5.);
#175=VERTEX_POINT('',#573);
#176=VERTEX_POINT('',#574);
#177=VERTEX_POINT('',#576);
#178=VERTEX_POINT('',#578);
#179=VERTEX_POINT('',#582);
#180=VERTEX_POINT('',#584);
#181=VERTEX_POINT('',#588);
#182=VERTEX_POINT('',#590);
#183=VERTEX_POINT('',#592);
#184=VERTEX_POINT('',#594);
#185=VERTEX_POINT('',#596);
#186=VERTEX_POINT('',#599);
#187=VERTEX_POINT('',#602);
#188=VERTEX_POINT('',#606);
#189=VERTEX_POINT('',#608);
#190=VERTEX_POINT('',#610);
#191=VERTEX_POINT('',#612);
#192=VERTEX_POINT('',#615);
#193=VERTEX_POINT('',#619);
#194=VERTEX_POINT('',#620);
#195=VERTEX_POINT('',#622);
#196=VERTEX_POINT('',#624);
#197=VERTEX_POINT('',#628);
#198=VERTEX_POINT('',#630);
#199=VERTEX_POINT('',#634);
#200=VERTEX_POINT('',#638);
#201=VERTEX_POINT('',#649);
#202=VERTEX_POINT('',#650);
#203=VERTEX_POINT('',#689);
#204=VERTEX_POINT('',#726);
#205=VERTEX_POINT('',#727);
#206=VERTEX_POINT('',#740);
#207=VERTEX_POINT('',#742);
#208=VERTEX_POINT('',#755);
#209=VERTEX_POINT('',#766);
#210=VERTEX_POINT('',#791);
#211=VERTEX_POINT('',#823);
#212=VERTEX_POINT('',#825);
#213=VERTEX_POINT('',#829);
#214=VERTEX_POINT('',#835);
#215=EDGE_CURVE('',#175,#176,#91,.T.);
#216=EDGE_CURVE('',#177,#175,#92,.T.);
#217=EDGE_CURVE('',#178,#177,#93,.T.);
#218=EDGE_CURVE('',#176,#178,#94,.T.);
#219=EDGE_CURVE('',#179,#178,#95,.T.);
#220=EDGE_CURVE('',#180,#179,#96,.T.);
#221=EDGE_CURVE('',#180,#176,#97,.T.);
#222=EDGE_CURVE('',#181,#177,#98,.T.);
#223=EDGE_CURVE('',#181,#182,#99,.T.);
#224=EDGE_CURVE('',#183,#182,#100,.T.);
#225=EDGE_CURVE('',#184,#183,#101,.T.);
#226=EDGE_CURVE('',#184,#185,#102,.T.);
#227=EDGE_CURVE('',#185,#179,#103,.T.);
#228=EDGE_CURVE('',#186,#186,#37,.T.);
#229=EDGE_CURVE('',#187,#175,#104,.T.);
#230=EDGE_CURVE('',#187,#181,#105,.T.);
#231=EDGE_CURVE('',#188,#180,#106,.T.);
#232=EDGE_CURVE('',#189,#188,#107,.T.);
#233=EDGE_CURVE('',#190,#189,#108,.T.);
#234=EDGE_CURVE('',#191,#190,#109,.T.);
#235=EDGE_CURVE('',#191,#187,#110,.T.);
#236=EDGE_CURVE('',#192,#192,#38,.T.);
#237=EDGE_CURVE('',#182,#191,#111,.T.);
#238=EDGE_CURVE('',#193,#194,#112,.T.);
#239=EDGE_CURVE('',#195,#193,#113,.T.);
#240=EDGE_CURVE('',#196,#195,#114,.T.);
#241=EDGE_CURVE('',#194,#196,#115,.T.);
#242=EDGE_CURVE('',#194,#197,#116,.T.);
#243=EDGE_CURVE('',#198,#197,#117,.T.);
#244=EDGE_CURVE('',#198,#193,#118,.T.);
#245=EDGE_CURVE('',#199,#196,#119,.T.);
#246=EDGE_CURVE('',#197,#199,#120,.T.);
#247=EDGE_CURVE('',#195,#200,#121,.T.);
#248=EDGE_CURVE('',#200,#189,#122,.T.);
#249=EDGE_CURVE('',#188,#185,#123,.T.);
#250=EDGE_CURVE('',#184,#199,#124,.T.);
#251=EDGE_CURVE('',#183,#190,#125,.T.);
#252=EDGE_CURVE('',#200,#198,#126,.T.);
#253=EDGE_CURVE('',#201,#202,#18,.T.);
#254=EDGE_CURVE('',#202,#201,#19,.T.);
#255=EDGE_CURVE('',#202,#203,#127,.T.);
#256=EDGE_CURVE('',#203,#203,#20,.T.);
#257=EDGE_CURVE('',#204,#205,#21,.T.);
#258=EDGE_CURVE('',#204,#206,#128,.T.);
#259=EDGE_CURVE('',#207,#206,#22,.T.);
#260=EDGE_CURVE('',#208,#207,#23,.T.);
#261=EDGE_CURVE('',#209,#208,#24,.T.);
#262=EDGE_CURVE('',#206,#209,#25,.T.);
#263=EDGE_CURVE('',#210,#204,#26,.T.);
#264=EDGE_CURVE('',#205,#210,#27,.T.);
#265=EDGE_CURVE('',#211,#211,#39,.T.);
#266=EDGE_CURVE('',#211,#212,#40,.T.);
#267=EDGE_CURVE('',#212,#212,#41,.T.);
#268=EDGE_CURVE('',#213,#213,#42,.T.);
#269=EDGE_CURVE('',#211,#209,#129,.T.);
#270=EDGE_CURVE('',#207,#186,#130,.T.);
#271=EDGE_CURVE('',#213,#214,#43,.T.);
#272=EDGE_CURVE('',#214,#214,#44,.T.);
#273=EDGE_CURVE('',#214,#210,#131,.T.);
#274=EDGE_CURVE('',#205,#192,#132,.T.);
#275=ORIENTED_EDGE('',*,*,#215,.F.);
#276=ORIENTED_EDGE('',*,*,#216,.F.);
#277=ORIENTED_EDGE('',*,*,#217,.F.);
#278=ORIENTED_EDGE('',*,*,#218,.F.);
#279=ORIENTED_EDGE('',*,*,#218,.T.);
#280=ORIENTED_EDGE('',*,*,#219,.F.);
#281=ORIENTED_EDGE('',*,*,#220,.F.);
#282=ORIENTED_EDGE('',*,*,#221,.T.);
#283=ORIENTED_EDGE('',*,*,#217,.T.);
#284=ORIENTED_EDGE('',*,*,#222,.F.);
#285=ORIENTED_EDGE('',*,*,#223,.T.);
#286=ORIENTED_EDGE('',*,*,#224,.F.);
#287=ORIENTED_EDGE('',*,*,#225,.F.);
#288=ORIENTED_EDGE('',*,*,#226,.T.);
#289=ORIENTED_EDGE('',*,*,#227,.T.);
#290=ORIENTED_EDGE('',*,*,#219,.T.);
#291=ORIENTED_EDGE('',*,*,#228,.T.);
#292=ORIENTED_EDGE('',*,*,#216,.T.);
#293=ORIENTED_EDGE('',*,*,#229,.F.);
#294=ORIENTED_EDGE('',*,*,#230,.T.);
#295=ORIENTED_EDGE('',*,*,#222,.T.);
#296=ORIENTED_EDGE('',*,*,#215,.T.);
#297=ORIENTED_EDGE('',*,*,#221,.F.);
#298=ORIENTED_EDGE('',*,*,#231,.F.);
#299=ORIENTED_EDGE('',*,*,#232,.F.);
#300=ORIENTED_EDGE('',*,*,#233,.F.);
#301=ORIENTED_EDGE('',*,*,#234,.F.);
#302=ORIENTED_EDGE('',*,*,#235,.T.);
#303=ORIENTED_EDGE('',*,*,#229,.T.);
#304=ORIENTED_EDGE('',*,*,#236,.F.);
#305=ORIENTED_EDGE('',*,*,#230,.F.);
#306=ORIENTED_EDGE('',*,*,#235,.F.);
#307=ORIENTED_EDGE('',*,*,#237,.F.);
#308=ORIENTED_EDGE('',*,*,#223,.F.);
#309=ORIENTED_EDGE('',*,*,#238,.F.);
#310=ORIENTED_EDGE('',*,*,#239,.F.);
#311=ORIENTED_EDGE('',*,*,#240,.F.);
#312=ORIENTED_EDGE('',*,*,#241,.F.);
#313=ORIENTED_EDGE('',*,*,#238,.T.);
#314=ORIENTED_EDGE('',*,*,#242,.T.);
#315=ORIENTED_EDGE('',*,*,#243,.F.);
#316=ORIENTED_EDGE('',*,*,#244,.T.);
#317=ORIENTED_EDGE('',*,*,#241,.T.);
#318=ORIENTED_EDGE('',*,*,#245,.F.);
#319=ORIENTED_EDGE('',*,*,#246,.F.);
#320=ORIENTED_EDGE('',*,*,#242,.F.);
#321=ORIENTED_EDGE('',*,*,#240,.T.);
#322=ORIENTED_EDGE('',*,*,#247,.T.);
#323=ORIENTED_EDGE('',*,*,#248,.T.);
#324=ORIENTED_EDGE('',*,*,#232,.T.);
#325=ORIENTED_EDGE('',*,*,#249,.T.);
#326=ORIENTED_EDGE('',*,*,#226,.F.);
#327=ORIENTED_EDGE('',*,*,#250,.T.);
#328=ORIENTED_EDGE('',*,*,#245,.T.);
#329=ORIENTED_EDGE('',*,*,#237,.T.);
#330=ORIENTED_EDGE('',*,*,#234,.T.);
#331=ORIENTED_EDGE('',*,*,#251,.F.);
#332=ORIENTED_EDGE('',*,*,#224,.T.);
#333=ORIENTED_EDGE('',*,*,#252,.T.);
#334=ORIENTED_EDGE('',*,*,#243,.T.);
#335=ORIENTED_EDGE('',*,*,#246,.T.);
#336=ORIENTED_EDGE('',*,*,#250,.F.);
#337=ORIENTED_EDGE('',*,*,#225,.T.);
#338=ORIENTED_EDGE('',*,*,#251,.T.);
#339=ORIENTED_EDGE('',*,*,#233,.T.);
#340=ORIENTED_EDGE('',*,*,#248,.F.);
#341=ORIENTED_EDGE('',*,*,#239,.T.);
#342=ORIENTED_EDGE('',*,*,#244,.F.);
#343=ORIENTED_EDGE('',*,*,#252,.F.);
#344=ORIENTED_EDGE('',*,*,#247,.F.);
#345=ORIENTED_EDGE('',*,*,#253,.F.);
#346=ORIENTED_EDGE('',*,*,#254,.F.);
#347=ORIENTED_EDGE('',*,*,#255,.T.);
#348=ORIENTED_EDGE('',*,*,#256,.F.);
#349=ORIENTED_EDGE('',*,*,#255,.F.);
#350=ORIENTED_EDGE('',*,*,#257,.F.);
#351=ORIENTED_EDGE('',*,*,#258,.T.);
#352=ORIENTED_EDGE('',*,*,#259,.F.);
#353=ORIENTED_EDGE('',*,*,#260,.F.);
#354=ORIENTED_EDGE('',*,*,#261,.F.);
#355=ORIENTED_EDGE('',*,*,#262,.F.);
#356=ORIENTED_EDGE('',*,*,#258,.F.);
#357=ORIENTED_EDGE('',*,*,#263,.F.);
#358=ORIENTED_EDGE('',*,*,#264,.F.);
#359=ORIENTED_EDGE('',*,*,#265,.T.);
#360=ORIENTED_EDGE('',*,*,#266,.T.);
#361=ORIENTED_EDGE('',*,*,#267,.T.);
#362=ORIENTED_EDGE('',*,*,#266,.F.);
#363=ORIENTED_EDGE('',*,*,#267,.F.);
#364=ORIENTED_EDGE('',*,*,#268,.F.);
#365=ORIENTED_EDGE('',*,*,#265,.F.);
#366=ORIENTED_EDGE('',*,*,#269,.T.);
#367=ORIENTED_EDGE('',*,*,#261,.T.);
#368=ORIENTED_EDGE('',*,*,#260,.T.);
#369=ORIENTED_EDGE('',*,*,#270,.T.);
#370=ORIENTED_EDGE('',*,*,#228,.F.);
#371=ORIENTED_EDGE('',*,*,#270,.F.);
#372=ORIENTED_EDGE('',*,*,#259,.T.);
#373=ORIENTED_EDGE('',*,*,#262,.T.);
#374=ORIENTED_EDGE('',*,*,#269,.F.);
#375=ORIENTED_EDGE('',*,*,#253,.T.);
#376=ORIENTED_EDGE('',*,*,#254,.T.);
#377=ORIENTED_EDGE('',*,*,#268,.T.);
#378=ORIENTED_EDGE('',*,*,#271,.T.);
#379=ORIENTED_EDGE('',*,*,#272,.T.);
#380=ORIENTED_EDGE('',*,*,#271,.F.);
#381=ORIENTED_EDGE('',*,*,#272,.F.);
#382=ORIENTED_EDGE('',*,*,#273,.T.);
#383=ORIENTED_EDGE('',*,*,#263,.T.);
#384=ORIENTED_EDGE('',*,*,#257,.T.);
#385=ORIENTED_EDGE('',*,*,#274,.T.);
#386=ORIENTED_EDGE('',*,*,#236,.T.);
#387=ORIENTED_EDGE('',*,*,#274,.F.);
#388=ORIENTED_EDGE('',*,*,#264,.T.);
#389=ORIENTED_EDGE('',*,*,#273,.F.);
#390=ORIENTED_EDGE('',*,*,#256,.T.);
#391=ORIENTED_EDGE('',*,*,#231,.T.);
#392=ORIENTED_EDGE('',*,*,#220,.T.);
#393=ORIENTED_EDGE('',*,*,#227,.F.);
#394=ORIENTED_EDGE('',*,*,#249,.F.);
#395=PLANE('',#443);
#396=PLANE('',#444);
#397=PLANE('',#445);
#398=PLANE('',#447);
#399=PLANE('',#448);
#400=PLANE('',#450);
#401=PLANE('',#451);
#402=PLANE('',#452);
#403=PLANE('',#453);
#404=PLANE('',#454);
#405=PLANE('',#455);
#406=PLANE('',#456);
#407=PLANE('',#463);
#408=PLANE('',#470);
#409=ADVANCED_FACE('',(#45),#395,.F.);
#410=ADVANCED_FACE('',(#46),#396,.T.);
#411=ADVANCED_FACE('',(#47,#31),#397,.T.);
#412=ADVANCED_FACE('',(#48),#398,.T.);
#413=ADVANCED_FACE('',(#49,#32),#399,.T.);
#414=ADVANCED_FACE('',(#50,#33),#400,.F.);
#415=ADVANCED_FACE('',(#51),#401,.F.);
#416=ADVANCED_FACE('',(#52),#402,.F.);
#417=ADVANCED_FACE('',(#53),#403,.T.);
#418=ADVANCED_FACE('',(#54),#404,.T.);
#419=ADVANCED_FACE('',(#55),#405,.T.);
#420=ADVANCED_FACE('',(#56),#406,.F.);
#421=ADVANCED_FACE('',(#57),#28,.F.);
#422=ADVANCED_FACE('',(#58),#29,.F.);
#423=ADVANCED_FACE('',(#59),#16,.T.);
#424=ADVANCED_FACE('',(#60,#34),#407,.T.);
#425=ADVANCED_FACE('',(#61,#35),#15,.T.);
#426=ADVANCED_FACE('',(#62),#17,.T.);
#427=ADVANCED_FACE('',(#63,#36),#30,.F.);
#428=ADVANCED_FACE('',(#64),#408,.T.);
#429=CLOSED_SHELL('',(#409,#410,#411,#412,#413,#414,#415,#416,#417,#418,
#419,#420,#421,#422,#423,#424,#425,#426,#427,#428));
#430=DERIVED_UNIT_ELEMENT(#432,1.);
#431=DERIVED_UNIT_ELEMENT(#847,-3.);
#432=(
MASS_UNIT()
NAMED_UNIT(*)
SI_UNIT(.KILO.,.GRAM.)
);
#433=DERIVED_UNIT((#430,#431));
#434=MEASURE_REPRESENTATION_ITEM('density measure',
POSITIVE_RATIO_MEASURE(7850.),#433);
#435=PROPERTY_DEFINITION_REPRESENTATION(#440,#437);
#436=PROPERTY_DEFINITION_REPRESENTATION(#441,#438);
#437=REPRESENTATION('material name',(#439),#844);
#438=REPRESENTATION('density',(#434),#844);
#439=DESCRIPTIVE_REPRESENTATION_ITEM('Steel','Steel');
#440=PROPERTY_DEFINITION('material property','material name',#854);
#441=PROPERTY_DEFINITION('material property','density of part',#854);
#442=AXIS2_PLACEMENT_3D('',#571,#471,#472);
#443=AXIS2_PLACEMENT_3D('',#572,#473,#474);
#444=AXIS2_PLACEMENT_3D('',#581,#479,#480);
#445=AXIS2_PLACEMENT_3D('',#587,#484,#485);
#446=AXIS2_PLACEMENT_3D('',#600,#492,#493);
#447=AXIS2_PLACEMENT_3D('',#601,#494,#495);
#448=AXIS2_PLACEMENT_3D('',#605,#498,#499);
#449=AXIS2_PLACEMENT_3D('',#616,#505,#506);
#450=AXIS2_PLACEMENT_3D('',#617,#507,#508);
#451=AXIS2_PLACEMENT_3D('',#627,#514,#515);
#452=AXIS2_PLACEMENT_3D('',#633,#519,#520);
#453=AXIS2_PLACEMENT_3D('',#637,#523,#524);
#454=AXIS2_PLACEMENT_3D('',#643,#529,#530);
#455=AXIS2_PLACEMENT_3D('',#645,#532,#533);
#456=AXIS2_PLACEMENT_3D('',#647,#535,#536);
#457=AXIS2_PLACEMENT_3D('',#648,#537,#538);
#458=AXIS2_PLACEMENT_3D('',#725,#540,#541);
#459=AXIS2_PLACEMENT_3D('',#822,#543,#544);
#460=AXIS2_PLACEMENT_3D('',#824,#545,#546);
#461=AXIS2_PLACEMENT_3D('',#826,#547,#548);
#462=AXIS2_PLACEMENT_3D('',#827,#549,#550);
#463=AXIS2_PLACEMENT_3D('',#828,#551,#552);
#464=AXIS2_PLACEMENT_3D('',#830,#553,#554);
#465=AXIS2_PLACEMENT_3D('',#831,#555,#556);
#466=AXIS2_PLACEMENT_3D('',#834,#559,#560);
#467=AXIS2_PLACEMENT_3D('',#836,#561,#562);
#468=AXIS2_PLACEMENT_3D('',#837,#563,#564);
#469=AXIS2_PLACEMENT_3D('',#838,#565,#566);
#470=AXIS2_PLACEMENT_3D('',#841,#569,#570);
#471=DIRECTION('axis',(0.,0.,1.));
#472=DIRECTION('refdir',(1.,0.,0.));
#473=DIRECTION('center_axis',(-1.,0.,0.));
#474=DIRECTION('ref_axis',(0.,0.,1.));
#475=DIRECTION('',(0.,1.,0.));
#476=DIRECTION('',(0.,0.,1.));
#477=DIRECTION('',(0.,-1.,0.));
#478=DIRECTION('',(0.,0.,-1.));
#479=DIRECTION('center_axis',(0.,1.,0.));
#480=DIRECTION('ref_axis',(0.,0.,1.));
#481=DIRECTION('',(1.,0.,0.));
#482=DIRECTION('',(0.,0.,-1.));
#483=DIRECTION('',(1.,0.,0.));
#484=DIRECTION('center_axis',(0.,0.,-1.));
#485=DIRECTION('ref_axis',(-1.,0.,0.));
#486=DIRECTION('',(1.,0.,0.));
#487=DIRECTION('',(0.,-1.,0.));
#488=DIRECTION('',(1.,0.,0.));
#489=DIRECTION('',(0.,-1.,0.));
#490=DIRECTION('',(-1.,0.,0.));
#491=DIRECTION('',(0.,1.,0.));
#492=DIRECTION('center_axis',(0.,0.,1.));
#493=DIRECTION('ref_axis',(1.,0.,0.));
#494=DIRECTION('center_axis',(0.,-1.,0.));
#495=DIRECTION('ref_axis',(0.,0.,-1.));
#496=DIRECTION('',(1.,0.,0.));
#497=DIRECTION('',(0.,0.,-1.));
#498=DIRECTION('center_axis',(0.,0.,1.));
#499=DIRECTION('ref_axis',(1.,0.,0.));
#500=DIRECTION('',(0.,1.,0.));
#501=DIRECTION('',(-1.,0.,0.));
#502=DIRECTION('',(0.,1.,0.));
#503=DIRECTION('',(-1.,0.,0.));
#504=DIRECTION('',(0.,1.,0.));
#505=DIRECTION('center_axis',(0.,0.,1.));
#506=DIRECTION('ref_axis',(1.,0.,0.));
#507=DIRECTION('center_axis',(-1.,0.,0.));
#508=DIRECTION('ref_axis',(0.,0.,1.));
#509=DIRECTION('',(0.,0.,1.));
#510=DIRECTION('',(0.,0.,-1.));
#511=DIRECTION('',(0.,-1.,0.));
#512=DIRECTION('',(0.,0.,1.));
#513=DIRECTION('',(0.,1.,0.));
#514=DIRECTION('center_axis',(0.,-1.,0.));
#515=DIRECTION('ref_axis',(0.,0.,1.));
#516=DIRECTION('',(-1.,0.,0.));
#517=DIRECTION('',(0.,0.,-1.));
#518=DIRECTION('',(1.,0.,0.));
#519=DIRECTION('center_axis',(0.,0.,-1.));
#520=DIRECTION('ref_axis',(-1.,0.,0.));
#521=DIRECTION('',(1.,0.,0.));
#522=DIRECTION('',(0.,1.,0.));
#523=DIRECTION('center_axis',(0.,-1.,0.));
#524=DIRECTION('ref_axis',(0.,0.,1.));
#525=DIRECTION('',(-1.,0.,0.));
#526=DIRECTION('',(0.,0.,1.));
#527=DIRECTION('',(0.,0.,-1.));
#528=DIRECTION('',(0.,0.,1.));
#529=DIRECTION('center_axis',(0.,-1.,0.));
#530=DIRECTION('ref_axis',(0.,0.,-1.));
#531=DIRECTION('',(0.,0.,1.));
#532=DIRECTION('center_axis',(-1.,0.,0.));
#533=DIRECTION('ref_axis',(0.,0.,1.));
#534=DIRECTION('',(0.,-1.,0.));
#535=DIRECTION('center_axis',(0.,0.,1.));
#536=DIRECTION('ref_axis',(1.,0.,0.));
#537=DIRECTION('center_axis',(-1.,0.,0.));
#538=DIRECTION('ref_axis',(0.,1.,0.));
#539=DIRECTION('',(-1.,0.,0.));
#540=DIRECTION('center_axis',(-1.,0.,0.));
#541=DIRECTION('ref_axis',(0.,1.,0.));
#542=DIRECTION('',(-1.,0.,0.));
#543=DIRECTION('center_axis',(0.,0.,1.));
#544=DIRECTION('ref_axis',(1.,0.,0.));
#545=DIRECTION('center_axis',(0.,0.,-1.));
#546=DIRECTION('ref_axis',(1.,0.,0.));
#547=DIRECTION('center_axis',(0.,-1.,0.));
#548=DIRECTION('ref_axis',(-1.,0.,0.));
#549=DIRECTION('center_axis',(0.,0.,1.));
#550=DIRECTION('ref_axis',(1.,0.,0.));
#551=DIRECTION('center_axis',(0.,0.,-1.));
#552=DIRECTION('ref_axis',(1.,0.,0.));
#553=DIRECTION('center_axis',(0.,0.,-1.));
#554=DIRECTION('ref_axis',(1.,0.,0.));
#555=DIRECTION('center_axis',(0.,0.,1.));
#556=DIRECTION('ref_axis',(1.,0.,0.));
#557=DIRECTION('',(-0.0871557427476582,1.0673500138323E-17,0.996194698091746));
#558=DIRECTION('',(-0.0871557427476582,1.0673500138323E-17,0.996194698091746));
#559=DIRECTION('center_axis',(0.,0.,1.));
#560=DIRECTION('ref_axis',(1.,0.,0.));
#561=DIRECTION('center_axis',(0.,-1.,0.));
#562=DIRECTION('ref_axis',(-1.,0.,0.));
#563=DIRECTION('center_axis',(0.,0.,1.));
#564=DIRECTION('ref_axis',(1.,0.,0.));
#565=DIRECTION('center_axis',(0.,0.,1.));
#566=DIRECTION('ref_axis',(1.,0.,0.));
#567=DIRECTION('',(0.,0.,1.));
#568=DIRECTION('',(0.,0.,1.));
#569=DIRECTION('center_axis',(-1.,0.,0.));
#570=DIRECTION('ref_axis',(0.,0.,1.));
#571=CARTESIAN_POINT('',(0.,0.,0.));
#572=CARTESIAN_POINT('Origin',(45.,17.5000001117587,5.00000007450581));
#573=CARTESIAN_POINT('',(45.,15.0000002235174,11.75));
#574=CARTESIAN_POINT('',(45.,35.,11.75));
#575=CARTESIAN_POINT('',(45.,11.7500000558794,11.75));
#576=CARTESIAN_POINT('',(45.,15.0000002235174,-7.75));
#577=CARTESIAN_POINT('',(45.,15.0000002235174,7.50000011175871));
#578=CARTESIAN_POINT('',(45.,35.,-7.75));
#579=CARTESIAN_POINT('',(45.,8.75000005587935,-7.75));
#580=CARTESIAN_POINT('',(45.,35.,2.5000000372529));
#581=CARTESIAN_POINT('Origin',(25.,35.,0.));
#582=CARTESIAN_POINT('',(-46.,35.,-7.74999998509884));
#583=CARTESIAN_POINT('',(45.,35.,-7.75));
#584=CARTESIAN_POINT('',(-46.,35.,11.75));
#585=CARTESIAN_POINT('',(-46.,35.,-2.99999998509884));
#586=CARTESIAN_POINT('',(25.,35.,11.75));
#587=CARTESIAN_POINT('Origin',(0.,0.,-7.75));
#588=CARTESIAN_POINT('',(25.,15.0000002235174,-7.75));
#589=CARTESIAN_POINT('',(75.,15.0000002235174,-7.75));
#590=CARTESIAN_POINT('',(25.,-21.,-7.75));
#591=CARTESIAN_POINT('',(25.,-1.49999994412065,-7.75));
#592=CARTESIAN_POINT('',(-25.,-21.,-7.75));
#593=CARTESIAN_POINT('',(-12.5,-21.,-7.75));
#594=CARTESIAN_POINT('',(-25.,13.0000001937151,-7.74999998509884));
#595=CARTESIAN_POINT('',(-25.,12.5,-7.75));
#596=CARTESIAN_POINT('',(-46.,13.0000001937151,-7.74999998509884));
#597=CARTESIAN_POINT('',(-12.5,13.0000001937151,-7.75));
#598=CARTESIAN_POINT('',(-46.,13.0000001937151,-7.74999998509884));
#599=CARTESIAN_POINT('',(-44.5000005140901,24.0000003576279,-7.75));
#600=CARTESIAN_POINT('Origin',(-34.5000005140901,24.0000003576279,-7.75));
#601=CARTESIAN_POINT('Origin',(25.,15.0000002235174,10.0000001490116));
#602=CARTESIAN_POINT('',(25.,15.0000002235174,11.75));
#603=CARTESIAN_POINT('',(50.,15.0000002235174,11.75));
#604=CARTESIAN_POINT('',(25.,15.0000002235174,-7.75));
#605=CARTESIAN_POINT('Origin',(25.,6.,11.75));
#606=CARTESIAN_POINT('',(-46.,13.0000001937151,11.75));
#607=CARTESIAN_POINT('',(-46.,13.0000000484288,11.75));
#608=CARTESIAN_POINT('',(-25.,13.0000001937151,11.75));
#609=CARTESIAN_POINT('',(0.,13.0000001937151,11.75));
#610=CARTESIAN_POINT('',(-25.,-21.,11.75));
#611=CARTESIAN_POINT('',(-25.,15.5,11.75));
#612=CARTESIAN_POINT('',(25.,-21.,11.75));
#613=CARTESIAN_POINT('',(25.,-21.,11.75));
#614=CARTESIAN_POINT('',(25.,1.50000005587935,11.75));
#615=CARTESIAN_POINT('',(-39.3971225138514,24.0108990716149,11.75));
#616=CARTESIAN_POINT('Origin',(-34.3971225138514,24.0108990716149,11.75));
#617=CARTESIAN_POINT('Origin',(25.,-2.99999988824129,2.));
#618=CARTESIAN_POINT('',(25.,-21.,1.));
#619=CARTESIAN_POINT('',(25.,-15.0000002235174,5.00000010430813));
#620=CARTESIAN_POINT('',(25.,-15.0000002235174,-0.999999970197678));
#621=CARTESIAN_POINT('',(25.,-15.0000002235174,2.00000001490116));
#622=CARTESIAN_POINT('',(25.,13.0000001937151,5.00000010430813));
#623=CARTESIAN_POINT('',(25.,-9.00000005587935,5.00000010430813));
#624=CARTESIAN_POINT('',(25.,13.0000001937151,-0.999999970197678));
#625=CARTESIAN_POINT('',(25.,13.0000001937151,1.50000000745058));
#626=CARTESIAN_POINT('',(25.,5.0000001527369,-0.999999970197678));
#627=CARTESIAN_POINT('Origin',(25.,-15.0000002235174,2.00000002980232));
#628=CARTESIAN_POINT('',(-25.,-15.0000002235174,-0.999999970197678));
#629=CARTESIAN_POINT('',(25.,-15.0000002235174,-0.999999970197678));
#630=CARTESIAN_POINT('',(-25.,-15.0000002235174,5.00000010430813));
#631=CARTESIAN_POINT('',(-25.,-15.0000002235174,1.00000001490116));
#632=CARTESIAN_POINT('',(25.,-15.0000002235174,5.00000010430813));
#633=CARTESIAN_POINT('Origin',(25.,13.0000001937151,-0.999999970197678));
#634=CARTESIAN_POINT('',(-25.,13.0000001937151,-0.999999970197678));
#635=CARTESIAN_POINT('',(0.,13.0000001937151,-0.999999970197678));
#636=CARTESIAN_POINT('',(-25.,19.0000000968575,-0.999999970197678));
#637=CARTESIAN_POINT('Origin',(-25.,13.0000001937151,1.00000001490116));
#638=CARTESIAN_POINT('',(-25.,13.0000001937151,5.00000010430813));
#639=CARTESIAN_POINT('',(0.,13.0000001937151,5.00000010430813));
#640=CARTESIAN_POINT('',(-25.,13.0000001937151,0.500000007450581));
#641=CARTESIAN_POINT('',(-46.,13.0000001937151,1.00000001490116));
#642=CARTESIAN_POINT('',(-25.,13.0000001937151,0.500000007450581));
#643=CARTESIAN_POINT('Origin',(-25.,-21.,0.));
#644=CARTESIAN_POINT('',(-25.,-21.,0.));
#645=CARTESIAN_POINT('Origin',(-25.,25.,0.));
#646=CARTESIAN_POINT('',(-25.,4.99999988824129,5.00000010430813));
#647=CARTESIAN_POINT('Origin',(25.,-15.0000002235174,5.00000010430813));
#648=CARTESIAN_POINT('Origin',(-85.,23.9917580991363,-19.0000002831221));
#649=CARTESIAN_POINT('',(-25.5291401500404,24.891724400345,-19.0077885235282));
#650=CARTESIAN_POINT('',(-25.5301125895537,23.0917580991363,-19.0000002681867));
#651=CARTESIAN_POINT('Ctrl Pts',(-25.5291401500404,24.891724400345,-19.0077885235282));
#652=CARTESIAN_POINT('Ctrl Pts',(-25.5388969110347,24.8907545559818,-19.1198584133658));
#653=CARTESIAN_POINT('Ctrl Pts',(-25.5470109408023,24.8674911478642,-19.2394562584882));
#654=CARTESIAN_POINT('Ctrl Pts',(-25.5578322569788,24.7747981085829,-19.4594519851168));
#655=CARTESIAN_POINT('Ctrl Pts',(-25.5606598811123,24.7053628277651,-19.5598415503627));
#656=CARTESIAN_POINT('Ctrl Pts',(-25.5633726977012,24.5457067203816,-19.7181686097461));
#657=CARTESIAN_POINT('Ctrl Pts',(-25.5634639134212,24.4448504806624,-19.7867382326249));
#658=CARTESIAN_POINT('Ctrl Pts',(-25.5631610366372,24.224096401252,-19.8776495415496));
#659=CARTESIAN_POINT('Ctrl Pts',(-25.5628880208899,24.1041984388634,-19.8999912927195));
#660=CARTESIAN_POINT('Ctrl Pts',(-25.5630950519484,23.8794588800601,-19.900009267995));
#661=CARTESIAN_POINT('Ctrl Pts',(-25.5635890095841,23.7595551763873,-19.8776856739028));
#662=CARTESIAN_POINT('Ctrl Pts',(-25.5642995097153,23.538783146556,-19.786806189753));
#663=CARTESIAN_POINT('Ctrl Pts',(-25.5643950173283,23.4379144555485,-19.7182502800602));
#664=CARTESIAN_POINT('Ctrl Pts',(-25.561978313317,23.2782347405989,-19.5599446754869));
#665=CARTESIAN_POINT('Ctrl Pts',(-25.5592799460548,23.2087860023336,-19.4595671010794));
#666=CARTESIAN_POINT('Ctrl Pts',(-25.5486315703876,23.1160618324291,-19.2395895706888));
#667=CARTESIAN_POINT('Ctrl Pts',(-25.5405611452128,23.0927807882162,-19.1199978260628));
#668=CARTESIAN_POINT('Ctrl Pts',(-25.5305767752104,23.0917697856879,-19.0052923845897));
#669=CARTESIAN_POINT('Ctrl Pts',(-25.5303454428917,23.091758099092,-19.0026482394205));
#670=CARTESIAN_POINT('Ctrl Pts',(-25.530112590857,23.0917580991363,-19.000000268072));
#671=CARTESIAN_POINT('Ctrl Pts',(-25.530112590857,23.0917580991363,-19.000000268072));
#672=CARTESIAN_POINT('Ctrl Pts',(-25.5202985876832,23.0917581010025,-18.8883963507908));
#673=CARTESIAN_POINT('Ctrl Pts',(-25.5075838911305,23.1137009252697,-18.7700128286326));
#674=CARTESIAN_POINT('Ctrl Pts',(-25.4797811698268,23.2035319897592,-18.5491736413069));
#675=CARTESIAN_POINT('Ctrl Pts',(-25.4647573681661,23.2725489400893,-18.4471444009846));
#676=CARTESIAN_POINT('Ctrl Pts',(-25.4391898791561,23.4322916715467,-18.2859746172758));
#677=CARTESIAN_POINT('Ctrl Pts',(-25.4269502525292,23.5336138475531,-18.2159959916908));
#678=CARTESIAN_POINT('Ctrl Pts',(-25.4101025699671,23.7562986821295,-18.1230066964937));
#679=CARTESIAN_POINT('Ctrl Pts',(-25.4056170335211,23.8776761792592,-18.1000094048227));
#680=CARTESIAN_POINT('Ctrl Pts',(-25.405406990491,24.105685340046,-18.0999911680356));
#681=CARTESIAN_POINT('Ctrl Pts',(-25.4096681932041,24.2270639867851,-18.1229653257152));
#682=CARTESIAN_POINT('Ctrl Pts',(-25.4261043459703,24.4497671918128,-18.2159168407583));
#683=CARTESIAN_POINT('Ctrl Pts',(-25.4381567512944,24.5511062615038,-18.2858810577002));
#684=CARTESIAN_POINT('Ctrl Pts',(-25.4634291845064,24.7108842189808,-18.4470348138559));
#685=CARTESIAN_POINT('Ctrl Pts',(-25.478324998117,24.7799182026217,-18.5490581725748));
#686=CARTESIAN_POINT('Ctrl Pts',(-25.5062839685436,24.870835346149,-18.7724738114167));
#687=CARTESIAN_POINT('Ctrl Pts',(-25.5192237474506,24.8927101134481,-18.893884929243));
#688=CARTESIAN_POINT('Ctrl Pts',(-25.5291401500404,24.891724400345,-19.0077885235282));
#689=CARTESIAN_POINT('',(-29.4823305678265,23.0917580991363,-19.0000002831221));
#690=CARTESIAN_POINT('',(-85.,23.0917580991363,-19.0000002831221));
#691=CARTESIAN_POINT('Ctrl Pts',(-29.4823305678265,23.0917580991363,-19.0000002831221));
#692=CARTESIAN_POINT('Ctrl Pts',(-29.4823305678265,23.0917580991363,-19.1132776374407));
#693=CARTESIAN_POINT('Ctrl Pts',(-29.4779202817369,23.1144480794837,-19.2339256266438));
#694=CARTESIAN_POINT('Ctrl Pts',(-29.4620546472639,23.2063618739496,-19.4555732669171));
#695=CARTESIAN_POINT('Ctrl Pts',(-29.4508345330394,23.2755720521842,-19.5565953475469));
#696=CARTESIAN_POINT('Ctrl Pts',(-29.4297382868182,23.4350802731887,-19.7161257542564));
#697=CARTESIAN_POINT('Ctrl Pts',(-29.4184752435975,23.5361127125206,-19.7853575315463));
#698=CARTESIAN_POINT('Ctrl Pts',(-29.4022964994038,23.7577907684506,-19.8773018391842));
#699=CARTESIAN_POINT('Ctrl Pts',(-29.3975928909821,23.8784576552993,-19.9000002831221));
#700=CARTESIAN_POINT('Ctrl Pts',(-29.3967256468749,24.1049972821247,-19.9000002831221));
#701=CARTESIAN_POINT('Ctrl Pts',(-29.4005012539504,24.2256358116742,-19.8773237962583));
#702=CARTESIAN_POINT('Ctrl Pts',(-29.4149652034223,24.447298449675,-19.7854162968822));
#703=CARTESIAN_POINT('Ctrl Pts',(-29.4254409966949,24.5483417399597,-19.7161982215526));
#704=CARTESIAN_POINT('Ctrl Pts',(-29.4452894854621,24.7079032691993,-19.556657943278));
#705=CARTESIAN_POINT('Ctrl Pts',(-29.455963847059,24.7771374368633,-19.4556076952199));
#706=CARTESIAN_POINT('Ctrl Pts',(-29.4710986699508,24.8690711534738,-19.2339246029776));
#707=CARTESIAN_POINT('Ctrl Pts',(-29.4753253447643,24.8917580991363,-19.1132706332833));
#708=CARTESIAN_POINT('Ctrl Pts',(-29.4753253447643,24.8917580991363,-18.8867299329608));
#709=CARTESIAN_POINT('Ctrl Pts',(-29.4710986699508,24.8690711534738,-18.7660759632665));
#710=CARTESIAN_POINT('Ctrl Pts',(-29.455963847059,24.7771374368633,-18.5443928710243));
#711=CARTESIAN_POINT('Ctrl Pts',(-29.4452894854621,24.7079032691993,-18.4433426229662));
#712=CARTESIAN_POINT('Ctrl Pts',(-29.4254409966949,24.5483417399597,-18.2838023446916));
#713=CARTESIAN_POINT('Ctrl Pts',(-29.4149652034223,24.447298449675,-18.214584269362));
#714=CARTESIAN_POINT('Ctrl Pts',(-29.4005012539504,24.2256358116742,-18.1226767699858));
#715=CARTESIAN_POINT('Ctrl Pts',(-29.3967256468749,24.1049972821247,-18.1000002831221));
#716=CARTESIAN_POINT('Ctrl Pts',(-29.3975928909821,23.8784576552993,-18.1000002831221));
#717=CARTESIAN_POINT('Ctrl Pts',(-29.4022964994038,23.7577907684506,-18.1226987270599));
#718=CARTESIAN_POINT('Ctrl Pts',(-29.4184752435975,23.5361127125206,-18.2146430346978));
#719=CARTESIAN_POINT('Ctrl Pts',(-29.4297382868182,23.4350802731887,-18.2838748119877));
#720=CARTESIAN_POINT('Ctrl Pts',(-29.4508345330394,23.2755720521842,-18.4434052186972));
#721=CARTESIAN_POINT('Ctrl Pts',(-29.4620546472639,23.2063618739496,-18.544427299327));
#722=CARTESIAN_POINT('Ctrl Pts',(-29.4779202817369,23.1144480794837,-18.7660749396003));
#723=CARTESIAN_POINT('Ctrl Pts',(-29.4823305678265,23.0917580991363,-18.8867229288035));
#724=CARTESIAN_POINT('Ctrl Pts',(-29.4823305678265,23.0917580991363,-19.0000002831221));
#725=CARTESIAN_POINT('Origin',(-85.,23.9917580991363,-19.0000002831221));
#726=CARTESIAN_POINT('',(-39.3119144598763,23.0917580991363,-19.0000002831221));
#727=CARTESIAN_POINT('',(-39.3971225138514,24.0108990716149,-18.1002038488256));
#728=CARTESIAN_POINT('Ctrl Pts',(-39.3119144598763,23.0917580991363,-19.0000002831221));
#729=CARTESIAN_POINT('Ctrl Pts',(-39.3119144598763,23.0917580991363,-18.8867229288035));
#730=CARTESIAN_POINT('Ctrl Pts',(-39.3163247459659,23.1144480794837,-18.7660749396003));
#731=CARTESIAN_POINT('Ctrl Pts',(-39.332190380439,23.2063618739496,-18.544427299327));
#732=CARTESIAN_POINT('Ctrl Pts',(-39.3434104946635,23.2755720521842,-18.4434052186972));
#733=CARTESIAN_POINT('Ctrl Pts',(-39.3645067408847,23.4350802731887,-18.2838748119877));
#734=CARTESIAN_POINT('Ctrl Pts',(-39.3757697841054,23.5361127125206,-18.2146430346978));
#735=CARTESIAN_POINT('Ctrl Pts',(-39.3919485282991,23.7577907684506,-18.1226987270599));
#736=CARTESIAN_POINT('Ctrl Pts',(-39.3966521367207,23.8784576552993,-18.1000002831221));
#737=CARTESIAN_POINT('Ctrl Pts',(-39.3971102156112,23.998116030642,-18.1000002831221));
#738=CARTESIAN_POINT('Ctrl Pts',(-39.3971225138514,24.0044973837502,-18.1000676685447));
#739=CARTESIAN_POINT('Ctrl Pts',(-39.3971225138514,24.0108990716149,-18.1002038488256));
#740=CARTESIAN_POINT('',(-43.4698884386264,23.0917580991363,-19.0000002681867));
#741=CARTESIAN_POINT('',(-85.,23.0917580991363,-19.0000002831221));
#742=CARTESIAN_POINT('',(-43.5944895197813,24.0000003680601,-18.100038025674));
#743=CARTESIAN_POINT('Ctrl Pts',(-43.5944895197897,24.000000368061,-18.1000380255785));
#744=CARTESIAN_POINT('Ctrl Pts',(-43.5944917437794,23.9972247617103,-18.1000126052969));
#745=CARTESIAN_POINT('Ctrl Pts',(-43.5944915702136,23.9944532601788,-18.1000000646771));
#746=CARTESIAN_POINT('Ctrl Pts',(-43.594383994659,23.8776761792592,-18.1000094048227));
#747=CARTESIAN_POINT('Ctrl Pts',(-43.589898458213,23.7562986821295,-18.1230066964937));
#748=CARTESIAN_POINT('Ctrl Pts',(-43.573050775651,23.5336138475531,-18.2159959916908));
#749=CARTESIAN_POINT('Ctrl Pts',(-43.560811149024,23.4322916715467,-18.2859746172758));
#750=CARTESIAN_POINT('Ctrl Pts',(-43.535243660014,23.2725489400893,-18.4471444009846));
#751=CARTESIAN_POINT('Ctrl Pts',(-43.5202198583533,23.2035319897592,-18.5491736413069));
#752=CARTESIAN_POINT('Ctrl Pts',(-43.4924171370496,23.1137009252697,-18.7700128286326));
#753=CARTESIAN_POINT('Ctrl Pts',(-43.479702440497,23.0917581010025,-18.8883963507908));
#754=CARTESIAN_POINT('Ctrl Pts',(-43.4698884373231,23.0917580991363,-19.000000268072));
#755=CARTESIAN_POINT('',(-43.4708608781397,24.891724400345,-19.0077885235282));
#756=CARTESIAN_POINT('Ctrl Pts',(-43.4708608781397,24.891724400345,-19.0077885235282));
#757=CARTESIAN_POINT('Ctrl Pts',(-43.4807772807295,24.8927101134481,-18.893884929243));
#758=CARTESIAN_POINT('Ctrl Pts',(-43.4937170596365,24.870835346149,-18.7724738114167));
#759=CARTESIAN_POINT('Ctrl Pts',(-43.5216760300632,24.7799182026217,-18.5490581725748));
#760=CARTESIAN_POINT('Ctrl Pts',(-43.5365718436737,24.7108842189808,-18.4470348138559));
#761=CARTESIAN_POINT('Ctrl Pts',(-43.5618442768858,24.5511062615038,-18.2858810577002));
#762=CARTESIAN_POINT('Ctrl Pts',(-43.5738966822098,24.4497671918128,-18.2159168407583));
#763=CARTESIAN_POINT('Ctrl Pts',(-43.5901333545607,24.2297668655221,-18.1240934490108));
#764=CARTESIAN_POINT('Ctrl Pts',(-43.594400121167,24.1115725535162,-18.1010598550489));
#765=CARTESIAN_POINT('Ctrl Pts',(-43.5944895197897,24.000000368061,-18.1000380255785));
#766=CARTESIAN_POINT('',(-43.4370165295245,24.0000003674229,-19.8999625405818));
#767=CARTESIAN_POINT('Ctrl Pts',(-43.4370165295245,24.000000377218,-19.8999625405818));
#768=CARTESIAN_POINT('Ctrl Pts',(-43.4371046646439,24.1099960084527,-19.8989551488019));
#769=CARTESIAN_POINT('Ctrl Pts',(-43.436836327028,24.2267673111993,-19.8765496030118));
#770=CARTESIAN_POINT('Ctrl Pts',(-43.4365371147589,24.4448504806624,-19.7867382326249));
#771=CARTESIAN_POINT('Ctrl Pts',(-43.4366283304789,24.5457067203816,-19.7181686097461));
#772=CARTESIAN_POINT('Ctrl Pts',(-43.4393411470678,24.7053628277651,-19.5598415503627));
#773=CARTESIAN_POINT('Ctrl Pts',(-43.4421687712013,24.7747981085829,-19.4594519851168));
#774=CARTESIAN_POINT('Ctrl Pts',(-43.4529900873779,24.8674911478642,-19.2394562584882));
#775=CARTESIAN_POINT('Ctrl Pts',(-43.4611041171455,24.8907545559818,-19.1198584133659));
#776=CARTESIAN_POINT('Ctrl Pts',(-43.4708608781397,24.891724400345,-19.0077885235282));
#777=CARTESIAN_POINT('Ctrl Pts',(-43.4698884373231,23.0917580991363,-19.000000268072));
#778=CARTESIAN_POINT('Ctrl Pts',(-43.4696555852884,23.091758099092,-19.0026482394205));
#779=CARTESIAN_POINT('Ctrl Pts',(-43.4694242529697,23.0917697856879,-19.0052923845897));
#780=CARTESIAN_POINT('Ctrl Pts',(-43.4594398829673,23.0927807882162,-19.1199978260628));
#781=CARTESIAN_POINT('Ctrl Pts',(-43.4513694577925,23.1160618324291,-19.2395895706888));
#782=CARTESIAN_POINT('Ctrl Pts',(-43.4407210821253,23.2087860023336,-19.4595671010794));
#783=CARTESIAN_POINT('Ctrl Pts',(-43.4380227148631,23.2782347405989,-19.5599446754869));
#784=CARTESIAN_POINT('Ctrl Pts',(-43.4356060108518,23.4379144555485,-19.7182502800602));
#785=CARTESIAN_POINT('Ctrl Pts',(-43.4357015184648,23.538783146556,-19.786806189753));
#786=CARTESIAN_POINT('Ctrl Pts',(-43.4364120185961,23.7595551763873,-19.8776856739028));
#787=CARTESIAN_POINT('Ctrl Pts',(-43.4369059762317,23.8794588800601,-19.900009267995));
#788=CARTESIAN_POINT('Ctrl Pts',(-43.4370119979158,23.9945491794777,-19.9000000627627));
#789=CARTESIAN_POINT('Ctrl Pts',(-43.4370143439389,23.9972726919295,-19.8999875220079));
#790=CARTESIAN_POINT('Ctrl Pts',(-43.4370165295245,24.000000377218,-19.8999625405818));
#791=CARTESIAN_POINT('',(-39.3971225138514,24.0108990716149,-19.8997967174185));
#792=CARTESIAN_POINT('Ctrl Pts',(-39.3971225138514,24.0108990716149,-19.8997967174185));
#793=CARTESIAN_POINT('Ctrl Pts',(-39.3971225138514,24.0044973837502,-19.8999328976995));
#794=CARTESIAN_POINT('Ctrl Pts',(-39.3971102156112,23.998116030642,-19.9000002831221));
#795=CARTESIAN_POINT('Ctrl Pts',(-39.3966521367207,23.8784576552993,-19.9000002831221));
#796=CARTESIAN_POINT('Ctrl Pts',(-39.3919485282991,23.7577907684506,-19.8773018391842));
#797=CARTESIAN_POINT('Ctrl Pts',(-39.3757697841054,23.5361127125206,-19.7853575315463));
#798=CARTESIAN_POINT('Ctrl Pts',(-39.3645067408847,23.4350802731887,-19.7161257542564));
#799=CARTESIAN_POINT('Ctrl Pts',(-39.3434104946635,23.2755720521842,-19.5565953475469));
#800=CARTESIAN_POINT('Ctrl Pts',(-39.332190380439,23.2063618739496,-19.4555732669171));
#801=CARTESIAN_POINT('Ctrl Pts',(-39.3163247459659,23.1144480794837,-19.2339256266439));
#802=CARTESIAN_POINT('Ctrl Pts',(-39.3119144598763,23.0917580991363,-19.1132776374407));
#803=CARTESIAN_POINT('Ctrl Pts',(-39.3119144598763,23.0917580991363,-19.0000002831221));
#804=CARTESIAN_POINT('Ctrl Pts',(-39.3971225138514,24.0108990716149,-18.1002038488256));
#805=CARTESIAN_POINT('Ctrl Pts',(-39.3971225138514,24.1185158979298,-18.102493134082));
#806=CARTESIAN_POINT('Ctrl Pts',(-39.3933377270219,24.2318585511563,-18.1252568909761));
#807=CARTESIAN_POINT('Ctrl Pts',(-39.3792798242806,24.447298449675,-18.214584269362));
#808=CARTESIAN_POINT('Ctrl Pts',(-39.368804031008,24.5483417399597,-18.2838023446916));
#809=CARTESIAN_POINT('Ctrl Pts',(-39.3489555422408,24.7079032691993,-18.4433426229662));
#810=CARTESIAN_POINT('Ctrl Pts',(-39.3382811806439,24.7771374368633,-18.5443928710243));
#811=CARTESIAN_POINT('Ctrl Pts',(-39.3231463577521,24.8690711534738,-18.7660759632665));
#812=CARTESIAN_POINT('Ctrl Pts',(-39.3189196829386,24.8917580991363,-18.8867299329608));
#813=CARTESIAN_POINT('Ctrl Pts',(-39.3189196829386,24.8917580991363,-19.1132706332833));
#814=CARTESIAN_POINT('Ctrl Pts',(-39.3231463577521,24.8690711534738,-19.2339246029776));
#815=CARTESIAN_POINT('Ctrl Pts',(-39.3382811806439,24.7771374368633,-19.4556076952199));
#816=CARTESIAN_POINT('Ctrl Pts',(-39.3489555422408,24.7079032691993,-19.556657943278));
#817=CARTESIAN_POINT('Ctrl Pts',(-39.368804031008,24.5483417399597,-19.7161982215526));
#818=CARTESIAN_POINT('Ctrl Pts',(-39.3792798242806,24.447298449675,-19.7854162968822));
#819=CARTESIAN_POINT('Ctrl Pts',(-39.3933377270219,24.2318585511563,-19.874743675268));
#820=CARTESIAN_POINT('Ctrl Pts',(-39.3971225138514,24.1185158979298,-19.8975074321622));
#821=CARTESIAN_POINT('Ctrl Pts',(-39.3971225138514,24.0108990716149,-19.8997967174185));
#822=CARTESIAN_POINT('Origin',(-34.5000005140901,24.0000003576279,-26.25));
#823=CARTESIAN_POINT('',(-42.8700225296831,24.0000003576279,-26.3807336141215));
#824=CARTESIAN_POINT('Origin',(-34.5000005140901,24.0000003576279,-26.3807336141215));
#825=CARTESIAN_POINT('',(-41.3757304825454,24.0000003576279,-27.75));
#826=CARTESIAN_POINT('Origin',(-41.3757304825454,24.0000003576279,-26.25));
#827=CARTESIAN_POINT('Origin',(-34.5000005140901,24.0000003576279,-27.75));
#828=CARTESIAN_POINT('Origin',(-34.5000005140901,24.0000003576279,-27.75));
#829=CARTESIAN_POINT('',(-40.8971225138514,24.0108990716149,-27.75));
#830=CARTESIAN_POINT('Origin',(-34.3971225138514,24.0108990716149,-27.75));
#831=CARTESIAN_POINT('Origin',(-34.5000005140901,24.0000003576279,-7.75));
#832=CARTESIAN_POINT('',(-44.5000005140901,24.0000003576279,-7.75));
#833=CARTESIAN_POINT('',(-44.5000005140901,24.0000003576279,-7.75));
#834=CARTESIAN_POINT('Origin',(-34.3971225138514,24.0108990716149,-26.25));
#835=CARTESIAN_POINT('',(-39.3971225138514,24.0108990716149,-26.25));
#836=CARTESIAN_POINT('Origin',(-40.8971225138514,24.0108990716149,-26.25));
#837=CARTESIAN_POINT('Origin',(-34.3971225138514,24.0108990716149,-26.25));
#838=CARTESIAN_POINT('Origin',(-34.3971225138514,24.0108990716149,0.));
#839=CARTESIAN_POINT('',(-39.3971225138514,24.0108990716149,0.));
#840=CARTESIAN_POINT('',(-39.3971225138514,24.0108990716149,0.));
#841=CARTESIAN_POINT('Origin',(-46.,20.0000000968575,6.00000000745058));
#842=UNCERTAINTY_MEASURE_WITH_UNIT(LENGTH_MEASURE(0.01),#846,
'DISTANCE_ACCURACY_VALUE',
'Maximum model space distance between geometric entities at asserted c
onnectivities');
#843=UNCERTAINTY_MEASURE_WITH_UNIT(LENGTH_MEASURE(0.01),#846,
'DISTANCE_ACCURACY_VALUE',
'Maximum model space distance between geometric entities at asserted c
onnectivities');
#844=(
GEOMETRIC_REPRESENTATION_CONTEXT(3)
GLOBAL_UNCERTAINTY_ASSIGNED_CONTEXT((#842))
GLOBAL_UNIT_ASSIGNED_CONTEXT((#846,#848,#849))
REPRESENTATION_CONTEXT('','3D')
);
#845=(
GEOMETRIC_REPRESENTATION_CONTEXT(3)
GLOBAL_UNCERTAINTY_ASSIGNED_CONTEXT((#843))
GLOBAL_UNIT_ASSIGNED_CONTEXT((#846,#848,#849))
REPRESENTATION_CONTEXT('','3D')
);
#846=(
LENGTH_UNIT()
NAMED_UNIT(*)
SI_UNIT(.MILLI.,.METRE.)
);
#847=(
LENGTH_UNIT()
NAMED_UNIT(*)
SI_UNIT($,.METRE.)
);
#848=(
NAMED_UNIT(*)
PLANE_ANGLE_UNIT()
SI_UNIT($,.RADIAN.)
);
#849=(
NAMED_UNIT(*)
SI_UNIT($,.STERADIAN.)
SOLID_ANGLE_UNIT()
);
#850=SHAPE_DEFINITION_REPRESENTATION(#851,#852);
#851=PRODUCT_DEFINITION_SHAPE('',$,#854);
#852=SHAPE_REPRESENTATION('',(#442),#844);
#853=PRODUCT_DEFINITION_CONTEXT('part definition',#858,'design');
#854=PRODUCT_DEFINITION('(Unsaved)','(Unsaved)',#855,#853);
#855=PRODUCT_DEFINITION_FORMATION('',$,#860);
#856=PRODUCT_RELATED_PRODUCT_CATEGORY('(Unsaved)','(Unsaved)',(#860));
#857=APPLICATION_PROTOCOL_DEFINITION('international standard',
'automotive_design',2009,#858);
#858=APPLICATION_CONTEXT(
'Core Data for Automotive Mechanical Design Process');
#859=PRODUCT_CONTEXT('part definition',#858,'mechanical');
#860=PRODUCT('(Unsaved)','(Unsaved)',$,(#859));
#861=PRESENTATION_STYLE_ASSIGNMENT((#862));
#862=SURFACE_STYLE_USAGE(.BOTH.,#863);
#863=SURFACE_SIDE_STYLE('',(#864));
#864=SURFACE_STYLE_FILL_AREA(#865);
#865=FILL_AREA_STYLE('Steel - Satin',(#866));
#866=FILL_AREA_STYLE_COLOUR('Steel - Satin',#867);
#867=COLOUR_RGB('Steel - Satin',0.627450980392157,0.627450980392157,0.627450980392157);
ENDSEC;
END-ISO-10303-21;
