ISO-10303-21;
HEADER;
/* Generated by software containing ST-Developer
 * from STEP Tools, Inc. (www.steptools.com) 
 */

FILE_DESCRIPTION(
/* description */ (''),
/* implementation_level */ '2;1');

FILE_NAME(
/* name */ 'shell45.step',
/* time_stamp */ '2026-07-02T14:48:00+05:30',
/* author */ (''),
/* organization */ (''),
/* preprocessor_version */ 'ST-DEVELOPER v20.1',
/* originating_system */ 'Autodesk Translation Framework v15.8.0.0',
/* authorisation */ '');

FILE_SCHEMA (('AUTOMOTIVE_DESIGN { 1 0 10303 214 3 1 1 }'));
ENDSEC;

DATA;
#10=MECHANICAL_DESIGN_GEOMETRIC_PRESENTATION_REPRESENTATION('',(#13),#829);
#11=SHAPE_REPRESENTATION_RELATIONSHIP('SRR','None',#836,#12);
#12=ADVANCED_BREP_SHAPE_REPRESENTATION('',(#14),#828);
#13=STYLED_ITEM('',(#845),#14);
#14=MANIFOLD_SOLID_BREP('Body1',#421);
#15=CONICAL_SURFACE('',#455,10.,0.0872664625997165);
#16=TOROIDAL_SURFACE('',#450,6.87572996845538,1.5);
#17=B_SPLINE_CURVE_WITH_KNOTS('',3,(#635,#636,#637,#638,#639,#640,#641,
#642,#643,#644,#645,#646,#647,#648,#649,#650,#651,#652,#653,#654,#655,#656,
#657,#658,#659,#660,#661,#662,#663,#664,#665,#666,#667,#668),
 .UNSPECIFIED.,.F.,.F.,(4,2,2,2,2,2,2,2,2,2,2,2,2,2,2,2,4),(0.,0.0337501728301483,
0.0675003456602966,0.101211938044876,0.134923530429454,0.168635345319753,
0.202347160210051,0.236096970859727,0.269846781509403,0.304148491100815,
0.338450200692227,0.372650567270114,0.406850933848001,0.441050454050281,
0.475249974252561,0.509550987908788,0.543069851395372),.UNSPECIFIED.);
#18=B_SPLINE_CURVE_WITH_KNOTS('',3,(#669,#670,#671,#672),.UNSPECIFIED.,
 .F.,.F.,(4,4),(0.543069851395372,0.543852001565015),.UNSPECIFIED.);
#19=B_SPLINE_CURVE_WITH_KNOTS('',3,(#675,#676,#677,#678,#679,#680,#681,
#682,#683,#684,#685,#686,#687,#688,#689,#690,#691,#692,#693,#694,#695,#696,
#697,#698,#699,#700,#701,#702,#703,#704,#705,#706,#707,#708),
 .UNSPECIFIED.,.T.,.F.,(4,2,2,2,2,2,2,2,2,2,2,2,2,2,2,2,4),(0.,0.033980537998853,
0.0679610759977061,0.101928581578523,0.135896087159341,0.169891686533834,
0.203887285908327,0.237871036025741,0.271854786143154,0.305838536260567,
0.339822286377981,0.373817885752474,0.407813485126967,0.441780990707785,
0.475748496288602,0.509729034287455,0.543709572286308),.UNSPECIFIED.);
#20=B_SPLINE_CURVE_WITH_KNOTS('',3,(#712,#713,#714,#715,#716,#717,#718,
#719,#720,#721),.UNSPECIFIED.,.F.,.F.,(4,2,2,2,4),(0.,0.033980537998853,
0.0679610759977061,0.101928581578523,0.132985498101314),.UNSPECIFIED.);
#21=B_SPLINE_CURVE_WITH_KNOTS('',3,(#725,#726,#727,#728),.UNSPECIFIED.,
 .F.,.F.,(4,4),(0.,0.000782150169641951),.UNSPECIFIED.);
#22=B_SPLINE_CURVE_WITH_KNOTS('',3,(#730,#731,#732,#733,#734,#735,#736,
#737,#738,#739),.UNSPECIFIED.,.F.,.F.,(4,2,2,2,4),(0.409145188202593,0.442640063520139,
0.476351655904718,0.510101828734866,0.543852001565015),.UNSPECIFIED.);
#23=B_SPLINE_CURVE_WITH_KNOTS('',3,(#741,#742,#743,#744,#745,#746,#747,
#748,#749,#750,#751,#752,#753,#754,#755,#756,#757,#758,#759,#760,#761,#762),
 .UNSPECIFIED.,.F.,.F.,(4,2,2,2,2,2,2,2,2,2,4),(0.136780547460437,0.137001067717013,
0.1712014342949,0.205401800872788,0.2397035104642,0.274005220055612,0.307755030705288,
0.341504841354964,0.375216656245262,0.40892847113556,0.409145188202593),
 .UNSPECIFIED.);
#24=B_SPLINE_CURVE_WITH_KNOTS('',3,(#763,#764,#765,#766,#767,#768,#769,
#770,#771,#772),.UNSPECIFIED.,.F.,.F.,(4,2,2,2,4),(0.000782150169641951,
0.0343010136562269,0.0686020273124538,0.102801547514734,0.136780547460437),
 .UNSPECIFIED.);
#25=B_SPLINE_CURVE_WITH_KNOTS('',3,(#774,#775,#776,#777,#778,#779,#780,
#781,#782,#783),.UNSPECIFIED.,.F.,.F.,(4,2,2,2,4),(0.410724074184993,0.441780990707785,
0.475748496288602,0.509729034287455,0.543709572286308),.UNSPECIFIED.);
#26=B_SPLINE_CURVE_WITH_KNOTS('',3,(#784,#785,#786,#787,#788,#789,#790,
#791,#792,#793,#794,#795,#796,#797,#798,#799,#800,#801,#802,#803,#804,#805),
 .UNSPECIFIED.,.F.,.F.,(4,2,2,2,2,2,2,2,2,2,4),(0.132985498101314,0.135896087159341,
0.169891686533834,0.203887285908327,0.237871036025741,0.271854786143154,
0.305838536260567,0.339822286377981,0.373817885752474,0.407813485126967,
0.410724074184993),.UNSPECIFIED.);
#27=CYLINDRICAL_SURFACE('',#447,0.9);
#28=CYLINDRICAL_SURFACE('',#448,0.9);
#29=CYLINDRICAL_SURFACE('',#458,5.);
#30=FACE_BOUND('',#65,.T.);
#31=FACE_BOUND('',#67,.T.);
#32=FACE_BOUND('',#69,.T.);
#33=FACE_BOUND('',#80,.T.);
#34=FACE_BOUND('',#82,.T.);
#35=FACE_BOUND('',#84,.T.);
#36=CIRCLE('',#438,5.);
#37=CIRCLE('',#440,10.);
#38=CIRCLE('',#451,8.370022015593);
#39=CIRCLE('',#452,1.5);
#40=CIRCLE('',#453,6.87572996845538);
#41=CIRCLE('',#454,8.370022015593);
#42=CIRCLE('',#457,5.);
#43=FACE_OUTER_BOUND('',#62,.T.);
#44=FACE_OUTER_BOUND('',#63,.T.);
#45=FACE_OUTER_BOUND('',#64,.T.);
#46=FACE_OUTER_BOUND('',#66,.T.);
#47=FACE_OUTER_BOUND('',#68,.T.);
#48=FACE_OUTER_BOUND('',#70,.T.);
#49=FACE_OUTER_BOUND('',#71,.T.);
#50=FACE_OUTER_BOUND('',#72,.T.);
#51=FACE_OUTER_BOUND('',#73,.T.);
#52=FACE_OUTER_BOUND('',#74,.T.);
#53=FACE_OUTER_BOUND('',#75,.T.);
#54=FACE_OUTER_BOUND('',#76,.T.);
#55=FACE_OUTER_BOUND('',#77,.T.);
#56=FACE_OUTER_BOUND('',#78,.T.);
#57=FACE_OUTER_BOUND('',#79,.T.);
#58=FACE_OUTER_BOUND('',#81,.T.);
#59=FACE_OUTER_BOUND('',#83,.T.);
#60=FACE_OUTER_BOUND('',#85,.T.);
#61=FACE_OUTER_BOUND('',#86,.T.);
#62=EDGE_LOOP('',(#270,#271,#272,#273));
#63=EDGE_LOOP('',(#274,#275,#276,#277));
#64=EDGE_LOOP('',(#278,#279,#280,#281,#282,#283,#284,#285));
#65=EDGE_LOOP('',(#286));
#66=EDGE_LOOP('',(#287,#288,#289,#290,#291,#292,#293,#294));
#67=EDGE_LOOP('',(#295));
#68=EDGE_LOOP('',(#296,#297,#298,#299));
#69=EDGE_LOOP('',(#300,#301,#302,#303));
#70=EDGE_LOOP('',(#304,#305,#306,#307));
#71=EDGE_LOOP('',(#308,#309,#310,#311,#312,#313,#314,#315));
#72=EDGE_LOOP('',(#316,#317,#318,#319));
#73=EDGE_LOOP('',(#320,#321,#322,#323,#324,#325,#326,#327));
#74=EDGE_LOOP('',(#328,#329,#330,#331));
#75=EDGE_LOOP('',(#332,#333,#334,#335,#336));
#76=EDGE_LOOP('',(#337,#338,#339,#340,#341,#342,#343,#344,#345));
#77=EDGE_LOOP('',(#346,#347,#348,#349));
#78=EDGE_LOOP('',(#350,#351,#352,#353,#354));
#79=EDGE_LOOP('',(#355,#356,#357,#358,#359,#360,#361,#362,#363,#364,#365));
#80=EDGE_LOOP('',(#366,#367));
#81=EDGE_LOOP('',(#368));
#82=EDGE_LOOP('',(#369));
#83=EDGE_LOOP('',(#370,#371,#372,#373,#374,#375,#376,#377,#378));
#84=EDGE_LOOP('',(#379));
#85=EDGE_LOOP('',(#380,#381,#382,#383));
#86=EDGE_LOOP('',(#384,#385,#386,#387));
#87=LINE('',#561,#129);
#88=LINE('',#563,#130);
#89=LINE('',#565,#131);
#90=LINE('',#566,#132);
#91=LINE('',#569,#133);
#92=LINE('',#571,#134);
#93=LINE('',#572,#135);
#94=LINE('',#575,#136);
#95=LINE('',#577,#137);
#96=LINE('',#579,#138);
#97=LINE('',#581,#139);
#98=LINE('',#583,#140);
#99=LINE('',#584,#141);
#100=LINE('',#589,#142);
#101=LINE('',#591,#143);
#102=LINE('',#593,#144);
#103=LINE('',#595,#145);
#104=LINE('',#597,#146);
#105=LINE('',#598,#147);
#106=LINE('',#602,#148);
#107=LINE('',#603,#149);
#108=LINE('',#606,#150);
#109=LINE('',#608,#151);
#110=LINE('',#610,#152);
#111=LINE('',#611,#153);
#112=LINE('',#614,#154);
#113=LINE('',#616,#155);
#114=LINE('',#617,#156);
#115=LINE('',#619,#157);
#116=LINE('',#620,#158);
#117=LINE('',#622,#159);
#118=LINE('',#623,#160);
#119=LINE('',#626,#161);
#120=LINE('',#627,#162);
#121=LINE('',#629,#163);
#122=LINE('',#630,#164);
#123=LINE('',#674,#165);
#124=LINE('',#723,#166);
#125=LINE('',#816,#167);
#126=LINE('',#817,#168);
#127=LINE('',#822,#169);
#128=LINE('',#823,#170);
#129=VECTOR('',#465,10.);
#130=VECTOR('',#466,10.);
#131=VECTOR('',#467,10.);
#132=VECTOR('',#468,10.);
#133=VECTOR('',#471,10.);
#134=VECTOR('',#472,10.);
#135=VECTOR('',#473,10.);
#136=VECTOR('',#476,10.);
#137=VECTOR('',#477,10.);
#138=VECTOR('',#478,10.);
#139=VECTOR('',#479,10.);
#140=VECTOR('',#480,10.);
#141=VECTOR('',#481,10.);
#142=VECTOR('',#486,10.);
#143=VECTOR('',#487,10.);
#144=VECTOR('',#488,10.);
#145=VECTOR('',#489,10.);
#146=VECTOR('',#490,10.);
#147=VECTOR('',#491,10.);
#148=VECTOR('',#496,10.);
#149=VECTOR('',#497,10.);
#150=VECTOR('',#498,10.);
#151=VECTOR('',#499,10.);
#152=VECTOR('',#500,10.);
#153=VECTOR('',#501,10.);
#154=VECTOR('',#504,10.);
#155=VECTOR('',#505,10.);
#156=VECTOR('',#506,10.);
#157=VECTOR('',#509,10.);
#158=VECTOR('',#510,10.);
#159=VECTOR('',#511,10.);
#160=VECTOR('',#512,10.);
#161=VECTOR('',#515,10.);
#162=VECTOR('',#516,10.);
#163=VECTOR('',#519,10.);
#164=VECTOR('',#520,10.);
#165=VECTOR('',#525,0.9);
#166=VECTOR('',#528,0.9);
#167=VECTOR('',#543,10.);
#168=VECTOR('',#544,10.);
#169=VECTOR('',#551,5.);
#170=VECTOR('',#552,5.);
#171=VERTEX_POINT('',#559);
#172=VERTEX_POINT('',#560);
#173=VERTEX_POINT('',#562);
#174=VERTEX_POINT('',#564);
#175=VERTEX_POINT('',#568);
#176=VERTEX_POINT('',#570);
#177=VERTEX_POINT('',#574);
#178=VERTEX_POINT('',#576);
#179=VERTEX_POINT('',#578);
#180=VERTEX_POINT('',#580);
#181=VERTEX_POINT('',#582);
#182=VERTEX_POINT('',#585);
#183=VERTEX_POINT('',#588);
#184=VERTEX_POINT('',#590);
#185=VERTEX_POINT('',#592);
#186=VERTEX_POINT('',#594);
#187=VERTEX_POINT('',#596);
#188=VERTEX_POINT('',#599);
#189=VERTEX_POINT('',#604);
#190=VERTEX_POINT('',#605);
#191=VERTEX_POINT('',#607);
#192=VERTEX_POINT('',#609);
#193=VERTEX_POINT('',#613);
#194=VERTEX_POINT('',#615);
#195=VERTEX_POINT('',#621);
#196=VERTEX_POINT('',#625);
#197=VERTEX_POINT('',#633);
#198=VERTEX_POINT('',#634);
#199=VERTEX_POINT('',#673);
#200=VERTEX_POINT('',#710);
#201=VERTEX_POINT('',#711);
#202=VERTEX_POINT('',#722);
#203=VERTEX_POINT('',#724);
#204=VERTEX_POINT('',#729);
#205=VERTEX_POINT('',#740);
#206=VERTEX_POINT('',#773);
#207=VERTEX_POINT('',#808);
#208=VERTEX_POINT('',#809);
#209=VERTEX_POINT('',#811);
#210=VERTEX_POINT('',#819);
#211=EDGE_CURVE('',#171,#172,#87,.T.);
#212=EDGE_CURVE('',#173,#171,#88,.T.);
#213=EDGE_CURVE('',#174,#173,#89,.T.);
#214=EDGE_CURVE('',#172,#174,#90,.T.);
#215=EDGE_CURVE('',#171,#175,#91,.T.);
#216=EDGE_CURVE('',#176,#175,#92,.T.);
#217=EDGE_CURVE('',#176,#173,#93,.T.);
#218=EDGE_CURVE('',#172,#177,#94,.T.);
#219=EDGE_CURVE('',#177,#178,#95,.T.);
#220=EDGE_CURVE('',#178,#179,#96,.T.);
#221=EDGE_CURVE('',#180,#179,#97,.T.);
#222=EDGE_CURVE('',#181,#180,#98,.T.);
#223=EDGE_CURVE('',#175,#181,#99,.T.);
#224=EDGE_CURVE('',#182,#182,#36,.T.);
#225=EDGE_CURVE('',#176,#183,#100,.T.);
#226=EDGE_CURVE('',#183,#184,#101,.T.);
#227=EDGE_CURVE('',#185,#184,#102,.T.);
#228=EDGE_CURVE('',#185,#186,#103,.F.);
#229=EDGE_CURVE('',#186,#187,#104,.T.);
#230=EDGE_CURVE('',#187,#174,#105,.T.);
#231=EDGE_CURVE('',#188,#188,#37,.T.);
#232=EDGE_CURVE('',#187,#177,#106,.T.);
#233=EDGE_CURVE('',#178,#186,#107,.T.);
#234=EDGE_CURVE('',#189,#190,#108,.T.);
#235=EDGE_CURVE('',#191,#189,#109,.T.);
#236=EDGE_CURVE('',#192,#191,#110,.T.);
#237=EDGE_CURVE('',#190,#192,#111,.T.);
#238=EDGE_CURVE('',#192,#193,#112,.T.);
#239=EDGE_CURVE('',#194,#193,#113,.T.);
#240=EDGE_CURVE('',#190,#194,#114,.T.);
#241=EDGE_CURVE('',#194,#184,#115,.T.);
#242=EDGE_CURVE('',#183,#181,#116,.T.);
#243=EDGE_CURVE('',#180,#195,#117,.T.);
#244=EDGE_CURVE('',#195,#189,#118,.T.);
#245=EDGE_CURVE('',#191,#196,#119,.T.);
#246=EDGE_CURVE('',#193,#196,#120,.T.);
#247=EDGE_CURVE('',#196,#195,#121,.T.);
#248=EDGE_CURVE('',#179,#185,#122,.T.);
#249=EDGE_CURVE('',#197,#198,#17,.T.);
#250=EDGE_CURVE('',#198,#197,#18,.T.);
#251=EDGE_CURVE('',#198,#199,#123,.T.);
#252=EDGE_CURVE('',#199,#199,#19,.T.);
#253=EDGE_CURVE('',#200,#201,#20,.T.);
#254=EDGE_CURVE('',#200,#202,#124,.T.);
#255=EDGE_CURVE('',#203,#202,#21,.T.);
#256=EDGE_CURVE('',#204,#203,#22,.T.);
#257=EDGE_CURVE('',#205,#204,#23,.T.);
#258=EDGE_CURVE('',#202,#205,#24,.T.);
#259=EDGE_CURVE('',#206,#200,#25,.T.);
#260=EDGE_CURVE('',#201,#206,#26,.T.);
#261=EDGE_CURVE('',#207,#208,#38,.T.);
#262=EDGE_CURVE('',#208,#209,#39,.T.);
#263=EDGE_CURVE('',#209,#209,#40,.T.);
#264=EDGE_CURVE('',#208,#207,#41,.T.);
#265=EDGE_CURVE('',#207,#204,#125,.T.);
#266=EDGE_CURVE('',#205,#188,#126,.T.);
#267=EDGE_CURVE('',#210,#210,#42,.T.);
#268=EDGE_CURVE('',#182,#206,#127,.T.);
#269=EDGE_CURVE('',#201,#210,#128,.T.);
#270=ORIENTED_EDGE('',*,*,#211,.F.);
#271=ORIENTED_EDGE('',*,*,#212,.F.);
#272=ORIENTED_EDGE('',*,*,#213,.F.);
#273=ORIENTED_EDGE('',*,*,#214,.F.);
#274=ORIENTED_EDGE('',*,*,#212,.T.);
#275=ORIENTED_EDGE('',*,*,#215,.T.);
#276=ORIENTED_EDGE('',*,*,#216,.F.);
#277=ORIENTED_EDGE('',*,*,#217,.T.);
#278=ORIENTED_EDGE('',*,*,#211,.T.);
#279=ORIENTED_EDGE('',*,*,#218,.T.);
#280=ORIENTED_EDGE('',*,*,#219,.T.);
#281=ORIENTED_EDGE('',*,*,#220,.T.);
#282=ORIENTED_EDGE('',*,*,#221,.F.);
#283=ORIENTED_EDGE('',*,*,#222,.F.);
#284=ORIENTED_EDGE('',*,*,#223,.F.);
#285=ORIENTED_EDGE('',*,*,#215,.F.);
#286=ORIENTED_EDGE('',*,*,#224,.F.);
#287=ORIENTED_EDGE('',*,*,#213,.T.);
#288=ORIENTED_EDGE('',*,*,#217,.F.);
#289=ORIENTED_EDGE('',*,*,#225,.T.);
#290=ORIENTED_EDGE('',*,*,#226,.T.);
#291=ORIENTED_EDGE('',*,*,#227,.F.);
#292=ORIENTED_EDGE('',*,*,#228,.T.);
#293=ORIENTED_EDGE('',*,*,#229,.T.);
#294=ORIENTED_EDGE('',*,*,#230,.T.);
#295=ORIENTED_EDGE('',*,*,#231,.T.);
#296=ORIENTED_EDGE('',*,*,#219,.F.);
#297=ORIENTED_EDGE('',*,*,#232,.F.);
#298=ORIENTED_EDGE('',*,*,#229,.F.);
#299=ORIENTED_EDGE('',*,*,#233,.F.);
#300=ORIENTED_EDGE('',*,*,#234,.F.);
#301=ORIENTED_EDGE('',*,*,#235,.F.);
#302=ORIENTED_EDGE('',*,*,#236,.F.);
#303=ORIENTED_EDGE('',*,*,#237,.F.);
#304=ORIENTED_EDGE('',*,*,#237,.T.);
#305=ORIENTED_EDGE('',*,*,#238,.T.);
#306=ORIENTED_EDGE('',*,*,#239,.F.);
#307=ORIENTED_EDGE('',*,*,#240,.F.);
#308=ORIENTED_EDGE('',*,*,#234,.T.);
#309=ORIENTED_EDGE('',*,*,#240,.T.);
#310=ORIENTED_EDGE('',*,*,#241,.T.);
#311=ORIENTED_EDGE('',*,*,#226,.F.);
#312=ORIENTED_EDGE('',*,*,#242,.T.);
#313=ORIENTED_EDGE('',*,*,#222,.T.);
#314=ORIENTED_EDGE('',*,*,#243,.T.);
#315=ORIENTED_EDGE('',*,*,#244,.T.);
#316=ORIENTED_EDGE('',*,*,#236,.T.);
#317=ORIENTED_EDGE('',*,*,#245,.T.);
#318=ORIENTED_EDGE('',*,*,#246,.F.);
#319=ORIENTED_EDGE('',*,*,#238,.F.);
#320=ORIENTED_EDGE('',*,*,#246,.T.);
#321=ORIENTED_EDGE('',*,*,#247,.T.);
#322=ORIENTED_EDGE('',*,*,#243,.F.);
#323=ORIENTED_EDGE('',*,*,#221,.T.);
#324=ORIENTED_EDGE('',*,*,#248,.T.);
#325=ORIENTED_EDGE('',*,*,#227,.T.);
#326=ORIENTED_EDGE('',*,*,#241,.F.);
#327=ORIENTED_EDGE('',*,*,#239,.T.);
#328=ORIENTED_EDGE('',*,*,#235,.T.);
#329=ORIENTED_EDGE('',*,*,#244,.F.);
#330=ORIENTED_EDGE('',*,*,#247,.F.);
#331=ORIENTED_EDGE('',*,*,#245,.F.);
#332=ORIENTED_EDGE('',*,*,#249,.F.);
#333=ORIENTED_EDGE('',*,*,#250,.F.);
#334=ORIENTED_EDGE('',*,*,#251,.T.);
#335=ORIENTED_EDGE('',*,*,#252,.F.);
#336=ORIENTED_EDGE('',*,*,#251,.F.);
#337=ORIENTED_EDGE('',*,*,#253,.F.);
#338=ORIENTED_EDGE('',*,*,#254,.T.);
#339=ORIENTED_EDGE('',*,*,#255,.F.);
#340=ORIENTED_EDGE('',*,*,#256,.F.);
#341=ORIENTED_EDGE('',*,*,#257,.F.);
#342=ORIENTED_EDGE('',*,*,#258,.F.);
#343=ORIENTED_EDGE('',*,*,#254,.F.);
#344=ORIENTED_EDGE('',*,*,#259,.F.);
#345=ORIENTED_EDGE('',*,*,#260,.F.);
#346=ORIENTED_EDGE('',*,*,#223,.T.);
#347=ORIENTED_EDGE('',*,*,#242,.F.);
#348=ORIENTED_EDGE('',*,*,#225,.F.);
#349=ORIENTED_EDGE('',*,*,#216,.T.);
#350=ORIENTED_EDGE('',*,*,#261,.T.);
#351=ORIENTED_EDGE('',*,*,#262,.T.);
#352=ORIENTED_EDGE('',*,*,#263,.T.);
#353=ORIENTED_EDGE('',*,*,#262,.F.);
#354=ORIENTED_EDGE('',*,*,#264,.T.);
#355=ORIENTED_EDGE('',*,*,#261,.F.);
#356=ORIENTED_EDGE('',*,*,#265,.T.);
#357=ORIENTED_EDGE('',*,*,#256,.T.);
#358=ORIENTED_EDGE('',*,*,#255,.T.);
#359=ORIENTED_EDGE('',*,*,#258,.T.);
#360=ORIENTED_EDGE('',*,*,#266,.T.);
#361=ORIENTED_EDGE('',*,*,#231,.F.);
#362=ORIENTED_EDGE('',*,*,#266,.F.);
#363=ORIENTED_EDGE('',*,*,#257,.T.);
#364=ORIENTED_EDGE('',*,*,#265,.F.);
#365=ORIENTED_EDGE('',*,*,#264,.F.);
#366=ORIENTED_EDGE('',*,*,#249,.T.);
#367=ORIENTED_EDGE('',*,*,#250,.T.);
#368=ORIENTED_EDGE('',*,*,#263,.F.);
#369=ORIENTED_EDGE('',*,*,#267,.T.);
#370=ORIENTED_EDGE('',*,*,#224,.T.);
#371=ORIENTED_EDGE('',*,*,#268,.T.);
#372=ORIENTED_EDGE('',*,*,#259,.T.);
#373=ORIENTED_EDGE('',*,*,#253,.T.);
#374=ORIENTED_EDGE('',*,*,#269,.T.);
#375=ORIENTED_EDGE('',*,*,#267,.F.);
#376=ORIENTED_EDGE('',*,*,#269,.F.);
#377=ORIENTED_EDGE('',*,*,#260,.T.);
#378=ORIENTED_EDGE('',*,*,#268,.F.);
#379=ORIENTED_EDGE('',*,*,#252,.T.);
#380=ORIENTED_EDGE('',*,*,#233,.T.);
#381=ORIENTED_EDGE('',*,*,#228,.F.);
#382=ORIENTED_EDGE('',*,*,#248,.F.);
#383=ORIENTED_EDGE('',*,*,#220,.F.);
#384=ORIENTED_EDGE('',*,*,#214,.T.);
#385=ORIENTED_EDGE('',*,*,#230,.F.);
#386=ORIENTED_EDGE('',*,*,#232,.T.);
#387=ORIENTED_EDGE('',*,*,#218,.F.);
#388=PLANE('',#435);
#389=PLANE('',#436);
#390=PLANE('',#437);
#391=PLANE('',#439);
#392=PLANE('',#441);
#393=PLANE('',#442);
#394=PLANE('',#443);
#395=PLANE('',#444);
#396=PLANE('',#445);
#397=PLANE('',#446);
#398=PLANE('',#449);
#399=PLANE('',#456);
#400=PLANE('',#459);
#401=PLANE('',#460);
#402=ADVANCED_FACE('',(#43),#388,.F.);
#403=ADVANCED_FACE('',(#44),#389,.T.);
#404=ADVANCED_FACE('',(#45,#30),#390,.T.);
#405=ADVANCED_FACE('',(#46,#31),#391,.T.);
#406=ADVANCED_FACE('',(#47,#32),#392,.F.);
#407=ADVANCED_FACE('',(#48),#393,.F.);
#408=ADVANCED_FACE('',(#49),#394,.T.);
#409=ADVANCED_FACE('',(#50),#395,.F.);
#410=ADVANCED_FACE('',(#51),#396,.T.);
#411=ADVANCED_FACE('',(#52),#397,.F.);
#412=ADVANCED_FACE('',(#53),#27,.F.);
#413=ADVANCED_FACE('',(#54),#28,.F.);
#414=ADVANCED_FACE('',(#55),#398,.T.);
#415=ADVANCED_FACE('',(#56),#16,.T.);
#416=ADVANCED_FACE('',(#57,#33),#15,.T.);
#417=ADVANCED_FACE('',(#58,#34),#399,.T.);
#418=ADVANCED_FACE('',(#59,#35),#29,.F.);
#419=ADVANCED_FACE('',(#60),#400,.T.);
#420=ADVANCED_FACE('',(#61),#401,.T.);
#421=CLOSED_SHELL('',(#402,#403,#404,#405,#406,#407,#408,#409,#410,#411,
#412,#413,#414,#415,#416,#417,#418,#419,#420));
#422=DERIVED_UNIT_ELEMENT(#424,1.);
#423=DERIVED_UNIT_ELEMENT(#831,-3.);
#424=(
MASS_UNIT()
NAMED_UNIT(*)
SI_UNIT(.KILO.,.GRAM.)
);
#425=DERIVED_UNIT((#422,#423));
#426=MEASURE_REPRESENTATION_ITEM('density measure',
POSITIVE_RATIO_MEASURE(7850.),#425);
#427=PROPERTY_DEFINITION_REPRESENTATION(#432,#429);
#428=PROPERTY_DEFINITION_REPRESENTATION(#433,#430);
#429=REPRESENTATION('material name',(#431),#828);
#430=REPRESENTATION('density',(#426),#828);
#431=DESCRIPTIVE_REPRESENTATION_ITEM('Steel','Steel');
#432=PROPERTY_DEFINITION('material property','material name',#838);
#433=PROPERTY_DEFINITION('material property','density of part',#838);
#434=AXIS2_PLACEMENT_3D('',#557,#461,#462);
#435=AXIS2_PLACEMENT_3D('',#558,#463,#464);
#436=AXIS2_PLACEMENT_3D('',#567,#469,#470);
#437=AXIS2_PLACEMENT_3D('',#573,#474,#475);
#438=AXIS2_PLACEMENT_3D('',#586,#482,#483);
#439=AXIS2_PLACEMENT_3D('',#587,#484,#485);
#440=AXIS2_PLACEMENT_3D('',#600,#492,#493);
#441=AXIS2_PLACEMENT_3D('',#601,#494,#495);
#442=AXIS2_PLACEMENT_3D('',#612,#502,#503);
#443=AXIS2_PLACEMENT_3D('',#618,#507,#508);
#444=AXIS2_PLACEMENT_3D('',#624,#513,#514);
#445=AXIS2_PLACEMENT_3D('',#628,#517,#518);
#446=AXIS2_PLACEMENT_3D('',#631,#521,#522);
#447=AXIS2_PLACEMENT_3D('',#632,#523,#524);
#448=AXIS2_PLACEMENT_3D('',#709,#526,#527);
#449=AXIS2_PLACEMENT_3D('',#806,#529,#530);
#450=AXIS2_PLACEMENT_3D('',#807,#531,#532);
#451=AXIS2_PLACEMENT_3D('',#810,#533,#534);
#452=AXIS2_PLACEMENT_3D('',#812,#535,#536);
#453=AXIS2_PLACEMENT_3D('',#813,#537,#538);
#454=AXIS2_PLACEMENT_3D('',#814,#539,#540);
#455=AXIS2_PLACEMENT_3D('',#815,#541,#542);
#456=AXIS2_PLACEMENT_3D('',#818,#545,#546);
#457=AXIS2_PLACEMENT_3D('',#820,#547,#548);
#458=AXIS2_PLACEMENT_3D('',#821,#549,#550);
#459=AXIS2_PLACEMENT_3D('',#824,#553,#554);
#460=AXIS2_PLACEMENT_3D('',#825,#555,#556);
#461=DIRECTION('axis',(0.,0.,1.));
#462=DIRECTION('refdir',(1.,0.,0.));
#463=DIRECTION('center_axis',(-1.,0.,0.));
#464=DIRECTION('ref_axis',(0.,0.,1.));
#465=DIRECTION('',(0.,-1.,0.));
#466=DIRECTION('',(0.,0.,-1.));
#467=DIRECTION('',(0.,1.,0.));
#468=DIRECTION('',(0.,0.,1.));
#469=DIRECTION('center_axis',(0.,1.,0.));
#470=DIRECTION('ref_axis',(0.,0.,1.));
#471=DIRECTION('',(-1.,0.,0.));
#472=DIRECTION('',(0.,0.,-1.));
#473=DIRECTION('',(1.,0.,0.));
#474=DIRECTION('center_axis',(0.,0.,-1.));
#475=DIRECTION('ref_axis',(-1.,0.,0.));
#476=DIRECTION('',(-1.,0.,0.));
#477=DIRECTION('',(0.,-1.,0.));
#478=DIRECTION('',(-1.,0.,0.));
#479=DIRECTION('',(0.,-1.,0.));
#480=DIRECTION('',(1.,0.,0.));
#481=DIRECTION('',(0.,-1.,0.));
#482=DIRECTION('center_axis',(0.,0.,-1.));
#483=DIRECTION('ref_axis',(1.,0.,0.));
#484=DIRECTION('center_axis',(0.,0.,1.));
#485=DIRECTION('ref_axis',(1.,0.,0.));
#486=DIRECTION('',(0.,-1.,0.));
#487=DIRECTION('',(1.,0.,0.));
#488=DIRECTION('',(0.,1.,0.));
#489=DIRECTION('',(-1.,0.,0.));
#490=DIRECTION('',(0.,1.,0.));
#491=DIRECTION('',(1.,0.,0.));
#492=DIRECTION('center_axis',(0.,0.,-1.));
#493=DIRECTION('ref_axis',(1.,0.,0.));
#494=DIRECTION('center_axis',(-1.,0.,0.));
#495=DIRECTION('ref_axis',(0.,0.,1.));
#496=DIRECTION('',(0.,0.,-1.));
#497=DIRECTION('',(0.,0.,1.));
#498=DIRECTION('',(0.,0.,1.));
#499=DIRECTION('',(0.,1.,0.));
#500=DIRECTION('',(0.,0.,-1.));
#501=DIRECTION('',(0.,-1.,0.));
#502=DIRECTION('center_axis',(0.,0.,1.));
#503=DIRECTION('ref_axis',(0.,1.,0.));
#504=DIRECTION('',(-1.,0.,0.));
#505=DIRECTION('',(0.,-1.,0.));
#506=DIRECTION('',(-1.,0.,0.));
#507=DIRECTION('center_axis',(0.,-1.,0.));
#508=DIRECTION('ref_axis',(0.,0.,1.));
#509=DIRECTION('',(0.,0.,1.));
#510=DIRECTION('',(0.,0.,-1.));
#511=DIRECTION('',(0.,0.,1.));
#512=DIRECTION('',(1.,0.,0.));
#513=DIRECTION('center_axis',(0.,-1.,0.));
#514=DIRECTION('ref_axis',(0.,0.,1.));
#515=DIRECTION('',(-1.,0.,0.));
#516=DIRECTION('',(0.,0.,-1.));
#517=DIRECTION('center_axis',(-1.,0.,0.));
#518=DIRECTION('ref_axis',(0.,0.,1.));
#519=DIRECTION('',(0.,1.,0.));
#520=DIRECTION('',(0.,0.,1.));
#521=DIRECTION('center_axis',(0.,0.,-1.));
#522=DIRECTION('ref_axis',(-1.,0.,0.));
#523=DIRECTION('center_axis',(-1.,0.,0.));
#524=DIRECTION('ref_axis',(0.,1.,0.));
#525=DIRECTION('',(-1.,0.,0.));
#526=DIRECTION('center_axis',(-1.,0.,0.));
#527=DIRECTION('ref_axis',(0.,1.,0.));
#528=DIRECTION('',(-1.,0.,0.));
#529=DIRECTION('center_axis',(-1.,0.,0.));
#530=DIRECTION('ref_axis',(0.,0.,1.));
#531=DIRECTION('center_axis',(0.,0.,-1.));
#532=DIRECTION('ref_axis',(-1.,0.,0.));
#533=DIRECTION('center_axis',(0.,0.,1.));
#534=DIRECTION('ref_axis',(1.,0.,0.));
#535=DIRECTION('center_axis',(0.,-1.,0.));
#536=DIRECTION('ref_axis',(1.,0.,0.));
#537=DIRECTION('center_axis',(0.,0.,-1.));
#538=DIRECTION('ref_axis',(1.,0.,0.));
#539=DIRECTION('center_axis',(0.,0.,1.));
#540=DIRECTION('ref_axis',(1.,0.,0.));
#541=DIRECTION('center_axis',(0.,0.,-1.));
#542=DIRECTION('ref_axis',(1.,0.,0.));
#543=DIRECTION('',(-0.0871557427476582,-1.0673500138323E-17,-0.996194698091746));
#544=DIRECTION('',(-0.0871557427476582,-1.0673500138323E-17,-0.996194698091746));
#545=DIRECTION('center_axis',(0.,0.,1.));
#546=DIRECTION('ref_axis',(1.,0.,0.));
#547=DIRECTION('center_axis',(0.,0.,-1.));
#548=DIRECTION('ref_axis',(-1.,0.,0.));
#549=DIRECTION('center_axis',(0.,0.,1.));
#550=DIRECTION('ref_axis',(1.,0.,0.));
#551=DIRECTION('',(0.,0.,1.));
#552=DIRECTION('',(0.,0.,1.));
#553=DIRECTION('center_axis',(0.,-1.,0.));
#554=DIRECTION('ref_axis',(0.,0.,-1.));
#555=DIRECTION('center_axis',(0.,-1.,0.));
#556=DIRECTION('ref_axis',(0.,0.,-1.));
#557=CARTESIAN_POINT('',(0.,0.,0.));
#558=CARTESIAN_POINT('Origin',(45.,17.5000001117587,5.00000007450581));
#559=CARTESIAN_POINT('',(45.,35.,-5.25));
#560=CARTESIAN_POINT('',(45.,15.0000002235174,-5.25));
#561=CARTESIAN_POINT('',(45.,8.75000005587935,-5.25));
#562=CARTESIAN_POINT('',(45.,35.,14.25));
#563=CARTESIAN_POINT('',(45.,35.,2.5000000372529));
#564=CARTESIAN_POINT('',(45.,15.0000002235174,14.25));
#565=CARTESIAN_POINT('',(45.,11.7500000558794,14.25));
#566=CARTESIAN_POINT('',(45.,15.0000002235174,7.50000011175871));
#567=CARTESIAN_POINT('Origin',(25.,35.,0.));
#568=CARTESIAN_POINT('',(-46.,35.,-5.24999998509884));
#569=CARTESIAN_POINT('',(12.5,35.,-5.25));
#570=CARTESIAN_POINT('',(-46.,35.,14.25));
#571=CARTESIAN_POINT('',(-46.,35.,-2.99999998509884));
#572=CARTESIAN_POINT('',(75.,35.,14.25));
#573=CARTESIAN_POINT('Origin',(0.,0.,-5.25));
#574=CARTESIAN_POINT('',(25.,15.0000002235174,-5.25));
#575=CARTESIAN_POINT('',(37.5,15.0000002235174,-5.25));
#576=CARTESIAN_POINT('',(25.,-21.,-5.25));
#577=CARTESIAN_POINT('',(25.,-12.5,-5.25));
#578=CARTESIAN_POINT('',(-25.,-21.,-5.25));
#579=CARTESIAN_POINT('',(25.,-21.,-5.25));
#580=CARTESIAN_POINT('',(-25.,13.0000001937151,-5.24999998509884));
#581=CARTESIAN_POINT('',(-25.,12.5,-5.25));
#582=CARTESIAN_POINT('',(-46.,13.0000001937151,-5.24999998509884));
#583=CARTESIAN_POINT('',(-12.5,13.0000001937151,-5.25));
#584=CARTESIAN_POINT('',(-46.,10.0000000484288,-5.25));
#585=CARTESIAN_POINT('',(-39.3971225138514,24.0108990716149,-5.25));
#586=CARTESIAN_POINT('Origin',(-34.3971225138514,24.0108990716149,-5.25));
#587=CARTESIAN_POINT('Origin',(25.,6.,14.25));
#588=CARTESIAN_POINT('',(-46.,13.0000001937151,14.25));
#589=CARTESIAN_POINT('',(-46.,27.,14.25));
#590=CARTESIAN_POINT('',(-25.,13.0000001937151,14.25));
#591=CARTESIAN_POINT('',(-25.,13.0000001937151,14.25));
#592=CARTESIAN_POINT('',(-25.,-21.,14.25));
#593=CARTESIAN_POINT('',(-25.,15.5,14.25));
#594=CARTESIAN_POINT('',(25.,-21.,14.25));
#595=CARTESIAN_POINT('',(0.,-21.,14.25));
#596=CARTESIAN_POINT('',(25.,15.0000002235174,14.25));
#597=CARTESIAN_POINT('',(25.,-9.5,14.25));
#598=CARTESIAN_POINT('',(25.,15.0000002235174,14.25));
#599=CARTESIAN_POINT('',(-44.4683975998713,24.0379705267732,14.25));
#600=CARTESIAN_POINT('Origin',(-34.4683975998713,24.0379705267732,14.25));
#601=CARTESIAN_POINT('Origin',(25.,-1.99999988824129,4.5));
#602=CARTESIAN_POINT('',(25.,15.0000002235174,-5.25));
#603=CARTESIAN_POINT('',(25.,-21.,0.));
#604=CARTESIAN_POINT('',(25.,13.0000001937151,1.50000002980232));
#605=CARTESIAN_POINT('',(25.,13.0000001937151,7.50000010430813));
#606=CARTESIAN_POINT('',(25.,13.0000001937151,2.75000000745058));
#607=CARTESIAN_POINT('',(25.,-15.0000002235174,1.50000002980232));
#608=CARTESIAN_POINT('',(25.,5.5000001527369,1.50000002980232));
#609=CARTESIAN_POINT('',(25.,-15.0000002235174,7.50000010430813));
#610=CARTESIAN_POINT('',(25.,-15.0000002235174,3.25000001490116));
#611=CARTESIAN_POINT('',(25.,-8.50000005587935,7.50000010430813));
#612=CARTESIAN_POINT('Origin',(25.,-15.0000002235174,7.50000010430813));
#613=CARTESIAN_POINT('',(-25.,-15.0000002235174,7.50000010430813));
#614=CARTESIAN_POINT('',(25.,-15.0000002235174,7.50000010430813));
#615=CARTESIAN_POINT('',(-25.,13.0000001937151,7.50000010430813));
#616=CARTESIAN_POINT('',(-25.,4.99999988824129,7.50000010430813));
#617=CARTESIAN_POINT('',(0.,13.0000001937151,7.50000010430813));
#618=CARTESIAN_POINT('Origin',(-25.,13.0000001937151,1.00000001490116));
#619=CARTESIAN_POINT('',(-25.,13.0000001937151,0.500000007450581));
#620=CARTESIAN_POINT('',(-46.,13.0000001937151,1.00000001490116));
#621=CARTESIAN_POINT('',(-25.,13.0000001937151,1.50000002980232));
#622=CARTESIAN_POINT('',(-25.,13.0000001937151,0.500000007450581));
#623=CARTESIAN_POINT('',(25.,13.0000001937151,1.50000002980232));
#624=CARTESIAN_POINT('Origin',(25.,-15.0000002235174,2.00000002980232));
#625=CARTESIAN_POINT('',(-25.,-15.0000002235174,1.50000002980232));
#626=CARTESIAN_POINT('',(25.,-15.0000002235174,1.50000002980232));
#627=CARTESIAN_POINT('',(-25.,-15.0000002235174,1.00000001490116));
#628=CARTESIAN_POINT('Origin',(-25.,25.,0.));
#629=CARTESIAN_POINT('',(-25.,19.0000000968575,1.50000002980232));
#630=CARTESIAN_POINT('',(-25.,-21.,0.));
#631=CARTESIAN_POINT('Origin',(25.,13.0000001937151,1.50000002980232));
#632=CARTESIAN_POINT('Origin',(11.,24.0401576355856,24.9999994412065));
#633=CARTESIAN_POINT('',(-25.454180617074,23.1401914644821,25.0078027013743));
#634=CARTESIAN_POINT('',(-25.453497909444,23.1401576355856,24.9999994269126));
#635=CARTESIAN_POINT('Ctrl Pts',(-25.454180617074,23.1401914644821,25.0078027013743));
#636=CARTESIAN_POINT('Ctrl Pts',(-25.4639374172266,23.1411632017842,25.1198751788178));
#637=CARTESIAN_POINT('Ctrl Pts',(-25.472047467073,23.1644296830803,25.2394754444392));
#638=CARTESIAN_POINT('Ctrl Pts',(-25.4828474100218,23.2571305668105,25.4594739221834));
#639=CARTESIAN_POINT('Ctrl Pts',(-25.48565707216,23.3265706112008,25.5598638609567));
#640=CARTESIAN_POINT('Ctrl Pts',(-25.4883161906266,23.486237147469,25.7181900759387));
#641=CARTESIAN_POINT('Ctrl Pts',(-25.4883679871329,23.5870992811417,25.7867575021519));
#642=CARTESIAN_POINT('Ctrl Pts',(-25.4879563516433,23.8078639424287,25.8776609700428));
#643=CARTESIAN_POINT('Ctrl Pts',(-25.487613406693,23.9277666552621,25.8999970675775));
#644=CARTESIAN_POINT('Ctrl Pts',(-25.4876680789871,24.1525113394784,25.9000018144495));
#645=CARTESIAN_POINT('Ctrl Pts',(-25.4880693694898,24.2724155635816,25.8776705155154));
#646=CARTESIAN_POINT('Ctrl Pts',(-25.4885886460784,24.4931849625085,25.7867754580934));
#647=CARTESIAN_POINT('Ctrl Pts',(-25.4885861560698,24.5940503861333,25.7182116555536));
#648=CARTESIAN_POINT('Ctrl Pts',(-25.4860052278734,24.7537231659494,25.5598911045578));
#649=CARTESIAN_POINT('Ctrl Pts',(-25.4832296952593,24.8231667684003,25.4595043273755));
#650=CARTESIAN_POINT('Ctrl Pts',(-25.472475413871,24.9158758766825,25.2395106485835));
#651=CARTESIAN_POINT('Ctrl Pts',(-25.4643768754366,24.9391470148721,25.1199119928241));
#652=CARTESIAN_POINT('Ctrl Pts',(-25.4447048898074,24.9411159053784,24.8939367806199));
#653=CARTESIAN_POINT('Ctrl Pts',(-25.4317505841129,24.9192481560993,24.7725258961513));
#654=CARTESIAN_POINT('Ctrl Pts',(-25.4037264074951,24.8283475174212,24.5491102072548));
#655=CARTESIAN_POINT('Ctrl Pts',(-25.3887793621495,24.7593230951763,24.4470865685307));
#656=CARTESIAN_POINT('Ctrl Pts',(-25.3633759386116,24.599566706284,24.285928776815));
#657=CARTESIAN_POINT('Ctrl Pts',(-25.3512347115232,24.4982389637357,24.2159587911985));
#658=CARTESIAN_POINT('Ctrl Pts',(-25.3345802114137,24.2755518534553,24.1229887172128));
#659=CARTESIAN_POINT('Ctrl Pts',(-25.3301888854214,24.1541778631715,24.100001849247));
#660=CARTESIAN_POINT('Ctrl Pts',(-25.3301334213196,23.926178247368,24.099997033627));
#661=CARTESIAN_POINT('Ctrl Pts',(-25.3344655099711,23.8048039523931,24.1229777951061));
#662=CARTESIAN_POINT('Ctrl Pts',(-25.3510113415151,23.5821119939977,24.2159378936063));
#663=CARTESIAN_POINT('Ctrl Pts',(-25.3631031308148,23.48077979407,24.2859040727892));
#664=CARTESIAN_POINT('Ctrl Pts',(-25.3884286421,23.3210141084363,24.4470576266989));
#665=CARTESIAN_POINT('Ctrl Pts',(-25.4033418919504,23.2519851885146,24.5490797092333));
#666=CARTESIAN_POINT('Ctrl Pts',(-25.4310022553651,23.1621123460974,24.7699448582498));
#667=CARTESIAN_POINT('Ctrl Pts',(-25.4436831469642,23.1401576373722,24.8883684111633));
#668=CARTESIAN_POINT('Ctrl Pts',(-25.4534979106911,23.1401576355856,24.9999994268028));
#669=CARTESIAN_POINT('Ctrl Pts',(-25.4534979106911,23.1401576355856,24.9999994268028));
#670=CARTESIAN_POINT('Ctrl Pts',(-25.4537269345396,23.1401576355439,25.0026042948902));
#671=CARTESIAN_POINT('Ctrl Pts',(-25.4539545061461,23.1401689447605,25.0052054552006));
#672=CARTESIAN_POINT('Ctrl Pts',(-25.454180617074,23.1401914644821,25.0078027013743));
#673=CARTESIAN_POINT('',(-29.4735253175343,23.1401576355856,24.9999994412065));
#674=CARTESIAN_POINT('',(11.,23.1401576355856,24.9999994412065));
#675=CARTESIAN_POINT('Ctrl Pts',(-29.4735253175343,23.1401576355856,24.9999994412065));
#676=CARTESIAN_POINT('Ctrl Pts',(-29.4735253175343,23.1401576355856,24.8867309812103));
#677=CARTESIAN_POINT('Ctrl Pts',(-29.4693470305508,23.162843768896,24.766075572215));
#678=CARTESIAN_POINT('Ctrl Pts',(-29.4544049816333,23.2547824288755,24.5443835758845));
#679=CARTESIAN_POINT('Ctrl Pts',(-29.4438746364856,23.3240226185795,24.4433262020426));
#680=CARTESIAN_POINT('Ctrl Pts',(-29.4243554454082,23.4835979031606,24.2837830242557));
#681=CARTESIAN_POINT('Ctrl Pts',(-29.4140873772669,23.5846443516268,24.2145682599992));
#682=CARTESIAN_POINT('Ctrl Pts',(-29.4000761007455,23.8063033643797,24.1226701544309));
#683=CARTESIAN_POINT('Ctrl Pts',(-29.3965455606509,23.9269345555557,24.0999994412065));
#684=CARTESIAN_POINT('Ctrl Pts',(-29.3978712292202,24.153474359991,24.0999994412065));
#685=CARTESIAN_POINT('Ctrl Pts',(-29.4028203123489,24.2741488988182,24.1227037184747));
#686=CARTESIAN_POINT('Ctrl Pts',(-29.4194528269575,24.4958314795853,24.2146580899301));
#687=CARTESIAN_POINT('Ctrl Pts',(-29.4309242880495,24.5968613407995,24.2838937991995));
#688=CARTESIAN_POINT('Ctrl Pts',(-29.4523507963383,24.7563551376998,24.4434218869981));
#689=CARTESIAN_POINT('Ctrl Pts',(-29.4637153749314,24.8255586566612,24.544436203519));
#690=CARTESIAN_POINT('Ctrl Pts',(-29.4797745386934,24.9174668633158,24.7660740071114));
#691=CARTESIAN_POINT('Ctrl Pts',(-29.4842334940091,24.9401576355856,24.8867202741484));
#692=CARTESIAN_POINT('Ctrl Pts',(-29.4842334940091,24.9401576355856,25.1132786082645));
#693=CARTESIAN_POINT('Ctrl Pts',(-29.4797745386934,24.9174668633158,25.2339248753015));
#694=CARTESIAN_POINT('Ctrl Pts',(-29.4637153749314,24.8255586566612,25.4555626788939));
#695=CARTESIAN_POINT('Ctrl Pts',(-29.4523507963383,24.7563551376998,25.5565769954148));
#696=CARTESIAN_POINT('Ctrl Pts',(-29.4309242880495,24.5968613407995,25.7161050832134));
#697=CARTESIAN_POINT('Ctrl Pts',(-29.4194528269575,24.4958314795853,25.7853407924828));
#698=CARTESIAN_POINT('Ctrl Pts',(-29.4028203123489,24.2741488988182,25.8772951639382));
#699=CARTESIAN_POINT('Ctrl Pts',(-29.3978712292202,24.153474359991,25.8999994412065));
#700=CARTESIAN_POINT('Ctrl Pts',(-29.3965455606509,23.9269345555557,25.8999994412065));
#701=CARTESIAN_POINT('Ctrl Pts',(-29.4000761007455,23.8063033643797,25.877328727982));
#702=CARTESIAN_POINT('Ctrl Pts',(-29.4140873772669,23.5846443516268,25.7854306224137));
#703=CARTESIAN_POINT('Ctrl Pts',(-29.4243554454082,23.4835979031606,25.7162158581572));
#704=CARTESIAN_POINT('Ctrl Pts',(-29.4438746364856,23.3240226185795,25.5566726803703));
#705=CARTESIAN_POINT('Ctrl Pts',(-29.4544049816333,23.2547824288755,25.4556153065284));
#706=CARTESIAN_POINT('Ctrl Pts',(-29.4693470305508,23.162843768896,25.2339233101979));
#707=CARTESIAN_POINT('Ctrl Pts',(-29.4735253175343,23.1401576355856,25.1132679012026));
#708=CARTESIAN_POINT('Ctrl Pts',(-29.4735253175343,23.1401576355856,24.9999994412065));
#709=CARTESIAN_POINT('Origin',(11.,24.0401576355856,24.9999994412065));
#710=CARTESIAN_POINT('',(-39.3207197101685,23.1401576355856,24.9999994412065));
#711=CARTESIAN_POINT('',(-39.3971225138514,24.0108990716148,25.8995237246109));
#712=CARTESIAN_POINT('Ctrl Pts',(-39.3207197101685,23.1401576355856,24.9999994412065));
#713=CARTESIAN_POINT('Ctrl Pts',(-39.3207197101685,23.1401576355856,25.1132679012026));
#714=CARTESIAN_POINT('Ctrl Pts',(-39.324897997152,23.162843768896,25.2339233101979));
#715=CARTESIAN_POINT('Ctrl Pts',(-39.3398400460696,23.2547824288755,25.4556153065284));
#716=CARTESIAN_POINT('Ctrl Pts',(-39.3503703912172,23.3240226185795,25.5566726803703));
#717=CARTESIAN_POINT('Ctrl Pts',(-39.3698895822947,23.4835979031606,25.7162158581572));
#718=CARTESIAN_POINT('Ctrl Pts',(-39.380157650436,23.5846443516268,25.7854306224137));
#719=CARTESIAN_POINT('Ctrl Pts',(-39.393568631654,23.7968066661957,25.873391470654));
#720=CARTESIAN_POINT('Ctrl Pts',(-39.3971225138514,23.9063273766243,25.896122351592));
#721=CARTESIAN_POINT('Ctrl Pts',(-39.3971225138514,24.0108990716148,25.899523724611));
#722=CARTESIAN_POINT('',(-43.4832972902986,23.1401576355856,24.9999994269126));
#723=CARTESIAN_POINT('',(11.,23.1401576355856,24.9999994412065));
#724=CARTESIAN_POINT('',(-43.4826145826686,23.1401914644821,25.0078027013742));
#725=CARTESIAN_POINT('Ctrl Pts',(-43.4826145826686,23.1401914644821,25.0078027013743));
#726=CARTESIAN_POINT('Ctrl Pts',(-43.4828406935965,23.1401689447605,25.0052054552006));
#727=CARTESIAN_POINT('Ctrl Pts',(-43.483068265203,23.1401576355439,25.0026042948902));
#728=CARTESIAN_POINT('Ctrl Pts',(-43.4832972890515,23.1401576355856,24.9999994268028));
#729=CARTESIAN_POINT('',(-43.4491549511813,24.037970526583,25.8999967837322));
#730=CARTESIAN_POINT('Ctrl Pts',(-43.4491549511813,24.0379705263928,25.8999967837322));
#731=CARTESIAN_POINT('Ctrl Pts',(-43.4491787091611,23.9262254041084,25.8997252287257));
#732=CARTESIAN_POINT('Ctrl Pts',(-43.4488375249872,23.8071543427552,25.877368780746));
#733=CARTESIAN_POINT('Ctrl Pts',(-43.4484272126097,23.5870992811417,25.7867575021519));
#734=CARTESIAN_POINT('Ctrl Pts',(-43.448479009116,23.486237147469,25.7181900759387));
#735=CARTESIAN_POINT('Ctrl Pts',(-43.4511381275826,23.3265706112008,25.5598638609567));
#736=CARTESIAN_POINT('Ctrl Pts',(-43.4539477897208,23.2571305668105,25.4594739221834));
#737=CARTESIAN_POINT('Ctrl Pts',(-43.4647477326696,23.1644296830803,25.2394754444392));
#738=CARTESIAN_POINT('Ctrl Pts',(-43.472857782516,23.1411632017842,25.1198751788178));
#739=CARTESIAN_POINT('Ctrl Pts',(-43.4826145826686,23.1401914644821,25.0078027013743));
#740=CARTESIAN_POINT('',(-43.6066340805302,24.0379705265707,24.1000020986808));
#741=CARTESIAN_POINT('Ctrl Pts',(-43.6066340805302,24.0379705263682,24.1000020986808));
#742=CARTESIAN_POINT('Ctrl Pts',(-43.6066342369414,24.0387062028197,24.1000003108925));
#743=CARTESIAN_POINT('Ctrl Pts',(-43.6066342255307,24.0394415771438,24.0999994258817));
#744=CARTESIAN_POINT('Ctrl Pts',(-43.6066063143212,24.1541778631715,24.100001849247));
#745=CARTESIAN_POINT('Ctrl Pts',(-43.602214988329,24.2755518534553,24.1229887172128));
#746=CARTESIAN_POINT('Ctrl Pts',(-43.5855604882194,24.4982389637357,24.2159587911985));
#747=CARTESIAN_POINT('Ctrl Pts',(-43.573419261131,24.599566706284,24.285928776815));
#748=CARTESIAN_POINT('Ctrl Pts',(-43.5480158375931,24.7593230951763,24.4470865685307));
#749=CARTESIAN_POINT('Ctrl Pts',(-43.5330687922475,24.8283475174212,24.5491102072548));
#750=CARTESIAN_POINT('Ctrl Pts',(-43.5050446156297,24.9192481560993,24.7725258961513));
#751=CARTESIAN_POINT('Ctrl Pts',(-43.4920903099352,24.9411159053784,24.8939367806199));
#752=CARTESIAN_POINT('Ctrl Pts',(-43.4724183243061,24.9391470148721,25.1199119928241));
#753=CARTESIAN_POINT('Ctrl Pts',(-43.4643197858716,24.9158758766825,25.2395106485835));
#754=CARTESIAN_POINT('Ctrl Pts',(-43.4535655044834,24.8231667684003,25.4595043273755));
#755=CARTESIAN_POINT('Ctrl Pts',(-43.4507899718692,24.7537231659494,25.5598911045578));
#756=CARTESIAN_POINT('Ctrl Pts',(-43.4482090436728,24.5940503861333,25.7182116555536));
#757=CARTESIAN_POINT('Ctrl Pts',(-43.4482065536642,24.4931849625085,25.7867754580934));
#758=CARTESIAN_POINT('Ctrl Pts',(-43.4487258302529,24.2724155635816,25.8776705155154));
#759=CARTESIAN_POINT('Ctrl Pts',(-43.4491271207555,24.1525113394784,25.9000018144495));
#760=CARTESIAN_POINT('Ctrl Pts',(-43.4491546327244,24.0394162363255,25.899999425748));
#761=CARTESIAN_POINT('Ctrl Pts',(-43.4491547974634,24.0386935347613,25.8999985407354));
#762=CARTESIAN_POINT('Ctrl Pts',(-43.4491549511813,24.0379705263928,25.8999967837322));
#763=CARTESIAN_POINT('Ctrl Pts',(-43.4832972890515,23.1401576355856,24.9999994268028));
#764=CARTESIAN_POINT('Ctrl Pts',(-43.4931120527784,23.1401576373722,24.8883684111633));
#765=CARTESIAN_POINT('Ctrl Pts',(-43.5057929443776,23.1621123460974,24.7699448582498));
#766=CARTESIAN_POINT('Ctrl Pts',(-43.5334533077922,23.2519851885146,24.5490797092333));
#767=CARTESIAN_POINT('Ctrl Pts',(-43.5483665576426,23.3210141084363,24.4470576266989));
#768=CARTESIAN_POINT('Ctrl Pts',(-43.5736920689278,23.48077979407,24.2859040727892));
#769=CARTESIAN_POINT('Ctrl Pts',(-43.5857838582275,23.5821119939977,24.2159378936063));
#770=CARTESIAN_POINT('Ctrl Pts',(-43.6022763455872,23.8040859878206,24.1232775008425));
#771=CARTESIAN_POINT('Ctrl Pts',(-43.606609979807,23.9246133659329,24.1002775711502));
#772=CARTESIAN_POINT('Ctrl Pts',(-43.6066340805302,24.0379705263683,24.1000020986808));
#773=CARTESIAN_POINT('',(-39.3971225138514,24.0108990716148,24.100475157802));
#774=CARTESIAN_POINT('Ctrl Pts',(-39.3971225138514,24.0108990716148,24.100475157802));
#775=CARTESIAN_POINT('Ctrl Pts',(-39.3971225138514,23.9063273766243,24.1038765308209));
#776=CARTESIAN_POINT('Ctrl Pts',(-39.393568631654,23.7968066661957,24.1266074117589));
#777=CARTESIAN_POINT('Ctrl Pts',(-39.380157650436,23.5846443516268,24.2145682599992));
#778=CARTESIAN_POINT('Ctrl Pts',(-39.3698895822947,23.4835979031606,24.2837830242557));
#779=CARTESIAN_POINT('Ctrl Pts',(-39.3503703912172,23.3240226185795,24.4433262020426));
#780=CARTESIAN_POINT('Ctrl Pts',(-39.3398400460696,23.2547824288755,24.5443835758845));
#781=CARTESIAN_POINT('Ctrl Pts',(-39.324897997152,23.162843768896,24.766075572215));
#782=CARTESIAN_POINT('Ctrl Pts',(-39.3207197101685,23.1401576355856,24.8867309812103));
#783=CARTESIAN_POINT('Ctrl Pts',(-39.3207197101685,23.1401576355856,24.9999994412065));
#784=CARTESIAN_POINT('Ctrl Pts',(-39.3971225138514,24.0108990716148,25.8995237246109));
#785=CARTESIAN_POINT('Ctrl Pts',(-39.3971225138514,24.0206993114742,25.8998424941541));
#786=CARTESIAN_POINT('Ctrl Pts',(-39.3970936798661,24.0304558381702,25.8999994412065));
#787=CARTESIAN_POINT('Ctrl Pts',(-39.3963737984827,24.153474359991,25.8999994412065));
#788=CARTESIAN_POINT('Ctrl Pts',(-39.391424715354,24.2741488988182,25.8772951639382));
#789=CARTESIAN_POINT('Ctrl Pts',(-39.3747922007454,24.4958314795853,25.7853407924828));
#790=CARTESIAN_POINT('Ctrl Pts',(-39.3633207396533,24.5968613407995,25.7161050832134));
#791=CARTESIAN_POINT('Ctrl Pts',(-39.3418942313646,24.7563551376998,25.5565769954148));
#792=CARTESIAN_POINT('Ctrl Pts',(-39.3305296527715,24.8255586566612,25.4555626788939));
#793=CARTESIAN_POINT('Ctrl Pts',(-39.3144704890095,24.9174668633158,25.2339248753015));
#794=CARTESIAN_POINT('Ctrl Pts',(-39.3100115336937,24.9401576355856,25.1132786082645));
#795=CARTESIAN_POINT('Ctrl Pts',(-39.3100115336937,24.9401576355856,24.8867202741484));
#796=CARTESIAN_POINT('Ctrl Pts',(-39.3144704890095,24.9174668633158,24.7660740071114));
#797=CARTESIAN_POINT('Ctrl Pts',(-39.3305296527715,24.8255586566612,24.544436203519));
#798=CARTESIAN_POINT('Ctrl Pts',(-39.3418942313646,24.7563551376998,24.4434218869981));
#799=CARTESIAN_POINT('Ctrl Pts',(-39.3633207396533,24.5968613407995,24.2838937991995));
#800=CARTESIAN_POINT('Ctrl Pts',(-39.3747922007454,24.4958314795853,24.2146580899301));
#801=CARTESIAN_POINT('Ctrl Pts',(-39.391424715354,24.2741488988182,24.1227037184747));
#802=CARTESIAN_POINT('Ctrl Pts',(-39.3963737984827,24.153474359991,24.0999994412065));
#803=CARTESIAN_POINT('Ctrl Pts',(-39.3970936798661,24.0304558381702,24.0999994412065));
#804=CARTESIAN_POINT('Ctrl Pts',(-39.3971225138514,24.0206993114742,24.1001563882588));
#805=CARTESIAN_POINT('Ctrl Pts',(-39.3971225138514,24.0108990716148,24.100475157802));
#806=CARTESIAN_POINT('Origin',(-46.,20.0000000968575,6.00000000745058));
#807=CARTESIAN_POINT('Origin',(-34.4683975998713,24.0379705267732,32.75));
#808=CARTESIAN_POINT('',(-42.8384196154643,24.0379705267732,32.8807336141215));
#809=CARTESIAN_POINT('',(-26.0983755842783,24.0379705267732,32.8807336141215));
#810=CARTESIAN_POINT('Origin',(-34.4683975998713,24.0379705267732,32.8807336141215));
#811=CARTESIAN_POINT('',(-27.5926676314159,24.0379705267732,34.25));
#812=CARTESIAN_POINT('Origin',(-27.5926676314159,24.0379705267732,32.75));
#813=CARTESIAN_POINT('Origin',(-34.4683975998713,24.0379705267732,34.25));
#814=CARTESIAN_POINT('Origin',(-34.4683975998713,24.0379705267732,32.8807336141215));
#815=CARTESIAN_POINT('Origin',(-34.4683975998713,24.0379705267732,14.25));
#816=CARTESIAN_POINT('',(-44.4683975998713,24.0379705267732,14.25));
#817=CARTESIAN_POINT('',(-44.4683975998713,24.0379705267732,14.25));
#818=CARTESIAN_POINT('Origin',(-34.4683975998713,24.0379705267732,34.25));
#819=CARTESIAN_POINT('',(-39.3971225138514,24.0108990716149,34.25));
#820=CARTESIAN_POINT('Origin',(-34.3971225138514,24.0108990716149,34.25));
#821=CARTESIAN_POINT('Origin',(-34.3971225138514,24.0108990716149,0.));
#822=CARTESIAN_POINT('',(-39.3971225138514,24.0108990716149,0.));
#823=CARTESIAN_POINT('',(-39.3971225138514,24.0108990716149,0.));
#824=CARTESIAN_POINT('Origin',(-25.,-21.,0.));
#825=CARTESIAN_POINT('Origin',(25.,15.0000002235174,10.0000001490116));
#826=UNCERTAINTY_MEASURE_WITH_UNIT(LENGTH_MEASURE(0.01),#830,
'DISTANCE_ACCURACY_VALUE',
'Maximum model space distance between geometric entities at asserted c
onnectivities');
#827=UNCERTAINTY_MEASURE_WITH_UNIT(LENGTH_MEASURE(0.01),#830,
'DISTANCE_ACCURACY_VALUE',
'Maximum model space distance between geometric entities at asserted c
onnectivities');
#828=(
GEOMETRIC_REPRESENTATION_CONTEXT(3)
GLOBAL_UNCERTAINTY_ASSIGNED_CONTEXT((#826))
GLOBAL_UNIT_ASSIGNED_CONTEXT((#830,#832,#833))
REPRESENTATION_CONTEXT('','3D')
);
#829=(
GEOMETRIC_REPRESENTATION_CONTEXT(3)
GLOBAL_UNCERTAINTY_ASSIGNED_CONTEXT((#827))
GLOBAL_UNIT_ASSIGNED_CONTEXT((#830,#832,#833))
REPRESENTATION_CONTEXT('','3D')
);
#830=(
LENGTH_UNIT()
NAMED_UNIT(*)
SI_UNIT(.MILLI.,.METRE.)
);
#831=(
LENGTH_UNIT()
NAMED_UNIT(*)
SI_UNIT($,.METRE.)
);
#832=(
NAMED_UNIT(*)
PLANE_ANGLE_UNIT()
SI_UNIT($,.RADIAN.)
);
#833=(
NAMED_UNIT(*)
SI_UNIT($,.STERADIAN.)
SOLID_ANGLE_UNIT()
);
#834=SHAPE_DEFINITION_REPRESENTATION(#835,#836);
#835=PRODUCT_DEFINITION_SHAPE('',$,#838);
#836=SHAPE_REPRESENTATION('',(#434),#828);
#837=PRODUCT_DEFINITION_CONTEXT('part definition',#842,'design');
#838=PRODUCT_DEFINITION('(Unsaved)','(Unsaved)',#839,#837);
#839=PRODUCT_DEFINITION_FORMATION('',$,#844);
#840=PRODUCT_RELATED_PRODUCT_CATEGORY('(Unsaved)','(Unsaved)',(#844));
#841=APPLICATION_PROTOCOL_DEFINITION('international standard',
'automotive_design',2009,#842);
#842=APPLICATION_CONTEXT(
'Core Data for Automotive Mechanical Design Process');
#843=PRODUCT_CONTEXT('part definition',#842,'mechanical');
#844=PRODUCT('(Unsaved)','(Unsaved)',$,(#843));
#845=PRESENTATION_STYLE_ASSIGNMENT((#846));
#846=SURFACE_STYLE_USAGE(.BOTH.,#847);
#847=SURFACE_SIDE_STYLE('',(#848));
#848=SURFACE_STYLE_FILL_AREA(#849);
#849=FILL_AREA_STYLE('Steel - Satin',(#850));
#850=FILL_AREA_STYLE_COLOUR('Steel - Satin',#851);
#851=COLOUR_RGB('Steel - Satin',0.627450980392157,0.627450980392157,0.627450980392157);
ENDSEC;
END-ISO-10303-21;
