ISO-10303-21;
HEADER;
/* Generated by software containing ST-Developer
 * from STEP Tools, Inc. (www.steptools.com) 
 */

FILE_DESCRIPTION(
/* description */ (''),
/* implementation_level */ '2;1');

FILE_NAME(
/* name */ 'shell3.step',
/* time_stamp */ '2026-07-02T14:48:21+05:30',
/* author */ (''),
/* organization */ (''),
/* preprocessor_version */ 'ST-DEVELOPER v20.1',
/* originating_system */ 'Autodesk Translation Framework v15.8.0.0',
/* authorisation */ '');

FILE_SCHEMA (('AUTOMOTIVE_DESIGN { 1 0 10303 214 3 1 1 }'));
ENDSEC;

DATA;
#10=MECHANICAL_DESIGN_GEOMETRIC_PRESENTATION_REPRESENTATION('',(#13),#622);
#11=SHAPE_REPRESENTATION_RELATIONSHIP('SRR','None',#629,#12);
#12=ADVANCED_BREP_SHAPE_REPRESENTATION('',(#14),#621);
#13=STYLED_ITEM('',(#638),#14);
#14=MANIFOLD_SOLID_BREP('Body1',#372);
#15=CYLINDRICAL_SURFACE('',#402,5.);
#16=TOROIDAL_SURFACE('',#391,6.87572996845538,1.5);
#17=TOROIDAL_SURFACE('',#399,6.5,1.5);
#18=FACE_BOUND('',#60,.T.);
#19=FACE_BOUND('',#63,.T.);
#20=FACE_BOUND('',#72,.T.);
#21=FACE_BOUND('',#76,.T.);
#22=FACE_BOUND('',#78,.T.);
#23=PLANE('',#389);
#24=PLANE('',#395);
#25=PLANE('',#403);
#26=PLANE('',#404);
#27=PLANE('',#405);
#28=PLANE('',#406);
#29=PLANE('',#407);
#30=PLANE('',#408);
#31=PLANE('',#409);
#32=PLANE('',#410);
#33=PLANE('',#411);
#34=PLANE('',#412);
#35=PLANE('',#413);
#36=PLANE('',#414);
#37=PLANE('',#415);
#38=FACE_OUTER_BOUND('',#58,.T.);
#39=FACE_OUTER_BOUND('',#59,.T.);
#40=FACE_OUTER_BOUND('',#61,.T.);
#41=FACE_OUTER_BOUND('',#62,.T.);
#42=FACE_OUTER_BOUND('',#64,.T.);
#43=FACE_OUTER_BOUND('',#65,.T.);
#44=FACE_OUTER_BOUND('',#66,.T.);
#45=FACE_OUTER_BOUND('',#67,.T.);
#46=FACE_OUTER_BOUND('',#68,.T.);
#47=FACE_OUTER_BOUND('',#69,.T.);
#48=FACE_OUTER_BOUND('',#70,.T.);
#49=FACE_OUTER_BOUND('',#71,.T.);
#50=FACE_OUTER_BOUND('',#73,.T.);
#51=FACE_OUTER_BOUND('',#74,.T.);
#52=FACE_OUTER_BOUND('',#75,.T.);
#53=FACE_OUTER_BOUND('',#77,.T.);
#54=FACE_OUTER_BOUND('',#79,.T.);
#55=FACE_OUTER_BOUND('',#80,.T.);
#56=FACE_OUTER_BOUND('',#81,.T.);
#57=FACE_OUTER_BOUND('',#82,.T.);
#58=EDGE_LOOP('',(#252,#253,#254,#255));
#59=EDGE_LOOP('',(#256));
#60=EDGE_LOOP('',(#257));
#61=EDGE_LOOP('',(#258,#259,#260,#261));
#62=EDGE_LOOP('',(#262));
#63=EDGE_LOOP('',(#263));
#64=EDGE_LOOP('',(#264,#265,#266,#267));
#65=EDGE_LOOP('',(#268,#269,#270,#271));
#66=EDGE_LOOP('',(#272,#273,#274,#275));
#67=EDGE_LOOP('',(#276,#277,#278,#279,#280,#281,#282,#283));
#68=EDGE_LOOP('',(#284,#285,#286,#287));
#69=EDGE_LOOP('',(#288,#289,#290,#291));
#70=EDGE_LOOP('',(#292,#293,#294,#295));
#71=EDGE_LOOP('',(#296,#297,#298,#299));
#72=EDGE_LOOP('',(#300,#301,#302,#303));
#73=EDGE_LOOP('',(#304,#305,#306,#307));
#74=EDGE_LOOP('',(#308,#309,#310,#311));
#75=EDGE_LOOP('',(#312,#313,#314,#315,#316,#317,#318,#319));
#76=EDGE_LOOP('',(#320));
#77=EDGE_LOOP('',(#321,#322,#323,#324,#325,#326,#327,#328));
#78=EDGE_LOOP('',(#329));
#79=EDGE_LOOP('',(#330,#331,#332,#333));
#80=EDGE_LOOP('',(#334,#335,#336,#337));
#81=EDGE_LOOP('',(#338,#339,#340,#341,#342,#343,#344,#345));
#82=EDGE_LOOP('',(#346,#347,#348,#349));
#83=LINE('',#522,#122);
#84=LINE('',#538,#123);
#85=LINE('',#545,#124);
#86=LINE('',#549,#125);
#87=LINE('',#551,#126);
#88=LINE('',#553,#127);
#89=LINE('',#555,#128);
#90=LINE('',#557,#129);
#91=LINE('',#559,#130);
#92=LINE('',#561,#131);
#93=LINE('',#562,#132);
#94=LINE('',#565,#133);
#95=LINE('',#567,#134);
#96=LINE('',#568,#135);
#97=LINE('',#571,#136);
#98=LINE('',#572,#137);
#99=LINE('',#575,#138);
#100=LINE('',#576,#139);
#101=LINE('',#580,#140);
#102=LINE('',#582,#141);
#103=LINE('',#584,#142);
#104=LINE('',#585,#143);
#105=LINE('',#586,#144);
#106=LINE('',#590,#145);
#107=LINE('',#592,#146);
#108=LINE('',#594,#147);
#109=LINE('',#595,#148);
#110=LINE('',#597,#149);
#111=LINE('',#598,#150);
#112=LINE('',#601,#151);
#113=LINE('',#603,#152);
#114=LINE('',#604,#153);
#115=LINE('',#605,#154);
#116=LINE('',#607,#155);
#117=LINE('',#609,#156);
#118=LINE('',#611,#157);
#119=LINE('',#612,#158);
#120=LINE('',#614,#159);
#121=LINE('',#616,#160);
#122=VECTOR('',#422,10.);
#123=VECTOR('',#443,10.);
#124=VECTOR('',#454,5.);
#125=VECTOR('',#457,10.);
#126=VECTOR('',#458,10.);
#127=VECTOR('',#459,10.);
#128=VECTOR('',#460,10.);
#129=VECTOR('',#461,10.);
#130=VECTOR('',#462,10.);
#131=VECTOR('',#463,10.);
#132=VECTOR('',#464,10.);
#133=VECTOR('',#467,10.);
#134=VECTOR('',#468,10.);
#135=VECTOR('',#469,10.);
#136=VECTOR('',#472,10.);
#137=VECTOR('',#473,10.);
#138=VECTOR('',#476,10.);
#139=VECTOR('',#477,10.);
#140=VECTOR('',#480,10.);
#141=VECTOR('',#481,10.);
#142=VECTOR('',#482,10.);
#143=VECTOR('',#483,10.);
#144=VECTOR('',#484,10.);
#145=VECTOR('',#487,10.);
#146=VECTOR('',#488,10.);
#147=VECTOR('',#489,10.);
#148=VECTOR('',#490,10.);
#149=VECTOR('',#493,10.);
#150=VECTOR('',#494,10.);
#151=VECTOR('',#497,10.);
#152=VECTOR('',#498,10.);
#153=VECTOR('',#499,10.);
#154=VECTOR('',#500,10.);
#155=VECTOR('',#503,10.);
#156=VECTOR('',#504,10.);
#157=VECTOR('',#505,10.);
#158=VECTOR('',#506,10.);
#159=VECTOR('',#509,10.);
#160=VECTOR('',#512,10.);
#161=CIRCLE('',#387,8.25022672948152);
#162=CIRCLE('',#388,10.);
#163=CIRCLE('',#390,5.);
#164=CIRCLE('',#392,8.370022015593);
#165=CIRCLE('',#393,1.5);
#166=CIRCLE('',#394,6.87572996845538);
#167=CIRCLE('',#396,6.5);
#168=CIRCLE('',#398,10.);
#169=CIRCLE('',#400,1.5);
#170=CIRCLE('',#401,5.);
#171=VERTEX_POINT('',#519);
#172=VERTEX_POINT('',#521);
#173=VERTEX_POINT('',#525);
#174=VERTEX_POINT('',#528);
#175=VERTEX_POINT('',#530);
#176=VERTEX_POINT('',#534);
#177=VERTEX_POINT('',#537);
#178=VERTEX_POINT('',#541);
#179=VERTEX_POINT('',#547);
#180=VERTEX_POINT('',#548);
#181=VERTEX_POINT('',#550);
#182=VERTEX_POINT('',#552);
#183=VERTEX_POINT('',#554);
#184=VERTEX_POINT('',#556);
#185=VERTEX_POINT('',#558);
#186=VERTEX_POINT('',#560);
#187=VERTEX_POINT('',#564);
#188=VERTEX_POINT('',#566);
#189=VERTEX_POINT('',#570);
#190=VERTEX_POINT('',#574);
#191=VERTEX_POINT('',#578);
#192=VERTEX_POINT('',#579);
#193=VERTEX_POINT('',#581);
#194=VERTEX_POINT('',#583);
#195=VERTEX_POINT('',#588);
#196=VERTEX_POINT('',#589);
#197=VERTEX_POINT('',#591);
#198=VERTEX_POINT('',#593);
#199=VERTEX_POINT('',#600);
#200=VERTEX_POINT('',#602);
#201=VERTEX_POINT('',#608);
#202=VERTEX_POINT('',#610);
#203=EDGE_CURVE('',#171,#171,#161,.T.);
#204=EDGE_CURVE('',#171,#172,#83,.T.);
#205=EDGE_CURVE('',#172,#172,#162,.T.);
#206=EDGE_CURVE('',#173,#173,#163,.T.);
#207=EDGE_CURVE('',#174,#174,#164,.T.);
#208=EDGE_CURVE('',#174,#175,#165,.T.);
#209=EDGE_CURVE('',#175,#175,#166,.T.);
#210=EDGE_CURVE('',#176,#176,#167,.T.);
#211=EDGE_CURVE('',#174,#177,#84,.T.);
#212=EDGE_CURVE('',#177,#177,#168,.T.);
#213=EDGE_CURVE('',#176,#178,#169,.T.);
#214=EDGE_CURVE('',#178,#178,#170,.T.);
#215=EDGE_CURVE('',#178,#173,#85,.T.);
#216=EDGE_CURVE('',#179,#180,#86,.T.);
#217=EDGE_CURVE('',#181,#179,#87,.T.);
#218=EDGE_CURVE('',#182,#181,#88,.T.);
#219=EDGE_CURVE('',#183,#182,#89,.T.);
#220=EDGE_CURVE('',#184,#183,#90,.T.);
#221=EDGE_CURVE('',#185,#184,#91,.T.);
#222=EDGE_CURVE('',#186,#185,#92,.T.);
#223=EDGE_CURVE('',#180,#186,#93,.T.);
#224=EDGE_CURVE('',#187,#181,#94,.T.);
#225=EDGE_CURVE('',#188,#187,#95,.T.);
#226=EDGE_CURVE('',#182,#188,#96,.T.);
#227=EDGE_CURVE('',#189,#179,#97,.T.);
#228=EDGE_CURVE('',#187,#189,#98,.T.);
#229=EDGE_CURVE('',#190,#180,#99,.T.);
#230=EDGE_CURVE('',#189,#190,#100,.T.);
#231=EDGE_CURVE('',#191,#192,#101,.T.);
#232=EDGE_CURVE('',#191,#193,#102,.T.);
#233=EDGE_CURVE('',#193,#194,#103,.T.);
#234=EDGE_CURVE('',#194,#192,#104,.T.);
#235=EDGE_CURVE('',#190,#188,#105,.T.);
#236=EDGE_CURVE('',#195,#196,#106,.T.);
#237=EDGE_CURVE('',#196,#197,#107,.T.);
#238=EDGE_CURVE('',#197,#198,#108,.T.);
#239=EDGE_CURVE('',#198,#195,#109,.T.);
#240=EDGE_CURVE('',#184,#194,#110,.T.);
#241=EDGE_CURVE('',#185,#193,#111,.T.);
#242=EDGE_CURVE('',#183,#199,#112,.T.);
#243=EDGE_CURVE('',#199,#200,#113,.T.);
#244=EDGE_CURVE('',#200,#197,#114,.T.);
#245=EDGE_CURVE('',#192,#196,#115,.T.);
#246=EDGE_CURVE('',#191,#195,#116,.T.);
#247=EDGE_CURVE('',#201,#198,#117,.T.);
#248=EDGE_CURVE('',#201,#202,#118,.T.);
#249=EDGE_CURVE('',#202,#186,#119,.T.);
#250=EDGE_CURVE('',#201,#200,#120,.T.);
#251=EDGE_CURVE('',#202,#199,#121,.T.);
#252=ORIENTED_EDGE('',*,*,#203,.T.);
#253=ORIENTED_EDGE('',*,*,#204,.T.);
#254=ORIENTED_EDGE('',*,*,#205,.F.);
#255=ORIENTED_EDGE('',*,*,#204,.F.);
#256=ORIENTED_EDGE('',*,*,#203,.F.);
#257=ORIENTED_EDGE('',*,*,#206,.T.);
#258=ORIENTED_EDGE('',*,*,#207,.T.);
#259=ORIENTED_EDGE('',*,*,#208,.T.);
#260=ORIENTED_EDGE('',*,*,#209,.T.);
#261=ORIENTED_EDGE('',*,*,#208,.F.);
#262=ORIENTED_EDGE('',*,*,#209,.F.);
#263=ORIENTED_EDGE('',*,*,#210,.F.);
#264=ORIENTED_EDGE('',*,*,#207,.F.);
#265=ORIENTED_EDGE('',*,*,#211,.T.);
#266=ORIENTED_EDGE('',*,*,#212,.F.);
#267=ORIENTED_EDGE('',*,*,#211,.F.);
#268=ORIENTED_EDGE('',*,*,#210,.T.);
#269=ORIENTED_EDGE('',*,*,#213,.T.);
#270=ORIENTED_EDGE('',*,*,#214,.T.);
#271=ORIENTED_EDGE('',*,*,#213,.F.);
#272=ORIENTED_EDGE('',*,*,#214,.F.);
#273=ORIENTED_EDGE('',*,*,#215,.T.);
#274=ORIENTED_EDGE('',*,*,#206,.F.);
#275=ORIENTED_EDGE('',*,*,#215,.F.);
#276=ORIENTED_EDGE('',*,*,#216,.F.);
#277=ORIENTED_EDGE('',*,*,#217,.F.);
#278=ORIENTED_EDGE('',*,*,#218,.F.);
#279=ORIENTED_EDGE('',*,*,#219,.F.);
#280=ORIENTED_EDGE('',*,*,#220,.F.);
#281=ORIENTED_EDGE('',*,*,#221,.F.);
#282=ORIENTED_EDGE('',*,*,#222,.F.);
#283=ORIENTED_EDGE('',*,*,#223,.F.);
#284=ORIENTED_EDGE('',*,*,#218,.T.);
#285=ORIENTED_EDGE('',*,*,#224,.F.);
#286=ORIENTED_EDGE('',*,*,#225,.F.);
#287=ORIENTED_EDGE('',*,*,#226,.F.);
#288=ORIENTED_EDGE('',*,*,#217,.T.);
#289=ORIENTED_EDGE('',*,*,#227,.F.);
#290=ORIENTED_EDGE('',*,*,#228,.F.);
#291=ORIENTED_EDGE('',*,*,#224,.T.);
#292=ORIENTED_EDGE('',*,*,#216,.T.);
#293=ORIENTED_EDGE('',*,*,#229,.F.);
#294=ORIENTED_EDGE('',*,*,#230,.F.);
#295=ORIENTED_EDGE('',*,*,#227,.T.);
#296=ORIENTED_EDGE('',*,*,#231,.F.);
#297=ORIENTED_EDGE('',*,*,#232,.T.);
#298=ORIENTED_EDGE('',*,*,#233,.T.);
#299=ORIENTED_EDGE('',*,*,#234,.T.);
#300=ORIENTED_EDGE('',*,*,#235,.T.);
#301=ORIENTED_EDGE('',*,*,#225,.T.);
#302=ORIENTED_EDGE('',*,*,#228,.T.);
#303=ORIENTED_EDGE('',*,*,#230,.T.);
#304=ORIENTED_EDGE('',*,*,#236,.T.);
#305=ORIENTED_EDGE('',*,*,#237,.T.);
#306=ORIENTED_EDGE('',*,*,#238,.T.);
#307=ORIENTED_EDGE('',*,*,#239,.T.);
#308=ORIENTED_EDGE('',*,*,#221,.T.);
#309=ORIENTED_EDGE('',*,*,#240,.T.);
#310=ORIENTED_EDGE('',*,*,#233,.F.);
#311=ORIENTED_EDGE('',*,*,#241,.F.);
#312=ORIENTED_EDGE('',*,*,#242,.T.);
#313=ORIENTED_EDGE('',*,*,#243,.T.);
#314=ORIENTED_EDGE('',*,*,#244,.T.);
#315=ORIENTED_EDGE('',*,*,#237,.F.);
#316=ORIENTED_EDGE('',*,*,#245,.F.);
#317=ORIENTED_EDGE('',*,*,#234,.F.);
#318=ORIENTED_EDGE('',*,*,#240,.F.);
#319=ORIENTED_EDGE('',*,*,#220,.T.);
#320=ORIENTED_EDGE('',*,*,#212,.T.);
#321=ORIENTED_EDGE('',*,*,#222,.T.);
#322=ORIENTED_EDGE('',*,*,#241,.T.);
#323=ORIENTED_EDGE('',*,*,#232,.F.);
#324=ORIENTED_EDGE('',*,*,#246,.T.);
#325=ORIENTED_EDGE('',*,*,#239,.F.);
#326=ORIENTED_EDGE('',*,*,#247,.F.);
#327=ORIENTED_EDGE('',*,*,#248,.T.);
#328=ORIENTED_EDGE('',*,*,#249,.T.);
#329=ORIENTED_EDGE('',*,*,#205,.T.);
#330=ORIENTED_EDGE('',*,*,#244,.F.);
#331=ORIENTED_EDGE('',*,*,#250,.F.);
#332=ORIENTED_EDGE('',*,*,#247,.T.);
#333=ORIENTED_EDGE('',*,*,#238,.F.);
#334=ORIENTED_EDGE('',*,*,#251,.F.);
#335=ORIENTED_EDGE('',*,*,#248,.F.);
#336=ORIENTED_EDGE('',*,*,#250,.T.);
#337=ORIENTED_EDGE('',*,*,#243,.F.);
#338=ORIENTED_EDGE('',*,*,#251,.T.);
#339=ORIENTED_EDGE('',*,*,#242,.F.);
#340=ORIENTED_EDGE('',*,*,#219,.T.);
#341=ORIENTED_EDGE('',*,*,#226,.T.);
#342=ORIENTED_EDGE('',*,*,#235,.F.);
#343=ORIENTED_EDGE('',*,*,#229,.T.);
#344=ORIENTED_EDGE('',*,*,#223,.T.);
#345=ORIENTED_EDGE('',*,*,#249,.F.);
#346=ORIENTED_EDGE('',*,*,#231,.T.);
#347=ORIENTED_EDGE('',*,*,#245,.T.);
#348=ORIENTED_EDGE('',*,*,#236,.F.);
#349=ORIENTED_EDGE('',*,*,#246,.F.);
#350=CONICAL_SURFACE('',#386,10.,0.0872664625997165);
#351=CONICAL_SURFACE('',#397,10.,0.0872664625997165);
#352=ADVANCED_FACE('',(#38),#350,.T.);
#353=ADVANCED_FACE('',(#39,#18),#23,.T.);
#354=ADVANCED_FACE('',(#40),#16,.T.);
#355=ADVANCED_FACE('',(#41,#19),#24,.T.);
#356=ADVANCED_FACE('',(#42),#351,.T.);
#357=ADVANCED_FACE('',(#43),#17,.T.);
#358=ADVANCED_FACE('',(#44),#15,.F.);
#359=ADVANCED_FACE('',(#45),#25,.F.);
#360=ADVANCED_FACE('',(#46),#26,.F.);
#361=ADVANCED_FACE('',(#47),#27,.F.);
#362=ADVANCED_FACE('',(#48),#28,.F.);
#363=ADVANCED_FACE('',(#49,#20),#29,.T.);
#364=ADVANCED_FACE('',(#50),#30,.T.);
#365=ADVANCED_FACE('',(#51),#31,.T.);
#366=ADVANCED_FACE('',(#52,#21),#32,.T.);
#367=ADVANCED_FACE('',(#53,#22),#33,.T.);
#368=ADVANCED_FACE('',(#54),#34,.T.);
#369=ADVANCED_FACE('',(#55),#35,.T.);
#370=ADVANCED_FACE('',(#56),#36,.T.);
#371=ADVANCED_FACE('',(#57),#37,.T.);
#372=CLOSED_SHELL('',(#352,#353,#354,#355,#356,#357,#358,#359,#360,#361,
#362,#363,#364,#365,#366,#367,#368,#369,#370,#371));
#373=DERIVED_UNIT_ELEMENT(#375,1.);
#374=DERIVED_UNIT_ELEMENT(#624,-3.);
#375=(
MASS_UNIT()
NAMED_UNIT(*)
SI_UNIT(.KILO.,.GRAM.)
);
#376=DERIVED_UNIT((#373,#374));
#377=MEASURE_REPRESENTATION_ITEM('density measure',
POSITIVE_RATIO_MEASURE(7850.),#376);
#378=PROPERTY_DEFINITION_REPRESENTATION(#383,#380);
#379=PROPERTY_DEFINITION_REPRESENTATION(#384,#381);
#380=REPRESENTATION('material name',(#382),#621);
#381=REPRESENTATION('density',(#377),#621);
#382=DESCRIPTIVE_REPRESENTATION_ITEM('Steel','Steel');
#383=PROPERTY_DEFINITION('material property','material name',#631);
#384=PROPERTY_DEFINITION('material property','density of part',#631);
#385=AXIS2_PLACEMENT_3D('',#517,#416,#417);
#386=AXIS2_PLACEMENT_3D('',#518,#418,#419);
#387=AXIS2_PLACEMENT_3D('',#520,#420,#421);
#388=AXIS2_PLACEMENT_3D('',#523,#423,#424);
#389=AXIS2_PLACEMENT_3D('',#524,#425,#426);
#390=AXIS2_PLACEMENT_3D('',#526,#427,#428);
#391=AXIS2_PLACEMENT_3D('',#527,#429,#430);
#392=AXIS2_PLACEMENT_3D('',#529,#431,#432);
#393=AXIS2_PLACEMENT_3D('',#531,#433,#434);
#394=AXIS2_PLACEMENT_3D('',#532,#435,#436);
#395=AXIS2_PLACEMENT_3D('',#533,#437,#438);
#396=AXIS2_PLACEMENT_3D('',#535,#439,#440);
#397=AXIS2_PLACEMENT_3D('',#536,#441,#442);
#398=AXIS2_PLACEMENT_3D('',#539,#444,#445);
#399=AXIS2_PLACEMENT_3D('',#540,#446,#447);
#400=AXIS2_PLACEMENT_3D('',#542,#448,#449);
#401=AXIS2_PLACEMENT_3D('',#543,#450,#451);
#402=AXIS2_PLACEMENT_3D('',#544,#452,#453);
#403=AXIS2_PLACEMENT_3D('',#546,#455,#456);
#404=AXIS2_PLACEMENT_3D('',#563,#465,#466);
#405=AXIS2_PLACEMENT_3D('',#569,#470,#471);
#406=AXIS2_PLACEMENT_3D('',#573,#474,#475);
#407=AXIS2_PLACEMENT_3D('',#577,#478,#479);
#408=AXIS2_PLACEMENT_3D('',#587,#485,#486);
#409=AXIS2_PLACEMENT_3D('',#596,#491,#492);
#410=AXIS2_PLACEMENT_3D('',#599,#495,#496);
#411=AXIS2_PLACEMENT_3D('',#606,#501,#502);
#412=AXIS2_PLACEMENT_3D('',#613,#507,#508);
#413=AXIS2_PLACEMENT_3D('',#615,#510,#511);
#414=AXIS2_PLACEMENT_3D('',#617,#513,#514);
#415=AXIS2_PLACEMENT_3D('',#618,#515,#516);
#416=DIRECTION('axis',(0.,0.,1.));
#417=DIRECTION('refdir',(1.,0.,0.));
#418=DIRECTION('center_axis',(0.,0.,-1.));
#419=DIRECTION('ref_axis',(1.,0.,0.));
#420=DIRECTION('center_axis',(0.,0.,-1.));
#421=DIRECTION('ref_axis',(1.,0.,0.));
#422=DIRECTION('',(-0.0871557427476582,-1.0673500138323E-17,-0.996194698091746));
#423=DIRECTION('center_axis',(0.,0.,-1.));
#424=DIRECTION('ref_axis',(1.,0.,0.));
#425=DIRECTION('center_axis',(0.,0.,1.));
#426=DIRECTION('ref_axis',(1.,0.,0.));
#427=DIRECTION('center_axis',(0.,0.,-1.));
#428=DIRECTION('ref_axis',(-1.,0.,0.));
#429=DIRECTION('center_axis',(0.,0.,1.));
#430=DIRECTION('ref_axis',(1.,0.,0.));
#431=DIRECTION('center_axis',(0.,0.,-1.));
#432=DIRECTION('ref_axis',(1.,0.,0.));
#433=DIRECTION('center_axis',(0.,-1.,0.));
#434=DIRECTION('ref_axis',(-1.,0.,0.));
#435=DIRECTION('center_axis',(0.,0.,1.));
#436=DIRECTION('ref_axis',(1.,0.,0.));
#437=DIRECTION('center_axis',(0.,0.,-1.));
#438=DIRECTION('ref_axis',(1.,0.,0.));
#439=DIRECTION('center_axis',(0.,0.,-1.));
#440=DIRECTION('ref_axis',(1.,0.,0.));
#441=DIRECTION('center_axis',(0.,0.,1.));
#442=DIRECTION('ref_axis',(1.,0.,0.));
#443=DIRECTION('',(-0.0871557427476582,1.0673500138323E-17,0.996194698091746));
#444=DIRECTION('center_axis',(0.,0.,1.));
#445=DIRECTION('ref_axis',(1.,0.,0.));
#446=DIRECTION('center_axis',(0.,0.,1.));
#447=DIRECTION('ref_axis',(1.,0.,0.));
#448=DIRECTION('center_axis',(0.,-1.,0.));
#449=DIRECTION('ref_axis',(-1.,0.,0.));
#450=DIRECTION('center_axis',(0.,0.,1.));
#451=DIRECTION('ref_axis',(1.,0.,0.));
#452=DIRECTION('center_axis',(0.,0.,1.));
#453=DIRECTION('ref_axis',(1.,0.,0.));
#454=DIRECTION('',(0.,0.,1.));
#455=DIRECTION('center_axis',(1.,0.,0.));
#456=DIRECTION('ref_axis',(0.,0.,-1.));
#457=DIRECTION('',(0.,1.,0.));
#458=DIRECTION('',(0.,0.,1.));
#459=DIRECTION('',(0.,-1.,0.));
#460=DIRECTION('',(0.,0.,1.));
#461=DIRECTION('',(0.,1.,0.));
#462=DIRECTION('',(0.,0.,-1.));
#463=DIRECTION('',(0.,-1.,0.));
#464=DIRECTION('',(0.,0.,1.));
#465=DIRECTION('center_axis',(0.,0.,-1.));
#466=DIRECTION('ref_axis',(0.,-1.,0.));
#467=DIRECTION('',(-1.,0.,0.));
#468=DIRECTION('',(0.,-1.,0.));
#469=DIRECTION('',(1.,0.,0.));
#470=DIRECTION('center_axis',(0.,-1.,0.));
#471=DIRECTION('ref_axis',(0.,0.,1.));
#472=DIRECTION('',(-1.,0.,0.));
#473=DIRECTION('',(0.,0.,1.));
#474=DIRECTION('center_axis',(0.,0.,1.));
#475=DIRECTION('ref_axis',(0.,1.,0.));
#476=DIRECTION('',(-1.,0.,0.));
#477=DIRECTION('',(0.,1.,0.));
#478=DIRECTION('center_axis',(1.,0.,0.));
#479=DIRECTION('ref_axis',(0.,0.,-1.));
#480=DIRECTION('',(0.,0.,-1.));
#481=DIRECTION('',(0.,-1.,0.));
#482=DIRECTION('',(0.,0.,-1.));
#483=DIRECTION('',(0.,1.,0.));
#484=DIRECTION('',(0.,0.,-1.));
#485=DIRECTION('center_axis',(1.,0.,0.));
#486=DIRECTION('ref_axis',(0.,0.,-1.));
#487=DIRECTION('',(0.,0.,-1.));
#488=DIRECTION('',(0.,1.,0.));
#489=DIRECTION('',(0.,0.,1.));
#490=DIRECTION('',(0.,-1.,0.));
#491=DIRECTION('center_axis',(0.,-1.,0.));
#492=DIRECTION('ref_axis',(0.,0.,-1.));
#493=DIRECTION('',(1.,0.,0.));
#494=DIRECTION('',(1.,0.,0.));
#495=DIRECTION('center_axis',(0.,0.,-1.));
#496=DIRECTION('ref_axis',(-1.,0.,0.));
#497=DIRECTION('',(-1.,0.,0.));
#498=DIRECTION('',(0.,1.,0.));
#499=DIRECTION('',(1.,0.,0.));
#500=DIRECTION('',(1.,0.,0.));
#501=DIRECTION('center_axis',(0.,0.,1.));
#502=DIRECTION('ref_axis',(1.,0.,0.));
#503=DIRECTION('',(1.,0.,0.));
#504=DIRECTION('',(1.,0.,0.));
#505=DIRECTION('',(0.,-1.,0.));
#506=DIRECTION('',(1.,0.,0.));
#507=DIRECTION('center_axis',(0.,1.,0.));
#508=DIRECTION('ref_axis',(0.,0.,1.));
#509=DIRECTION('',(0.,0.,-1.));
#510=DIRECTION('center_axis',(-1.,0.,0.));
#511=DIRECTION('ref_axis',(0.,0.,1.));
#512=DIRECTION('',(0.,0.,-1.));
#513=DIRECTION('center_axis',(0.,-1.,0.));
#514=DIRECTION('ref_axis',(0.,0.,1.));
#515=DIRECTION('center_axis',(0.,-1.,0.));
#516=DIRECTION('ref_axis',(0.,0.,-1.));
#517=CARTESIAN_POINT('',(0.,0.,0.));
#518=CARTESIAN_POINT('Origin',(-34.4683975998713,24.0379705267732,14.25));
#519=CARTESIAN_POINT('',(-42.7186243293528,24.0379705267732,34.25));
#520=CARTESIAN_POINT('Origin',(-34.4683975998713,24.0379705267732,34.25));
#521=CARTESIAN_POINT('',(-44.4683975998713,24.0379705267732,14.25));
#522=CARTESIAN_POINT('',(-44.4683975998713,24.0379705267732,14.25));
#523=CARTESIAN_POINT('Origin',(-34.4683975998713,24.0379705267732,14.25));
#524=CARTESIAN_POINT('Origin',(-34.4683975998713,24.0379705267732,34.25));
#525=CARTESIAN_POINT('',(-39.3971225138514,24.0108990716149,34.25));
#526=CARTESIAN_POINT('Origin',(-34.3971225138514,24.0108990716149,34.25));
#527=CARTESIAN_POINT('Origin',(-34.5000005140901,24.0000003576279,-26.25));
#528=CARTESIAN_POINT('',(-42.8700225296831,24.0000003576279,-26.3807336141215));
#529=CARTESIAN_POINT('Origin',(-34.5000005140901,24.0000003576279,-26.3807336141215));
#530=CARTESIAN_POINT('',(-41.3757304825454,24.0000003576279,-27.75));
#531=CARTESIAN_POINT('Origin',(-41.3757304825454,24.0000003576279,-26.25));
#532=CARTESIAN_POINT('Origin',(-34.5000005140901,24.0000003576279,-27.75));
#533=CARTESIAN_POINT('Origin',(-34.5000005140901,24.0000003576279,-27.75));
#534=CARTESIAN_POINT('',(-40.8971225138514,24.0108990716149,-27.75));
#535=CARTESIAN_POINT('Origin',(-34.3971225138514,24.0108990716149,-27.75));
#536=CARTESIAN_POINT('Origin',(-34.5000005140901,24.0000003576279,-7.75));
#537=CARTESIAN_POINT('',(-44.5000005140901,24.0000003576279,-7.75));
#538=CARTESIAN_POINT('',(-44.5000005140901,24.0000003576279,-7.75));
#539=CARTESIAN_POINT('Origin',(-34.5000005140901,24.0000003576279,-7.75));
#540=CARTESIAN_POINT('Origin',(-34.3971225138514,24.0108990716149,-26.25));
#541=CARTESIAN_POINT('',(-39.3971225138514,24.0108990716149,-26.25));
#542=CARTESIAN_POINT('Origin',(-40.8971225138514,24.0108990716149,-26.25));
#543=CARTESIAN_POINT('Origin',(-34.3971225138514,24.0108990716149,-26.25));
#544=CARTESIAN_POINT('Origin',(-34.3971225138514,24.0108990716149,0.));
#545=CARTESIAN_POINT('',(-39.3971225138514,24.0108990716149,0.));
#546=CARTESIAN_POINT('Origin',(25.,25.,0.));
#547=CARTESIAN_POINT('',(25.,-15.0000002235174,7.00000010430813));
#548=CARTESIAN_POINT('',(25.,13.0000001937151,7.00000010430813));
#549=CARTESIAN_POINT('',(25.,4.99999988824129,7.00000010430813));
#550=CARTESIAN_POINT('',(25.,-15.0000002235174,2.00000002980232));
#551=CARTESIAN_POINT('',(25.,-15.0000002235174,1.00000001490116));
#552=CARTESIAN_POINT('',(25.,13.0000001937151,2.00000002980232));
#553=CARTESIAN_POINT('',(25.,19.0000000968575,2.00000002980232));
#554=CARTESIAN_POINT('',(25.,13.0000001937151,-7.74999998509884));
#555=CARTESIAN_POINT('',(25.,13.0000001937151,-0.999999985098839));
#556=CARTESIAN_POINT('',(25.,-19.,-7.75));
#557=CARTESIAN_POINT('',(25.,12.5,-7.75));
#558=CARTESIAN_POINT('',(25.,-19.,14.25));
#559=CARTESIAN_POINT('',(25.,-19.,0.));
#560=CARTESIAN_POINT('',(25.,13.0000001937151,14.25));
#561=CARTESIAN_POINT('',(25.,15.5,14.25));
#562=CARTESIAN_POINT('',(25.,13.0000001937151,-0.999999985098839));
#563=CARTESIAN_POINT('Origin',(25.,13.0000001937151,2.00000002980232));
#564=CARTESIAN_POINT('',(75.,-15.0000002235174,2.00000002980232));
#565=CARTESIAN_POINT('',(25.,-15.0000002235174,2.00000002980232));
#566=CARTESIAN_POINT('',(75.,13.0000001937151,2.00000002980232));
#567=CARTESIAN_POINT('',(75.,-5.99999990314245,2.00000002980232));
#568=CARTESIAN_POINT('',(25.,13.0000001937151,2.00000002980232));
#569=CARTESIAN_POINT('Origin',(25.,-15.0000002235174,2.00000002980232));
#570=CARTESIAN_POINT('',(75.,-15.0000002235174,7.00000010430813));
#571=CARTESIAN_POINT('',(25.,-15.0000002235174,7.00000010430813));
#572=CARTESIAN_POINT('',(75.,-15.0000002235174,1.00000001490116));
#573=CARTESIAN_POINT('Origin',(25.,-15.0000002235174,7.00000010430813));
#574=CARTESIAN_POINT('',(75.,13.0000001937151,7.00000010430813));
#575=CARTESIAN_POINT('',(25.,13.0000001937151,7.00000010430813));
#576=CARTESIAN_POINT('',(75.,-20.0000001117587,7.00000010430813));
#577=CARTESIAN_POINT('Origin',(75.,-25.,0.));
#578=CARTESIAN_POINT('',(75.,15.0000002235174,14.25));
#579=CARTESIAN_POINT('',(75.,15.0000002235174,-7.75));
#580=CARTESIAN_POINT('',(75.,15.0000002235174,5.00000007450581));
#581=CARTESIAN_POINT('',(75.,-19.,14.25));
#582=CARTESIAN_POINT('',(75.,-17.,14.25));
#583=CARTESIAN_POINT('',(75.,-19.,-7.75));
#584=CARTESIAN_POINT('',(75.,-19.,-1.));
#585=CARTESIAN_POINT('',(75.,25.,-7.75));
#586=CARTESIAN_POINT('',(75.,13.0000001937151,3.50000005215406));
#587=CARTESIAN_POINT('Origin',(96.,17.5000001117587,5.00000007450581));
#588=CARTESIAN_POINT('',(96.,15.0000002235174,14.25));
#589=CARTESIAN_POINT('',(96.,15.0000002235174,-7.75));
#590=CARTESIAN_POINT('',(96.,15.0000002235174,10.));
#591=CARTESIAN_POINT('',(96.,35.,-7.75));
#592=CARTESIAN_POINT('',(96.,27.,-7.75));
#593=CARTESIAN_POINT('',(96.,35.,14.25));
#594=CARTESIAN_POINT('',(96.,35.,12.));
#595=CARTESIAN_POINT('',(96.,15.0000002235174,14.25));
#596=CARTESIAN_POINT('Origin',(-25.,-19.,0.));
#597=CARTESIAN_POINT('',(-12.5,-19.,-7.75));
#598=CARTESIAN_POINT('',(25.,-19.,14.25));
#599=CARTESIAN_POINT('Origin',(0.,0.,-7.75));
#600=CARTESIAN_POINT('',(-46.,13.0000001937151,-7.74999998509884));
#601=CARTESIAN_POINT('',(-12.5,13.0000001937151,-7.75));
#602=CARTESIAN_POINT('',(-46.,35.,-7.74999998509884));
#603=CARTESIAN_POINT('',(-46.,13.0000001937151,-7.74999998509884));
#604=CARTESIAN_POINT('',(45.,35.,-7.75));
#605=CARTESIAN_POINT('',(75.,15.0000002235174,-7.75));
#606=CARTESIAN_POINT('Origin',(25.,6.,14.25));
#607=CARTESIAN_POINT('',(25.,15.0000002235174,14.25));
#608=CARTESIAN_POINT('',(-46.,35.,14.25));
#609=CARTESIAN_POINT('',(75.,35.,14.25));
#610=CARTESIAN_POINT('',(-46.,13.0000001937151,14.25));
#611=CARTESIAN_POINT('',(-46.,27.,14.25));
#612=CARTESIAN_POINT('',(-25.,13.0000001937151,14.25));
#613=CARTESIAN_POINT('Origin',(25.,35.,0.));
#614=CARTESIAN_POINT('',(-46.,35.,-2.99999998509884));
#615=CARTESIAN_POINT('Origin',(-46.,20.0000000968575,6.00000000745058));
#616=CARTESIAN_POINT('',(-46.,13.0000001937151,1.00000001490116));
#617=CARTESIAN_POINT('Origin',(-25.,13.0000001937151,1.00000001490116));
#618=CARTESIAN_POINT('Origin',(25.,15.0000002235174,10.0000001490116));
#619=UNCERTAINTY_MEASURE_WITH_UNIT(LENGTH_MEASURE(0.01),#623,
'DISTANCE_ACCURACY_VALUE',
'Maximum model space distance between geometric entities at asserted c
onnectivities');
#620=UNCERTAINTY_MEASURE_WITH_UNIT(LENGTH_MEASURE(0.01),#623,
'DISTANCE_ACCURACY_VALUE',
'Maximum model space distance between geometric entities at asserted c
onnectivities');
#621=(
GEOMETRIC_REPRESENTATION_CONTEXT(3)
GLOBAL_UNCERTAINTY_ASSIGNED_CONTEXT((#619))
GLOBAL_UNIT_ASSIGNED_CONTEXT((#623,#625,#626))
REPRESENTATION_CONTEXT('','3D')
);
#622=(
GEOMETRIC_REPRESENTATION_CONTEXT(3)
GLOBAL_UNCERTAINTY_ASSIGNED_CONTEXT((#620))
GLOBAL_UNIT_ASSIGNED_CONTEXT((#623,#625,#626))
REPRESENTATION_CONTEXT('','3D')
);
#623=(
LENGTH_UNIT()
NAMED_UNIT(*)
SI_UNIT(.MILLI.,.METRE.)
);
#624=(
LENGTH_UNIT()
NAMED_UNIT(*)
SI_UNIT($,.METRE.)
);
#625=(
NAMED_UNIT(*)
PLANE_ANGLE_UNIT()
SI_UNIT($,.RADIAN.)
);
#626=(
NAMED_UNIT(*)
SI_UNIT($,.STERADIAN.)
SOLID_ANGLE_UNIT()
);
#627=SHAPE_DEFINITION_REPRESENTATION(#628,#629);
#628=PRODUCT_DEFINITION_SHAPE('',$,#631);
#629=SHAPE_REPRESENTATION('',(#385),#621);
#630=PRODUCT_DEFINITION_CONTEXT('part definition',#635,'design');
#631=PRODUCT_DEFINITION('(Unsaved)','(Unsaved)',#632,#630);
#632=PRODUCT_DEFINITION_FORMATION('',$,#637);
#633=PRODUCT_RELATED_PRODUCT_CATEGORY('(Unsaved)','(Unsaved)',(#637));
#634=APPLICATION_PROTOCOL_DEFINITION('international standard',
'automotive_design',2009,#635);
#635=APPLICATION_CONTEXT(
'Core Data for Automotive Mechanical Design Process');
#636=PRODUCT_CONTEXT('part definition',#635,'mechanical');
#637=PRODUCT('(Unsaved)','(Unsaved)',$,(#636));
#638=PRESENTATION_STYLE_ASSIGNMENT((#639));
#639=SURFACE_STYLE_USAGE(.BOTH.,#640);
#640=SURFACE_SIDE_STYLE('',(#641));
#641=SURFACE_STYLE_FILL_AREA(#642);
#642=FILL_AREA_STYLE('Steel - Satin',(#643));
#643=FILL_AREA_STYLE_COLOUR('Steel - Satin',#644);
#644=COLOUR_RGB('Steel - Satin',0.627450980392157,0.627450980392157,0.627450980392157);
ENDSEC;
END-ISO-10303-21;
