ISO-10303-21;
HEADER;
/* Generated by software containing ST-Developer
 * from STEP Tools, Inc. (www.steptools.com) 
 */

FILE_DESCRIPTION(
/* description */ (''),
/* implementation_level */ '2;1');

FILE_NAME(
/* name */ 'spherica.step',
/* time_stamp */ '2026-07-02T14:47:51+05:30',
/* author */ (''),
/* organization */ (''),
/* preprocessor_version */ 'ST-DEVELOPER v20.1',
/* originating_system */ 'Autodesk Translation Framework v15.8.0.0',
/* authorisation */ '');

FILE_SCHEMA (('AUTOMOTIVE_DESIGN { 1 0 10303 214 3 1 1 }'));
ENDSEC;

DATA;
#10=MECHANICAL_DESIGN_GEOMETRIC_PRESENTATION_REPRESENTATION('',(#13),#115);
#11=SHAPE_REPRESENTATION_RELATIONSHIP('SRR','None',#122,#12);
#12=ADVANCED_BREP_SHAPE_REPRESENTATION('',(#14),#114);
#13=STYLED_ITEM('',(#131),#14);
#14=MANIFOLD_SOLID_BREP('Body1',#57);
#15=FACE_BOUND('',#24,.T.);
#16=FACE_BOUND('',#26,.T.);
#17=SPHERICAL_SURFACE('',#75,50.);
#18=SPHERICAL_SURFACE('',#77,62.5);
#19=FACE_OUTER_BOUND('',#22,.T.);
#20=FACE_OUTER_BOUND('',#23,.T.);
#21=FACE_OUTER_BOUND('',#25,.T.);
#22=EDGE_LOOP('',(#43,#44,#45,#46));
#23=EDGE_LOOP('',(#47,#48));
#24=EDGE_LOOP('',(#49));
#25=EDGE_LOOP('',(#50,#51));
#26=EDGE_LOOP('',(#52));
#27=CIRCLE('',#72,54.4972820704924);
#28=CIRCLE('',#73,2.5);
#29=CIRCLE('',#74,49.8260864644502);
#30=CIRCLE('',#76,50.);
#31=CIRCLE('',#78,62.5);
#32=VERTEX_POINT('',#99);
#33=VERTEX_POINT('',#101);
#34=VERTEX_POINT('',#105);
#35=VERTEX_POINT('',#106);
#36=VERTEX_POINT('',#109);
#37=VERTEX_POINT('',#110);
#38=EDGE_CURVE('',#32,#32,#27,.T.);
#39=EDGE_CURVE('',#32,#33,#28,.T.);
#40=EDGE_CURVE('',#33,#33,#29,.T.);
#41=EDGE_CURVE('',#34,#35,#30,.T.);
#42=EDGE_CURVE('',#36,#37,#31,.T.);
#43=ORIENTED_EDGE('',*,*,#38,.T.);
#44=ORIENTED_EDGE('',*,*,#39,.T.);
#45=ORIENTED_EDGE('',*,*,#40,.T.);
#46=ORIENTED_EDGE('',*,*,#39,.F.);
#47=ORIENTED_EDGE('',*,*,#41,.T.);
#48=ORIENTED_EDGE('',*,*,#41,.F.);
#49=ORIENTED_EDGE('',*,*,#40,.F.);
#50=ORIENTED_EDGE('',*,*,#42,.T.);
#51=ORIENTED_EDGE('',*,*,#42,.F.);
#52=ORIENTED_EDGE('',*,*,#38,.F.);
#53=TOROIDAL_SURFACE('',#71,52.3173907876727,2.5);
#54=ADVANCED_FACE('',(#19),#53,.T.);
#55=ADVANCED_FACE('',(#20,#15),#17,.F.);
#56=ADVANCED_FACE('',(#21,#16),#18,.T.);
#57=CLOSED_SHELL('',(#54,#55,#56));
#58=DERIVED_UNIT_ELEMENT(#60,1.);
#59=DERIVED_UNIT_ELEMENT(#117,-3.);
#60=(
MASS_UNIT()
NAMED_UNIT(*)
SI_UNIT(.KILO.,.GRAM.)
);
#61=DERIVED_UNIT((#58,#59));
#62=MEASURE_REPRESENTATION_ITEM('density measure',
POSITIVE_RATIO_MEASURE(7850.),#61);
#63=PROPERTY_DEFINITION_REPRESENTATION(#68,#65);
#64=PROPERTY_DEFINITION_REPRESENTATION(#69,#66);
#65=REPRESENTATION('material name',(#67),#114);
#66=REPRESENTATION('density',(#62),#114);
#67=DESCRIPTIVE_REPRESENTATION_ITEM('Steel','Steel');
#68=PROPERTY_DEFINITION('material property','material name',#124);
#69=PROPERTY_DEFINITION('material property','density of part',#124);
#70=AXIS2_PLACEMENT_3D('',#97,#79,#80);
#71=AXIS2_PLACEMENT_3D('',#98,#81,#82);
#72=AXIS2_PLACEMENT_3D('',#100,#83,#84);
#73=AXIS2_PLACEMENT_3D('',#102,#85,#86);
#74=AXIS2_PLACEMENT_3D('',#103,#87,#88);
#75=AXIS2_PLACEMENT_3D('',#104,#89,#90);
#76=AXIS2_PLACEMENT_3D('',#107,#91,#92);
#77=AXIS2_PLACEMENT_3D('',#108,#93,#94);
#78=AXIS2_PLACEMENT_3D('',#111,#95,#96);
#79=DIRECTION('axis',(0.,0.,1.));
#80=DIRECTION('refdir',(1.,0.,0.));
#81=DIRECTION('center_axis',(-1.,0.,0.));
#82=DIRECTION('ref_axis',(0.,0.,1.));
#83=DIRECTION('center_axis',(1.,0.,0.));
#84=DIRECTION('ref_axis',(0.,0.,-1.));
#85=DIRECTION('center_axis',(0.,-1.,1.22464679914735E-16));
#86=DIRECTION('ref_axis',(0.,-1.22464679914735E-16,-1.));
#87=DIRECTION('center_axis',(-1.,0.,0.));
#88=DIRECTION('ref_axis',(0.,0.,-1.));
#89=DIRECTION('center_axis',(7.105427357601E-17,0.,1.));
#90=DIRECTION('ref_axis',(1.,0.,0.));
#91=DIRECTION('center_axis',(-1.22464679914735E-16,1.,0.));
#92=DIRECTION('ref_axis',(-1.,-1.22464679914735E-16,0.));
#93=DIRECTION('center_axis',(6.12323399573677E-17,0.,1.));
#94=DIRECTION('ref_axis',(1.,0.,0.));
#95=DIRECTION('center_axis',(1.22464679914735E-16,-1.,0.));
#96=DIRECTION('ref_axis',(-1.,-1.22464679914735E-16,0.));
#97=CARTESIAN_POINT('',(0.,0.,0.));
#98=CARTESIAN_POINT('Origin',(29.3749999348074,0.,0.));
#99=CARTESIAN_POINT('',(30.5989582654244,-6.6739922049859E-15,-54.4972820704924));
#100=CARTESIAN_POINT('Origin',(30.5989582654244,0.,0.));
#101=CARTESIAN_POINT('',(29.1666666223179,-6.10193573027282E-15,-49.8260864644502));
#102=CARTESIAN_POINT('Origin',(29.3749999348074,-6.40703251678646E-15,-52.3173907876727));
#103=CARTESIAN_POINT('Origin',(29.1666666223179,0.,0.));
#104=CARTESIAN_POINT('Origin',(25.000000372529,0.,0.));
#105=CARTESIAN_POINT('',(25.000000372529,-3.74939945665464E-31,-50.));
#106=CARTESIAN_POINT('',(25.000000372529,-3.74939945665464E-31,50.));
#107=CARTESIAN_POINT('Origin',(25.000000372529,0.,0.));
#108=CARTESIAN_POINT('Origin',(0.,0.,0.));
#109=CARTESIAN_POINT('',(-3.82702124733548E-15,-4.68674932081831E-31,62.5));
#110=CARTESIAN_POINT('',(-3.82702124733548E-15,-4.68674932081831E-31,-62.5));
#111=CARTESIAN_POINT('Origin',(0.,0.,0.));
#112=UNCERTAINTY_MEASURE_WITH_UNIT(LENGTH_MEASURE(0.01),#116,
'DISTANCE_ACCURACY_VALUE',
'Maximum model space distance between geometric entities at asserted c
onnectivities');
#113=UNCERTAINTY_MEASURE_WITH_UNIT(LENGTH_MEASURE(0.01),#116,
'DISTANCE_ACCURACY_VALUE',
'Maximum model space distance between geometric entities at asserted c
onnectivities');
#114=(
GEOMETRIC_REPRESENTATION_CONTEXT(3)
GLOBAL_UNCERTAINTY_ASSIGNED_CONTEXT((#112))
GLOBAL_UNIT_ASSIGNED_CONTEXT((#116,#118,#119))
REPRESENTATION_CONTEXT('','3D')
);
#115=(
GEOMETRIC_REPRESENTATION_CONTEXT(3)
GLOBAL_UNCERTAINTY_ASSIGNED_CONTEXT((#113))
GLOBAL_UNIT_ASSIGNED_CONTEXT((#116,#118,#119))
REPRESENTATION_CONTEXT('','3D')
);
#116=(
LENGTH_UNIT()
NAMED_UNIT(*)
SI_UNIT(.MILLI.,.METRE.)
);
#117=(
LENGTH_UNIT()
NAMED_UNIT(*)
SI_UNIT($,.METRE.)
);
#118=(
NAMED_UNIT(*)
PLANE_ANGLE_UNIT()
SI_UNIT($,.RADIAN.)
);
#119=(
NAMED_UNIT(*)
SI_UNIT($,.STERADIAN.)
SOLID_ANGLE_UNIT()
);
#120=SHAPE_DEFINITION_REPRESENTATION(#121,#122);
#121=PRODUCT_DEFINITION_SHAPE('',$,#124);
#122=SHAPE_REPRESENTATION('',(#70),#114);
#123=PRODUCT_DEFINITION_CONTEXT('part definition',#128,'design');
#124=PRODUCT_DEFINITION('(Unsaved)','(Unsaved)',#125,#123);
#125=PRODUCT_DEFINITION_FORMATION('',$,#130);
#126=PRODUCT_RELATED_PRODUCT_CATEGORY('(Unsaved)','(Unsaved)',(#130));
#127=APPLICATION_PROTOCOL_DEFINITION('international standard',
'automotive_design',2009,#128);
#128=APPLICATION_CONTEXT(
'Core Data for Automotive Mechanical Design Process');
#129=PRODUCT_CONTEXT('part definition',#128,'mechanical');
#130=PRODUCT('(Unsaved)','(Unsaved)',$,(#129));
#131=PRESENTATION_STYLE_ASSIGNMENT((#132));
#132=SURFACE_STYLE_USAGE(.BOTH.,#133);
#133=SURFACE_SIDE_STYLE('',(#134));
#134=SURFACE_STYLE_FILL_AREA(#135);
#135=FILL_AREA_STYLE('Steel - Satin',(#136));
#136=FILL_AREA_STYLE_COLOUR('Steel - Satin',#137);
#137=COLOUR_RGB('Steel - Satin',0.627450980392157,0.627450980392157,0.627450980392157);
ENDSEC;
END-ISO-10303-21;
