ISO-10303-21;
HEADER;
/* Generated by software containing ST-Developer
 * from STEP Tools, Inc. (www.steptools.com) 
 */

FILE_DESCRIPTION(
/* description */ (''),
/* implementation_level */ '2;1');

FILE_NAME(
/* name */ 'tof_switch.step',
/* time_stamp */ '2026-07-02T14:50:36+05:30',
/* author */ (''),
/* organization */ (''),
/* preprocessor_version */ 'ST-DEVELOPER v20.1',
/* originating_system */ 'Autodesk Translation Framework v15.8.0.0',
/* authorisation */ '');

FILE_SCHEMA (('AUTOMOTIVE_DESIGN { 1 0 10303 214 3 1 1 }'));
ENDSEC;

DATA;
#10=MECHANICAL_DESIGN_GEOMETRIC_PRESENTATION_REPRESENTATION('',(#13),#425);
#11=SHAPE_REPRESENTATION_RELATIONSHIP('SRR','None',#432,#12);
#12=ADVANCED_BREP_SHAPE_REPRESENTATION('',(#14),#424);
#13=STYLED_ITEM('',(#441),#14);
#14=MANIFOLD_SOLID_BREP('Body1',#222);
#15=ELLIPSE('',#243,12.0208152801713,8.5);
#16=ELLIPSE('',#244,12.0208152801713,8.5);
#17=ELLIPSE('',#248,12.0208152801713,8.5);
#18=ELLIPSE('',#250,12.0208152801713,8.5);
#19=PLANE('',#239);
#20=PLANE('',#240);
#21=PLANE('',#245);
#22=PLANE('',#252);
#23=PLANE('',#253);
#24=PLANE('',#254);
#25=FACE_OUTER_BOUND('',#36,.T.);
#26=FACE_OUTER_BOUND('',#37,.T.);
#27=FACE_OUTER_BOUND('',#38,.T.);
#28=FACE_OUTER_BOUND('',#39,.T.);
#29=FACE_OUTER_BOUND('',#40,.T.);
#30=FACE_OUTER_BOUND('',#41,.T.);
#31=FACE_OUTER_BOUND('',#42,.T.);
#32=FACE_OUTER_BOUND('',#43,.T.);
#33=FACE_OUTER_BOUND('',#44,.T.);
#34=FACE_OUTER_BOUND('',#45,.T.);
#35=FACE_OUTER_BOUND('',#46,.T.);
#36=EDGE_LOOP('',(#144,#145,#146,#147,#148,#149,#150,#151));
#37=EDGE_LOOP('',(#152,#153,#154,#155,#156,#157));
#38=EDGE_LOOP('',(#158,#159,#160,#161,#162,#163));
#39=EDGE_LOOP('',(#164,#165,#166,#167,#168,#169,#170,#171));
#40=EDGE_LOOP('',(#172,#173,#174,#175,#176,#177));
#41=EDGE_LOOP('',(#178,#179,#180,#181));
#42=EDGE_LOOP('',(#182,#183,#184,#185));
#43=EDGE_LOOP('',(#186,#187,#188,#189,#190,#191,#192,#193));
#44=EDGE_LOOP('',(#194,#195,#196,#197));
#45=EDGE_LOOP('',(#198,#199,#200,#201));
#46=EDGE_LOOP('',(#202,#203,#204,#205));
#47=LINE('',#345,#66);
#48=LINE('',#376,#67);
#49=LINE('',#378,#68);
#50=LINE('',#380,#69);
#51=LINE('',#382,#70);
#52=LINE('',#383,#71);
#53=LINE('',#386,#72);
#54=LINE('',#388,#73);
#55=LINE('',#390,#74);
#56=LINE('',#392,#75);
#57=LINE('',#393,#76);
#58=LINE('',#400,#77);
#59=LINE('',#403,#78);
#60=LINE('',#406,#79);
#61=LINE('',#408,#80);
#62=LINE('',#410,#81);
#63=LINE('',#415,#82);
#64=LINE('',#417,#83);
#65=LINE('',#420,#84);
#66=VECTOR('',#261,5.);
#67=VECTOR('',#266,10.);
#68=VECTOR('',#267,10.);
#69=VECTOR('',#268,10.);
#70=VECTOR('',#269,10.);
#71=VECTOR('',#270,10.);
#72=VECTOR('',#273,10.);
#73=VECTOR('',#274,10.);
#74=VECTOR('',#275,10.);
#75=VECTOR('',#276,10.);
#76=VECTOR('',#277,10.);
#77=VECTOR('',#284,10.);
#78=VECTOR('',#289,10.);
#79=VECTOR('',#292,10.);
#80=VECTOR('',#295,10.);
#81=VECTOR('',#296,10.);
#82=VECTOR('',#303,10.);
#83=VECTOR('',#306,10.);
#84=VECTOR('',#311,10.);
#85=CIRCLE('',#237,5.);
#86=CIRCLE('',#238,5.);
#87=CIRCLE('',#242,8.5);
#88=CIRCLE('',#246,8.5);
#89=B_SPLINE_CURVE_WITH_KNOTS('',3,(#318,#319,#320,#321,#322,#323,#324,
#325,#326,#327,#328,#329,#330,#331,#332,#333,#334,#335,#336,#337),
 .UNSPECIFIED.,.F.,.F.,(4,2,2,2,2,2,2,2,2,4),(0.66608148731135,0.764681846538904,
0.966191266389009,1.16770068623911,1.36499698264467,1.56229327905022,1.75958957545577,
1.95688587186132,2.15839529171143,2.35990471156153),.UNSPECIFIED.);
#90=B_SPLINE_CURVE_WITH_KNOTS('',3,(#340,#341,#342,#343),.UNSPECIFIED.,
 .F.,.F.,(4,4),(2.35990471156153,2.45850507078909),.UNSPECIFIED.);
#91=B_SPLINE_CURVE_WITH_KNOTS('',3,(#347,#348,#349,#350),.UNSPECIFIED.,
 .F.,.F.,(4,4),(-0.896211792058758,-0.797611432511315),.UNSPECIFIED.);
#92=B_SPLINE_CURVE_WITH_KNOTS('',3,(#353,#354,#355,#356,#357,#358,#359,
#360,#361,#362,#363,#364,#365,#366,#367,#368,#369,#370,#371,#372,#373),
 .UNSPECIFIED.,.F.,.F.,(4,2,2,2,3,2,2,2,2,4),(-0.797611432511315,-0.59610201266121,
-0.394592592811104,-0.197296296405552,0.,0.197296296405552,0.394592592811105,
0.59610201266121,0.797611432511315,0.896211791738869),.UNSPECIFIED.);
#93=VERTEX_POINT('',#316);
#94=VERTEX_POINT('',#317);
#95=VERTEX_POINT('',#338);
#96=VERTEX_POINT('',#344);
#97=VERTEX_POINT('',#346);
#98=VERTEX_POINT('',#351);
#99=VERTEX_POINT('',#375);
#100=VERTEX_POINT('',#377);
#101=VERTEX_POINT('',#379);
#102=VERTEX_POINT('',#381);
#103=VERTEX_POINT('',#385);
#104=VERTEX_POINT('',#387);
#105=VERTEX_POINT('',#389);
#106=VERTEX_POINT('',#391);
#107=VERTEX_POINT('',#395);
#108=VERTEX_POINT('',#397);
#109=VERTEX_POINT('',#399);
#110=VERTEX_POINT('',#404);
#111=VERTEX_POINT('',#409);
#112=VERTEX_POINT('',#413);
#113=EDGE_CURVE('',#93,#94,#89,.T.);
#114=EDGE_CURVE('',#95,#93,#85,.T.);
#115=EDGE_CURVE('',#94,#95,#90,.T.);
#116=EDGE_CURVE('',#94,#96,#47,.T.);
#117=EDGE_CURVE('',#97,#96,#91,.T.);
#118=EDGE_CURVE('',#98,#97,#86,.T.);
#119=EDGE_CURVE('',#96,#98,#92,.T.);
#120=EDGE_CURVE('',#99,#97,#48,.T.);
#121=EDGE_CURVE('',#100,#99,#49,.T.);
#122=EDGE_CURVE('',#100,#101,#50,.T.);
#123=EDGE_CURVE('',#101,#102,#51,.T.);
#124=EDGE_CURVE('',#98,#102,#52,.T.);
#125=EDGE_CURVE('',#103,#93,#53,.T.);
#126=EDGE_CURVE('',#103,#104,#54,.T.);
#127=EDGE_CURVE('',#104,#105,#55,.T.);
#128=EDGE_CURVE('',#105,#106,#56,.T.);
#129=EDGE_CURVE('',#95,#106,#57,.T.);
#130=EDGE_CURVE('',#102,#107,#87,.T.);
#131=EDGE_CURVE('',#108,#107,#15,.T.);
#132=EDGE_CURVE('',#108,#109,#58,.T.);
#133=EDGE_CURVE('',#99,#109,#16,.T.);
#134=EDGE_CURVE('',#104,#101,#59,.T.);
#135=EDGE_CURVE('',#110,#103,#88,.T.);
#136=EDGE_CURVE('',#107,#110,#60,.T.);
#137=EDGE_CURVE('',#106,#99,#61,.T.);
#138=EDGE_CURVE('',#109,#111,#62,.T.);
#139=EDGE_CURVE('',#111,#106,#17,.T.);
#140=EDGE_CURVE('',#112,#110,#18,.T.);
#141=EDGE_CURVE('',#112,#108,#63,.T.);
#142=EDGE_CURVE('',#111,#112,#64,.T.);
#143=EDGE_CURVE('',#105,#100,#65,.T.);
#144=ORIENTED_EDGE('',*,*,#113,.F.);
#145=ORIENTED_EDGE('',*,*,#114,.F.);
#146=ORIENTED_EDGE('',*,*,#115,.F.);
#147=ORIENTED_EDGE('',*,*,#116,.T.);
#148=ORIENTED_EDGE('',*,*,#117,.F.);
#149=ORIENTED_EDGE('',*,*,#118,.F.);
#150=ORIENTED_EDGE('',*,*,#119,.F.);
#151=ORIENTED_EDGE('',*,*,#116,.F.);
#152=ORIENTED_EDGE('',*,*,#118,.T.);
#153=ORIENTED_EDGE('',*,*,#120,.F.);
#154=ORIENTED_EDGE('',*,*,#121,.F.);
#155=ORIENTED_EDGE('',*,*,#122,.T.);
#156=ORIENTED_EDGE('',*,*,#123,.T.);
#157=ORIENTED_EDGE('',*,*,#124,.F.);
#158=ORIENTED_EDGE('',*,*,#114,.T.);
#159=ORIENTED_EDGE('',*,*,#125,.F.);
#160=ORIENTED_EDGE('',*,*,#126,.T.);
#161=ORIENTED_EDGE('',*,*,#127,.T.);
#162=ORIENTED_EDGE('',*,*,#128,.T.);
#163=ORIENTED_EDGE('',*,*,#129,.F.);
#164=ORIENTED_EDGE('',*,*,#117,.T.);
#165=ORIENTED_EDGE('',*,*,#119,.T.);
#166=ORIENTED_EDGE('',*,*,#124,.T.);
#167=ORIENTED_EDGE('',*,*,#130,.T.);
#168=ORIENTED_EDGE('',*,*,#131,.F.);
#169=ORIENTED_EDGE('',*,*,#132,.T.);
#170=ORIENTED_EDGE('',*,*,#133,.F.);
#171=ORIENTED_EDGE('',*,*,#120,.T.);
#172=ORIENTED_EDGE('',*,*,#123,.F.);
#173=ORIENTED_EDGE('',*,*,#134,.F.);
#174=ORIENTED_EDGE('',*,*,#126,.F.);
#175=ORIENTED_EDGE('',*,*,#135,.F.);
#176=ORIENTED_EDGE('',*,*,#136,.F.);
#177=ORIENTED_EDGE('',*,*,#130,.F.);
#178=ORIENTED_EDGE('',*,*,#137,.T.);
#179=ORIENTED_EDGE('',*,*,#133,.T.);
#180=ORIENTED_EDGE('',*,*,#138,.T.);
#181=ORIENTED_EDGE('',*,*,#139,.T.);
#182=ORIENTED_EDGE('',*,*,#136,.T.);
#183=ORIENTED_EDGE('',*,*,#140,.F.);
#184=ORIENTED_EDGE('',*,*,#141,.T.);
#185=ORIENTED_EDGE('',*,*,#131,.T.);
#186=ORIENTED_EDGE('',*,*,#113,.T.);
#187=ORIENTED_EDGE('',*,*,#115,.T.);
#188=ORIENTED_EDGE('',*,*,#129,.T.);
#189=ORIENTED_EDGE('',*,*,#139,.F.);
#190=ORIENTED_EDGE('',*,*,#142,.T.);
#191=ORIENTED_EDGE('',*,*,#140,.T.);
#192=ORIENTED_EDGE('',*,*,#135,.T.);
#193=ORIENTED_EDGE('',*,*,#125,.T.);
#194=ORIENTED_EDGE('',*,*,#141,.F.);
#195=ORIENTED_EDGE('',*,*,#142,.F.);
#196=ORIENTED_EDGE('',*,*,#138,.F.);
#197=ORIENTED_EDGE('',*,*,#132,.F.);
#198=ORIENTED_EDGE('',*,*,#134,.T.);
#199=ORIENTED_EDGE('',*,*,#122,.F.);
#200=ORIENTED_EDGE('',*,*,#143,.F.);
#201=ORIENTED_EDGE('',*,*,#127,.F.);
#202=ORIENTED_EDGE('',*,*,#137,.F.);
#203=ORIENTED_EDGE('',*,*,#128,.F.);
#204=ORIENTED_EDGE('',*,*,#143,.T.);
#205=ORIENTED_EDGE('',*,*,#121,.T.);
#206=CYLINDRICAL_SURFACE('',#236,5.);
#207=CYLINDRICAL_SURFACE('',#241,8.5);
#208=CYLINDRICAL_SURFACE('',#247,8.5);
#209=CYLINDRICAL_SURFACE('',#249,8.5);
#210=CYLINDRICAL_SURFACE('',#251,8.5);
#211=ADVANCED_FACE('',(#25),#206,.F.);
#212=ADVANCED_FACE('',(#26),#19,.T.);
#213=ADVANCED_FACE('',(#27),#20,.T.);
#214=ADVANCED_FACE('',(#28),#207,.T.);
#215=ADVANCED_FACE('',(#29),#21,.F.);
#216=ADVANCED_FACE('',(#30),#208,.T.);
#217=ADVANCED_FACE('',(#31),#209,.T.);
#218=ADVANCED_FACE('',(#32),#210,.T.);
#219=ADVANCED_FACE('',(#33),#22,.F.);
#220=ADVANCED_FACE('',(#34),#23,.F.);
#221=ADVANCED_FACE('',(#35),#24,.F.);
#222=CLOSED_SHELL('',(#211,#212,#213,#214,#215,#216,#217,#218,#219,#220,
#221));
#223=DERIVED_UNIT_ELEMENT(#225,1.);
#224=DERIVED_UNIT_ELEMENT(#427,-3.);
#225=(
MASS_UNIT()
NAMED_UNIT(*)
SI_UNIT(.KILO.,.GRAM.)
);
#226=DERIVED_UNIT((#223,#224));
#227=MEASURE_REPRESENTATION_ITEM('density measure',
POSITIVE_RATIO_MEASURE(7850.),#226);
#228=PROPERTY_DEFINITION_REPRESENTATION(#233,#230);
#229=PROPERTY_DEFINITION_REPRESENTATION(#234,#231);
#230=REPRESENTATION('material name',(#232),#424);
#231=REPRESENTATION('density',(#227),#424);
#232=DESCRIPTIVE_REPRESENTATION_ITEM('Steel','Steel');
#233=PROPERTY_DEFINITION('material property','material name',#434);
#234=PROPERTY_DEFINITION('material property','density of part',#434);
#235=AXIS2_PLACEMENT_3D('',#314,#255,#256);
#236=AXIS2_PLACEMENT_3D('',#315,#257,#258);
#237=AXIS2_PLACEMENT_3D('',#339,#259,#260);
#238=AXIS2_PLACEMENT_3D('',#352,#262,#263);
#239=AXIS2_PLACEMENT_3D('',#374,#264,#265);
#240=AXIS2_PLACEMENT_3D('',#384,#271,#272);
#241=AXIS2_PLACEMENT_3D('',#394,#278,#279);
#242=AXIS2_PLACEMENT_3D('',#396,#280,#281);
#243=AXIS2_PLACEMENT_3D('',#398,#282,#283);
#244=AXIS2_PLACEMENT_3D('',#401,#285,#286);
#245=AXIS2_PLACEMENT_3D('',#402,#287,#288);
#246=AXIS2_PLACEMENT_3D('',#405,#290,#291);
#247=AXIS2_PLACEMENT_3D('',#407,#293,#294);
#248=AXIS2_PLACEMENT_3D('',#411,#297,#298);
#249=AXIS2_PLACEMENT_3D('',#412,#299,#300);
#250=AXIS2_PLACEMENT_3D('',#414,#301,#302);
#251=AXIS2_PLACEMENT_3D('',#416,#304,#305);
#252=AXIS2_PLACEMENT_3D('',#418,#307,#308);
#253=AXIS2_PLACEMENT_3D('',#419,#309,#310);
#254=AXIS2_PLACEMENT_3D('',#421,#312,#313);
#255=DIRECTION('axis',(0.,0.,1.));
#256=DIRECTION('refdir',(1.,0.,0.));
#257=DIRECTION('center_axis',(0.,1.,0.));
#258=DIRECTION('ref_axis',(1.,0.,0.));
#259=DIRECTION('center_axis',(0.,1.,0.));
#260=DIRECTION('ref_axis',(1.,0.,0.));
#261=DIRECTION('',(0.,1.,0.));
#262=DIRECTION('center_axis',(0.,-1.,0.));
#263=DIRECTION('ref_axis',(1.,0.,0.));
#264=DIRECTION('center_axis',(0.,1.,0.));
#265=DIRECTION('ref_axis',(-1.,0.,0.));
#266=DIRECTION('',(1.,0.,0.));
#267=DIRECTION('',(0.,0.,-1.));
#268=DIRECTION('',(1.,0.,0.));
#269=DIRECTION('',(0.,0.,-1.));
#270=DIRECTION('',(1.,0.,0.));
#271=DIRECTION('center_axis',(0.,-1.,0.));
#272=DIRECTION('ref_axis',(1.,0.,0.));
#273=DIRECTION('',(-1.,0.,0.));
#274=DIRECTION('',(0.,0.,1.));
#275=DIRECTION('',(-1.,0.,0.));
#276=DIRECTION('',(0.,0.,-1.));
#277=DIRECTION('',(-1.,0.,0.));
#278=DIRECTION('center_axis',(-1.,0.,0.));
#279=DIRECTION('ref_axis',(0.,0.707106781186547,-0.707106781186548));
#280=DIRECTION('center_axis',(-1.,0.,0.));
#281=DIRECTION('ref_axis',(0.,0.707106781186547,-0.707106781186548));
#282=DIRECTION('center_axis',(0.707106781186548,-0.707106781186548,0.));
#283=DIRECTION('ref_axis',(-0.707106781186548,-0.707106781186548,0.));
#284=DIRECTION('',(-1.,0.,0.));
#285=DIRECTION('center_axis',(-0.707106781186548,-0.707106781186548,0.));
#286=DIRECTION('ref_axis',(-0.707106781186548,0.707106781186548,0.));
#287=DIRECTION('center_axis',(-1.,0.,0.));
#288=DIRECTION('ref_axis',(0.,0.,1.));
#289=DIRECTION('',(0.,1.,0.));
#290=DIRECTION('center_axis',(-1.,0.,0.));
#291=DIRECTION('ref_axis',(0.,-0.707106781186548,-0.707106781186548));
#292=DIRECTION('',(0.,-1.,0.));
#293=DIRECTION('center_axis',(0.,-1.,0.));
#294=DIRECTION('ref_axis',(-0.707106781186547,0.,-0.707106781186548));
#295=DIRECTION('',(0.,1.,0.));
#296=DIRECTION('',(0.,-1.,0.));
#297=DIRECTION('center_axis',(-0.707106781186548,0.707106781186548,0.));
#298=DIRECTION('ref_axis',(0.707106781186548,0.707106781186548,0.));
#299=DIRECTION('center_axis',(0.,1.,0.));
#300=DIRECTION('ref_axis',(0.707106781186547,0.,-0.707106781186548));
#301=DIRECTION('center_axis',(-0.707106781186548,-0.707106781186548,0.));
#302=DIRECTION('ref_axis',(-0.707106781186548,0.707106781186548,0.));
#303=DIRECTION('',(0.,1.,0.));
#304=DIRECTION('center_axis',(1.,0.,0.));
#305=DIRECTION('ref_axis',(0.,-0.707106781186548,-0.707106781186548));
#306=DIRECTION('',(1.,0.,0.));
#307=DIRECTION('center_axis',(0.,0.,1.));
#308=DIRECTION('ref_axis',(1.,0.,0.));
#309=DIRECTION('center_axis',(0.,0.,-1.));
#310=DIRECTION('ref_axis',(-1.,0.,0.));
#311=DIRECTION('',(0.,1.,0.));
#312=DIRECTION('center_axis',(1.,0.,0.));
#313=DIRECTION('ref_axis',(0.,0.,-1.));
#314=CARTESIAN_POINT('',(0.,0.,0.));
#315=CARTESIAN_POINT('Origin',(0.,-25.,25.));
#316=CARTESIAN_POINT('',(4.89897948556635,-25.,26.));
#317=CARTESIAN_POINT('',(-5.,-24.9409715080671,25.));
#318=CARTESIAN_POINT('Ctrl Pts',(4.89897948556635,-25.,26.));
#319=CARTESIAN_POINT('Ctrl Pts',(4.96744401729249,-25.,25.6645936635847));
#320=CARTESIAN_POINT('Ctrl Pts',(5.,-24.9796383156073,25.3263854207549));
#321=CARTESIAN_POINT('Ctrl Pts',(5.,-24.8619482061651,24.3329665601718));
#322=CARTESIAN_POINT('Ctrl Pts',(4.85945258690991,-24.693659848729,23.6444808988932));
#323=CARTESIAN_POINT('Ctrl Pts',(4.32901661920299,-24.2325261319233,22.409377485767));
#324=CARTESIAN_POINT('Ctrl Pts',(3.9402622873238,-23.9419042926693,21.8614440689766));
#325=CARTESIAN_POINT('Ctrl Pts',(3.07398581958102,-23.3999868349936,21.0111098283962));
#326=CARTESIAN_POINT('Ctrl Pts',(2.53486069744779,-23.1062520914424,20.6408394308015));
#327=CARTESIAN_POINT('Ctrl Pts',(1.32829650367883,-22.6620414177069,20.1354944629533));
#328=CARTESIAN_POINT('Ctrl Pts',(0.657654321351841,-22.5207972893961,20.));
#329=CARTESIAN_POINT('Ctrl Pts',(-0.657654321351841,-22.5207972893961,20.));
#330=CARTESIAN_POINT('Ctrl Pts',(-1.32829650367883,-22.662041417707,20.1354944629533));
#331=CARTESIAN_POINT('Ctrl Pts',(-2.53486069744779,-23.1062520914424,20.6408394308015));
#332=CARTESIAN_POINT('Ctrl Pts',(-3.07398581958102,-23.3999868349936,21.0111098283962));
#333=CARTESIAN_POINT('Ctrl Pts',(-3.9402622873238,-23.9419042926693,21.8614440689766));
#334=CARTESIAN_POINT('Ctrl Pts',(-4.32901661920299,-24.2325261319233,22.409377485767));
#335=CARTESIAN_POINT('Ctrl Pts',(-4.85945258690991,-24.693659848729,23.6444808988932));
#336=CARTESIAN_POINT('Ctrl Pts',(-5.,-24.8619482061651,24.3329665601718));
#337=CARTESIAN_POINT('Ctrl Pts',(-5.,-24.9409715080671,25.));
#338=CARTESIAN_POINT('',(-4.89897948556635,-25.,26.));
#339=CARTESIAN_POINT('Origin',(0.,-25.,25.));
#340=CARTESIAN_POINT('Ctrl Pts',(-5.,-24.9409715080671,25.));
#341=CARTESIAN_POINT('Ctrl Pts',(-5.,-24.9796383156073,25.3263854207549));
#342=CARTESIAN_POINT('Ctrl Pts',(-4.96744401729249,-25.,25.6645936635847));
#343=CARTESIAN_POINT('Ctrl Pts',(-4.89897948556635,-25.,26.));
#344=CARTESIAN_POINT('',(-5.,4.94097150806707,25.));
#345=CARTESIAN_POINT('',(-5.,-25.,25.));
#346=CARTESIAN_POINT('',(-4.89897948556635,5.,26.));
#347=CARTESIAN_POINT('Ctrl Pts',(-4.89897948556636,5.,26.));
#348=CARTESIAN_POINT('Ctrl Pts',(-4.96744401731611,5.,25.664593663469));
#349=CARTESIAN_POINT('Ctrl Pts',(-5.,4.97963831573273,25.3263854218138));
#350=CARTESIAN_POINT('Ctrl Pts',(-5.,4.94097150806707,25.));
#351=CARTESIAN_POINT('',(4.89897948556635,5.,26.));
#352=CARTESIAN_POINT('Origin',(0.,5.,25.));
#353=CARTESIAN_POINT('Ctrl Pts',(-5.,4.94097150806707,25.));
#354=CARTESIAN_POINT('Ctrl Pts',(-5.,4.86194820616506,24.3329665601718));
#355=CARTESIAN_POINT('Ctrl Pts',(-4.85945258690991,4.69365984872899,23.6444808988932));
#356=CARTESIAN_POINT('Ctrl Pts',(-4.32901661920299,4.23252613192331,22.409377485767));
#357=CARTESIAN_POINT('Ctrl Pts',(-3.9402622873238,3.94190429266928,21.8614440689766));
#358=CARTESIAN_POINT('Ctrl Pts',(-3.07398581958102,3.39998683499359,21.0111098283962));
#359=CARTESIAN_POINT('Ctrl Pts',(-2.53486069744779,3.10625209144245,20.6408394308015));
#360=CARTESIAN_POINT('Ctrl Pts',(-1.32829650367883,2.66204141770695,20.1354944629533));
#361=CARTESIAN_POINT('Ctrl Pts',(-0.657654321351841,2.52079728939615,20.));
#362=CARTESIAN_POINT('Ctrl Pts',(0.,2.52079728939615,20.));
#363=CARTESIAN_POINT('Ctrl Pts',(0.657654321351841,2.52079728939615,20.));
#364=CARTESIAN_POINT('Ctrl Pts',(1.32829650367883,2.66204141770695,20.1354944629533));
#365=CARTESIAN_POINT('Ctrl Pts',(2.53486069744779,3.10625209144245,20.6408394308015));
#366=CARTESIAN_POINT('Ctrl Pts',(3.07398581958102,3.39998683499359,21.0111098283962));
#367=CARTESIAN_POINT('Ctrl Pts',(3.94026228732381,3.94190429266928,21.8614440689766));
#368=CARTESIAN_POINT('Ctrl Pts',(4.32901661920299,4.23252613192331,22.409377485767));
#369=CARTESIAN_POINT('Ctrl Pts',(4.85945258690991,4.69365984872899,23.6444808988932));
#370=CARTESIAN_POINT('Ctrl Pts',(5.,4.86194820616506,24.3329665601718));
#371=CARTESIAN_POINT('Ctrl Pts',(5.,4.97963831560728,25.3263854207549));
#372=CARTESIAN_POINT('Ctrl Pts',(4.96744401729249,5.,25.6645936635847));
#373=CARTESIAN_POINT('Ctrl Pts',(4.89897948556635,5.,26.));
#374=CARTESIAN_POINT('Origin',(25.,5.,0.));
#375=CARTESIAN_POINT('',(-15.,5.,26.));
#376=CARTESIAN_POINT('',(12.5,5.,26.));
#377=CARTESIAN_POINT('',(-15.,5.,32.5));
#378=CARTESIAN_POINT('',(-15.,5.,0.));
#379=CARTESIAN_POINT('',(10.,5.,32.5));
#380=CARTESIAN_POINT('',(12.5,5.,32.5));
#381=CARTESIAN_POINT('',(10.,5.,26.));
#382=CARTESIAN_POINT('',(10.,5.,0.));
#383=CARTESIAN_POINT('',(12.5,5.,26.));
#384=CARTESIAN_POINT('Origin',(-25.,-25.,0.));
#385=CARTESIAN_POINT('',(10.,-25.,26.));
#386=CARTESIAN_POINT('',(-12.5,-25.,26.));
#387=CARTESIAN_POINT('',(10.,-25.,32.5));
#388=CARTESIAN_POINT('',(10.,-25.,0.));
#389=CARTESIAN_POINT('',(-15.,-25.,32.5));
#390=CARTESIAN_POINT('',(-12.5,-25.,32.5));
#391=CARTESIAN_POINT('',(-15.,-25.,26.));
#392=CARTESIAN_POINT('',(-15.,-25.,0.));
#393=CARTESIAN_POINT('',(-12.5,-25.,26.));
#394=CARTESIAN_POINT('Origin',(12.5,-3.5,26.));
#395=CARTESIAN_POINT('',(10.,0.,18.2540333075852));
#396=CARTESIAN_POINT('Origin',(10.,-3.5,26.));
#397=CARTESIAN_POINT('',(6.5,-3.5,17.5));
#398=CARTESIAN_POINT('Origin',(6.5,-3.5,26.));
#399=CARTESIAN_POINT('',(-6.5,-3.5,17.5));
#400=CARTESIAN_POINT('',(12.5,-3.5,17.5));
#401=CARTESIAN_POINT('Origin',(-6.5,-3.5,26.));
#402=CARTESIAN_POINT('Origin',(10.,-25.,0.));
#403=CARTESIAN_POINT('',(10.,-12.5,32.5));
#404=CARTESIAN_POINT('',(10.,-20.,18.2540333075852));
#405=CARTESIAN_POINT('Origin',(10.,-16.5,26.));
#406=CARTESIAN_POINT('',(10.,-12.5,18.2540333075852));
#407=CARTESIAN_POINT('Origin',(-6.5,12.5,26.));
#408=CARTESIAN_POINT('',(-15.,12.5,26.));
#409=CARTESIAN_POINT('',(-6.5,-16.5,17.5));
#410=CARTESIAN_POINT('',(-6.5,12.5,17.5));
#411=CARTESIAN_POINT('Origin',(-6.5,-16.5,26.));
#412=CARTESIAN_POINT('Origin',(6.5,-12.5,26.));
#413=CARTESIAN_POINT('',(6.5,-16.5,17.5));
#414=CARTESIAN_POINT('Origin',(6.5,-16.5,26.));
#415=CARTESIAN_POINT('',(6.5,-12.5,17.5));
#416=CARTESIAN_POINT('Origin',(-12.5,-16.5,26.));
#417=CARTESIAN_POINT('',(-12.5,-16.5,17.5));
#418=CARTESIAN_POINT('Origin',(0.,0.,17.5));
#419=CARTESIAN_POINT('Origin',(0.,0.,32.5));
#420=CARTESIAN_POINT('',(-15.,12.5,32.5));
#421=CARTESIAN_POINT('Origin',(-15.,25.,0.));
#422=UNCERTAINTY_MEASURE_WITH_UNIT(LENGTH_MEASURE(0.01),#426,
'DISTANCE_ACCURACY_VALUE',
'Maximum model space distance between geometric entities at asserted c
onnectivities');
#423=UNCERTAINTY_MEASURE_WITH_UNIT(LENGTH_MEASURE(0.01),#426,
'DISTANCE_ACCURACY_VALUE',
'Maximum model space distance between geometric entities at asserted c
onnectivities');
#424=(
GEOMETRIC_REPRESENTATION_CONTEXT(3)
GLOBAL_UNCERTAINTY_ASSIGNED_CONTEXT((#422))
GLOBAL_UNIT_ASSIGNED_CONTEXT((#426,#428,#429))
REPRESENTATION_CONTEXT('','3D')
);
#425=(
GEOMETRIC_REPRESENTATION_CONTEXT(3)
GLOBAL_UNCERTAINTY_ASSIGNED_CONTEXT((#423))
GLOBAL_UNIT_ASSIGNED_CONTEXT((#426,#428,#429))
REPRESENTATION_CONTEXT('','3D')
);
#426=(
LENGTH_UNIT()
NAMED_UNIT(*)
SI_UNIT(.MILLI.,.METRE.)
);
#427=(
LENGTH_UNIT()
NAMED_UNIT(*)
SI_UNIT($,.METRE.)
);
#428=(
NAMED_UNIT(*)
PLANE_ANGLE_UNIT()
SI_UNIT($,.RADIAN.)
);
#429=(
NAMED_UNIT(*)
SI_UNIT($,.STERADIAN.)
SOLID_ANGLE_UNIT()
);
#430=SHAPE_DEFINITION_REPRESENTATION(#431,#432);
#431=PRODUCT_DEFINITION_SHAPE('',$,#434);
#432=SHAPE_REPRESENTATION('',(#235),#424);
#433=PRODUCT_DEFINITION_CONTEXT('part definition',#438,'design');
#434=PRODUCT_DEFINITION('(Unsaved)','(Unsaved)',#435,#433);
#435=PRODUCT_DEFINITION_FORMATION('',$,#440);
#436=PRODUCT_RELATED_PRODUCT_CATEGORY('(Unsaved)','(Unsaved)',(#440));
#437=APPLICATION_PROTOCOL_DEFINITION('international standard',
'automotive_design',2009,#438);
#438=APPLICATION_CONTEXT(
'Core Data for Automotive Mechanical Design Process');
#439=PRODUCT_CONTEXT('part definition',#438,'mechanical');
#440=PRODUCT('(Unsaved)','(Unsaved)',$,(#439));
#441=PRESENTATION_STYLE_ASSIGNMENT((#442));
#442=SURFACE_STYLE_USAGE(.BOTH.,#443);
#443=SURFACE_SIDE_STYLE('',(#444));
#444=SURFACE_STYLE_FILL_AREA(#445);
#445=FILL_AREA_STYLE('Steel - Satin',(#446));
#446=FILL_AREA_STYLE_COLOUR('Steel - Satin',#447);
#447=COLOUR_RGB('Steel - Satin',0.627450980392157,0.627450980392157,0.627450980392157);
ENDSEC;
END-ISO-10303-21;
