ISO-10303-21;
HEADER;
/* Generated by software containing ST-Developer
 * from STEP Tools, Inc. (www.steptools.com) 
 */

FILE_DESCRIPTION(
/* description */ (''),
/* implementation_level */ '2;1');

FILE_NAME(
/* name */ 'tof_rod.step',
/* time_stamp */ '2026-07-02T14:50:48+05:30',
/* author */ (''),
/* organization */ (''),
/* preprocessor_version */ 'ST-DEVELOPER v20.1',
/* originating_system */ 'Autodesk Translation Framework v15.8.0.0',
/* authorisation */ '');

FILE_SCHEMA (('AUTOMOTIVE_DESIGN { 1 0 10303 214 3 1 1 }'));
ENDSEC;

DATA;
#10=MECHANICAL_DESIGN_GEOMETRIC_PRESENTATION_REPRESENTATION('',(#13),#342);
#11=SHAPE_REPRESENTATION_RELATIONSHIP('SRR','None',#349,#12);
#12=ADVANCED_BREP_SHAPE_REPRESENTATION('',(#14),#341);
#13=STYLED_ITEM('',(#358),#14);
#14=MANIFOLD_SOLID_BREP('Body1',#204);
#15=CYLINDRICAL_SURFACE('',#229,4.73075);
#16=FACE_BOUND('',#38,.T.);
#17=CIRCLE('',#225,4.73075);
#18=CIRCLE('',#230,4.73075);
#19=FACE_OUTER_BOUND('',#31,.T.);
#20=FACE_OUTER_BOUND('',#32,.T.);
#21=FACE_OUTER_BOUND('',#33,.T.);
#22=FACE_OUTER_BOUND('',#34,.T.);
#23=FACE_OUTER_BOUND('',#35,.T.);
#24=FACE_OUTER_BOUND('',#36,.T.);
#25=FACE_OUTER_BOUND('',#37,.T.);
#26=FACE_OUTER_BOUND('',#39,.T.);
#27=FACE_OUTER_BOUND('',#40,.T.);
#28=FACE_OUTER_BOUND('',#41,.T.);
#29=FACE_OUTER_BOUND('',#42,.T.);
#30=FACE_OUTER_BOUND('',#43,.T.);
#31=EDGE_LOOP('',(#131,#132,#133,#134,#135,#136));
#32=EDGE_LOOP('',(#137,#138,#139,#140));
#33=EDGE_LOOP('',(#141,#142,#143,#144));
#34=EDGE_LOOP('',(#145,#146,#147,#148));
#35=EDGE_LOOP('',(#149,#150,#151,#152));
#36=EDGE_LOOP('',(#153,#154,#155,#156));
#37=EDGE_LOOP('',(#157,#158,#159,#160));
#38=EDGE_LOOP('',(#161));
#39=EDGE_LOOP('',(#162,#163,#164,#165,#166));
#40=EDGE_LOOP('',(#167,#168,#169,#170,#171));
#41=EDGE_LOOP('',(#172,#173,#174,#175));
#42=EDGE_LOOP('',(#176,#177,#178,#179));
#43=EDGE_LOOP('',(#180));
#44=LINE('',#289,#67);
#45=LINE('',#291,#68);
#46=LINE('',#293,#69);
#47=LINE('',#295,#70);
#48=LINE('',#297,#71);
#49=LINE('',#298,#72);
#50=LINE('',#302,#73);
#51=LINE('',#303,#74);
#52=LINE('',#304,#75);
#53=LINE('',#307,#76);
#54=LINE('',#309,#77);
#55=LINE('',#310,#78);
#56=LINE('',#313,#79);
#57=LINE('',#315,#80);
#58=LINE('',#316,#81);
#59=LINE('',#318,#82);
#60=LINE('',#319,#83);
#61=LINE('',#324,#84);
#62=LINE('',#325,#85);
#63=LINE('',#326,#86);
#64=LINE('',#330,#87);
#65=LINE('',#332,#88);
#66=LINE('',#336,#89);
#67=VECTOR('',#236,10.);
#68=VECTOR('',#237,10.);
#69=VECTOR('',#238,10.);
#70=VECTOR('',#239,10.);
#71=VECTOR('',#240,10.);
#72=VECTOR('',#241,10.);
#73=VECTOR('',#244,10.);
#74=VECTOR('',#245,10.);
#75=VECTOR('',#246,10.);
#76=VECTOR('',#249,10.);
#77=VECTOR('',#250,10.);
#78=VECTOR('',#251,10.);
#79=VECTOR('',#254,10.);
#80=VECTOR('',#255,10.);
#81=VECTOR('',#256,10.);
#82=VECTOR('',#259,10.);
#83=VECTOR('',#260,10.);
#84=VECTOR('',#265,10.);
#85=VECTOR('',#266,10.);
#86=VECTOR('',#267,10.);
#87=VECTOR('',#272,10.);
#88=VECTOR('',#275,10.);
#89=VECTOR('',#280,4.75);
#90=VERTEX_POINT('',#287);
#91=VERTEX_POINT('',#288);
#92=VERTEX_POINT('',#290);
#93=VERTEX_POINT('',#292);
#94=VERTEX_POINT('',#294);
#95=VERTEX_POINT('',#296);
#96=VERTEX_POINT('',#300);
#97=VERTEX_POINT('',#301);
#98=VERTEX_POINT('',#306);
#99=VERTEX_POINT('',#308);
#100=VERTEX_POINT('',#312);
#101=VERTEX_POINT('',#314);
#102=VERTEX_POINT('',#322);
#103=VERTEX_POINT('',#323);
#104=VERTEX_POINT('',#327);
#105=VERTEX_POINT('',#335);
#106=EDGE_CURVE('',#90,#91,#44,.T.);
#107=EDGE_CURVE('',#91,#92,#45,.T.);
#108=EDGE_CURVE('',#92,#93,#46,.T.);
#109=EDGE_CURVE('',#93,#94,#47,.T.);
#110=EDGE_CURVE('',#94,#95,#48,.T.);
#111=EDGE_CURVE('',#90,#95,#49,.T.);
#112=EDGE_CURVE('',#96,#97,#50,.T.);
#113=EDGE_CURVE('',#97,#92,#51,.T.);
#114=EDGE_CURVE('',#96,#91,#52,.T.);
#115=EDGE_CURVE('',#98,#94,#53,.T.);
#116=EDGE_CURVE('',#93,#99,#54,.T.);
#117=EDGE_CURVE('',#99,#98,#55,.T.);
#118=EDGE_CURVE('',#95,#100,#56,.T.);
#119=EDGE_CURVE('',#101,#100,#57,.T.);
#120=EDGE_CURVE('',#101,#90,#58,.T.);
#121=EDGE_CURVE('',#100,#98,#59,.T.);
#122=EDGE_CURVE('',#99,#101,#60,.T.);
#123=EDGE_CURVE('',#102,#103,#61,.T.);
#124=EDGE_CURVE('',#103,#101,#62,.T.);
#125=EDGE_CURVE('',#99,#102,#63,.T.);
#126=EDGE_CURVE('',#104,#104,#17,.F.);
#127=EDGE_CURVE('',#103,#96,#64,.T.);
#128=EDGE_CURVE('',#102,#97,#65,.T.);
#129=EDGE_CURVE('',#104,#105,#66,.T.);
#130=EDGE_CURVE('',#105,#105,#18,.F.);
#131=ORIENTED_EDGE('',*,*,#106,.T.);
#132=ORIENTED_EDGE('',*,*,#107,.T.);
#133=ORIENTED_EDGE('',*,*,#108,.T.);
#134=ORIENTED_EDGE('',*,*,#109,.T.);
#135=ORIENTED_EDGE('',*,*,#110,.T.);
#136=ORIENTED_EDGE('',*,*,#111,.F.);
#137=ORIENTED_EDGE('',*,*,#112,.T.);
#138=ORIENTED_EDGE('',*,*,#113,.T.);
#139=ORIENTED_EDGE('',*,*,#107,.F.);
#140=ORIENTED_EDGE('',*,*,#114,.F.);
#141=ORIENTED_EDGE('',*,*,#115,.T.);
#142=ORIENTED_EDGE('',*,*,#109,.F.);
#143=ORIENTED_EDGE('',*,*,#116,.T.);
#144=ORIENTED_EDGE('',*,*,#117,.T.);
#145=ORIENTED_EDGE('',*,*,#118,.T.);
#146=ORIENTED_EDGE('',*,*,#119,.F.);
#147=ORIENTED_EDGE('',*,*,#120,.T.);
#148=ORIENTED_EDGE('',*,*,#111,.T.);
#149=ORIENTED_EDGE('',*,*,#121,.T.);
#150=ORIENTED_EDGE('',*,*,#117,.F.);
#151=ORIENTED_EDGE('',*,*,#122,.T.);
#152=ORIENTED_EDGE('',*,*,#119,.T.);
#153=ORIENTED_EDGE('',*,*,#115,.F.);
#154=ORIENTED_EDGE('',*,*,#121,.F.);
#155=ORIENTED_EDGE('',*,*,#118,.F.);
#156=ORIENTED_EDGE('',*,*,#110,.F.);
#157=ORIENTED_EDGE('',*,*,#123,.T.);
#158=ORIENTED_EDGE('',*,*,#124,.T.);
#159=ORIENTED_EDGE('',*,*,#122,.F.);
#160=ORIENTED_EDGE('',*,*,#125,.T.);
#161=ORIENTED_EDGE('',*,*,#126,.T.);
#162=ORIENTED_EDGE('',*,*,#124,.F.);
#163=ORIENTED_EDGE('',*,*,#127,.T.);
#164=ORIENTED_EDGE('',*,*,#114,.T.);
#165=ORIENTED_EDGE('',*,*,#106,.F.);
#166=ORIENTED_EDGE('',*,*,#120,.F.);
#167=ORIENTED_EDGE('',*,*,#125,.F.);
#168=ORIENTED_EDGE('',*,*,#116,.F.);
#169=ORIENTED_EDGE('',*,*,#108,.F.);
#170=ORIENTED_EDGE('',*,*,#113,.F.);
#171=ORIENTED_EDGE('',*,*,#128,.F.);
#172=ORIENTED_EDGE('',*,*,#123,.F.);
#173=ORIENTED_EDGE('',*,*,#128,.T.);
#174=ORIENTED_EDGE('',*,*,#112,.F.);
#175=ORIENTED_EDGE('',*,*,#127,.F.);
#176=ORIENTED_EDGE('',*,*,#126,.F.);
#177=ORIENTED_EDGE('',*,*,#129,.T.);
#178=ORIENTED_EDGE('',*,*,#130,.T.);
#179=ORIENTED_EDGE('',*,*,#129,.F.);
#180=ORIENTED_EDGE('',*,*,#130,.F.);
#181=PLANE('',#218);
#182=PLANE('',#219);
#183=PLANE('',#220);
#184=PLANE('',#221);
#185=PLANE('',#222);
#186=PLANE('',#223);
#187=PLANE('',#224);
#188=PLANE('',#226);
#189=PLANE('',#227);
#190=PLANE('',#228);
#191=PLANE('',#231);
#192=ADVANCED_FACE('',(#19),#181,.T.);
#193=ADVANCED_FACE('',(#20),#182,.T.);
#194=ADVANCED_FACE('',(#21),#183,.T.);
#195=ADVANCED_FACE('',(#22),#184,.T.);
#196=ADVANCED_FACE('',(#23),#185,.T.);
#197=ADVANCED_FACE('',(#24),#186,.T.);
#198=ADVANCED_FACE('',(#25,#16),#187,.F.);
#199=ADVANCED_FACE('',(#26),#188,.T.);
#200=ADVANCED_FACE('',(#27),#189,.T.);
#201=ADVANCED_FACE('',(#28),#190,.T.);
#202=ADVANCED_FACE('',(#29),#15,.T.);
#203=ADVANCED_FACE('',(#30),#191,.F.);
#204=CLOSED_SHELL('',(#192,#193,#194,#195,#196,#197,#198,#199,#200,#201,
#202,#203));
#205=DERIVED_UNIT_ELEMENT(#207,1.);
#206=DERIVED_UNIT_ELEMENT(#344,-3.);
#207=(
MASS_UNIT()
NAMED_UNIT(*)
SI_UNIT(.KILO.,.GRAM.)
);
#208=DERIVED_UNIT((#205,#206));
#209=MEASURE_REPRESENTATION_ITEM('density measure',
POSITIVE_RATIO_MEASURE(7850.),#208);
#210=PROPERTY_DEFINITION_REPRESENTATION(#215,#212);
#211=PROPERTY_DEFINITION_REPRESENTATION(#216,#213);
#212=REPRESENTATION('material name',(#214),#341);
#213=REPRESENTATION('density',(#209),#341);
#214=DESCRIPTIVE_REPRESENTATION_ITEM('Steel','Steel');
#215=PROPERTY_DEFINITION('material property','material name',#351);
#216=PROPERTY_DEFINITION('material property','density of part',#351);
#217=AXIS2_PLACEMENT_3D('',#285,#232,#233);
#218=AXIS2_PLACEMENT_3D('',#286,#234,#235);
#219=AXIS2_PLACEMENT_3D('',#299,#242,#243);
#220=AXIS2_PLACEMENT_3D('',#305,#247,#248);
#221=AXIS2_PLACEMENT_3D('',#311,#252,#253);
#222=AXIS2_PLACEMENT_3D('',#317,#257,#258);
#223=AXIS2_PLACEMENT_3D('',#320,#261,#262);
#224=AXIS2_PLACEMENT_3D('',#321,#263,#264);
#225=AXIS2_PLACEMENT_3D('',#328,#268,#269);
#226=AXIS2_PLACEMENT_3D('',#329,#270,#271);
#227=AXIS2_PLACEMENT_3D('',#331,#273,#274);
#228=AXIS2_PLACEMENT_3D('',#333,#276,#277);
#229=AXIS2_PLACEMENT_3D('',#334,#278,#279);
#230=AXIS2_PLACEMENT_3D('',#337,#281,#282);
#231=AXIS2_PLACEMENT_3D('',#338,#283,#284);
#232=DIRECTION('axis',(0.,0.,1.));
#233=DIRECTION('refdir',(1.,0.,0.));
#234=DIRECTION('center_axis',(0.,-0.5,0.866025403784439));
#235=DIRECTION('ref_axis',(1.,0.,0.));
#236=DIRECTION('',(0.,0.866025403784439,0.5));
#237=DIRECTION('',(1.,0.,0.));
#238=DIRECTION('',(0.,-0.866025403784439,-0.5));
#239=DIRECTION('',(0.447213595499958,0.774596669241483,0.447213595499958));
#240=DIRECTION('',(-1.,0.,0.));
#241=DIRECTION('',(-0.447213595499958,0.774596669241483,0.447213595499958));
#242=DIRECTION('center_axis',(0.,0.,1.));
#243=DIRECTION('ref_axis',(1.,0.,0.));
#244=DIRECTION('',(1.,0.,0.));
#245=DIRECTION('',(0.,1.,0.));
#246=DIRECTION('',(0.,1.,0.));
#247=DIRECTION('center_axis',(0.866025403784439,-0.5,0.));
#248=DIRECTION('ref_axis',(0.,0.,-1.));
#249=DIRECTION('',(0.,0.,1.));
#250=DIRECTION('',(0.,0.,-1.));
#251=DIRECTION('',(0.447213595499958,0.774596669241483,-0.447213595499958));
#252=DIRECTION('center_axis',(-0.866025403784439,-0.5,0.));
#253=DIRECTION('ref_axis',(0.,0.,1.));
#254=DIRECTION('',(0.,0.,-1.));
#255=DIRECTION('',(-0.447213595499958,0.774596669241483,-0.447213595499958));
#256=DIRECTION('',(0.,0.,1.));
#257=DIRECTION('center_axis',(0.,-0.5,-0.866025403784439));
#258=DIRECTION('ref_axis',(-1.,0.,0.));
#259=DIRECTION('',(1.,0.,0.));
#260=DIRECTION('',(-1.,0.,0.));
#261=DIRECTION('center_axis',(0.,1.,0.));
#262=DIRECTION('ref_axis',(0.,0.,1.));
#263=DIRECTION('center_axis',(0.,0.,1.));
#264=DIRECTION('ref_axis',(-1.,0.,0.));
#265=DIRECTION('',(-1.,0.,0.));
#266=DIRECTION('',(0.,1.,0.));
#267=DIRECTION('',(0.,-1.,0.));
#268=DIRECTION('center_axis',(0.,0.,-1.));
#269=DIRECTION('ref_axis',(1.,0.,0.));
#270=DIRECTION('center_axis',(-1.,0.,0.));
#271=DIRECTION('ref_axis',(0.,-1.,0.));
#272=DIRECTION('',(0.,0.,1.));
#273=DIRECTION('center_axis',(1.,0.,0.));
#274=DIRECTION('ref_axis',(0.,1.,0.));
#275=DIRECTION('',(0.,0.,1.));
#276=DIRECTION('center_axis',(0.,-1.,0.));
#277=DIRECTION('ref_axis',(1.,0.,0.));
#278=DIRECTION('center_axis',(0.,0.,1.));
#279=DIRECTION('ref_axis',(1.,0.,0.));
#280=DIRECTION('',(0.,0.,-1.));
#281=DIRECTION('center_axis',(0.,0.,-1.));
#282=DIRECTION('ref_axis',(1.,0.,0.));
#283=DIRECTION('center_axis',(0.,0.,1.));
#284=DIRECTION('ref_axis',(1.,0.,0.));
#285=CARTESIAN_POINT('',(0.,0.,0.));
#286=CARTESIAN_POINT('Origin',(5.,9.,45.));
#287=CARTESIAN_POINT('',(-5.,9.,45.));
#288=CARTESIAN_POINT('',(-5.,14.9617188796521,48.442));
#289=CARTESIAN_POINT('',(-5.,9.,45.));
#290=CARTESIAN_POINT('',(5.,14.9617188796521,48.442));
#291=CARTESIAN_POINT('',(0.,14.9617188796521,48.442));
#292=CARTESIAN_POINT('',(5.,9.,45.));
#293=CARTESIAN_POINT('',(5.,9.74521485995651,45.43025));
#294=CARTESIAN_POINT('',(8.46410161513775,15.,48.4641016151377));
#295=CARTESIAN_POINT('',(4.5,8.13397459621556,44.5));
#296=CARTESIAN_POINT('',(-8.46410161513775,15.,48.4641016151377));
#297=CARTESIAN_POINT('',(-5.,15.,48.4641016151377));
#298=CARTESIAN_POINT('',(-4.,7.26794919243112,44.));
#299=CARTESIAN_POINT('Origin',(0.,0.,48.442));
#300=CARTESIAN_POINT('',(-5.,-5.,48.442));
#301=CARTESIAN_POINT('',(5.,-5.,48.442));
#302=CARTESIAN_POINT('',(5.,-5.,48.442));
#303=CARTESIAN_POINT('',(5.,5.,48.442));
#304=CARTESIAN_POINT('',(-5.,9.,48.442));
#305=CARTESIAN_POINT('Origin',(5.,9.,40.));
#306=CARTESIAN_POINT('',(8.46410161513775,15.,36.5358983848622));
#307=CARTESIAN_POINT('',(8.46410161513775,15.,40.));
#308=CARTESIAN_POINT('',(5.,9.,40.));
#309=CARTESIAN_POINT('',(5.,9.,40.));
#310=CARTESIAN_POINT('',(4.,7.26794919243112,41.));
#311=CARTESIAN_POINT('Origin',(-5.,9.,45.));
#312=CARTESIAN_POINT('',(-8.46410161513775,15.,36.5358983848623));
#313=CARTESIAN_POINT('',(-8.46410161513775,15.,40.));
#314=CARTESIAN_POINT('',(-5.,9.,40.));
#315=CARTESIAN_POINT('',(-4.5,8.13397459621556,40.5));
#316=CARTESIAN_POINT('',(-5.,9.,40.));
#317=CARTESIAN_POINT('Origin',(-5.,9.,40.));
#318=CARTESIAN_POINT('',(-5.,15.,36.5358983848623));
#319=CARTESIAN_POINT('',(-5.,9.,40.));
#320=CARTESIAN_POINT('Origin',(5.,15.,40.));
#321=CARTESIAN_POINT('Origin',(0.,0.,40.));
#322=CARTESIAN_POINT('',(5.,-5.,40.));
#323=CARTESIAN_POINT('',(-5.,-5.,40.));
#324=CARTESIAN_POINT('',(5.,-5.,40.));
#325=CARTESIAN_POINT('',(-5.,5.,40.));
#326=CARTESIAN_POINT('',(5.,5.,40.));
#327=CARTESIAN_POINT('',(-4.73075,5.79349784506634E-16,40.));
#328=CARTESIAN_POINT('Origin',(0.,0.,40.));
#329=CARTESIAN_POINT('Origin',(-5.,5.,40.));
#330=CARTESIAN_POINT('',(-5.,-5.,40.));
#331=CARTESIAN_POINT('Origin',(5.,-5.,40.));
#332=CARTESIAN_POINT('',(5.,-5.,40.));
#333=CARTESIAN_POINT('Origin',(-5.,-5.,40.));
#334=CARTESIAN_POINT('Origin',(0.,0.,0.));
#335=CARTESIAN_POINT('',(-4.73075,5.79349784506634E-16,0.));
#336=CARTESIAN_POINT('',(-4.73075,-5.79349784506634E-16,0.));
#337=CARTESIAN_POINT('Origin',(0.,0.,0.));
#338=CARTESIAN_POINT('Origin',(0.,0.,0.));
#339=UNCERTAINTY_MEASURE_WITH_UNIT(LENGTH_MEASURE(0.01),#343,
'DISTANCE_ACCURACY_VALUE',
'Maximum model space distance between geometric entities at asserted c
onnectivities');
#340=UNCERTAINTY_MEASURE_WITH_UNIT(LENGTH_MEASURE(0.01),#343,
'DISTANCE_ACCURACY_VALUE',
'Maximum model space distance between geometric entities at asserted c
onnectivities');
#341=(
GEOMETRIC_REPRESENTATION_CONTEXT(3)
GLOBAL_UNCERTAINTY_ASSIGNED_CONTEXT((#339))
GLOBAL_UNIT_ASSIGNED_CONTEXT((#343,#345,#346))
REPRESENTATION_CONTEXT('','3D')
);
#342=(
GEOMETRIC_REPRESENTATION_CONTEXT(3)
GLOBAL_UNCERTAINTY_ASSIGNED_CONTEXT((#340))
GLOBAL_UNIT_ASSIGNED_CONTEXT((#343,#345,#346))
REPRESENTATION_CONTEXT('','3D')
);
#343=(
LENGTH_UNIT()
NAMED_UNIT(*)
SI_UNIT(.MILLI.,.METRE.)
);
#344=(
LENGTH_UNIT()
NAMED_UNIT(*)
SI_UNIT($,.METRE.)
);
#345=(
NAMED_UNIT(*)
PLANE_ANGLE_UNIT()
SI_UNIT($,.RADIAN.)
);
#346=(
NAMED_UNIT(*)
SI_UNIT($,.STERADIAN.)
SOLID_ANGLE_UNIT()
);
#347=SHAPE_DEFINITION_REPRESENTATION(#348,#349);
#348=PRODUCT_DEFINITION_SHAPE('',$,#351);
#349=SHAPE_REPRESENTATION('',(#217),#341);
#350=PRODUCT_DEFINITION_CONTEXT('part definition',#355,'design');
#351=PRODUCT_DEFINITION('(Unsaved)','(Unsaved)',#352,#350);
#352=PRODUCT_DEFINITION_FORMATION('',$,#357);
#353=PRODUCT_RELATED_PRODUCT_CATEGORY('(Unsaved)','(Unsaved)',(#357));
#354=APPLICATION_PROTOCOL_DEFINITION('international standard',
'automotive_design',2009,#355);
#355=APPLICATION_CONTEXT(
'Core Data for Automotive Mechanical Design Process');
#356=PRODUCT_CONTEXT('part definition',#355,'mechanical');
#357=PRODUCT('(Unsaved)','(Unsaved)',$,(#356));
#358=PRESENTATION_STYLE_ASSIGNMENT((#359));
#359=SURFACE_STYLE_USAGE(.BOTH.,#360);
#360=SURFACE_SIDE_STYLE('',(#361));
#361=SURFACE_STYLE_FILL_AREA(#362);
#362=FILL_AREA_STYLE('Steel - Satin',(#363));
#363=FILL_AREA_STYLE_COLOUR('Steel - Satin',#364);
#364=COLOUR_RGB('Steel - Satin',0.627450980392157,0.627450980392157,0.627450980392157);
ENDSEC;
END-ISO-10303-21;
