ISO-10303-21;
HEADER;
/* Generated by software containing ST-Developer
 * from STEP Tools, Inc. (www.steptools.com) 
 */

FILE_DESCRIPTION(
/* description */ (''),
/* implementation_level */ '2;1');

FILE_NAME(
/* name */ 'Trans-tibial (below-knee) Prosthesis.step',
/* time_stamp */ '2026-07-02T14:50:28+05:30',
/* author */ (''),
/* organization */ (''),
/* preprocessor_version */ 'ST-DEVELOPER v20.1',
/* originating_system */ 'Autodesk Translation Framework v15.8.0.0',
/* authorisation */ '');

FILE_SCHEMA (('AUTOMOTIVE_DESIGN { 1 0 10303 214 3 1 1 }'));
ENDSEC;

DATA;
#10=MECHANICAL_DESIGN_GEOMETRIC_PRESENTATION_REPRESENTATION('',(#13),#867);
#11=SHAPE_REPRESENTATION_RELATIONSHIP('SRR','None',#874,#12);
#12=ADVANCED_BREP_SHAPE_REPRESENTATION('',(#14),#866);
#13=STYLED_ITEM('',(#883),#14);
#14=MANIFOLD_SOLID_BREP('Body1',#180);
#15=FACE_BOUND('',#51,.T.);
#16=LINE('',#850,#18);
#17=LINE('',#856,#19);
#18=VECTOR('',#240,20.8938415433228);
#19=VECTOR('',#247,15.);
#20=CONICAL_SURFACE('',#205,20.8938415433228,0.349065850398866);
#21=CONICAL_SURFACE('',#207,15.,0.349065850398866);
#22=TOROIDAL_SURFACE('',#202,17.6862608440565,5.);
#23=(
BOUNDED_CURVE()
B_SPLINE_CURVE(2,(#544,#545,#546),.UNSPECIFIED.,.F.,.F.)
B_SPLINE_CURVE_WITH_KNOTS((3,3),(-0.0765191344030376,-0.00764416741409099),
 .UNSPECIFIED.)
CURVE()
GEOMETRIC_REPRESENTATION_ITEM()
RATIONAL_B_SPLINE_CURVE((1.,0.999328582336445,0.999842954644566))
REPRESENTATION_ITEM('')
);
#24=(
BOUNDED_SURFACE()
B_SPLINE_SURFACE(2,2,((#515,#516,#517,#518,#519,#520,#521,#522,#523),(#524,
#525,#526,#527,#528,#529,#530,#531,#532),(#533,#534,#535,#536,#537,#538,
#539,#540,#541)),.UNSPECIFIED.,.F.,.T.,.F.)
B_SPLINE_SURFACE_WITH_KNOTS((3,3),(3,2,2,2,3),(-0.00147759438997765,0.0765191344030376),
(-3.14159265358979,-1.5707963267949,0.,1.5707963267949,3.14159265358979),
 .UNSPECIFIED.)
GEOMETRIC_REPRESENTATION_ITEM()
RATIONAL_B_SPLINE_SURFACE(((1.,0.707106781186548,1.,0.707106781186548,1.,
0.707106781186548,1.,0.707106781186548,1.),(0.999239660159554,0.706569139729362,
0.999239660159554,0.706569139729362,0.999239660159554,0.706569139729362,
0.999239660159554,0.706569139729362,0.999239660159554),(1.,0.707106781186548,
1.,0.707106781186548,1.,0.707106781186548,1.,0.707106781186548,1.)))
REPRESENTATION_ITEM('')
SURFACE()
);
#25=SPHERICAL_SURFACE('',#199,45.);
#26=SPHERICAL_SURFACE('',#211,15.);
#27=PLANE('',#196);
#28=PLANE('',#213);
#29=FACE_OUTER_BOUND('',#40,.T.);
#30=FACE_OUTER_BOUND('',#41,.T.);
#31=FACE_OUTER_BOUND('',#42,.T.);
#32=FACE_OUTER_BOUND('',#43,.T.);
#33=FACE_OUTER_BOUND('',#44,.T.);
#34=FACE_OUTER_BOUND('',#45,.T.);
#35=FACE_OUTER_BOUND('',#46,.T.);
#36=FACE_OUTER_BOUND('',#47,.T.);
#37=FACE_OUTER_BOUND('',#48,.T.);
#38=FACE_OUTER_BOUND('',#49,.T.);
#39=FACE_OUTER_BOUND('',#50,.T.);
#40=EDGE_LOOP('',(#116,#117,#118,#119));
#41=EDGE_LOOP('',(#120,#121,#122,#123));
#42=EDGE_LOOP('',(#124,#125));
#43=EDGE_LOOP('',(#126,#127,#128,#129,#130));
#44=EDGE_LOOP('',(#131,#132,#133,#134,#135,#136,#137,#138));
#45=EDGE_LOOP('',(#139,#140,#141,#142,#143,#144));
#46=EDGE_LOOP('',(#145,#146,#147,#148,#149,#150));
#47=EDGE_LOOP('',(#151,#152,#153,#154));
#48=EDGE_LOOP('',(#155,#156,#157,#158,#159));
#49=EDGE_LOOP('',(#160,#161,#162,#163));
#50=EDGE_LOOP('',(#164));
#51=EDGE_LOOP('',(#165));
#52=CIRCLE('',#194,5.);
#53=CIRCLE('',#195,20.8938415433228);
#54=CIRCLE('',#197,43.8748219369606);
#55=CIRCLE('',#198,31.0292061079235);
#56=CIRCLE('',#200,20.8938415433228);
#57=CIRCLE('',#201,20.8938415433228);
#58=CIRCLE('',#203,22.3847239479861);
#59=CIRCLE('',#204,5.);
#60=CIRCLE('',#206,20.8938415433228);
#61=CIRCLE('',#208,15.);
#62=CIRCLE('',#209,11.4906666467847);
#63=CIRCLE('',#210,11.4906666467847);
#64=CIRCLE('',#212,15.);
#65=B_SPLINE_CURVE_WITH_KNOTS('',3,(#301,#302,#303,#304),.UNSPECIFIED.,
 .F.,.F.,(4,4),(-1.,0.),.UNSPECIFIED.);
#66=B_SPLINE_CURVE_WITH_KNOTS('',3,(#306,#307,#308,#309,#310,#311,#312,
#313,#314,#315),.UNSPECIFIED.,.F.,.F.,(4,1,1,1,1,1,1,4),(-1.88572533001863E-15,
0.85046875193082,2.12617187982705,2.55140625579246,3.40187500772329,4.25234375965411,
5.10281251158493,5.95328126351575),.UNSPECIFIED.);
#67=B_SPLINE_CURVE_WITH_KNOTS('',3,(#322,#323,#324,#325,#326,#327,#328,
#329,#330,#331,#332,#333,#334,#335),.UNSPECIFIED.,.F.,.F.,(4,2,2,2,2,2,
4),(-0.949596308334385,-0.794895732451755,-0.645736777092192,-0.494179007939123,
-0.335246961295826,-0.168934156505782,0.),.UNSPECIFIED.);
#68=B_SPLINE_CURVE_WITH_KNOTS('',3,(#339,#340,#341,#342,#343,#344,#345,
#346,#347,#348,#349,#350,#351,#352,#353,#354),.UNSPECIFIED.,.F.,.F.,(4,
2,2,2,2,2,2,4),(-0.94840701816528,-0.861605359146848,-0.775116241542914,
-0.613204795539873,-0.459265541802999,-0.309864511110762,-0.158598990606365,
0.),.UNSPECIFIED.);
#69=B_SPLINE_CURVE_WITH_KNOTS('',3,(#357,#358,#359,#360,#361,#362,#363,
#364,#365,#366,#367,#368,#369,#370,#371,#372,#373),.UNSPECIFIED.,.F.,.F.,
(4,1,1,1,1,1,1,1,1,1,1,1,1,1,4),(1.10552506788383,1.93690467852772,2.86058796878727,
3.78427125904683,4.70795454930638,5.93953226965245,6.24742669973897,6.55532112982548,
7.17110998999852,8.40268771034459,9.01847657051762,10.2500542908637,10.8658431510367,
12.0974208713828,13.8524665587109),.UNSPECIFIED.);
#70=B_SPLINE_CURVE_WITH_KNOTS('',3,(#494,#495,#496,#497,#498,#499,#500,
#501,#502,#503,#504,#505,#506),.UNSPECIFIED.,.F.,.F.,(4,1,1,1,1,1,1,1,1,
1,4),(-13.9447874519019,-12.0974208713828,-10.8658431510367,-10.2500542908637,
-9.01847657051762,-8.40268771034459,-7.17110998999852,-6.55532112982548,
-6.24742669973897,-5.93953226965245,-5.12599782827824),.UNSPECIFIED.);
#71=B_SPLINE_CURVE_WITH_KNOTS('',3,(#507,#508,#509,#510,#511,#512,#513,
#514),.UNSPECIFIED.,.F.,.F.,(4,1,1,1,1,4),(-5.12599782827824,-4.70795454930638,
-3.78427125904683,-2.86058796878727,-1.93690467852772,-1.01322138826817),
 .UNSPECIFIED.);
#72=B_SPLINE_CURVE_WITH_KNOTS('',3,(#593,#594,#595,#596,#597,#598,#599,
#600,#601,#602,#603,#604,#605,#606,#607,#608,#609,#610,#611,#612,#613,#614,
#615,#616,#617,#618,#619,#620,#621,#622,#623,#624,#625,#626,#627,#628,#629,
#630,#631,#632,#633,#634,#635,#636,#637,#638,#639,#640,#641),
 .UNSPECIFIED.,.F.,.F.,(4,3,3,3,3,3,3,3,3,3,3,3,3,3,3,3,4),(5.95328126351575,
6.10410882928294,6.25675777222115,6.40947924222997,6.56091075170297,6.66028458105936,
6.81189492038811,6.87912518814098,7.00650218235076,7.13390442901501,7.26096283426196,
7.36853580749769,7.49590694683451,7.6237070877145,7.75170758296965,7.8618573578754,
7.92904381846942),.UNSPECIFIED.);
#73=B_SPLINE_CURVE_WITH_KNOTS('',3,(#642,#643,#644,#645,#646,#647,#648,
#649,#650,#651,#652,#653,#654,#655,#656,#657,#658,#659,#660,#661,#662,#663,
#664,#665,#666,#667,#668,#669,#670,#671,#672,#673,#674,#675,#676,#677,#678,
#679,#680,#681,#682,#683,#684,#685,#686,#687,#688,#689,#690,#691,#692,#693,
#694,#695,#696,#697,#698,#699,#700,#701,#702,#703,#704,#705,#706,#707,#708,
#709,#710,#711,#712,#713,#714,#715,#716,#717,#718,#719,#720,#721,#722,#723,
#724,#725,#726,#727,#728,#729,#730,#731,#732,#733,#734,#735,#736,#737,#738,
#739,#740,#741,#742,#743,#744,#745,#746,#747,#748,#749,#750,#751,#752,#753,
#754,#755,#756,#757,#758,#759,#760,#761,#762,#763,#764,#765,#766,#767,#768,
#769,#770,#771,#772,#773,#774,#775,#776,#777,#778,#779,#780,#781,#782,#783,
#784,#785,#786,#787,#788,#789,#790,#791,#792,#793,#794,#795,#796,#797,#798,
#799,#800,#801,#802,#803,#804,#805,#806,#807,#808,#809,#810,#811,#812,#813,
#814,#815,#816,#817,#818,#819,#820,#821,#822,#823,#824,#825,#826,#827,#828,
#829,#830,#831,#832,#833,#834,#835,#836,#837,#838,#839,#840,#841,#842,#843),
 .UNSPECIFIED.,.F.,.F.,(4,3,3,3,3,3,3,3,3,3,3,3,3,3,3,3,3,3,3,3,3,3,3,3,
3,3,3,3,3,3,3,3,3,3,3,3,3,3,3,3,3,3,3,3,3,3,3,3,3,3,3,3,3,3,3,3,3,3,3,3,
3,3,3,3,3,3,3,4),(7.92904381846942,8.06099449146387,8.19332146860582,8.32565508093439,
8.45731178669119,8.5882485384137,8.71779839647972,8.78373221521626,8.84458952760982,
8.97526543325251,9.10697604513689,9.23949031218878,9.37249858861855,9.50556762922049,
9.63828810232316,9.77006840631231,9.82732169734425,9.95693856917315,10.0861702860902,
10.1997305950594,10.3277228300484,10.4568257486877,10.5862296043858,10.7156108364019,
10.8100538670787,10.9408523285407,11.0720929122467,11.207626478463,11.3384584278642,
11.468663944757,11.5977157548899,11.6142271771119,11.745931051577,11.7927860368131,
11.9245319374463,12.0571931507989,12.190492345087,12.3240831508578,12.4574106655191,
12.5902162379268,12.7218815923116,12.7755182065475,12.9064766720154,13.0308296372391,
13.1596687994853,13.2894360422068,13.4200804819534,13.5508609962075,13.6813361483692,
13.7582503762819,13.8886376325372,14.0193958556078,14.1500578771445,14.2802944314614,
14.4095326887,14.4447118642455,14.5754623309595,14.7067578164885,14.7409825460164,
14.8809820790164,15.0163153833465,15.1586480306815,15.3009806780164,15.4336908382331,
15.5662939173475,15.6984533287531,15.829582762186,15.8609788100164),
 .UNSPECIFIED.);
#74=VERTEX_POINT('',#299);
#75=VERTEX_POINT('',#300);
#76=VERTEX_POINT('',#305);
#77=VERTEX_POINT('',#316);
#78=VERTEX_POINT('',#320);
#79=VERTEX_POINT('',#321);
#80=VERTEX_POINT('',#336);
#81=VERTEX_POINT('',#338);
#82=VERTEX_POINT('',#493);
#83=VERTEX_POINT('',#542);
#84=VERTEX_POINT('',#592);
#85=VERTEX_POINT('',#845);
#86=VERTEX_POINT('',#849);
#87=VERTEX_POINT('',#853);
#88=VERTEX_POINT('',#855);
#89=VERTEX_POINT('',#857);
#90=VERTEX_POINT('',#861);
#91=EDGE_CURVE('',#74,#75,#65,.T.);
#92=EDGE_CURVE('',#74,#76,#66,.T.);
#93=EDGE_CURVE('',#77,#76,#52,.T.);
#94=EDGE_CURVE('',#75,#77,#53,.T.);
#95=EDGE_CURVE('',#78,#79,#67,.T.);
#96=EDGE_CURVE('',#80,#78,#54,.T.);
#97=EDGE_CURVE('',#81,#80,#68,.T.);
#98=EDGE_CURVE('',#79,#81,#55,.T.);
#99=EDGE_CURVE('',#80,#78,#69,.T.);
#100=EDGE_CURVE('',#79,#82,#70,.T.);
#101=EDGE_CURVE('',#82,#81,#71,.T.);
#102=EDGE_CURVE('',#77,#83,#56,.T.);
#103=EDGE_CURVE('',#83,#82,#23,.T.);
#104=EDGE_CURVE('',#83,#75,#57,.T.);
#105=EDGE_CURVE('',#76,#84,#72,.T.);
#106=EDGE_CURVE('',#84,#74,#73,.T.);
#107=EDGE_CURVE('',#85,#85,#58,.T.);
#108=EDGE_CURVE('',#85,#84,#59,.T.);
#109=EDGE_CURVE('',#85,#86,#16,.T.);
#110=EDGE_CURVE('',#86,#86,#60,.T.);
#111=EDGE_CURVE('',#87,#87,#61,.T.);
#112=EDGE_CURVE('',#87,#88,#17,.T.);
#113=EDGE_CURVE('',#89,#88,#62,.T.);
#114=EDGE_CURVE('',#88,#89,#63,.T.);
#115=EDGE_CURVE('',#89,#90,#64,.T.);
#116=ORIENTED_EDGE('',*,*,#91,.F.);
#117=ORIENTED_EDGE('',*,*,#92,.T.);
#118=ORIENTED_EDGE('',*,*,#93,.F.);
#119=ORIENTED_EDGE('',*,*,#94,.F.);
#120=ORIENTED_EDGE('',*,*,#95,.F.);
#121=ORIENTED_EDGE('',*,*,#96,.F.);
#122=ORIENTED_EDGE('',*,*,#97,.F.);
#123=ORIENTED_EDGE('',*,*,#98,.F.);
#124=ORIENTED_EDGE('',*,*,#96,.T.);
#125=ORIENTED_EDGE('',*,*,#99,.F.);
#126=ORIENTED_EDGE('',*,*,#97,.T.);
#127=ORIENTED_EDGE('',*,*,#99,.T.);
#128=ORIENTED_EDGE('',*,*,#95,.T.);
#129=ORIENTED_EDGE('',*,*,#100,.T.);
#130=ORIENTED_EDGE('',*,*,#101,.T.);
#131=ORIENTED_EDGE('',*,*,#102,.T.);
#132=ORIENTED_EDGE('',*,*,#103,.T.);
#133=ORIENTED_EDGE('',*,*,#100,.F.);
#134=ORIENTED_EDGE('',*,*,#98,.T.);
#135=ORIENTED_EDGE('',*,*,#101,.F.);
#136=ORIENTED_EDGE('',*,*,#103,.F.);
#137=ORIENTED_EDGE('',*,*,#104,.T.);
#138=ORIENTED_EDGE('',*,*,#94,.T.);
#139=ORIENTED_EDGE('',*,*,#91,.T.);
#140=ORIENTED_EDGE('',*,*,#104,.F.);
#141=ORIENTED_EDGE('',*,*,#102,.F.);
#142=ORIENTED_EDGE('',*,*,#93,.T.);
#143=ORIENTED_EDGE('',*,*,#105,.T.);
#144=ORIENTED_EDGE('',*,*,#106,.T.);
#145=ORIENTED_EDGE('',*,*,#107,.T.);
#146=ORIENTED_EDGE('',*,*,#108,.T.);
#147=ORIENTED_EDGE('',*,*,#105,.F.);
#148=ORIENTED_EDGE('',*,*,#92,.F.);
#149=ORIENTED_EDGE('',*,*,#106,.F.);
#150=ORIENTED_EDGE('',*,*,#108,.F.);
#151=ORIENTED_EDGE('',*,*,#107,.F.);
#152=ORIENTED_EDGE('',*,*,#109,.T.);
#153=ORIENTED_EDGE('',*,*,#110,.F.);
#154=ORIENTED_EDGE('',*,*,#109,.F.);
#155=ORIENTED_EDGE('',*,*,#111,.F.);
#156=ORIENTED_EDGE('',*,*,#112,.T.);
#157=ORIENTED_EDGE('',*,*,#113,.F.);
#158=ORIENTED_EDGE('',*,*,#114,.F.);
#159=ORIENTED_EDGE('',*,*,#112,.F.);
#160=ORIENTED_EDGE('',*,*,#114,.T.);
#161=ORIENTED_EDGE('',*,*,#115,.T.);
#162=ORIENTED_EDGE('',*,*,#115,.F.);
#163=ORIENTED_EDGE('',*,*,#113,.T.);
#164=ORIENTED_EDGE('',*,*,#110,.T.);
#165=ORIENTED_EDGE('',*,*,#111,.T.);
#166=B_SPLINE_SURFACE_WITH_KNOTS('',3,3,((#259,#260,#261,#262,#263,#264,
#265,#266,#267,#268),(#269,#270,#271,#272,#273,#274,#275,#276,#277,#278),
(#279,#280,#281,#282,#283,#284,#285,#286,#287,#288),(#289,#290,#291,#292,
#293,#294,#295,#296,#297,#298)),.UNSPECIFIED.,.F.,.F.,.F.,(4,4),(4,1,1,
1,1,1,1,4),(0.,1.),(-1.88572533001863E-15,0.85046875193082,2.12617187982705,
2.55140625579246,3.40187500772329,4.25234375965411,5.10281251158493,5.95328126351575),
 .UNSPECIFIED.);
#167=B_SPLINE_SURFACE_WITH_KNOTS('',3,3,((#374,#375,#376,#377,#378,#379,
#380,#381,#382,#383,#384,#385,#386,#387,#388,#389,#390),(#391,#392,#393,
#394,#395,#396,#397,#398,#399,#400,#401,#402,#403,#404,#405,#406,#407),
(#408,#409,#410,#411,#412,#413,#414,#415,#416,#417,#418,#419,#420,#421,
#422,#423,#424),(#425,#426,#427,#428,#429,#430,#431,#432,#433,#434,#435,
#436,#437,#438,#439,#440,#441),(#442,#443,#444,#445,#446,#447,#448,#449,
#450,#451,#452,#453,#454,#455,#456,#457,#458),(#459,#460,#461,#462,#463,
#464,#465,#466,#467,#468,#469,#470,#471,#472,#473,#474,#475),(#476,#477,
#478,#479,#480,#481,#482,#483,#484,#485,#486,#487,#488,#489,#490,#491,#492)),
 .UNSPECIFIED.,.F.,.F.,.F.,(4,1,1,1,4),(4,1,1,1,1,1,1,1,1,1,1,1,1,1,4),
(0.,0.285714285714286,0.571428571428571,0.857142857142857,1.),(1.01322138826817,
1.93690467852772,2.86058796878727,3.78427125904683,4.70795454930638,5.93953226965245,
6.24742669973897,6.55532112982548,7.17110998999852,8.40268771034459,9.01847657051762,
10.2500542908637,10.8658431510367,12.0974208713828,13.9447874519019),
 .UNSPECIFIED.);
#168=B_SPLINE_SURFACE_WITH_KNOTS('',3,3,((#548,#549,#550,#551,#552,#553,
#554,#555,#556,#557,#558),(#559,#560,#561,#562,#563,#564,#565,#566,#567,
#568,#569),(#570,#571,#572,#573,#574,#575,#576,#577,#578,#579,#580),(#581,
#582,#583,#584,#585,#586,#587,#588,#589,#590,#591)),.UNSPECIFIED.,.F.,.F.,
 .F.,(4,4),(4,1,1,1,1,1,1,1,4),(0.,1.),(-9.90769754650066,-9.20000486460776,
-8.49231218271485,-7.07692681892904,-5.66154145514323,-4.24615609135743,
-2.83077072757162,-1.41538536378581,0.),.UNSPECIFIED.);
#169=ADVANCED_FACE('',(#29),#166,.T.);
#170=ADVANCED_FACE('',(#30),#27,.T.);
#171=ADVANCED_FACE('',(#31),#25,.F.);
#172=ADVANCED_FACE('',(#32),#167,.F.);
#173=ADVANCED_FACE('',(#33),#24,.T.);
#174=ADVANCED_FACE('',(#34),#168,.T.);
#175=ADVANCED_FACE('',(#35),#22,.T.);
#176=ADVANCED_FACE('',(#36),#20,.T.);
#177=ADVANCED_FACE('',(#37),#21,.F.);
#178=ADVANCED_FACE('',(#38),#26,.F.);
#179=ADVANCED_FACE('',(#39,#15),#28,.T.);
#180=CLOSED_SHELL('',(#169,#170,#171,#172,#173,#174,#175,#176,#177,#178,
#179));
#181=DERIVED_UNIT_ELEMENT(#183,1.);
#182=DERIVED_UNIT_ELEMENT(#869,-3.);
#183=(
MASS_UNIT()
NAMED_UNIT(*)
SI_UNIT(.KILO.,.GRAM.)
);
#184=DERIVED_UNIT((#181,#182));
#185=MEASURE_REPRESENTATION_ITEM('density measure',
POSITIVE_RATIO_MEASURE(7850.),#184);
#186=PROPERTY_DEFINITION_REPRESENTATION(#191,#188);
#187=PROPERTY_DEFINITION_REPRESENTATION(#192,#189);
#188=REPRESENTATION('material name',(#190),#866);
#189=REPRESENTATION('density',(#185),#866);
#190=DESCRIPTIVE_REPRESENTATION_ITEM('Steel','Steel');
#191=PROPERTY_DEFINITION('material property','material name',#876);
#192=PROPERTY_DEFINITION('material property','density of part',#876);
#193=AXIS2_PLACEMENT_3D('',#258,#214,#215);
#194=AXIS2_PLACEMENT_3D('',#317,#216,#217);
#195=AXIS2_PLACEMENT_3D('',#318,#218,#219);
#196=AXIS2_PLACEMENT_3D('',#319,#220,#221);
#197=AXIS2_PLACEMENT_3D('',#337,#222,#223);
#198=AXIS2_PLACEMENT_3D('',#355,#224,#225);
#199=AXIS2_PLACEMENT_3D('',#356,#226,#227);
#200=AXIS2_PLACEMENT_3D('',#543,#228,#229);
#201=AXIS2_PLACEMENT_3D('',#547,#230,#231);
#202=AXIS2_PLACEMENT_3D('',#844,#232,#233);
#203=AXIS2_PLACEMENT_3D('',#846,#234,#235);
#204=AXIS2_PLACEMENT_3D('',#847,#236,#237);
#205=AXIS2_PLACEMENT_3D('',#848,#238,#239);
#206=AXIS2_PLACEMENT_3D('',#851,#241,#242);
#207=AXIS2_PLACEMENT_3D('',#852,#243,#244);
#208=AXIS2_PLACEMENT_3D('',#854,#245,#246);
#209=AXIS2_PLACEMENT_3D('',#858,#248,#249);
#210=AXIS2_PLACEMENT_3D('',#859,#250,#251);
#211=AXIS2_PLACEMENT_3D('',#860,#252,#253);
#212=AXIS2_PLACEMENT_3D('',#862,#254,#255);
#213=AXIS2_PLACEMENT_3D('',#863,#256,#257);
#214=DIRECTION('axis',(0.,0.,1.));
#215=DIRECTION('refdir',(1.,0.,0.));
#216=DIRECTION('center_axis',(0.70533851423705,0.708870637234941,-2.33140597288887E-15));
#217=DIRECTION('ref_axis',(0.638298412347901,-0.635117932887551,-0.434971663581426));
#218=DIRECTION('center_axis',(0.,0.,1.));
#219=DIRECTION('ref_axis',(1.,0.,0.));
#220=DIRECTION('center_axis',(0.,0.,1.));
#221=DIRECTION('ref_axis',(-1.,0.,0.));
#222=DIRECTION('center_axis',(0.,0.,1.));
#223=DIRECTION('ref_axis',(0.,-1.,0.));
#224=DIRECTION('center_axis',(2.06481974292973E-18,2.07874387806902E-18,
-1.));
#225=DIRECTION('ref_axis',(-1.,0.,-2.06481974292973E-18));
#226=DIRECTION('center_axis',(-0.999628193115162,0.0198333883054469,-0.0187112863705996));
#227=DIRECTION('ref_axis',(0.0272667476849956,0.727113271599865,-0.685975812061929));
#228=DIRECTION('center_axis',(0.,0.,1.));
#229=DIRECTION('ref_axis',(1.,0.,0.));
#230=DIRECTION('center_axis',(0.,0.,1.));
#231=DIRECTION('ref_axis',(1.,0.,0.));
#232=DIRECTION('center_axis',(-1.60540270597837E-48,1.31091079248001E-32,
-1.));
#233=DIRECTION('ref_axis',(1.,1.22464679914735E-16,0.));
#234=DIRECTION('center_axis',(1.60540270597837E-48,-1.31091079248001E-32,
1.));
#235=DIRECTION('ref_axis',(1.,1.22464679914735E-16,0.));
#236=DIRECTION('center_axis',(-2.44929359829471E-16,1.,1.31091079248001E-32));
#237=DIRECTION('ref_axis',(-1.,-2.44929359829471E-16,0.));
#238=DIRECTION('center_axis',(0.,0.,1.));
#239=DIRECTION('ref_axis',(1.,0.,0.));
#240=DIRECTION('',(0.342020143325669,4.18853873767699E-17,-0.939692620785908));
#241=DIRECTION('center_axis',(0.,0.,-1.));
#242=DIRECTION('ref_axis',(1.,0.,0.));
#243=DIRECTION('center_axis',(0.,0.,-1.));
#244=DIRECTION('ref_axis',(0.,-1.,0.));
#245=DIRECTION('center_axis',(0.,0.,1.));
#246=DIRECTION('ref_axis',(0.,-1.,0.));
#247=DIRECTION('',(4.18853873767699E-17,-0.342020143325669,0.939692620785908));
#248=DIRECTION('center_axis',(0.,0.,-1.));
#249=DIRECTION('ref_axis',(0.,-1.,0.));
#250=DIRECTION('center_axis',(0.,0.,-1.));
#251=DIRECTION('ref_axis',(0.,-1.,0.));
#252=DIRECTION('center_axis',(6.12323399573677E-17,0.,1.));
#253=DIRECTION('ref_axis',(1.,0.,0.));
#254=DIRECTION('center_axis',(-1.22464679914735E-16,1.,0.));
#255=DIRECTION('ref_axis',(-1.,-1.22464679914735E-16,0.));
#256=DIRECTION('center_axis',(0.,0.,-1.));
#257=DIRECTION('ref_axis',(-1.,0.,0.));
#258=CARTESIAN_POINT('',(0.,0.,0.));
#259=CARTESIAN_POINT('Ctrl Pts',(20.8938409352448,-0.00504085035694268,
20.));
#260=CARTESIAN_POINT('Ctrl Pts',(20.8944036321528,2.32728382894468,20.));
#261=CARTESIAN_POINT('Ctrl Pts',(19.9002036342917,8.22879401680572,20.));
#262=CARTESIAN_POINT('Ctrl Pts',(15.8677991881588,14.2471919790475,20.));
#263=CARTESIAN_POINT('Ctrl Pts',(10.2058299898536,18.4947256298023,20.));
#264=CARTESIAN_POINT('Ctrl Pts',(4.71656812595486,20.7664784256145,20.));
#265=CARTESIAN_POINT('Ctrl Pts',(-2.4333899636304,21.1525515224041,20.));
#266=CARTESIAN_POINT('Ctrl Pts',(-9.27224856314204,19.1690414956818,20.));
#267=CARTESIAN_POINT('Ctrl Pts',(-13.1626470111138,16.393869518615,20.));
#268=CARTESIAN_POINT('Ctrl Pts',(-14.8110307691011,14.7372311508717,20.));
#269=CARTESIAN_POINT('Ctrl Pts',(21.0681273886963,-0.00508289872582848,
19.6392058755721));
#270=CARTESIAN_POINT('Ctrl Pts',(21.0686947782125,2.34669219083651,19.6392058755721));
#271=CARTESIAN_POINT('Ctrl Pts',(20.0661990281471,8.29743720405787,19.6392058755722));
#272=CARTESIAN_POINT('Ctrl Pts',(16.00015932006,14.3660352762262,19.6392058755721));
#273=CARTESIAN_POINT('Ctrl Pts',(10.2909615449197,18.648997812677,19.6392058755722));
#274=CARTESIAN_POINT('Ctrl Pts',(4.75591198047682,20.939702499202,19.6392058755721));
#275=CARTESIAN_POINT('Ctrl Pts',(-2.45368857864978,21.3289927899962,19.6392058755722));
#276=CARTESIAN_POINT('Ctrl Pts',(-9.34959058335649,19.3289418192385,19.6392058755721));
#277=CARTESIAN_POINT('Ctrl Pts',(-13.2724468757379,16.5306159978906,19.6392058755721));
#278=CARTESIAN_POINT('Ctrl Pts',(-14.9345773220163,14.8601621025785,19.6392058755721));
#279=CARTESIAN_POINT('Ctrl Pts',(21.285981242839,-0.00513545817058604,19.2994822778375));
#280=CARTESIAN_POINT('Ctrl Pts',(21.2865544994556,2.37095819961978,19.2994822778375));
#281=CARTESIAN_POINT('Ctrl Pts',(20.2736925849863,8.38323632709084,19.2994822778376));
#282=CARTESIAN_POINT('Ctrl Pts',(16.1656081699668,14.5145865016179,19.2994822778375));
#283=CARTESIAN_POINT('Ctrl Pts',(10.3973747080755,18.8418368543126,19.2994822778375));
#284=CARTESIAN_POINT('Ctrl Pts',(4.80509021917142,21.1562283819852,19.2994822778375));
#285=CARTESIAN_POINT('Ctrl Pts',(-2.47906080027347,21.5495442199132,19.2994822778375));
#286=CARTESIAN_POINT('Ctrl Pts',(-9.446269620277,19.5288116716895,19.2994822778375));
#287=CARTESIAN_POINT('Ctrl Pts',(-13.4096897939666,16.7015500715994,19.2994822778375));
#288=CARTESIAN_POINT('Ctrl Pts',(-15.089007526921,15.0138228208523,19.2994822778375));
#289=CARTESIAN_POINT('Ctrl Pts',(21.5411609204108,-0.00519702284760019,
18.990562388205));
#290=CARTESIAN_POINT('Ctrl Pts',(21.5417410504445,2.39938628910484,18.990562388205));
#291=CARTESIAN_POINT('Ctrl Pts',(20.5167393665812,8.48373339522848,18.990562388205));
#292=CARTESIAN_POINT('Ctrl Pts',(16.3594054738068,14.6885896200613,18.990562388205));
#293=CARTESIAN_POINT('Ctrl Pts',(10.522020667198,19.0677177166779,18.990562388205));
#294=CARTESIAN_POINT('Ctrl Pts',(4.86269390621661,21.4098525447189,18.990562388205));
#295=CARTESIAN_POINT('Ctrl Pts',(-2.50877973806402,21.8078867180794,18.990562388205));
#296=CARTESIAN_POINT('Ctrl Pts',(-9.55951560135445,19.762924817331,18.990562388205));
#297=CARTESIAN_POINT('Ctrl Pts',(-13.5704439544517,16.9017741880577,18.990562388205));
#298=CARTESIAN_POINT('Ctrl Pts',(-15.2698969128352,15.1938108807326,18.990562388205));
#299=CARTESIAN_POINT('',(21.5411609204108,-0.00519702284759223,18.990562388205));
#300=CARTESIAN_POINT('',(20.8938409352448,-0.00504085035694268,20.));
#301=CARTESIAN_POINT('Ctrl Pts',(21.5411609204108,-0.00519702284760019,
18.990562388205));
#302=CARTESIAN_POINT('Ctrl Pts',(21.285981242839,-0.00513545817058604,19.2994822778375));
#303=CARTESIAN_POINT('Ctrl Pts',(21.0681273886963,-0.00508289872582848,
19.6392058755721));
#304=CARTESIAN_POINT('Ctrl Pts',(20.8938409352448,-0.00504085035694268,
20.));
#305=CARTESIAN_POINT('',(-15.2698969128352,15.1938108807326,18.990562388205));
#306=CARTESIAN_POINT('Ctrl Pts',(21.5411609204108,-0.00519702284760019,
18.990562388205));
#307=CARTESIAN_POINT('Ctrl Pts',(21.5417410504445,2.39938628910484,18.990562388205));
#308=CARTESIAN_POINT('Ctrl Pts',(20.5167393665812,8.48373339522848,18.990562388205));
#309=CARTESIAN_POINT('Ctrl Pts',(16.3594054738068,14.6885896200613,18.990562388205));
#310=CARTESIAN_POINT('Ctrl Pts',(10.522020667198,19.0677177166779,18.990562388205));
#311=CARTESIAN_POINT('Ctrl Pts',(4.86269390621661,21.4098525447189,18.990562388205));
#312=CARTESIAN_POINT('Ctrl Pts',(-2.50877973806402,21.8078867180794,18.990562388205));
#313=CARTESIAN_POINT('Ctrl Pts',(-9.55951560135445,19.762924817331,18.990562388205));
#314=CARTESIAN_POINT('Ctrl Pts',(-13.5704439544517,16.9017741880577,18.990562388205));
#315=CARTESIAN_POINT('Ctrl Pts',(-15.2698969128352,15.1938108807326,18.990562388205));
#316=CARTESIAN_POINT('',(-14.8110307691011,14.7372311508717,20.));
#317=CARTESIAN_POINT('Origin',(-18.0025228308406,17.9128208153094,22.1748583179071));
#318=CARTESIAN_POINT('Origin',(0.,0.,20.));
#319=CARTESIAN_POINT('Origin',(0.,0.,290.));
#320=CARTESIAN_POINT('',(-24.3800362567849,2.34543873542508,290.000000000059));
#321=CARTESIAN_POINT('',(-30.2744420338853,6.80219017853187,290.00000000003));
#322=CARTESIAN_POINT('Ctrl Pts',(-24.3800362567929,2.34543873538833,290.));
#323=CARTESIAN_POINT('Ctrl Pts',(-24.8182412849531,2.07457907073373,290.));
#324=CARTESIAN_POINT('Ctrl Pts',(-25.303323760616,1.88897624678056,290.));
#325=CARTESIAN_POINT('Ctrl Pts',(-26.3004819657332,1.72061128637061,290.));
#326=CARTESIAN_POINT('Ctrl Pts',(-26.7999615063739,1.73275229565135,289.999999999988));
#327=CARTESIAN_POINT('Ctrl Pts',(-27.7764291819718,1.95110253110441,289.999999999988));
#328=CARTESIAN_POINT('Ctrl Pts',(-28.2403839408339,2.15762472929295,289.999999999901));
#329=CARTESIAN_POINT('Ctrl Pts',(-29.0856005090505,2.75210117975205,289.999999999901));
#330=CARTESIAN_POINT('Ctrl Pts',(-29.4514347857255,3.14103716451846,289.999999999807));
#331=CARTESIAN_POINT('Ctrl Pts',(-30.0286086902153,4.05759062771802,289.999999999807));
#332=CARTESIAN_POINT('Ctrl Pts',(-30.2264322985225,4.58180817596567,289.999999999859));
#333=CARTESIAN_POINT('Ctrl Pts',(-30.4134384409613,5.68326232572501,289.999999999859));
#334=CARTESIAN_POINT('Ctrl Pts',(-30.3978872654783,6.25277368029571,290.));
#335=CARTESIAN_POINT('Ctrl Pts',(-30.2744420338899,6.80219017851246,290.));
#336=CARTESIAN_POINT('',(24.487224576395,0.512916454180832,290.000000000059));
#337=CARTESIAN_POINT('Origin',(-1.31157812061833,-34.9754165498213,290.));
#338=CARTESIAN_POINT('',(30.6988625876512,4.51569125522427,290.00000000003));
#339=CARTESIAN_POINT('Ctrl Pts',(30.6988625876542,4.51569125520455,290.));
#340=CARTESIAN_POINT('Ctrl Pts',(30.7409990060804,4.22923674667032,290.));
#341=CARTESIAN_POINT('Ctrl Pts',(30.7543696614106,3.93910302024054,290.000000000001));
#342=CARTESIAN_POINT('Ctrl Pts',(30.7231996426558,3.36192078733764,290.000000000001));
#343=CARTESIAN_POINT('Ctrl Pts',(30.6789247437578,3.07593836259037,290.000000000158));
#344=CARTESIAN_POINT('Ctrl Pts',(30.4705144799495,2.27406779299245,290.000000000158));
#345=CARTESIAN_POINT('Ctrl Pts',(30.2370087178666,1.78090899402629,290.000000000043));
#346=CARTESIAN_POINT('Ctrl Pts',(29.6097035352148,0.935391735865023,290.000000000043));
#347=CARTESIAN_POINT('Ctrl Pts',(29.2295507860523,0.5844212959937,290.000000000001));
#348=CARTESIAN_POINT('Ctrl Pts',(28.3674657872725,0.0572139073652316,290.000000000001));
#349=CARTESIAN_POINT('Ctrl Pts',(27.8981263258431,-0.118120284439618,289.999999999994));
#350=CARTESIAN_POINT('Ctrl Pts',(26.909770129379,-0.279024159729923,289.999999999994));
#351=CARTESIAN_POINT('Ctrl Pts',(26.4028688854386,-0.260135091730517,289.9999999999));
#352=CARTESIAN_POINT('Ctrl Pts',(25.3982729112681,-0.0228726588679102,289.9999999999));
#353=CARTESIAN_POINT('Ctrl Pts',(24.914836096649,0.20205752367099,290.));
#354=CARTESIAN_POINT('Ctrl Pts',(24.4872245764003,0.512916454143598,290.));
#355=CARTESIAN_POINT('Origin',(-1.05715935803726E-17,-1.06428832404772E-17,
290.));
#356=CARTESIAN_POINT('Origin',(-1.31157812061833,-34.9754165498213,300.));
#357=CARTESIAN_POINT('Ctrl Pts',(24.4872431212737,0.512874602940626,290.000013963743));
#358=CARTESIAN_POINT('Ctrl Pts',(24.5946166700928,-0.248891185501025,287.57428745191));
#359=CARTESIAN_POINT('Ctrl Pts',(24.810934535638,-2.38103794405185,282.622504856937));
#360=CARTESIAN_POINT('Ctrl Pts',(24.5608276766208,-6.86328783568902,275.719686243155));
#361=CARTESIAN_POINT('Ctrl Pts',(23.0665409184228,-12.3070426689284,269.325760732189));
#362=CARTESIAN_POINT('Ctrl Pts',(19.5344812383866,-18.6115047161177,263.172996534467));
#363=CARTESIAN_POINT('Ctrl Pts',(14.5916665783397,-23.1329678434795,259.370235151741));
#364=CARTESIAN_POINT('Ctrl Pts',(9.8286526513436,-25.5183576496778,257.407508035562));
#365=CARTESIAN_POINT('Ctrl Pts',(6.43097188986586,-26.780550250855,256.363915511751));
#366=CARTESIAN_POINT('Ctrl Pts',(-0.0326069160032534,-28.0542058564323,
255.264875582751));
#367=CARTESIAN_POINT('Ctrl Pts',(-7.72977244690607,-26.842915059921,255.917175646054));
#368=CARTESIAN_POINT('Ctrl Pts',(-15.7010235316821,-22.5819166025672,258.896497700013));
#369=CARTESIAN_POINT('Ctrl Pts',(-20.303645400838,-17.7102549613995,262.694547204244));
#370=CARTESIAN_POINT('Ctrl Pts',(-23.7338380083329,-11.2139052686983,268.655743863347));
#371=CARTESIAN_POINT('Ctrl Pts',(-25.4060867838706,-3.81155510254786,276.803239454635));
#372=CARTESIAN_POINT('Ctrl Pts',(-24.7256530811378,0.759336644686967,284.881101790884));
#373=CARTESIAN_POINT('Ctrl Pts',(-24.3800011995602,2.34539723884885,290.000010490366));
#374=CARTESIAN_POINT('Ctrl Pts',(24.4514085021624,0.757326647078264,290.810898634858));
#375=CARTESIAN_POINT('Ctrl Pts',(24.570811556259,-0.0268453831087384,288.096330855023));
#376=CARTESIAN_POINT('Ctrl Pts',(24.8195526658142,-2.22658950869061,282.860360746336));
#377=CARTESIAN_POINT('Ctrl Pts',(24.5608276766208,-6.86328783568902,275.719686243155));
#378=CARTESIAN_POINT('Ctrl Pts',(23.0665409184228,-12.3070426689284,269.325760732189));
#379=CARTESIAN_POINT('Ctrl Pts',(19.5344812383866,-18.6115047161177,263.172996534467));
#380=CARTESIAN_POINT('Ctrl Pts',(14.5916665783397,-23.1329678434795,259.370235151741));
#381=CARTESIAN_POINT('Ctrl Pts',(9.8286526513436,-25.5183576496778,257.407508035562));
#382=CARTESIAN_POINT('Ctrl Pts',(6.43097188986586,-26.780550250855,256.363915511751));
#383=CARTESIAN_POINT('Ctrl Pts',(-0.0326069160032534,-28.0542058564323,
255.264875582751));
#384=CARTESIAN_POINT('Ctrl Pts',(-7.72977244690607,-26.842915059921,255.917175646054));
#385=CARTESIAN_POINT('Ctrl Pts',(-15.7010235316821,-22.5819166025672,258.896497700013));
#386=CARTESIAN_POINT('Ctrl Pts',(-20.303645400838,-17.7102549613995,262.694547204244));
#387=CARTESIAN_POINT('Ctrl Pts',(-23.7338380083329,-11.2139052686983,268.655743863347));
#388=CARTESIAN_POINT('Ctrl Pts',(-25.4489423731581,-3.62185122407977,277.012039562544));
#389=CARTESIAN_POINT('Ctrl Pts',(-24.681611785495,1.04042607649917,285.381763075016));
#390=CARTESIAN_POINT('Ctrl Pts',(-24.3260157507759,2.58648005656345,290.810898634858));
#391=CARTESIAN_POINT('Ctrl Pts',(25.1753431254726,0.279092082223977,290.980891875788));
#392=CARTESIAN_POINT('Ctrl Pts',(25.2837147716531,-0.48759527642729,288.302552521002));
#393=CARTESIAN_POINT('Ctrl Pts',(25.5048368832931,-2.64843822107447,283.104978032913));
#394=CARTESIAN_POINT('Ctrl Pts',(25.1995355692644,-7.25558164220005,275.941343392517));
#395=CARTESIAN_POINT('Ctrl Pts',(23.6433057078332,-12.7062680416468,269.48101743119));
#396=CARTESIAN_POINT('Ctrl Pts',(20.0116099982515,-19.0498841460809,263.234175490959));
#397=CARTESIAN_POINT('Ctrl Pts',(14.9469296540805,-23.6169928618711,259.3583508584));
#398=CARTESIAN_POINT('Ctrl Pts',(10.0691005584516,-26.0285588926613,257.355716718908));
#399=CARTESIAN_POINT('Ctrl Pts',(6.58987532993355,-27.3047816007375,256.290435544899));
#400=CARTESIAN_POINT('Ctrl Pts',(-0.0284666929279647,-28.5924875981449,
255.167715809827));
#401=CARTESIAN_POINT('Ctrl Pts',(-7.91030072443901,-27.361652058141,255.834487917117));
#402=CARTESIAN_POINT('Ctrl Pts',(-16.0766326689539,-23.044815657375,258.875493211651));
#403=CARTESIAN_POINT('Ctrl Pts',(-20.7974050771487,-18.1183629806589,262.746735271937));
#404=CARTESIAN_POINT('Ctrl Pts',(-24.3319038492353,-11.5728200641486,268.801066612756));
#405=CARTESIAN_POINT('Ctrl Pts',(-26.1291085398573,-3.95449471033719,277.256544826644));
#406=CARTESIAN_POINT('Ctrl Pts',(-25.4147105572288,0.650972251437854,285.624213166046));
#407=CARTESIAN_POINT('Ctrl Pts',(-25.0837343915476,2.16380748911224,290.980891875788));
#408=CARTESIAN_POINT('Ctrl Pts',(26.9694661342436,-0.192134852007782,291.195934120341));
#409=CARTESIAN_POINT('Ctrl Pts',(27.0475842554776,-0.948086666781046,288.556345461556));
#410=CARTESIAN_POINT('Ctrl Pts',(27.1922650151077,-3.0940253837366,283.380427087288));
#411=CARTESIAN_POINT('Ctrl Pts',(26.745547714613,-7.74852663532187,276.126079365085));
#412=CARTESIAN_POINT('Ctrl Pts',(25.0082323989244,-13.3088164632377,269.519472318864));
#413=CARTESIAN_POINT('Ctrl Pts',(21.1090506398847,-19.8149327692477,263.093879492614));
#414=CARTESIAN_POINT('Ctrl Pts',(15.7503768192846,-24.5149846235359,259.091565567593));
#415=CARTESIAN_POINT('Ctrl Pts',(10.60984119391,-26.9976291323833,257.021759995892));
#416=CARTESIAN_POINT('Ctrl Pts',(6.94660535911468,-28.3112816200502,255.92033120947));
#417=CARTESIAN_POINT('Ctrl Pts',(-0.0147179502373595,-29.6354393507127,
254.758739572364));
#418=CARTESIAN_POINT('Ctrl Pts',(-8.30144131618852,-28.3589351610597,255.449028744005));
#419=CARTESIAN_POINT('Ctrl Pts',(-16.9094226131946,-23.8994502140969,258.592875864725));
#420=CARTESIAN_POINT('Ctrl Pts',(-21.9135046630666,-18.8180976017957,262.590925674973));
#421=CARTESIAN_POINT('Ctrl Pts',(-25.7175205176427,-12.0899378398171,268.820047985717));
#422=CARTESIAN_POINT('Ctrl Pts',(-27.749770365041,-4.28826562880563,277.484366589945));
#423=CARTESIAN_POINT('Ctrl Pts',(-27.1771418880894,0.332318178327888,285.916756802603));
#424=CARTESIAN_POINT('Ctrl Pts',(-26.9081109054322,1.82827428698006,291.195934120341));
#425=CARTESIAN_POINT('Ctrl Pts',(29.5661599770546,0.846755908557693,291.010042316416));
#426=CARTESIAN_POINT('Ctrl Pts',(29.6235834232796,0.0214951263577222,288.307625186742));
#427=CARTESIAN_POINT('Ctrl Pts',(29.7087603560509,-2.31854564860243,282.998541745632));
#428=CARTESIAN_POINT('Ctrl Pts',(29.1066407036627,-7.36890529551716,275.542692266251));
#429=CARTESIAN_POINT('Ctrl Pts',(27.12099971297,-13.3708647147769,268.751428230952));
#430=CARTESIAN_POINT('Ctrl Pts',(22.8197207343988,-20.3620869305535,262.150086780153));
#431=CARTESIAN_POINT('Ctrl Pts',(17.0047669701178,-25.3901041256167,258.042486062928));
#432=CARTESIAN_POINT('Ctrl Pts',(11.4580762901522,-28.0412410237092,255.919189750018));
#433=CARTESIAN_POINT('Ctrl Pts',(7.51059807009753,-29.443098329704,254.789470256586));
#434=CARTESIAN_POINT('Ctrl Pts',(0.0208592711056127,-30.8537369744476,253.598391955937));
#435=CARTESIAN_POINT('Ctrl Pts',(-8.88765892816551,-29.4898250957124,254.306068735602));
#436=CARTESIAN_POINT('Ctrl Pts',(-18.1716018224842,-24.7231162025795,257.530654361254));
#437=CARTESIAN_POINT('Ctrl Pts',(-23.6066012067032,-19.280942073834,261.633966074582));
#438=CARTESIAN_POINT('Ctrl Pts',(-27.8003736435697,-12.0474673548941,268.03253398864));
#439=CARTESIAN_POINT('Ctrl Pts',(-30.1373203621428,-3.62232322759096,276.938983330119));
#440=CARTESIAN_POINT('Ctrl Pts',(-29.6578440346164,1.42144125300998,285.605208056895));
#441=CARTESIAN_POINT('Ctrl Pts',(-29.4197044121156,3.05872582315158,291.010042316416));
#442=CARTESIAN_POINT('Ctrl Pts',(30.7303436064763,2.80338509767738,290.49602796281));
#443=CARTESIAN_POINT('Ctrl Pts',(30.821188724514,1.88268510634599,287.660771803355));
#444=CARTESIAN_POINT('Ctrl Pts',(30.9860476128581,-0.710144291217985,282.141470755727));
#445=CARTESIAN_POINT('Ctrl Pts',(30.4541450172595,-6.21708437532527,274.502872721439));
#446=CARTESIAN_POINT('Ctrl Pts',(28.4434773040055,-12.6985879038698,267.604688474121));
#447=CARTESIAN_POINT('Ctrl Pts',(23.9794843841828,-20.2050313203203,260.933822419483));
#448=CARTESIAN_POINT('Ctrl Pts',(17.8910865290199,-25.5814706514778,256.797588771144));
#449=CARTESIAN_POINT('Ctrl Pts',(12.0708148223374,-28.4141738487841,254.661264229039));
#450=CARTESIAN_POINT('Ctrl Pts',(7.92659615252807,-29.9119625813279,253.525018425783));
#451=CARTESIAN_POINT('Ctrl Pts',(0.059657280028327,-31.4198292526008,252.327782454599));
#452=CARTESIAN_POINT('Ctrl Pts',(-9.29919883427824,-29.9718644284535,253.038721028419));
#453=CARTESIAN_POINT('Ctrl Pts',(-19.0383178437324,-24.8932408905876,256.282243535987));
#454=CARTESIAN_POINT('Ctrl Pts',(-24.7210917397114,-19.0840970887104,260.41377398634));
#455=CARTESIAN_POINT('Ctrl Pts',(-29.0635840161851,-11.3323506523221,266.878176121138));
#456=CARTESIAN_POINT('Ctrl Pts',(-31.4115086333501,-2.26410109817759,275.909123084546));
#457=CARTESIAN_POINT('Ctrl Pts',(-30.7531682684672,3.27443019411953,284.825515643719));
#458=CARTESIAN_POINT('Ctrl Pts',(-30.4340772573109,5.09705088006941,290.49602796281));
#459=CARTESIAN_POINT('Ctrl Pts',(30.7604330363298,4.09586020958773,290.123987128113));
#460=CARTESIAN_POINT('Ctrl Pts',(30.8936317054412,3.12852014673716,287.19561972233));
#461=CARTESIAN_POINT('Ctrl Pts',(31.1645328176333,0.412904465479998,281.534718385772));
#462=CARTESIAN_POINT('Ctrl Pts',(30.7838668565181,-5.31918995578604,273.786724744056));
#463=CARTESIAN_POINT('Ctrl Pts',(28.8744011959593,-12.0515670680665,266.834426543224));
#464=CARTESIAN_POINT('Ctrl Pts',(24.4396499030662,-19.8476678360535,260.136165121225));
#465=CARTESIAN_POINT('Ctrl Pts',(18.2755570002073,-25.437183449997,255.992939936968));
#466=CARTESIAN_POINT('Ctrl Pts',(12.3477881183854,-28.3852564360519,253.854127622368));
#467=CARTESIAN_POINT('Ctrl Pts',(8.1211728245702,-29.9449333418174,252.716823074839));
#468=CARTESIAN_POINT('Ctrl Pts',(0.0848467132808357,-31.5179274641459,251.518932055651));
#469=CARTESIAN_POINT('Ctrl Pts',(-9.48287226677589,-30.0184649486688,252.229994567323));
#470=CARTESIAN_POINT('Ctrl Pts',(-19.4029647004814,-24.7476040639807,255.476770983765));
#471=CARTESIAN_POINT('Ctrl Pts',(-25.1462026094834,-18.7210542524965,259.614971958572));
#472=CARTESIAN_POINT('Ctrl Pts',(-29.4548849925108,-10.683219722994,266.104991352382));
#473=CARTESIAN_POINT('Ctrl Pts',(-31.6562944429988,-1.28698322030295,275.194918180014));
#474=CARTESIAN_POINT('Ctrl Pts',(-30.7778290659361,4.4788548128438,284.267252316361));
#475=CARTESIAN_POINT('Ctrl Pts',(-30.3672826703982,6.38814954859005,290.123987128113));
#476=CARTESIAN_POINT('Ctrl Pts',(30.6988625876525,4.5156912552154,290.000000000033));
#477=CARTESIAN_POINT('Ctrl Pts',(30.8474856644754,3.53535838337795,287.040721111469));
#478=CARTESIAN_POINT('Ctrl Pts',(31.1582806463233,0.785743240579896,281.332742140051));
#479=CARTESIAN_POINT('Ctrl Pts',(30.8374458524574,-5.01034969724956,273.548354708529));
#480=CARTESIAN_POINT('Ctrl Pts',(28.9737038004112,-11.8171707593555,266.578033716654));
#481=CARTESIAN_POINT('Ctrl Pts',(24.5628310195474,-19.7032209550929,259.870614092845));
#482=CARTESIAN_POINT('Ctrl Pts',(18.3845599435817,-25.3619824786005,255.725043824997));
#483=CARTESIAN_POINT('Ctrl Pts',(12.4281120964282,-28.3482258136521,253.585382048243));
#484=CARTESIAN_POINT('Ctrl Pts',(8.17860080877684,-29.9285023218168,252.447712417403));
#485=CARTESIAN_POINT('Ctrl Pts',(0.0932827336331369,-31.5235327789961,251.249596944384));
#486=CARTESIAN_POINT('Ctrl Pts',(-9.53588742919044,-30.0070766464849,251.960700133879));
#487=CARTESIAN_POINT('Ctrl Pts',(-19.5047157601184,-24.6731514408013,255.208600194435));
#488=CARTESIAN_POINT('Ctrl Pts',(-25.257288310529,-18.5767029198373,259.3490338204));
#489=CARTESIAN_POINT('Ctrl Pts',(-29.5409063793446,-10.4505655074952,265.84761659844));
#490=CARTESIAN_POINT('Ctrl Pts',(-31.6786442553837,-0.957658667302006,274.957210263008));
#491=CARTESIAN_POINT('Ctrl Pts',(-30.71769678892,4.86929321886178,284.081442222718));
#492=CARTESIAN_POINT('Ctrl Pts',(-30.2744420338874,6.80219017852316,290.000000000033));
#493=CARTESIAN_POINT('',(21.9436246702684,-21.7972955887667,258.398791237709));
#494=CARTESIAN_POINT('Ctrl Pts',(-30.2744420338874,6.80219017852316,290.000000000033));
#495=CARTESIAN_POINT('Ctrl Pts',(-30.71769678892,4.86929321886178,284.081442222718));
#496=CARTESIAN_POINT('Ctrl Pts',(-31.6786442553837,-0.957658667302006,274.957210263008));
#497=CARTESIAN_POINT('Ctrl Pts',(-29.5409063793446,-10.4505655074952,265.84761659844));
#498=CARTESIAN_POINT('Ctrl Pts',(-25.257288310529,-18.5767029198373,259.3490338204));
#499=CARTESIAN_POINT('Ctrl Pts',(-19.5047157601184,-24.6731514408013,255.208600194435));
#500=CARTESIAN_POINT('Ctrl Pts',(-9.53588742919044,-30.0070766464849,251.960700133879));
#501=CARTESIAN_POINT('Ctrl Pts',(0.0932827336331369,-31.5235327789961,251.249596944384));
#502=CARTESIAN_POINT('Ctrl Pts',(8.17860080877684,-29.9285023218168,252.447712417403));
#503=CARTESIAN_POINT('Ctrl Pts',(12.4281120964282,-28.3482258136521,253.585382048243));
#504=CARTESIAN_POINT('Ctrl Pts',(17.0366666692813,-26.0377438400743,255.240856639585));
#505=CARTESIAN_POINT('Ctrl Pts',(20.0675625571942,-23.6687578783889,256.968440686921));
#506=CARTESIAN_POINT('Ctrl Pts',(21.9436246702684,-21.7972955887667,258.398791237709));
#507=CARTESIAN_POINT('Ctrl Pts',(21.9436246702684,-21.7972955887667,258.398791237709));
#508=CARTESIAN_POINT('Ctrl Pts',(22.907659033681,-20.8356248932959,259.133791999718));
#509=CARTESIAN_POINT('Ctrl Pts',(25.728294429439,-17.6195283599279,261.642882878346));
#510=CARTESIAN_POINT('Ctrl Pts',(28.9737038004112,-11.8171707593555,266.578033716654));
#511=CARTESIAN_POINT('Ctrl Pts',(30.8374458524574,-5.01034969724956,273.548354708529));
#512=CARTESIAN_POINT('Ctrl Pts',(31.1582806463233,0.785743240579896,281.332742140051));
#513=CARTESIAN_POINT('Ctrl Pts',(30.8474856644754,3.53535838337795,287.040721111469));
#514=CARTESIAN_POINT('Ctrl Pts',(30.6988625876525,4.5156912552154,290.000000000033));
#515=CARTESIAN_POINT('Ctrl Pts',(22.014568714122,-21.8671076281063,290.000000000033));
#516=CARTESIAN_POINT('Ctrl Pts',(43.8816763422284,0.14746108601571,290.000000000033));
#517=CARTESIAN_POINT('Ctrl Pts',(21.8671076281063,22.014568714122,290.000000000033));
#518=CARTESIAN_POINT('Ctrl Pts',(-0.14746108601571,43.8816763422284,290.000000000033));
#519=CARTESIAN_POINT('Ctrl Pts',(-22.014568714122,21.8671076281063,290.000000000033));
#520=CARTESIAN_POINT('Ctrl Pts',(-43.8816763422284,-0.14746108601571,290.000000000033));
#521=CARTESIAN_POINT('Ctrl Pts',(-21.8671076281063,-22.014568714122,290.000000000033));
#522=CARTESIAN_POINT('Ctrl Pts',(0.14746108601571,-43.8816763422284,290.000000000033));
#523=CARTESIAN_POINT('Ctrl Pts',(22.014568714122,-21.8671076281063,290.000000000033));
#524=CARTESIAN_POINT('Ctrl Pts',(22.1562995902882,-22.0078891425477,154.802268428061));
#525=CARTESIAN_POINT('Ctrl Pts',(44.1641887328359,0.14841044774053,154.802268428061));
#526=CARTESIAN_POINT('Ctrl Pts',(22.0078891425477,22.1562995902882,154.802268428061));
#527=CARTESIAN_POINT('Ctrl Pts',(-0.14841044774053,44.1641887328359,154.802268428061));
#528=CARTESIAN_POINT('Ctrl Pts',(-22.1562995902882,22.0078891425477,154.802268428061));
#529=CARTESIAN_POINT('Ctrl Pts',(-44.1641887328359,-0.14841044774053,154.802268428061));
#530=CARTESIAN_POINT('Ctrl Pts',(-22.0078891425477,-22.1562995902882,154.802268428061));
#531=CARTESIAN_POINT('Ctrl Pts',(0.14841044774053,-44.1641887328359,154.802268428061));
#532=CARTESIAN_POINT('Ctrl Pts',(22.1562995902882,-22.0078891425477,154.802268428061));
#533=CARTESIAN_POINT('Ctrl Pts',(14.8237408574889,-14.7244463878104,19.9999999999999));
#534=CARTESIAN_POINT('Ctrl Pts',(29.5481872452993,0.0992944696784548,19.9999999999999));
#535=CARTESIAN_POINT('Ctrl Pts',(14.7244463878104,14.8237408574889,19.9999999999999));
#536=CARTESIAN_POINT('Ctrl Pts',(-0.0992944696784548,29.5481872452993,19.9999999999999));
#537=CARTESIAN_POINT('Ctrl Pts',(-14.8237408574889,14.7244463878104,19.9999999999999));
#538=CARTESIAN_POINT('Ctrl Pts',(-29.5481872452993,-0.0992944696784548,
19.9999999999999));
#539=CARTESIAN_POINT('Ctrl Pts',(-14.7244463878104,-14.8237408574889,19.9999999999999));
#540=CARTESIAN_POINT('Ctrl Pts',(0.0992944696784548,-29.5481872452993,19.9999999999999));
#541=CARTESIAN_POINT('Ctrl Pts',(14.8237408574889,-14.7244463878104,19.9999999999999));
#542=CARTESIAN_POINT('',(14.8237408574889,-14.7244463878107,19.9999999999999));
#543=CARTESIAN_POINT('Origin',(0.,0.,20.));
#544=CARTESIAN_POINT('Ctrl Pts',(14.8237408574889,-14.7244463878104,19.9999999999999));
#545=CARTESIAN_POINT('Ctrl Pts',(21.2981765160628,-21.1555140692076,139.026474300615));
#546=CARTESIAN_POINT('Ctrl Pts',(21.9454575010309,-21.7984593454804,258.398775031366));
#547=CARTESIAN_POINT('Origin',(0.,0.,20.));
#548=CARTESIAN_POINT('Ctrl Pts',(-14.8110307691011,14.7372311508717,20.));
#549=CARTESIAN_POINT('Ctrl Pts',(-16.1826850713083,13.3587080167374,20.));
#550=CARTESIAN_POINT('Ctrl Pts',(-18.5544866706033,10.1879623485632,20.));
#551=CARTESIAN_POINT('Ctrl Pts',(-21.3573523830385,2.82217123784771,20.));
#552=CARTESIAN_POINT('Ctrl Pts',(-20.7692932272203,-7.32269747498231,20.));
#553=CARTESIAN_POINT('Ctrl Pts',(-13.6935833936497,-17.2475889507872,20.));
#554=CARTESIAN_POINT('Ctrl Pts',(-2.41991444224385,-21.8862301986666,20.));
#555=CARTESIAN_POINT('Ctrl Pts',(9.59418418917671,-19.8266066126182,20.));
#556=CARTESIAN_POINT('Ctrl Pts',(18.6671898045044,-11.6767891257465,20.));
#557=CARTESIAN_POINT('Ctrl Pts',(20.8929044717167,-3.88659229734899,20.));
#558=CARTESIAN_POINT('Ctrl Pts',(20.8938409352448,-0.00504085035694463,
20.));
#559=CARTESIAN_POINT('Ctrl Pts',(-14.9345773220163,14.8601621025785,19.6392058755721));
#560=CARTESIAN_POINT('Ctrl Pts',(-16.3176705285711,13.4701427815064,19.6392058755721));
#561=CARTESIAN_POINT('Ctrl Pts',(-18.7092595998386,10.2729446557241,19.6392058755721));
#562=CARTESIAN_POINT('Ctrl Pts',(-21.5355020135464,2.84571334675675,19.6392058755721));
#563=CARTESIAN_POINT('Ctrl Pts',(-20.9425414958997,-7.38378140069825,19.6392058755721));
#564=CARTESIAN_POINT('Ctrl Pts',(-13.8078063896021,-17.3914567633548,19.6392058755721));
#565=CARTESIAN_POINT('Ctrl Pts',(-2.44010117200709,-22.0687962840089,19.6392058755721));
#566=CARTESIAN_POINT('Ctrl Pts',(9.67421346372918,-19.9919855383091,19.6392058755721));
#567=CARTESIAN_POINT('Ctrl Pts',(18.8229015366817,-11.7741964539537,19.6392058755721));
#568=CARTESIAN_POINT('Ctrl Pts',(21.0671831155352,-3.91900452503393,19.6392058755721));
#569=CARTESIAN_POINT('Ctrl Pts',(21.0681273886963,-0.00508289872583069,
19.6392058755721));
#570=CARTESIAN_POINT('Ctrl Pts',(-15.0890075269209,15.0138228208524,19.2994822778375));
#571=CARTESIAN_POINT('Ctrl Pts',(-16.4864026310758,13.6094299825814,19.2994822778375));
#572=CARTESIAN_POINT('Ctrl Pts',(-18.9027216979872,10.3791715232261,19.2994822778375));
#573=CARTESIAN_POINT('Ctrl Pts',(-21.7581888407325,2.87513926368682,19.2994822778375));
#574=CARTESIAN_POINT('Ctrl Pts',(-21.1590967105816,-7.46013294997837,19.2994822778375));
#575=CARTESIAN_POINT('Ctrl Pts',(-13.9505853600211,-17.5712923149043,19.2994822778375));
#576=CARTESIAN_POINT('Ctrl Pts',(-2.46533287585546,-22.2969974469947,19.2994822778375));
#577=CARTESIAN_POINT('Ctrl Pts',(9.77424918372267,-20.1987117824059,19.2994822778375));
#578=CARTESIAN_POINT('Ctrl Pts',(19.0175387883914,-11.8959467318961,19.2994822778375));
#579=CARTESIAN_POINT('Ctrl Pts',(21.2850272054061,-3.95952905415435,19.2994822778375));
#580=CARTESIAN_POINT('Ctrl Pts',(21.285981242839,-0.00513545817058864,19.2994822778375));
#581=CARTESIAN_POINT('Ctrl Pts',(-15.2698969128352,15.1938108807326,18.990562388205));
#582=CARTESIAN_POINT('Ctrl Pts',(-16.6840469555484,13.7725792002135,18.990562388205));
#583=CARTESIAN_POINT('Ctrl Pts',(-19.1293302368773,10.5035994617576,18.990562388205));
#584=CARTESIAN_POINT('Ctrl Pts',(-22.0190325916044,2.90960599192102,18.990562388205));
#585=CARTESIAN_POINT('Ctrl Pts',(-21.4127545527574,-7.54956473388277,18.990562388205));
#586=CARTESIAN_POINT('Ctrl Pts',(-14.1178294777814,-17.7819430247162,18.990562388205));
#587=CARTESIAN_POINT('Ctrl Pts',(-2.49488672645482,-22.5642957707866,18.990562388205));
#588=CARTESIAN_POINT('Ctrl Pts',(9.89142523673068,-20.4408622077551,18.990562388205));
#589=CARTESIAN_POINT('Ctrl Pts',(19.2455250691785,-12.0385521441925,18.990562388205));
#590=CARTESIAN_POINT('Ctrl Pts',(21.5401954439522,-4.00700428268303,18.990562388205));
#591=CARTESIAN_POINT('Ctrl Pts',(21.5411609204108,-0.00519702284760328,
18.990562388205));
#592=CARTESIAN_POINT('',(-21.5366200719288,2.33312105616166E-6,18.990562388205));
#593=CARTESIAN_POINT('Ctrl Pts',(-15.2698969128352,15.1938108807326,18.990562388205));
#594=CARTESIAN_POINT('Ctrl Pts',(-15.5712887655833,14.8909097482939,18.990562388205));
#595=CARTESIAN_POINT('Ctrl Pts',(-15.8642701062597,14.5780260452375,18.9905623882032));
#596=CARTESIAN_POINT('Ctrl Pts',(-16.1480890974465,14.2560570369125,18.9905664485523));
#597=CARTESIAN_POINT('Ctrl Pts',(-16.4353354556973,13.9301999660935,18.9905705579337));
#598=CARTESIAN_POINT('Ctrl Pts',(-16.7131963797502,13.5950372757591,18.9905788263076));
#599=CARTESIAN_POINT('Ctrl Pts',(-16.9809260247088,13.2515404899058,18.990595463034));
#600=CARTESIAN_POINT('Ctrl Pts',(-17.2487828742619,12.9078805007235,18.9906121076648));
#601=CARTESIAN_POINT('Ctrl Pts',(-17.5064984138459,12.5558790300196,18.9906371285717));
#602=CARTESIAN_POINT('Ctrl Pts',(-17.7533655408773,12.196542681333,18.9906747415854));
#603=CARTESIAN_POINT('Ctrl Pts',(-17.9981475069197,11.8402414639143,18.9907120369012));
#604=CARTESIAN_POINT('Ctrl Pts',(-18.2322632316314,11.4767293158386,18.990761712461));
#605=CARTESIAN_POINT('Ctrl Pts',(-18.4550677678792,11.1070124080025,18.9908278791752));
#606=CARTESIAN_POINT('Ctrl Pts',(-18.6012786855539,10.8643932527333,18.9908712997274));
#607=CARTESIAN_POINT('Ctrl Pts',(-18.7426195003948,10.6191025867365,18.9909218220046));
#608=CARTESIAN_POINT('Ctrl Pts',(-18.8789194683137,10.3714288973685,18.9909806081293));
#609=CARTESIAN_POINT('Ctrl Pts',(-19.0868664149144,9.99356389678357,18.9910702955688));
#610=CARTESIAN_POINT('Ctrl Pts',(-19.283077808928,9.61015165706926,18.9911792180131));
#611=CARTESIAN_POINT('Ctrl Pts',(-19.46725851109,9.22209301603028,18.9913115044187));
#612=CARTESIAN_POINT('Ctrl Pts',(-19.5489318189666,9.05001183438807,18.9913701656584));
#613=CARTESIAN_POINT('Ctrl Pts',(-19.628240076893,8.87701712813665,18.9914334212272));
#614=CARTESIAN_POINT('Ctrl Pts',(-19.7051607966892,8.70318798426142,18.9915016313722));
#615=CARTESIAN_POINT('Ctrl Pts',(-19.850897685855,8.37384474954047,18.9916308648786));
#616=CARTESIAN_POINT('Ctrl Pts',(-19.9887616595907,8.04005888853071,18.9917108206963));
#617=CARTESIAN_POINT('Ctrl Pts',(-20.1183480471887,7.70240267361326,18.9917520963143));
#618=CARTESIAN_POINT('Ctrl Pts',(-20.2479601252528,7.36467951844303,18.9917933801152));
#619=CARTESIAN_POINT('Ctrl Pts',(-20.3692911198427,7.02308482001616,18.9917959687309));
#620=CARTESIAN_POINT('Ctrl Pts',(-20.4819793951045,6.67822030913939,18.9917704729754));
#621=CARTESIAN_POINT('Ctrl Pts',(-20.5943635399659,6.33428654089313,18.9917450460294));
#622=CARTESIAN_POINT('Ctrl Pts',(-20.6981513695646,5.98710095288408,18.9916916863545));
#623=CARTESIAN_POINT('Ctrl Pts',(-20.7930301624659,5.63728401888394,18.9916209215155));
#624=CARTESIAN_POINT('Ctrl Pts',(-20.8733585266505,5.34111433530055,18.9915610090358));
#625=CARTESIAN_POINT('Ctrl Pts',(-20.9473015855699,5.04305901318725,18.9914886205723));
#626=CARTESIAN_POINT('Ctrl Pts',(-21.0146968994895,4.74350492416901,18.9914101447298));
#627=CARTESIAN_POINT('Ctrl Pts',(-21.0944959202072,4.38881968619897,18.9913172258751));
#628=CARTESIAN_POINT('Ctrl Pts',(-21.165113972955,4.03203324813686,18.9912157728671));
#629=CARTESIAN_POINT('Ctrl Pts',(-21.2265349099509,3.67387649837843,18.9911163886226));
#630=CARTESIAN_POINT('Ctrl Pts',(-21.288162720159,3.31451343297312,18.9910166696399));
#631=CARTESIAN_POINT('Ctrl Pts',(-21.3405313460149,2.9537712607262,18.9909190333623));
#632=CARTESIAN_POINT('Ctrl Pts',(-21.3836767245041,2.59239525060461,18.990834187567));
#633=CARTESIAN_POINT('Ctrl Pts',(-21.4268897427102,2.23045270538995,18.9907492087575));
#634=CARTESIAN_POINT('Ctrl Pts',(-21.460850590094,1.8678747916186,18.9906770604473));
#635=CARTESIAN_POINT('Ctrl Pts',(-21.4856476155087,1.50541042278288,18.9906284992308));
#636=CARTESIAN_POINT('Ctrl Pts',(-21.5069864920679,1.19349468715215,18.9905867102748));
#637=CARTESIAN_POINT('Ctrl Pts',(-21.5215401183221,0.881663202684817,18.990562388205));
#638=CARTESIAN_POINT('Ctrl Pts',(-21.5293954689005,0.570389410724737,18.990562388205));
#639=CARTESIAN_POINT('Ctrl Pts',(-21.5341868831592,0.380526250537875,18.990562388205));
#640=CARTESIAN_POINT('Ctrl Pts',(-21.5365070802659,0.190367372401891,18.990562388205));
#641=CARTESIAN_POINT('Ctrl Pts',(-21.5363424709477,2.47573477483087E-6,
18.990562388205));
#642=CARTESIAN_POINT('Ctrl Pts',(-21.5363424709477,2.47573477483087E-6,
18.990562388205));
#643=CARTESIAN_POINT('Ctrl Pts',(-21.5360191869093,-0.37386416358007,18.990562388205));
#644=CARTESIAN_POINT('Ctrl Pts',(-21.5260799373073,-0.748590230293608,18.9905965638256));
#645=CARTESIAN_POINT('Ctrl Pts',(-21.5064555181884,-1.12340198350741,18.9906541975584));
#646=CARTESIAN_POINT('Ctrl Pts',(-21.4867751330775,-1.49928264538279,18.9907119956544));
#647=CARTESIAN_POINT('Ctrl Pts',(-21.4573542445928,-1.8752490198121,18.9907933860699));
#648=CARTESIAN_POINT('Ctrl Pts',(-21.4181752591184,-2.25051544035169,18.9908875599791));
#649=CARTESIAN_POINT('Ctrl Pts',(-21.3789943091173,-2.62580067763438,18.9909817386105));
#650=CARTESIAN_POINT('Ctrl Pts',(-21.3300543062383,-3.0003854195271,18.9910887021365));
#651=CARTESIAN_POINT('Ctrl Pts',(-21.2713896845994,-3.37348562873317,18.9911976382091));
#652=CARTESIAN_POINT('Ctrl Pts',(-21.2130251414305,-3.74467737357331,18.9913060170571));
#653=CARTESIAN_POINT('Ctrl Pts',(-21.1450352883837,-4.11439927957726,18.9914163483392));
#654=CARTESIAN_POINT('Ctrl Pts',(-21.0675047141032,-4.48188792565473,18.9915179819074));
#655=CARTESIAN_POINT('Ctrl Pts',(-20.9903981094899,-4.84736698982922,18.9916190597006));
#656=CARTESIAN_POINT('Ctrl Pts',(-20.9038549322808,-5.21063672139218,18.991711534565));
#657=CARTESIAN_POINT('Ctrl Pts',(-20.8080074036295,-5.57096132561168,18.9917849277586));
#658=CARTESIAN_POINT('Ctrl Pts',(-20.71317510048,-5.9274693397501,18.9918575435649));
#659=CARTESIAN_POINT('Ctrl Pts',(-20.6092346411166,-6.28109390725525,18.9919114796229));
#660=CARTESIAN_POINT('Ctrl Pts',(-20.4963604831427,-6.63114324505475,18.9919365861803));
#661=CARTESIAN_POINT('Ctrl Pts',(-20.4389136871138,-6.8092992842189,18.9919493640499));
#662=CARTESIAN_POINT('Ctrl Pts',(-20.379153568474,-6.98652961846505,18.9919546743496));
#663=CARTESIAN_POINT('Ctrl Pts',(-20.3171076467816,-7.16274563294383,18.9919511792444));
#664=CARTESIAN_POINT('Ctrl Pts',(-20.2598388868109,-7.32539407720782,18.9919479532412));
#665=CARTESIAN_POINT('Ctrl Pts',(-20.2006228212724,-7.48717840283702,18.9919372255558));
#666=CARTESIAN_POINT('Ctrl Pts',(-20.1395101474579,-7.64803999304526,18.9919179444217));
#667=CARTESIAN_POINT('Ctrl Pts',(-20.0082859168297,-7.99345015259432,18.9918765429934));
#668=CARTESIAN_POINT('Ctrl Pts',(-19.8676699935864,-8.33623719126651,18.9918221807731));
#669=CARTESIAN_POINT('Ctrl Pts',(-19.7179263657314,-8.67573172089046,18.9917616155398));
#670=CARTESIAN_POINT('Ctrl Pts',(-19.5669970513059,-9.01791440566508,18.9917005707444));
#671=CARTESIAN_POINT('Ctrl Pts',(-19.4067950564762,-9.3567518565205,18.9916332243528));
#672=CARTESIAN_POINT('Ctrl Pts',(-19.2376431506742,-9.69156895232677,18.9915664950523));
#673=CARTESIAN_POINT('Ctrl Pts',(-19.0674591351489,-10.0284289927778,18.9914993585915));
#674=CARTESIAN_POINT('Ctrl Pts',(-18.8882158414052,-10.3612190709834,18.9914328467726));
#675=CARTESIAN_POINT('Ctrl Pts',(-18.7002923607573,-10.6892678568836,18.991374004531));
#676=CARTESIAN_POINT('Ctrl Pts',(-18.5116683067763,-11.0185395992265,18.9913149429272));
#677=CARTESIAN_POINT('Ctrl Pts',(-18.3142994511772,-11.3430342312907,18.9912636081447));
#678=CARTESIAN_POINT('Ctrl Pts',(-18.1086166194519,-11.6620951882922,18.9912271233935));
#679=CARTESIAN_POINT('Ctrl Pts',(-17.9028398225438,-11.9813019067113,18.9911906219744));
#680=CARTESIAN_POINT('Ctrl Pts',(-17.6887417152653,-12.2950695957345,18.9911689840669));
#681=CARTESIAN_POINT('Ctrl Pts',(-17.4667974334768,-12.6027689913556,18.9911693428753));
#682=CARTESIAN_POINT('Ctrl Pts',(-17.2454345233051,-12.9096623842553,18.9911697007438));
#683=CARTESIAN_POINT('Ctrl Pts',(-17.0162667809463,-13.2105188723581,18.9911919401078));
#684=CARTESIAN_POINT('Ctrl Pts',(-16.7798049101956,-13.5047477621538,18.9912431401673));
#685=CARTESIAN_POINT('Ctrl Pts',(-16.5450180948619,-13.7968923848578,18.9912939775343));
#686=CARTESIAN_POINT('Ctrl Pts',(-16.3030404386241,-14.0825026653015,18.991373366578));
#687=CARTESIAN_POINT('Ctrl Pts',(-16.0544061136548,-14.3610385340726,18.9914882412335));
#688=CARTESIAN_POINT('Ctrl Pts',(-15.9463844067905,-14.4820512702315,18.9915381496939));
#689=CARTESIAN_POINT('Ctrl Pts',(-15.8371066275176,-14.6017291880213,18.9915947563309));
#690=CARTESIAN_POINT('Ctrl Pts',(-15.7266183897015,-14.7200304883627,18.9916586301517));
#691=CARTESIAN_POINT('Ctrl Pts',(-15.4764818560372,-14.9878551707027,18.9918032353735));
#692=CARTESIAN_POINT('Ctrl Pts',(-15.2189307935906,-15.2500305213199,18.9918906283269));
#693=CARTESIAN_POINT('Ctrl Pts',(-14.9543271523757,-15.5058815242692,18.9919333782168));
#694=CARTESIAN_POINT('Ctrl Pts',(-14.6905097775678,-15.7609722691665,18.9919760010759));
#695=CARTESIAN_POINT('Ctrl Pts',(-14.4196819190715,-16.0097758118646,18.9919742462725));
#696=CARTESIAN_POINT('Ctrl Pts',(-14.1422463422701,-16.2516501024115,18.9919405804422));
#697=CARTESIAN_POINT('Ctrl Pts',(-13.8984542564556,-16.4641932754147,18.9919109971309));
#698=CARTESIAN_POINT('Ctrl Pts',(-13.6495606121909,-16.6713860885271,18.9918567732385));
#699=CARTESIAN_POINT('Ctrl Pts',(-13.3958646199571,-16.8728137050897,18.9917863698318));
#700=CARTESIAN_POINT('Ctrl Pts',(-13.109927417527,-17.0998399527848,18.9917070191373));
#701=CARTESIAN_POINT('Ctrl Pts',(-12.8178892207054,-17.3195415405621,18.9916071154267));
#702=CARTESIAN_POINT('Ctrl Pts',(-12.5203773213289,-17.5315680079415,18.9914987721518));
#703=CARTESIAN_POINT('Ctrl Pts',(-12.2202836903151,-17.7454343863963,18.9913894887019));
#704=CARTESIAN_POINT('Ctrl Pts',(-11.9146213069082,-17.9514916169314,18.9912716186743));
#705=CARTESIAN_POINT('Ctrl Pts',(-11.6040661647023,-18.1494221791433,18.9911575905402));
#706=CARTESIAN_POINT('Ctrl Pts',(-11.2927871228967,-18.3478141146679,18.9910432966082));
#707=CARTESIAN_POINT('Ctrl Pts',(-10.9765928988835,-18.5380412560424,18.9909328624615));
#708=CARTESIAN_POINT('Ctrl Pts',(-10.6561905711352,-18.7198292658261,18.9908388001903));
#709=CARTESIAN_POINT('Ctrl Pts',(-10.3358442593404,-18.9015854936038,18.9907447543641));
#710=CARTESIAN_POINT('Ctrl Pts',(-10.0112917435594,-19.0749053753586,18.9906670745131));
#711=CARTESIAN_POINT('Ctrl Pts',(-9.68325970062222,-19.2395627362495,18.9906182643005));
#712=CARTESIAN_POINT('Ctrl Pts',(-9.44380966748123,-19.3597559044815,18.990582634833));
#713=CARTESIAN_POINT('Ctrl Pts',(-9.20250604043368,-19.4753343191651,18.990562388205));
#714=CARTESIAN_POINT('Ctrl Pts',(-8.95963619534348,-19.5862269067757,18.990562388205));
#715=CARTESIAN_POINT('Ctrl Pts',(-8.62327466770434,-19.7398071100269,18.990562388205));
#716=CARTESIAN_POINT('Ctrl Pts',(-8.28210299097934,-19.8852199431962,18.9906034935501));
#717=CARTESIAN_POINT('Ctrl Pts',(-7.93677319571872,-20.0220691283542,18.9906720289266));
#718=CARTESIAN_POINT('Ctrl Pts',(-7.59027612385311,-20.1593808882869,18.990740795965));
#719=CARTESIAN_POINT('Ctrl Pts',(-7.23959317762181,-20.288070799444,18.9908371791113));
#720=CARTESIAN_POINT('Ctrl Pts',(-6.88541073650213,-20.4077831476946,18.990947364565));
#721=CARTESIAN_POINT('Ctrl Pts',(-6.51964270971822,-20.5314113808245,18.9910611542713));
#722=CARTESIAN_POINT('Ctrl Pts',(-6.15014285544381,-20.6454646416308,18.9911896642215));
#723=CARTESIAN_POINT('Ctrl Pts',(-5.77769101897576,-20.7496042217188,18.9913176767968));
#724=CARTESIAN_POINT('Ctrl Pts',(-5.41815941965667,-20.8501312325036,18.9914412486561));
#725=CARTESIAN_POINT('Ctrl Pts',(-5.05587763225168,-20.9414205671383,18.99156435702));
#726=CARTESIAN_POINT('Ctrl Pts',(-4.69156198556653,-21.0232178235126,18.9916733093764));
#727=CARTESIAN_POINT('Ctrl Pts',(-4.32899070763414,-21.1046234289123,18.9917817400613));
#728=CARTESIAN_POINT('Ctrl Pts',(-3.96440542771881,-21.176627528476,18.991876149808));
#729=CARTESIAN_POINT('Ctrl Pts',(-3.59852021543598,-21.2390302475162,18.9919430389796));
#730=CARTESIAN_POINT('Ctrl Pts',(-3.23587698746228,-21.3008800373065,18.992009335469));
#731=CARTESIAN_POINT('Ctrl Pts',(-2.87195716622161,-21.353297787835,18.9920485966154));
#732=CARTESIAN_POINT('Ctrl Pts',(-2.50745767438074,-21.3961401492855,18.992047679181));
#733=CARTESIAN_POINT('Ctrl Pts',(-2.46082210217709,-21.4016215781641,18.9920475618006));
#734=CARTESIAN_POINT('Ctrl Pts',(-2.41417703842515,-21.4069463307621,18.9920467867139));
#735=CARTESIAN_POINT('Ctrl Pts',(-2.36752393953731,-21.4121141687605,18.992045326399));
#736=CARTESIAN_POINT('Ctrl Pts',(-1.99539404080776,-21.453335589777,18.9920336781513));
#737=CARTESIAN_POINT('Ctrl Pts',(-1.62275362993497,-21.4845690891976,18.9919784313037));
#738=CARTESIAN_POINT('Ctrl Pts',(-1.25036843811018,-21.5060024117913,18.9918656239485));
#739=CARTESIAN_POINT('Ctrl Pts',(-1.11788864026091,-21.513627533055,18.9918254915911));
#740=CARTESIAN_POINT('Ctrl Pts',(-0.985441055874443,-21.5200127653735,18.9917780741856));
#741=CARTESIAN_POINT('Ctrl Pts',(-0.853059811850359,-21.5251681121905,18.9917227435293));
#742=CARTESIAN_POINT('Ctrl Pts',(-0.480832905086663,-21.5396638121905,18.9915671659082));
#743=CARTESIAN_POINT('Ctrl Pts',(-0.10730632792922,-21.5444335894214,18.991432452858));
#744=CARTESIAN_POINT('Ctrl Pts',(0.266778354316437,-21.5394361378967,18.9913201919365));
#745=CARTESIAN_POINT('Ctrl Pts',(0.643462012819457,-21.5344039662712,18.9912071510753));
#746=CARTESIAN_POINT('Ctrl Pts',(1.02071113578478,-21.5194683570527,18.9911168753682));
#747=CARTESIAN_POINT('Ctrl Pts',(1.39775797864047,-21.49463934847,18.9910509872199));
#748=CARTESIAN_POINT('Ctrl Pts',(1.77661807716829,-21.4696909347219,18.990984782209));
#749=CARTESIAN_POINT('Ctrl Pts',(2.15527349417134,-21.4347537472899,18.990943199849));
#750=CARTESIAN_POINT('Ctrl Pts',(2.53294128060536,-21.389890546205,18.9909278881271));
#751=CARTESIAN_POINT('Ctrl Pts',(2.91143527055636,-21.3449292003063,18.9909125429087));
#752=CARTESIAN_POINT('Ctrl Pts',(3.28893683807786,-21.2899984110793,18.9909235833573));
#753=CARTESIAN_POINT('Ctrl Pts',(3.66466071335892,-21.225213558915,18.9909626709297));
#754=CARTESIAN_POINT('Ctrl Pts',(4.03964408291867,-21.1605563897564,18.9910016814653));
#755=CARTESIAN_POINT('Ctrl Pts',(4.41285630101183,-21.0860840556783,18.99106862864));
#756=CARTESIAN_POINT('Ctrl Pts',(4.78352648468351,-21.0019620889834,18.9911651672995));
#757=CARTESIAN_POINT('Ctrl Pts',(5.15274559179771,-20.9181694377264,18.9912613280354));
#758=CARTESIAN_POINT('Ctrl Pts',(5.51944208859954,-20.8248026761537,18.9913868489849));
#759=CARTESIAN_POINT('Ctrl Pts',(5.88287051254512,-20.72207427113,18.9915433693842));
#760=CARTESIAN_POINT('Ctrl Pts',(6.24317867857157,-20.6202278530346,18.991698545959));
#761=CARTESIAN_POINT('Ctrl Pts',(6.6002742538085,-20.5091800119481,18.991884191934));
#762=CARTESIAN_POINT('Ctrl Pts',(6.95345314544108,-20.3891837909959,18.9921019089295));
#763=CARTESIAN_POINT('Ctrl Pts',(7.09732789560048,-20.3403008404046,18.9921906004654));
#764=CARTESIAN_POINT('Ctrl Pts',(7.24055296061503,-20.2899334183114,18.9922846142692));
#765=CARTESIAN_POINT('Ctrl Pts',(7.38308204427559,-20.2381007542074,18.9923840588419));
#766=CARTESIAN_POINT('Ctrl Pts',(7.73107921648015,-20.1115467901128,18.9926268614281));
#767=CARTESIAN_POINT('Ctrl Pts',(8.07667213721008,-19.9757345883692,18.9927726123996));
#768=CARTESIAN_POINT('Ctrl Pts',(8.4190827353954,-19.830700795442,18.9928428458788));
#769=CARTESIAN_POINT('Ctrl Pts',(8.74422226002456,-19.6929824574657,18.9929095368053));
#770=CARTESIAN_POINT('Ctrl Pts',(9.06649205214167,-19.5469497292275,18.9929081376356));
#771=CARTESIAN_POINT('Ctrl Pts',(9.38523111337136,-19.3926771936375,18.9928571078118));
#772=CARTESIAN_POINT('Ctrl Pts',(9.7154691060889,-19.2328390731129,18.9928042370198));
#773=CARTESIAN_POINT('Ctrl Pts',(10.0419164509671,-19.0641554590341,18.9926980908367));
#774=CARTESIAN_POINT('Ctrl Pts',(10.3639661759849,-18.8870112018112,18.9925592077265));
#775=CARTESIAN_POINT('Ctrl Pts',(10.6883357551267,-18.7085909030216,18.9924193241851));
#776=CARTESIAN_POINT('Ctrl Pts',(11.0082437602473,-18.521587839463,18.9922462309782));
#777=CARTESIAN_POINT('Ctrl Pts',(11.3230893893667,-18.3264444480333,18.9920609106859));
#778=CARTESIAN_POINT('Ctrl Pts',(11.6400633032784,-18.1299819316932,18.9918743376705));
#779=CARTESIAN_POINT('Ctrl Pts',(11.9519057823328,-17.9252688997159,18.9916753719421));
#780=CARTESIAN_POINT('Ctrl Pts',(12.2580290575614,-17.7128031417977,18.9914854151888));
#781=CARTESIAN_POINT('Ctrl Pts',(12.5644711796846,-17.5001160872561,18.9912952605834));
#782=CARTESIAN_POINT('Ctrl Pts',(12.8651818140687,-17.2796604458673,18.9911141335654));
#783=CARTESIAN_POINT('Ctrl Pts',(13.1596022372808,-17.0519777277153,18.9909634929485));
#784=CARTESIAN_POINT('Ctrl Pts',(13.4533352122367,-16.8248266305896,18.9908132040654));
#785=CARTESIAN_POINT('Ctrl Pts',(13.7408069820469,-16.5904824924855,18.9906932588232));
#786=CARTESIAN_POINT('Ctrl Pts',(14.0214986553933,-16.3495202773935,18.9906249617453));
#787=CARTESIAN_POINT('Ctrl Pts',(14.1869645159751,-16.2074746662339,18.9905847010756));
#788=CARTESIAN_POINT('Ctrl Pts',(14.35007498153,-16.0631299378044,18.990562388205));
#789=CARTESIAN_POINT('Ctrl Pts',(14.5107303327082,-15.9166092583471,18.990562388205));
#790=CARTESIAN_POINT('Ctrl Pts',(14.7830779985604,-15.6682231027875,18.990562388205));
#791=CARTESIAN_POINT('Ctrl Pts',(15.0498596340454,-15.4122579186858,18.9905939479018));
#792=CARTESIAN_POINT('Ctrl Pts',(15.3104316764204,-15.149139648097,18.9906460266247));
#793=CARTESIAN_POINT('Ctrl Pts',(15.5717450763752,-14.8852727756149,18.9906982535175));
#794=CARTESIAN_POINT('Ctrl Pts',(15.8268131309665,-14.6142123328527,18.9907711165573));
#795=CARTESIAN_POINT('Ctrl Pts',(16.0750158784284,-14.336431412814,18.9908534808196));
#796=CARTESIAN_POINT('Ctrl Pts',(16.3230360179863,-14.0588548619535,18.9909357844848));
#797=CARTESIAN_POINT('Ctrl Pts',(16.5642006018613,-13.7745680346975,18.9910275754877));
#798=CARTESIAN_POINT('Ctrl Pts',(16.7979254020805,-13.4840818707196,18.9911177415556));
#799=CARTESIAN_POINT('Ctrl Pts',(17.0308891376859,-13.1945416001171,18.9912076140208));
#800=CARTESIAN_POINT('Ctrl Pts',(17.2564611437749,-12.8988426353163,18.9912958720994));
#801=CARTESIAN_POINT('Ctrl Pts',(17.4741019914376,-12.5975246969813,18.9913715092757));
#802=CARTESIAN_POINT('Ctrl Pts',(17.6900745653697,-12.2985164390508,18.9914465666733));
#803=CARTESIAN_POINT('Ctrl Pts',(17.8982368392433,-11.9939753686571,18.9915091957942));
#804=CARTESIAN_POINT('Ctrl Pts',(18.098104565063,-11.6844570486722,18.9915486398971));
#805=CARTESIAN_POINT('Ctrl Pts',(18.1525093671914,-11.6002049119911,18.9915593767412));
#806=CARTESIAN_POINT('Ctrl Pts',(18.2062998437375,-11.5155841312267,18.9915683956889));
#807=CARTESIAN_POINT('Ctrl Pts',(18.2594668228901,-11.4306062244663,18.9915754797926));
#808=CARTESIAN_POINT('Ctrl Pts',(18.457072572035,-11.1147687781072,18.9916018092857));
#809=CARTESIAN_POINT('Ctrl Pts',(18.6460616483194,-10.793996612295,18.9916014108067));
#810=CARTESIAN_POINT('Ctrl Pts',(18.8262481120943,-10.469039254054,18.9915631476894));
#811=CARTESIAN_POINT('Ctrl Pts',(19.0071856631533,-10.1427273471163,18.9915247250765));
#812=CARTESIAN_POINT('Ctrl Pts',(19.1792469519989,-9.81219574105701,18.9914481211252));
#813=CARTESIAN_POINT('Ctrl Pts',(19.3422939609836,-9.47821829521442,18.9913220661845));
#814=CARTESIAN_POINT('Ctrl Pts',(19.3847953444878,-9.39116055894625,18.9912892075052));
#815=CARTESIAN_POINT('Ctrl Pts',(19.4266844894753,-9.30386874074538,18.9912529887545));
#816=CARTESIAN_POINT('Ctrl Pts',(19.4679595230526,-9.21635665331394,18.9912132104527));
#817=CARTESIAN_POINT('Ctrl Pts',(19.6367989998018,-8.85838008078111,18.9910504935006));
#818=CARTESIAN_POINT('Ctrl Pts',(19.7959752539571,-8.49521209531989,18.9909284636058));
#819=CARTESIAN_POINT('Ctrl Pts',(19.9451612298362,-8.12767424207756,18.9908369427282));
#820=CARTESIAN_POINT('Ctrl Pts',(20.0893747900016,-7.77238654161291,18.9907484722704));
#821=CARTESIAN_POINT('Ctrl Pts',(20.2242530847724,-7.41301603873513,18.9906885112415));
#822=CARTESIAN_POINT('Ctrl Pts',(20.3495491747975,-7.05032840983799,18.9906478712162));
#823=CARTESIAN_POINT('Ctrl Pts',(20.4813254901861,-6.66888283269742,18.9906051293175));
#824=CARTESIAN_POINT('Ctrl Pts',(20.6025021866958,-6.28376853800273,18.9905837587981));
#825=CARTESIAN_POINT('Ctrl Pts',(20.7128509786549,-5.89589537592278,18.9905730734954));
#826=CARTESIAN_POINT('Ctrl Pts',(20.823199770614,-5.50802221384283,18.9905623881927));
#827=CARTESIAN_POINT('Ctrl Pts',(20.9227205334968,-5.11739078445142,18.990562388205));
#828=CARTESIAN_POINT('Ctrl Pts',(21.011247405624,-4.72492166844335,18.990562388205));
#829=CARTESIAN_POINT('Ctrl Pts',(21.0937893635197,-4.35898567104015,18.990562388205));
#830=CARTESIAN_POINT('Ctrl Pts',(21.1670200726999,-3.99036098136962,18.990562388205));
#831=CARTESIAN_POINT('Ctrl Pts',(21.2306742954739,-3.61978904059735,18.990562388205));
#832=CARTESIAN_POINT('Ctrl Pts',(21.2942771569631,-3.24951610671242,18.990562388205));
#833=CARTESIAN_POINT('Ctrl Pts',(21.3483188496739,-2.87729951542194,18.990562388205));
#834=CARTESIAN_POINT('Ctrl Pts',(21.3925844340331,-2.50389397331957,18.990562388205));
#835=CARTESIAN_POINT('Ctrl Pts',(21.4367019131559,-2.13173778366346,18.990562388205));
#836=CARTESIAN_POINT('Ctrl Pts',(21.4711084966088,-1.75840104105585,18.990562388205));
#837=CARTESIAN_POINT('Ctrl Pts',(21.4956424029103,-1.38463906558031,18.990562388205));
#838=CARTESIAN_POINT('Ctrl Pts',(21.5199851054011,-1.01378998596064,18.990562388205));
#839=CARTESIAN_POINT('Ctrl Pts',(21.5346083728211,-0.642522715223516,18.990562388205));
#840=CARTESIAN_POINT('Ctrl Pts',(21.539405453381,-0.271576431608692,18.990562388205));
#841=CARTESIAN_POINT('Ctrl Pts',(21.5405540084137,-0.182761533549765,18.990562388205));
#842=CARTESIAN_POINT('Ctrl Pts',(21.5411395042327,-0.0939650257903826,18.990562388205));
#843=CARTESIAN_POINT('Ctrl Pts',(21.5411609204108,-0.00519702284760189,
18.990562388205));
#844=CARTESIAN_POINT('Origin',(0.,0.,15.8062664585029));
#845=CARTESIAN_POINT('',(-22.3847239479861,-5.48267610653965E-15,14.0961657418746));
#846=CARTESIAN_POINT('Origin',(-2.74540031797069E-48,2.2417894856559E-32,
14.0961657418746));
#847=CARTESIAN_POINT('Origin',(-17.6862608440565,-4.3318845463118E-15,15.8062664585029));
#848=CARTESIAN_POINT('Origin',(0.,0.,10.));
#849=CARTESIAN_POINT('',(-20.8938415433228,-2.55875761679223E-15,10.));
#850=CARTESIAN_POINT('',(-20.8938415433228,-2.55875761679223E-15,10.));
#851=CARTESIAN_POINT('Origin',(0.,0.,10.));
#852=CARTESIAN_POINT('Origin',(0.,0.,10.));
#853=CARTESIAN_POINT('',(-1.83697019872103E-15,15.,10.));
#854=CARTESIAN_POINT('Origin',(0.,0.,10.));
#855=CARTESIAN_POINT('',(-1.40720081290532E-15,11.490666646784,19.6418141453));
#856=CARTESIAN_POINT('',(-1.83697019872103E-15,15.,10.));
#857=CARTESIAN_POINT('',(-11.4906666467847,-1.40720081290541E-15,19.6418141452981));
#858=CARTESIAN_POINT('Origin',(0.,0.,19.6418141452981));
#859=CARTESIAN_POINT('Origin',(0.,0.,19.6418141452981));
#860=CARTESIAN_POINT('Origin',(0.,0.,10.));
#861=CARTESIAN_POINT('',(-9.18485099360515E-16,-1.12481983699639E-31,25.));
#862=CARTESIAN_POINT('Origin',(0.,0.,10.));
#863=CARTESIAN_POINT('Origin',(0.,0.,10.));
#864=UNCERTAINTY_MEASURE_WITH_UNIT(LENGTH_MEASURE(0.01),#868,
'DISTANCE_ACCURACY_VALUE',
'Maximum model space distance between geometric entities at asserted c
onnectivities');
#865=UNCERTAINTY_MEASURE_WITH_UNIT(LENGTH_MEASURE(0.01),#868,
'DISTANCE_ACCURACY_VALUE',
'Maximum model space distance between geometric entities at asserted c
onnectivities');
#866=(
GEOMETRIC_REPRESENTATION_CONTEXT(3)
GLOBAL_UNCERTAINTY_ASSIGNED_CONTEXT((#864))
GLOBAL_UNIT_ASSIGNED_CONTEXT((#868,#870,#871))
REPRESENTATION_CONTEXT('','3D')
);
#867=(
GEOMETRIC_REPRESENTATION_CONTEXT(3)
GLOBAL_UNCERTAINTY_ASSIGNED_CONTEXT((#865))
GLOBAL_UNIT_ASSIGNED_CONTEXT((#868,#870,#871))
REPRESENTATION_CONTEXT('','3D')
);
#868=(
LENGTH_UNIT()
NAMED_UNIT(*)
SI_UNIT(.MILLI.,.METRE.)
);
#869=(
LENGTH_UNIT()
NAMED_UNIT(*)
SI_UNIT($,.METRE.)
);
#870=(
NAMED_UNIT(*)
PLANE_ANGLE_UNIT()
SI_UNIT($,.RADIAN.)
);
#871=(
NAMED_UNIT(*)
SI_UNIT($,.STERADIAN.)
SOLID_ANGLE_UNIT()
);
#872=SHAPE_DEFINITION_REPRESENTATION(#873,#874);
#873=PRODUCT_DEFINITION_SHAPE('',$,#876);
#874=SHAPE_REPRESENTATION('',(#193),#866);
#875=PRODUCT_DEFINITION_CONTEXT('part definition',#880,'design');
#876=PRODUCT_DEFINITION('(Unsaved)','(Unsaved)',#877,#875);
#877=PRODUCT_DEFINITION_FORMATION('',$,#882);
#878=PRODUCT_RELATED_PRODUCT_CATEGORY('(Unsaved)','(Unsaved)',(#882));
#879=APPLICATION_PROTOCOL_DEFINITION('international standard',
'automotive_design',2009,#880);
#880=APPLICATION_CONTEXT(
'Core Data for Automotive Mechanical Design Process');
#881=PRODUCT_CONTEXT('part definition',#880,'mechanical');
#882=PRODUCT('(Unsaved)','(Unsaved)',$,(#881));
#883=PRESENTATION_STYLE_ASSIGNMENT((#884));
#884=SURFACE_STYLE_USAGE(.BOTH.,#885);
#885=SURFACE_SIDE_STYLE('',(#886));
#886=SURFACE_STYLE_FILL_AREA(#887);
#887=FILL_AREA_STYLE('Steel - Satin',(#888));
#888=FILL_AREA_STYLE_COLOUR('Steel - Satin',#889);
#889=COLOUR_RGB('Steel - Satin',0.627450980392157,0.627450980392157,0.627450980392157);
ENDSEC;
END-ISO-10303-21;
