ISO-10303-21;
HEADER;
/* Generated by software containing ST-Developer
 * from STEP Tools, Inc. (www.steptools.com) 
 */

FILE_DESCRIPTION(
/* description */ (''),
/* implementation_level */ '2;1');

FILE_NAME(
/* name */ 'walking assist square exterior.step',
/* time_stamp */ '2026-07-02T14:49:54+05:30',
/* author */ (''),
/* organization */ (''),
/* preprocessor_version */ 'ST-DEVELOPER v20.1',
/* originating_system */ 'Autodesk Translation Framework v15.8.0.0',
/* authorisation */ '');

FILE_SCHEMA (('AUTOMOTIVE_DESIGN { 1 0 10303 214 3 1 1 }'));
ENDSEC;

DATA;
#10=MECHANICAL_DESIGN_GEOMETRIC_PRESENTATION_REPRESENTATION('',(#43,#44,
#45,#46,#47,#48,#49,#50,#51,#52,#53,#54),#1668);
#11=SHAPE_REPRESENTATION_RELATIONSHIP('SRR','None',#1675,#12);
#12=ADVANCED_BREP_SHAPE_REPRESENTATION('',(#25,#26,#27,#28),#1667);
#13=CIRCLE('',#1073,70.);
#14=CIRCLE('',#1074,70.);
#15=CIRCLE('',#1078,70.);
#16=CIRCLE('',#1079,70.);
#17=CIRCLE('',#1083,50.);
#18=CIRCLE('',#1084,50.);
#19=CIRCLE('',#1085,50.);
#20=CIRCLE('',#1086,50.);
#21=CIRCLE('',#1088,50.);
#22=CIRCLE('',#1097,50.);
#23=CIRCLE('',#1099,50.);
#24=CIRCLE('',#1104,50.);
#25=MANIFOLD_SOLID_BREP('Body1',#1017);
#26=MANIFOLD_SOLID_BREP('Body2',#1018);
#27=MANIFOLD_SOLID_BREP('Body3',#1019);
#28=MANIFOLD_SOLID_BREP('Body9',#1020);
#29=ELLIPSE('',#1064,70.7106781186548,50.);
#30=ELLIPSE('',#1065,70.7106781186548,50.);
#31=ELLIPSE('',#1067,70.7106781186548,50.);
#32=ELLIPSE('',#1069,70.7106781186548,50.);
#33=CYLINDRICAL_SURFACE('',#1063,50.);
#34=CYLINDRICAL_SURFACE('',#1066,50.);
#35=CYLINDRICAL_SURFACE('',#1068,50.);
#36=CYLINDRICAL_SURFACE('',#1070,50.);
#37=CYLINDRICAL_SURFACE('',#1072,70.);
#38=CYLINDRICAL_SURFACE('',#1077,70.);
#39=CYLINDRICAL_SURFACE('',#1087,50.);
#40=CYLINDRICAL_SURFACE('',#1096,50.);
#41=CYLINDRICAL_SURFACE('',#1098,50.);
#42=CYLINDRICAL_SURFACE('',#1109,50.);
#43=STYLED_ITEM('',(#1686),#960);
#44=STYLED_ITEM('',(#1687),#962);
#45=STYLED_ITEM('',(#1688),#965);
#46=STYLED_ITEM('',(#1688),#971);
#47=STYLED_ITEM('',(#1689),#973);
#48=STYLED_ITEM('',(#1689),#976);
#49=STYLED_ITEM('',(#1685),#25);
#50=STYLED_ITEM('',(#1687),#992);
#51=STYLED_ITEM('',(#1690),#26);
#52=STYLED_ITEM('',(#1687),#995);
#53=STYLED_ITEM('',(#1690),#27);
#54=STYLED_ITEM('',(#1686),#28);
#55=FACE_OUTER_BOUND('',#115,.T.);
#56=FACE_OUTER_BOUND('',#116,.T.);
#57=FACE_OUTER_BOUND('',#117,.T.);
#58=FACE_OUTER_BOUND('',#118,.T.);
#59=FACE_OUTER_BOUND('',#119,.T.);
#60=FACE_OUTER_BOUND('',#120,.T.);
#61=FACE_OUTER_BOUND('',#121,.T.);
#62=FACE_OUTER_BOUND('',#122,.T.);
#63=FACE_OUTER_BOUND('',#123,.T.);
#64=FACE_OUTER_BOUND('',#124,.T.);
#65=FACE_OUTER_BOUND('',#125,.T.);
#66=FACE_OUTER_BOUND('',#126,.T.);
#67=FACE_OUTER_BOUND('',#127,.T.);
#68=FACE_OUTER_BOUND('',#128,.T.);
#69=FACE_OUTER_BOUND('',#129,.T.);
#70=FACE_OUTER_BOUND('',#130,.T.);
#71=FACE_OUTER_BOUND('',#131,.T.);
#72=FACE_OUTER_BOUND('',#132,.T.);
#73=FACE_OUTER_BOUND('',#133,.T.);
#74=FACE_OUTER_BOUND('',#134,.T.);
#75=FACE_OUTER_BOUND('',#135,.T.);
#76=FACE_OUTER_BOUND('',#136,.T.);
#77=FACE_OUTER_BOUND('',#137,.T.);
#78=FACE_OUTER_BOUND('',#138,.T.);
#79=FACE_OUTER_BOUND('',#139,.T.);
#80=FACE_OUTER_BOUND('',#140,.T.);
#81=FACE_OUTER_BOUND('',#141,.T.);
#82=FACE_OUTER_BOUND('',#142,.T.);
#83=FACE_OUTER_BOUND('',#143,.T.);
#84=FACE_OUTER_BOUND('',#144,.T.);
#85=FACE_OUTER_BOUND('',#145,.T.);
#86=FACE_OUTER_BOUND('',#146,.T.);
#87=FACE_OUTER_BOUND('',#147,.T.);
#88=FACE_OUTER_BOUND('',#148,.T.);
#89=FACE_OUTER_BOUND('',#149,.T.);
#90=FACE_OUTER_BOUND('',#150,.T.);
#91=FACE_OUTER_BOUND('',#151,.T.);
#92=FACE_OUTER_BOUND('',#152,.T.);
#93=FACE_OUTER_BOUND('',#153,.T.);
#94=FACE_OUTER_BOUND('',#154,.T.);
#95=FACE_OUTER_BOUND('',#155,.T.);
#96=FACE_OUTER_BOUND('',#156,.T.);
#97=FACE_OUTER_BOUND('',#157,.T.);
#98=FACE_OUTER_BOUND('',#158,.T.);
#99=FACE_OUTER_BOUND('',#159,.T.);
#100=FACE_OUTER_BOUND('',#160,.T.);
#101=FACE_OUTER_BOUND('',#161,.T.);
#102=FACE_OUTER_BOUND('',#162,.T.);
#103=FACE_OUTER_BOUND('',#163,.T.);
#104=FACE_OUTER_BOUND('',#164,.T.);
#105=FACE_OUTER_BOUND('',#165,.T.);
#106=FACE_OUTER_BOUND('',#166,.T.);
#107=FACE_OUTER_BOUND('',#167,.T.);
#108=FACE_OUTER_BOUND('',#168,.T.);
#109=FACE_OUTER_BOUND('',#169,.T.);
#110=FACE_OUTER_BOUND('',#170,.T.);
#111=FACE_OUTER_BOUND('',#171,.T.);
#112=FACE_OUTER_BOUND('',#172,.T.);
#113=FACE_OUTER_BOUND('',#173,.T.);
#114=FACE_OUTER_BOUND('',#174,.T.);
#115=EDGE_LOOP('',(#635,#636,#637,#638));
#116=EDGE_LOOP('',(#639,#640,#641,#642));
#117=EDGE_LOOP('',(#643,#644,#645,#646));
#118=EDGE_LOOP('',(#647,#648,#649,#650));
#119=EDGE_LOOP('',(#651,#652,#653,#654,#655));
#120=EDGE_LOOP('',(#656,#657,#658,#659,#660,#661));
#121=EDGE_LOOP('',(#662,#663,#664,#665,#666,#667));
#122=EDGE_LOOP('',(#668,#669,#670,#671));
#123=EDGE_LOOP('',(#672,#673,#674,#675,#676,#677));
#124=EDGE_LOOP('',(#678,#679,#680,#681));
#125=EDGE_LOOP('',(#682,#683,#684,#685));
#126=EDGE_LOOP('',(#686,#687,#688,#689));
#127=EDGE_LOOP('',(#690,#691,#692,#693,#694));
#128=EDGE_LOOP('',(#695,#696,#697,#698));
#129=EDGE_LOOP('',(#699,#700,#701,#702,#703,#704));
#130=EDGE_LOOP('',(#705,#706,#707,#708,#709));
#131=EDGE_LOOP('',(#710,#711,#712,#713));
#132=EDGE_LOOP('',(#714,#715,#716,#717,#718));
#133=EDGE_LOOP('',(#719,#720,#721,#722));
#134=EDGE_LOOP('',(#723,#724,#725,#726));
#135=EDGE_LOOP('',(#727,#728,#729,#730));
#136=EDGE_LOOP('',(#731,#732,#733,#734));
#137=EDGE_LOOP('',(#735,#736,#737,#738));
#138=EDGE_LOOP('',(#739,#740,#741,#742));
#139=EDGE_LOOP('',(#743,#744,#745,#746));
#140=EDGE_LOOP('',(#747,#748,#749,#750));
#141=EDGE_LOOP('',(#751,#752,#753,#754));
#142=EDGE_LOOP('',(#755,#756,#757,#758));
#143=EDGE_LOOP('',(#759,#760,#761,#762));
#144=EDGE_LOOP('',(#763,#764,#765,#766));
#145=EDGE_LOOP('',(#767,#768,#769,#770,#771,#772));
#146=EDGE_LOOP('',(#773,#774,#775,#776,#777,#778));
#147=EDGE_LOOP('',(#779,#780,#781,#782));
#148=EDGE_LOOP('',(#783,#784,#785,#786));
#149=EDGE_LOOP('',(#787,#788,#789,#790));
#150=EDGE_LOOP('',(#791));
#151=EDGE_LOOP('',(#792));
#152=EDGE_LOOP('',(#793,#794,#795,#796));
#153=EDGE_LOOP('',(#797));
#154=EDGE_LOOP('',(#798));
#155=EDGE_LOOP('',(#799,#800,#801,#802,#803,#804,#805,#806,#807,#808,#809,
#810,#811,#812,#813,#814,#815,#816));
#156=EDGE_LOOP('',(#817,#818,#819,#820));
#157=EDGE_LOOP('',(#821,#822,#823,#824));
#158=EDGE_LOOP('',(#825,#826,#827,#828));
#159=EDGE_LOOP('',(#829,#830,#831,#832));
#160=EDGE_LOOP('',(#833,#834,#835,#836));
#161=EDGE_LOOP('',(#837,#838,#839,#840));
#162=EDGE_LOOP('',(#841,#842,#843,#844));
#163=EDGE_LOOP('',(#845,#846,#847,#848));
#164=EDGE_LOOP('',(#849,#850,#851,#852));
#165=EDGE_LOOP('',(#853,#854,#855,#856));
#166=EDGE_LOOP('',(#857,#858,#859,#860));
#167=EDGE_LOOP('',(#861,#862,#863,#864));
#168=EDGE_LOOP('',(#865,#866,#867,#868));
#169=EDGE_LOOP('',(#869,#870,#871,#872,#873,#874,#875,#876,#877,#878,#879,
#880,#881,#882,#883,#884,#885,#886));
#170=EDGE_LOOP('',(#887,#888,#889,#890));
#171=EDGE_LOOP('',(#891,#892,#893,#894));
#172=EDGE_LOOP('',(#895,#896,#897,#898));
#173=EDGE_LOOP('',(#899,#900,#901,#902));
#174=EDGE_LOOP('',(#903,#904,#905,#906));
#175=LINE('',#1388,#295);
#176=LINE('',#1390,#296);
#177=LINE('',#1392,#297);
#178=LINE('',#1393,#298);
#179=LINE('',#1396,#299);
#180=LINE('',#1398,#300);
#181=LINE('',#1399,#301);
#182=LINE('',#1403,#302);
#183=LINE('',#1405,#303);
#184=LINE('',#1407,#304);
#185=LINE('',#1408,#305);
#186=LINE('',#1411,#306);
#187=LINE('',#1413,#307);
#188=LINE('',#1414,#308);
#189=LINE('',#1417,#309);
#190=LINE('',#1419,#310);
#191=LINE('',#1421,#311);
#192=LINE('',#1422,#312);
#193=LINE('',#1426,#313);
#194=LINE('',#1428,#314);
#195=LINE('',#1430,#315);
#196=LINE('',#1432,#316);
#197=LINE('',#1434,#317);
#198=LINE('',#1435,#318);
#199=LINE('',#1438,#319);
#200=LINE('',#1440,#320);
#201=LINE('',#1442,#321);
#202=LINE('',#1444,#322);
#203=LINE('',#1446,#323);
#204=LINE('',#1447,#324);
#205=LINE('',#1449,#325);
#206=LINE('',#1451,#326);
#207=LINE('',#1452,#327);
#208=LINE('',#1455,#328);
#209=LINE('',#1457,#329);
#210=LINE('',#1458,#330);
#211=LINE('',#1461,#331);
#212=LINE('',#1462,#332);
#213=LINE('',#1465,#333);
#214=LINE('',#1466,#334);
#215=LINE('',#1469,#335);
#216=LINE('',#1470,#336);
#217=LINE('',#1472,#337);
#218=LINE('',#1475,#338);
#219=LINE('',#1477,#339);
#220=LINE('',#1478,#340);
#221=LINE('',#1481,#341);
#222=LINE('',#1482,#342);
#223=LINE('',#1485,#343);
#224=LINE('',#1486,#344);
#225=LINE('',#1489,#345);
#226=LINE('',#1490,#346);
#227=LINE('',#1493,#347);
#228=LINE('',#1495,#348);
#229=LINE('',#1496,#349);
#230=LINE('',#1499,#350);
#231=LINE('',#1500,#351);
#232=LINE('',#1502,#352);
#233=LINE('',#1503,#353);
#234=LINE('',#1507,#354);
#235=LINE('',#1508,#355);
#236=LINE('',#1510,#356);
#237=LINE('',#1512,#357);
#238=LINE('',#1513,#358);
#239=LINE('',#1516,#359);
#240=LINE('',#1518,#360);
#241=LINE('',#1520,#361);
#242=LINE('',#1521,#362);
#243=LINE('',#1525,#363);
#244=LINE('',#1530,#364);
#245=LINE('',#1534,#365);
#246=LINE('',#1537,#366);
#247=LINE('',#1543,#367);
#248=LINE('',#1551,#368);
#249=LINE('',#1558,#369);
#250=LINE('',#1560,#370);
#251=LINE('',#1562,#371);
#252=LINE('',#1564,#372);
#253=LINE('',#1566,#373);
#254=LINE('',#1568,#374);
#255=LINE('',#1572,#375);
#256=LINE('',#1574,#376);
#257=LINE('',#1576,#377);
#258=LINE('',#1580,#378);
#259=LINE('',#1584,#379);
#260=LINE('',#1586,#380);
#261=LINE('',#1588,#381);
#262=LINE('',#1591,#382);
#263=LINE('',#1594,#383);
#264=LINE('',#1597,#384);
#265=LINE('',#1600,#385);
#266=LINE('',#1601,#386);
#267=LINE('',#1604,#387);
#268=LINE('',#1605,#388);
#269=LINE('',#1608,#389);
#270=LINE('',#1609,#390);
#271=LINE('',#1612,#391);
#272=LINE('',#1613,#392);
#273=LINE('',#1616,#393);
#274=LINE('',#1617,#394);
#275=LINE('',#1620,#395);
#276=LINE('',#1621,#396);
#277=LINE('',#1624,#397);
#278=LINE('',#1625,#398);
#279=LINE('',#1628,#399);
#280=LINE('',#1632,#400);
#281=LINE('',#1635,#401);
#282=LINE('',#1638,#402);
#283=LINE('',#1640,#403);
#284=LINE('',#1641,#404);
#285=LINE('',#1643,#405);
#286=LINE('',#1645,#406);
#287=LINE('',#1648,#407);
#288=LINE('',#1652,#408);
#289=LINE('',#1654,#409);
#290=LINE('',#1655,#410);
#291=LINE('',#1657,#411);
#292=LINE('',#1659,#412);
#293=LINE('',#1661,#413);
#294=LINE('',#1663,#414);
#295=VECTOR('',#1114,10.);
#296=VECTOR('',#1115,10.);
#297=VECTOR('',#1116,10.);
#298=VECTOR('',#1117,10.);
#299=VECTOR('',#1120,10.);
#300=VECTOR('',#1121,10.);
#301=VECTOR('',#1122,10.);
#302=VECTOR('',#1125,10.);
#303=VECTOR('',#1126,10.);
#304=VECTOR('',#1127,10.);
#305=VECTOR('',#1128,10.);
#306=VECTOR('',#1131,10.);
#307=VECTOR('',#1132,10.);
#308=VECTOR('',#1133,10.);
#309=VECTOR('',#1136,10.);
#310=VECTOR('',#1137,10.);
#311=VECTOR('',#1138,10.);
#312=VECTOR('',#1139,10.);
#313=VECTOR('',#1142,10.);
#314=VECTOR('',#1143,10.);
#315=VECTOR('',#1144,10.);
#316=VECTOR('',#1145,10.);
#317=VECTOR('',#1146,10.);
#318=VECTOR('',#1147,10.);
#319=VECTOR('',#1150,10.);
#320=VECTOR('',#1151,10.);
#321=VECTOR('',#1152,10.);
#322=VECTOR('',#1153,10.);
#323=VECTOR('',#1154,10.);
#324=VECTOR('',#1155,10.);
#325=VECTOR('',#1158,10.);
#326=VECTOR('',#1161,10.);
#327=VECTOR('',#1162,10.);
#328=VECTOR('',#1165,10.);
#329=VECTOR('',#1166,10.);
#330=VECTOR('',#1167,10.);
#331=VECTOR('',#1170,10.);
#332=VECTOR('',#1171,10.);
#333=VECTOR('',#1174,10.);
#334=VECTOR('',#1175,10.);
#335=VECTOR('',#1178,10.);
#336=VECTOR('',#1179,10.);
#337=VECTOR('',#1182,10.);
#338=VECTOR('',#1185,10.);
#339=VECTOR('',#1186,10.);
#340=VECTOR('',#1187,10.);
#341=VECTOR('',#1190,10.);
#342=VECTOR('',#1191,10.);
#343=VECTOR('',#1194,10.);
#344=VECTOR('',#1195,10.);
#345=VECTOR('',#1198,10.);
#346=VECTOR('',#1199,10.);
#347=VECTOR('',#1202,10.);
#348=VECTOR('',#1203,10.);
#349=VECTOR('',#1204,10.);
#350=VECTOR('',#1207,10.);
#351=VECTOR('',#1208,10.);
#352=VECTOR('',#1211,10.);
#353=VECTOR('',#1212,10.);
#354=VECTOR('',#1217,10.);
#355=VECTOR('',#1218,10.);
#356=VECTOR('',#1221,10.);
#357=VECTOR('',#1224,10.);
#358=VECTOR('',#1225,10.);
#359=VECTOR('',#1230,10.);
#360=VECTOR('',#1233,10.);
#361=VECTOR('',#1236,10.);
#362=VECTOR('',#1237,10.);
#363=VECTOR('',#1240,10.);
#364=VECTOR('',#1247,10.);
#365=VECTOR('',#1252,10.);
#366=VECTOR('',#1257,10.);
#367=VECTOR('',#1264,70.);
#368=VECTOR('',#1275,70.);
#369=VECTOR('',#1284,10.);
#370=VECTOR('',#1285,10.);
#371=VECTOR('',#1286,10.);
#372=VECTOR('',#1287,10.);
#373=VECTOR('',#1288,10.);
#374=VECTOR('',#1289,10.);
#375=VECTOR('',#1292,10.);
#376=VECTOR('',#1293,10.);
#377=VECTOR('',#1294,10.);
#378=VECTOR('',#1297,10.);
#379=VECTOR('',#1300,10.);
#380=VECTOR('',#1301,10.);
#381=VECTOR('',#1302,10.);
#382=VECTOR('',#1305,10.);
#383=VECTOR('',#1308,10.);
#384=VECTOR('',#1311,10.);
#385=VECTOR('',#1314,10.);
#386=VECTOR('',#1315,10.);
#387=VECTOR('',#1318,10.);
#388=VECTOR('',#1319,10.);
#389=VECTOR('',#1322,10.);
#390=VECTOR('',#1323,10.);
#391=VECTOR('',#1326,10.);
#392=VECTOR('',#1327,10.);
#393=VECTOR('',#1330,10.);
#394=VECTOR('',#1331,10.);
#395=VECTOR('',#1334,10.);
#396=VECTOR('',#1335,10.);
#397=VECTOR('',#1338,10.);
#398=VECTOR('',#1339,10.);
#399=VECTOR('',#1342,10.);
#400=VECTOR('',#1347,10.);
#401=VECTOR('',#1350,10.);
#402=VECTOR('',#1353,10.);
#403=VECTOR('',#1354,10.);
#404=VECTOR('',#1355,10.);
#405=VECTOR('',#1358,10.);
#406=VECTOR('',#1361,10.);
#407=VECTOR('',#1364,10.);
#408=VECTOR('',#1367,10.);
#409=VECTOR('',#1368,10.);
#410=VECTOR('',#1369,10.);
#411=VECTOR('',#1372,10.);
#412=VECTOR('',#1375,10.);
#413=VECTOR('',#1378,10.);
#414=VECTOR('',#1381,10.);
#415=VERTEX_POINT('',#1386);
#416=VERTEX_POINT('',#1387);
#417=VERTEX_POINT('',#1389);
#418=VERTEX_POINT('',#1391);
#419=VERTEX_POINT('',#1395);
#420=VERTEX_POINT('',#1397);
#421=VERTEX_POINT('',#1401);
#422=VERTEX_POINT('',#1402);
#423=VERTEX_POINT('',#1404);
#424=VERTEX_POINT('',#1406);
#425=VERTEX_POINT('',#1410);
#426=VERTEX_POINT('',#1412);
#427=VERTEX_POINT('',#1416);
#428=VERTEX_POINT('',#1418);
#429=VERTEX_POINT('',#1420);
#430=VERTEX_POINT('',#1424);
#431=VERTEX_POINT('',#1425);
#432=VERTEX_POINT('',#1427);
#433=VERTEX_POINT('',#1429);
#434=VERTEX_POINT('',#1431);
#435=VERTEX_POINT('',#1433);
#436=VERTEX_POINT('',#1437);
#437=VERTEX_POINT('',#1439);
#438=VERTEX_POINT('',#1441);
#439=VERTEX_POINT('',#1443);
#440=VERTEX_POINT('',#1445);
#441=VERTEX_POINT('',#1454);
#442=VERTEX_POINT('',#1456);
#443=VERTEX_POINT('',#1460);
#444=VERTEX_POINT('',#1464);
#445=VERTEX_POINT('',#1468);
#446=VERTEX_POINT('',#1474);
#447=VERTEX_POINT('',#1476);
#448=VERTEX_POINT('',#1480);
#449=VERTEX_POINT('',#1484);
#450=VERTEX_POINT('',#1488);
#451=VERTEX_POINT('',#1492);
#452=VERTEX_POINT('',#1494);
#453=VERTEX_POINT('',#1498);
#454=VERTEX_POINT('',#1506);
#455=VERTEX_POINT('',#1523);
#456=VERTEX_POINT('',#1524);
#457=VERTEX_POINT('',#1529);
#458=VERTEX_POINT('',#1533);
#459=VERTEX_POINT('',#1540);
#460=VERTEX_POINT('',#1542);
#461=VERTEX_POINT('',#1548);
#462=VERTEX_POINT('',#1550);
#463=VERTEX_POINT('',#1556);
#464=VERTEX_POINT('',#1557);
#465=VERTEX_POINT('',#1559);
#466=VERTEX_POINT('',#1561);
#467=VERTEX_POINT('',#1563);
#468=VERTEX_POINT('',#1565);
#469=VERTEX_POINT('',#1567);
#470=VERTEX_POINT('',#1569);
#471=VERTEX_POINT('',#1571);
#472=VERTEX_POINT('',#1573);
#473=VERTEX_POINT('',#1575);
#474=VERTEX_POINT('',#1577);
#475=VERTEX_POINT('',#1579);
#476=VERTEX_POINT('',#1581);
#477=VERTEX_POINT('',#1583);
#478=VERTEX_POINT('',#1585);
#479=VERTEX_POINT('',#1587);
#480=VERTEX_POINT('',#1589);
#481=VERTEX_POINT('',#1593);
#482=VERTEX_POINT('',#1595);
#483=VERTEX_POINT('',#1599);
#484=VERTEX_POINT('',#1603);
#485=VERTEX_POINT('',#1607);
#486=VERTEX_POINT('',#1611);
#487=VERTEX_POINT('',#1615);
#488=VERTEX_POINT('',#1619);
#489=VERTEX_POINT('',#1623);
#490=VERTEX_POINT('',#1627);
#491=VERTEX_POINT('',#1631);
#492=VERTEX_POINT('',#1633);
#493=VERTEX_POINT('',#1637);
#494=VERTEX_POINT('',#1639);
#495=VERTEX_POINT('',#1647);
#496=VERTEX_POINT('',#1649);
#497=VERTEX_POINT('',#1651);
#498=VERTEX_POINT('',#1653);
#499=EDGE_CURVE('',#415,#416,#175,.T.);
#500=EDGE_CURVE('',#415,#417,#176,.T.);
#501=EDGE_CURVE('',#418,#417,#177,.T.);
#502=EDGE_CURVE('',#416,#418,#178,.T.);
#503=EDGE_CURVE('',#419,#418,#179,.T.);
#504=EDGE_CURVE('',#417,#420,#180,.T.);
#505=EDGE_CURVE('',#420,#419,#181,.T.);
#506=EDGE_CURVE('',#421,#422,#182,.T.);
#507=EDGE_CURVE('',#423,#421,#183,.T.);
#508=EDGE_CURVE('',#424,#423,#184,.T.);
#509=EDGE_CURVE('',#422,#424,#185,.T.);
#510=EDGE_CURVE('',#425,#420,#186,.T.);
#511=EDGE_CURVE('',#426,#425,#187,.T.);
#512=EDGE_CURVE('',#419,#426,#188,.T.);
#513=EDGE_CURVE('',#424,#427,#189,.T.);
#514=EDGE_CURVE('',#427,#428,#190,.T.);
#515=EDGE_CURVE('',#429,#428,#191,.T.);
#516=EDGE_CURVE('',#429,#422,#192,.T.);
#517=EDGE_CURVE('',#430,#431,#193,.T.);
#518=EDGE_CURVE('',#432,#430,#194,.T.);
#519=EDGE_CURVE('',#433,#432,#195,.T.);
#520=EDGE_CURVE('',#434,#433,#196,.T.);
#521=EDGE_CURVE('',#435,#434,#197,.T.);
#522=EDGE_CURVE('',#431,#435,#198,.T.);
#523=EDGE_CURVE('',#427,#436,#199,.T.);
#524=EDGE_CURVE('',#437,#427,#200,.T.);
#525=EDGE_CURVE('',#438,#437,#201,.T.);
#526=EDGE_CURVE('',#439,#438,#202,.T.);
#527=EDGE_CURVE('',#440,#439,#203,.T.);
#528=EDGE_CURVE('',#436,#440,#204,.T.);
#529=EDGE_CURVE('',#437,#423,#205,.T.);
#530=EDGE_CURVE('',#426,#431,#206,.T.);
#531=EDGE_CURVE('',#435,#416,#207,.T.);
#532=EDGE_CURVE('',#439,#441,#208,.T.);
#533=EDGE_CURVE('',#441,#442,#209,.T.);
#534=EDGE_CURVE('',#442,#440,#210,.T.);
#535=EDGE_CURVE('',#443,#438,#211,.T.);
#536=EDGE_CURVE('',#443,#441,#212,.T.);
#537=EDGE_CURVE('',#437,#444,#213,.T.);
#538=EDGE_CURVE('',#444,#443,#214,.T.);
#539=EDGE_CURVE('',#445,#421,#215,.T.);
#540=EDGE_CURVE('',#444,#445,#216,.T.);
#541=EDGE_CURVE('',#445,#429,#217,.T.);
#542=EDGE_CURVE('',#415,#446,#218,.T.);
#543=EDGE_CURVE('',#447,#446,#219,.T.);
#544=EDGE_CURVE('',#425,#447,#220,.T.);
#545=EDGE_CURVE('',#448,#435,#221,.T.);
#546=EDGE_CURVE('',#448,#446,#222,.T.);
#547=EDGE_CURVE('',#434,#449,#223,.T.);
#548=EDGE_CURVE('',#448,#449,#224,.T.);
#549=EDGE_CURVE('',#450,#447,#225,.T.);
#550=EDGE_CURVE('',#431,#450,#226,.T.);
#551=EDGE_CURVE('',#451,#430,#227,.T.);
#552=EDGE_CURVE('',#451,#452,#228,.T.);
#553=EDGE_CURVE('',#432,#452,#229,.T.);
#554=EDGE_CURVE('',#453,#433,#230,.T.);
#555=EDGE_CURVE('',#449,#453,#231,.T.);
#556=EDGE_CURVE('',#449,#451,#232,.T.);
#557=EDGE_CURVE('',#452,#453,#233,.T.);
#558=EDGE_CURVE('',#454,#442,#234,.T.);
#559=EDGE_CURVE('',#436,#454,#235,.T.);
#560=EDGE_CURVE('',#454,#443,#236,.T.);
#561=EDGE_CURVE('',#450,#451,#237,.T.);
#562=EDGE_CURVE('',#448,#450,#238,.T.);
#563=EDGE_CURVE('',#428,#454,#239,.T.);
#564=EDGE_CURVE('',#428,#444,#240,.T.);
#565=EDGE_CURVE('',#444,#448,#241,.T.);
#566=EDGE_CURVE('',#446,#445,#242,.T.);
#567=EDGE_CURVE('',#455,#456,#243,.T.);
#568=EDGE_CURVE('',#456,#450,#29,.T.);
#569=EDGE_CURVE('',#447,#455,#30,.T.);
#570=EDGE_CURVE('',#456,#457,#244,.T.);
#571=EDGE_CURVE('',#457,#428,#31,.T.);
#572=EDGE_CURVE('',#458,#455,#245,.T.);
#573=EDGE_CURVE('',#458,#429,#32,.T.);
#574=EDGE_CURVE('',#457,#458,#246,.T.);
#575=EDGE_CURVE('',#459,#459,#13,.T.);
#576=EDGE_CURVE('',#459,#460,#247,.T.);
#577=EDGE_CURVE('',#460,#460,#14,.T.);
#578=EDGE_CURVE('',#461,#461,#15,.T.);
#579=EDGE_CURVE('',#461,#462,#248,.T.);
#580=EDGE_CURVE('',#462,#462,#16,.T.);
#581=EDGE_CURVE('',#463,#464,#249,.T.);
#582=EDGE_CURVE('',#465,#463,#250,.T.);
#583=EDGE_CURVE('',#466,#465,#251,.T.);
#584=EDGE_CURVE('',#467,#466,#252,.T.);
#585=EDGE_CURVE('',#468,#467,#253,.T.);
#586=EDGE_CURVE('',#469,#468,#254,.T.);
#587=EDGE_CURVE('',#470,#469,#17,.T.);
#588=EDGE_CURVE('',#471,#470,#255,.T.);
#589=EDGE_CURVE('',#472,#471,#256,.T.);
#590=EDGE_CURVE('',#473,#472,#257,.T.);
#591=EDGE_CURVE('',#474,#473,#18,.T.);
#592=EDGE_CURVE('',#475,#474,#258,.T.);
#593=EDGE_CURVE('',#476,#475,#19,.T.);
#594=EDGE_CURVE('',#477,#476,#259,.T.);
#595=EDGE_CURVE('',#478,#477,#260,.T.);
#596=EDGE_CURVE('',#479,#478,#261,.T.);
#597=EDGE_CURVE('',#480,#479,#20,.T.);
#598=EDGE_CURVE('',#464,#480,#262,.T.);
#599=EDGE_CURVE('',#469,#481,#263,.T.);
#600=EDGE_CURVE('',#482,#481,#21,.T.);
#601=EDGE_CURVE('',#482,#470,#264,.T.);
#602=EDGE_CURVE('',#468,#483,#265,.T.);
#603=EDGE_CURVE('',#481,#483,#266,.T.);
#604=EDGE_CURVE('',#484,#467,#267,.T.);
#605=EDGE_CURVE('',#483,#484,#268,.T.);
#606=EDGE_CURVE('',#466,#485,#269,.T.);
#607=EDGE_CURVE('',#484,#485,#270,.T.);
#608=EDGE_CURVE('',#465,#486,#271,.T.);
#609=EDGE_CURVE('',#485,#486,#272,.T.);
#610=EDGE_CURVE('',#463,#487,#273,.T.);
#611=EDGE_CURVE('',#486,#487,#274,.T.);
#612=EDGE_CURVE('',#488,#464,#275,.T.);
#613=EDGE_CURVE('',#487,#488,#276,.T.);
#614=EDGE_CURVE('',#489,#480,#277,.T.);
#615=EDGE_CURVE('',#488,#489,#278,.T.);
#616=EDGE_CURVE('',#490,#479,#279,.T.);
#617=EDGE_CURVE('',#489,#490,#22,.T.);
#618=EDGE_CURVE('',#475,#491,#280,.T.);
#619=EDGE_CURVE('',#492,#491,#23,.T.);
#620=EDGE_CURVE('',#492,#476,#281,.T.);
#621=EDGE_CURVE('',#477,#493,#282,.T.);
#622=EDGE_CURVE('',#493,#494,#283,.T.);
#623=EDGE_CURVE('',#494,#478,#284,.T.);
#624=EDGE_CURVE('',#492,#493,#285,.T.);
#625=EDGE_CURVE('',#490,#494,#286,.T.);
#626=EDGE_CURVE('',#491,#495,#287,.T.);
#627=EDGE_CURVE('',#495,#496,#24,.T.);
#628=EDGE_CURVE('',#496,#497,#288,.T.);
#629=EDGE_CURVE('',#498,#497,#289,.T.);
#630=EDGE_CURVE('',#482,#498,#290,.T.);
#631=EDGE_CURVE('',#495,#474,#291,.T.);
#632=EDGE_CURVE('',#471,#498,#292,.T.);
#633=EDGE_CURVE('',#497,#472,#293,.T.);
#634=EDGE_CURVE('',#473,#496,#294,.T.);
#635=ORIENTED_EDGE('',*,*,#499,.F.);
#636=ORIENTED_EDGE('',*,*,#500,.T.);
#637=ORIENTED_EDGE('',*,*,#501,.F.);
#638=ORIENTED_EDGE('',*,*,#502,.F.);
#639=ORIENTED_EDGE('',*,*,#503,.T.);
#640=ORIENTED_EDGE('',*,*,#501,.T.);
#641=ORIENTED_EDGE('',*,*,#504,.T.);
#642=ORIENTED_EDGE('',*,*,#505,.T.);
#643=ORIENTED_EDGE('',*,*,#506,.F.);
#644=ORIENTED_EDGE('',*,*,#507,.F.);
#645=ORIENTED_EDGE('',*,*,#508,.F.);
#646=ORIENTED_EDGE('',*,*,#509,.F.);
#647=ORIENTED_EDGE('',*,*,#510,.F.);
#648=ORIENTED_EDGE('',*,*,#511,.F.);
#649=ORIENTED_EDGE('',*,*,#512,.F.);
#650=ORIENTED_EDGE('',*,*,#505,.F.);
#651=ORIENTED_EDGE('',*,*,#509,.T.);
#652=ORIENTED_EDGE('',*,*,#513,.T.);
#653=ORIENTED_EDGE('',*,*,#514,.T.);
#654=ORIENTED_EDGE('',*,*,#515,.F.);
#655=ORIENTED_EDGE('',*,*,#516,.T.);
#656=ORIENTED_EDGE('',*,*,#517,.F.);
#657=ORIENTED_EDGE('',*,*,#518,.F.);
#658=ORIENTED_EDGE('',*,*,#519,.F.);
#659=ORIENTED_EDGE('',*,*,#520,.F.);
#660=ORIENTED_EDGE('',*,*,#521,.F.);
#661=ORIENTED_EDGE('',*,*,#522,.F.);
#662=ORIENTED_EDGE('',*,*,#523,.F.);
#663=ORIENTED_EDGE('',*,*,#524,.F.);
#664=ORIENTED_EDGE('',*,*,#525,.F.);
#665=ORIENTED_EDGE('',*,*,#526,.F.);
#666=ORIENTED_EDGE('',*,*,#527,.F.);
#667=ORIENTED_EDGE('',*,*,#528,.F.);
#668=ORIENTED_EDGE('',*,*,#529,.F.);
#669=ORIENTED_EDGE('',*,*,#524,.T.);
#670=ORIENTED_EDGE('',*,*,#513,.F.);
#671=ORIENTED_EDGE('',*,*,#508,.T.);
#672=ORIENTED_EDGE('',*,*,#530,.T.);
#673=ORIENTED_EDGE('',*,*,#522,.T.);
#674=ORIENTED_EDGE('',*,*,#531,.T.);
#675=ORIENTED_EDGE('',*,*,#502,.T.);
#676=ORIENTED_EDGE('',*,*,#503,.F.);
#677=ORIENTED_EDGE('',*,*,#512,.T.);
#678=ORIENTED_EDGE('',*,*,#527,.T.);
#679=ORIENTED_EDGE('',*,*,#532,.T.);
#680=ORIENTED_EDGE('',*,*,#533,.T.);
#681=ORIENTED_EDGE('',*,*,#534,.T.);
#682=ORIENTED_EDGE('',*,*,#526,.T.);
#683=ORIENTED_EDGE('',*,*,#535,.F.);
#684=ORIENTED_EDGE('',*,*,#536,.T.);
#685=ORIENTED_EDGE('',*,*,#532,.F.);
#686=ORIENTED_EDGE('',*,*,#525,.T.);
#687=ORIENTED_EDGE('',*,*,#537,.T.);
#688=ORIENTED_EDGE('',*,*,#538,.T.);
#689=ORIENTED_EDGE('',*,*,#535,.T.);
#690=ORIENTED_EDGE('',*,*,#539,.F.);
#691=ORIENTED_EDGE('',*,*,#540,.F.);
#692=ORIENTED_EDGE('',*,*,#537,.F.);
#693=ORIENTED_EDGE('',*,*,#529,.T.);
#694=ORIENTED_EDGE('',*,*,#507,.T.);
#695=ORIENTED_EDGE('',*,*,#516,.F.);
#696=ORIENTED_EDGE('',*,*,#541,.F.);
#697=ORIENTED_EDGE('',*,*,#539,.T.);
#698=ORIENTED_EDGE('',*,*,#506,.T.);
#699=ORIENTED_EDGE('',*,*,#542,.T.);
#700=ORIENTED_EDGE('',*,*,#543,.F.);
#701=ORIENTED_EDGE('',*,*,#544,.F.);
#702=ORIENTED_EDGE('',*,*,#510,.T.);
#703=ORIENTED_EDGE('',*,*,#504,.F.);
#704=ORIENTED_EDGE('',*,*,#500,.F.);
#705=ORIENTED_EDGE('',*,*,#499,.T.);
#706=ORIENTED_EDGE('',*,*,#531,.F.);
#707=ORIENTED_EDGE('',*,*,#545,.F.);
#708=ORIENTED_EDGE('',*,*,#546,.T.);
#709=ORIENTED_EDGE('',*,*,#542,.F.);
#710=ORIENTED_EDGE('',*,*,#521,.T.);
#711=ORIENTED_EDGE('',*,*,#547,.T.);
#712=ORIENTED_EDGE('',*,*,#548,.F.);
#713=ORIENTED_EDGE('',*,*,#545,.T.);
#714=ORIENTED_EDGE('',*,*,#511,.T.);
#715=ORIENTED_EDGE('',*,*,#544,.T.);
#716=ORIENTED_EDGE('',*,*,#549,.F.);
#717=ORIENTED_EDGE('',*,*,#550,.F.);
#718=ORIENTED_EDGE('',*,*,#530,.F.);
#719=ORIENTED_EDGE('',*,*,#518,.T.);
#720=ORIENTED_EDGE('',*,*,#551,.F.);
#721=ORIENTED_EDGE('',*,*,#552,.T.);
#722=ORIENTED_EDGE('',*,*,#553,.F.);
#723=ORIENTED_EDGE('',*,*,#520,.T.);
#724=ORIENTED_EDGE('',*,*,#554,.F.);
#725=ORIENTED_EDGE('',*,*,#555,.F.);
#726=ORIENTED_EDGE('',*,*,#547,.F.);
#727=ORIENTED_EDGE('',*,*,#556,.F.);
#728=ORIENTED_EDGE('',*,*,#555,.T.);
#729=ORIENTED_EDGE('',*,*,#557,.F.);
#730=ORIENTED_EDGE('',*,*,#552,.F.);
#731=ORIENTED_EDGE('',*,*,#519,.T.);
#732=ORIENTED_EDGE('',*,*,#553,.T.);
#733=ORIENTED_EDGE('',*,*,#557,.T.);
#734=ORIENTED_EDGE('',*,*,#554,.T.);
#735=ORIENTED_EDGE('',*,*,#528,.T.);
#736=ORIENTED_EDGE('',*,*,#534,.F.);
#737=ORIENTED_EDGE('',*,*,#558,.F.);
#738=ORIENTED_EDGE('',*,*,#559,.F.);
#739=ORIENTED_EDGE('',*,*,#560,.F.);
#740=ORIENTED_EDGE('',*,*,#558,.T.);
#741=ORIENTED_EDGE('',*,*,#533,.F.);
#742=ORIENTED_EDGE('',*,*,#536,.F.);
#743=ORIENTED_EDGE('',*,*,#556,.T.);
#744=ORIENTED_EDGE('',*,*,#561,.F.);
#745=ORIENTED_EDGE('',*,*,#562,.F.);
#746=ORIENTED_EDGE('',*,*,#548,.T.);
#747=ORIENTED_EDGE('',*,*,#517,.T.);
#748=ORIENTED_EDGE('',*,*,#550,.T.);
#749=ORIENTED_EDGE('',*,*,#561,.T.);
#750=ORIENTED_EDGE('',*,*,#551,.T.);
#751=ORIENTED_EDGE('',*,*,#523,.T.);
#752=ORIENTED_EDGE('',*,*,#559,.T.);
#753=ORIENTED_EDGE('',*,*,#563,.F.);
#754=ORIENTED_EDGE('',*,*,#514,.F.);
#755=ORIENTED_EDGE('',*,*,#560,.T.);
#756=ORIENTED_EDGE('',*,*,#538,.F.);
#757=ORIENTED_EDGE('',*,*,#564,.F.);
#758=ORIENTED_EDGE('',*,*,#563,.T.);
#759=ORIENTED_EDGE('',*,*,#565,.F.);
#760=ORIENTED_EDGE('',*,*,#540,.T.);
#761=ORIENTED_EDGE('',*,*,#566,.F.);
#762=ORIENTED_EDGE('',*,*,#546,.F.);
#763=ORIENTED_EDGE('',*,*,#567,.T.);
#764=ORIENTED_EDGE('',*,*,#568,.T.);
#765=ORIENTED_EDGE('',*,*,#549,.T.);
#766=ORIENTED_EDGE('',*,*,#569,.T.);
#767=ORIENTED_EDGE('',*,*,#564,.T.);
#768=ORIENTED_EDGE('',*,*,#565,.T.);
#769=ORIENTED_EDGE('',*,*,#562,.T.);
#770=ORIENTED_EDGE('',*,*,#568,.F.);
#771=ORIENTED_EDGE('',*,*,#570,.T.);
#772=ORIENTED_EDGE('',*,*,#571,.T.);
#773=ORIENTED_EDGE('',*,*,#572,.T.);
#774=ORIENTED_EDGE('',*,*,#569,.F.);
#775=ORIENTED_EDGE('',*,*,#543,.T.);
#776=ORIENTED_EDGE('',*,*,#566,.T.);
#777=ORIENTED_EDGE('',*,*,#541,.T.);
#778=ORIENTED_EDGE('',*,*,#573,.F.);
#779=ORIENTED_EDGE('',*,*,#515,.T.);
#780=ORIENTED_EDGE('',*,*,#571,.F.);
#781=ORIENTED_EDGE('',*,*,#574,.T.);
#782=ORIENTED_EDGE('',*,*,#573,.T.);
#783=ORIENTED_EDGE('',*,*,#567,.F.);
#784=ORIENTED_EDGE('',*,*,#572,.F.);
#785=ORIENTED_EDGE('',*,*,#574,.F.);
#786=ORIENTED_EDGE('',*,*,#570,.F.);
#787=ORIENTED_EDGE('',*,*,#575,.F.);
#788=ORIENTED_EDGE('',*,*,#576,.T.);
#789=ORIENTED_EDGE('',*,*,#577,.F.);
#790=ORIENTED_EDGE('',*,*,#576,.F.);
#791=ORIENTED_EDGE('',*,*,#577,.T.);
#792=ORIENTED_EDGE('',*,*,#575,.T.);
#793=ORIENTED_EDGE('',*,*,#578,.F.);
#794=ORIENTED_EDGE('',*,*,#579,.T.);
#795=ORIENTED_EDGE('',*,*,#580,.F.);
#796=ORIENTED_EDGE('',*,*,#579,.F.);
#797=ORIENTED_EDGE('',*,*,#580,.T.);
#798=ORIENTED_EDGE('',*,*,#578,.T.);
#799=ORIENTED_EDGE('',*,*,#581,.F.);
#800=ORIENTED_EDGE('',*,*,#582,.F.);
#801=ORIENTED_EDGE('',*,*,#583,.F.);
#802=ORIENTED_EDGE('',*,*,#584,.F.);
#803=ORIENTED_EDGE('',*,*,#585,.F.);
#804=ORIENTED_EDGE('',*,*,#586,.F.);
#805=ORIENTED_EDGE('',*,*,#587,.F.);
#806=ORIENTED_EDGE('',*,*,#588,.F.);
#807=ORIENTED_EDGE('',*,*,#589,.F.);
#808=ORIENTED_EDGE('',*,*,#590,.F.);
#809=ORIENTED_EDGE('',*,*,#591,.F.);
#810=ORIENTED_EDGE('',*,*,#592,.F.);
#811=ORIENTED_EDGE('',*,*,#593,.F.);
#812=ORIENTED_EDGE('',*,*,#594,.F.);
#813=ORIENTED_EDGE('',*,*,#595,.F.);
#814=ORIENTED_EDGE('',*,*,#596,.F.);
#815=ORIENTED_EDGE('',*,*,#597,.F.);
#816=ORIENTED_EDGE('',*,*,#598,.F.);
#817=ORIENTED_EDGE('',*,*,#587,.T.);
#818=ORIENTED_EDGE('',*,*,#599,.T.);
#819=ORIENTED_EDGE('',*,*,#600,.F.);
#820=ORIENTED_EDGE('',*,*,#601,.T.);
#821=ORIENTED_EDGE('',*,*,#586,.T.);
#822=ORIENTED_EDGE('',*,*,#602,.T.);
#823=ORIENTED_EDGE('',*,*,#603,.F.);
#824=ORIENTED_EDGE('',*,*,#599,.F.);
#825=ORIENTED_EDGE('',*,*,#585,.T.);
#826=ORIENTED_EDGE('',*,*,#604,.F.);
#827=ORIENTED_EDGE('',*,*,#605,.F.);
#828=ORIENTED_EDGE('',*,*,#602,.F.);
#829=ORIENTED_EDGE('',*,*,#584,.T.);
#830=ORIENTED_EDGE('',*,*,#606,.T.);
#831=ORIENTED_EDGE('',*,*,#607,.F.);
#832=ORIENTED_EDGE('',*,*,#604,.T.);
#833=ORIENTED_EDGE('',*,*,#583,.T.);
#834=ORIENTED_EDGE('',*,*,#608,.T.);
#835=ORIENTED_EDGE('',*,*,#609,.F.);
#836=ORIENTED_EDGE('',*,*,#606,.F.);
#837=ORIENTED_EDGE('',*,*,#582,.T.);
#838=ORIENTED_EDGE('',*,*,#610,.T.);
#839=ORIENTED_EDGE('',*,*,#611,.F.);
#840=ORIENTED_EDGE('',*,*,#608,.F.);
#841=ORIENTED_EDGE('',*,*,#581,.T.);
#842=ORIENTED_EDGE('',*,*,#612,.F.);
#843=ORIENTED_EDGE('',*,*,#613,.F.);
#844=ORIENTED_EDGE('',*,*,#610,.F.);
#845=ORIENTED_EDGE('',*,*,#598,.T.);
#846=ORIENTED_EDGE('',*,*,#614,.F.);
#847=ORIENTED_EDGE('',*,*,#615,.F.);
#848=ORIENTED_EDGE('',*,*,#612,.T.);
#849=ORIENTED_EDGE('',*,*,#597,.T.);
#850=ORIENTED_EDGE('',*,*,#616,.F.);
#851=ORIENTED_EDGE('',*,*,#617,.F.);
#852=ORIENTED_EDGE('',*,*,#614,.T.);
#853=ORIENTED_EDGE('',*,*,#593,.T.);
#854=ORIENTED_EDGE('',*,*,#618,.T.);
#855=ORIENTED_EDGE('',*,*,#619,.F.);
#856=ORIENTED_EDGE('',*,*,#620,.T.);
#857=ORIENTED_EDGE('',*,*,#595,.T.);
#858=ORIENTED_EDGE('',*,*,#621,.T.);
#859=ORIENTED_EDGE('',*,*,#622,.T.);
#860=ORIENTED_EDGE('',*,*,#623,.T.);
#861=ORIENTED_EDGE('',*,*,#594,.T.);
#862=ORIENTED_EDGE('',*,*,#620,.F.);
#863=ORIENTED_EDGE('',*,*,#624,.T.);
#864=ORIENTED_EDGE('',*,*,#621,.F.);
#865=ORIENTED_EDGE('',*,*,#596,.T.);
#866=ORIENTED_EDGE('',*,*,#623,.F.);
#867=ORIENTED_EDGE('',*,*,#625,.F.);
#868=ORIENTED_EDGE('',*,*,#616,.T.);
#869=ORIENTED_EDGE('',*,*,#613,.T.);
#870=ORIENTED_EDGE('',*,*,#615,.T.);
#871=ORIENTED_EDGE('',*,*,#617,.T.);
#872=ORIENTED_EDGE('',*,*,#625,.T.);
#873=ORIENTED_EDGE('',*,*,#622,.F.);
#874=ORIENTED_EDGE('',*,*,#624,.F.);
#875=ORIENTED_EDGE('',*,*,#619,.T.);
#876=ORIENTED_EDGE('',*,*,#626,.T.);
#877=ORIENTED_EDGE('',*,*,#627,.T.);
#878=ORIENTED_EDGE('',*,*,#628,.T.);
#879=ORIENTED_EDGE('',*,*,#629,.F.);
#880=ORIENTED_EDGE('',*,*,#630,.F.);
#881=ORIENTED_EDGE('',*,*,#600,.T.);
#882=ORIENTED_EDGE('',*,*,#603,.T.);
#883=ORIENTED_EDGE('',*,*,#605,.T.);
#884=ORIENTED_EDGE('',*,*,#607,.T.);
#885=ORIENTED_EDGE('',*,*,#609,.T.);
#886=ORIENTED_EDGE('',*,*,#611,.T.);
#887=ORIENTED_EDGE('',*,*,#592,.T.);
#888=ORIENTED_EDGE('',*,*,#631,.F.);
#889=ORIENTED_EDGE('',*,*,#626,.F.);
#890=ORIENTED_EDGE('',*,*,#618,.F.);
#891=ORIENTED_EDGE('',*,*,#588,.T.);
#892=ORIENTED_EDGE('',*,*,#601,.F.);
#893=ORIENTED_EDGE('',*,*,#630,.T.);
#894=ORIENTED_EDGE('',*,*,#632,.F.);
#895=ORIENTED_EDGE('',*,*,#589,.T.);
#896=ORIENTED_EDGE('',*,*,#632,.T.);
#897=ORIENTED_EDGE('',*,*,#629,.T.);
#898=ORIENTED_EDGE('',*,*,#633,.T.);
#899=ORIENTED_EDGE('',*,*,#590,.T.);
#900=ORIENTED_EDGE('',*,*,#633,.F.);
#901=ORIENTED_EDGE('',*,*,#628,.F.);
#902=ORIENTED_EDGE('',*,*,#634,.F.);
#903=ORIENTED_EDGE('',*,*,#591,.T.);
#904=ORIENTED_EDGE('',*,*,#634,.T.);
#905=ORIENTED_EDGE('',*,*,#627,.F.);
#906=ORIENTED_EDGE('',*,*,#631,.T.);
#907=PLANE('',#1034);
#908=PLANE('',#1035);
#909=PLANE('',#1036);
#910=PLANE('',#1037);
#911=PLANE('',#1038);
#912=PLANE('',#1039);
#913=PLANE('',#1040);
#914=PLANE('',#1041);
#915=PLANE('',#1042);
#916=PLANE('',#1043);
#917=PLANE('',#1044);
#918=PLANE('',#1045);
#919=PLANE('',#1046);
#920=PLANE('',#1047);
#921=PLANE('',#1048);
#922=PLANE('',#1049);
#923=PLANE('',#1050);
#924=PLANE('',#1051);
#925=PLANE('',#1052);
#926=PLANE('',#1053);
#927=PLANE('',#1054);
#928=PLANE('',#1055);
#929=PLANE('',#1056);
#930=PLANE('',#1057);
#931=PLANE('',#1058);
#932=PLANE('',#1059);
#933=PLANE('',#1060);
#934=PLANE('',#1061);
#935=PLANE('',#1062);
#936=PLANE('',#1071);
#937=PLANE('',#1075);
#938=PLANE('',#1076);
#939=PLANE('',#1080);
#940=PLANE('',#1081);
#941=PLANE('',#1082);
#942=PLANE('',#1089);
#943=PLANE('',#1090);
#944=PLANE('',#1091);
#945=PLANE('',#1092);
#946=PLANE('',#1093);
#947=PLANE('',#1094);
#948=PLANE('',#1095);
#949=PLANE('',#1100);
#950=PLANE('',#1101);
#951=PLANE('',#1102);
#952=PLANE('',#1103);
#953=PLANE('',#1105);
#954=PLANE('',#1106);
#955=PLANE('',#1107);
#956=PLANE('',#1108);
#957=ADVANCED_FACE('',(#55),#907,.T.);
#958=ADVANCED_FACE('',(#56),#908,.T.);
#959=ADVANCED_FACE('',(#57),#909,.F.);
#960=ADVANCED_FACE('',(#58),#910,.F.);
#961=ADVANCED_FACE('',(#59),#911,.F.);
#962=ADVANCED_FACE('',(#60),#912,.T.);
#963=ADVANCED_FACE('',(#61),#913,.T.);
#964=ADVANCED_FACE('',(#62),#914,.F.);
#965=ADVANCED_FACE('',(#63),#915,.F.);
#966=ADVANCED_FACE('',(#64),#916,.T.);
#967=ADVANCED_FACE('',(#65),#917,.T.);
#968=ADVANCED_FACE('',(#66),#918,.T.);
#969=ADVANCED_FACE('',(#67),#919,.F.);
#970=ADVANCED_FACE('',(#68),#920,.T.);
#971=ADVANCED_FACE('',(#69),#921,.T.);
#972=ADVANCED_FACE('',(#70),#922,.F.);
#973=ADVANCED_FACE('',(#71),#923,.T.);
#974=ADVANCED_FACE('',(#72),#924,.F.);
#975=ADVANCED_FACE('',(#73),#925,.T.);
#976=ADVANCED_FACE('',(#74),#926,.T.);
#977=ADVANCED_FACE('',(#75),#927,.T.);
#978=ADVANCED_FACE('',(#76),#928,.T.);
#979=ADVANCED_FACE('',(#77),#929,.T.);
#980=ADVANCED_FACE('',(#78),#930,.T.);
#981=ADVANCED_FACE('',(#79),#931,.T.);
#982=ADVANCED_FACE('',(#80),#932,.T.);
#983=ADVANCED_FACE('',(#81),#933,.T.);
#984=ADVANCED_FACE('',(#82),#934,.T.);
#985=ADVANCED_FACE('',(#83),#935,.F.);
#986=ADVANCED_FACE('',(#84),#33,.T.);
#987=ADVANCED_FACE('',(#85),#34,.T.);
#988=ADVANCED_FACE('',(#86),#35,.T.);
#989=ADVANCED_FACE('',(#87),#36,.T.);
#990=ADVANCED_FACE('',(#88),#936,.T.);
#991=ADVANCED_FACE('',(#89),#37,.T.);
#992=ADVANCED_FACE('',(#90),#937,.T.);
#993=ADVANCED_FACE('',(#91),#938,.F.);
#994=ADVANCED_FACE('',(#92),#38,.T.);
#995=ADVANCED_FACE('',(#93),#939,.T.);
#996=ADVANCED_FACE('',(#94),#940,.F.);
#997=ADVANCED_FACE('',(#95),#941,.F.);
#998=ADVANCED_FACE('',(#96),#39,.T.);
#999=ADVANCED_FACE('',(#97),#942,.F.);
#1000=ADVANCED_FACE('',(#98),#943,.F.);
#1001=ADVANCED_FACE('',(#99),#944,.F.);
#1002=ADVANCED_FACE('',(#100),#945,.F.);
#1003=ADVANCED_FACE('',(#101),#946,.F.);
#1004=ADVANCED_FACE('',(#102),#947,.F.);
#1005=ADVANCED_FACE('',(#103),#948,.F.);
#1006=ADVANCED_FACE('',(#104),#40,.T.);
#1007=ADVANCED_FACE('',(#105),#41,.T.);
#1008=ADVANCED_FACE('',(#106),#949,.T.);
#1009=ADVANCED_FACE('',(#107),#950,.T.);
#1010=ADVANCED_FACE('',(#108),#951,.T.);
#1011=ADVANCED_FACE('',(#109),#952,.T.);
#1012=ADVANCED_FACE('',(#110),#953,.T.);
#1013=ADVANCED_FACE('',(#111),#954,.T.);
#1014=ADVANCED_FACE('',(#112),#955,.T.);
#1015=ADVANCED_FACE('',(#113),#956,.T.);
#1016=ADVANCED_FACE('',(#114),#42,.T.);
#1017=CLOSED_SHELL('',(#957,#958,#959,#960,#961,#962,#963,#964,#965,#966,
#967,#968,#969,#970,#971,#972,#973,#974,#975,#976,#977,#978,#979,#980,#981,
#982,#983,#984,#985,#986,#987,#988,#989,#990));
#1018=CLOSED_SHELL('',(#991,#992,#993));
#1019=CLOSED_SHELL('',(#994,#995,#996));
#1020=CLOSED_SHELL('',(#997,#998,#999,#1000,#1001,#1002,#1003,#1004,#1005,
#1006,#1007,#1008,#1009,#1010,#1011,#1012,#1013,#1014,#1015,#1016));
#1021=DERIVED_UNIT_ELEMENT(#1023,1.);
#1022=DERIVED_UNIT_ELEMENT(#1670,-3.);
#1023=(
MASS_UNIT()
NAMED_UNIT(*)
SI_UNIT(.KILO.,.GRAM.)
);
#1024=DERIVED_UNIT((#1021,#1022));
#1025=MEASURE_REPRESENTATION_ITEM('density measure',
POSITIVE_RATIO_MEASURE(7850.),#1024);
#1026=PROPERTY_DEFINITION_REPRESENTATION(#1031,#1028);
#1027=PROPERTY_DEFINITION_REPRESENTATION(#1032,#1029);
#1028=REPRESENTATION('material name',(#1030),#1667);
#1029=REPRESENTATION('density',(#1025),#1667);
#1030=DESCRIPTIVE_REPRESENTATION_ITEM('Steel','Steel');
#1031=PROPERTY_DEFINITION('material property','material name',#1677);
#1032=PROPERTY_DEFINITION('material property','density of part',#1677);
#1033=AXIS2_PLACEMENT_3D('',#1384,#1110,#1111);
#1034=AXIS2_PLACEMENT_3D('',#1385,#1112,#1113);
#1035=AXIS2_PLACEMENT_3D('',#1394,#1118,#1119);
#1036=AXIS2_PLACEMENT_3D('',#1400,#1123,#1124);
#1037=AXIS2_PLACEMENT_3D('',#1409,#1129,#1130);
#1038=AXIS2_PLACEMENT_3D('',#1415,#1134,#1135);
#1039=AXIS2_PLACEMENT_3D('',#1423,#1140,#1141);
#1040=AXIS2_PLACEMENT_3D('',#1436,#1148,#1149);
#1041=AXIS2_PLACEMENT_3D('',#1448,#1156,#1157);
#1042=AXIS2_PLACEMENT_3D('',#1450,#1159,#1160);
#1043=AXIS2_PLACEMENT_3D('',#1453,#1163,#1164);
#1044=AXIS2_PLACEMENT_3D('',#1459,#1168,#1169);
#1045=AXIS2_PLACEMENT_3D('',#1463,#1172,#1173);
#1046=AXIS2_PLACEMENT_3D('',#1467,#1176,#1177);
#1047=AXIS2_PLACEMENT_3D('',#1471,#1180,#1181);
#1048=AXIS2_PLACEMENT_3D('',#1473,#1183,#1184);
#1049=AXIS2_PLACEMENT_3D('',#1479,#1188,#1189);
#1050=AXIS2_PLACEMENT_3D('',#1483,#1192,#1193);
#1051=AXIS2_PLACEMENT_3D('',#1487,#1196,#1197);
#1052=AXIS2_PLACEMENT_3D('',#1491,#1200,#1201);
#1053=AXIS2_PLACEMENT_3D('',#1497,#1205,#1206);
#1054=AXIS2_PLACEMENT_3D('',#1501,#1209,#1210);
#1055=AXIS2_PLACEMENT_3D('',#1504,#1213,#1214);
#1056=AXIS2_PLACEMENT_3D('',#1505,#1215,#1216);
#1057=AXIS2_PLACEMENT_3D('',#1509,#1219,#1220);
#1058=AXIS2_PLACEMENT_3D('',#1511,#1222,#1223);
#1059=AXIS2_PLACEMENT_3D('',#1514,#1226,#1227);
#1060=AXIS2_PLACEMENT_3D('',#1515,#1228,#1229);
#1061=AXIS2_PLACEMENT_3D('',#1517,#1231,#1232);
#1062=AXIS2_PLACEMENT_3D('',#1519,#1234,#1235);
#1063=AXIS2_PLACEMENT_3D('',#1522,#1238,#1239);
#1064=AXIS2_PLACEMENT_3D('',#1526,#1241,#1242);
#1065=AXIS2_PLACEMENT_3D('',#1527,#1243,#1244);
#1066=AXIS2_PLACEMENT_3D('',#1528,#1245,#1246);
#1067=AXIS2_PLACEMENT_3D('',#1531,#1248,#1249);
#1068=AXIS2_PLACEMENT_3D('',#1532,#1250,#1251);
#1069=AXIS2_PLACEMENT_3D('',#1535,#1253,#1254);
#1070=AXIS2_PLACEMENT_3D('',#1536,#1255,#1256);
#1071=AXIS2_PLACEMENT_3D('',#1538,#1258,#1259);
#1072=AXIS2_PLACEMENT_3D('',#1539,#1260,#1261);
#1073=AXIS2_PLACEMENT_3D('',#1541,#1262,#1263);
#1074=AXIS2_PLACEMENT_3D('',#1544,#1265,#1266);
#1075=AXIS2_PLACEMENT_3D('',#1545,#1267,#1268);
#1076=AXIS2_PLACEMENT_3D('',#1546,#1269,#1270);
#1077=AXIS2_PLACEMENT_3D('',#1547,#1271,#1272);
#1078=AXIS2_PLACEMENT_3D('',#1549,#1273,#1274);
#1079=AXIS2_PLACEMENT_3D('',#1552,#1276,#1277);
#1080=AXIS2_PLACEMENT_3D('',#1553,#1278,#1279);
#1081=AXIS2_PLACEMENT_3D('',#1554,#1280,#1281);
#1082=AXIS2_PLACEMENT_3D('',#1555,#1282,#1283);
#1083=AXIS2_PLACEMENT_3D('',#1570,#1290,#1291);
#1084=AXIS2_PLACEMENT_3D('',#1578,#1295,#1296);
#1085=AXIS2_PLACEMENT_3D('',#1582,#1298,#1299);
#1086=AXIS2_PLACEMENT_3D('',#1590,#1303,#1304);
#1087=AXIS2_PLACEMENT_3D('',#1592,#1306,#1307);
#1088=AXIS2_PLACEMENT_3D('',#1596,#1309,#1310);
#1089=AXIS2_PLACEMENT_3D('',#1598,#1312,#1313);
#1090=AXIS2_PLACEMENT_3D('',#1602,#1316,#1317);
#1091=AXIS2_PLACEMENT_3D('',#1606,#1320,#1321);
#1092=AXIS2_PLACEMENT_3D('',#1610,#1324,#1325);
#1093=AXIS2_PLACEMENT_3D('',#1614,#1328,#1329);
#1094=AXIS2_PLACEMENT_3D('',#1618,#1332,#1333);
#1095=AXIS2_PLACEMENT_3D('',#1622,#1336,#1337);
#1096=AXIS2_PLACEMENT_3D('',#1626,#1340,#1341);
#1097=AXIS2_PLACEMENT_3D('',#1629,#1343,#1344);
#1098=AXIS2_PLACEMENT_3D('',#1630,#1345,#1346);
#1099=AXIS2_PLACEMENT_3D('',#1634,#1348,#1349);
#1100=AXIS2_PLACEMENT_3D('',#1636,#1351,#1352);
#1101=AXIS2_PLACEMENT_3D('',#1642,#1356,#1357);
#1102=AXIS2_PLACEMENT_3D('',#1644,#1359,#1360);
#1103=AXIS2_PLACEMENT_3D('',#1646,#1362,#1363);
#1104=AXIS2_PLACEMENT_3D('',#1650,#1365,#1366);
#1105=AXIS2_PLACEMENT_3D('',#1656,#1370,#1371);
#1106=AXIS2_PLACEMENT_3D('',#1658,#1373,#1374);
#1107=AXIS2_PLACEMENT_3D('',#1660,#1376,#1377);
#1108=AXIS2_PLACEMENT_3D('',#1662,#1379,#1380);
#1109=AXIS2_PLACEMENT_3D('',#1664,#1382,#1383);
#1110=DIRECTION('axis',(0.,0.,1.));
#1111=DIRECTION('refdir',(1.,0.,0.));
#1112=DIRECTION('center_axis',(0.,-1.,0.));
#1113=DIRECTION('ref_axis',(0.,0.,1.));
#1114=DIRECTION('',(0.,0.,-1.));
#1115=DIRECTION('',(-1.,0.,0.));
#1116=DIRECTION('',(0.,0.,1.));
#1117=DIRECTION('',(-1.,0.,0.));
#1118=DIRECTION('center_axis',(-1.,0.,0.));
#1119=DIRECTION('ref_axis',(0.,0.,1.));
#1120=DIRECTION('',(0.,-1.,0.));
#1121=DIRECTION('',(0.,1.,0.));
#1122=DIRECTION('',(0.,0.,-1.));
#1123=DIRECTION('center_axis',(0.,-1.,0.));
#1124=DIRECTION('ref_axis',(-1.,0.,0.));
#1125=DIRECTION('',(-1.,0.,0.));
#1126=DIRECTION('',(0.,0.,1.));
#1127=DIRECTION('',(1.,0.,0.));
#1128=DIRECTION('',(0.,0.,-1.));
#1129=DIRECTION('center_axis',(0.,-1.,0.));
#1130=DIRECTION('ref_axis',(-1.,0.,0.));
#1131=DIRECTION('',(-1.,0.,0.));
#1132=DIRECTION('',(0.,0.,1.));
#1133=DIRECTION('',(1.,0.,0.));
#1134=DIRECTION('center_axis',(1.,0.,0.));
#1135=DIRECTION('ref_axis',(0.,1.,0.));
#1136=DIRECTION('',(0.,-1.,0.));
#1137=DIRECTION('',(0.,-1.,0.));
#1138=DIRECTION('',(0.,0.,-1.));
#1139=DIRECTION('',(0.,1.,0.));
#1140=DIRECTION('center_axis',(0.,1.,0.));
#1141=DIRECTION('ref_axis',(-1.,0.,0.));
#1142=DIRECTION('',(0.0871557427476579,0.,0.996194698091746));
#1143=DIRECTION('',(0.,0.,1.));
#1144=DIRECTION('',(1.,0.,0.));
#1145=DIRECTION('',(0.,0.,-1.));
#1146=DIRECTION('',(0.0871557427476579,0.,-0.996194698091746));
#1147=DIRECTION('',(-1.,0.,0.));
#1148=DIRECTION('center_axis',(0.,1.,0.));
#1149=DIRECTION('ref_axis',(-1.,0.,0.));
#1150=DIRECTION('',(0.0871557427476582,0.,-0.996194698091746));
#1151=DIRECTION('',(-1.,0.,0.));
#1152=DIRECTION('',(0.0871557427476582,0.,0.996194698091746));
#1153=DIRECTION('',(0.,0.,1.));
#1154=DIRECTION('',(1.,0.,0.));
#1155=DIRECTION('',(0.,0.,-1.));
#1156=DIRECTION('center_axis',(0.,0.,1.));
#1157=DIRECTION('ref_axis',(-1.,0.,0.));
#1158=DIRECTION('',(0.,1.,0.));
#1159=DIRECTION('center_axis',(0.,0.,1.));
#1160=DIRECTION('ref_axis',(-1.,0.,0.));
#1161=DIRECTION('',(0.,-1.,0.));
#1162=DIRECTION('',(0.,1.,0.));
#1163=DIRECTION('center_axis',(0.,0.,-1.));
#1164=DIRECTION('ref_axis',(-1.,0.,0.));
#1165=DIRECTION('',(0.,-1.,0.));
#1166=DIRECTION('',(-1.,0.,0.));
#1167=DIRECTION('',(0.,1.,0.));
#1168=DIRECTION('center_axis',(1.,0.,0.));
#1169=DIRECTION('ref_axis',(0.,-1.,0.));
#1170=DIRECTION('',(0.,1.,0.));
#1171=DIRECTION('',(0.,0.,-1.));
#1172=DIRECTION('center_axis',(0.996194698091746,0.,-0.0871557427476582));
#1173=DIRECTION('ref_axis',(0.,-1.,0.));
#1174=DIRECTION('',(0.,-1.,0.));
#1175=DIRECTION('',(-0.0868265938642476,0.0868265938642476,-0.992432509138967));
#1176=DIRECTION('center_axis',(-1.,0.,0.));
#1177=DIRECTION('ref_axis',(0.,-1.,0.));
#1178=DIRECTION('',(0.,1.,0.));
#1179=DIRECTION('',(0.,0.,1.));
#1180=DIRECTION('center_axis',(0.,0.,1.));
#1181=DIRECTION('ref_axis',(0.,-1.,0.));
#1182=DIRECTION('',(-1.,0.,0.));
#1183=DIRECTION('center_axis',(0.,0.,1.));
#1184=DIRECTION('ref_axis',(0.,-1.,0.));
#1185=DIRECTION('',(0.,-1.,0.));
#1186=DIRECTION('',(-1.,0.,0.));
#1187=DIRECTION('',(0.,-1.,0.));
#1188=DIRECTION('center_axis',(1.,0.,0.));
#1189=DIRECTION('ref_axis',(0.,1.,0.));
#1190=DIRECTION('',(0.,1.,0.));
#1191=DIRECTION('',(0.,0.,1.));
#1192=DIRECTION('center_axis',(-0.996194698091746,0.,-0.0871557427476579));
#1193=DIRECTION('ref_axis',(0.,1.,0.));
#1194=DIRECTION('',(0.,-1.,0.));
#1195=DIRECTION('',(0.0868265938642473,0.0868265938642476,-0.992432509138967));
#1196=DIRECTION('center_axis',(-1.,0.,0.));
#1197=DIRECTION('ref_axis',(0.,0.,1.));
#1198=DIRECTION('',(0.,0.,1.));
#1199=DIRECTION('',(0.,-1.,0.));
#1200=DIRECTION('center_axis',(1.,0.,0.));
#1201=DIRECTION('ref_axis',(0.,-1.,0.));
#1202=DIRECTION('',(0.,1.,0.));
#1203=DIRECTION('',(0.,0.,-1.));
#1204=DIRECTION('',(0.,-1.,0.));
#1205=DIRECTION('center_axis',(-1.,0.,0.));
#1206=DIRECTION('ref_axis',(0.,1.,0.));
#1207=DIRECTION('',(0.,1.,0.));
#1208=DIRECTION('',(0.,0.,-1.));
#1209=DIRECTION('center_axis',(0.,-1.,0.));
#1210=DIRECTION('ref_axis',(-1.,0.,0.));
#1211=DIRECTION('',(1.,0.,0.));
#1212=DIRECTION('',(-1.,0.,0.));
#1213=DIRECTION('center_axis',(0.,0.,-1.));
#1214=DIRECTION('ref_axis',(-1.,0.,0.));
#1215=DIRECTION('center_axis',(-1.,0.,0.));
#1216=DIRECTION('ref_axis',(0.,1.,0.));
#1217=DIRECTION('',(0.,0.,-1.));
#1218=DIRECTION('',(0.,-1.,0.));
#1219=DIRECTION('center_axis',(0.,-1.,0.));
#1220=DIRECTION('ref_axis',(-1.,0.,0.));
#1221=DIRECTION('',(1.,0.,0.));
#1222=DIRECTION('center_axis',(0.,-0.996194698091746,-0.0871557427476582));
#1223=DIRECTION('ref_axis',(-1.,0.,0.));
#1224=DIRECTION('',(-0.0868265938642473,0.0868265938642476,-0.992432509138967));
#1225=DIRECTION('',(1.,0.,0.));
#1226=DIRECTION('center_axis',(0.996194698091746,0.,-0.0871557427476579));
#1227=DIRECTION('ref_axis',(0.,-1.,0.));
#1228=DIRECTION('center_axis',(-0.996194698091746,0.,-0.0871557427476582));
#1229=DIRECTION('ref_axis',(0.,1.,0.));
#1230=DIRECTION('',(0.0868265938642476,0.0868265938642476,-0.992432509138967));
#1231=DIRECTION('center_axis',(0.,-0.996194698091746,-0.0871557427476582));
#1232=DIRECTION('ref_axis',(-1.,0.,0.));
#1233=DIRECTION('',(1.,0.,0.));
#1234=DIRECTION('center_axis',(0.,-1.,0.));
#1235=DIRECTION('ref_axis',(1.,0.,0.));
#1236=DIRECTION('',(1.,0.,0.));
#1237=DIRECTION('',(-1.,0.,0.));
#1238=DIRECTION('center_axis',(0.,0.,1.));
#1239=DIRECTION('ref_axis',(0.707106781186547,-0.707106781186547,0.));
#1240=DIRECTION('',(0.,0.,-1.));
#1241=DIRECTION('center_axis',(0.707106781186548,0.,0.707106781186548));
#1242=DIRECTION('ref_axis',(0.707106781186547,0.,-0.707106781186547));
#1243=DIRECTION('center_axis',(0.707106781186548,0.,-0.707106781186548));
#1244=DIRECTION('ref_axis',(-0.707106781186547,0.,-0.707106781186547));
#1245=DIRECTION('center_axis',(1.,0.,0.));
#1246=DIRECTION('ref_axis',(0.,-0.707106781186547,-0.707106781186547));
#1247=DIRECTION('',(-1.,0.,0.));
#1248=DIRECTION('center_axis',(0.707106781186548,0.,-0.707106781186548));
#1249=DIRECTION('ref_axis',(-0.707106781186547,0.,-0.707106781186547));
#1250=DIRECTION('center_axis',(1.,0.,0.));
#1251=DIRECTION('ref_axis',(0.,-0.707106781186547,0.707106781186547));
#1252=DIRECTION('',(1.,0.,0.));
#1253=DIRECTION('center_axis',(-0.707106781186548,0.,-0.707106781186548));
#1254=DIRECTION('ref_axis',(0.707106781186547,0.,-0.707106781186547));
#1255=DIRECTION('center_axis',(0.,0.,1.));
#1256=DIRECTION('ref_axis',(-0.707106781186547,-0.707106781186547,0.));
#1257=DIRECTION('',(0.,0.,1.));
#1258=DIRECTION('center_axis',(0.,-1.,0.));
#1259=DIRECTION('ref_axis',(0.,0.,-1.));
#1260=DIRECTION('center_axis',(1.,0.,0.));
#1261=DIRECTION('ref_axis',(0.,-1.,0.));
#1262=DIRECTION('center_axis',(1.,0.,0.));
#1263=DIRECTION('ref_axis',(0.,-1.,0.));
#1264=DIRECTION('',(-1.,0.,0.));
#1265=DIRECTION('center_axis',(-1.,0.,0.));
#1266=DIRECTION('ref_axis',(0.,-1.,0.));
#1267=DIRECTION('center_axis',(-1.,0.,0.));
#1268=DIRECTION('ref_axis',(0.,-1.,0.));
#1269=DIRECTION('center_axis',(-1.,0.,0.));
#1270=DIRECTION('ref_axis',(0.,-1.,0.));
#1271=DIRECTION('center_axis',(-1.,0.,0.));
#1272=DIRECTION('ref_axis',(0.,1.,0.));
#1273=DIRECTION('center_axis',(-1.,0.,0.));
#1274=DIRECTION('ref_axis',(0.,1.,0.));
#1275=DIRECTION('',(1.,0.,0.));
#1276=DIRECTION('center_axis',(1.,0.,0.));
#1277=DIRECTION('ref_axis',(0.,1.,0.));
#1278=DIRECTION('center_axis',(1.,0.,0.));
#1279=DIRECTION('ref_axis',(0.,1.,0.));
#1280=DIRECTION('center_axis',(1.,0.,0.));
#1281=DIRECTION('ref_axis',(0.,1.,0.));
#1282=DIRECTION('center_axis',(0.,0.984807753012208,0.17364817766693));
#1283=DIRECTION('ref_axis',(-1.,0.,0.));
#1284=DIRECTION('',(1.,0.,0.));
#1285=DIRECTION('',(0.,-0.17364817766693,0.984807753012208));
#1286=DIRECTION('',(1.,0.,0.));
#1287=DIRECTION('',(0.,0.17364817766693,-0.984807753012208));
#1288=DIRECTION('',(1.,0.,0.));
#1289=DIRECTION('',(0.,-0.17364817766693,0.984807753012208));
#1290=DIRECTION('center_axis',(0.,0.984807753012208,0.17364817766693));
#1291=DIRECTION('ref_axis',(-1.,0.,0.));
#1292=DIRECTION('',(-1.,0.,0.));
#1293=DIRECTION('',(0.,0.17364817766693,-0.984807753012208));
#1294=DIRECTION('',(1.,0.,0.));
#1295=DIRECTION('center_axis',(0.,0.984807753012208,0.17364817766693));
#1296=DIRECTION('ref_axis',(-1.,0.,0.));
#1297=DIRECTION('',(-1.,0.,0.));
#1298=DIRECTION('center_axis',(0.,0.984807753012208,0.17364817766693));
#1299=DIRECTION('ref_axis',(-1.,0.,0.));
#1300=DIRECTION('',(1.,0.,0.));
#1301=DIRECTION('',(0.,-0.17364817766693,0.984807753012208));
#1302=DIRECTION('',(-1.,0.,0.));
#1303=DIRECTION('center_axis',(0.,0.984807753012208,0.17364817766693));
#1304=DIRECTION('ref_axis',(-1.,0.,0.));
#1305=DIRECTION('',(0.,0.17364817766693,-0.984807753012208));
#1306=DIRECTION('center_axis',(0.,-0.984807753012208,-0.17364817766693));
#1307=DIRECTION('ref_axis',(-1.,0.,0.));
#1308=DIRECTION('',(0.,0.984807753012208,0.17364817766693));
#1309=DIRECTION('center_axis',(0.,0.984807753012208,0.17364817766693));
#1310=DIRECTION('ref_axis',(-1.,0.,0.));
#1311=DIRECTION('',(0.,-0.984807753012208,-0.17364817766693));
#1312=DIRECTION('center_axis',(1.,0.,0.));
#1313=DIRECTION('ref_axis',(0.,0.984807753012208,0.17364817766693));
#1314=DIRECTION('',(0.,0.984807753012208,0.17364817766693));
#1315=DIRECTION('',(0.,-0.17364817766693,0.984807753012208));
#1316=DIRECTION('center_axis',(0.,0.17364817766693,-0.984807753012208));
#1317=DIRECTION('ref_axis',(-1.,0.,0.));
#1318=DIRECTION('',(0.,-0.984807753012208,-0.17364817766693));
#1319=DIRECTION('',(1.,0.,0.));
#1320=DIRECTION('center_axis',(-1.,0.,0.));
#1321=DIRECTION('ref_axis',(0.,-0.17364817766693,0.984807753012208));
#1322=DIRECTION('',(0.,0.984807753012208,0.17364817766693));
#1323=DIRECTION('',(0.,0.17364817766693,-0.984807753012208));
#1324=DIRECTION('center_axis',(0.,0.17364817766693,-0.984807753012208));
#1325=DIRECTION('ref_axis',(-1.,0.,0.));
#1326=DIRECTION('',(0.,0.984807753012208,0.17364817766693));
#1327=DIRECTION('',(1.,0.,0.));
#1328=DIRECTION('center_axis',(1.,0.,0.));
#1329=DIRECTION('ref_axis',(0.,0.17364817766693,-0.984807753012208));
#1330=DIRECTION('',(0.,0.984807753012208,0.17364817766693));
#1331=DIRECTION('',(0.,-0.17364817766693,0.984807753012208));
#1332=DIRECTION('center_axis',(0.,0.17364817766693,-0.984807753012208));
#1333=DIRECTION('ref_axis',(-1.,0.,0.));
#1334=DIRECTION('',(0.,-0.984807753012208,-0.17364817766693));
#1335=DIRECTION('',(1.,0.,0.));
#1336=DIRECTION('center_axis',(-1.,0.,0.));
#1337=DIRECTION('ref_axis',(0.,-0.17364817766693,0.984807753012208));
#1338=DIRECTION('',(0.,-0.984807753012208,-0.17364817766693));
#1339=DIRECTION('',(0.,0.17364817766693,-0.984807753012208));
#1340=DIRECTION('center_axis',(0.,-0.984807753012208,-0.17364817766693));
#1341=DIRECTION('ref_axis',(0.707106781186546,0.122787803968973,-0.696364240320021));
#1342=DIRECTION('',(0.,-0.984807753012208,-0.17364817766693));
#1343=DIRECTION('center_axis',(0.,0.984807753012208,0.17364817766693));
#1344=DIRECTION('ref_axis',(-1.,0.,0.));
#1345=DIRECTION('center_axis',(0.,-0.984807753012208,-0.17364817766693));
#1346=DIRECTION('ref_axis',(-1.,0.,0.));
#1347=DIRECTION('',(0.,0.984807753012208,0.17364817766693));
#1348=DIRECTION('center_axis',(0.,0.984807753012208,0.17364817766693));
#1349=DIRECTION('ref_axis',(-1.,0.,0.));
#1350=DIRECTION('',(0.,-0.984807753012208,-0.17364817766693));
#1351=DIRECTION('center_axis',(-1.,0.,0.));
#1352=DIRECTION('ref_axis',(0.,-0.17364817766693,0.984807753012208));
#1353=DIRECTION('',(0.,0.984807753012208,0.17364817766693));
#1354=DIRECTION('',(0.,0.17364817766693,-0.984807753012208));
#1355=DIRECTION('',(0.,-0.984807753012208,-0.17364817766693));
#1356=DIRECTION('center_axis',(0.,-0.17364817766693,0.984807753012208));
#1357=DIRECTION('ref_axis',(0.,0.984807753012208,0.17364817766693));
#1358=DIRECTION('',(-1.,0.,0.));
#1359=DIRECTION('center_axis',(0.,0.17364817766693,-0.984807753012208));
#1360=DIRECTION('ref_axis',(0.,-0.984807753012208,-0.17364817766693));
#1361=DIRECTION('',(-1.,0.,0.));
#1362=DIRECTION('center_axis',(0.,0.984807753012208,0.17364817766693));
#1363=DIRECTION('ref_axis',(-1.,0.,0.));
#1364=DIRECTION('',(-1.,0.,0.));
#1365=DIRECTION('center_axis',(0.,0.984807753012208,0.17364817766693));
#1366=DIRECTION('ref_axis',(-1.,0.,0.));
#1367=DIRECTION('',(1.,0.,0.));
#1368=DIRECTION('',(0.,-0.17364817766693,0.984807753012208));
#1369=DIRECTION('',(1.,0.,0.));
#1370=DIRECTION('center_axis',(0.,0.17364817766693,-0.984807753012208));
#1371=DIRECTION('ref_axis',(0.,-0.984807753012208,-0.17364817766693));
#1372=DIRECTION('',(0.,-0.984807753012208,-0.17364817766693));
#1373=DIRECTION('center_axis',(0.,0.17364817766693,-0.984807753012208));
#1374=DIRECTION('ref_axis',(0.,0.984807753012208,0.17364817766693));
#1375=DIRECTION('',(0.,0.984807753012208,0.17364817766693));
#1376=DIRECTION('center_axis',(1.,0.,0.));
#1377=DIRECTION('ref_axis',(0.,0.17364817766693,-0.984807753012208));
#1378=DIRECTION('',(0.,-0.984807753012208,-0.17364817766693));
#1379=DIRECTION('center_axis',(0.,-0.17364817766693,0.984807753012208));
#1380=DIRECTION('ref_axis',(0.,-0.984807753012208,-0.17364817766693));
#1381=DIRECTION('',(0.,0.984807753012208,0.17364817766693));
#1382=DIRECTION('center_axis',(0.,-0.984807753012208,-0.17364817766693));
#1383=DIRECTION('ref_axis',(-1.,0.,0.));
#1384=CARTESIAN_POINT('',(0.,0.,0.));
#1385=CARTESIAN_POINT('Origin',(550.,70.,-75.));
#1386=CARTESIAN_POINT('',(550.,70.,75.));
#1387=CARTESIAN_POINT('',(550.,70.,-75.));
#1388=CARTESIAN_POINT('',(550.,70.,0.));
#1389=CARTESIAN_POINT('',(50.,70.,75.));
#1390=CARTESIAN_POINT('',(550.,70.,75.));
#1391=CARTESIAN_POINT('',(50.,70.,-75.));
#1392=CARTESIAN_POINT('',(50.,70.,75.));
#1393=CARTESIAN_POINT('',(550.,70.,-75.));
#1394=CARTESIAN_POINT('Origin',(50.,87.5,0.));
#1395=CARTESIAN_POINT('',(50.,105.,-75.));
#1396=CARTESIAN_POINT('',(50.,70.,-75.));
#1397=CARTESIAN_POINT('',(50.,105.,75.));
#1398=CARTESIAN_POINT('',(50.,105.,75.));
#1399=CARTESIAN_POINT('',(50.,105.,-75.));
#1400=CARTESIAN_POINT('Origin',(600.,105.,107.575365709839));
#1401=CARTESIAN_POINT('',(49.7203289440399,105.,75.));
#1402=CARTESIAN_POINT('',(0.,105.,75.));
#1403=CARTESIAN_POINT('',(0.,105.,75.));
#1404=CARTESIAN_POINT('',(49.7203289440399,105.,-75.));
#1405=CARTESIAN_POINT('',(49.7203289440399,105.,-187.724917420359));
#1406=CARTESIAN_POINT('',(0.,105.,-75.));
#1407=CARTESIAN_POINT('',(0.,105.,-75.));
#1408=CARTESIAN_POINT('',(0.,105.,53.7876828549196));
#1409=CARTESIAN_POINT('Origin',(600.,105.,107.575365709839));
#1410=CARTESIAN_POINT('',(600.,105.,75.));
#1411=CARTESIAN_POINT('',(550.,105.,75.));
#1412=CARTESIAN_POINT('',(600.,105.,-75.));
#1413=CARTESIAN_POINT('',(600.,105.,53.7876828549196));
#1414=CARTESIAN_POINT('',(0.,105.,-75.));
#1415=CARTESIAN_POINT('Origin',(0.,-5.,0.));
#1416=CARTESIAN_POINT('',(0.,35.,-75.));
#1417=CARTESIAN_POINT('',(0.,75.,-75.));
#1418=CARTESIAN_POINT('',(0.,-35.,-75.));
#1419=CARTESIAN_POINT('',(0.,75.,-75.));
#1420=CARTESIAN_POINT('',(0.,-35.,75.));
#1421=CARTESIAN_POINT('',(0.,-35.,37.5));
#1422=CARTESIAN_POINT('',(0.,35.,75.));
#1423=CARTESIAN_POINT('Origin',(25.,35.,-1050.));
#1424=CARTESIAN_POINT('',(591.251133647408,35.,-175.));
#1425=CARTESIAN_POINT('',(600.,35.,-75.));
#1426=CARTESIAN_POINT('',(555.489371189191,35.,-583.758815336347));
#1427=CARTESIAN_POINT('',(591.251133647408,35.,-445.));
#1428=CARTESIAN_POINT('',(591.251133647408,35.,-612.5));
#1429=CARTESIAN_POINT('',(558.748866352592,35.,-445.));
#1430=CARTESIAN_POINT('',(12.5,35.,-445.));
#1431=CARTESIAN_POINT('',(558.748866352592,35.,-175.));
#1432=CARTESIAN_POINT('',(558.748866352592,35.,-612.5));
#1433=CARTESIAN_POINT('',(550.,35.,-75.));
#1434=CARTESIAN_POINT('',(590.332760889166,35.,-536.005566477941));
#1435=CARTESIAN_POINT('',(0.,35.,-75.));
#1436=CARTESIAN_POINT('Origin',(25.,35.,-1050.));
#1437=CARTESIAN_POINT('',(8.7488663525924,35.,-175.));
#1438=CARTESIAN_POINT('',(42.421694849988,35.,-559.882190907144));
#1439=CARTESIAN_POINT('',(49.7203289440399,35.,-75.));
#1440=CARTESIAN_POINT('',(0.,35.,-75.));
#1441=CARTESIAN_POINT('',(40.9714625914475,35.,-175.));
#1442=CARTESIAN_POINT('',(7.29969630199135,35.,-559.870049814841));
#1443=CARTESIAN_POINT('',(40.9714625914475,35.,-445.));
#1444=CARTESIAN_POINT('',(40.9714625914475,35.,-612.5));
#1445=CARTESIAN_POINT('',(8.7488663525924,35.,-445.));
#1446=CARTESIAN_POINT('',(12.5,35.,-445.));
#1447=CARTESIAN_POINT('',(8.7488663525924,35.,-612.5));
#1448=CARTESIAN_POINT('Origin',(49.7203289440399,75.,-75.));
#1449=CARTESIAN_POINT('',(49.7203289440399,75.,-75.));
#1450=CARTESIAN_POINT('Origin',(600.,75.,-75.));
#1451=CARTESIAN_POINT('',(600.,-45.,-75.));
#1452=CARTESIAN_POINT('',(550.,75.,-75.));
#1453=CARTESIAN_POINT('Origin',(0.,-85.,-445.));
#1454=CARTESIAN_POINT('',(40.9714625914475,-26.2511336474076,-445.));
#1455=CARTESIAN_POINT('',(40.9714625914475,-5.,-445.));
#1456=CARTESIAN_POINT('',(8.7488663525924,-26.2511336474076,-445.));
#1457=CARTESIAN_POINT('',(0.,-26.2511336474076,-445.));
#1458=CARTESIAN_POINT('',(8.7488663525924,75.,-445.));
#1459=CARTESIAN_POINT('Origin',(40.9714625914475,66.2511336474076,-175.));
#1460=CARTESIAN_POINT('',(40.9714625914475,-26.2511336474076,-175.));
#1461=CARTESIAN_POINT('',(40.9714625914475,-5.,-175.));
#1462=CARTESIAN_POINT('',(40.9714625914475,-26.2511336474076,-175.));
#1463=CARTESIAN_POINT('Origin',(49.7203289440399,-35.,-75.));
#1464=CARTESIAN_POINT('',(49.7203289440399,-35.,-75.));
#1465=CARTESIAN_POINT('',(49.7203289440399,-5.,-75.));
#1466=CARTESIAN_POINT('',(49.5329117090935,-34.8125827650535,-77.1421887978773));
#1467=CARTESIAN_POINT('Origin',(49.7203289440399,75.,75.));
#1468=CARTESIAN_POINT('',(49.7203289440399,-35.,75.));
#1469=CARTESIAN_POINT('',(49.7203289440399,75.,75.));
#1470=CARTESIAN_POINT('',(49.7203289440399,-35.,75.));
#1471=CARTESIAN_POINT('Origin',(0.,75.,75.));
#1472=CARTESIAN_POINT('',(0.,-35.,75.));
#1473=CARTESIAN_POINT('Origin',(0.,75.,75.));
#1474=CARTESIAN_POINT('',(550.,-35.,75.));
#1475=CARTESIAN_POINT('',(550.,20.,75.));
#1476=CARTESIAN_POINT('',(600.,-35.,75.));
#1477=CARTESIAN_POINT('',(0.,-35.,75.));
#1478=CARTESIAN_POINT('',(600.,35.,75.));
#1479=CARTESIAN_POINT('Origin',(550.,-35.,75.));
#1480=CARTESIAN_POINT('',(550.,-35.,-75.));
#1481=CARTESIAN_POINT('',(550.,-60.,-75.));
#1482=CARTESIAN_POINT('',(550.,-35.,75.));
#1483=CARTESIAN_POINT('Origin',(550.,75.,-75.));
#1484=CARTESIAN_POINT('',(558.748866352592,-26.2511336474076,-175.));
#1485=CARTESIAN_POINT('',(558.748866352592,-60.,-175.));
#1486=CARTESIAN_POINT('',(550.414637157114,-34.5853628428863,-79.7393243924777));
#1487=CARTESIAN_POINT('Origin',(600.,-5.,0.));
#1488=CARTESIAN_POINT('',(600.,-35.,-75.));
#1489=CARTESIAN_POINT('',(600.,-35.,37.5));
#1490=CARTESIAN_POINT('',(600.,-45.,-75.));
#1491=CARTESIAN_POINT('Origin',(591.251133647408,66.2511336474076,-175.));
#1492=CARTESIAN_POINT('',(591.251133647408,-26.2511336474076,-175.));
#1493=CARTESIAN_POINT('',(591.251133647408,-45.,-175.));
#1494=CARTESIAN_POINT('',(591.251133647408,-26.2511336474076,-445.));
#1495=CARTESIAN_POINT('',(591.251133647408,-26.2511336474076,-175.));
#1496=CARTESIAN_POINT('',(591.251133647408,-45.,-445.));
#1497=CARTESIAN_POINT('Origin',(558.748866352592,-26.2511336474076,-175.));
#1498=CARTESIAN_POINT('',(558.748866352592,-26.2511336474076,-445.));
#1499=CARTESIAN_POINT('',(558.748866352592,-60.,-445.));
#1500=CARTESIAN_POINT('',(558.748866352592,-26.2511336474076,-175.));
#1501=CARTESIAN_POINT('Origin',(591.251133647408,-26.2511336474076,-175.));
#1502=CARTESIAN_POINT('',(0.,-26.2511336474076,-175.));
#1503=CARTESIAN_POINT('',(0.,-26.2511336474076,-445.));
#1504=CARTESIAN_POINT('Origin',(0.,-85.,-445.));
#1505=CARTESIAN_POINT('Origin',(8.7488663525924,-26.2511336474076,-175.));
#1506=CARTESIAN_POINT('',(8.7488663525924,-26.2511336474076,-175.));
#1507=CARTESIAN_POINT('',(8.7488663525924,-26.2511336474076,-175.));
#1508=CARTESIAN_POINT('',(8.7488663525924,75.,-175.));
#1509=CARTESIAN_POINT('Origin',(40.9714625914475,-26.2511336474076,-175.));
#1510=CARTESIAN_POINT('',(0.,-26.2511336474076,-175.));
#1511=CARTESIAN_POINT('Origin',(550.,-35.,-75.));
#1512=CARTESIAN_POINT('',(599.811528564948,-34.8115285649483,-77.1542383602171));
#1513=CARTESIAN_POINT('',(0.,-35.,-75.));
#1514=CARTESIAN_POINT('Origin',(600.,-35.,-75.));
#1515=CARTESIAN_POINT('Origin',(0.,75.,-75.));
#1516=CARTESIAN_POINT('',(0.414637157113685,-34.5853628428863,-79.7393243924777));
#1517=CARTESIAN_POINT('Origin',(0.,-35.,-75.));
#1518=CARTESIAN_POINT('',(0.,-35.,-75.));
#1519=CARTESIAN_POINT('Origin',(49.7203289440399,-35.,75.));
#1520=CARTESIAN_POINT('',(0.,-35.,-75.));
#1521=CARTESIAN_POINT('',(0.,-35.,75.));
#1522=CARTESIAN_POINT('Origin',(550.,-35.,37.5));
#1523=CARTESIAN_POINT('',(550.,-85.,25.));
#1524=CARTESIAN_POINT('',(550.,-85.,-25.));
#1525=CARTESIAN_POINT('',(550.,-85.,37.5));
#1526=CARTESIAN_POINT('Origin',(550.,-35.,-25.));
#1527=CARTESIAN_POINT('Origin',(550.,-35.,25.));
#1528=CARTESIAN_POINT('Origin',(0.,-35.,-25.));
#1529=CARTESIAN_POINT('',(50.,-85.,-25.));
#1530=CARTESIAN_POINT('',(0.,-85.,-25.));
#1531=CARTESIAN_POINT('Origin',(50.,-35.,-25.));
#1532=CARTESIAN_POINT('Origin',(0.,-35.,25.));
#1533=CARTESIAN_POINT('',(50.,-85.,25.));
#1534=CARTESIAN_POINT('',(0.,-85.,25.));
#1535=CARTESIAN_POINT('Origin',(50.,-35.,25.));
#1536=CARTESIAN_POINT('Origin',(50.,-35.,37.5));
#1537=CARTESIAN_POINT('',(50.,-85.,37.5));
#1538=CARTESIAN_POINT('Origin',(0.,-85.,75.));
#1539=CARTESIAN_POINT('Origin',(-25.,0.,0.));
#1540=CARTESIAN_POINT('',(25.,70.,-8.57252759403147E-15));
#1541=CARTESIAN_POINT('Origin',(25.,0.,0.));
#1542=CARTESIAN_POINT('',(-25.,70.,-8.57252759403147E-15));
#1543=CARTESIAN_POINT('',(-25.,70.,8.57252759403147E-15));
#1544=CARTESIAN_POINT('Origin',(-25.,0.,0.));
#1545=CARTESIAN_POINT('Origin',(-25.,0.,0.));
#1546=CARTESIAN_POINT('Origin',(25.,0.,0.));
#1547=CARTESIAN_POINT('Origin',(625.,0.,0.));
#1548=CARTESIAN_POINT('',(575.,-70.,-8.57252759403147E-15));
#1549=CARTESIAN_POINT('Origin',(575.,0.,0.));
#1550=CARTESIAN_POINT('',(625.,-70.,-8.57252759403147E-15));
#1551=CARTESIAN_POINT('',(625.,-70.,8.57252759403147E-15));
#1552=CARTESIAN_POINT('Origin',(625.,0.,0.));
#1553=CARTESIAN_POINT('Origin',(625.,0.,0.));
#1554=CARTESIAN_POINT('Origin',(575.,0.,0.));
#1555=CARTESIAN_POINT('Origin',(28.7084322756544,147.535159141647,-983.492909719308));
#1556=CARTESIAN_POINT('',(545.701181652542,42.0308040908143,-385.147979029031));
#1557=CARTESIAN_POINT('',(603.708432275654,42.0308040908143,-385.147979029031));
#1558=CARTESIAN_POINT('',(442.527025964191,42.0308040908143,-385.147979029031));
#1559=CARTESIAN_POINT('',(545.701181652542,139.96267133616,-940.547197298773));
#1560=CARTESIAN_POINT('',(545.701181652542,65.0714129329707,-515.817765068476));
#1561=CARTESIAN_POINT('',(61.4625753853835,139.96267133616,-940.547197298773));
#1562=CARTESIAN_POINT('',(287.204806964098,139.96267133616,-940.547197298773));
#1563=CARTESIAN_POINT('',(61.4625753853835,42.0308040908143,-385.147979029031));
#1564=CARTESIAN_POINT('',(61.4625753853835,143.748915238903,-962.020053509041));
#1565=CARTESIAN_POINT('',(3.70843227565441,42.0308040908143,-385.147979029031));
#1566=CARTESIAN_POINT('',(442.527025964191,42.0308040908143,-385.147979029031));
#1567=CARTESIAN_POINT('',(3.70843227565441,140.015972482625,-940.849483121686));
#1568=CARTESIAN_POINT('',(3.70843227565441,56.3698658665082,-466.468839387899));
#1569=CARTESIAN_POINT('',(72.0097024648763,151.87636358332,-1008.11310354461));
#1570=CARTESIAN_POINT('Origin',(28.7084322756544,147.535159141647,-983.492909719308));
#1571=CARTESIAN_POINT('',(82.0097024648763,151.87636358332,-1008.11310354461));
#1572=CARTESIAN_POINT('',(50.3590673702654,151.87636358332,-1008.11310354461));
#1573=CARTESIAN_POINT('',(82.0097024648763,143.193954699973,-958.872715894003));
#1574=CARTESIAN_POINT('',(82.0097024648764,145.36455692081,-971.182812806656));
#1575=CARTESIAN_POINT('',(72.0097024648763,143.193954699973,-958.872715894003));
#1576=CARTESIAN_POINT('',(50.3590673702654,143.193954699973,-958.872715894003));
#1577=CARTESIAN_POINT('',(53.7084322756543,140.015972482625,-940.849483121686));
#1578=CARTESIAN_POINT('Origin',(28.7084322756544,147.535159141647,-983.492909719308));
#1579=CARTESIAN_POINT('',(553.708432275654,140.015972482625,-940.849483121686));
#1580=CARTESIAN_POINT('',(291.208432275654,140.015972482625,-940.849483121686));
#1581=CARTESIAN_POINT('',(535.407162086432,143.193954699973,-958.872715894003));
#1582=CARTESIAN_POINT('Origin',(578.708432275654,147.535159141647,-983.492909719308));
#1583=CARTESIAN_POINT('',(525.407162086432,143.193954699973,-958.872715894003));
#1584=CARTESIAN_POINT('',(282.057797181043,143.193954699973,-958.872715894003));
#1585=CARTESIAN_POINT('',(525.407162086432,151.87636358332,-1008.11310354461));
#1586=CARTESIAN_POINT('',(525.407162086432,145.36455692081,-971.182812806656));
#1587=CARTESIAN_POINT('',(535.407162086432,151.87636358332,-1008.11310354461));
#1588=CARTESIAN_POINT('',(282.057797181043,151.87636358332,-1008.11310354461));
#1589=CARTESIAN_POINT('',(603.708432275654,140.015972482625,-940.849483121686));
#1590=CARTESIAN_POINT('Origin',(578.708432275654,147.535159141647,-983.492909719308));
#1591=CARTESIAN_POINT('',(603.708432275654,56.3698658665082,-466.468839387899));
#1592=CARTESIAN_POINT('Origin',(28.7084322756544,157.383236671769,-981.756427942639));
#1593=CARTESIAN_POINT('',(3.70843227565441,149.864050012747,-939.113001345017));
#1594=CARTESIAN_POINT('',(3.70843227565441,149.864050012747,-939.113001345017));
#1595=CARTESIAN_POINT('',(72.0097024648763,161.724441113442,-1006.37662176794));
#1596=CARTESIAN_POINT('Origin',(28.7084322756544,157.383236671769,-981.756427942639));
#1597=CARTESIAN_POINT('',(72.0097024648763,161.724441113442,-1006.37662176794));
#1598=CARTESIAN_POINT('Origin',(3.70843227565441,-152.972357770095,29.7174496234786));
#1599=CARTESIAN_POINT('',(3.70843227565441,51.8788816209364,-383.411497252362));
#1600=CARTESIAN_POINT('',(3.70843227565441,-86.6102668587834,-407.830870664677));
#1601=CARTESIAN_POINT('',(3.70843227565441,147.385379337748,-925.055761409076));
#1602=CARTESIAN_POINT('Origin',(856.345619652728,-97.0744074469161,-409.675980980292));
#1603=CARTESIAN_POINT('',(61.4625753853835,51.8788816209364,-383.411497252362));
#1604=CARTESIAN_POINT('',(61.4625753853835,-84.1482474762529,-407.39675022051));
#1605=CARTESIAN_POINT('',(442.527025964191,51.8788816209364,-383.411497252362));
#1606=CARTESIAN_POINT('Origin',(61.4625753853835,26.7097797397558,-960.51673773047));
#1607=CARTESIAN_POINT('',(61.4625753853835,149.810748866282,-938.810715522104));
#1608=CARTESIAN_POINT('',(61.4625753853835,26.7097797397558,-960.51673773047));
#1609=CARTESIAN_POINT('',(61.4625753853835,153.596992769025,-960.283571732372));
#1610=CARTESIAN_POINT('Origin',(545.701181652542,26.7097797397558,-960.51673773047));
#1611=CARTESIAN_POINT('',(545.701181652542,149.810748866282,-938.810715522104));
#1612=CARTESIAN_POINT('',(545.701181652542,26.7097797397558,-960.51673773047));
#1613=CARTESIAN_POINT('',(287.204806964098,149.810748866282,-938.810715522104));
#1614=CARTESIAN_POINT('Origin',(545.701181652542,-130.645224872109,-68.1121608493397));
#1615=CARTESIAN_POINT('',(545.701181652542,51.8788816209364,-383.411497252362));
#1616=CARTESIAN_POINT('',(545.701181652542,-84.1482474762529,-407.39675022051));
#1617=CARTESIAN_POINT('',(545.701181652542,74.9194904630928,-514.081283291806));
#1618=CARTESIAN_POINT('Origin',(856.345619652728,-97.0744074469161,-409.675980980292));
#1619=CARTESIAN_POINT('',(603.708432275654,51.8788816209364,-383.411497252362));
#1620=CARTESIAN_POINT('',(603.708432275654,-86.6102668587834,-407.830870664677));
#1621=CARTESIAN_POINT('',(442.527025964191,51.8788816209364,-383.411497252362));
#1622=CARTESIAN_POINT('Origin',(603.708432275654,-152.972357770095,29.7174496234786));
#1623=CARTESIAN_POINT('',(603.708432275654,149.864050012747,-939.113001345017));
#1624=CARTESIAN_POINT('',(603.708432275654,149.864050012747,-939.113001345017));
#1625=CARTESIAN_POINT('',(603.708432275654,-18.4355432159983,15.3614219822217));
#1626=CARTESIAN_POINT('Origin',(578.708432275654,157.383236671769,-981.756427942639));
#1627=CARTESIAN_POINT('',(535.407162086432,161.724441113442,-1006.37662176794));
#1628=CARTESIAN_POINT('',(535.407162086432,161.724441113442,-1006.37662176794));
#1629=CARTESIAN_POINT('Origin',(578.708432275654,157.383236671769,-981.756427942639));
#1630=CARTESIAN_POINT('Origin',(578.708432275654,157.383236671769,-981.756427942639));
#1631=CARTESIAN_POINT('',(553.708432275654,149.864050012747,-939.113001345017));
#1632=CARTESIAN_POINT('',(553.708432275654,149.864050012747,-939.113001345017));
#1633=CARTESIAN_POINT('',(535.407162086432,153.042032230096,-957.136234117334));
#1634=CARTESIAN_POINT('Origin',(578.708432275654,157.383236671769,-981.756427942639));
#1635=CARTESIAN_POINT('',(535.407162086432,153.042032230096,-957.136234117334));
#1636=CARTESIAN_POINT('Origin',(525.407162086432,103.801644579485,-965.81864300068));
#1637=CARTESIAN_POINT('',(525.407162086432,153.042032230096,-957.136234117334));
#1638=CARTESIAN_POINT('',(525.407162086432,153.042032230096,-957.136234117334));
#1639=CARTESIAN_POINT('',(525.407162086432,161.724441113442,-1006.37662176794));
#1640=CARTESIAN_POINT('',(525.407162086432,153.042032230096,-957.136234117334));
#1641=CARTESIAN_POINT('',(525.407162086432,161.724441113442,-1006.37662176794));
#1642=CARTESIAN_POINT('Origin',(535.407162086432,103.801644579485,-965.81864300068));
#1643=CARTESIAN_POINT('',(535.407162086432,153.042032230096,-957.136234117334));
#1644=CARTESIAN_POINT('Origin',(535.407162086432,161.724441113442,-1006.37662176794));
#1645=CARTESIAN_POINT('',(535.407162086432,161.724441113442,-1006.37662176794));
#1646=CARTESIAN_POINT('Origin',(28.7084322756544,157.383236671769,-981.756427942639));
#1647=CARTESIAN_POINT('',(53.7084322756543,149.864050012747,-939.113001345017));
#1648=CARTESIAN_POINT('',(553.708432275654,149.864050012747,-939.113001345017));
#1649=CARTESIAN_POINT('',(72.0097024648763,153.042032230096,-957.136234117334));
#1650=CARTESIAN_POINT('Origin',(28.7084322756544,157.383236671769,-981.756427942639));
#1651=CARTESIAN_POINT('',(82.0097024648764,153.042032230096,-957.136234117334));
#1652=CARTESIAN_POINT('',(72.0097024648763,153.042032230096,-957.136234117334));
#1653=CARTESIAN_POINT('',(82.0097024648764,161.724441113442,-1006.37662176794));
#1654=CARTESIAN_POINT('',(82.0097024648764,153.042032230096,-957.136234117334));
#1655=CARTESIAN_POINT('',(72.0097024648763,161.724441113442,-1006.37662176794));
#1656=CARTESIAN_POINT('Origin',(553.708432275654,149.864050012747,-939.113001345017));
#1657=CARTESIAN_POINT('',(53.7084322756543,149.864050012747,-939.113001345017));
#1658=CARTESIAN_POINT('Origin',(72.0097024648763,112.484053462832,-1015.05903065129));
#1659=CARTESIAN_POINT('',(82.0097024648764,161.724441113442,-1006.37662176794));
#1660=CARTESIAN_POINT('Origin',(82.0097024648764,153.042032230096,-957.136234117334));
#1661=CARTESIAN_POINT('',(82.0097024648764,153.042032230096,-957.136234117334));
#1662=CARTESIAN_POINT('Origin',(72.0097024648763,153.042032230096,-957.136234117334));
#1663=CARTESIAN_POINT('',(72.0097024648763,153.042032230096,-957.136234117334));
#1664=CARTESIAN_POINT('Origin',(28.7084322756544,157.383236671769,-981.756427942639));
#1665=UNCERTAINTY_MEASURE_WITH_UNIT(LENGTH_MEASURE(0.01),#1669,
'DISTANCE_ACCURACY_VALUE',
'Maximum model space distance between geometric entities at asserted c
onnectivities');
#1666=UNCERTAINTY_MEASURE_WITH_UNIT(LENGTH_MEASURE(0.01),#1669,
'DISTANCE_ACCURACY_VALUE',
'Maximum model space distance between geometric entities at asserted c
onnectivities');
#1667=(
GEOMETRIC_REPRESENTATION_CONTEXT(3)
GLOBAL_UNCERTAINTY_ASSIGNED_CONTEXT((#1665))
GLOBAL_UNIT_ASSIGNED_CONTEXT((#1669,#1671,#1672))
REPRESENTATION_CONTEXT('','3D')
);
#1668=(
GEOMETRIC_REPRESENTATION_CONTEXT(3)
GLOBAL_UNCERTAINTY_ASSIGNED_CONTEXT((#1666))
GLOBAL_UNIT_ASSIGNED_CONTEXT((#1669,#1671,#1672))
REPRESENTATION_CONTEXT('','3D')
);
#1669=(
LENGTH_UNIT()
NAMED_UNIT(*)
SI_UNIT(.MILLI.,.METRE.)
);
#1670=(
LENGTH_UNIT()
NAMED_UNIT(*)
SI_UNIT($,.METRE.)
);
#1671=(
NAMED_UNIT(*)
PLANE_ANGLE_UNIT()
SI_UNIT($,.RADIAN.)
);
#1672=(
NAMED_UNIT(*)
SI_UNIT($,.STERADIAN.)
SOLID_ANGLE_UNIT()
);
#1673=SHAPE_DEFINITION_REPRESENTATION(#1674,#1675);
#1674=PRODUCT_DEFINITION_SHAPE('',$,#1677);
#1675=SHAPE_REPRESENTATION('',(#1033),#1667);
#1676=PRODUCT_DEFINITION_CONTEXT('part definition',#1681,'design');
#1677=PRODUCT_DEFINITION('(Unsaved)','(Unsaved)',#1678,#1676);
#1678=PRODUCT_DEFINITION_FORMATION('',$,#1683);
#1679=PRODUCT_RELATED_PRODUCT_CATEGORY('(Unsaved)','(Unsaved)',(#1683));
#1680=APPLICATION_PROTOCOL_DEFINITION('international standard',
'automotive_design',2009,#1681);
#1681=APPLICATION_CONTEXT(
'Core Data for Automotive Mechanical Design Process');
#1682=PRODUCT_CONTEXT('part definition',#1681,'mechanical');
#1683=PRODUCT('(Unsaved)','(Unsaved)',$,(#1682));
#1684=PRESENTATION_STYLE_ASSIGNMENT((#1691));
#1685=PRESENTATION_STYLE_ASSIGNMENT((#1692));
#1686=PRESENTATION_STYLE_ASSIGNMENT((#1693));
#1687=PRESENTATION_STYLE_ASSIGNMENT((#1694));
#1688=PRESENTATION_STYLE_ASSIGNMENT((#1695));
#1689=PRESENTATION_STYLE_ASSIGNMENT((#1696));
#1690=PRESENTATION_STYLE_ASSIGNMENT((#1697));
#1691=SURFACE_STYLE_USAGE(.BOTH.,#1698);
#1692=SURFACE_STYLE_USAGE(.BOTH.,#1699);
#1693=SURFACE_STYLE_USAGE(.BOTH.,#1700);
#1694=SURFACE_STYLE_USAGE(.BOTH.,#1701);
#1695=SURFACE_STYLE_USAGE(.BOTH.,#1702);
#1696=SURFACE_STYLE_USAGE(.BOTH.,#1703);
#1697=SURFACE_STYLE_USAGE(.BOTH.,#1704);
#1698=SURFACE_SIDE_STYLE('',(#1705));
#1699=SURFACE_SIDE_STYLE('',(#1706));
#1700=SURFACE_SIDE_STYLE('',(#1707));
#1701=SURFACE_SIDE_STYLE('',(#1708));
#1702=SURFACE_SIDE_STYLE('',(#1709));
#1703=SURFACE_SIDE_STYLE('',(#1710));
#1704=SURFACE_SIDE_STYLE('',(#1711));
#1705=SURFACE_STYLE_FILL_AREA(#1712);
#1706=SURFACE_STYLE_FILL_AREA(#1713);
#1707=SURFACE_STYLE_FILL_AREA(#1714);
#1708=SURFACE_STYLE_FILL_AREA(#1715);
#1709=SURFACE_STYLE_FILL_AREA(#1716);
#1710=SURFACE_STYLE_FILL_AREA(#1717);
#1711=SURFACE_STYLE_FILL_AREA(#1718);
#1712=FILL_AREA_STYLE('Steel - Satin',(#1719));
#1713=FILL_AREA_STYLE('Nylon 12 (with Formlabs Fuse 1 3D Printer)',(#1720));
#1714=FILL_AREA_STYLE('Fabric (Denim)',(#1721));
#1715=FILL_AREA_STYLE('Nylon 6-6 (White)',(#1722));
#1716=FILL_AREA_STYLE('PEEK',(#1723));
#1717=FILL_AREA_STYLE('Paek (Beige)',(#1724));
#1718=FILL_AREA_STYLE('ABS (White)',(#1725));
#1719=FILL_AREA_STYLE_COLOUR('Steel - Satin',#1726);
#1720=FILL_AREA_STYLE_COLOUR(
'Nylon 12 (with Formlabs Fuse 1 3D Printer)',#1727);
#1721=FILL_AREA_STYLE_COLOUR('Fabric (Denim)',#1728);
#1722=FILL_AREA_STYLE_COLOUR('Nylon 6-6 (White)',#1729);
#1723=FILL_AREA_STYLE_COLOUR('PEEK',#1730);
#1724=FILL_AREA_STYLE_COLOUR('Paek (Beige)',#1731);
#1725=FILL_AREA_STYLE_COLOUR('ABS (White)',#1732);
#1726=COLOUR_RGB('Steel - Satin',0.627450980392157,0.627450980392157,0.627450980392157);
#1727=COLOUR_RGB('Nylon 12 (with Formlabs Fuse 1 3D Printer)',0.247058823529412,
0.247058823529412,0.247058823529412);
#1728=COLOUR_RGB('Fabric (Denim)',0.,0.,0.);
#1729=COLOUR_RGB('Nylon 6-6 (White)',0.972549019607843,0.968627450980392,
0.929411764705882);
#1730=COLOUR_RGB('PEEK',0.6,0.509803921568627,0.368627450980392);
#1731=COLOUR_RGB('Paek (Beige)',0.898039215686275,0.792156862745098,0.619607843137255);
#1732=COLOUR_RGB('ABS (White)',0.964705882352941,0.964705882352941,0.952941176470588);
ENDSEC;
END-ISO-10303-21;
