ISO-10303-21;
HEADER;
/* Generated by software containing ST-Developer
 * from STEP Tools, Inc. (www.steptools.com) 
 */

FILE_DESCRIPTION(
/* description */ (''),
/* implementation_level */ '2;1');

FILE_NAME(
/* name */ 'wat.step',
/* time_stamp */ '2026-07-02T14:49:45+05:30',
/* author */ (''),
/* organization */ (''),
/* preprocessor_version */ 'ST-DEVELOPER v20.1',
/* originating_system */ 'Autodesk Translation Framework v15.8.0.0',
/* authorisation */ '');

FILE_SCHEMA (('AUTOMOTIVE_DESIGN { 1 0 10303 214 3 1 1 }'));
ENDSEC;

DATA;
#10=MECHANICAL_DESIGN_GEOMETRIC_PRESENTATION_REPRESENTATION('',(#13),#242);
#11=SHAPE_REPRESENTATION_RELATIONSHIP('SRR','None',#249,#12);
#12=ADVANCED_BREP_SHAPE_REPRESENTATION('',(#14),#241);
#13=STYLED_ITEM('',(#258),#14);
#14=MANIFOLD_SOLID_BREP('Body1',#132);
#15=(
BOUNDED_SURFACE()
B_SPLINE_SURFACE(1,2,((#220,#221,#222,#223,#224,#225,#226,#227,#228),(#229,
#230,#231,#232,#233,#234,#235,#236,#237)),.UNSPECIFIED.,.F.,.T.,.F.)
B_SPLINE_SURFACE_WITH_KNOTS((2,2),(3,2,2,2,3),(-0.184606178935682,0.184606178935682),
(-3.14159265358979,-1.5707963267949,0.,1.5707963267949,3.14159265358979),
 .UNSPECIFIED.)
GEOMETRIC_REPRESENTATION_ITEM()
RATIONAL_B_SPLINE_SURFACE(((1.,0.707106781186548,1.,0.707106781186548,1.,
0.707106781186548,1.,0.707106781186548,1.),(1.,0.707106781186548,1.,0.707106781186548,
1.,0.707106781186548,1.,0.707106781186548,1.)))
REPRESENTATION_ITEM('')
SURFACE()
);
#16=FACE_BOUND('',#29,.T.);
#17=ELLIPSE('',#148,81.2540516600263,30.);
#18=ELLIPSE('',#154,81.2540516600263,30.);
#19=FACE_OUTER_BOUND('',#27,.T.);
#20=FACE_OUTER_BOUND('',#28,.T.);
#21=FACE_OUTER_BOUND('',#30,.T.);
#22=FACE_OUTER_BOUND('',#31,.T.);
#23=FACE_OUTER_BOUND('',#32,.T.);
#24=FACE_OUTER_BOUND('',#33,.T.);
#25=FACE_OUTER_BOUND('',#34,.T.);
#26=FACE_OUTER_BOUND('',#35,.T.);
#27=EDGE_LOOP('',(#87,#88,#89,#90));
#28=EDGE_LOOP('',(#91));
#29=EDGE_LOOP('',(#92,#93,#94,#95));
#30=EDGE_LOOP('',(#96,#97,#98,#99));
#31=EDGE_LOOP('',(#100,#101,#102,#103));
#32=EDGE_LOOP('',(#104,#105,#106,#107));
#33=EDGE_LOOP('',(#108,#109,#110,#111));
#34=EDGE_LOOP('',(#112));
#35=EDGE_LOOP('',(#113,#114,#115,#116));
#36=LINE('',#192,#49);
#37=LINE('',#194,#50);
#38=LINE('',#196,#51);
#39=LINE('',#197,#52);
#40=LINE('',#202,#53);
#41=LINE('',#204,#54);
#42=LINE('',#205,#55);
#43=LINE('',#208,#56);
#44=LINE('',#209,#57);
#45=LINE('',#212,#58);
#46=LINE('',#213,#59);
#47=LINE('',#215,#60);
#48=LINE('',#238,#61);
#49=VECTOR('',#159,10.);
#50=VECTOR('',#160,10.);
#51=VECTOR('',#161,10.);
#52=VECTOR('',#162,10.);
#53=VECTOR('',#167,10.);
#54=VECTOR('',#168,10.);
#55=VECTOR('',#169,10.);
#56=VECTOR('',#172,10.);
#57=VECTOR('',#173,10.);
#58=VECTOR('',#176,10.);
#59=VECTOR('',#177,10.);
#60=VECTOR('',#180,10.);
#61=VECTOR('',#187,81.2540516600263);
#62=VERTEX_POINT('',#190);
#63=VERTEX_POINT('',#191);
#64=VERTEX_POINT('',#193);
#65=VERTEX_POINT('',#195);
#66=VERTEX_POINT('',#199);
#67=VERTEX_POINT('',#201);
#68=VERTEX_POINT('',#203);
#69=VERTEX_POINT('',#207);
#70=VERTEX_POINT('',#211);
#71=VERTEX_POINT('',#218);
#72=EDGE_CURVE('',#62,#63,#36,.T.);
#73=EDGE_CURVE('',#62,#64,#37,.T.);
#74=EDGE_CURVE('',#64,#65,#38,.T.);
#75=EDGE_CURVE('',#65,#63,#39,.T.);
#76=EDGE_CURVE('',#66,#66,#17,.T.);
#77=EDGE_CURVE('',#67,#62,#40,.T.);
#78=EDGE_CURVE('',#63,#68,#41,.T.);
#79=EDGE_CURVE('',#68,#67,#42,.T.);
#80=EDGE_CURVE('',#67,#69,#43,.T.);
#81=EDGE_CURVE('',#69,#64,#44,.T.);
#82=EDGE_CURVE('',#68,#70,#45,.T.);
#83=EDGE_CURVE('',#69,#70,#46,.T.);
#84=EDGE_CURVE('',#70,#65,#47,.T.);
#85=EDGE_CURVE('',#71,#71,#18,.T.);
#86=EDGE_CURVE('',#66,#71,#48,.T.);
#87=ORIENTED_EDGE('',*,*,#72,.F.);
#88=ORIENTED_EDGE('',*,*,#73,.T.);
#89=ORIENTED_EDGE('',*,*,#74,.T.);
#90=ORIENTED_EDGE('',*,*,#75,.T.);
#91=ORIENTED_EDGE('',*,*,#76,.T.);
#92=ORIENTED_EDGE('',*,*,#77,.T.);
#93=ORIENTED_EDGE('',*,*,#72,.T.);
#94=ORIENTED_EDGE('',*,*,#78,.T.);
#95=ORIENTED_EDGE('',*,*,#79,.T.);
#96=ORIENTED_EDGE('',*,*,#77,.F.);
#97=ORIENTED_EDGE('',*,*,#80,.T.);
#98=ORIENTED_EDGE('',*,*,#81,.T.);
#99=ORIENTED_EDGE('',*,*,#73,.F.);
#100=ORIENTED_EDGE('',*,*,#79,.F.);
#101=ORIENTED_EDGE('',*,*,#82,.T.);
#102=ORIENTED_EDGE('',*,*,#83,.F.);
#103=ORIENTED_EDGE('',*,*,#80,.F.);
#104=ORIENTED_EDGE('',*,*,#78,.F.);
#105=ORIENTED_EDGE('',*,*,#75,.F.);
#106=ORIENTED_EDGE('',*,*,#84,.F.);
#107=ORIENTED_EDGE('',*,*,#82,.F.);
#108=ORIENTED_EDGE('',*,*,#84,.T.);
#109=ORIENTED_EDGE('',*,*,#74,.F.);
#110=ORIENTED_EDGE('',*,*,#81,.F.);
#111=ORIENTED_EDGE('',*,*,#83,.T.);
#112=ORIENTED_EDGE('',*,*,#85,.T.);
#113=ORIENTED_EDGE('',*,*,#76,.F.);
#114=ORIENTED_EDGE('',*,*,#86,.T.);
#115=ORIENTED_EDGE('',*,*,#85,.F.);
#116=ORIENTED_EDGE('',*,*,#86,.F.);
#117=PLANE('',#146);
#118=PLANE('',#147);
#119=PLANE('',#149);
#120=PLANE('',#150);
#121=PLANE('',#151);
#122=PLANE('',#152);
#123=PLANE('',#153);
#124=ADVANCED_FACE('',(#19),#117,.T.);
#125=ADVANCED_FACE('',(#20,#16),#118,.T.);
#126=ADVANCED_FACE('',(#21),#119,.T.);
#127=ADVANCED_FACE('',(#22),#120,.T.);
#128=ADVANCED_FACE('',(#23),#121,.T.);
#129=ADVANCED_FACE('',(#24),#122,.T.);
#130=ADVANCED_FACE('',(#25),#123,.F.);
#131=ADVANCED_FACE('',(#26),#15,.F.);
#132=CLOSED_SHELL('',(#124,#125,#126,#127,#128,#129,#130,#131));
#133=DERIVED_UNIT_ELEMENT(#135,1.);
#134=DERIVED_UNIT_ELEMENT(#244,-3.);
#135=(
MASS_UNIT()
NAMED_UNIT(*)
SI_UNIT(.KILO.,.GRAM.)
);
#136=DERIVED_UNIT((#133,#134));
#137=MEASURE_REPRESENTATION_ITEM('density measure',
POSITIVE_RATIO_MEASURE(7850.),#136);
#138=PROPERTY_DEFINITION_REPRESENTATION(#143,#140);
#139=PROPERTY_DEFINITION_REPRESENTATION(#144,#141);
#140=REPRESENTATION('material name',(#142),#241);
#141=REPRESENTATION('density',(#137),#241);
#142=DESCRIPTIVE_REPRESENTATION_ITEM('Steel','Steel');
#143=PROPERTY_DEFINITION('material property','material name',#251);
#144=PROPERTY_DEFINITION('material property','density of part',#251);
#145=AXIS2_PLACEMENT_3D('',#188,#155,#156);
#146=AXIS2_PLACEMENT_3D('',#189,#157,#158);
#147=AXIS2_PLACEMENT_3D('',#198,#163,#164);
#148=AXIS2_PLACEMENT_3D('',#200,#165,#166);
#149=AXIS2_PLACEMENT_3D('',#206,#170,#171);
#150=AXIS2_PLACEMENT_3D('',#210,#174,#175);
#151=AXIS2_PLACEMENT_3D('',#214,#178,#179);
#152=AXIS2_PLACEMENT_3D('',#216,#181,#182);
#153=AXIS2_PLACEMENT_3D('',#217,#183,#184);
#154=AXIS2_PLACEMENT_3D('',#219,#185,#186);
#155=DIRECTION('axis',(0.,0.,1.));
#156=DIRECTION('refdir',(1.,0.,0.));
#157=DIRECTION('center_axis',(0.,1.,0.));
#158=DIRECTION('ref_axis',(0.,0.,1.));
#159=DIRECTION('',(1.,0.,0.));
#160=DIRECTION('',(0.,0.,1.));
#161=DIRECTION('',(1.,0.,0.));
#162=DIRECTION('',(0.,0.,-1.));
#163=DIRECTION('center_axis',(0.,0.,1.));
#164=DIRECTION('ref_axis',(1.,0.,0.));
#165=DIRECTION('center_axis',(0.,0.,1.));
#166=DIRECTION('ref_axis',(0.,1.,0.));
#167=DIRECTION('',(0.,1.,0.));
#168=DIRECTION('',(0.,-1.,0.));
#169=DIRECTION('',(-1.,0.,0.));
#170=DIRECTION('center_axis',(-1.,0.,0.));
#171=DIRECTION('ref_axis',(0.,-1.,0.));
#172=DIRECTION('',(0.,0.,1.));
#173=DIRECTION('',(0.,1.,0.));
#174=DIRECTION('center_axis',(0.,-1.,0.));
#175=DIRECTION('ref_axis',(1.,0.,0.));
#176=DIRECTION('',(0.,0.,1.));
#177=DIRECTION('',(1.,0.,0.));
#178=DIRECTION('center_axis',(1.,0.,0.));
#179=DIRECTION('ref_axis',(0.,1.,0.));
#180=DIRECTION('',(0.,1.,0.));
#181=DIRECTION('center_axis',(0.,0.,1.));
#182=DIRECTION('ref_axis',(1.,0.,0.));
#183=DIRECTION('center_axis',(0.,0.,1.));
#184=DIRECTION('ref_axis',(1.,0.,0.));
#185=DIRECTION('center_axis',(0.,0.,-1.));
#186=DIRECTION('ref_axis',(0.,1.,0.));
#187=DIRECTION('',(0.,0.,-1.));
#188=CARTESIAN_POINT('',(0.,0.,0.));
#189=CARTESIAN_POINT('Origin',(0.,25.,0.));
#190=CARTESIAN_POINT('',(-30.0077728760607,25.,15.));
#191=CARTESIAN_POINT('',(0.,25.,15.));
#192=CARTESIAN_POINT('',(-7.5,25.,15.));
#193=CARTESIAN_POINT('',(-30.0077728760607,25.,40.));
#194=CARTESIAN_POINT('',(-30.0077728760607,25.,0.));
#195=CARTESIAN_POINT('',(0.,25.,40.));
#196=CARTESIAN_POINT('',(0.,25.,40.));
#197=CARTESIAN_POINT('',(0.,25.,0.));
#198=CARTESIAN_POINT('Origin',(-15.,0.,15.));
#199=CARTESIAN_POINT('',(-15.,-81.2540516600263,15.));
#200=CARTESIAN_POINT('Origin',(-15.,0.,15.));
#201=CARTESIAN_POINT('',(-30.0077728760607,-30.,15.));
#202=CARTESIAN_POINT('',(-30.0077728760607,0.,15.));
#203=CARTESIAN_POINT('',(0.,-30.,15.));
#204=CARTESIAN_POINT('',(0.,0.,15.));
#205=CARTESIAN_POINT('',(-22.5038864380304,-30.,15.));
#206=CARTESIAN_POINT('Origin',(-30.0077728760607,0.,0.));
#207=CARTESIAN_POINT('',(-30.0077728760607,-30.,40.));
#208=CARTESIAN_POINT('',(-30.0077728760607,-30.,0.));
#209=CARTESIAN_POINT('',(-30.0077728760607,0.,40.));
#210=CARTESIAN_POINT('Origin',(-30.0077728760607,-30.,0.));
#211=CARTESIAN_POINT('',(0.,-30.,40.));
#212=CARTESIAN_POINT('',(0.,-30.,0.));
#213=CARTESIAN_POINT('',(-30.0077728760607,-30.,40.));
#214=CARTESIAN_POINT('Origin',(0.,-30.,0.));
#215=CARTESIAN_POINT('',(0.,-30.,40.));
#216=CARTESIAN_POINT('Origin',(-15.0038864380304,-15.,40.));
#217=CARTESIAN_POINT('Origin',(-15.,0.,-15.));
#218=CARTESIAN_POINT('',(-15.,-81.2540516600263,-15.));
#219=CARTESIAN_POINT('Origin',(-15.,0.,-15.));
#220=CARTESIAN_POINT('Ctrl Pts',(-15.,-81.2540516600263,-15.));
#221=CARTESIAN_POINT('Ctrl Pts',(15.,-81.2540516600263,-15.));
#222=CARTESIAN_POINT('Ctrl Pts',(15.,0.,-15.));
#223=CARTESIAN_POINT('Ctrl Pts',(15.,81.2540516600263,-15.));
#224=CARTESIAN_POINT('Ctrl Pts',(-15.,81.2540516600263,-15.));
#225=CARTESIAN_POINT('Ctrl Pts',(-45.,81.2540516600263,-15.));
#226=CARTESIAN_POINT('Ctrl Pts',(-45.,0.,-15.));
#227=CARTESIAN_POINT('Ctrl Pts',(-45.,-81.2540516600263,-15.));
#228=CARTESIAN_POINT('Ctrl Pts',(-15.,-81.2540516600263,-15.));
#229=CARTESIAN_POINT('Ctrl Pts',(-15.,-81.2540516600263,15.));
#230=CARTESIAN_POINT('Ctrl Pts',(15.,-81.2540516600263,15.));
#231=CARTESIAN_POINT('Ctrl Pts',(15.,0.,15.));
#232=CARTESIAN_POINT('Ctrl Pts',(15.,81.2540516600263,15.));
#233=CARTESIAN_POINT('Ctrl Pts',(-15.,81.2540516600263,15.));
#234=CARTESIAN_POINT('Ctrl Pts',(-45.,81.2540516600263,15.));
#235=CARTESIAN_POINT('Ctrl Pts',(-45.,0.,15.));
#236=CARTESIAN_POINT('Ctrl Pts',(-45.,-81.2540516600263,15.));
#237=CARTESIAN_POINT('Ctrl Pts',(-15.,-81.2540516600263,15.));
#238=CARTESIAN_POINT('',(-15.,-81.2540516600263,0.));
#239=UNCERTAINTY_MEASURE_WITH_UNIT(LENGTH_MEASURE(0.01),#243,
'DISTANCE_ACCURACY_VALUE',
'Maximum model space distance between geometric entities at asserted c
onnectivities');
#240=UNCERTAINTY_MEASURE_WITH_UNIT(LENGTH_MEASURE(0.01),#243,
'DISTANCE_ACCURACY_VALUE',
'Maximum model space distance between geometric entities at asserted c
onnectivities');
#241=(
GEOMETRIC_REPRESENTATION_CONTEXT(3)
GLOBAL_UNCERTAINTY_ASSIGNED_CONTEXT((#239))
GLOBAL_UNIT_ASSIGNED_CONTEXT((#243,#245,#246))
REPRESENTATION_CONTEXT('','3D')
);
#242=(
GEOMETRIC_REPRESENTATION_CONTEXT(3)
GLOBAL_UNCERTAINTY_ASSIGNED_CONTEXT((#240))
GLOBAL_UNIT_ASSIGNED_CONTEXT((#243,#245,#246))
REPRESENTATION_CONTEXT('','3D')
);
#243=(
LENGTH_UNIT()
NAMED_UNIT(*)
SI_UNIT(.MILLI.,.METRE.)
);
#244=(
LENGTH_UNIT()
NAMED_UNIT(*)
SI_UNIT($,.METRE.)
);
#245=(
NAMED_UNIT(*)
PLANE_ANGLE_UNIT()
SI_UNIT($,.RADIAN.)
);
#246=(
NAMED_UNIT(*)
SI_UNIT($,.STERADIAN.)
SOLID_ANGLE_UNIT()
);
#247=SHAPE_DEFINITION_REPRESENTATION(#248,#249);
#248=PRODUCT_DEFINITION_SHAPE('',$,#251);
#249=SHAPE_REPRESENTATION('',(#145),#241);
#250=PRODUCT_DEFINITION_CONTEXT('part definition',#255,'design');
#251=PRODUCT_DEFINITION('(Unsaved)','(Unsaved)',#252,#250);
#252=PRODUCT_DEFINITION_FORMATION('',$,#257);
#253=PRODUCT_RELATED_PRODUCT_CATEGORY('(Unsaved)','(Unsaved)',(#257));
#254=APPLICATION_PROTOCOL_DEFINITION('international standard',
'automotive_design',2009,#255);
#255=APPLICATION_CONTEXT(
'Core Data for Automotive Mechanical Design Process');
#256=PRODUCT_CONTEXT('part definition',#255,'mechanical');
#257=PRODUCT('(Unsaved)','(Unsaved)',$,(#256));
#258=PRESENTATION_STYLE_ASSIGNMENT((#259));
#259=SURFACE_STYLE_USAGE(.BOTH.,#260);
#260=SURFACE_SIDE_STYLE('',(#261));
#261=SURFACE_STYLE_FILL_AREA(#262);
#262=FILL_AREA_STYLE('Steel - Satin',(#263));
#263=FILL_AREA_STYLE_COLOUR('Steel - Satin',#264);
#264=COLOUR_RGB('Steel - Satin',0.627450980392157,0.627450980392157,0.627450980392157);
ENDSEC;
END-ISO-10303-21;
